<?xml version="1.0" encoding="utf-8"?>
<!-- Generator: Adobe Illustrator 13.0.0, SVG Export Plug-In  -->
<!DOCTYPE svg PUBLIC "-//W3C//DTD SVG 1.1//EN" "http://www.w3.org/Graphics/SVG/1.1/DTD/svg11.dtd" [
	<!ENTITY ns_flows "http://ns.adobe.com/Flows/1.0/">
]>
<svg version="1.1"
	 xmlns="http://www.w3.org/2000/svg" xmlns:xlink="http://www.w3.org/1999/xlink" xmlns:a="http://ns.adobe.com/AdobeSVGViewerExtensions/3.0/"
	 x="0px" y="0px" width="46px" height="66px" viewBox="-0.451 -0.773 46 66" enable-background="new -0.451 -0.773 46 66"
	 xml:space="preserve">
<defs>
</defs>
<path fill="#FFFFFF" d="M12.198,19.867c0.095,1.023-0.653,1.941-1.681,2.03c-1.021,0.095-1.939-0.661-2.029-1.683
	c-0.094-1.031,0.656-1.939,1.682-2.034C11.195,18.088,12.105,18.839,12.198,19.867"/>
<path fill="#FFFFFF" d="M25.076,19.864c0.1,1.026-1.156,1.979-2.797,2.133c-1.65,0.152-3.055-0.562-3.155-1.582
	c-0.088-1.022,1.16-1.98,2.807-2.13C23.572,18.123,24.983,18.839,25.076,19.864"/>
<path fill="#FFFFFF" d="M31.781,18.043c0.099,1.029,1.007,1.781,2.037,1.689c1.021-0.098,1.773-1.004,1.68-2.037
	c-0.097-1.019-1.006-1.776-2.031-1.679C32.439,16.105,31.693,17.021,31.781,18.043"/>
<path fill="#FFFFFF" d="M19.528,24.287c-0.022-0.004-0.112-0.018-0.112-0.018c-0.113-0.022-0.229-0.02-0.344,0.013
	c-0.148-0.13-0.33-0.198-0.525-0.211c-0.09-0.034-0.18-0.069-0.271-0.082c-0.065-0.034-0.133-0.052-0.2-0.064
	c-0.093-0.052-0.187-0.083-0.284-0.095c-0.074-0.052-0.158-0.098-0.237-0.121c-0.047-0.035-0.091-0.07-0.144-0.105
	c-0.086-0.104-0.193-0.182-0.316-0.24c-0.029-0.016-0.061-0.047-0.061-0.047c-0.036-0.041-0.086-0.076-0.137-0.107
	c-0.023-0.031-0.058-0.063-0.082-0.088c-0.037-0.093-0.082-0.163-0.146-0.232c-0.023-0.101-0.065-0.194-0.12-0.27
	c-0.016-0.088-0.037-0.159-0.064-0.23c-0.003-0.032-0.02-0.074-0.027-0.107c0.006-0.031,0.012-0.053,0.012-0.084
	c0.02-0.048,0.043-0.106,0.053-0.158c0.027-0.064,0.049-0.124,0.066-0.195c0.008-0.016,0.021-0.035,0.034-0.057
	c0.076-0.083,0.14-0.168,0.194-0.277c0,0,0.016-0.034,0.034-0.074c0.009-0.01,0.069-0.066,0.071-0.066
	c0.105-0.062,0.192-0.145,0.266-0.236c0.009-0.014,0.082-0.07,0.082-0.07c0.092-0.067,0.16-0.15,0.223-0.238
	c0.114-0.047,0.217-0.102,0.305-0.176c0.143-0.044,0.266-0.111,0.377-0.211c0.031-0.022,0.057-0.037,0.089-0.06
	c0.099-0.03,0.188-0.08,0.271-0.144c0.176-0.031,0.342-0.121,0.469-0.252c0.145,0,0.286-0.033,0.414-0.106
	c0.193-0.009,0.376-0.081,0.525-0.199c0.15,0.024,0.299,0,0.437-0.064c0.064-0.007,0.124-0.019,0.185-0.04l0.133-0.041
	c0.063-0.013,0.116-0.039,0.169-0.066c0.034-0.012,0.071-0.016,0.091-0.021c0.121,0.027,0.248,0.027,0.371-0.002l0.136-0.025
	c0.044-0.022,0.094-0.033,0.141-0.053c0.083-0.008,0.158-0.026,0.239-0.059h0.008l0.145-0.003c0.035,0,0.07-0.015,0.104-0.015
	c0,0,0.044-0.014,0.078-0.017h0.004c0.014,0,0.014,0,0.016,0.003c0.034,0.014,0.102,0.028,0.102,0.028
	c0.149,0.039,0.301,0.039,0.445,0c0.018,0,0.109,0.003,0.109,0.003c0.109,0.004,0.213-0.018,0.322-0.051
	c0.02,0.017,0.104,0.033,0.104,0.033c0.152,0.045,0.329,0.033,0.479-0.014c0.053,0,0.101-0.003,0.152-0.02
	c0,0,0.078-0.005,0.104-0.02c0.203,0.148,0.447,0.192,0.674,0.139c0.037,0.01,0.07,0.021,0.07,0.021
	c0.119,0.043,0.24,0.043,0.361,0.033c0.018,0,0.035,0.01,0.035,0.01c0.04,0.005,0.078,0.013,0.117,0.017h0.012
	c0.005,0.012,0.017,0.016,0.017,0.016c0.015,0.002,0.03,0.009,0.036,0.014l0.129,0.049c0.037,0.008,0.084,0.029,0.123,0.029
	l0.129,0.033h0.022c0.063,0.031,0.129,0.066,0.196,0.083h0.01h0.011c0.06,0.036,0.129,0.064,0.199,0.083
	c0.14,0.086,0.3,0.137,0.469,0.137c0.036,0.021,0.079,0.053,0.132,0.076c0,0,0.012,0.008,0.038,0.012
	c0.009,0.016,0.032,0.031,0.032,0.031c0.061,0.043,0.115,0.074,0.185,0.096c0.081,0.092,0.181,0.164,0.29,0.221
	c0.092,0.105,0.203,0.184,0.332,0.242c0.047,0.068,0.107,0.134,0.168,0.188c0.025,0.099,0.071,0.188,0.129,0.264
	c0.01,0.094,0.035,0.181,0.086,0.266c-0.003,0.044-0.003,0.097,0,0.145l0.008,0.105c0,0.021,0.006,0.034,0.007,0.053
	c-0.007,0.018-0.012,0.039-0.012,0.039c-0.024,0.049-0.04,0.101-0.058,0.162c-0.025,0.039-0.047,0.103-0.065,0.146l-0.034,0.12
	l-0.002,0.006c-0.102,0.081-0.192,0.169-0.257,0.28c-0.047,0.024-0.083,0.068-0.126,0.104c-0.056,0.062-0.096,0.127-0.127,0.203
	c-0.043,0.021-0.076,0.04-0.107,0.07l-0.094,0.076c-0.015,0.012-0.023,0.018-0.032,0.03c0,0-0.052,0.038-0.079,0.069
	c-0.135,0.059-0.25,0.149-0.337,0.271c-0.034,0.012-0.073,0.021-0.073,0.021c-0.032,0.005-0.062,0.022-0.097,0.034l-0.124,0.049
	c-0.098,0.041-0.186,0.102-0.264,0.17c-0.15,0.017-0.307,0.09-0.426,0.193c0,0-0.021,0.016-0.033,0.02h-0.009
	c-0.142,0.021-0.28,0.085-0.401,0.161c-0.055,0.022-0.098,0.038-0.143,0.069c-0.117,0-0.229,0.024-0.33,0.066
	c-0.113,0.01-0.217,0.042-0.318,0.098c-0.16,0.019-0.303,0.088-0.428,0.194c-0.009,0-0.015,0-0.025,0.003c0,0-0.08,0.02-0.109,0.032
	c-0.031,0.001-0.111,0.022-0.111,0.022h-0.021c-0.036-0.004-0.073-0.004-0.111-0.004h-0.146c-0.001,0-0.014,0.004-0.019,0.004h-0.14
	h-0.062c0,0-0.078,0.011-0.111,0.019h-0.111c-0.092,0.013-0.174,0.03-0.26,0.06c-0.125-0.014-0.26-0.007-0.379,0.039
	c-0.059,0-0.12,0.002-0.178,0.019c-0.074-0.013-0.146-0.017-0.218-0.013l-0.128,0.013c-0.047,0.011-0.101,0.019-0.152,0.035h-0.027
	h-0.12h-0.018l-0.12,0.009c-0.066,0-0.127,0.008-0.189,0.02c-0.096-0.028-0.195-0.045-0.299-0.045h-0.119
	c-0.052,0-0.105,0.017-0.152,0.025h-0.131c-0.084-0.033-0.174-0.057-0.254-0.061h-0.037c-0.016-0.002-0.037-0.01-0.037-0.01
	c-0.012-0.004-0.033-0.008-0.047-0.011l-0.131-0.034c-0.088-0.021-0.176-0.021-0.264-0.016c-0.059-0.03-0.127-0.049-0.189-0.049
	C19.639,24.305,19.546,24.287,19.528,24.287 M19.941,26.11c0.018,0.005,0.026,0.005,0.035,0.005
	c0.056,0.042,0.115,0.065,0.172,0.076l0.125,0.042c0.169,0.05,0.34,0.05,0.504,0.002c0.034,0,0.058,0,0.09-0.002
	c0.043,0.017,0.088,0.03,0.133,0.035l0.123,0.019c0.049,0.013,0.102,0.017,0.146,0.017h0.128c0.103,0,0.218-0.022,0.315-0.062
	c0.146,0.031,0.301,0.021,0.446-0.031c0.005,0.006,0.024,0.006,0.024,0.006c0.121,0.034,0.251,0.033,0.373,0
	c0.123,0,0.235-0.018,0.342-0.053c0.203,0.027,0.409-0.019,0.579-0.133c0.035,0,0.082-0.004,0.095-0.004h0.018
	c0.023,0.004,0.049,0.01,0.049,0.01c0.16,0.038,0.332,0.028,0.488-0.026c0,0,0.039-0.013,0.07-0.028
	c0.041-0.001,0.074-0.014,0.074-0.014c0.012,0,0.031,0,0.044-0.008h0.011h0.029c0.131,0,0.264-0.026,0.394-0.084l0.124-0.06
	c0.029-0.007,0.063-0.032,0.093-0.05c0.104,0.01,0.216,0.01,0.322-0.021c0.079-0.029,0.146-0.068,0.212-0.103
	c0.21-0.003,0.402-0.095,0.55-0.242c0.149-0.026,0.293-0.082,0.416-0.176c0.144-0.009,0.293-0.038,0.421-0.12l0.107-0.065
	c0.069-0.028,0.131-0.084,0.178-0.136l0.097-0.1h0.005c0.014-0.005,0.02-0.01,0.027-0.018l0.123-0.039
	c0.053-0.025,0.098-0.05,0.144-0.073l0.017-0.017c0.007-0.002,0.027-0.004,0.027-0.004c0.193-0.066,0.354-0.195,0.465-0.367
	c0,0,0.006-0.004,0.008-0.005l0.102-0.094c0.123-0.036,0.234-0.104,0.328-0.191c0.137-0.06,0.249-0.167,0.331-0.293
	c0.018-0.01,0.04-0.03,0.053-0.046c0.076-0.07,0.124-0.158,0.161-0.236c0.056-0.045,0.097-0.089,0.137-0.137l0.077-0.107
	c0.036-0.057,0.07-0.108,0.089-0.167c0.09-0.094,0.151-0.214,0.184-0.34c0.062-0.075,0.109-0.157,0.141-0.247
	c0.044-0.125,0.064-0.251,0.051-0.374c0-0.011-0.007-0.021-0.007-0.032l0.007-0.013l0.023-0.103
	c0.035-0.107,0.051-0.213,0.035-0.315c-0.004-0.024-0.004-0.046-0.013-0.063c0,0,0-0.03-0.006-0.057
	c0.026-0.092,0.034-0.197,0.019-0.289c-0.004-0.033-0.013-0.077-0.013-0.115c0,0-0.022-0.078-0.026-0.104s-0.026-0.119-0.026-0.119
	c-0.009-0.062-0.024-0.117-0.048-0.171V20.66c-0.002-0.023-0.006-0.056-0.01-0.081l-0.024-0.134
	c-0.032-0.172-0.122-0.329-0.231-0.445c-0.029-0.083-0.064-0.156-0.107-0.227l-0.072-0.105c-0.062-0.096-0.145-0.176-0.228-0.231
	c-0.087-0.104-0.188-0.202-0.313-0.253c-0.092-0.169-0.244-0.315-0.436-0.392h-0.006c-0.137-0.157-0.336-0.26-0.558-0.286
	c-0.123-0.147-0.294-0.256-0.485-0.305c-0.129-0.072-0.275-0.107-0.432-0.107c-0.059-0.017-0.117-0.023-0.178-0.04
	c-0.182-0.148-0.429-0.231-0.672-0.199c-0.039-0.015-0.08-0.032-0.08-0.032c-0.075-0.031-0.143-0.049-0.217-0.059
	c0,0-0.028-0.003-0.053-0.01c-0.012-0.005-0.028-0.006-0.028-0.006c-0.147-0.086-0.323-0.11-0.489-0.103
	c-0.01,0-0.125-0.038-0.125-0.038c-0.131-0.05-0.265-0.055-0.398-0.05c-0.094-0.03-0.188-0.04-0.283-0.04h-0.01
	c-0.178-0.062-0.376-0.053-0.558,0.023c-0.035-0.014-0.069-0.014-0.105,0c-0.1-0.049-0.21-0.076-0.323-0.076h-0.117
	c-0.046,0-0.082,0.003-0.121,0.01l-0.127,0.018c-0.043,0.005-0.09,0.014-0.138,0.035c-0.126-0.021-0.253-0.01-0.366,0.03
	c-0.027-0.005-0.045-0.005-0.073-0.005l-0.114-0.012c-0.044,0-0.096,0-0.137,0.012l-0.111,0.005c-0.02,0-0.045,0.015-0.065,0.015
	h-0.03h-0.027c-0.142-0.031-0.282-0.02-0.416,0.015c-0.147-0.004-0.285,0.026-0.42,0.089c-0.098,0-0.199,0.009-0.296,0.041
	c-0.229-0.041-0.46,0.021-0.65,0.145c-0.034,0.012-0.073,0.02-0.1,0.025c-0.129-0.006-0.251,0.008-0.369,0.056
	c0,0-0.035,0.007-0.069,0.018c-0.031,0.009-0.062,0.009-0.068,0.018c-0.002,0-0.132,0.024-0.132,0.024
	c-0.069,0.012-0.136,0.041-0.202,0.068c-0.132,0.018-0.268,0.06-0.385,0.144c0,0-0.022,0.021-0.046,0.032
	c-0.044,0.008-0.089,0.021-0.132,0.039c0,0-0.096,0.033-0.12,0.033c-0.018,0.008-0.116,0.04-0.116,0.04
	c-0.064,0.022-0.125,0.056-0.186,0.085l-0.113,0.076c-0.002,0.004-0.014,0.013-0.021,0.019c-0.062,0.014-0.12,0.034-0.178,0.065
	l-0.118,0.061c-0.021,0.018-0.047,0.034-0.073,0.047c-0.148,0.054-0.293,0.134-0.398,0.256c-0.029,0.016-0.056,0.02-0.076,0.048
	c-0.139,0.026-0.268,0.085-0.381,0.169c-0.102,0.037-0.199,0.09-0.278,0.18l-0.097,0.08c-0.006,0.006-0.009,0.01-0.021,0.021
	c0,0-0.022,0.027-0.046,0.043c-0.024,0.023-0.051,0.041-0.051,0.041c-0.047,0.039-0.09,0.076-0.12,0.119
	c-0.192,0.084-0.351,0.236-0.434,0.422c-0.026,0.023-0.044,0.05-0.058,0.081c-0.154,0.089-0.265,0.216-0.335,0.374
	c-0.036,0.029-0.079,0.069-0.104,0.104l-0.084,0.107c-0.081,0.092-0.137,0.213-0.168,0.342c-0.072,0.127-0.115,0.277-0.115,0.432
	c-0.012,0.033-0.015,0.064-0.021,0.098c-0.023,0.055-0.044,0.113-0.06,0.168c-0.064,0.125-0.098,0.267-0.093,0.41v0.109
	c0,0.018,0,0.042,0.007,0.069c0,0.005,0,0.017,0.004,0.023l0.007,0.106c0.003,0.014,0.005,0.031,0.011,0.049
	c-0.006,0.057-0.006,0.103,0,0.15c0.016,0.118,0.049,0.238,0.115,0.342c0,0.015-0.009,0.039,0,0.061
	c0.012,0.17,0.078,0.326,0.186,0.459c0.012,0.04,0.028,0.084,0.028,0.084c0.054,0.172,0.163,0.318,0.29,0.413
	c0.031,0.043,0.062,0.081,0.094,0.123c0,0,0.08,0.088,0.09,0.089c0.082,0.168,0.212,0.298,0.371,0.375
	c0.084,0.125,0.204,0.227,0.339,0.287c0.067,0.066,0.136,0.109,0.218,0.15c0.058,0.051,0.125,0.104,0.198,0.147l0.12,0.06
	c0.038,0.017,0.091,0.037,0.135,0.05c0.09,0.056,0.186,0.097,0.293,0.13l0.129,0.032h0.035c0.059,0.034,0.121,0.06,0.179,0.074
	c0.094,0.065,0.196,0.089,0.31,0.123c0.088,0.042,0.189,0.073,0.303,0.099c0,0,0.053,0,0.088,0.007l0.015,0.018
	c0.134,0.094,0.302,0.146,0.464,0.147h0.011c0.165,0.093,0.353,0.123,0.532,0.093c0.178,0.089,0.381,0.116,0.576,0.07
	C19.828,26.146,19.912,26.122,19.941,26.11"/>
<path fill="#FFFFFF" d="M43.582,63.347c-0.111,0.039-0.206-0.082-0.311-0.082c-0.035,0.002-0.076,0.008-0.117,0.012
	c-0.049-0.012-0.1-0.018-0.15-0.017c-0.008-0.001-0.021-0.002-0.025,0.001c0,0-0.055,0.004-0.105,0.007
	c-0.033-0.003-0.09-0.009-0.09-0.009c-0.021-0.001-0.041-0.001-0.052-0.001c-0.106,0.001-0.204,0.023-0.3,0.077
	c-0.078-0.032-0.157-0.048-0.245-0.052c-0.011,0-0.022-0.001-0.029,0.002c-0.081,0.008-0.147,0.018-0.218,0.048
	c-0.117-0.126-0.279-0.2-0.455-0.2c-0.001,0.002-0.012,0.002-0.024,0.006c-0.208,0.002-0.392,0.124-0.498,0.287
	c-0.029-0.002-0.06-0.006-0.087-0.008c-0.076-0.065-0.156-0.112-0.246-0.131c-0.06-0.021-0.113-0.029-0.168-0.031
	c-0.062,0.003-0.119,0.014-0.172,0.027c-0.007,0-0.007,0-0.012,0c-0.096-0.059-0.205-0.102-0.324-0.099
	c-0.008-0.001-0.018-0.002-0.034-0.002c-0.063,0.005-0.118,0.022-0.182,0.046c-0.091-0.049-0.196-0.081-0.3-0.08
	c-0.027,0.006-0.072,0.005-0.11,0.01c-0.11,0.018-0.21,0.071-0.298,0.143c-0.07-0.028-0.153-0.05-0.236-0.048
	c-0.016,0-0.031,0.001-0.041,0.005c0,0-0.059,0.002-0.099,0.002c-0.041-0.002-0.094-0.007-0.094-0.007
	c-0.012-0.001-0.018,0.005-0.024,0.005c-0.017,0.005-0.039,0.004-0.062,0.008l-0.123-0.045c-0.07-0.025-0.143-0.035-0.207-0.038
	c-0.017,0.002-0.028,0.001-0.057,0.007l-0.129,0.006c-0.092,0.01-0.183,0.041-0.259,0.094c-0.064-0.03-0.146-0.044-0.217-0.043
	c-0.067-0.003-0.132,0.012-0.199,0.029c0,0,0,0.008-0.007,0.007c-0.055-0.023-0.11-0.032-0.182-0.034l-0.005-0.001
	c-0.085,0.003-0.152,0.018-0.226,0.044c-0.014-0.002-0.021-0.004-0.021-0.004c-0.044-0.006-0.085-0.011-0.116-0.014
	c-0.09-0.049-0.2-0.082-0.305-0.08c-0.012,0-0.013-0.001-0.03,0.001c-0.146,0.006-0.274,0.07-0.381,0.159
	c-0.094-0.07-0.193-0.12-0.304-0.14l-0.137-0.015c-0.028-0.004-0.062-0.006-0.093-0.009c-0.036-0.001-0.067,0.005-0.105,0.011
	c-0.05-0.017-0.111-0.021-0.165-0.024c-0.017,0.004-0.018,0.004-0.027,0.003c-0.131,0.006-0.262,0.055-0.355,0.131
	c-0.025,0.004-0.05,0.013-0.067,0.02c-0.073-0.031-0.158-0.047-0.228-0.047c-0.033-0.004-0.066,0-0.104,0.009
	c0,0-0.043,0.007-0.084,0.012c-0.105-0.075-0.23-0.124-0.37-0.122c-0.128,0-0.257,0.041-0.36,0.112
	c-0.064,0.012-0.115,0.022-0.178,0.048c-0.089-0.043-0.18-0.07-0.271-0.065c-0.057-0.003-0.099,0-0.145,0.015
	c-0.107,0.025-0.212,0.086-0.297,0.159c-0.009-0.001-0.031-0.007-0.056-0.005c-0.007-0.002-0.015-0.002-0.026,0
	c-0.016-0.005-0.032-0.016-0.045-0.016l-0.123-0.036c-0.058-0.017-0.123-0.022-0.178-0.021c-0.126-0.004-0.234,0.038-0.344,0.107
	c-0.006-0.007-0.014-0.016-0.014-0.016c-0.111-0.174-0.312-0.266-0.508-0.271c-0.039,0.002-0.075,0.003-0.119,0.013
	c-0.062,0.016-0.119,0.032-0.172,0.061c-0.059-0.02-0.129-0.045-0.199-0.043h-0.012c-0.166,0.002-0.317,0.066-0.432,0.186
	c-0.078,0.023-0.156,0.068-0.229,0.121c-0.1-0.068-0.223-0.107-0.336-0.109c-0.025,0-0.045,0-0.065-0.002
	c-0.118-0.121-0.278-0.197-0.451-0.195c-0.006,0-0.021-0.001-0.029,0.006c-0.147,0.002-0.281,0.059-0.386,0.16
	c-0.1-0.072-0.213-0.109-0.342-0.118c-0.005-0.001-0.006-0.001-0.01-0.001c-0.008-0.001-0.012,0.001-0.02,0
	c-0.059-0.025-0.134-0.045-0.205-0.048c-0.012-0.001-0.033,0.001-0.037,0.001c-0.123,0-0.238,0.039-0.344,0.104
	c-0.01-0.002-0.031-0.006-0.031-0.006c-0.039-0.011-0.096-0.021-0.137-0.017c-0.084,0-0.176,0.021-0.259,0.06
	c-0.018-0.013-0.053-0.004-0.079-0.007c-0.091-0.064-0.196-0.094-0.316-0.089c-0.006-0.002-0.026,0-0.037-0.002
	c-0.089,0.003-0.177,0.031-0.252,0.072c-0.092-0.067-0.197-0.11-0.312-0.122c-0.017-0.001-0.035-0.003-0.049-0.004
	c-0.146,0.003-0.301,0.054-0.406,0.162c0,0-0.006,0.006-0.007,0.01c-0.082-0.031-0.157-0.048-0.243-0.053l-0.01-0.001
	c-0.139,0.008-0.262,0.053-0.357,0.126c-0.094-0.05-0.191-0.076-0.297-0.076c-0.018,0.003-0.047,0.004-0.077,0.009
	c-0.091,0.011-0.176,0.041-0.258,0.092c-0.099-0.062-0.212-0.102-0.329-0.104c-0.021,0.006-0.055,0.003-0.076,0.009
	c-0.057,0.001-0.094,0.019-0.135,0.03c-0.035-0.007-0.066-0.013-0.102-0.02c-0.026-0.003-0.056-0.005-0.096-0.005
	c-0.035,0-0.078,0-0.125,0.013c-0.096-0.084-0.223-0.14-0.361-0.148l-0.139-0.014c-0.004,0.004-0.021,0.003-0.035,0.002
	c-0.167,0.002-0.325,0.064-0.439,0.183c-0.01-0.001-0.033-0.003-0.041-0.004c-0.098-0.069-0.213-0.103-0.33-0.097h-0.016
	c-0.015-0.002-0.037,0.001-0.062,0c-0.068-0.039-0.145-0.067-0.219-0.081c-0.032-0.003-0.064-0.007-0.1-0.002
	c-0.061-0.003-0.125,0.008-0.184,0.03c-0.033-0.015-0.071-0.023-0.111-0.027l-0.118-0.012c-0.018-0.001-0.038-0.002-0.052-0.004
	c-0.159,0.003-0.301,0.062-0.416,0.169c-0.036-0.015-0.074-0.021-0.105-0.022l-0.123-0.012c-0.021-0.002-0.042-0.004-0.059-0.006
	c-0.109,0.004-0.211,0.031-0.299,0.079c-0.008-0.005-0.03-0.007-0.03-0.007c-0.044-0.012-0.094-0.017-0.144-0.021
	c-0.027,0.002-0.05,0.004-0.067,0.006c-0.052-0.013-0.11-0.022-0.171-0.024l-0.117,0.005c-0.051-0.002-0.093,0.001-0.137,0.013
	c-0.085-0.058-0.191-0.1-0.295-0.108c-0.024-0.002-0.03-0.003-0.042,0c-0.019-0.002-0.041,0-0.058,0.008
	c-0.055-0.022-0.123-0.034-0.184-0.034c-0.08-0.003-0.158,0.018-0.234,0.045c0,0-0.072,0.03-0.094,0.038
	c-0.117-0.086-0.251-0.131-0.389-0.131c-0.026,0.001-0.049,0-0.078,0.002c-0.06,0.006-0.113,0.028-0.176,0.057
	c-0.076-0.033-0.148-0.047-0.236-0.051c-0.125,0.006-0.242,0.045-0.339,0.11c-0.046-0.007-0.094-0.012-0.14-0.012
	c-0.033-0.003-0.076,0.007-0.107,0.012c-0.111-0.076-0.236-0.122-0.373-0.125c-0.016,0.003-0.035,0.001-0.061,0.007
	c-0.15,0.011-0.298,0.088-0.398,0.197c-0.018,0.006-0.037,0.004-0.046,0.01c-0.067-0.043-0.146-0.081-0.218-0.098
	c-0.052-0.009-0.09-0.012-0.129-0.012c-0.123-0.002-0.233,0.033-0.34,0.102c-0.053,0.01-0.105,0.022-0.164,0.048
	c-0.016,0.008-0.033,0.015-0.047,0.022c-0.09-0.055-0.205-0.087-0.309-0.086c-0.008,0.002-0.031,0.004-0.045,0.004
	c-0.035,0-0.072,0.006-0.113,0.016c0,0-0.014-0.002-0.023-0.004c-0.112-0.121-0.271-0.187-0.439-0.188
	c-0.018-0.001-0.042,0.008-0.072,0.006l-0.121,0.02c-0.094,0.014-0.188,0.045-0.26,0.098c-0.012-0.002-0.021-0.006-0.041-0.01
	c-0.087-0.066-0.205-0.113-0.334-0.123l-0.113-0.004c-0.021-0.002-0.027-0.002-0.035,0c-0.109-0.002-0.219,0.031-0.309,0.08
	c-0.018-0.013-0.051-0.024-0.072-0.031c-0.043-0.005-0.082-0.009-0.125-0.012c-0.095,0.003-0.183,0.023-0.271,0.066
	c-0.075-0.029-0.146-0.047-0.214-0.051c-0.003,0-0.009,0-0.012,0c-0.108,0.002-0.221,0.03-0.316,0.09
	c-0.031-0.014-0.078-0.027-0.129-0.032c-0.016-0.001-0.039-0.003-0.059,0.004c-0.084-0.005-0.15,0.014-0.227,0.046
	c-0.04-0.023-0.09-0.045-0.139-0.052c-0.055-0.041-0.109-0.07-0.17-0.092c-0.061-0.021-0.135-0.03-0.188-0.032
	c-0.106-0.004-0.223,0.035-0.314,0.089c-0.049-0.022-0.09-0.034-0.137-0.038c-0.027-0.003-0.048-0.004-0.071-0.004
	c-0.101-0.053-0.202-0.092-0.311-0.086c-0.007-0.001-0.022-0.002-0.022-0.002c-0.142,0.006-0.275,0.061-0.377,0.152
	c-0.012-0.006-0.033-0.023-0.045-0.027c-0.066-0.018-0.13-0.03-0.201-0.029c-0.021,0-0.051,0.005-0.069,0.005
	c-0.083-0.034-0.169-0.052-0.247-0.053c-0.018-0.001-0.025,0.003-0.039,0.001c-0.078-0.039-0.172-0.06-0.265-0.065
	c-0.013-0.001-0.013-0.001-0.022,0.003c-0.154,0.009-0.305,0.068-0.417,0.179c-0.035,0.009-0.064,0.028-0.112,0.052l-0.092,0.062
	c-0.289,0.184-0.379,0.564-0.194,0.855c0.024,0.039,0.05,0.066,0.076,0.096c0.065,0.258,0.284,0.452,0.551,0.477
	c0.022,0.002,0.036-0.005,0.053-0.004c0.111,0.003,0.211-0.029,0.3-0.083c0.018,0.002,0.033,0.004,0.047,0.004
	c0.005,0,0.018,0.001,0.035-0.003c0.069-0.004,0.133-0.02,0.191-0.045c0.019,0.014,0.042,0.03,0.042,0.03
	c0.106,0.076,0.229,0.111,0.358,0.111c0.046,0.002,0.094-0.005,0.143-0.02c0.055,0.015,0.108,0.03,0.167,0.024
	c0.026,0.002,0.048,0,0.07-0.004c0.07-0.007,0.128-0.026,0.196-0.054c0.025,0.012,0.055,0.023,0.068,0.034
	c0.069,0.023,0.134,0.036,0.213,0.036c0.103-0.001,0.202-0.026,0.287-0.081c0.033,0.02,0.078,0.029,0.115,0.037
	c0.006,0.004,0.012,0.014,0.014,0.016c0.094,0.05,0.215,0.082,0.305,0.081c0.066,0.001,0.131-0.011,0.193-0.03l0.1-0.031
	c0.021-0.012,0.051-0.021,0.07-0.026c0.037,0.01,0.08,0.021,0.113,0.024c0.03,0.002,0.053,0.005,0.071-0.001
	c0.177,0.006,0.341-0.075,0.463-0.202c0.009,0.002,0.024,0.003,0.042,0c0.053,0.003,0.102-0.009,0.151-0.015
	c0.118,0.136,0.288,0.223,0.472,0.222h0.008c0.039,0,0.08-0.006,0.127-0.022c0.086,0.075,0.209,0.124,0.338,0.128
	c0.006,0,0.022,0.001,0.022,0.001c0.112-0.001,0.22-0.034,0.313-0.088c0.062,0.018,0.119,0.029,0.178,0.028
	c0.053,0.004,0.094-0.002,0.146-0.016c0.109-0.024,0.209-0.086,0.297-0.168c0.09,0.056,0.189,0.091,0.303,0.086
	c0.053,0.042,0.113,0.072,0.181,0.098l0.123,0.037c0.059,0.017,0.126,0.028,0.193,0.029l0.007-0.001l0.128-0.003
	c0.106-0.006,0.211-0.033,0.299-0.09c0.062,0.017,0.11,0.021,0.176,0.02c0.003,0,0.013,0.001,0.024,0.002
	c0.066,0.023,0.139,0.043,0.216,0.047c0.038-0.007,0.075-0.01,0.104-0.018c0.053-0.009,0.111-0.021,0.154-0.043
	c0.035,0.007,0.072,0.01,0.105,0.009c0.059-0.002,0.119-0.013,0.163-0.023c0.099,0.056,0.214,0.088,0.322,0.09
	c0.003,0,0.003,0,0.012,0.001c0.058-0.006,0.114-0.011,0.152-0.032c0.035,0.003,0.052,0.017,0.076,0.018
	c0.141-0.005,0.271-0.053,0.381-0.14c0.036,0.004,0.073,0.006,0.106,0.01c0.01,0.001,0.01-0.004,0.022-0.005l0.112-0.005
	c0.037,0.005,0.07-0.008,0.11-0.012c0.012,0.008,0.019,0.014,0.028,0.025l0.119,0.071c0.104,0.061,0.216,0.091,0.327,0.089
	c0.024,0.002,0.048,0,0.065-0.002L19.432,65c0.167-0.014,0.313-0.1,0.413-0.225c0.018,0.012,0.035,0.024,0.063,0.03l0.117,0.032
	c0.059,0.018,0.117,0.025,0.174,0.024c0.107,0.001,0.219-0.031,0.311-0.089c0.097,0.088,0.223,0.143,0.354,0.149l0.116,0.011
	c0.018,0.001,0.025-0.002,0.043,0c0.018,0.001,0.049-0.004,0.075-0.008c0.012,0.01,0.03,0.021,0.044,0.028
	c0.078,0.033,0.155,0.044,0.232,0.047c0.057-0.003,0.1-0.014,0.146-0.022c0.064,0.024,0.133,0.04,0.211,0.037
	c0,0,0.017,0.001,0.02-0.004c0.138,0,0.252-0.047,0.354-0.124c0.094,0.062,0.204,0.097,0.328,0.093l0.134,0.002
	c0.078,0,0.164-0.022,0.23-0.047l0.014,0.003c0.009,0.001,0.021,0.002,0.023,0.002c0.067-0.005,0.145-0.022,0.209-0.044
	c0.099,0.062,0.217,0.097,0.338,0.098c0.008,0,0.024,0,0.036-0.001c0.108-0.007,0.208-0.042,0.282-0.097
	c0.035,0.004,0.058,0.006,0.086,0.009c0.096,0,0.186-0.028,0.281-0.075c0.049,0.028,0.104,0.043,0.171,0.058l0.129,0.015
	c0.022,0.006,0.054,0.009,0.088,0.009c0.087-0.005,0.169-0.017,0.252-0.058c0.011,0,0.022,0.011,0.036,0.012
	c0.111,0.081,0.24,0.134,0.375,0.128c0.025,0.003,0.035,0.003,0.061-0.001c0.096-0.008,0.185-0.043,0.264-0.086
	c0.105,0.059,0.213,0.1,0.336,0.104c0.03-0.001,0.059-0.005,0.072-0.005c0.07-0.009,0.122-0.021,0.175-0.046
	c0.011,0.001,0.011,0.001,0.021,0.003c0.205-0.008,0.391-0.104,0.514-0.275c0.099,0.195,0.31,0.315,0.531,0.313
	c0.013,0.002,0.013,0.002,0.023,0.003c0.177-0.005,0.338-0.088,0.459-0.224c0.025-0.009,0.049-0.024,0.082-0.038
	c0.087-0.007,0.187-0.033,0.274-0.081c0.07,0.039,0.144,0.063,0.216,0.085c0.098,0.074,0.227,0.119,0.359,0.115
	c0.022,0.012,0.037,0.025,0.058,0.032c0.071,0.028,0.144,0.041,0.217,0.041c0.024-0.005,0.058-0.007,0.087-0.011
	c0.07,0.041,0.147,0.069,0.219,0.075c0.028,0.003,0.053,0.005,0.07,0.007c0.134-0.007,0.264-0.043,0.375-0.122
	c0.078,0.038,0.169,0.062,0.264,0.062c0.017,0.001,0.027,0.002,0.04,0.004c0.091-0.009,0.19-0.04,0.27-0.082
	c0.023,0.003,0.038,0.003,0.075-0.002c0.013,0.003,0.019,0.004,0.031,0.005h0.008c0.102,0.064,0.213,0.1,0.34,0.104
	c0.021-0.003,0.038-0.002,0.056-0.004c0.116-0.016,0.226-0.06,0.317-0.127c0.104,0.082,0.238,0.127,0.381,0.133
	c0.028-0.004,0.072,0,0.109-0.013c0.074-0.015,0.137-0.037,0.194-0.081c0.099,0.063,0.202,0.084,0.319,0.089
	c0.043,0.004,0.085-0.003,0.139-0.019l0.117-0.025c0.11-0.025,0.201-0.08,0.279-0.151c0.021,0.003,0.045,0.007,0.078,0.007
	c0.006,0.002,0.02,0.004,0.04,0c0,0,0,0.004,0.009,0.005c0,0,0.033,0.012,0.072,0.021c0.037,0.021,0.082,0.043,0.082,0.043
	c0.084,0.053,0.186,0.072,0.279,0.074c0.086-0.006,0.166-0.021,0.24-0.047c0.027-0.014,0.05-0.025,0.067-0.043
	c0.006,0,0.017,0.01,0.023,0.011c0.012,0.001,0.034,0.003,0.058-0.003c0.088,0.006,0.174-0.016,0.258-0.049
	c0.051,0.014,0.1,0.018,0.159,0.018c0.011,0.001,0.028,0,0.032,0c0.021,0.002,0.027-0.001,0.049-0.002
	c0.042,0.014,0.09,0.035,0.09,0.035c0.078,0.031,0.154,0.053,0.244,0.048c0.076,0.001,0.145-0.012,0.203-0.035
	c0.068,0.023,0.144,0.036,0.208,0.035c0.075,0.001,0.153-0.011,0.214-0.035l0.144-0.052c0.035-0.014,0.067-0.029,0.097-0.051
	l0.015,0.002c0.071-0.006,0.14-0.029,0.205-0.062c0.067,0.062,0.149,0.112,0.234,0.139c0.059,0.014,0.122,0.024,0.187,0.023
	c0.096,0.006,0.194-0.022,0.281-0.066c0.104-0.004,0.2-0.031,0.289-0.084c0.104,0.127,0.248,0.219,0.422,0.238
	c0.023,0.002,0.053,0.006,0.075,0.007c0.108-0.001,0.211-0.034,0.305-0.081c0.07,0.029,0.146,0.052,0.229,0.055
	c0.03-0.004,0.073-0.008,0.116-0.018c0.147-0.025,0.282-0.113,0.375-0.229c0.007,0,0.023,0.002,0.035,0.003
	c0.096-0.004,0.199-0.023,0.283-0.069c0.066,0.027,0.14,0.048,0.223,0.052c0.005,0.001,0.006,0.001,0.016,0.002
	c0.042-0.001,0.09-0.007,0.125-0.015c0.104,0.166,0.292,0.277,0.498,0.287c0.012,0.001,0.018,0.001,0.027,0.002
	c0.065-0.001,0.139-0.018,0.197-0.041c0.023,0.002,0.039,0.009,0.057,0.011c0.04-0.002,0.069-0.007,0.115-0.012
	c0.17-0.029,0.309-0.13,0.408-0.269c0.018-0.003,0.049-0.003,0.049-0.003c0.059-0.008,0.111-0.021,0.153-0.042
	c0.017,0.002,0.036,0.008,0.042,0.003l0.01,0.001c0.059,0.074,0.121,0.137,0.205,0.175l0.123,0.07
	c0.095,0.053,0.195,0.073,0.299,0.075c0.066,0.002,0.127-0.006,0.197-0.029c0.016-0.011,0.039-0.022,0.062-0.033
	c0.046,0.009,0.077,0.011,0.114,0.015c0.129-0.005,0.256-0.039,0.359-0.122c0.048-0.002,0.088-0.02,0.123-0.034
	c0.051,0.019,0.098,0.023,0.136,0.025c0.099,0.073,0.217,0.112,0.343,0.104c0.009,0.002,0.018,0.002,0.018,0.002
	c0.084,0,0.161-0.018,0.229-0.051c0.008,0,0.023,0.001,0.029,0.001c0.072,0.002,0.144-0.017,0.205-0.04
	c0.026,0.004,0.045,0.005,0.068,0.006c0.047-0.002,0.088-0.001,0.129-0.008c0.07-0.02,0.141-0.049,0.201-0.094
	c0.072,0.025,0.138,0.043,0.213,0.043c0.001,0.002,0.001-0.004,0.001-0.004c0.071,0.004,0.149-0.015,0.212-0.039
	c0.105,0.104,0.5-0.157,0.5-0.28c0,0,0.195-0.11,0.105-0.581C43.959,63.791,43.949,63.218,43.582,63.347"/>
<path fill="#FFFFFF" d="M41.107,54.3l-0.031,0.103c-0.025,0.086-0.032,0.173-0.032,0.261c-0.024,0.065-0.038,0.136-0.042,0.204
	l-0.014,0.104c-0.003,0.038-0.003,0.08-0.003,0.12l0.007,0.106c0.006,0.018,0.01,0.031,0.016,0.045
	c-0.04,0.113-0.046,0.234-0.025,0.35c-0.014,0.125,0.01,0.249,0.055,0.355c0.01,0.093,0.035,0.172,0.068,0.251
	c0.009,0.142,0.066,0.281,0.145,0.401c0.01,0.154,0.062,0.305,0.156,0.426c0,0,0.02,0.018,0.031,0.039
	c0.012,0.018,0.02,0.036,0.02,0.036c0.033,0.063,0.082,0.118,0.126,0.165c0.013,0.064,0.034,0.128,0.067,0.187l0.047,0.097
	c0.057,0.112,0.148,0.205,0.254,0.277c0.035,0.11,0.105,0.211,0.193,0.294c0.043,0.096,0.106,0.178,0.184,0.248
	c0.031,0.045,0.064,0.086,0.104,0.12c0.013,0.018,0.023,0.041,0.023,0.041c0,0.002,0.006,0.019,0.008,0.029l0.008,0.001v0.005
	c0.029,0.109,0.079,0.211,0.148,0.299c0,0,0.012,0.012,0.021,0.018c0.023,0.158,0.104,0.305,0.227,0.413
	c0.002,0.006,0.01,0.026,0.01,0.026c0.024,0.041,0.053,0.088,0.086,0.127c0.008,0.025,0.021,0.051,0.031,0.074
	c0.002,0.041,0.016,0.087,0.02,0.135c0.002,0.062,0.008,0.124,0.022,0.188l0.023,0.098c0.007,0.051,0.023,0.101,0.048,0.152
	c0.016,0.074,0.04,0.147,0.076,0.219c-0.01,0.123,0.008,0.246,0.062,0.359c-0.016,0.12-0.011,0.246,0.031,0.355
	c0.004,0.037,0.01,0.066,0.021,0.101c0,0-0.004,0.028,0.004,0.054c-0.021,0.08-0.037,0.178-0.025,0.262c0,0-0.001,0.03,0.004,0.059
	c-0.029,0.086-0.035,0.176-0.027,0.262c-0.025,0.082-0.036,0.162-0.033,0.242c-0.027,0.095-0.031,0.191-0.025,0.284
	c-0.025,0.065-0.048,0.132-0.064,0.208l-0.002,0.007l-0.002,0.001c-0.021,0.062-0.043,0.127-0.055,0.199c0,0,0,0.018-0.006,0.03
	c-0.048,0.083-0.076,0.172-0.089,0.271c-0.024,0.034-0.048,0.08-0.058,0.117c-0.077,0.099-0.127,0.199-0.143,0.314
	c-0.006,0.001-0.008,0.002-0.006,0.005c-0.01,0.002-0.02,0.012-0.02,0.012c-0.314,0.277-0.346,0.752-0.073,1.062
	c0.192,0.212,0.475,0.294,0.728,0.235c0.119-0.023,0.233-0.077,0.328-0.164l0.082-0.071c0.045-0.039,0.082-0.072,0.115-0.118
	c0,0,0.031-0.047,0.049-0.07c0.017-0.013,0.025-0.033,0.037-0.05c0.02-0.019,0.062-0.064,0.062-0.064
	c0.093-0.096,0.146-0.211,0.177-0.338c0.017-0.031,0.033-0.064,0.049-0.1c0.014-0.021,0.043-0.049,0.043-0.049
	c0.102-0.13,0.165-0.292,0.172-0.452c0.039-0.093,0.045-0.196,0.041-0.299c0.084-0.11,0.135-0.247,0.148-0.386
	c0.049-0.129,0.057-0.265,0.037-0.402c0.008-0.057,0.007-0.111,0.001-0.169c0-0.021,0.012-0.048,0.012-0.048
	c0.001-0.02,0.005-0.037,0.011-0.056c0.054-0.123,0.083-0.264,0.07-0.397c0.047-0.15,0.051-0.312,0-0.467
	c0,0-0.022-0.068-0.031-0.092c0.014-0.121,0-0.254-0.045-0.375c0.02-0.121,0.008-0.246-0.027-0.359
	c-0.008-0.104-0.03-0.199-0.076-0.289c0.014-0.1,0.006-0.201-0.025-0.301c-0.017-0.087-0.058-0.165-0.111-0.236
	c-0.004-0.021-0.011-0.045-0.017-0.066c-0.007-0.107-0.036-0.217-0.083-0.309l-0.043-0.097c-0.003-0.006-0.004-0.011-0.006-0.02
	c0,0-0.01-0.011-0.012-0.013c-0.002-0.004-0.006-0.02-0.006-0.02c-0.033-0.125-0.096-0.244-0.185-0.335
	c-0.015-0.007-0.018-0.019-0.022-0.028c-0.018-0.128-0.065-0.25-0.145-0.354l-0.062-0.082c-0.026-0.029-0.053-0.062-0.079-0.087
	c-0.009-0.024-0.018-0.05-0.035-0.071c0,0-0.031-0.059-0.044-0.081c-0.009-0.016-0.036-0.073-0.036-0.073
	c-0.008-0.01-0.012-0.025-0.016-0.032l-0.047-0.08c-0.02-0.041-0.041-0.078-0.071-0.113c-0.024-0.048-0.058-0.094-0.085-0.136
	c-0.051-0.117-0.117-0.217-0.214-0.292c-0.019-0.035-0.03-0.074-0.054-0.103c0,0-0.017-0.021-0.035-0.048
	c-0.016-0.019-0.022-0.04-0.022-0.04c-0.041-0.079-0.099-0.148-0.165-0.204c-0.035-0.093-0.086-0.18-0.154-0.251
	c-0.031-0.053-0.064-0.107-0.107-0.156c-0.001-0.041-0.006-0.085-0.018-0.121l-0.041-0.098c-0.02-0.063-0.053-0.129-0.084-0.187
	c-0.016-0.073-0.04-0.153-0.08-0.218l-0.049-0.096c-0.005-0.004-0.012-0.008-0.014-0.014v-0.002c0.026-0.075,0.043-0.157,0.037-0.23
	l-0.005-0.104c0.001-0.051-0.006-0.092-0.015-0.139c0.008-0.027,0.026-0.057,0.033-0.083l0.027-0.1
	c0.008-0.03,0.008-0.059,0.014-0.088c0.002-0.018,0.016-0.029,0.022-0.04c0,0-0.176-0.201-0.173-0.203L41.107,54.3z"/>
<g>
	<g>
		<path fill="#FFFFFF" d="M42.764,56.444c-0.012-0.05-0.031-0.106-0.057-0.149c0.004-0.037,0.004-0.073,0-0.105
			c-0.008-0.059-0.023-0.117-0.04-0.161c0.048-0.102,0.07-0.218,0.062-0.328v-0.012c-0.012-0.056-0.021-0.112-0.045-0.147
			c0-0.035,0.01-0.053,0.01-0.079c-0.018-0.14-0.076-0.265-0.174-0.366V54.99c0-0.01-0.005-0.01-0.008-0.022l-0.014-0.11
			c0-0.039-0.014-0.071-0.021-0.11c0.008-0.013,0.012-0.019,0.021-0.03l0.061-0.126c0.051-0.106,0.072-0.222,0.059-0.332
			c0-0.024-0.004-0.048-0.008-0.065l-0.03-0.122c-0.03-0.165-0.128-0.304-0.263-0.39c0.011-0.02,0.021-0.039,0.025-0.067
			l0.021-0.118c0.013-0.06,0.015-0.117,0.011-0.176c-0.011-0.106-0.052-0.216-0.117-0.303c0.078-0.104,0.119-0.232,0.117-0.364
			v-0.116c0-0.019-0.006-0.028-0.006-0.045c0-0.018-0.008-0.049-0.014-0.072c0.009-0.014,0.02-0.033,0.023-0.048
			c0.026-0.079,0.031-0.157,0.026-0.234c-0.007-0.057-0.023-0.099-0.036-0.146c0.019-0.066,0.029-0.133,0.019-0.213
			c0,0,0-0.016-0.006-0.02c-0.013-0.137-0.069-0.244-0.157-0.342c0.055-0.098,0.08-0.209,0.063-0.334l-0.009-0.131
			c-0.009-0.081-0.038-0.162-0.067-0.228v-0.036c-0.011-0.068-0.035-0.145-0.063-0.205c0.053-0.104,0.076-0.225,0.068-0.345
			c-0.002-0.009-0.002-0.023-0.005-0.036c-0.018-0.105-0.062-0.202-0.122-0.273v-0.084c-0.008-0.094-0.045-0.182-0.1-0.273
			c0.023-0.053,0.033-0.107,0.041-0.176l0.004-0.129c0.004-0.021,0.004-0.055,0-0.089c-0.012-0.085-0.031-0.165-0.08-0.246
			c0-0.008,0.01-0.022,0.01-0.036c0.07-0.118,0.111-0.252,0.092-0.385c0-0.025,0-0.035-0.008-0.061
			c-0.014-0.093-0.059-0.18-0.107-0.254c0.049-0.109,0.08-0.221,0.072-0.344c-0.004-0.03-0.01-0.057-0.01-0.072
			c-0.016-0.068-0.032-0.119-0.062-0.17v-0.02c-0.025-0.205-0.139-0.381-0.32-0.486c0.187-0.115,0.286-0.337,0.264-0.557v-0.023
			c-0.02-0.176-0.117-0.329-0.264-0.438c-0.01-0.023-0.027-0.045-0.043-0.079c-0.017-0.084-0.051-0.181-0.107-0.265
			c0.032-0.072,0.05-0.148,0.064-0.221c0.066-0.105,0.1-0.238,0.082-0.37c0.01-0.023,0.021-0.04,0.027-0.06
			c0.021-0.075,0.028-0.146,0.021-0.219c-0.008-0.025-0.012-0.057-0.018-0.086c0.033-0.074,0.054-0.152,0.054-0.227v-0.07
			c-0.019-0.131-0.067-0.258-0.153-0.361c0.029-0.08,0.045-0.174,0.036-0.268v-0.039c-0.018-0.09-0.058-0.188-0.106-0.26
			c0-0.025,0-0.04-0.008-0.076v-0.04c0.056-0.105,0.08-0.22,0.072-0.347c-0.004-0.022-0.004-0.038-0.008-0.055
			c-0.026-0.115-0.08-0.22-0.155-0.307c0.071-0.111,0.104-0.247,0.099-0.389c-0.008-0.029-0.008-0.074-0.023-0.109
			c-0.022-0.071-0.051-0.131-0.099-0.184c0.054-0.104,0.067-0.211,0.059-0.327c0-0.044-0.011-0.085-0.029-0.138l-0.038-0.113
			c-0.035-0.106-0.096-0.193-0.174-0.264c0-0.021,0.002-0.047,0-0.08c0-0.006,0-0.018-0.005-0.039c0,0,0.005,0,0.005-0.01
			c0,0,0.008-0.034,0.013-0.071c0.018-0.042,0.036-0.087,0.036-0.087c0.043-0.09,0.055-0.191,0.047-0.285
			c-0.012-0.085-0.035-0.162-0.068-0.234c-0.015-0.027-0.027-0.047-0.047-0.063c0-0.004,0.006-0.017,0.006-0.022
			c0-0.014,0-0.035-0.006-0.058c-0.003-0.088-0.032-0.173-0.072-0.252c0.008-0.054,0.008-0.103,0.002-0.161
			c0-0.01-0.002-0.026-0.002-0.033c0-0.021-0.004-0.027-0.008-0.047c0.01-0.043,0.029-0.093,0.029-0.093
			c0.021-0.081,0.036-0.158,0.024-0.247c-0.006-0.075-0.024-0.143-0.054-0.199c0.016-0.07,0.023-0.146,0.016-0.21
			c-0.006-0.073-0.025-0.152-0.053-0.21l-0.067-0.137c-0.017-0.034-0.034-0.065-0.059-0.093v-0.015
			c-0.013-0.07-0.041-0.135-0.079-0.199c0.056-0.072,0.098-0.158,0.115-0.245c0.011-0.06,0.016-0.122,0.006-0.187
			c-0.001-0.098-0.039-0.193-0.09-0.274c-0.014-0.104-0.049-0.198-0.109-0.282c0.116-0.114,0.193-0.264,0.198-0.441v-0.074
			c-0.012-0.106-0.054-0.205-0.108-0.296c0.023-0.072,0.038-0.149,0.033-0.231c-0.007-0.031-0.014-0.074-0.027-0.115
			c-0.039-0.144-0.139-0.271-0.262-0.35v-0.037c-0.014-0.096-0.043-0.195-0.096-0.275c0.021-0.068,0.035-0.143,0.032-0.225v-0.018
			c-0.006-0.042-0.015-0.09-0.026-0.125c0.156-0.117,0.25-0.312,0.24-0.521v-0.026c-0.008-0.066-0.031-0.137-0.059-0.193
			c0-0.023,0.004-0.041,0.004-0.057c-0.004-0.039-0.013-0.069-0.02-0.114c-0.046-0.165-0.157-0.294-0.307-0.381
			c-0.003-0.019-0.006-0.048-0.006-0.048c-0.014-0.059-0.031-0.109-0.056-0.15c0-0.016,0.005-0.036,0-0.042v-0.009
			c0.065-0.066,0.123-0.134,0.153-0.221l0.061-0.129c0.044-0.099,0.055-0.199,0.047-0.303c-0.003-0.066-0.018-0.129-0.047-0.194
			c-0.012-0.017-0.025-0.036-0.038-0.059c0.003-0.046,0.003-0.079,0.003-0.114c-0.016-0.129-0.062-0.252-0.154-0.346
			c-0.006-0.049-0.027-0.087-0.045-0.121c0.014-0.052,0.014-0.099,0.014-0.137c0.062-0.104,0.09-0.226,0.072-0.352v-0.018
			c-0.007-0.084-0.033-0.159-0.072-0.223v-0.031c-0.005-0.07-0.029-0.141-0.059-0.197v-0.068c-0.006-0.048-0.01-0.088-0.021-0.129
			c-0.025-0.068-0.06-0.136-0.112-0.191c0.022-0.072,0.032-0.142,0.026-0.215c0-0.003-0.004-0.003-0.004-0.003
			c-0.004-0.07-0.029-0.146-0.059-0.206c0.094-0.115,0.154-0.252,0.16-0.395c0-0.025,0-0.056-0.006-0.079
			c0-0.046-0.006-0.083-0.021-0.128c0.027-0.078,0.041-0.154,0.041-0.244c-0.004-0.004-0.004-0.023-0.004-0.031
			c-0.01-0.101-0.037-0.188-0.081-0.259c0.019-0.082,0.038-0.173,0.028-0.252v-0.013c-0.002-0.068-0.016-0.111-0.028-0.163
			c0.003-0.028,0.003-0.066,0-0.103c-0.007-0.061-0.023-0.111-0.042-0.168c0-0.033,0.002-0.053,0-0.082
			c-0.016-0.111-0.051-0.199-0.109-0.285c-0.006-0.043-0.013-0.078-0.025-0.126c0.021-0.07,0.036-0.147,0.025-0.229
			c-0.013-0.166-0.098-0.309-0.23-0.419c0.053-0.104,0.078-0.218,0.066-0.333c-0.004-0.037-0.014-0.077-0.021-0.119
			c0.008-0.049,0.008-0.104,0.003-0.158c-0.003-0.016-0.005-0.046-0.012-0.074c0,0-0.019-0.082-0.026-0.113
			c-0.01-0.028-0.02-0.119-0.02-0.119l-0.006-0.004c0.068-0.115,0.099-0.238,0.092-0.371v-0.015c-0.02-0.12-0.066-0.239-0.146-0.322
			c-0.006-0.032-0.011-0.054-0.019-0.088c0.021-0.076,0.036-0.159,0.025-0.234c-0.004-0.05-0.013-0.071-0.018-0.12
			c0-0.009-0.008-0.009-0.008-0.021c0.002-0.005,0.013-0.021,0.013-0.021c0.07-0.123,0.1-0.253,0.089-0.386
			c-0.014-0.116-0.059-0.235-0.13-0.331c0.04-0.1,0.054-0.205,0.047-0.312c-0.006-0.039-0.011-0.076-0.019-0.117
			c-0.028-0.098-0.087-0.185-0.157-0.25c0.007-0.049,0.026-0.088,0.03-0.133c0-0.037,0.004-0.083,0-0.124
			c0-0.021-0.007-0.056-0.018-0.073c0.018-0.055,0.021-0.119,0.021-0.18c0,0-0.004-0.01-0.004-0.018
			c-0.004-0.066-0.023-0.119-0.048-0.183c0.007-0.033,0.007-0.058,0-0.092c-0.001-0.052-0.013-0.094-0.021-0.142
			c-0.032-0.082-0.084-0.156-0.138-0.226V22.63c0.03-0.099,0.044-0.192,0.036-0.282c0-0.021-0.012-0.049-0.016-0.074
			c0.016-0.024,0.029-0.045,0.038-0.076c0.024-0.08,0.035-0.168,0.028-0.256c-0.01-0.073-0.028-0.133-0.062-0.208
			c0.016-0.052,0.016-0.115,0.012-0.171c0-0.039-0.012-0.086-0.024-0.126c-0.035-0.113-0.105-0.216-0.199-0.292
			c0.023-0.076,0.034-0.149,0.026-0.23c-0.008-0.053-0.026-0.119-0.05-0.183c0-0.023,0.003-0.054,0-0.083
			c-0.003-0.069-0.021-0.133-0.05-0.189c0.107-0.119,0.174-0.287,0.167-0.453c0-0.006-0.005-0.021-0.005-0.025
			c-0.012-0.135-0.065-0.256-0.15-0.351c0-0.009,0.003-0.018,0-0.024c-0.009-0.123-0.061-0.23-0.135-0.332
			c0-0.02,0.003-0.039,0-0.061v-0.004c-0.004-0.07-0.023-0.137-0.055-0.195c0.023-0.062,0.047-0.111,0.055-0.175
			c0.094-0.122,0.139-0.271,0.126-0.431v-0.014c-0.018-0.171-0.112-0.324-0.257-0.435c0.02-0.044,0.031-0.083,0.031-0.083
			c0.026-0.072,0.033-0.15,0.029-0.222l-0.003-0.128v-0.03c-0.005-0.041-0.019-0.083-0.026-0.117
			c0.008-0.054,0.008-0.101,0.006-0.151v-0.032c-0.018-0.139-0.084-0.256-0.184-0.354c0.005-0.039,0.008-0.082,0.005-0.124
			c0.035-0.085,0.038-0.172,0.036-0.263c0-0.01-0.001-0.01-0.001-0.01c-0.006-0.044-0.018-0.079-0.024-0.117
			c0.004-0.041,0.004-0.078,0.004-0.114c0-0.013-0.004-0.013-0.004-0.023c-0.008-0.085-0.035-0.174-0.08-0.253
			c0-0.011-0.006-0.019-0.006-0.033c0.068-0.114,0.102-0.242,0.086-0.369c0-0.03-0.008-0.043-0.011-0.072
			c-0.005-0.033-0.018-0.059-0.029-0.095c0.047-0.08,0.082-0.191,0.082-0.298v-0.059c-0.017-0.139-0.077-0.269-0.171-0.369
			c0.027-0.076,0.043-0.164,0.039-0.25l-0.009-0.125V14.24c-0.003-0.061-0.023-0.106-0.042-0.158
			c0.019-0.078,0.033-0.154,0.024-0.227c-0.006-0.038-0.009-0.066-0.021-0.105l0.079-0.026c0.095-0.029,0.179-0.083,0.249-0.149
			c0.021-0.006,0.047-0.006,0.047-0.006c0.088-0.029,0.178-0.085,0.254-0.146c0.1-0.02,0.193-0.057,0.277-0.117l-6.143-0.626
			c-0.14-0.011-0.27,0.025-0.385,0.1c-0.048-0.004-0.1-0.007-0.145-0.004c-0.1,0.004-0.189,0.035-0.267,0.073
			c-0.046-0.003-0.104-0.014-0.153-0.014c-0.069,0-0.127,0.011-0.187,0.028c-0.042-0.018-0.091-0.04-0.135-0.053
			c-0.173-0.054-0.362-0.019-0.515,0.082l-0.124,0.086c-0.006,0-0.017,0.011-0.017,0.011c-0.072,0-0.141,0.009-0.218,0.032
			c0,0-0.032,0.012-0.073,0.022c-0.117-0.022-0.238-0.022-0.352,0.025c0,0-0.016,0.008-0.023,0.012h-0.025
			c-0.045,0-0.092,0.004-0.139,0.02c0,0-0.029,0.004-0.062,0.015c-0.14-0.145-0.341-0.223-0.552-0.195
			c-0.087,0.02-0.175,0.055-0.252,0.102c-0.051-0.011-0.102-0.023-0.16-0.023c-0.029,0-0.057,0-0.082,0.013
			c-0.086-0.032-0.185-0.036-0.275-0.021c-0.096,0.009-0.176,0.044-0.256,0.092h-0.047c-0.104,0.004-0.203,0.034-0.287,0.088
			c-0.121,0.005-0.244,0.052-0.33,0.123c-0.109-0.039-0.238-0.06-0.363-0.039c-0.1-0.051-0.211-0.074-0.337-0.064
			c-0.106,0.014-0.208,0.053-0.294,0.117c-0.102-0.053-0.21-0.083-0.324-0.064c-0.148,0.012-0.273,0.072-0.375,0.162
			c-0.096,0.039-0.184,0.086-0.252,0.166c-0.082-0.057-0.173-0.08-0.271-0.085c-0.101-0.05-0.215-0.075-0.324-0.062
			c-0.141-0.055-0.299-0.055-0.443,0l-0.115,0.052c-0.014,0-0.014,0.003-0.02,0.003l-0.115,0.062h-0.016
			c-0.141-0.105-0.33-0.154-0.506-0.098c-0.097,0.012-0.186,0.062-0.256,0.127c-0.039,0.01-0.076,0.027-0.109,0.044
			c-0.078-0.032-0.16-0.059-0.242-0.059c-0.046,0-0.087,0.015-0.129,0.021c-0.137-0.084-0.298-0.101-0.453-0.062
			c-0.057,0.013-0.108,0.035-0.158,0.066c-0.09-0.01-0.186-0.01-0.272,0.018c-0.041,0.01-0.073,0.035-0.106,0.045
			c-0.069-0.028-0.152-0.053-0.229-0.061c-0.193-0.006-0.377,0.085-0.498,0.23h-0.051c-0.118-0.105-0.282-0.17-0.452-0.158
			c-0.12,0.013-0.229,0.053-0.323,0.125c-0.045-0.014-0.096-0.022-0.143-0.022h-0.135c-0.015-0.005-0.027,0-0.045,0l-0.133,0.009
			c-0.082,0.002-0.165,0.025-0.241,0.067c-0.124,0.013-0.24,0.05-0.335,0.112c-0.123-0.1-0.293-0.166-0.467-0.154
			c-0.07,0.008-0.131,0.028-0.193,0.055c-0.013,0-0.035-0.013-0.047-0.013c-0.154-0.021-0.305,0.015-0.424,0.097
			c-0.055-0.012-0.11-0.022-0.166-0.022c-0.137,0-0.264,0.053-0.366,0.129c-0.126-0.065-0.27-0.091-0.413-0.059
			c-0.152,0.028-0.285,0.12-0.375,0.245c-0.117-0.116-0.267-0.201-0.437-0.201c-0.079,0-0.155,0.014-0.224,0.028
			c-0.059,0-0.121,0-0.17,0.019c-0.166,0.029-0.298,0.113-0.395,0.236c-0.021,0.012-0.037,0.012-0.057,0.012
			c-0.109-0.074-0.245-0.111-0.395-0.107c-0.131,0-0.25,0.056-0.349,0.138c-0.136-0.114-0.315-0.165-0.492-0.138
			c-0.03,0.014-0.06,0.023-0.081,0.023c-0.156-0.01-0.314,0.027-0.441,0.125c0,0-0.078,0.06-0.104,0.083
			c-0.03,0-0.065,0.003-0.099,0.013c-0.095-0.036-0.203-0.05-0.307-0.036c0,0-0.027,0.002-0.049,0.011
			c-0.097-0.054-0.203-0.081-0.319-0.07c-0.097,0-0.192,0.032-0.271,0.083c-0.088-0.034-0.186-0.046-0.283-0.037
			c-0.132,0.014-0.254,0.072-0.343,0.157c-0.035-0.01-0.06-0.016-0.088-0.016c-0.135-0.008-0.261,0.034-0.368,0.113
			c-0.035,0.005-0.07,0.017-0.106,0.035c-0.142-0.165-0.353-0.25-0.562-0.218c-0.112,0.021-0.211,0.062-0.29,0.128
			c-0.068-0.024-0.141-0.024-0.209-0.012c-0.162-0.063-0.352-0.046-0.504,0.043c-0.082-0.031-0.178-0.056-0.273-0.043
			c-0.118,0.012-0.23,0.053-0.316,0.121c-0.089-0.004-0.168,0.016-0.252,0.049c-0.089-0.033-0.193-0.033-0.287-0.017
			c-0.013,0-0.03,0.017-0.045,0.017c-0.096-0.049-0.205-0.053-0.309-0.049c-0.113,0.026-0.215,0.066-0.297,0.144
			c-0.078-0.042-0.153-0.062-0.234-0.073c-0.095-0.004-0.186,0.015-0.266,0.051c-0.062,0-0.119,0-0.184,0.01
			C8.186,14.766,8,14.766,7.834,14.854c0,0-0.018,0-0.027,0.011H7.795c-0.113,0.008-0.223,0.043-0.312,0.112
			c-0.093,0.017-0.178,0.047-0.256,0.101C7.226,15.07,7.219,15.07,7.214,15.07c-0.164-0.04-0.333-0.006-0.469,0.076
			c-0.018-0.011-0.036-0.031-0.036-0.031c-0.115-0.114-0.268-0.173-0.426-0.173v-0.034c-0.006-0.043-0.018-0.099-0.035-0.148
			c0.027-0.055,0.035-0.123,0.035-0.193l0.006-0.128c0-0.023,0-0.051-0.006-0.071c-0.006-0.088-0.039-0.18-0.074-0.249V14.02
			c-0.01-0.043-0.018-0.08-0.024-0.12c0.01-0.056,0.015-0.122,0.01-0.181l-0.006-0.145c0,0,0-0.006-0.004-0.006
			c0.034-0.092,0.05-0.184,0.042-0.277c0-0.011,0-0.019-0.003-0.029c-0.007-0.042-0.015-0.078-0.032-0.115
			c0-0.032,0.003-0.066,0-0.102c-0.003-0.024-0.01-0.067-0.014-0.092c0,0-0.013-0.039-0.02-0.072
			c0.007-0.036,0.016-0.084,0.016-0.125c0.039-0.074,0.053-0.16,0.059-0.25c0.002-0.021,0-0.048-0.006-0.066v-0.01
			c0.006-0.025,0.008-0.048,0.008-0.065c0.01-0.041,0.01-0.069,0-0.107c-0.016-0.176-0.11-0.343-0.258-0.448
			c0-0.031,0-0.059-0.006-0.09c-0.005-0.075-0.022-0.157-0.052-0.229c0.005-0.055,0.007-0.105,0.005-0.16
			c0-0.018-0.008-0.038-0.011-0.061c0.011-0.068,0.011-0.125,0.003-0.193c-0.008-0.104-0.032-0.194-0.072-0.283
			c0,0-0.018-0.037-0.033-0.069c-0.012-0.028-0.015-0.054-0.015-0.054c-0.004-0.003-0.007-0.008-0.007-0.008
			c0.003-0.043,0.007-0.092,0.007-0.092v-0.052c0.032-0.12,0.048-0.228,0.032-0.346C5.82,10.07,5.785,9.953,5.727,9.857V9.82
			C5.752,9.73,5.758,9.639,5.75,9.557C5.744,9.541,5.744,9.536,5.744,9.522V9.479c0.014-0.065,0.014-0.124,0.008-0.188
			C5.737,9.192,5.708,9.095,5.666,9.006c0.012-0.074,0.018-0.148,0.012-0.215c0-0.037-0.012-0.07-0.021-0.096
			c0.005-0.018,0.005-0.034,0.005-0.034c0.022-0.089,0.026-0.173,0.02-0.255C5.668,8.32,5.648,8.246,5.62,8.174
			C5.622,8.17,5.622,8.152,5.622,8.152c0-0.042,0-0.084-0.002-0.121c0-0.021-0.006-0.034-0.009-0.051
			C5.622,7.91,5.622,7.842,5.62,7.775C5.614,7.723,5.602,7.672,5.585,7.621c0-0.032,0.003-0.07,0-0.102
			C5.579,7.444,5.562,7.361,5.527,7.287c0.005-0.051,0.008-0.098,0.005-0.145c0-0.01,0-0.023-0.005-0.031L5.516,6.98
			c-0.013-0.028-0.017-0.059-0.02-0.09c0.02-0.086,0.021-0.169,0.008-0.252c-0.001-0.056-0.008-0.094-0.016-0.15L5.451,6.372
			C5.445,6.352,5.445,6.34,5.438,6.329c0-0.017,0-0.04-0.002-0.054C5.43,6.213,5.421,6.16,5.404,6.111
			C5.42,6.047,5.42,5.977,5.411,5.912V5.901c0.01-0.069,0.019-0.145,0.01-0.225C5.42,5.595,5.393,5.509,5.362,5.426l-0.046-0.1
			C5.188,5.016,4.891,4.803,4.548,4.794C4.297,4.789,4.057,4.889,3.891,5.068C3.777,5.131,3.684,5.203,3.607,5.312
			c0,0-0.015,0.014-0.033,0.037C3.546,5.367,3.517,5.385,3.517,5.385C3.451,5.426,3.388,5.49,3.339,5.55L3.247,5.655
			c0,0-0.005,0.009-0.015,0.021l-0.07,0.101c-0.059,0.07-0.1,0.143-0.129,0.234C3.032,6.016,3.029,6.027,3.016,6.028L3.013,6.033
			c-0.107,0.054-0.2,0.133-0.271,0.229L2.661,6.364c-0.054,0.063-0.095,0.13-0.123,0.208H2.534C2.428,6.676,2.347,6.793,2.301,6.932
			c0,0.007-0.069,0.094-0.078,0.106C2.113,7.111,2.022,7.2,1.958,7.318L1.862,7.406C1.795,7.473,1.741,7.541,1.7,7.625L1.636,7.746
			c-0.021,0.029-0.029,0.06-0.047,0.092c-0.04,0.059-0.081,0.113-0.108,0.18L1.478,8.034L1.469,8.037
			c-0.045,0.05-0.088,0.115-0.116,0.178c-0.091,0.09-0.16,0.199-0.201,0.32L1.107,8.661c-0.012,0.017-0.015,0.047-0.019,0.06
			C1.076,8.732,1.069,8.754,1.069,8.754C1.028,8.797,0.994,8.84,0.966,8.899l-0.07,0.116v0.014C0.773,9.156,0.684,9.309,0.65,9.49
			C0.602,9.576,0.563,9.692,0.552,9.793C0.545,9.82,0.531,9.838,0.527,9.859c0,0-0.01,0.037-0.026,0.066
			c-0.147,0.166-0.224,0.383-0.212,0.61c-0.056,0.091-0.098,0.177-0.124,0.287l-0.022,0.123c-0.015,0.052-0.016,0.108-0.016,0.169
			c-0.066,0.123-0.095,0.27-0.095,0.42c-0.028,0.097-0.036,0.205-0.028,0.308c0,0.022,0.01,0.042,0.017,0.071
			c-0.006,0.059-0.017,0.123-0.006,0.18c0.006,0.06,0.018,0.124,0.032,0.182c0,0.002-0.009,0.02-0.009,0.02
			C0.013,12.387,0,12.484,0.002,12.578l0.01,0.137c0,0.007,0.004,0.023,0.004,0.029c0.002,0.048,0.009,0.101,0.022,0.137
			l0.034,0.129c0.003,0.033,0.016,0.059,0.026,0.09c0,0,0.026,0.068,0.035,0.102v0.039c0.018,0.139,0.062,0.264,0.135,0.395
			c0.012,0.006,0.019,0.03,0.025,0.048L0.3,13.705c0,0.008,0,0.023,0,0.023c0.022,0.188,0.098,0.354,0.227,0.492l0.088,0.094h0.003
			c0.01,0.023,0.021,0.041,0.028,0.058c0,0,0.004,0.011,0.01,0.021c0.006,0.009,0.006,0.022,0.006,0.022
			c0.056,0.187,0.179,0.345,0.333,0.45c0.069,0.094,0.158,0.165,0.255,0.223c0.013,0.027,0.069,0.102,0.069,0.102
			c0.096,0.141,0.228,0.248,0.382,0.309l0.013,0.007c0.001,0,0.004,0.012,0.004,0.012c0.013,0,0.028,0.012,0.04,0.019l0.081,0.105
			c0.082,0.104,0.176,0.191,0.293,0.245l0.119,0.062c0.037,0.021,0.082,0.026,0.126,0.045c0.116,0.104,0.256,0.178,0.413,0.209
			c0.044,0.022,0.085,0.043,0.138,0.061c0.062,0.042,0.136,0.088,0.215,0.11c0.089,0.066,0.19,0.112,0.296,0.144
			c0.111,0.055,0.238,0.096,0.367,0.108c0.053,0.03,0.098,0.053,0.154,0.068l0.108,0.034C4.144,16.76,4.23,16.77,4.312,16.77
			c0.117,0.087,0.267,0.139,0.422,0.145h0.053c-0.081,0.121-0.121,0.268-0.104,0.412v0.024l0.014,0.114
			c0,0.032,0.009,0.053,0.02,0.088c-0.029,0.074-0.045,0.164-0.029,0.252c0.004,0.076,0.029,0.155,0.074,0.232
			c-0.027,0.076-0.043,0.152-0.037,0.233c0.006,0.015,0.01,0.038,0.01,0.055c0.03,0.144,0.098,0.267,0.203,0.356
			c0.011,0.011,0.011,0.017,0.016,0.029c-0.09,0.116-0.129,0.271-0.121,0.418c0.006,0.072,0.031,0.145,0.064,0.217
			c-0.08,0.119-0.12,0.26-0.104,0.408c0,0.014,0.003,0.028,0.003,0.054c0.016,0.068,0.039,0.142,0.08,0.208
			c0.007,0.029,0.015,0.074,0.021,0.101c-0.002,0.048-0.002,0.087,0,0.136c0.009,0.096,0.041,0.193,0.1,0.285
			c-0.016,0.059-0.023,0.127-0.023,0.194c0,0,0.008,0.063,0.008,0.1c0,0.038-0.008,0.103-0.008,0.103v0.086
			c0.021,0.1,0.055,0.215,0.111,0.299c0,0,0.009,0.011,0.014,0.011c-0.014,0.059-0.016,0.111-0.014,0.173
			c0,0.021,0.009,0.027,0.014,0.053c-0.092,0.115-0.14,0.254-0.131,0.413v0.021c0.018,0.148,0.09,0.295,0.197,0.396
			c-0.061,0.066-0.1,0.152-0.124,0.252c-0.009,0.058-0.013,0.127-0.009,0.184c0.009,0.107,0.043,0.209,0.105,0.295
			c-0.044,0.094-0.066,0.2-0.055,0.312c0.002,0,0.002,0.015,0.002,0.018c0.018,0.135,0.079,0.258,0.166,0.339
			c-0.025,0.083-0.031,0.163-0.025,0.243c0.006,0.079,0.037,0.167,0.082,0.255c-0.012,0.022-0.038,0.094-0.038,0.094
			c-0.019,0.083-0.034,0.17-0.019,0.249c0,0.028,0.007,0.056,0.012,0.082c-0.037,0.088-0.057,0.186-0.045,0.291
			c0.002,0.035,0.008,0.051,0.008,0.07l0.027,0.121c0.029,0.125,0.087,0.232,0.178,0.315c0.008,0.032,0.021,0.066,0.038,0.084
			c-0.048,0.085-0.083,0.175-0.095,0.274c-0.004,0.036-0.004,0.071,0,0.105c0.007,0.033,0.014,0.062,0.02,0.097
			c-0.03,0.085-0.045,0.177-0.039,0.271c0.009,0.115,0.051,0.229,0.116,0.309c-0.04,0.103-0.05,0.197-0.049,0.309
			c0.006,0.026,0.009,0.06,0.015,0.083c0.01,0.034,0.02,0.066,0.034,0.093c-0.043,0.102-0.065,0.209-0.05,0.322
			c0,0.011,0,0.033,0.001,0.045l0.017,0.119c0.021,0.117,0.078,0.216,0.147,0.305c-0.023,0.082-0.035,0.168-0.028,0.264
			c0.005,0.048,0.014,0.107,0.035,0.154c0.037,0.092,0.089,0.161,0.152,0.223c0.008,0.051,0.023,0.108,0.045,0.16
			c-0.02,0.031-0.031,0.057-0.031,0.057c-0.07,0.107-0.102,0.246-0.09,0.371c0.016,0.129,0.055,0.233,0.131,0.34
			c0,0,0.02,0.006,0.021,0.021c0.006,0.064,0.023,0.11,0.037,0.155c-0.113,0.129-0.17,0.307-0.155,0.475
			c0,0.023,0.006,0.045,0.013,0.065c0.008,0.062,0.029,0.114,0.055,0.173c-0.002,0.042-0.007,0.08-0.002,0.128
			c0,0.003,0,0.017,0.002,0.019c0.016,0.099,0.051,0.187,0.098,0.273V30.8c-0.012,0.069-0.012,0.133-0.006,0.195
			c0,0.032,0.006,0.07,0.022,0.103c-0.003,0.035-0.019,0.068-0.019,0.068c-0.015,0.061-0.02,0.121-0.01,0.2
			c0,0.037,0.01,0.075,0.025,0.11c-0.014,0.042-0.014,0.086,0,0.13c0.004,0.1,0.043,0.196,0.096,0.285
			c-0.006,0.015-0.015,0.04-0.015,0.071c0,0-0.001,0.014-0.001,0.03c-0.013,0.017-0.021,0.042-0.021,0.042
			c-0.045,0.096-0.059,0.203-0.055,0.305c0,0.016,0.006,0.025,0.006,0.033l0.018,0.125c0.008,0.062,0.031,0.105,0.054,0.164
			c-0.032,0.07-0.046,0.141-0.049,0.215c0,0.027,0,0.054,0.003,0.076c0.01,0.153,0.088,0.297,0.193,0.396
			c0.006,0.023,0.01,0.056,0.01,0.056v0.022c0,0.011,0,0.031,0.005,0.045l0.024,0.123c0.017,0.073,0.04,0.15,0.078,0.221v0.01
			c0,0,0.006,0.025,0.008,0.045c-0.05,0.088-0.084,0.18-0.1,0.277c-0.004,0.047-0.004,0.084,0,0.131
			c0.014,0.133,0.064,0.251,0.154,0.356c-0.062,0.097-0.095,0.222-0.086,0.349c0,0.011,0,0.011,0.006,0.021
			c0,0.046,0.01,0.091,0.018,0.126c-0.042,0.09-0.076,0.189-0.078,0.284v0.099c0.01,0.096,0.043,0.191,0.096,0.271v0.022
			c0.018,0.117,0.073,0.232,0.154,0.317c-0.09,0.11-0.146,0.24-0.154,0.389v0.071c0.014,0.13,0.056,0.238,0.138,0.327
			c-0.019,0.038-0.022,0.066-0.022,0.066c-0.035,0.076-0.007,0.165-0.045,0.236c-0.174,0.324,0.249,0.464,0.249,0.464
			c-0.208,0.209,0,0.64,0,0.64c-0.129,0.457,0.128,0.713,0.128,0.713C6.435,39.6,6.828,39.83,6.828,39.83
			c0.01,0.014,0.012,0.023,0.012,0.031c-0.002,0.054-0.012,0.106-0.002,0.164v0.004c0.012,0.1,0.042,0.182,0.083,0.26
			c-0.071,0.117-0.111,0.258-0.097,0.399v0.03c0.025,0.156,0.103,0.293,0.221,0.386c0,0.035-0.002,0.053-0.002,0.083
			c0.007,0.044,0.018,0.096,0.037,0.14c-0.008,0.011-0.013,0.028-0.013,0.028c-0.015,0.048-0.022,0.09-0.022,0.139
			c-0.016,0.031-0.029,0.063-0.037,0.089l-0.052,0.14c-0.029,0.076-0.036,0.152-0.035,0.226c-0.022,0.032-0.04,0.077-0.04,0.077
			c-0.064,0.113-0.094,0.24-0.077,0.36c0.006,0.079,0.024,0.149,0.058,0.219c-0.002,0.03-0.01,0.059-0.01,0.089
			c-0.001,0.021,0,0.053,0,0.075c0.02,0.175,0.104,0.327,0.233,0.427c-0.001,0.021-0.005,0.039-0.005,0.039
			c-0.008,0.066-0.008,0.105-0.008,0.167c0.008,0.059,0.023,0.113,0.042,0.169c0,0-0.274,0.416-0.065,0.623
			c0,0-0.134,0.45,0.166,0.45l1.292-1.929c0.022-0.052,0.03-0.127,0.023-0.186v-0.045c-0.012-0.113-0.052-0.219-0.117-0.307
			c0.013-0.057,0.018-0.112,0.018-0.177c0-0.012,0-0.021-0.005-0.028c-0.012-0.102-0.049-0.205-0.104-0.279
			c0.006-0.041,0.006-0.067,0-0.096c0-0.027-0.014-0.051-0.014-0.084c0-0.02,0.027-0.11,0.027-0.11
			c0.006-0.022,0.007-0.036,0.007-0.065c0.088-0.117,0.128-0.26,0.11-0.412c0-0.021-0.004-0.044-0.008-0.076l-0.031-0.125
			c-0.016-0.094-0.059-0.18-0.124-0.265c0.013-0.032,0.019-0.064,0.019-0.064c0.014-0.035,0.021-0.071,0.033-0.101l0.014-0.139
			c0.01-0.053,0.01-0.094,0.006-0.142c-0.006-0.06-0.02-0.114-0.039-0.161v-0.1c-0.004-0.07-0.025-0.129-0.05-0.188
			c0.005-0.025,0.015-0.062,0.018-0.087c0.007-0.042,0.007-0.078,0.007-0.119c-0.014-0.107-0.056-0.205-0.11-0.286
			c-0.011-0.085-0.038-0.165-0.082-0.231c0.059-0.084,0.097-0.186,0.106-0.298c0.006-0.036,0.006-0.08,0-0.111
			c-0.004-0.063-0.025-0.132-0.054-0.195c0.014-0.071,0.019-0.139,0.014-0.208v-0.042c-0.02-0.108-0.072-0.212-0.146-0.292
			c0.018-0.065,0.026-0.13,0.018-0.193c-0.018-0.172-0.108-0.333-0.257-0.439C7.807,37,7.816,36.928,7.807,36.848v-0.017
			l-0.021-0.147c-0.015-0.088-0.043-0.164-0.086-0.248c0.008-0.019,0.012-0.042,0.019-0.07l0.026-0.133
			c0.021-0.066,0.021-0.127,0.014-0.192c0-0.027-0.008-0.051-0.014-0.073l-0.031-0.141c-0.006-0.041-0.02-0.079-0.043-0.121
			c0.088-0.087,0.154-0.201,0.17-0.326c0.012-0.057,0.012-0.108,0.006-0.16c-0.01-0.131-0.061-0.24-0.139-0.338
			c0.004-0.048,0.004-0.097,0-0.135c0-0.034-0.008-0.062-0.014-0.088c0.029-0.094,0.049-0.191,0.038-0.285
			c-0.009-0.041-0.019-0.094-0.032-0.141c-0.006-0.037-0.023-0.066-0.049-0.107c0.006-0.035,0.006-0.074,0-0.107
			c-0.01-0.131-0.064-0.254-0.149-0.36c0.003-0.034,0.003-0.076,0.003-0.111c-0.015-0.125-0.064-0.243-0.141-0.341
			c0.145-0.119,0.223-0.314,0.215-0.514c-0.004,0-0.006-0.002-0.006-0.018c-0.018-0.164-0.093-0.309-0.218-0.416
			c0.083-0.105,0.132-0.246,0.128-0.385v-0.045c-0.022-0.193-0.134-0.368-0.298-0.462c0.065-0.122,0.104-0.248,0.089-0.382
			c0-0.02-0.006-0.041-0.006-0.062c0.096-0.122,0.148-0.282,0.134-0.446c0-0.007-0.007-0.007-0.007-0.019
			c-0.01-0.07-0.031-0.139-0.059-0.201c0.008-0.052,0.01-0.094,0.007-0.143c-0.007-0.066-0.03-0.137-0.058-0.206
			c0.004-0.003,0.051-0.114,0.051-0.114c0.042-0.096,0.054-0.201,0.044-0.303c-0.002-0.068-0.025-0.142-0.054-0.203
			c-0.025-0.053-0.059-0.105-0.1-0.148c0.059-0.088,0.094-0.191,0.1-0.31c0-0.019,0-0.05-0.006-0.07
			c-0.008-0.124-0.053-0.224-0.119-0.313c0.036-0.096,0.055-0.193,0.049-0.299c0-0.019-0.004-0.027-0.004-0.049
			c-0.032-0.168-0.133-0.329-0.276-0.41c0.004-0.043,0.004-0.094,0.004-0.136c-0.004-0.024-0.011-0.032-0.011-0.056
			c0.018-0.045,0.033-0.086,0.045-0.138c0.102-0.124,0.148-0.28,0.133-0.445v-0.018c-0.018-0.089-0.045-0.169-0.091-0.237
			c0.022-0.082,0.03-0.154,0.022-0.226c-0.005-0.059-0.02-0.106-0.037-0.159c0,0-0.027-0.082-0.039-0.104v-0.02
			c0.007-0.035,0-0.057,0-0.075c-0.006-0.089-0.035-0.161-0.069-0.229c0-0.028,0.011-0.061,0.011-0.082
			c0-0.018-0.005-0.035-0.011-0.058c-0.006-0.065-0.028-0.135-0.051-0.201c0.005-0.056,0.016-0.104,0.005-0.165
			c-0.005-0.088-0.031-0.185-0.088-0.256c0-0.016,0-0.029-0.001-0.045c-0.005-0.021-0.011-0.054-0.019-0.071
			c0.014-0.055,0.02-0.11,0.03-0.163v-0.127c0-0.024,0-0.053-0.011-0.067c0-0.006-0.001-0.022-0.001-0.042
			c0.032-0.058,0.058-0.128,0.067-0.199l0.017-0.122c0.004-0.053,0.004-0.095,0-0.134c-0.015-0.094-0.048-0.188-0.095-0.271
			c0.011-0.046,0.012-0.093,0.022-0.139c0.04-0.106,0.058-0.211,0.048-0.316c-0.002-0.054-0.014-0.102-0.035-0.153
			c0.012-0.062,0.023-0.131,0.021-0.187v-0.018c-0.014-0.121-0.061-0.229-0.129-0.316c0.013-0.055,0.013-0.107,0.007-0.16
			c0-0.003-0.003-0.008-0.003-0.008c0.015-0.053,0.026-0.094,0.026-0.144c0.006-0.034,0.006-0.054,0-0.085
			c0-0.043-0.012-0.07-0.018-0.098c0.006-0.053,0.006-0.102,0.006-0.151c-0.006-0.018-0.006-0.038-0.015-0.063
			c-0.02-0.102-0.064-0.188-0.126-0.264v-0.016c-0.009-0.043-0.011-0.088-0.023-0.121v-0.062c0.087-0.114,0.13-0.264,0.122-0.422
			v-0.008c-0.027-0.152-0.096-0.287-0.205-0.389c0.019-0.055,0.027-0.108,0.027-0.161c0-0.019-0.009-0.039-0.009-0.059
			c0-0.068-0.033-0.138-0.064-0.205c0.043-0.083,0.064-0.185,0.053-0.28v-0.012c0.034-0.089,0.053-0.165,0.04-0.269H6.524
			c0-0.06-0.015-0.103-0.025-0.149c0.009-0.047,0.018-0.083,0.022-0.135c0.003-0.027,0.003-0.07,0-0.1
			c-0.012-0.104-0.044-0.189-0.099-0.281c0.05-0.09,0.076-0.204,0.076-0.308c0-0.015-0.009-0.024-0.009-0.036
			c-0.013-0.156-0.092-0.306-0.213-0.41c0-0.018,0.006-0.033,0-0.057v-0.022c0.113-0.126,0.176-0.297,0.157-0.477
			c0-0.015-0.005-0.038-0.005-0.061c-0.025-0.145-0.109-0.271-0.217-0.36c0.087-0.087,0.148-0.215,0.169-0.344l0.014-0.104
			c0.009-0.037,0.009-0.089,0.003-0.134c-0.008-0.067-0.027-0.127-0.051-0.189c0.059,0.02,0.118,0.041,0.18,0.041
			c0.051,0,0.1,0,0.148-0.01c0.076,0.022,0.164,0.031,0.245,0.022c0.069-0.013,0.129-0.034,0.188-0.062
			c0.075,0.008,0.158,0.019,0.239,0l0.131-0.027c0.013,0,0.034-0.014,0.046-0.018c0.093,0.036,0.188,0.053,0.292,0.036
			c0.22-0.019,0.404-0.163,0.491-0.363c0.021,0,0.047-0.012,0.068-0.012c0.01,0,0.024,0.012,0.036,0.022
			c0.117,0.171,0.325,0.283,0.551,0.275c0.108-0.012,0.211-0.038,0.298-0.096c0.1,0.005,0.199-0.015,0.294-0.053
			c0.048-0.024,0.094-0.045,0.138-0.084c0.015,0,0.02-0.006,0.037-0.006l0.131-0.037c0.084-0.022,0.16-0.064,0.225-0.115
			c0.056-0.016,0.108-0.033,0.166-0.059l0.008-0.008c0.035,0.012,0.075,0.016,0.075,0.016c0.021,0.008,0.036,0.008,0.06,0.008
			c0.14,0.195,0.371,0.307,0.608,0.261c0.052-0.007,0.095-0.021,0.136-0.037c0.061,0.017,0.123,0.021,0.187,0.017
			c0.123-0.016,0.231-0.051,0.323-0.123c0.087,0.001,0.17-0.008,0.251-0.041c0.132,0.071,0.294,0.104,0.454,0.06l0.131-0.023
			c0.117-0.028,0.219-0.091,0.301-0.173c0.069,0.021,0.143,0.045,0.227,0.037c0.068-0.003,0.136-0.02,0.194-0.046
			c0.053,0.007,0.106,0.007,0.161-0.005h0.002c0.142,0.066,0.305,0.074,0.455,0.031c0.078,0.031,0.166,0.043,0.248,0.043
			c0.092,0,0.18-0.026,0.254-0.069c0.014,0,0.022,0.007,0.037,0.009c0.203,0.031,0.406-0.045,0.541-0.192
			c0,0,0.047-0.052,0.08-0.083c0.094,0.037,0.197,0.057,0.307,0.049c0.045-0.008,0.082-0.018,0.121-0.032
			c0.044,0.015,0.084,0.024,0.126,0.032c0.165,0.108,0.38,0.138,0.569,0.066c0.055,0.01,0.116,0.017,0.17,0.017h0.131
			c0.139,0,0.261-0.04,0.361-0.115h0.008l0.135,0.009c0.096,0,0.191-0.023,0.278-0.059c0.079,0.035,0.171,0.064,0.271,0.07
			c0.104,0,0.213-0.028,0.299-0.07c0.088,0.033,0.186,0.059,0.28,0.055c0.134-0.005,0.257-0.055,0.366-0.141
			c0.018,0.014,0.037,0.021,0.062,0.021c0.157,0.028,0.315-0.012,0.443-0.104c0.06,0.023,0.127,0.023,0.191,0.023
			c0.051,0,0.109-0.012,0.16-0.03c0.039,0.019,0.078,0.054,0.125,0.062c0.192,0.062,0.403,0.026,0.562-0.09
			c0,0,0.013-0.015,0.018-0.015c0.047-0.011,0.097-0.016,0.138-0.026c0.242,0.099,0.52,0.041,0.697-0.154l0.117-0.14
			c0.023-0.021,0.043-0.048,0.059-0.075c0.12,0.183,0.326,0.297,0.554,0.287c0.021,0.01,0.04,0.021,0.062,0.031
			c0.188,0.051,0.391,0.025,0.548-0.091c0.082,0.015,0.158,0.015,0.245,0.007c0.09-0.007,0.17-0.043,0.238-0.086
			c0.041,0.02,0.091,0.031,0.129,0.034c0.166,0.019,0.336-0.028,0.467-0.128l0.125-0.104c0.006,0,0.006,0,0.015-0.011
			c0.062,0.011,0.132,0,0.199-0.03c0.017,0,0.03-0.012,0.054-0.014c0.043,0.006,0.093,0.014,0.145,0.014
			c0.064,0.03,0.135,0.054,0.206,0.06c0.176,0.128,0.387,0.161,0.583,0.085c0.021-0.011,0.044-0.02,0.066-0.027h0.033
			c0.072-0.018,0.139-0.034,0.201-0.063c0.03,0.006,0.07,0.011,0.07,0.011c0.178,0.053,0.365,0,0.5-0.102
			c0.093,0.037,0.191,0.061,0.289,0.044c0.105-0.007,0.203-0.035,0.291-0.083c0.1,0.048,0.213,0.076,0.324,0.068
			c0.109,0.038,0.226,0.062,0.344,0.031c0.096-0.023,0.189-0.061,0.262-0.121c0.025-0.008,0.045-0.008,0.074-0.008
			c0.035-0.011,0.074-0.023,0.107-0.028c0.043,0.005,0.082,0.005,0.112-0.005l0.132-0.012c0.002,0,0.009,0,0.014-0.008
			c0.123,0.042,0.253,0.042,0.373-0.003c0.009-0.007,0.01-0.012,0.018-0.012h0.041c0.076,0,0.15-0.017,0.22-0.038
			c0.058,0.033,0.112,0.05,0.179,0.061l0.129,0.021c0.172,0.031,0.349-0.01,0.483-0.115c0.042,0.017,0.087,0.039,0.144,0.047
			c0.202,0.039,0.424-0.03,0.57-0.184c0.031,0.012,0.064,0.02,0.098,0.02c0.033,0.012,0.068,0.012,0.105,0.012
			c0.12,0.047,0.256,0.063,0.389,0.027c0.078-0.016,0.158-0.059,0.223-0.105c0.053,0,0.105-0.008,0.148-0.017
			c0.134-0.032,0.256-0.109,0.342-0.212h0.039c0.049,0,0.098-0.012,0.146-0.017c0.022,0,0.04,0.001,0.067,0.005
			c0.121,0.136,0.296,0.204,0.484,0.191c0.129,0,0.245-0.053,0.34-0.127c0.128,0.034,0.271,0.025,0.4-0.029
			c0,0,0.049-0.023,0.088-0.039c0.016,0.004,0.037,0.016,0.037,0.016c0.178,0.058,0.375,0.03,0.525-0.057
			c0.094,0.021,0.196,0.021,0.293-0.007c0.012-0.007,0.021-0.011,0.038-0.011c0.11,0.088,0.263,0.132,0.41,0.127
			c0.129,0,0.249-0.053,0.34-0.127c0.075-0.02,0.144-0.053,0.208-0.09h0.002c0.119,0.037,0.25,0.053,0.371,0.018
			c0.122,0.062,0.254,0.09,0.393,0.072c0.078-0.02,0.148-0.037,0.219-0.082c0.009,0,0.021,0,0.027-0.008
			c0.018,0,0.028-0.004,0.04-0.01c0.094,0.062,0.202,0.09,0.319,0.08c0.17,0,0.326-0.074,0.432-0.193
			c0.076-0.018,0.151-0.051,0.217-0.088c0.156,0.029,0.324,0.004,0.456-0.076l0.11-0.066c0.036,0.034,0.078,0.049,0.117,0.072
			c0,0,0.027,0.012,0.048,0.018c0.011,0.041,0.021,0.082,0.021,0.082c0.021,0.079,0.062,0.149,0.111,0.211
			c-0.097,0.118-0.16,0.259-0.16,0.41v0.062c0.002,0.032,0.008,0.059,0.016,0.091c-0.014,0.055-0.014,0.111-0.008,0.171
			c0,0.014,0,0.028,0.003,0.043c0.026,0.131,0.091,0.252,0.183,0.346c-0.025,0.076-0.045,0.168-0.033,0.258
			c0.003,0.008,0.003,0.026,0.008,0.044c0.014,0.093,0.047,0.177,0.102,0.249c-0.059,0.108-0.088,0.232-0.074,0.36v0.019
			c0.004,0.012,0.008,0.018,0.008,0.029c-0.018,0.066-0.027,0.131-0.021,0.203v0.012c0.004,0.045,0.021,0.094,0.034,0.147
			c-0.001,0.025-0.001,0.053-0.001,0.085c0,0.009,0,0.009,0.001,0.018c0.012,0.088,0.036,0.158,0.077,0.236
			c-0.041,0.09-0.054,0.186-0.045,0.283c0.004,0.053,0.012,0.088,0.023,0.127c0.021,0.068,0.051,0.124,0.088,0.18
			c0.025,0.132,0.091,0.27,0.201,0.356c-0.031,0.075-0.039,0.161-0.031,0.239c0,0.014,0.008,0.033,0.012,0.053
			c-0.02,0.069-0.029,0.151-0.02,0.217c0.005,0.059,0.016,0.114,0.039,0.167c-0.061,0.097-0.09,0.207-0.09,0.325
			c0,0.014,0,0.022,0.004,0.039c0.008,0.119,0.055,0.223,0.123,0.32c0.004,0.004,0.01,0.032,0.017,0.045
			c-0.013,0.052-0.017,0.111-0.013,0.156c0.006,0.048,0.014,0.102,0.031,0.15c-0.019,0.057-0.031,0.111-0.035,0.161
			c0,0.029,0,0.063,0.004,0.094c0.006,0.073,0.027,0.14,0.059,0.2c-0.046,0.105-0.069,0.217-0.059,0.324
			c0.013,0.107,0.048,0.227,0.124,0.308l0.087,0.133c0.018,0.021,0.031,0.028,0.048,0.05c-0.017,0.023-0.022,0.066-0.03,0.094
			c0,0-0.008,0.035-0.018,0.057c-0.018,0.032-0.034,0.059-0.034,0.059c-0.056,0.121-0.083,0.244-0.076,0.367
			c0.003,0.057,0.021,0.103,0.038,0.155c0.029,0.081,0.079,0.152,0.138,0.212c-0.07,0.107-0.103,0.233-0.1,0.371v0.031
			c0.012,0.119,0.06,0.215,0.124,0.309c-0.036,0.061-0.064,0.131-0.076,0.201c-0.007,0.053-0.014,0.104-0.004,0.155
			c0.016,0.144,0.072,0.275,0.178,0.384c0,0,0.076,0.076,0.106,0.102c-0.085,0.104-0.135,0.232-0.142,0.37
			c0,0.021,0,0.056,0.004,0.073c-0.032,0.082-0.047,0.172-0.038,0.26c0,0.014,0.006,0.023,0.006,0.034
			c0.035,0.229,0.19,0.422,0.407,0.498v0.003c0,0.028,0,0.053,0.01,0.082c0.006,0.061,0.021,0.116,0.041,0.178
			c-0.125,0.127-0.195,0.311-0.176,0.492c0,0.012,0.002,0.033,0.006,0.045c0.02,0.149,0.099,0.258,0.201,0.355
			c0.006,0.04,0.025,0.082,0.025,0.082c0.004,0.037,0.013,0.069,0.03,0.102c0,0.021-0.006,0.041,0,0.057
			c0.006,0.058,0.021,0.111,0.036,0.163v0.112l0.016,0.14c0,0.019,0.004,0.042,0.01,0.071c0,0,0.021,0.088,0.026,0.119
			c0.005,0.02,0.019,0.114,0.019,0.114c-0.019,0.059-0.025,0.117-0.025,0.171c-0.02,0.034-0.039,0.071-0.045,0.116l-0.045,0.123
			c-0.003,0.013-0.009,0.026-0.009,0.038l-0.032,0.135c-0.012,0.057-0.015,0.131-0.006,0.184c0,0.033,0.002,0.053,0.006,0.087
			l0.026,0.124c0.029,0.109,0.079,0.215,0.164,0.289c-0.012,0.035-0.012,0.084-0.006,0.128c0.006,0.018,0.006,0.03,0.006,0.035
			c0.006,0.035,0.012,0.064,0.03,0.103c-0.078,0.113-0.115,0.25-0.098,0.384v0.012c0.004,0.042,0.01,0.07,0.02,0.112
			c-0.005,0.033-0.005,0.053-0.005,0.104C38.529,28.898,38.475,29,38.475,29c-0.049,0.099-0.066,0.216-0.053,0.321
			c0.003,0.05,0.015,0.108,0.033,0.167c0.014,0.021,0.025,0.038,0.035,0.072c-0.006,0.035-0.006,0.076-0.006,0.113v0.045
			c0.016,0.186,0.113,0.337,0.258,0.449v0.004c0,0.012-0.006,0.018-0.006,0.018c-0.045,0.109-0.062,0.215-0.053,0.315
			c0.005,0.036,0.016,0.076,0.022,0.117c-0.007,0.052-0.007,0.101-0.003,0.151c0,0.008,0,0.023,0.003,0.025
			c0,0,0.009,0.055,0.018,0.104v0.092c0,0.019,0.001,0.04,0.001,0.05c0.012,0.106,0.045,0.199,0.105,0.292
			c-0.025,0.079-0.035,0.159-0.029,0.249c0,0.01,0,0.021,0.004,0.027c0.016,0.08,0.033,0.146,0.068,0.215
			c-0.114,0.126-0.174,0.294-0.158,0.469c0.003,0.002,0.003,0.013,0.009,0.024c0.019,0.206,0.158,0.377,0.331,0.47v0.086
			c-0.061,0.082-0.098,0.166-0.108,0.256c-0.017,0.062-0.019,0.117-0.017,0.172c0.01,0.061,0.023,0.116,0.045,0.168v0.012
			c-0.051,0.102-0.084,0.213-0.068,0.332v0.035c0.011,0.062,0.033,0.115,0.062,0.176c-0.041,0.094-0.062,0.202-0.052,0.305
			c0.007,0.027,0.011,0.072,0.021,0.109c0.026,0.107,0.088,0.202,0.168,0.282c-0.021,0.073-0.036,0.157-0.025,0.24
			c0,0.015,0.004,0.031,0.007,0.041c0,0,0.009,0.059,0.012,0.097c0.001,0.044,0.001,0.096,0.001,0.096
			c0,0.012,0.006,0.018,0.006,0.023c0.008,0.018,0.01,0.039,0.017,0.061l-0.035,0.127c-0.018,0.071-0.021,0.146-0.018,0.21
			c0.003,0.015,0.003,0.028,0.011,0.056l0.019,0.128c0.017,0.089,0.058,0.178,0.116,0.248c-0.023,0.067-0.031,0.15-0.023,0.22
			c0.004,0.068,0.023,0.13,0.048,0.195c0,0,0.007,0,0.007,0.007c-0.018,0.057-0.023,0.113-0.018,0.184v0.006
			c0.011,0.084,0.031,0.149,0.063,0.22c0,0.013-0.001,0.022-0.001,0.022c-0.004,0.041-0.004,0.084-0.004,0.116
			c-0.041,0.094-0.064,0.205-0.053,0.311c0,0.01,0,0.012,0.005,0.029c0.019,0.143,0.095,0.266,0.192,0.365
			c-0.062,0.099-0.102,0.202-0.11,0.314l-0.003,0.137v0.093c0.003,0.036,0.012,0.067,0.021,0.104
			c-0.012,0.051-0.012,0.112-0.009,0.166c0.004,0.017,0.004,0.018,0.004,0.027c0.018,0.131,0.08,0.256,0.163,0.342
			c0.006,0.023,0.018,0.049,0.026,0.066c-0.026,0.076-0.033,0.16-0.026,0.229c0,0.036,0.006,0.066,0.018,0.103
			c0,0,0.011,0.042,0.019,0.082c-0.064,0.111-0.102,0.242-0.088,0.38c0.012,0.128,0.064,0.252,0.146,0.347
			c0.017,0.064,0.032,0.115,0.064,0.174c-0.035,0.094-0.054,0.185-0.041,0.276c0.003,0.058,0.009,0.097,0.026,0.141
			c0.037,0.106,0.107,0.205,0.188,0.282c0,0.01-0.006,0.031,0,0.057v0.025c0,0.017-0.01,0.034-0.01,0.047l-0.023,0.127
			c-0.012,0.059-0.012,0.123-0.005,0.177c0.006,0.126,0.059,0.231,0.138,0.333c-0.006,0.007-0.014,0.014-0.014,0.014
			c-0.164,0.128-0.236,0.336-0.224,0.532c0.006,0.036,0.009,0.073,0.023,0.116c0.021,0.059,0.042,0.113,0.076,0.165
			c-0.015,0.06-0.034,0.134-0.024,0.204v0.01c0.018,0.166,0.095,0.311,0.225,0.413c0.029,0.075,0.081,0.149,0.141,0.217
			c-0.06,0.104-0.088,0.23-0.077,0.343c0.001,0.026,0.005,0.045,0.005,0.066c-0.113,0.129-0.174,0.294-0.156,0.466
			c0,0.005,0,0.021,0.01,0.028c0.016,0.148,0.084,0.275,0.193,0.369c-0.062,0.105-0.09,0.222-0.086,0.353v0.009
			c0,0.008,0.002,0.012,0.002,0.02c-0.021,0.062-0.031,0.137-0.029,0.21c0,0.011,0.004,0.03,0.004,0.035
			c0.011,0.123,0.062,0.235,0.135,0.334c0,0.009-0.004,0.03-0.004,0.03c-0.006,0.041-0.01,0.098-0.003,0.138
			c0.007,0.084,0.036,0.173,0.083,0.253c-0.012,0.019,0,0.053,0,0.078c-0.055,0.098-0.076,0.204-0.06,0.322
			c0,0.008,0.003,0.027,0.003,0.038c0.01,0.09,0.045,0.173,0.092,0.243c-0.057,0.099-0.09,0.207-0.09,0.323v0.05
			c0.014,0.145,0.08,0.294,0.197,0.388c0,0,0.006,0.007,0.01,0.007c-0.023,0.086-0.033,0.162-0.029,0.247v0.009
			c0.02,0.139,0.075,0.256,0.157,0.346c-0.041,0.098-0.059,0.195-0.048,0.301c0.002,0.018,0.007,0.046,0.014,0.077
			c0.02,0.089,0.058,0.172,0.116,0.249c-0.054,0.103-0.082,0.221-0.073,0.338c0.009,0.02,0.009,0.053,0.015,0.074
			c0.006,0.055,0.029,0.092,0.044,0.129c-0.003,0.036-0.009,0.068-0.012,0.104c0,0.025,0,0.057,0.003,0.095
			c0.006,0.036,0.009,0.079,0.026,0.124c-0.076,0.104-0.119,0.234-0.115,0.373v0.139c0.004,0.005,0.004,0.023,0.004,0.035
			c0.018,0.166,0.094,0.318,0.221,0.422v0.041c-0.059,0.104-0.083,0.221-0.065,0.337v0.017c0,0.014,0.006,0.035,0.007,0.061
			c-0.031,0.072-0.054,0.148-0.061,0.227c0,0.031,0,0.062,0.007,0.099c0.003,0.06,0.019,0.124,0.047,0.179
			c-0.012,0.034-0.018,0.075-0.018,0.113v0.17c0.018,0.159,0.089,0.295,0.206,0.398c-0.012,0.039-0.014,0.078-0.014,0.108v0.182
			c0.014,0.11,0.051,0.208,0.105,0.292c-0.004,0.008-0.004,0.03-0.004,0.03c-0.007,0.046-0.007,0.094-0.007,0.144
			c0.003,0.027,0.007,0.049,0.011,0.067c-0.008,0.053-0.011,0.11-0.008,0.173l0.015,0.115c0.003,0.051,0.009,0.093,0.024,0.135
			c-0.048,0.091-0.08,0.199-0.08,0.303c0,0.024,0,0.031,0.003,0.042c0,0.021,0.005,0.042,0.015,0.058
			c-0.018,0.057-0.023,0.125-0.018,0.186c0.003,0.08,0.032,0.156,0.064,0.23c0,0,0.038,0.068,0.049,0.089
			c-0.075,0.124-0.11,0.261-0.096,0.398c0.003,0.024,0.003,0.048,0.01,0.077c0.011,0.059,0.037,0.11,0.07,0.169
			c-0.024,0.079-0.033,0.153-0.029,0.241c0.018,0.123,0.066,0.238,0.141,0.327c-0.001,0.046-0.001,0.094,0,0.14
			c0,0.033,0.016,0.076,0.023,0.107c-0.065,0.116,0.187,0.333,0.197,0.468l1.514,0.239C42.781,56.511,42.775,56.474,42.764,56.444z
			 M4.438,14.994c-0.008,0-0.008-0.017-0.014-0.017c0,0-0.045-0.007-0.078-0.019c-0.12-0.104-0.26-0.166-0.418-0.193
			c-0.082-0.039-0.162-0.059-0.244-0.072H3.68c-0.072-0.061-0.163-0.127-0.25-0.158c-0.119-0.094-0.255-0.152-0.398-0.168
			c-0.059-0.075-0.13-0.146-0.212-0.197c0,0-0.037-0.023-0.072-0.043c-0.029-0.022-0.066-0.052-0.066-0.052
			c-0.015-0.009-0.027-0.027-0.038-0.027c-0.057-0.09-0.125-0.178-0.208-0.237l-0.096-0.087c-0.025-0.019-0.055-0.029-0.088-0.05
			c-0.016-0.021-0.034-0.043-0.055-0.068c-0.04-0.164-0.126-0.314-0.252-0.438c-0.007-0.014-0.007-0.021-0.019-0.043
			c-0.006-0.029-0.019-0.077-0.019-0.077c-0.006-0.016-0.016-0.051-0.026-0.074v-0.026c-0.013-0.133-0.057-0.259-0.123-0.369
			L1.75,12.575c0-0.007,0.007-0.017,0.007-0.017l0.02-0.129c0.016-0.083,0.016-0.154,0.011-0.233c0-0.017-0.004-0.032-0.006-0.049
			l-0.017-0.132c0,0,0-0.009-0.008-0.009c0.008-0.072,0.01-0.128,0.008-0.185v-0.014c0-0.014,0-0.019,0.002-0.031
			c0.062-0.109,0.094-0.232,0.1-0.357c0,0,0.004-0.04,0.004-0.09c0.019-0.038,0.042-0.078,0.06-0.127l0.044-0.11
			c0.039-0.095,0.059-0.198,0.059-0.3c0.026-0.059,0.05-0.114,0.068-0.174c0.112-0.136,0.183-0.311,0.199-0.481
			C2.4,10.026,2.473,9.876,2.497,9.73c0.026-0.031,0.059-0.068,0.059-0.068c0.094-0.105,0.155-0.248,0.188-0.38
			c0.062-0.075,0.104-0.157,0.139-0.246C2.91,8.998,2.937,8.96,2.965,8.914C3.079,8.809,3.162,8.676,3.2,8.516
			c0.021-0.014,0.032-0.037,0.032-0.037c0.048-0.034,0.085-0.081,0.126-0.125c0.068-0.055,0.133-0.115,0.184-0.189
			c0,0,0.048-0.077,0.062-0.096c0.021-0.031,0.054-0.066,0.061-0.087c0.011-0.003,0.071-0.085,0.071-0.085
			c0.037-0.049,0.067-0.091,0.097-0.138c0,0.017-0.005,0.038,0,0.058c0,0.025,0.007,0.059,0.013,0.094
			c-0.004,0.054-0.006,0.104,0,0.158C3.854,8.13,3.869,8.197,3.891,8.246c-0.009,0.04-0.009,0.09-0.009,0.09
			c0,0.037,0,0.07,0.009,0.104c0.004,0.049,0.014,0.099,0.023,0.145c-0.012,0.08-0.017,0.162-0.01,0.241
			c0,0.021,0.006,0.052,0.019,0.087C3.91,8.969,3.91,9.029,3.914,9.078c0.009,0.027,0.009,0.047,0.01,0.064
			c-0.001,0.07-0.01,0.127,0,0.192c0.004,0.079,0.033,0.167,0.064,0.241C3.965,9.67,3.963,9.756,3.971,9.842
			c0.002,0.066,0.018,0.125,0.035,0.185c0,0.024,0,0.044,0.003,0.075c0,0.015,0.013,0.049,0.017,0.065l0.016,0.128
			c0,0.008,0.006,0.014,0.012,0.028c-0.006,0.05-0.006,0.102,0,0.145c0,0.036,0.004,0.057,0.01,0.073c0,0,0,0.021,0.005,0.035
			c0,0.012-0.005,0.043-0.005,0.043L4.057,10.74c0,0.043,0,0.083,0.006,0.121c0.005,0.068,0.023,0.137,0.037,0.2
			c0,0,0.026,0.071,0.039,0.103c0.005,0.022,0.017,0.039,0.022,0.069c0,0.052-0.005,0.09,0,0.132c0,0.015,0.005,0.032,0.005,0.045
			c-0.011,0.066-0.018,0.146-0.011,0.217c0.001,0.017,0.006,0.034,0.006,0.041l0.015,0.127c0.004,0.051,0.023,0.09,0.037,0.125
			c0,0.034-0.005,0.063-0.005,0.096c0.005,0.021,0.005,0.044,0.017,0.065c-0.012,0.058-0.017,0.125-0.004,0.188
			c0,0,0.004,0.013,0.004,0.022c-0.004,0.014-0.012,0.021-0.012,0.021c-0.008,0.074-0.008,0.146-0.005,0.211
			c0.013,0.072,0.025,0.155,0.056,0.221l0.006,0.137c0,0.011,0,0.023,0.004,0.023c0.005,0.053,0.018,0.116,0.029,0.164
			c0,0.035-0.005,0.078-0.005,0.078c-0.001,0.055-0.001,0.094,0,0.145c0.007,0.08,0.026,0.15,0.057,0.221
			c-0.026,0.101-0.032,0.197-0.026,0.299c0.009,0.117,0.051,0.237,0.115,0.357c0,0.02-0.004,0.053-0.004,0.083l0.004,0.132v0.021
			c-0.02,0.103-0.031,0.197-0.02,0.301c0.006,0.061,0.016,0.123,0.037,0.189c0,0.014,0,0.039,0.004,0.062
			c0,0.006,0.006,0.021,0.008,0.037H4.438z"/>
	</g>
</g>
<path fill="#FFFFFF" d="M37.875,35.885c-0.473-0.207-1.021,0.01-1.232,0.488c0,0-0.01,0.016-0.01,0.026
	c-0.002,0-0.002,0.001-0.002,0.009c-0.131,0.062-0.232,0.16-0.32,0.288c-0.039,0.026-0.088,0.071-0.118,0.114
	c-0.111,0.051-0.206,0.12-0.287,0.209c-0.013,0.01-0.034,0.018-0.034,0.018c-0.08,0.041-0.15,0.092-0.217,0.139v0.004l-0.007,0.005
	c-0.082,0.048-0.155,0.099-0.223,0.155c-0.112,0.027-0.226,0.067-0.328,0.137c-0.095,0.025-0.188,0.068-0.276,0.131
	c-0.104,0.022-0.209,0.062-0.299,0.129c-0.034,0.006-0.07,0.022-0.07,0.022c-0.105,0.017-0.213,0.071-0.303,0.126
	c-0.03,0-0.065,0.015-0.065,0.015c-0.046,0-0.083,0.004-0.128,0.014c-0.146-0.01-0.297,0.034-0.434,0.097
	c-0.154-0.021-0.307,0.006-0.449,0.062c-0.098-0.018-0.196-0.018-0.289-0.009c-0.071-0.009-0.136-0.009-0.2,0l-0.123,0.009
	c-0.081,0.009-0.157,0.023-0.231,0.046c-0.061,0.013-0.117,0.015-0.168,0.027c-0.033-0.005-0.068-0.012-0.099-0.012
	c-0.06-0.022-0.126-0.038-0.187-0.053h-0.031c-0.176-0.105-0.38-0.146-0.579-0.114c-0.009-0.009-0.028-0.02-0.028-0.02
	c-0.13-0.048-0.268-0.068-0.41-0.062h-0.006l-0.004-0.006h-0.039c0,0-0.031-0.004-0.057-0.014c-0.054-0.031-0.115-0.055-0.182-0.076
	c-0.112-0.064-0.234-0.107-0.364-0.125c-0.132-0.074-0.276-0.119-0.422-0.119c-0.126-0.098-0.271-0.171-0.427-0.196l-0.13-0.019
	c-0.082-0.018-0.167-0.018-0.246-0.011c-0.073-0.036-0.157-0.071-0.243-0.087c0,0-0.026,0-0.053-0.007
	c-0.029-0.007-0.059-0.024-0.059-0.024c-0.179-0.068-0.379-0.072-0.564-0.025c-0.172-0.047-0.358-0.062-0.531-0.02
	c-0.105-0.01-0.209-0.01-0.322,0.013c-0.144-0.013-0.301,0.007-0.442,0.069c-0.146,0.021-0.287,0.072-0.405,0.16h-0.059
	l-0.133,0.032c-0.045,0.017-0.096,0.03-0.141,0.048l-0.117,0.058c-0.08,0.029-0.158,0.071-0.225,0.128
	c-0.105,0.03-0.207,0.072-0.299,0.133l-0.11,0.078c-0.163,0.106-0.276,0.271-0.341,0.45c-0.021,0.019-0.034,0.032-0.034,0.032
	c-0.05,0.059-0.095,0.128-0.135,0.186l-0.058,0.121c-0.007,0.012-0.012,0.024-0.018,0.037c-0.049,0.056-0.089,0.122-0.124,0.193
	c-0.095,0.094-0.167,0.206-0.214,0.345c0,0-0.021,0.087-0.031,0.112c-0.008,0.025-0.037,0.101-0.037,0.101
	c-0.039,0.105-0.058,0.222-0.058,0.327l0.007,0.136c0,0.012,0,0.021,0.005,0.034c-0.094,0.165-0.132,0.346-0.112,0.537
	c0.002,0.043,0.014,0.102,0.029,0.152c-0.034,0.107-0.046,0.221-0.037,0.34c0.01,0.092,0.031,0.179,0.068,0.266
	c0,0.029,0,0.049,0.005,0.076c0,0.047,0.009,0.084,0.017,0.118c-0.014,0.087-0.017,0.167-0.008,0.247
	c0.008,0.114,0.043,0.209,0.084,0.315c0.029,0.151,0.086,0.291,0.174,0.405c0.032,0.088,0.08,0.175,0.135,0.256l0.084,0.1
	c0,0,0,0.002,0.002,0.007c0.033,0.129,0.096,0.253,0.175,0.36l0.083,0.105c0.008,0.009,0.025,0.021,0.04,0.039
	c0.046,0.098,0.103,0.187,0.179,0.256l0.092,0.095c0.064,0.065,0.129,0.11,0.195,0.144c0.041,0.045,0.088,0.086,0.131,0.119
	c0.111,0.131,0.256,0.236,0.408,0.295c0.084,0.052,0.161,0.104,0.256,0.123c0.146,0.181,0.361,0.311,0.603,0.339
	c0.089,0.054,0.188,0.095,0.293,0.117c0,0,0.038,0.005,0.073,0.013c0.035,0.018,0.076,0.023,0.076,0.023
	c0.055,0.026,0.115,0.029,0.178,0.039c0,0,0.013,0,0.031,0.012c0.105,0.047,0.223,0.082,0.338,0.1
	c0.01,0.002,0.029,0.014,0.043,0.014l0.123,0.04c0.088,0.029,0.172,0.036,0.257,0.036c0.114,0.076,0.24,0.114,0.364,0.128
	c0.186,0.11,0.398,0.155,0.608,0.134c0.022,0,0.101,0.024,0.116,0.024c0.007,0.013,0.113,0.035,0.113,0.035
	c0.116,0.047,0.229,0.059,0.352,0.047l0.01,0.012c0.146,0.044,0.297,0.062,0.449,0.038c0.074,0.01,0.155,0.014,0.234,0.006
	c0.078,0.026,0.156,0.05,0.24,0.05c0,0,0.033,0,0.066,0.011c0.039,0,0.074,0.007,0.074,0.007c0.152,0.029,0.303,0.015,0.447-0.032
	c0.137,0.047,0.27,0.047,0.408,0.025c0.064,0.007,0.126,0.007,0.191,0c0.011,0,0.02,0.007,0.034,0.007l0.129,0.024
	c0.03,0,0.062,0.005,0.093,0.005h0.129c0.117,0,0.229-0.015,0.341-0.047c0.216,0.047,0.431,0.018,0.615-0.077
	c0.018,0.008,0.03,0.008,0.03,0.008c0.02,0.005,0.034,0.005,0.045,0.005h0.106c0.032,0.002,0.1,0.009,0.1,0.009
	c0.05,0.006,0.097,0.006,0.14,0.006l0.129-0.013c0.071-0.002,0.139-0.015,0.207-0.031c0.141,0,0.285-0.034,0.42-0.099
	c0.041-0.016,0.088-0.02,0.137-0.03c0.075,0,0.158,0,0.234-0.021c0.151,0.008,0.305-0.013,0.445-0.07
	c0.047-0.004,0.096-0.014,0.145-0.032l0.118-0.035c0.089-0.017,0.17-0.06,0.245-0.105c0.036-0.011,0.068-0.031,0.105-0.042
	c0.171,0.031,0.341,0,0.508-0.062c0.084-0.014,0.158-0.03,0.229-0.062h0.008h0.01c0.073-0.021,0.143-0.034,0.213-0.066
	c0,0,0.02-0.009,0.035-0.018c0.016,0,0.035-0.008,0.035-0.008c0.104-0.016,0.203-0.068,0.294-0.122
	c0.106-0.028,0.211-0.085,0.299-0.146c0.034-0.022,0.07-0.035,0.103-0.057c0,0,0.037-0.014,0.068-0.03
	c0.021-0.003,0.025-0.003,0.037-0.009c0.027,0,0.091-0.008,0.091-0.008c0.241-0.021,0.469-0.133,0.621-0.305
	c0.276-0.195,0.442-0.518,0.411-0.859v-0.022c-0.053-0.513-0.518-0.875-1.032-0.833l-0.111,0.014
	c-0.183,0.021-0.349,0.095-0.486,0.216h-0.04c-0.055,0.018-0.111,0.035-0.164,0.058l-0.117,0.047c-0.008,0.005-0.02,0.02-0.037,0.02
	c-0.068,0.018-0.128,0.035-0.181,0.066c-0.193,0.021-0.363,0.107-0.51,0.237c-0.041,0.003-0.079,0.019-0.114,0.033
	c-0.154-0.03-0.309-0.021-0.46,0.034c0,0-0.044,0.006-0.082,0.016c-0.04,0.014-0.089,0.022-0.089,0.022
	c-0.059,0.013-0.119,0.036-0.184,0.064c-0.117,0.015-0.232,0.065-0.343,0.129c-0.142-0.03-0.276-0.013-0.411,0.026
	c-0.111,0-0.211,0.018-0.312,0.067l-0.113,0.044c-0.004,0-0.012,0.008-0.012,0.008c-0.205-0.039-0.417,0-0.604,0.095h-0.007
	c-0.018,0-0.034,0-0.066-0.005c-0.032-0.007-0.085-0.019-0.085-0.019c-0.085-0.011-0.173-0.011-0.267,0L32.76,43.56
	c-0.061,0.007-0.118,0.022-0.182,0.042c-0.143-0.013-0.282-0.004-0.416,0.04l-0.023,0.013c-0.111-0.044-0.229-0.057-0.342-0.053
	c-0.157-0.035-0.309-0.035-0.457,0.005c-0.012-0.005-0.122-0.018-0.122-0.018c-0.118-0.029-0.24-0.022-0.36,0.005
	c-0.135-0.046-0.273-0.064-0.418-0.057c-0.156-0.043-0.324-0.06-0.492-0.023c-0.095-0.019-0.188-0.02-0.287-0.019h-0.007
	c-0.047-0.026-0.101-0.052-0.153-0.063l-0.121-0.029c-0.02-0.013-0.045-0.013-0.065-0.013c-0.041-0.019-0.082-0.041-0.128-0.058
	l-0.118-0.031c-0.076-0.033-0.155-0.045-0.24-0.058c-0.11-0.063-0.235-0.105-0.364-0.105l-0.113-0.009h-0.014
	c-0.131-0.063-0.273-0.097-0.411-0.097c-0.041-0.011-0.067-0.011-0.104-0.021l-0.127-0.018h-0.026h-0.036
	c-0.055-0.049-0.109-0.078-0.178-0.111c-0.126-0.121-0.296-0.221-0.484-0.261c-0.076-0.069-0.158-0.128-0.257-0.17
	c-0.054-0.081-0.126-0.153-0.206-0.212c-0.055-0.098-0.127-0.188-0.211-0.26c-0.021-0.043-0.052-0.086-0.086-0.13l-0.071-0.106
	c-0.022-0.027-0.042-0.051-0.063-0.074l-0.004-0.019c-0.023-0.049-0.043-0.104-0.072-0.157v-0.003
	c0.016-0.082,0.016-0.164,0.011-0.247c-0.003-0.039-0.011-0.074-0.022-0.121c0-0.027,0-0.053-0.006-0.092
	c-0.006-0.075-0.019-0.149-0.043-0.219c0-0.031,0.006-0.066,0-0.094c0,0,0-0.065-0.006-0.096c0.02-0.058,0.037-0.101,0.043-0.148
	l0.031-0.126c0.003-0.023,0.008-0.054,0.008-0.075l0.016-0.124c0.006-0.055,0.006-0.105,0-0.155c0.051-0.067,0.098-0.15,0.125-0.236
	c0.055-0.084,0.096-0.172,0.125-0.266c0-0.005,0.021-0.021,0.021-0.021c0.008-0.014,0.019-0.032,0.037-0.042
	c0.033-0.018,0.064-0.029,0.099-0.053l0.108-0.067c0.029-0.017,0.057-0.051,0.086-0.07c0.061-0.007,0.111-0.015,0.17-0.036
	l0.127-0.033c0.089-0.02,0.18-0.07,0.258-0.131h0.006c0.006,0,0.012,0.009,0.019,0.011l0.132,0.022
	c0.092,0.022,0.196,0.022,0.289,0.012c0.08,0.017,0.171,0.031,0.253,0.031l0.134,0.013c0.045,0,0.1-0.013,0.148-0.027
	c0.074,0.034,0.151,0.054,0.227,0.069c0.109,0.055,0.232,0.081,0.355,0.089c0.092,0.058,0.195,0.101,0.305,0.118
	c0,0,0.029,0,0.057,0.012c0.039,0.012,0.069,0.023,0.069,0.023c0.042,0.018,0.094,0.018,0.144,0.027
	c0.126,0.086,0.268,0.125,0.425,0.142c0.062,0.019,0.128,0.04,0.196,0.05c0.053,0.025,0.104,0.033,0.161,0.043l0.112,0.025
	c0.008,0,0.029,0,0.043,0.004c0,0,0.08,0.014,0.102,0.018c0.031,0.007,0.112,0.023,0.112,0.023c0.032,0.01,0.064,0.01,0.099,0.014
	c0.039,0.021,0.088,0.039,0.133,0.059l0.12,0.045c0.152,0.054,0.316,0.065,0.476,0.039c0.012,0,0.027,0,0.041,0.015
	c0.141,0.071,0.307,0.1,0.468,0.093h0.026c0.002,0,0.018,0.007,0.018,0.007h0.025l0.131,0.015c0.129,0.021,0.269,0.015,0.398-0.018
	c0.027,0,0.059,0,0.087-0.004c0.104,0.036,0.212,0.055,0.321,0.043c0.13,0,0.256-0.03,0.369-0.083
	c0.123,0.019,0.244,0.011,0.37-0.019c0.147,0,0.302-0.034,0.437-0.105c0.161,0.008,0.324-0.027,0.463-0.086h0.12
	c0.204,0.004,0.393-0.064,0.554-0.177c0.164-0.034,0.32-0.122,0.447-0.232c0.019-0.015,0.041-0.022,0.062-0.032
	c0,0,0.026-0.023,0.051-0.033c0.07-0.013,0.137-0.032,0.203-0.064c0.17-0.027,0.328-0.091,0.461-0.197
	c0.16-0.064,0.305-0.18,0.402-0.32c0.123-0.035,0.245-0.082,0.342-0.161c0.186-0.068,0.354-0.204,0.471-0.376
	c0,0,0.021-0.046,0.041-0.068c0.036-0.032,0.07-0.066,0.101-0.096c0.138-0.087,0.255-0.189,0.334-0.336c0,0,0.04-0.069,0.056-0.099
	c0.014-0.021,0.035-0.04,0.044-0.063c0.021-0.029,0.063-0.084,0.063-0.084c0.042-0.057,0.066-0.113,0.1-0.18l0.053-0.125
	c0.066-0.146,0.088-0.303,0.07-0.453C38.402,36.338,38.197,36.031,37.875,35.885"/>
<path fill="#FFFFFF" d="M10.293,36.523c0.459-0.234,1.021-0.048,1.26,0.417c0,0,0.008,0.016,0.01,0.027
	c0.004,0,0.004,0.001,0.004,0.009c0.134,0.055,0.239,0.146,0.333,0.268c0.042,0.025,0.093,0.068,0.126,0.109
	c0.114,0.043,0.215,0.107,0.299,0.189c0.015,0.011,0.035,0.017,0.035,0.017c0.082,0.036,0.155,0.083,0.223,0.128v0.002l0.008,0.006
	c0.086,0.043,0.162,0.09,0.232,0.143c0.113,0.021,0.229,0.055,0.336,0.117c0.096,0.021,0.191,0.058,0.282,0.115
	c0.105,0.017,0.212,0.051,0.308,0.113c0.033,0.003,0.07,0.016,0.07,0.016c0.105,0.012,0.217,0.062,0.308,0.11
	c0.032-0.001,0.067,0.011,0.067,0.011c0.044-0.004,0.084,0,0.127,0.007c0.146-0.019,0.299,0.018,0.439,0.071
	c0.154-0.03,0.307-0.013,0.453,0.037c0.097-0.023,0.193-0.027,0.287-0.025c0.07-0.012,0.135-0.016,0.201-0.012l0.123,0.002
	c0.08,0.004,0.156,0.015,0.23,0.033c0.062,0.01,0.121,0.008,0.172,0.017c0.032-0.005,0.066-0.013,0.098-0.016
	c0.058-0.026,0.123-0.046,0.182-0.063c0,0,0.025-0.002,0.034-0.002c0.169-0.115,0.37-0.167,0.569-0.147
	c0.01-0.009,0.028-0.021,0.028-0.021c0.128-0.055,0.264-0.084,0.405-0.085h0.006l0.004-0.007c0.014-0.002,0.035-0.002,0.039-0.004
	c0,0,0.031-0.006,0.056-0.016c0.053-0.033,0.112-0.062,0.177-0.085c0.109-0.071,0.228-0.122,0.357-0.147
	c0.128-0.08,0.27-0.134,0.415-0.141c0.12-0.105,0.259-0.186,0.413-0.221l0.131-0.027c0.08-0.021,0.164-0.026,0.244-0.023
	c0.07-0.039,0.154-0.079,0.238-0.102c0,0,0.025-0.001,0.052-0.01c0.028-0.008,0.056-0.026,0.056-0.026
	c0.176-0.077,0.375-0.094,0.562-0.058c0.17-0.057,0.354-0.083,0.531-0.049c0.104-0.018,0.209-0.022,0.321-0.006
	c0.144-0.021,0.302-0.011,0.446,0.043c0.146,0.012,0.291,0.057,0.414,0.139c0.019-0.002,0.037-0.004,0.059-0.004l0.131,0.023
	c0.049,0.014,0.1,0.027,0.145,0.042l0.121,0.05c0.08,0.025,0.161,0.062,0.232,0.113c0.107,0.027,0.21,0.063,0.305,0.117l0.116,0.07
	c0.167,0.099,0.292,0.256,0.364,0.432c0.021,0.018,0.035,0.03,0.035,0.03c0.055,0.058,0.104,0.123,0.146,0.179l0.064,0.115
	c0.011,0.012,0.013,0.025,0.021,0.037c0.053,0.053,0.096,0.116,0.133,0.186c0.102,0.088,0.18,0.197,0.234,0.333
	c0,0,0.027,0.085,0.039,0.11c0.008,0.025,0.043,0.1,0.043,0.1c0.043,0.102,0.068,0.217,0.074,0.322l0.002,0.136
	c0,0.013,0,0.021-0.004,0.034c0.103,0.159,0.15,0.338,0.144,0.529c0,0.043-0.011,0.104-0.021,0.154
	c0.039,0.105,0.057,0.219,0.056,0.337c-0.005,0.093-0.022,0.181-0.054,0.27c0.002,0.029,0.004,0.048,0,0.076
	c0.002,0.047-0.005,0.083-0.011,0.119c0.019,0.085,0.026,0.167,0.022,0.245c-0.002,0.115-0.031,0.213-0.064,0.32
	c-0.022,0.153-0.07,0.295-0.154,0.416c-0.026,0.089-0.067,0.178-0.119,0.264l-0.077,0.102c0,0,0,0.004-0.003,0.008
	c-0.025,0.131-0.082,0.258-0.154,0.369l-0.074,0.109c-0.009,0.011-0.026,0.023-0.039,0.043c-0.04,0.098-0.092,0.19-0.163,0.266
	l-0.088,0.1c-0.06,0.068-0.123,0.117-0.188,0.154c-0.036,0.047-0.083,0.09-0.123,0.127c-0.101,0.136-0.243,0.25-0.392,0.317
	c-0.08,0.055-0.154,0.11-0.248,0.138c-0.137,0.188-0.342,0.33-0.582,0.372c-0.086,0.058-0.182,0.104-0.285,0.132
	c0,0-0.039,0.006-0.072,0.02c-0.035,0.018-0.074,0.026-0.074,0.026c-0.055,0.028-0.115,0.034-0.176,0.046
	c0,0-0.014,0.002-0.029,0.016c-0.104,0.053-0.219,0.095-0.333,0.119c-0.009,0.002-0.028,0.016-0.042,0.017l-0.121,0.046
	c-0.088,0.035-0.17,0.047-0.254,0.052c-0.11,0.083-0.234,0.126-0.357,0.147c-0.178,0.121-0.389,0.178-0.6,0.168
	c-0.021,0.002-0.1,0.029-0.114,0.031c-0.007,0.013-0.111,0.042-0.111,0.042c-0.114,0.054-0.226,0.071-0.351,0.065l-0.007,0.013
	c-0.144,0.052-0.293,0.079-0.446,0.063c-0.074,0.014-0.154,0.022-0.233,0.02c-0.076,0.031-0.155,0.059-0.237,0.062
	c0,0-0.033,0.002-0.066,0.016c-0.039,0.002-0.072,0.01-0.072,0.01c-0.151,0.039-0.303,0.032-0.449-0.006
	c-0.135,0.054-0.268,0.062-0.406,0.049c-0.063,0.01-0.125,0.013-0.192,0.01c-0.011,0.002-0.017,0.008-0.032,0.009l-0.127,0.032
	c-0.031,0.002-0.062,0.009-0.092,0.01l-0.13,0.008c-0.116,0.007-0.229-0.003-0.343-0.027c-0.213,0.059-0.43,0.041-0.618-0.044
	c-0.018,0.01-0.03,0.011-0.03,0.011c-0.02,0.005-0.034,0.006-0.045,0.006c0,0-0.071,0.005-0.106,0.006
	c-0.032,0.006-0.099,0.016-0.099,0.016c-0.049,0.01-0.096,0.013-0.141,0.014l-0.129-0.006c-0.068,0.002-0.137-0.006-0.207-0.019
	c-0.141,0.007-0.286-0.018-0.424-0.075c-0.043-0.014-0.09-0.015-0.139-0.022c-0.075,0.005-0.16,0.01-0.236-0.008
	c-0.149,0.018-0.305,0.005-0.448-0.044c-0.047-0.002-0.095-0.009-0.146-0.025l-0.121-0.027c-0.09-0.011-0.173-0.051-0.249-0.092
	c-0.036-0.008-0.07-0.027-0.108-0.034c-0.168,0.04-0.342,0.019-0.51-0.035c-0.084-0.011-0.16-0.022-0.232-0.048h-0.006l-0.012,0.001
	c-0.074-0.021-0.145-0.028-0.216-0.056c0,0-0.021-0.008-0.036-0.014c-0.017,0-0.035-0.01-0.035-0.01
	c-0.105-0.008-0.209-0.055-0.303-0.103c-0.107-0.022-0.213-0.073-0.306-0.129c-0.035-0.021-0.073-0.03-0.106-0.052
	c0,0-0.035-0.012-0.069-0.025c-0.021-0.003-0.024-0.002-0.036-0.007c-0.028,0.001-0.092-0.003-0.092-0.003
	c-0.242-0.007-0.475-0.106-0.639-0.27c-0.287-0.18-0.47-0.49-0.458-0.834c-0.001-0.014-0.001-0.02-0.001-0.022
	c0.023-0.515,0.469-0.903,0.985-0.892L10.971,43c0.186,0.01,0.354,0.074,0.5,0.187c0.014-0.001,0.037-0.002,0.037-0.002
	c0.059,0.015,0.115,0.029,0.168,0.048l0.121,0.04c0.009,0.005,0.021,0.019,0.039,0.018c0.066,0.015,0.129,0.029,0.184,0.057
	c0.193,0.009,0.369,0.087,0.521,0.208c0.041,0,0.08,0.014,0.117,0.025c0.15-0.038,0.307-0.037,0.46,0.01
	c0,0,0.046,0.002,0.083,0.012c0.04,0.011,0.092,0.017,0.092,0.017c0.059,0.011,0.118,0.03,0.184,0.054
	c0.119,0.008,0.238,0.052,0.352,0.109c0.139-0.039,0.274-0.028,0.412,0.004c0.109-0.008,0.213,0.005,0.314,0.049l0.116,0.037
	c0.005,0,0.012,0.006,0.012,0.006c0.202-0.048,0.417-0.023,0.61,0.062h0.005c0.019-0.002,0.034-0.004,0.067-0.01
	c0.032-0.01,0.084-0.023,0.084-0.023c0.083-0.014,0.172-0.02,0.265-0.014l0.12,0.002c0.062,0.005,0.12,0.018,0.185,0.035
	c0.141-0.022,0.281-0.021,0.417,0.016l0.023,0.012c0.109-0.052,0.228-0.07,0.34-0.072c0.154-0.045,0.305-0.054,0.456-0.021
	c0.011-0.005,0.12-0.025,0.12-0.025c0.117-0.037,0.238-0.035,0.36-0.016c0.132-0.052,0.271-0.08,0.413-0.078
	c0.154-0.054,0.32-0.079,0.49-0.051c0.094-0.025,0.187-0.033,0.287-0.037h0.006c0.045-0.029,0.099-0.057,0.15-0.072l0.119-0.036
	c0.02-0.014,0.045-0.015,0.063-0.017c0.04-0.021,0.081-0.045,0.124-0.063l0.117-0.04c0.075-0.037,0.152-0.053,0.236-0.068
	c0.107-0.07,0.23-0.121,0.359-0.128l0.112-0.015c0.005,0,0.005,0,0.013-0.001c0.129-0.071,0.269-0.112,0.404-0.119
	c0.04-0.013,0.068-0.015,0.104-0.026l0.127-0.025c0.006,0,0.018-0.001,0.026-0.001c0,0,0.017-0.001,0.035-0.001
	c0.052-0.052,0.104-0.086,0.171-0.122c0.119-0.129,0.283-0.237,0.469-0.287c0.074-0.075,0.152-0.136,0.248-0.185
	c0.049-0.084,0.117-0.16,0.193-0.225c0.049-0.1,0.115-0.194,0.196-0.27c0.019-0.043,0.047-0.089,0.076-0.135l0.065-0.11
	c0.021-0.03,0.041-0.054,0.061-0.078l0.003-0.019c0.021-0.051,0.036-0.106,0.063-0.162v-0.002c-0.02-0.081-0.023-0.163-0.025-0.246
	c0.002-0.038,0.008-0.074,0.016-0.121c-0.002-0.029-0.002-0.054-0.001-0.094c0.003-0.076,0.012-0.148,0.032-0.219
	c-0.003-0.033-0.009-0.068-0.006-0.094c0,0-0.003-0.066,0.002-0.098c-0.022-0.055-0.043-0.1-0.053-0.146l-0.037-0.123
	c-0.006-0.023-0.01-0.054-0.012-0.072l-0.023-0.125c-0.01-0.055-0.012-0.105-0.009-0.155c-0.056-0.064-0.106-0.145-0.138-0.229
	c-0.062-0.081-0.107-0.167-0.141-0.259c-0.002-0.004-0.021-0.018-0.021-0.018c-0.011-0.016-0.022-0.033-0.041-0.041
	c-0.034-0.016-0.067-0.024-0.101-0.046l-0.113-0.063c-0.031-0.016-0.061-0.047-0.091-0.064c-0.06-0.004-0.111-0.008-0.173-0.025
	l-0.125-0.027c-0.09-0.014-0.184-0.06-0.266-0.115H21.14c-0.006,0.002-0.012,0.009-0.021,0.012l-0.129,0.031
	c-0.092,0.025-0.195,0.031-0.287,0.026c-0.08,0.022-0.17,0.041-0.252,0.046l-0.132,0.021c-0.046,0.002-0.101-0.007-0.151-0.019
	c-0.071,0.037-0.147,0.062-0.221,0.081c-0.108,0.062-0.227,0.095-0.35,0.108c-0.088,0.064-0.191,0.112-0.299,0.137
	c0,0-0.028,0.002-0.057,0.014c-0.036,0.015-0.066,0.027-0.066,0.027c-0.043,0.021-0.094,0.023-0.141,0.035
	c-0.122,0.093-0.262,0.141-0.418,0.166c-0.061,0.021-0.126,0.047-0.191,0.061c-0.053,0.029-0.104,0.039-0.16,0.053l-0.111,0.031
	c-0.008,0.001-0.027,0.002-0.043,0.006c0,0-0.077,0.019-0.098,0.023c-0.033,0.01-0.113,0.029-0.113,0.029
	c-0.03,0.012-0.064,0.015-0.096,0.021c-0.039,0.022-0.087,0.043-0.131,0.066l-0.115,0.052c-0.151,0.061-0.315,0.083-0.475,0.064
	c-0.011,0.001-0.027,0.002-0.041,0.018c-0.137,0.08-0.299,0.117-0.461,0.118c0,0-0.019,0.001-0.024,0.001
	c-0.003,0-0.019,0.01-0.019,0.01c-0.014,0.001-0.02,0.001-0.025,0.002l-0.131,0.021c-0.127,0.027-0.266,0.029-0.398,0.004
	c-0.027,0.002-0.059,0.004-0.086,0c-0.103,0.043-0.209,0.068-0.319,0.062c-0.129,0.007-0.257-0.016-0.372-0.062
	c-0.121,0.026-0.243,0.025-0.372,0.002c-0.147,0.008-0.304-0.017-0.44-0.08c-0.162,0.018-0.324-0.008-0.468-0.06
	c-0.03,0.003-0.12,0.007-0.12,0.007c-0.203,0.016-0.396-0.041-0.562-0.145c-0.166-0.024-0.326-0.104-0.459-0.207
	c-0.02-0.013-0.042-0.021-0.065-0.029c0,0-0.026-0.023-0.053-0.029c-0.071-0.008-0.138-0.024-0.205-0.053
	c-0.17-0.018-0.333-0.072-0.472-0.171c-0.164-0.056-0.313-0.163-0.42-0.298c-0.125-0.029-0.25-0.067-0.351-0.141
	c-0.188-0.06-0.366-0.184-0.491-0.349c0,0-0.024-0.045-0.045-0.066c-0.038-0.03-0.073-0.062-0.105-0.09
	c-0.144-0.079-0.267-0.176-0.354-0.317c0,0-0.042-0.066-0.06-0.094c-0.015-0.021-0.038-0.039-0.047-0.062
	c-0.023-0.027-0.069-0.08-0.069-0.08c-0.047-0.055-0.074-0.108-0.109-0.174l-0.061-0.122c-0.074-0.142-0.104-0.296-0.096-0.446
	C9.791,37.004,9.979,36.688,10.293,36.523"/>
<path fill="#FFFFFF" d="M10.58,64.577c0,0-0.002-0.079-0.004-0.116c0-0.01-0.004-0.01-0.007-0.023l-0.015-0.121
	c0-0.043-0.016-0.078-0.023-0.119c0.006-0.014,0.012-0.021,0.021-0.033l0.058-0.139c0.052-0.116,0.069-0.24,0.054-0.362
	c0-0.026-0.004-0.052-0.007-0.071l-0.034-0.134c-0.031-0.181-0.131-0.331-0.266-0.427c0.008-0.02,0.019-0.041,0.023-0.072
	l0.019-0.129c0.012-0.066,0.013-0.129,0.006-0.193c-0.011-0.115-0.053-0.234-0.122-0.329c0.078-0.114,0.119-0.255,0.111-0.399
	v-0.127c-0.001-0.02-0.004-0.029-0.004-0.049c-0.002-0.02-0.01-0.051-0.016-0.079c0.008-0.016,0.018-0.035,0.023-0.052
	c0.024-0.087,0.027-0.171,0.021-0.256c-0.009-0.062-0.025-0.108-0.038-0.158c0.018-0.073,0.024-0.146,0.015-0.232
	c0,0,0-0.018-0.006-0.022c-0.014-0.148-0.073-0.269-0.161-0.374c0.052-0.106,0.076-0.228,0.059-0.364l-0.012-0.145
	c-0.011-0.087-0.041-0.177-0.071-0.247l0.001-0.015c-0.001-0.009-0.001-0.024-0.001-0.026c-0.011-0.072-0.037-0.155-0.064-0.224
	c0.051-0.111,0.072-0.245,0.061-0.375c-0.001-0.011-0.002-0.026-0.006-0.041c-0.018-0.116-0.062-0.221-0.124-0.298
	c-0.001-0.037-0.001-0.061-0.001-0.092c-0.011-0.104-0.049-0.201-0.104-0.299c0.023-0.059,0.03-0.117,0.04-0.191v-0.142
	c0.004-0.024,0.004-0.061,0-0.097c-0.014-0.094-0.034-0.182-0.084-0.27c0-0.01,0.009-0.024,0.009-0.041
	c0.069-0.128,0.105-0.274,0.087-0.418c0-0.028,0-0.039-0.008-0.067c-0.018-0.101-0.062-0.196-0.113-0.277
	c0.047-0.12,0.078-0.24,0.068-0.375c-0.005-0.034-0.011-0.062-0.011-0.079c-0.019-0.076-0.035-0.129-0.065-0.185V56.27
	c-0.028-0.224-0.143-0.416-0.327-0.532c0.185-0.125,0.281-0.368,0.257-0.606v-0.025c-0.023-0.193-0.123-0.36-0.271-0.479
	c-0.01-0.027-0.029-0.051-0.045-0.087c-0.018-0.093-0.055-0.199-0.11-0.29c0.03-0.079,0.048-0.162,0.06-0.242
	c0.064-0.114,0.096-0.259,0.078-0.402c0.009-0.025,0.021-0.043,0.026-0.067c0.019-0.079,0.026-0.159,0.018-0.237
	c-0.007-0.027-0.013-0.062-0.019-0.094c0.033-0.079,0.053-0.167,0.051-0.246c0-0.031,0-0.057,0-0.078
	c-0.021-0.143-0.073-0.282-0.161-0.395c0.029-0.088,0.044-0.191,0.032-0.293c0-0.018,0-0.029,0-0.042
	c-0.018-0.099-0.059-0.204-0.109-0.286c0-0.027,0-0.043-0.01-0.081c0-0.015,0-0.021,0-0.034v-0.01
	c0.053-0.115,0.076-0.24,0.066-0.379C9.42,51.34,9.42,51.322,9.416,51.303c-0.027-0.126-0.084-0.238-0.16-0.334
	c0.07-0.121,0.101-0.27,0.092-0.426c-0.006-0.03-0.008-0.08-0.023-0.117c-0.021-0.08-0.051-0.146-0.102-0.204
	c0.053-0.112,0.063-0.228,0.055-0.354c0-0.049-0.012-0.094-0.032-0.15l-0.038-0.124c-0.038-0.118-0.1-0.212-0.179-0.29
	c-0.001-0.024,0.001-0.051-0.003-0.088c0-0.005,0-0.019-0.004-0.042c0,0,0.004,0.001,0.004-0.009c0,0,0.008-0.038,0.014-0.079
	c0.016-0.046,0.033-0.094,0.033-0.094c0.043-0.099,0.053-0.211,0.044-0.312c-0.015-0.093-0.038-0.179-0.071-0.257
	c-0.017-0.029-0.029-0.051-0.051-0.069c0-0.005,0.008-0.019,0.008-0.025c0-0.015,0-0.038-0.008-0.062
	c-0.002-0.095-0.035-0.188-0.076-0.275c0.008-0.058,0.008-0.111,0-0.176c0-0.011-0.002-0.029-0.002-0.035
	c0-0.023-0.005-0.03-0.01-0.053c0.011-0.046,0.028-0.1,0.028-0.1c0.022-0.089,0.035-0.174,0.022-0.271
	c-0.008-0.082-0.028-0.156-0.058-0.218c0.017-0.077,0.021-0.161,0.013-0.229c-0.007-0.08-0.027-0.166-0.057-0.23l-0.067-0.15
	c-0.018-0.037-0.035-0.07-0.062-0.1v-0.016c-0.014-0.078-0.043-0.148-0.082-0.219c0.055-0.078,0.096-0.172,0.113-0.267
	c0.008-0.065,0.012-0.135,0.002-0.205c-0.004-0.105-0.042-0.21-0.094-0.299c-0.018-0.112-0.053-0.216-0.115-0.31
	c0.115-0.124,0.19-0.288,0.193-0.48c0-0.025-0.002-0.059-0.002-0.082c-0.013-0.117-0.055-0.225-0.112-0.323
	c0.022-0.079,0.036-0.163,0.03-0.253c-0.007-0.034-0.016-0.081-0.029-0.123c-0.041-0.158-0.143-0.298-0.268-0.386v-0.04
	c-0.015-0.105-0.045-0.215-0.1-0.302c0.02-0.075,0.033-0.156,0.029-0.247V42.86c-0.006-0.046-0.016-0.098-0.029-0.138
	c0.155-0.127,0.246-0.341,0.234-0.566c-0.002-0.012,0-0.021,0-0.029c-0.01-0.072-0.033-0.149-0.062-0.211
	c-0.002-0.025,0.004-0.044,0.002-0.062c-0.004-0.044-0.013-0.076-0.021-0.125c-0.045-0.18-0.162-0.32-0.31-0.418
	c-0.005-0.019-0.008-0.051-0.008-0.051c-0.015-0.062-0.033-0.12-0.059-0.164c0-0.018,0.003-0.039-0.001-0.047V41.04
	c0.066-0.071,0.121-0.146,0.152-0.24l0.057-0.141c0.043-0.108,0.053-0.22,0.043-0.333c-0.006-0.072-0.02-0.138-0.049-0.212
	c-0.012-0.017-0.026-0.04-0.039-0.063c0.002-0.049,0.001-0.086,0.001-0.125c-0.019-0.14-0.065-0.275-0.159-0.379
	c-0.008-0.052-0.029-0.094-0.046-0.13c0.012-0.058,0.012-0.109,0.012-0.151c0.06-0.113,0.087-0.246,0.067-0.383
	c0-0.01-0.002-0.02-0.002-0.02C8.068,38.772,8.041,38.69,8,38.62c0-0.007,0-0.024,0-0.033c-0.006-0.077-0.033-0.154-0.061-0.217
	c0-0.03,0-0.05,0-0.076c-0.01-0.05-0.012-0.096-0.023-0.14c-0.028-0.074-0.063-0.148-0.115-0.209c0.02-0.08,0.029-0.154,0.021-0.234
	c0.001-0.004-0.005-0.002-0.005-0.002c-0.003-0.078-0.03-0.161-0.062-0.227c0.093-0.125-0.208-0.529-0.33-0.518
	c0,0-0.131-0.201-0.592-0.057c0,0-0.568,0.065-0.4,0.451c0.049,0.117-0.061,0.232-0.049,0.346c0.006,0.037,0.015,0.082,0.023,0.126
	c-0.006,0.057-0.006,0.109,0,0.166c-0.002,0.008,0,0.025,0.003,0.026c0,0,0.009,0.061,0.018,0.115
	c0.001,0.036,0.002,0.101,0.002,0.101c0,0.019,0.003,0.043,0.003,0.054c0.014,0.116,0.047,0.22,0.109,0.319
	c-0.024,0.087-0.032,0.175-0.025,0.271c0,0.013,0,0.024,0.004,0.031c0.016,0.087,0.035,0.161,0.071,0.234
	c-0.111,0.139-0.17,0.321-0.151,0.512c0.002,0.003,0.002,0.014,0.008,0.027c0.023,0.227,0.164,0.412,0.338,0.515
	c0.002,0.03,0.002,0.064,0.002,0.094c-0.057,0.089-0.096,0.182-0.104,0.28c-0.016,0.068-0.018,0.127-0.014,0.186
	c0.009,0.067,0.025,0.127,0.045,0.184v0.014c-0.047,0.109-0.078,0.233-0.062,0.362c0,0.009,0,0.021,0,0.038
	c0.014,0.068,0.035,0.125,0.066,0.193c-0.04,0.102-0.061,0.22-0.047,0.334c0.007,0.027,0.012,0.076,0.02,0.117
	c0.029,0.117,0.093,0.221,0.175,0.309c-0.022,0.081-0.035,0.174-0.023,0.264c0.001,0.016,0.005,0.033,0.008,0.045
	c0,0,0.01,0.064,0.013,0.105c0.002,0.047,0.003,0.102,0.003,0.102c0,0.014,0.007,0.021,0.007,0.028
	c0.008,0.018,0.01,0.042,0.016,0.066l-0.031,0.138c-0.018,0.078-0.02,0.16-0.016,0.229c0.002,0.017,0.004,0.03,0.012,0.062
	l0.02,0.139c0.018,0.099,0.061,0.193,0.121,0.272c-0.023,0.073-0.028,0.163-0.02,0.239C6.98,44.076,7,44.145,7.025,44.216
	c0,0,0.008,0,0.008,0.007c-0.016,0.062-0.02,0.125-0.014,0.201v0.006c0.01,0.092,0.032,0.164,0.065,0.241
	c0.001,0.013-0.001,0.022-0.001,0.022c-0.003,0.047-0.002,0.092,0,0.127c-0.04,0.104-0.062,0.227-0.049,0.339
	c0,0.012,0,0.015,0.004,0.034c0.021,0.156,0.1,0.291,0.199,0.399c-0.061,0.106-0.101,0.22-0.107,0.343v0.149
	c0,0.031,0.001,0.069,0.001,0.101c0.003,0.04,0.013,0.074,0.022,0.114c-0.012,0.056-0.011,0.124-0.008,0.183
	c0.006,0.018,0.006,0.02,0.006,0.029c0.02,0.143,0.082,0.279,0.167,0.375c0.007,0.024,0.018,0.053,0.028,0.071
	c-0.025,0.082-0.031,0.175-0.023,0.251c0,0.037,0.008,0.071,0.019,0.111c0,0,0.012,0.047,0.021,0.09
	c-0.064,0.121-0.1,0.264-0.082,0.415c0.014,0.14,0.068,0.275,0.149,0.38c0.019,0.07,0.035,0.124,0.067,0.188
	c-0.033,0.103-0.051,0.202-0.038,0.303c0.005,0.062,0.012,0.106,0.03,0.154c0.037,0.116,0.109,0.223,0.191,0.31
	c0,0.01-0.005,0.031,0,0.06c0,0.007,0,0.018,0.002,0.029c-0.001,0.018-0.01,0.036-0.01,0.05L7.65,49.438
	c-0.01,0.063-0.009,0.134-0.002,0.194c0.01,0.138,0.062,0.251,0.143,0.362c-0.006,0.009-0.013,0.017-0.013,0.017
	c-0.161,0.138-0.233,0.364-0.216,0.58c0.006,0.04,0.012,0.081,0.026,0.128c0.021,0.064,0.042,0.124,0.077,0.18
	c-0.013,0.066-0.031,0.145-0.021,0.222v0.011c0.02,0.182,0.1,0.34,0.23,0.452c0.031,0.083,0.084,0.165,0.145,0.238
	c-0.057,0.113-0.083,0.252-0.073,0.374c0.003,0.029,0.005,0.049,0.006,0.074c-0.11,0.139-0.169,0.319-0.147,0.507
	c0.001,0.006,0,0.023,0.01,0.031c0.016,0.162,0.088,0.301,0.197,0.403c-0.059,0.115-0.084,0.244-0.078,0.386
	c-0.002,0.004,0,0.006,0,0.009c0,0.01,0.001,0.013,0.001,0.021c-0.021,0.068-0.03,0.15-0.026,0.229c0,0.012,0.004,0.034,0.004,0.039
	c0.016,0.135,0.064,0.258,0.14,0.365c0,0.01-0.003,0.033-0.003,0.033c-0.006,0.043-0.01,0.105-0.002,0.148
	c0.01,0.094,0.039,0.189,0.088,0.277c-0.012,0.021,0.001,0.058,0.001,0.086c-0.055,0.105-0.073,0.224-0.056,0.354
	c0.001,0.008,0.004,0.029,0.004,0.039c0.01,0.099,0.047,0.191,0.097,0.268c-0.058,0.107-0.089,0.226-0.088,0.353
	c0,0.019,0,0.039,0.001,0.053c0.018,0.159,0.086,0.323,0.203,0.427c0,0,0.006,0.007,0.012,0.007
	c-0.023,0.093-0.031,0.176-0.027,0.27v0.011c0.021,0.149,0.08,0.278,0.162,0.377c-0.037,0.106-0.055,0.215-0.043,0.328
	c0.004,0.02,0.008,0.051,0.016,0.084c0.021,0.098,0.062,0.188,0.12,0.272c-0.053,0.111-0.079,0.24-0.069,0.369
	c0.008,0.021,0.008,0.058,0.017,0.081c0.006,0.06,0.03,0.101,0.046,0.143c-0.004,0.039-0.008,0.074-0.011,0.111
	c0,0.029,0.001,0.062,0.006,0.104c0.005,0.04,0.009,0.087,0.026,0.135c-0.074,0.112-0.115,0.257-0.109,0.406l0.001,0.153
	c0.003,0.004,0.005,0.025,0.005,0.038c0.02,0.181,0.098,0.348,0.229,0.461c-0.001,0.012,0,0.037-0.001,0.044
	c-0.059,0.115-0.081,0.242-0.061,0.369v0.017c0,0.017,0.006,0.038,0.006,0.068c-0.029,0.078-0.05,0.162-0.056,0.247
	c0,0.034,0,0.068,0.009,0.107c0.003,0.064,0.021,0.135,0.049,0.197c-0.011,0.036-0.017,0.08-0.016,0.123v0.129
	c0.002,0.019,0.004,0.041,0.002,0.055c0.021,0.175,0.094,0.322,0.213,0.438c-0.011,0.042-0.012,0.083-0.012,0.117l0.001,0.135
	c0,0.024,0,0.047,0.001,0.064c0.016,0.119,0.053,0.227,0.11,0.317c-0.005,0.011-0.005,0.034-0.005,0.034
	c-0.007,0.049-0.006,0.103-0.006,0.157c0.005,0.03,0.01,0.054,0.014,0.072c-0.008,0.059-0.01,0.122-0.006,0.19l0.016,0.126
	c0.005,0.054,0.011,0.101,0.027,0.147c-0.047,0.098-0.078,0.217-0.075,0.33c0,0.026,0,0.033,0.005,0.045
	c0,0.023,0.002,0.047,0.013,0.063c-0.017,0.062-0.021,0.138-0.017,0.202c0.008,0.088,0.035,0.171,0.07,0.252
	c0,0,0.039,0.074,0.049,0.098c-0.073,0.135-0.104,0.285-0.09,0.436c0.005,0.027,0.005,0.053,0.012,0.084
	c0.011,0.064,0.04,0.121,0.074,0.184c-0.023,0.088-0.031,0.168-0.027,0.265c0,0-0.08,0.354,0.855,0.24
	C9.832,65.001,10.742,65.072,10.58,64.577"/>
<path fill="#EFEA3C" d="M41.16,12.094c-1.877,0.422-3.93,0.561-6.799,0.224l0.173-1.267c2.442,0.287,4.001,0.205,5.695-0.056
	c0.308-0.047,0.688-0.126,0.968-0.194c0.79-6.086-2.656-9.945-7.513-10.682c-4.857-0.734-9.308,1.929-10.354,7.977
	c0.246,0.146,0.587,0.336,0.865,0.472c1.543,0.75,3.004,1.306,5.422,1.754l-0.195,1.264c-2.839-0.528-4.756-1.284-6.424-2.241
	c-0.496,0.453-1.809,0.94-1.876,1.376c-0.327,2.16,4.366,3.56,10.282,4.455c5.914,0.896,10.812,0.948,11.14-1.211
	C42.609,13.527,41.5,12.674,41.16,12.094z M33.387,12.195l-0.863-0.131l-0.133,0.865l-1.266-0.185l0.131-0.865l-0.865-0.13
	l0.184-1.267l0.865,0.13l0.131-0.864l1.268,0.184l-0.132,0.866l0.864,0.131L33.387,12.195z"/>
</svg>
