<?xml version="1.0" encoding="utf-8"?>
<!-- Generator: Adobe Illustrator 16.0.0, SVG Export Plug-In . SVG Version: 6.00 Build 0)  -->
<!DOCTYPE svg PUBLIC "-//W3C//DTD SVG 1.1//EN" "http://www.w3.org/Graphics/SVG/1.1/DTD/svg11.dtd">
<svg version="1.1" id="レイヤー_1" xmlns="http://www.w3.org/2000/svg" xmlns:xlink="http://www.w3.org/1999/xlink" x="0px"
	 y="0px" width="100px" height="100px" viewBox="0 0 100 100" enable-background="new 0 0 100 100" xml:space="preserve">
<circle fill="#CCCCCC" cx="50" cy="50" r="50"/>
<path d="M37.713,34.826c0.113,1.228-0.784,2.328-2.017,2.436c-1.226,0.113-2.328-0.793-2.436-2.02
	c-0.112-1.237,0.788-2.327,2.018-2.44C36.509,32.689,37.601,33.592,37.713,34.826"/>
<path d="M61.212,32.637c0.119,1.234,1.208,2.137,2.444,2.027c1.226-0.117,2.129-1.205,2.016-2.445
	c-0.115-1.222-1.208-2.131-2.438-2.014C62.002,30.312,61.105,31.41,61.212,32.637"/>
<path d="M75.373,87.001c-0.135,0.047-0.247-0.099-0.373-0.099c-0.042,0.002-0.091,0.01-0.141,0.014
	c-0.06-0.014-0.121-0.021-0.18-0.02c-0.011-0.002-0.027-0.002-0.031,0c0,0-0.066,0.006-0.127,0.01
	c-0.039-0.004-0.107-0.012-0.107-0.012c-0.025,0-0.049,0-0.062,0c-0.127,0-0.244,0.026-0.359,0.092
	c-0.094-0.038-0.188-0.057-0.293-0.062c-0.014,0-0.027-0.001-0.035,0.003c-0.098,0.009-0.178,0.021-0.262,0.058
	c-0.141-0.151-0.336-0.24-0.547-0.24c0,0.002-0.014,0.002-0.028,0.008c-0.25,0.002-0.47,0.148-0.599,0.344
	c-0.035-0.002-0.071-0.007-0.104-0.01c-0.091-0.078-0.188-0.135-0.295-0.156c-0.071-0.025-0.137-0.035-0.201-0.037
	c-0.076,0.004-0.143,0.017-0.207,0.032c-0.008,0-0.008,0-0.014,0c-0.115-0.069-0.246-0.122-0.389-0.118
	c-0.01-0.002-0.021-0.002-0.041-0.002c-0.076,0.006-0.143,0.025-0.219,0.055c-0.109-0.059-0.236-0.098-0.359-0.096
	c-0.033,0.006-0.086,0.006-0.133,0.012c-0.133,0.021-0.252,0.086-0.357,0.171c-0.084-0.033-0.184-0.061-0.284-0.058
	c-0.019,0-0.037,0.002-0.049,0.006c0,0-0.07,0.002-0.118,0.002c-0.049-0.002-0.113-0.008-0.113-0.008
	c-0.014-0.002-0.021,0.006-0.029,0.006c-0.02,0.006-0.047,0.004-0.075,0.01l-0.147-0.055c-0.084-0.029-0.171-0.041-0.248-0.045
	c-0.02,0.002-0.033,0-0.068,0.008l-0.154,0.008c-0.109,0.011-0.219,0.049-0.311,0.111c-0.078-0.035-0.176-0.053-0.26-0.052
	c-0.08-0.003-0.158,0.015-0.238,0.035c0,0,0,0.01-0.01,0.009c-0.064-0.027-0.132-0.039-0.218-0.041l-0.005-0.002
	c-0.102,0.004-0.184,0.021-0.271,0.053c-0.017-0.002-0.024-0.004-0.024-0.004c-0.054-0.008-0.103-0.014-0.14-0.017
	c-0.108-0.06-0.24-0.099-0.367-0.097c-0.014,0-0.014-0.002-0.035,0.002c-0.176,0.007-0.33,0.084-0.457,0.189
	c-0.112-0.084-0.232-0.144-0.365-0.167l-0.164-0.018c-0.033-0.005-0.074-0.009-0.111-0.013c-0.043,0-0.08,0.008-0.125,0.015
	c-0.061-0.021-0.135-0.025-0.199-0.029c-0.021,0.005-0.021,0.005-0.033,0.004c-0.157,0.007-0.312,0.064-0.426,0.156
	c-0.031,0.006-0.061,0.017-0.081,0.022c-0.089-0.037-0.19-0.056-0.273-0.056c-0.04-0.005-0.079,0-0.124,0.011
	c0,0-0.052,0.008-0.101,0.015c-0.126-0.091-0.277-0.148-0.444-0.146c-0.154,0-0.309,0.05-0.432,0.136
	c-0.078,0.014-0.139,0.026-0.215,0.058c-0.105-0.052-0.215-0.085-0.325-0.079c-0.067-0.003-0.118,0-0.173,0.018
	c-0.129,0.031-0.254,0.104-0.356,0.191c-0.011-0.001-0.038-0.008-0.067-0.006c-0.008-0.002-0.018-0.002-0.031,0
	c-0.02-0.006-0.039-0.02-0.055-0.02l-0.147-0.043c-0.067-0.021-0.147-0.026-0.212-0.023c-0.151-0.006-0.281,0.045-0.413,0.128
	c-0.007-0.009-0.017-0.019-0.017-0.019c-0.133-0.209-0.375-0.318-0.609-0.324c-0.046,0.002-0.09,0.004-0.143,0.015
	c-0.074,0.019-0.144,0.039-0.207,0.073c-0.07-0.023-0.154-0.055-0.239-0.053h-0.015c-0.199,0.004-0.379,0.08-0.518,0.223
	c-0.094,0.029-0.188,0.083-0.273,0.146c-0.121-0.082-0.268-0.13-0.404-0.133c-0.03,0-0.053,0-0.077-0.002
	c-0.144-0.146-0.334-0.236-0.542-0.234c-0.008,0-0.023,0-0.035,0.008c-0.178,0.002-0.337,0.07-0.463,0.191
	c-0.119-0.087-0.255-0.132-0.41-0.142c-0.005-0.002-0.007-0.002-0.012-0.002c-0.01,0-0.014,0.002-0.023,0
	c-0.07-0.03-0.16-0.054-0.246-0.058c-0.014-0.002-0.039,0.002-0.043,0.002c-0.148,0-0.287,0.045-0.414,0.123
	c-0.012-0.002-0.037-0.008-0.037-0.008c-0.047-0.012-0.115-0.025-0.164-0.02c-0.101,0-0.211,0.025-0.311,0.072
	c-0.021-0.017-0.062-0.006-0.095-0.008c-0.109-0.078-0.236-0.113-0.38-0.107c-0.008-0.002-0.032,0-0.045-0.002
	c-0.106,0.004-0.211,0.037-0.303,0.086c-0.109-0.08-0.236-0.133-0.375-0.146c-0.02-0.001-0.041-0.003-0.058-0.004
	c-0.177,0.003-0.36,0.064-0.488,0.194c0,0-0.007,0.007-0.008,0.012c-0.099-0.038-0.188-0.058-0.292-0.063h-0.012
	c-0.166,0.009-0.314,0.062-0.43,0.15c-0.111-0.061-0.229-0.092-0.355-0.092c-0.021,0.004-0.057,0.005-0.092,0.011
	c-0.109,0.013-0.211,0.05-0.309,0.11c-0.119-0.075-0.256-0.123-0.396-0.125c-0.025,0.008-0.065,0.004-0.092,0.012
	c-0.067,0-0.112,0.021-0.162,0.035c-0.041-0.008-0.078-0.016-0.12-0.023c-0.032-0.004-0.067-0.006-0.115-0.006
	c-0.042,0-0.094,0-0.149,0.017c-0.115-0.103-0.268-0.169-0.434-0.179l-0.166-0.017c-0.005,0.005-0.025,0.003-0.042,0.002
	c-0.2,0.003-0.39,0.077-0.526,0.22c-0.013-0.002-0.041-0.004-0.05-0.006c-0.118-0.082-0.256-0.123-0.396-0.115h-0.019
	c-0.018-0.002-0.045,0.002-0.076,0c-0.082-0.047-0.173-0.08-0.262-0.098c-0.039-0.003-0.078-0.008-0.12-0.002
	c-0.073-0.004-0.15,0.01-0.221,0.036c-0.04-0.019-0.085-0.028-0.133-0.032l-0.142-0.015c-0.021-0.001-0.046-0.003-0.062-0.005
	c-0.191,0.004-0.361,0.074-0.499,0.203c-0.043-0.019-0.089-0.025-0.127-0.027l-0.147-0.014c-0.025-0.002-0.05-0.006-0.07-0.008
	c-0.131,0.006-0.253,0.037-0.358,0.096c-0.01-0.006-0.036-0.008-0.036-0.008c-0.053-0.016-0.113-0.021-0.172-0.026
	c-0.033,0.003-0.06,0.005-0.081,0.007c-0.062-0.016-0.132-0.027-0.206-0.029l-0.141,0.006c-0.061-0.002-0.111,0.002-0.164,0.017
	c-0.102-0.069-0.23-0.119-0.354-0.13c-0.029-0.004-0.036-0.004-0.05,0c-0.022-0.004-0.049,0-0.069,0.009
	c-0.066-0.026-0.147-0.041-0.221-0.041c-0.096-0.003-0.189,0.021-0.281,0.056c0,0-0.086,0.034-0.112,0.045
	c-0.141-0.104-0.301-0.156-0.466-0.156c-0.032,0-0.059,0-0.094,0.002c-0.071,0.007-0.136,0.033-0.211,0.068
	c-0.091-0.041-0.178-0.058-0.284-0.062c-0.149,0.007-0.29,0.054-0.406,0.133c-0.055-0.009-0.112-0.016-0.167-0.016
	c-0.04-0.002-0.092,0.01-0.129,0.016c-0.134-0.091-0.283-0.146-0.447-0.15c-0.019,0.004-0.042,0.002-0.073,0.01
	c-0.18,0.013-0.356,0.104-0.478,0.236c-0.021,0.008-0.044,0.004-0.054,0.012c-0.081-0.053-0.175-0.099-0.262-0.117
	c-0.062-0.01-0.107-0.014-0.155-0.014c-0.147-0.004-0.279,0.039-0.408,0.121c-0.063,0.012-0.126,0.026-0.197,0.059
	c-0.019,0.008-0.04,0.018-0.056,0.025c-0.107-0.064-0.246-0.104-0.37-0.104c-0.01,0.003-0.038,0.005-0.054,0.005
	c-0.042,0-0.087,0.007-0.136,0.021c0,0-0.017-0.004-0.028-0.006c-0.135-0.146-0.325-0.224-0.527-0.226
	c-0.021-0.001-0.05,0.01-0.087,0.007l-0.145,0.023c-0.112,0.017-0.226,0.054-0.312,0.117c-0.014-0.002-0.025-0.008-0.049-0.013
	c-0.104-0.079-0.246-0.136-0.401-0.147l-0.135-0.004c-0.025-0.002-0.034-0.002-0.042,0c-0.132-0.002-0.263,0.037-0.371,0.097
	c-0.021-0.017-0.061-0.029-0.086-0.038c-0.052-0.005-0.098-0.011-0.15-0.016c-0.113,0.005-0.219,0.029-0.324,0.08
	c-0.09-0.034-0.176-0.056-0.256-0.061c-0.004,0-0.011,0-0.014,0c-0.13,0.002-0.266,0.036-0.38,0.107
	c-0.038-0.016-0.094-0.032-0.155-0.039c-0.019,0-0.047-0.004-0.07,0.006c-0.101-0.006-0.181,0.016-0.272,0.055
	c-0.047-0.027-0.107-0.054-0.166-0.062c-0.066-0.049-0.131-0.084-0.204-0.108c-0.073-0.024-0.162-0.037-0.225-0.039
	c-0.127-0.005-0.267,0.042-0.377,0.107c-0.059-0.027-0.108-0.042-0.165-0.048c-0.033-0.002-0.057-0.004-0.085-0.004
	c-0.121-0.063-0.242-0.109-0.373-0.104c-0.009-0.001-0.027-0.002-0.027-0.002c-0.169,0.006-0.33,0.072-0.453,0.182
	c-0.014-0.006-0.04-0.027-0.053-0.031c-0.08-0.021-0.156-0.037-0.242-0.035c-0.026,0-0.061,0.007-0.083,0.007
	c-0.1-0.042-0.203-0.062-0.297-0.063c-0.021-0.002-0.03,0.004-0.046,0.002c-0.094-0.048-0.207-0.072-0.317-0.078
	c-0.016-0.002-0.016-0.002-0.027,0.002c-0.186,0.012-0.366,0.082-0.5,0.215c-0.042,0.012-0.078,0.033-0.135,0.062l-0.11,0.075
	c-0.347,0.221-0.455,0.677-0.233,1.025c0.029,0.048,0.06,0.08,0.091,0.115c0.078,0.31,0.341,0.543,0.661,0.571
	c0.026,0.003,0.043-0.006,0.063-0.005c0.134,0.004,0.253-0.035,0.359-0.1c0.021,0.002,0.04,0.006,0.056,0.006
	c0.006,0,0.021,0,0.042-0.004c0.083-0.006,0.159-0.023,0.229-0.055c0.022,0.017,0.051,0.036,0.051,0.036
	c0.127,0.093,0.275,0.134,0.43,0.134c0.056,0.002,0.113-0.007,0.171-0.023c0.065,0.018,0.13,0.037,0.201,0.029
	c0.031,0.002,0.057,0,0.084-0.004c0.084-0.009,0.153-0.033,0.236-0.064c0.03,0.014,0.065,0.027,0.082,0.041
	c0.083,0.027,0.161,0.043,0.256,0.043c0.123-0.002,0.243-0.031,0.345-0.098c0.04,0.022,0.093,0.035,0.138,0.045
	c0.007,0.005,0.014,0.016,0.017,0.019c0.113,0.06,0.258,0.099,0.366,0.099c0.079,0,0.157-0.014,0.232-0.037l0.12-0.037
	c0.025-0.014,0.061-0.026,0.084-0.031c0.044,0.012,0.096,0.023,0.135,0.029c0.037,0.002,0.063,0.006,0.086-0.002
	c0.211,0.008,0.409-0.09,0.555-0.241c0.011,0.002,0.029,0.003,0.05,0c0.063,0.003,0.122-0.013,0.182-0.019
	c0.142,0.162,0.346,0.268,0.566,0.267h0.009c0.047,0,0.097-0.009,0.153-0.027c0.103,0.09,0.25,0.147,0.405,0.153
	c0.007,0,0.027,0.001,0.027,0.001c0.135-0.001,0.264-0.041,0.376-0.105c0.075,0.021,0.142,0.035,0.212,0.034
	c0.063,0.005,0.113-0.002,0.176-0.02c0.132-0.028,0.251-0.104,0.357-0.2c0.107,0.065,0.227,0.108,0.363,0.103
	c0.063,0.051,0.136,0.088,0.217,0.117l0.148,0.045c0.07,0.021,0.151,0.034,0.232,0.035l0.008-0.001l0.154-0.004
	c0.127-0.007,0.253-0.04,0.358-0.106c0.074,0.02,0.132,0.024,0.211,0.022c0.004,0,0.015,0.001,0.029,0.002
	c0.08,0.026,0.166,0.052,0.259,0.058c0.045-0.01,0.089-0.013,0.125-0.021c0.063-0.012,0.134-0.025,0.186-0.051
	c0.042,0.008,0.087,0.011,0.126,0.01c0.07-0.002,0.144-0.016,0.196-0.027c0.118,0.066,0.256,0.105,0.387,0.107
	c0.003,0,0.003,0,0.014,0.001c0.068-0.007,0.137-0.013,0.183-0.038c0.042,0.003,0.062,0.02,0.091,0.021
	c0.169-0.007,0.324-0.063,0.457-0.168c0.043,0.004,0.088,0.006,0.127,0.012c0.012,0,0.012-0.006,0.027-0.006l0.134-0.006
	c0.045,0.006,0.084-0.01,0.133-0.015c0.014,0.009,0.022,0.017,0.034,0.03l0.143,0.086c0.124,0.072,0.259,0.107,0.393,0.104
	c0.029,0.003,0.057,0,0.078-0.002l0.15-0.022c0.2-0.016,0.376-0.119,0.496-0.271c0.021,0.015,0.042,0.029,0.076,0.037l0.141,0.039
	c0.07,0.021,0.141,0.029,0.209,0.028c0.128,0.001,0.262-0.038,0.373-0.106c0.116,0.104,0.267,0.171,0.425,0.181l0.139,0.012
	c0.021,0.002,0.031-0.002,0.052,0s0.059-0.004,0.09-0.008c0.014,0.011,0.036,0.024,0.053,0.033c0.093,0.039,0.187,0.053,0.279,0.057
	c0.068-0.004,0.12-0.018,0.176-0.027c0.077,0.029,0.159,0.048,0.253,0.045c0,0,0.021,0.001,0.024-0.005
	c0.165,0,0.302-0.058,0.425-0.149c0.113,0.074,0.245,0.117,0.394,0.111l0.16,0.003c0.094,0,0.197-0.026,0.277-0.057l0.017,0.004
	c0.011,0.001,0.026,0.003,0.028,0.003c0.082-0.007,0.173-0.027,0.25-0.053c0.119,0.072,0.261,0.115,0.406,0.115
	c0.01,0,0.029,0,0.043,0c0.131-0.009,0.25-0.052,0.338-0.115c0.043,0.004,0.069,0.006,0.104,0.01c0.115,0,0.225-0.034,0.338-0.09
	c0.059,0.033,0.125,0.051,0.206,0.068l0.155,0.018c0.025,0.008,0.063,0.012,0.104,0.012c0.104-0.007,0.202-0.021,0.302-0.07
	c0.013,0,0.026,0.015,0.043,0.016c0.135,0.097,0.289,0.16,0.451,0.152c0.03,0.004,0.041,0.004,0.072-0.002
	c0.114-0.008,0.223-0.051,0.316-0.103c0.125,0.069,0.255,0.12,0.402,0.126c0.036-0.002,0.069-0.006,0.086-0.006
	c0.084-0.012,0.146-0.025,0.211-0.057c0.012,0.002,0.012,0.002,0.023,0.004c0.246-0.008,0.469-0.125,0.616-0.33
	c0.118,0.234,0.372,0.379,0.637,0.377c0.017,0.002,0.017,0.002,0.028,0.003c0.212-0.005,0.406-0.105,0.551-0.269
	c0.031-0.011,0.059-0.029,0.1-0.046c0.104-0.008,0.223-0.04,0.33-0.098c0.084,0.047,0.172,0.076,0.258,0.103
	c0.117,0.09,0.271,0.144,0.432,0.139c0.027,0.014,0.045,0.029,0.068,0.039c0.086,0.033,0.172,0.049,0.26,0.049
	c0.029-0.006,0.068-0.008,0.104-0.014c0.084,0.049,0.179,0.084,0.263,0.092c0.035,0.003,0.063,0.005,0.084,0.008
	c0.162-0.008,0.316-0.053,0.451-0.146c0.094,0.045,0.202,0.074,0.315,0.073c0.021,0.001,0.032,0.003,0.048,0.005
	c0.109-0.01,0.229-0.048,0.323-0.098c0.028,0.003,0.046,0.003,0.09-0.003c0.017,0.003,0.022,0.005,0.038,0.006h0.01
	c0.121,0.077,0.256,0.12,0.408,0.125c0.025-0.003,0.046-0.002,0.066-0.005c0.14-0.018,0.271-0.07,0.381-0.152
	c0.125,0.1,0.285,0.152,0.457,0.16c0.035-0.005,0.086,0,0.131-0.016c0.089-0.019,0.164-0.045,0.232-0.098
	c0.118,0.075,0.243,0.102,0.383,0.106c0.052,0.004,0.103-0.004,0.166-0.022l0.142-0.029c0.133-0.031,0.242-0.098,0.335-0.183
	c0.025,0.005,0.055,0.009,0.094,0.009c0.008,0.002,0.023,0.004,0.049,0c0,0,0,0.004,0.01,0.006c0,0,0.039,0.014,0.086,0.024
	c0.045,0.025,0.098,0.052,0.098,0.052c0.102,0.062,0.225,0.086,0.336,0.09c0.104-0.008,0.199-0.027,0.288-0.058
	c0.033-0.017,0.06-0.03,0.081-0.052c0.007,0,0.02,0.011,0.027,0.013c0.015,0.001,0.041,0.005,0.068-0.004
	c0.105,0.009,0.209-0.019,0.311-0.059c0.062,0.018,0.119,0.021,0.191,0.021c0.012,0.002,0.032,0,0.038,0
	c0.025,0.002,0.033-0.001,0.058-0.002c0.052,0.016,0.108,0.041,0.108,0.041c0.095,0.038,0.187,0.064,0.293,0.059
	c0.091,0.002,0.175-0.014,0.244-0.043c0.082,0.029,0.172,0.045,0.25,0.043c0.09,0.002,0.185-0.014,0.257-0.043l0.172-0.062
	c0.043-0.017,0.082-0.035,0.116-0.062l0.019,0.002c0.084-0.006,0.166-0.035,0.246-0.074c0.08,0.074,0.18,0.135,0.28,0.166
	c0.07,0.017,0.146,0.029,0.224,0.027c0.115,0.008,0.233-0.025,0.338-0.078c0.125-0.006,0.24-0.038,0.347-0.103
	c0.125,0.152,0.298,0.265,0.506,0.286c0.028,0.003,0.063,0.007,0.091,0.01c0.129-0.003,0.252-0.041,0.365-0.099
	c0.084,0.035,0.176,0.062,0.273,0.065c0.037-0.006,0.089-0.01,0.14-0.021c0.177-0.031,0.339-0.137,0.45-0.274
	c0.009,0,0.027,0.002,0.042,0.004c0.114-0.004,0.239-0.027,0.34-0.084c0.08,0.032,0.168,0.059,0.269,0.062
	c0.006,0.001,0.006,0.001,0.018,0.002c0.051-0.001,0.107-0.008,0.15-0.018c0.125,0.199,0.351,0.332,0.598,0.345
	c0.014,0.002,0.021,0.002,0.033,0.002c0.078,0,0.166-0.021,0.236-0.049c0.028,0.002,0.047,0.011,0.067,0.014
	c0.048-0.003,0.083-0.01,0.138-0.015c0.204-0.035,0.371-0.156,0.49-0.322c0.021-0.004,0.059-0.004,0.059-0.004
	c0.069-0.01,0.133-0.023,0.185-0.05c0.021,0.002,0.043,0.009,0.05,0.004h0.012c0.069,0.09,0.146,0.164,0.245,0.211l0.147,0.084
	c0.115,0.062,0.234,0.088,0.359,0.09c0.079,0.002,0.152-0.008,0.236-0.035c0.02-0.013,0.046-0.026,0.074-0.04
	c0.055,0.012,0.092,0.014,0.137,0.018c0.155-0.006,0.307-0.045,0.432-0.146c0.058-0.002,0.104-0.022,0.146-0.04
	c0.062,0.021,0.118,0.027,0.164,0.029c0.117,0.088,0.26,0.135,0.412,0.126c0.01,0.003,0.021,0.003,0.021,0.003
	c0.1,0,0.192-0.021,0.273-0.062c0.009,0,0.027,0.002,0.035,0.002c0.086,0.002,0.172-0.02,0.246-0.047
	c0.031,0.004,0.054,0.006,0.082,0.006c0.056-0.002,0.104,0,0.154-0.01c0.084-0.022,0.168-0.059,0.242-0.111
	c0.086,0.029,0.165,0.052,0.255,0.052c0.001,0.002,0.001-0.004,0.001-0.004c0.086,0.004,0.18-0.019,0.254-0.048
	c0.127,0.123,0.602-0.188,0.602-0.336c0,0,0.234-0.133,0.126-0.698C75.826,87.533,75.812,86.846,75.373,87.001"/>
<path d="M72.402,76.145l-0.036,0.123c-0.031,0.104-0.039,0.207-0.039,0.312c-0.03,0.079-0.046,0.163-0.052,0.245l-0.016,0.124
	c-0.003,0.047-0.003,0.097-0.003,0.145l0.009,0.129c0.006,0.021,0.012,0.037,0.019,0.053c-0.048,0.137-0.056,0.281-0.03,0.42
	c-0.018,0.149,0.012,0.3,0.064,0.427c0.013,0.11,0.043,0.207,0.084,0.302c0.011,0.17,0.078,0.337,0.173,0.481
	c0.011,0.186,0.075,0.364,0.187,0.511c0,0,0.024,0.021,0.038,0.047c0.015,0.021,0.023,0.044,0.023,0.044
	c0.04,0.076,0.099,0.142,0.151,0.197c0.014,0.078,0.041,0.153,0.08,0.226l0.057,0.114c0.068,0.136,0.178,0.246,0.305,0.333
	c0.042,0.133,0.127,0.253,0.232,0.354c0.052,0.114,0.127,0.213,0.22,0.297c0.038,0.055,0.077,0.104,0.124,0.145
	c0.016,0.021,0.027,0.051,0.027,0.051c0,0.002,0.008,0.021,0.01,0.034l0.01,0.001v0.006c0.035,0.133,0.095,0.254,0.178,0.359
	c0,0,0.014,0.014,0.026,0.021c0.028,0.189,0.124,0.365,0.271,0.494c0.004,0.008,0.012,0.032,0.012,0.032
	c0.031,0.05,0.063,0.104,0.104,0.153c0.009,0.029,0.024,0.061,0.037,0.088c0.002,0.05,0.019,0.105,0.022,0.162
	c0.004,0.074,0.011,0.148,0.027,0.225l0.028,0.117c0.008,0.062,0.028,0.121,0.058,0.184c0.018,0.09,0.047,0.178,0.09,0.262
	c-0.012,0.148,0.01,0.297,0.075,0.433c-0.019,0.146-0.012,0.295,0.038,0.427c0.004,0.045,0.012,0.079,0.025,0.12
	c0,0-0.004,0.034,0.005,0.063c-0.024,0.098-0.045,0.214-0.031,0.314c0,0-0.001,0.036,0.004,0.07
	c-0.034,0.104-0.042,0.211-0.032,0.314c-0.031,0.098-0.043,0.193-0.039,0.289c-0.035,0.114-0.039,0.229-0.031,0.342
	c-0.031,0.078-0.057,0.158-0.078,0.25l-0.002,0.008l-0.002,0.002c-0.024,0.074-0.053,0.152-0.066,0.238c0,0,0,0.021-0.007,0.037
	c-0.058,0.1-0.091,0.205-0.106,0.325c-0.029,0.04-0.058,0.097-0.068,0.142c-0.092,0.117-0.152,0.238-0.172,0.377
	c-0.006,0-0.008,0.002-0.006,0.006c-0.012,0.002-0.022,0.014-0.022,0.014c-0.378,0.332-0.415,0.902-0.088,1.275
	c0.229,0.254,0.569,0.353,0.873,0.281c0.144-0.027,0.28-0.092,0.394-0.195l0.1-0.086c0.054-0.047,0.099-0.088,0.138-0.143
	c0,0,0.038-0.057,0.06-0.084c0.021-0.017,0.03-0.039,0.045-0.061c0.022-0.021,0.074-0.077,0.074-0.077
	c0.11-0.114,0.174-0.254,0.211-0.405c0.021-0.037,0.041-0.076,0.06-0.119c0.016-0.024,0.051-0.06,0.051-0.06
	c0.122-0.155,0.199-0.351,0.207-0.543c0.046-0.11,0.054-0.233,0.049-0.356c0.101-0.134,0.162-0.297,0.179-0.465
	c0.058-0.154,0.067-0.316,0.043-0.481c0.01-0.068,0.01-0.134,0.002-0.203c0-0.025,0.015-0.058,0.015-0.058
	c0-0.023,0.005-0.045,0.012-0.066c0.065-0.146,0.101-0.316,0.084-0.477c0.056-0.182,0.062-0.375,0-0.562c0,0-0.026-0.082-0.036-0.11
	c0.016-0.146,0-0.304-0.056-0.449c0.024-0.146,0.01-0.295-0.032-0.432c-0.01-0.124-0.035-0.238-0.091-0.347
	c0.017-0.12,0.007-0.242-0.03-0.361c-0.021-0.104-0.07-0.198-0.135-0.282c-0.004-0.026-0.012-0.056-0.02-0.08
	c-0.01-0.129-0.045-0.261-0.101-0.371l-0.051-0.115c-0.003-0.008-0.005-0.014-0.007-0.023c0,0-0.012-0.014-0.014-0.016
	c-0.004-0.004-0.008-0.023-0.008-0.023c-0.041-0.149-0.115-0.293-0.221-0.4c-0.018-0.01-0.021-0.022-0.027-0.034
	c-0.021-0.154-0.078-0.3-0.173-0.424l-0.073-0.101c-0.033-0.035-0.063-0.074-0.096-0.104c-0.011-0.029-0.021-0.061-0.042-0.086
	c0,0-0.038-0.07-0.053-0.098c-0.011-0.019-0.044-0.088-0.044-0.088c-0.01-0.013-0.014-0.029-0.02-0.037l-0.055-0.1
	c-0.023-0.049-0.049-0.093-0.085-0.135c-0.03-0.059-0.069-0.113-0.103-0.164c-0.062-0.141-0.141-0.26-0.256-0.35
	c-0.023-0.043-0.037-0.09-0.065-0.123c0,0-0.021-0.025-0.042-0.059c-0.02-0.021-0.026-0.048-0.026-0.048
	c-0.049-0.095-0.118-0.179-0.198-0.245c-0.043-0.111-0.104-0.216-0.186-0.302c-0.038-0.062-0.078-0.128-0.129-0.187
	c-0.001-0.051-0.008-0.104-0.021-0.146l-0.049-0.117c-0.023-0.076-0.062-0.154-0.102-0.225c-0.018-0.088-0.047-0.185-0.096-0.262
	l-0.059-0.113c-0.005-0.006-0.014-0.01-0.016-0.018v-0.003c0.031-0.09,0.051-0.188,0.043-0.274l-0.004-0.125
	c0-0.062-0.008-0.11-0.019-0.166c0.009-0.033,0.032-0.068,0.04-0.101l0.033-0.118c0.01-0.037,0.01-0.07,0.018-0.105
	c0.002-0.021,0.019-0.035,0.026-0.049c0,0-0.211-0.242-0.208-0.244L72.402,76.145z"/>
<g>
	<g>
		<path d="M74.391,78.719c-0.014-0.061-0.037-0.129-0.067-0.18c0.005-0.045,0.005-0.088,0-0.127
			c-0.009-0.07-0.028-0.141-0.048-0.193c0.058-0.121,0.084-0.262,0.074-0.394v-0.015c-0.014-0.066-0.025-0.136-0.055-0.178
			c0-0.042,0.014-0.062,0.014-0.095c-0.021-0.168-0.093-0.317-0.209-0.438v-0.127c0-0.013-0.006-0.013-0.01-0.027l-0.017-0.133
			c0-0.045-0.017-0.084-0.025-0.131c0.009-0.017,0.015-0.022,0.025-0.037l0.073-0.15c0.061-0.128,0.086-0.268,0.069-0.398
			c0-0.029-0.005-0.059-0.009-0.078l-0.036-0.146c-0.037-0.199-0.153-0.365-0.315-0.469c0.014-0.023,0.025-0.047,0.031-0.08
			l0.024-0.144c0.015-0.071,0.019-0.141,0.012-0.211c-0.012-0.127-0.062-0.258-0.141-0.362c0.094-0.123,0.144-0.278,0.141-0.438
			v-0.141c0-0.021-0.007-0.033-0.007-0.053c0-0.021-0.009-0.06-0.016-0.088c0.011-0.017,0.022-0.039,0.027-0.057
			c0.032-0.096,0.037-0.189,0.032-0.281c-0.009-0.068-0.028-0.119-0.044-0.176c0.023-0.08,0.035-0.158,0.023-0.256
			c0,0,0-0.018-0.008-0.022c-0.016-0.163-0.082-0.294-0.188-0.409c0.065-0.117,0.096-0.252,0.077-0.401l-0.012-0.156
			c-0.01-0.099-0.045-0.194-0.08-0.272v-0.043c-0.014-0.082-0.043-0.174-0.078-0.246c0.063-0.125,0.092-0.271,0.082-0.414
			c0-0.01,0-0.027-0.004-0.043c-0.021-0.127-0.074-0.243-0.147-0.328V70.68c-0.011-0.111-0.054-0.218-0.12-0.328
			c0.027-0.062,0.04-0.129,0.049-0.211l0.004-0.154c0.006-0.024,0.006-0.065,0-0.105c-0.014-0.104-0.037-0.197-0.096-0.296
			c0-0.009,0.012-0.026,0.012-0.043c0.084-0.142,0.133-0.303,0.11-0.462c0-0.03,0-0.042-0.011-0.073
			c-0.016-0.11-0.069-0.215-0.129-0.304c0.06-0.133,0.098-0.266,0.088-0.413c-0.004-0.036-0.012-0.067-0.012-0.086
			c-0.02-0.082-0.039-0.144-0.076-0.204v-0.023c-0.029-0.246-0.166-0.457-0.383-0.584c0.224-0.138,0.344-0.403,0.315-0.668v-0.027
			c-0.024-0.211-0.142-0.396-0.315-0.524c-0.012-0.028-0.033-0.054-0.053-0.095c-0.02-0.102-0.061-0.217-0.128-0.318
			c0.039-0.086,0.06-0.178,0.077-0.265c0.079-0.126,0.12-0.286,0.1-0.444c0.01-0.027,0.024-0.048,0.032-0.07
			c0.024-0.09,0.034-0.176,0.024-0.264c-0.008-0.029-0.014-0.068-0.021-0.104c0.04-0.088,0.065-0.182,0.065-0.271v-0.084
			c-0.023-0.156-0.081-0.31-0.186-0.434c0.035-0.096,0.055-0.209,0.045-0.321v-0.047c-0.021-0.108-0.07-0.226-0.129-0.312
			c0-0.03,0-0.049-0.009-0.093v-0.047c0.067-0.127,0.097-0.264,0.086-0.417c-0.004-0.025-0.004-0.046-0.009-0.064
			c-0.031-0.14-0.098-0.265-0.186-0.368c0.084-0.134,0.125-0.296,0.117-0.466c-0.009-0.035-0.009-0.09-0.027-0.133
			c-0.026-0.084-0.062-0.156-0.118-0.22c0.063-0.125,0.081-0.254,0.069-0.394c0-0.053-0.013-0.102-0.035-0.166l-0.045-0.135
			c-0.041-0.129-0.114-0.231-0.209-0.316c0-0.025,0.004-0.057,0-0.096c0-0.008,0-0.021-0.004-0.049c0,0,0.004,0,0.004-0.011
			c0,0,0.011-0.042,0.017-0.085c0.021-0.051,0.043-0.105,0.043-0.105c0.052-0.106,0.065-0.229,0.056-0.342
			c-0.014-0.102-0.041-0.195-0.082-0.281c-0.018-0.032-0.033-0.057-0.057-0.075c0-0.005,0.007-0.021,0.007-0.027
			c0-0.016,0-0.042-0.007-0.067c-0.003-0.105-0.039-0.207-0.087-0.304c0.01-0.063,0.01-0.123,0.003-0.192
			c0-0.012-0.003-0.031-0.003-0.041c0-0.024-0.004-0.031-0.011-0.056c0.014-0.052,0.035-0.11,0.035-0.11
			c0.026-0.099,0.045-0.189,0.03-0.297c-0.007-0.09-0.03-0.172-0.065-0.239c0.021-0.085,0.029-0.177,0.021-0.251
			c-0.007-0.088-0.03-0.184-0.063-0.254l-0.08-0.164c-0.021-0.039-0.043-0.077-0.07-0.109v-0.02
			c-0.016-0.086-0.049-0.162-0.096-0.24c0.068-0.086,0.117-0.189,0.139-0.294c0.014-0.071,0.02-0.146,0.007-0.224
			c0-0.117-0.046-0.232-0.108-0.33c-0.016-0.125-0.058-0.237-0.131-0.338c0.141-0.138,0.232-0.316,0.238-0.529v-0.09
			c-0.014-0.127-0.064-0.246-0.13-0.355c0.028-0.086,0.046-0.18,0.04-0.277c-0.008-0.037-0.018-0.089-0.032-0.138
			c-0.048-0.173-0.167-0.325-0.315-0.419v-0.045c-0.016-0.115-0.051-0.234-0.113-0.331c0.025-0.081,0.042-0.171,0.039-0.271v-0.02
			c-0.008-0.051-0.018-0.107-0.031-0.15c0.188-0.141,0.299-0.375,0.288-0.625v-0.031c-0.01-0.079-0.038-0.163-0.069-0.231
			c0-0.026,0.004-0.049,0.004-0.067c-0.004-0.047-0.016-0.082-0.024-0.138c-0.054-0.196-0.188-0.353-0.367-0.457
			c-0.003-0.021-0.007-0.057-0.007-0.057c-0.018-0.07-0.038-0.132-0.066-0.181c0-0.02,0.004-0.045,0-0.051V51.25
			c0.077-0.079,0.146-0.16,0.184-0.266l0.072-0.154c0.053-0.117,0.065-0.238,0.058-0.362c-0.005-0.08-0.021-0.155-0.058-0.233
			c-0.014-0.02-0.031-0.043-0.045-0.07c0.004-0.055,0.004-0.095,0.004-0.137c-0.021-0.154-0.074-0.303-0.187-0.415
			c-0.007-0.059-0.032-0.104-0.054-0.146c0.016-0.062,0.016-0.118,0.016-0.164c0.076-0.125,0.107-0.271,0.087-0.422V48.86
			c-0.008-0.101-0.04-0.191-0.087-0.267v-0.038c-0.005-0.084-0.035-0.168-0.07-0.236v-0.082c-0.007-0.058-0.012-0.105-0.024-0.154
			c-0.031-0.082-0.071-0.163-0.136-0.23c0.026-0.086,0.039-0.17,0.033-0.258c0-0.003-0.006-0.003-0.006-0.003
			c-0.004-0.085-0.035-0.175-0.07-0.247c0.113-0.139,0.187-0.303,0.192-0.474c0-0.03,0-0.067-0.007-0.095
			c0-0.056-0.007-0.1-0.025-0.154c0.032-0.094,0.049-0.186,0.049-0.293c-0.004-0.004-0.004-0.027-0.004-0.037
			c-0.013-0.121-0.045-0.225-0.098-0.311c0.021-0.098,0.045-0.207,0.033-0.303v-0.016c-0.001-0.081-0.02-0.133-0.033-0.195
			c0.003-0.033,0.003-0.079,0-0.123c-0.009-0.072-0.027-0.133-0.051-0.201c0-0.04,0.003-0.063,0-0.099
			c-0.018-0.134-0.061-0.239-0.131-0.342c-0.008-0.052-0.016-0.095-0.031-0.151c0.025-0.084,0.044-0.177,0.031-0.275
			c-0.016-0.199-0.117-0.371-0.277-0.502c0.062-0.126,0.094-0.262,0.08-0.4c-0.004-0.045-0.018-0.092-0.025-0.143
			c0.01-0.059,0.01-0.125,0.004-0.19c-0.004-0.019-0.006-0.055-0.015-0.089c0,0-0.022-0.099-0.032-0.137
			c-0.012-0.033-0.022-0.143-0.022-0.143l-0.007-0.004c0.082-0.139,0.119-0.286,0.109-0.445v-0.018
			c-0.021-0.145-0.078-0.287-0.174-0.387c-0.007-0.039-0.013-0.064-0.023-0.105c0.026-0.092,0.045-0.191,0.031-0.281
			c-0.004-0.061-0.015-0.086-0.021-0.145c0-0.01-0.011-0.01-0.011-0.025c0.004-0.006,0.017-0.026,0.017-0.026
			c0.084-0.147,0.119-0.304,0.106-0.463c-0.018-0.14-0.07-0.282-0.156-0.397c0.048-0.119,0.064-0.246,0.057-0.375
			c-0.007-0.047-0.013-0.091-0.023-0.141c-0.033-0.117-0.104-0.221-0.188-0.3c0.008-0.058,0.032-0.105,0.036-0.159
			c0-0.045,0.004-0.1,0-0.148c0-0.025-0.009-0.066-0.021-0.088c0.021-0.066,0.024-0.144,0.024-0.217c0,0-0.004-0.011-0.004-0.021
			c-0.004-0.079-0.028-0.143-0.058-0.219c0.008-0.04,0.008-0.069,0-0.11c-0.002-0.062-0.016-0.112-0.024-0.17
			c-0.039-0.099-0.101-0.188-0.165-0.271v-0.016c0.036-0.118,0.053-0.23,0.043-0.339c0-0.025-0.014-0.058-0.02-0.089
			c0.02-0.029,0.035-0.054,0.047-0.092c0.029-0.096,0.041-0.201,0.033-0.307c-0.012-0.088-0.033-0.16-0.076-0.25
			c0.02-0.062,0.02-0.139,0.015-0.205c0-0.047-0.015-0.103-0.029-0.15c-0.042-0.137-0.126-0.26-0.239-0.351
			c0.028-0.091,0.041-0.179,0.033-0.276c-0.011-0.063-0.033-0.144-0.061-0.219c0-0.029,0.003-0.065,0-0.101
			c-0.004-0.083-0.025-0.159-0.061-0.228c0.129-0.143,0.209-0.344,0.201-0.543c0-0.008-0.006-0.025-0.006-0.031
			c-0.014-0.162-0.078-0.307-0.18-0.42c0-0.011,0.003-0.021,0-0.029c-0.012-0.148-0.073-0.277-0.162-0.398
			c0-0.023,0.003-0.047,0-0.073v-0.005c-0.005-0.084-0.028-0.164-0.066-0.234c0.028-0.074,0.057-0.133,0.066-0.209
			c0.111-0.146,0.166-0.325,0.15-0.518v-0.016c-0.021-0.205-0.135-0.39-0.308-0.521c0.022-0.053,0.038-0.1,0.038-0.1
			c0.032-0.087,0.04-0.181,0.035-0.266l-0.003-0.154v-0.036c-0.007-0.05-0.023-0.101-0.032-0.141
			c0.009-0.065,0.009-0.121,0.007-0.182V31.62c-0.021-0.166-0.101-0.307-0.22-0.425c0.006-0.047,0.009-0.099,0.006-0.148
			c0.042-0.103,0.046-0.207,0.043-0.316c0-0.012,0-0.012,0-0.012c-0.007-0.053-0.021-0.094-0.029-0.141
			c0.004-0.049,0.004-0.094,0.004-0.137c0-0.016-0.004-0.016-0.004-0.027c-0.01-0.103-0.043-0.209-0.097-0.305
			c0-0.012-0.007-0.021-0.007-0.039c0.082-0.138,0.122-0.291,0.104-0.443c0-0.036-0.01-0.052-0.013-0.087
			c-0.006-0.04-0.021-0.07-0.035-0.113c0.056-0.097,0.099-0.229,0.099-0.358v-0.07c-0.021-0.166-0.092-0.321-0.205-0.442
			c0.033-0.091,0.052-0.196,0.047-0.3l-0.012-0.15v-0.032c-0.002-0.073-0.027-0.128-0.051-0.19c0.023-0.094,0.041-0.186,0.03-0.271
			c-0.007-0.045-0.011-0.08-0.024-0.127l0.096-0.031c0.113-0.035,0.214-0.1,0.299-0.18c0.025-0.006,0.056-0.006,0.056-0.006
			c0.105-0.035,0.214-0.103,0.304-0.176c0.121-0.024,0.232-0.068,0.334-0.141l-7.371-0.752c-0.168-0.014-0.324,0.031-0.461,0.119
			c-0.058-0.004-0.121-0.008-0.174-0.004c-0.119,0.004-0.228,0.042-0.32,0.088c-0.055-0.004-0.125-0.017-0.184-0.017
			c-0.084,0-0.152,0.013-0.224,0.034c-0.052-0.021-0.108-0.049-0.162-0.063c-0.207-0.065-0.435-0.022-0.618,0.099l-0.148,0.103
			c-0.006,0-0.021,0.013-0.021,0.013c-0.087,0-0.168,0.012-0.261,0.039c0,0-0.039,0.014-0.088,0.027
			c-0.141-0.027-0.287-0.027-0.422,0.03c0,0-0.021,0.009-0.028,0.014h-0.031c-0.054,0-0.11,0.005-0.166,0.024
			c0,0-0.034,0.004-0.073,0.018c-0.168-0.174-0.41-0.268-0.664-0.235c-0.104,0.024-0.209,0.065-0.303,0.122
			c-0.061-0.013-0.121-0.027-0.191-0.027c-0.034,0-0.067,0-0.098,0.015c-0.104-0.039-0.222-0.044-0.33-0.026
			c-0.115,0.012-0.211,0.053-0.309,0.11h-0.057c-0.125,0.005-0.243,0.042-0.344,0.105c-0.146,0.007-0.293,0.062-0.396,0.147
			c-0.133-0.047-0.287-0.07-0.436-0.047c-0.121-0.061-0.254-0.089-0.404-0.076c-0.129,0.016-0.25,0.062-0.354,0.141
			c-0.12-0.064-0.251-0.101-0.388-0.078c-0.18,0.014-0.329,0.086-0.45,0.194c-0.114,0.047-0.221,0.103-0.302,0.2
			c-0.1-0.068-0.208-0.098-0.326-0.103c-0.12-0.06-0.257-0.091-0.389-0.073c-0.17-0.066-0.359-0.066-0.532,0l-0.138,0.062
			c-0.018,0-0.018,0.004-0.023,0.004l-0.138,0.076h-0.021c-0.168-0.127-0.396-0.186-0.605-0.118
			c-0.116,0.015-0.223,0.075-0.309,0.153c-0.046,0.011-0.091,0.032-0.131,0.053c-0.094-0.039-0.191-0.07-0.291-0.07
			c-0.054,0-0.104,0.018-0.154,0.023c-0.164-0.101-0.356-0.121-0.543-0.074c-0.067,0.016-0.129,0.041-0.189,0.079
			c-0.107-0.011-0.223-0.011-0.327,0.021c-0.049,0.011-0.088,0.042-0.128,0.054c-0.083-0.033-0.183-0.063-0.274-0.072
			c-0.232-0.008-0.452,0.102-0.598,0.275h-0.061c-0.142-0.126-0.338-0.203-0.542-0.189c-0.145,0.016-0.276,0.063-0.389,0.15
			c-0.054-0.017-0.114-0.027-0.17-0.027h-0.162c-0.018-0.006-0.034,0-0.055,0l-0.159,0.011c-0.098,0.003-0.198,0.03-0.289,0.081
			c-0.149,0.016-0.288,0.06-0.402,0.135c-0.148-0.119-0.352-0.199-0.56-0.186c-0.084,0.01-0.157,0.035-0.232,0.066
			c-0.015,0-0.042-0.016-0.056-0.016c-0.186-0.025-0.366,0.018-0.509,0.115c-0.065-0.014-0.132-0.025-0.198-0.025
			c-0.165,0-0.316,0.062-0.439,0.154c-0.151-0.079-0.324-0.109-0.496-0.07c-0.183,0.033-0.343,0.145-0.45,0.293
			c-0.141-0.139-0.32-0.24-0.524-0.24c-0.095,0-0.187,0.016-0.269,0.033c-0.07,0-0.145,0-0.204,0.023
			C43.18,27.9,43.021,28,42.905,28.148c-0.026,0.014-0.045,0.014-0.068,0.014c-0.131-0.089-0.293-0.134-0.473-0.129
			c-0.157,0-0.3,0.066-0.418,0.166c-0.164-0.138-0.379-0.199-0.591-0.166c-0.037,0.016-0.072,0.028-0.098,0.028
			c-0.187-0.013-0.377,0.032-0.53,0.149c0,0-0.093,0.072-0.125,0.1c-0.037,0-0.079,0.004-0.119,0.016
			c-0.113-0.043-0.243-0.06-0.368-0.043c0,0-0.033,0.002-0.058,0.012c-0.116-0.063-0.244-0.096-0.383-0.084
			c-0.116,0-0.231,0.039-0.325,0.1c-0.105-0.041-0.222-0.055-0.339-0.044c-0.158,0.017-0.305,0.087-0.412,0.188
			c-0.042-0.012-0.072-0.02-0.105-0.02c-0.162-0.008-0.313,0.042-0.442,0.137c-0.042,0.006-0.084,0.02-0.127,0.042
			c-0.17-0.198-0.424-0.3-0.675-0.261c-0.135,0.024-0.253,0.074-0.348,0.152c-0.083-0.028-0.169-0.028-0.251-0.014
			c-0.194-0.076-0.422-0.055-0.605,0.052c-0.098-0.038-0.212-0.066-0.328-0.052c-0.142,0.014-0.277,0.063-0.38,0.146
			c-0.106-0.006-0.201,0.018-0.302,0.058c-0.106-0.04-0.232-0.04-0.344-0.02c-0.015,0-0.036,0.02-0.054,0.02
			c-0.115-0.058-0.246-0.063-0.371-0.058c-0.135,0.031-0.257,0.078-0.356,0.172c-0.094-0.051-0.184-0.074-0.281-0.088
			c-0.113-0.006-0.222,0.018-0.319,0.061c-0.075,0-0.143,0-0.22,0.012c-0.192-0.092-0.415-0.092-0.614,0.016
			c0,0-0.021,0-0.033,0.012h-0.014c-0.136,0.01-0.267,0.053-0.375,0.136c-0.112,0.02-0.214,0.056-0.307,0.12
			c-0.001-0.01-0.009-0.01-0.016-0.01c-0.197-0.047-0.399-0.006-0.562,0.092c-0.021-0.012-0.043-0.037-0.043-0.037
			c-0.138-0.137-0.321-0.207-0.511-0.207v-0.041c-0.007-0.053-0.021-0.119-0.042-0.179c0.032-0.065,0.042-0.147,0.042-0.231
			l0.007-0.154c0-0.027,0-0.061-0.007-0.086c-0.007-0.105-0.047-0.215-0.09-0.299v-0.117c-0.011-0.052-0.021-0.097-0.029-0.145
			c0.011-0.066,0.018-0.146,0.011-0.217L30.5,27.273c0,0,0-0.006-0.004-0.006c0.042-0.111,0.06-0.221,0.05-0.334
			c0-0.013,0-0.021-0.004-0.035c-0.008-0.05-0.018-0.094-0.039-0.138c0-0.038,0.003-0.08,0-0.122
			c-0.003-0.029-0.011-0.081-0.016-0.109c0,0-0.016-0.048-0.024-0.088c0.008-0.043,0.019-0.101,0.019-0.15
			c0.047-0.088,0.063-0.191,0.07-0.299c0.002-0.025,0-0.058-0.007-0.08V25.9c0.007-0.031,0.009-0.057,0.009-0.078
			c0.012-0.049,0.012-0.084,0-0.129c-0.018-0.211-0.132-0.412-0.309-0.538c0-0.038,0-0.07-0.007-0.108
			c-0.006-0.09-0.027-0.188-0.062-0.273c0.006-0.066,0.009-0.127,0.006-0.192c0-0.021-0.01-0.046-0.013-0.073
			c0.013-0.082,0.013-0.15,0.003-0.231c-0.009-0.124-0.039-0.233-0.086-0.341c0,0-0.021-0.043-0.041-0.082
			c-0.014-0.034-0.018-0.064-0.018-0.064c-0.004-0.004-0.008-0.01-0.008-0.01c0.003-0.052,0.008-0.11,0.008-0.11v-0.062
			c0.039-0.145,0.058-0.273,0.039-0.415c-0.009-0.123-0.051-0.264-0.121-0.379V22.77c0.03-0.107,0.037-0.219,0.028-0.316
			c-0.007-0.02-0.007-0.025-0.007-0.041V22.36c0.016-0.079,0.016-0.149,0.009-0.226c-0.018-0.119-0.053-0.236-0.103-0.344
			c0.014-0.088,0.021-0.178,0.014-0.257c0-0.045-0.014-0.085-0.025-0.115c0.005-0.021,0.005-0.04,0.005-0.04
			c0.027-0.107,0.032-0.208,0.024-0.307c-0.015-0.104-0.039-0.192-0.073-0.279c0.003-0.004,0.003-0.025,0.003-0.025
			c0-0.051,0-0.102-0.003-0.145c0-0.025-0.007-0.042-0.01-0.062c0.013-0.084,0.013-0.166,0.01-0.246
			c-0.007-0.062-0.022-0.123-0.042-0.184c0-0.039,0.003-0.085,0-0.123c-0.007-0.09-0.028-0.189-0.069-0.278
			c0.005-0.062,0.009-0.118,0.005-0.174c0-0.012,0-0.028-0.005-0.037l-0.014-0.157c-0.016-0.034-0.021-0.07-0.024-0.107
			c0.024-0.104,0.025-0.203,0.01-0.303c-0.002-0.066-0.01-0.113-0.02-0.181l-0.044-0.14c-0.007-0.024-0.007-0.039-0.017-0.051
			c0-0.021,0-0.049-0.002-0.064c-0.007-0.075-0.018-0.139-0.037-0.197c0.019-0.078,0.019-0.162,0.008-0.239v-0.013
			c0.012-0.083,0.022-0.174,0.012-0.27c-0.001-0.099-0.034-0.201-0.07-0.301l-0.055-0.12c-0.155-0.372-0.512-0.628-0.923-0.638
			c-0.301-0.007-0.589,0.113-0.789,0.328c-0.136,0.076-0.249,0.162-0.34,0.293c0,0-0.018,0.017-0.041,0.045
			c-0.033,0.021-0.068,0.042-0.068,0.042c-0.079,0.05-0.155,0.126-0.213,0.198l-0.111,0.127c0,0-0.007,0.01-0.018,0.025
			l-0.084,0.121c-0.07,0.084-0.119,0.171-0.154,0.281c-0.002,0.004-0.005,0.019-0.021,0.02l-0.003,0.006
			c-0.128,0.064-0.239,0.159-0.325,0.274l-0.097,0.123c-0.065,0.075-0.114,0.155-0.147,0.249h-0.005
			c-0.126,0.125-0.225,0.266-0.279,0.432c0,0.008-0.083,0.112-0.093,0.128c-0.132,0.088-0.241,0.194-0.318,0.336l-0.116,0.105
			c-0.079,0.08-0.145,0.161-0.193,0.263l-0.078,0.145c-0.026,0.035-0.035,0.072-0.056,0.111c-0.047,0.07-0.097,0.135-0.13,0.215
			l-0.004,0.021l-0.01,0.003c-0.055,0.061-0.105,0.139-0.139,0.213c-0.109,0.108-0.191,0.24-0.241,0.385l-0.054,0.152
			c-0.014,0.02-0.018,0.056-0.023,0.07c-0.014,0.015-0.023,0.04-0.023,0.04c-0.049,0.052-0.09,0.104-0.123,0.175l-0.084,0.14v0.017
			c-0.147,0.152-0.255,0.335-0.295,0.553c-0.058,0.104-0.104,0.242-0.118,0.363c-0.009,0.033-0.024,0.054-0.03,0.08
			c0,0-0.012,0.044-0.032,0.079c-0.177,0.199-0.269,0.46-0.255,0.733c-0.067,0.108-0.118,0.211-0.149,0.344l-0.026,0.148
			c-0.018,0.061-0.019,0.129-0.019,0.201c-0.079,0.148-0.114,0.324-0.114,0.505c-0.034,0.116-0.042,0.246-0.034,0.369
			c0,0.026,0.012,0.05,0.02,0.085c-0.007,0.07-0.02,0.147-0.007,0.216c0.007,0.071,0.021,0.149,0.039,0.218
			c0,0.003-0.011,0.023-0.011,0.023c-0.028,0.11-0.044,0.229-0.041,0.34l0.012,0.164c0,0.009,0.005,0.028,0.005,0.035
			c0.002,0.059,0.011,0.121,0.026,0.164l0.041,0.155c0.003,0.04,0.02,0.07,0.032,0.108c0,0,0.032,0.081,0.042,0.121v0.047
			c0.021,0.166,0.074,0.316,0.162,0.473c0.014,0.008,0.023,0.037,0.03,0.059l0.007,0.026c0,0.01,0,0.028,0,0.028
			c0.026,0.225,0.118,0.424,0.272,0.59l0.105,0.113h0.003c0.012,0.027,0.025,0.049,0.034,0.069c0,0,0.005,0.013,0.012,0.024
			c0.007,0.011,0.007,0.027,0.007,0.027c0.067,0.223,0.214,0.413,0.399,0.539c0.083,0.113,0.19,0.199,0.306,0.268
			c0.016,0.033,0.083,0.122,0.083,0.122c0.116,0.169,0.274,0.298,0.459,0.37l0.016,0.009c0.002,0,0.005,0.015,0.005,0.015
			c0.016,0,0.033,0.014,0.047,0.021l0.097,0.127c0.099,0.123,0.211,0.229,0.352,0.294l0.143,0.073
			c0.044,0.026,0.098,0.032,0.151,0.055c0.139,0.125,0.308,0.213,0.496,0.25c0.053,0.027,0.102,0.052,0.166,0.073
			c0.074,0.05,0.164,0.105,0.258,0.132c0.107,0.08,0.229,0.135,0.355,0.173c0.134,0.065,0.286,0.114,0.441,0.13
			c0.063,0.036,0.117,0.063,0.185,0.082l0.13,0.041c0.091,0.04,0.196,0.051,0.294,0.051c0.141,0.105,0.32,0.168,0.506,0.174h0.063
			c-0.098,0.146-0.145,0.321-0.124,0.494v0.03l0.016,0.138c0,0.038,0.011,0.062,0.024,0.105c-0.035,0.088-0.054,0.196-0.035,0.302
			c0.004,0.091,0.035,0.187,0.089,0.278c-0.033,0.092-0.051,0.184-0.044,0.281c0.007,0.018,0.011,0.045,0.011,0.064
			c0.036,0.172,0.117,0.32,0.244,0.428c0.013,0.014,0.013,0.021,0.019,0.035c-0.108,0.141-0.155,0.326-0.146,0.502
			c0.007,0.086,0.038,0.174,0.078,0.26c-0.096,0.143-0.144,0.312-0.124,0.49c0,0.017,0.003,0.034,0.003,0.064
			c0.019,0.082,0.047,0.17,0.096,0.25c0.009,0.035,0.018,0.089,0.025,0.121c-0.002,0.057-0.002,0.104,0,0.162
			c0.01,0.115,0.049,0.232,0.12,0.342c-0.019,0.07-0.028,0.152-0.028,0.234c0,0,0.01,0.075,0.01,0.119
			c0,0.045-0.01,0.123-0.01,0.123v0.103c0.024,0.12,0.066,0.258,0.134,0.358c0,0,0.01,0.014,0.017,0.014
			c-0.017,0.07-0.019,0.133-0.017,0.207c0,0.025,0.01,0.033,0.017,0.063c-0.11,0.138-0.168,0.304-0.157,0.495v0.025
			c0.021,0.178,0.108,0.354,0.237,0.476c-0.073,0.079-0.12,0.183-0.149,0.302c-0.011,0.07-0.015,0.152-0.011,0.221
			c0.011,0.129,0.052,0.251,0.126,0.354c-0.053,0.113-0.079,0.24-0.065,0.375c0.002,0,0.002,0.018,0.002,0.021
			c0.021,0.162,0.095,0.31,0.199,0.406c-0.031,0.1-0.038,0.195-0.031,0.293c0.007,0.094,0.045,0.199,0.099,0.305
			c-0.014,0.027-0.046,0.113-0.046,0.113c-0.022,0.1-0.041,0.203-0.022,0.299c0,0.033,0.008,0.066,0.014,0.098
			c-0.045,0.105-0.068,0.223-0.054,0.35c0.002,0.042,0.009,0.061,0.009,0.084l0.034,0.146c0.035,0.15,0.104,0.279,0.212,0.379
			c0.01,0.038,0.026,0.079,0.046,0.101c-0.057,0.102-0.1,0.209-0.113,0.329c-0.004,0.044-0.004,0.086,0,0.126
			c0.008,0.041,0.017,0.076,0.023,0.117c-0.037,0.102-0.054,0.212-0.047,0.324c0.011,0.139,0.062,0.275,0.14,0.37
			c-0.048,0.123-0.06,0.237-0.059,0.37c0.007,0.031,0.01,0.072,0.018,0.1c0.012,0.041,0.023,0.08,0.041,0.111
			c-0.052,0.122-0.078,0.252-0.06,0.387c0,0.014,0,0.041,0.001,0.055l0.02,0.143c0.025,0.141,0.094,0.259,0.177,0.365
			c-0.028,0.099-0.042,0.202-0.034,0.316c0.005,0.059,0.016,0.129,0.042,0.186c0.044,0.109,0.106,0.193,0.183,0.268
			c0.009,0.061,0.028,0.13,0.054,0.191c-0.024,0.037-0.038,0.068-0.038,0.068c-0.084,0.129-0.122,0.295-0.107,0.445
			c0.019,0.154,0.065,0.279,0.156,0.408c0,0,0.024,0.007,0.026,0.024c0.007,0.077,0.028,0.132,0.044,0.187
			c-0.135,0.154-0.204,0.367-0.186,0.569c0,0.028,0.007,0.054,0.016,0.078c0.009,0.075,0.035,0.138,0.065,0.208
			c-0.001,0.05-0.008,0.096-0.001,0.153c0,0.003,0,0.02,0.001,0.022c0.02,0.118,0.062,0.224,0.118,0.328v0.003
			c-0.014,0.083-0.014,0.159-0.007,0.234c0,0.039,0.007,0.085,0.026,0.123c-0.003,0.042-0.022,0.082-0.022,0.082
			c-0.018,0.073-0.023,0.146-0.011,0.241c0,0.043,0.011,0.09,0.03,0.131c-0.016,0.051-0.016,0.104,0,0.156
			c0.005,0.12,0.052,0.236,0.115,0.343c-0.007,0.018-0.018,0.048-0.018,0.085c0,0-0.001,0.017-0.001,0.037
			c-0.016,0.02-0.026,0.05-0.026,0.05c-0.054,0.115-0.07,0.243-0.065,0.366c0,0.018,0.007,0.03,0.007,0.039l0.021,0.15
			c0.009,0.074,0.037,0.127,0.064,0.197c-0.039,0.084-0.056,0.168-0.059,0.258c0,0.033,0,0.064,0.003,0.091
			c0.013,0.185,0.105,0.355,0.232,0.476c0.007,0.028,0.012,0.067,0.012,0.067v0.025c0,0.014,0,0.038,0.005,0.055l0.03,0.147
			c0.019,0.088,0.047,0.181,0.093,0.265v0.012c0,0,0.007,0.031,0.009,0.056c-0.06,0.104-0.101,0.215-0.119,0.332
			c-0.004,0.058-0.004,0.101,0,0.157c0.017,0.158,0.077,0.302,0.185,0.428c-0.075,0.116-0.114,0.266-0.104,0.419
			c0,0.013,0,0.013,0.007,0.022c0,0.056,0.013,0.109,0.021,0.152c-0.05,0.107-0.092,0.228-0.093,0.34v0.119
			c0.011,0.114,0.051,0.229,0.114,0.325v0.027c0.021,0.141,0.088,0.278,0.186,0.381c-0.108,0.132-0.175,0.288-0.186,0.466v0.086
			c0.017,0.156,0.067,0.285,0.165,0.393c-0.022,0.047-0.026,0.08-0.026,0.08c-0.042,0.092-0.009,0.197-0.054,0.283
			c-0.208,0.389,0.299,0.557,0.299,0.557c-0.25,0.252,0,0.769,0,0.769c-0.155,0.549,0.154,0.854,0.154,0.854
			c-0.309,0.683,0.164,0.959,0.164,0.959c0.012,0.017,0.014,0.027,0.014,0.037c-0.002,0.064-0.014,0.129-0.002,0.197v0.004
			c0.014,0.12,0.05,0.219,0.099,0.312c-0.085,0.141-0.134,0.309-0.116,0.479v0.037c0.031,0.188,0.123,0.352,0.266,0.463
			c0,0.043-0.002,0.062-0.002,0.101c0.008,0.053,0.021,0.114,0.044,0.168c-0.009,0.012-0.016,0.032-0.016,0.032
			c-0.018,0.059-0.026,0.107-0.026,0.166c-0.02,0.037-0.035,0.076-0.045,0.107l-0.062,0.168c-0.035,0.092-0.043,0.182-0.042,0.27
			c-0.026,0.039-0.047,0.094-0.047,0.094c-0.078,0.136-0.113,0.288-0.093,0.433c0.007,0.095,0.03,0.181,0.069,0.263
			c-0.002,0.037-0.011,0.07-0.011,0.106c-0.002,0.024,0,0.063,0,0.09c0.023,0.21,0.125,0.394,0.279,0.513
			c-0.001,0.026-0.005,0.047-0.005,0.047c-0.009,0.08-0.009,0.127-0.009,0.201c0.009,0.069,0.028,0.136,0.05,0.203
			c0,0-0.329,0.498-0.078,0.746c0,0-0.161,0.54,0.2,0.54l1.55-2.313c0.026-0.062,0.036-0.152,0.028-0.223v-0.054
			c-0.014-0.137-0.062-0.264-0.141-0.369c0.015-0.067,0.021-0.135,0.021-0.211c0-0.015,0-0.024-0.006-0.034
			c-0.014-0.121-0.059-0.246-0.124-0.334c0.007-0.051,0.007-0.082,0-0.115c0-0.033-0.017-0.062-0.017-0.103
			c0-0.022,0.033-0.132,0.033-0.132c0.007-0.027,0.009-0.044,0.009-0.079c0.105-0.142,0.153-0.312,0.132-0.494
			c0-0.024-0.004-0.053-0.009-0.092l-0.038-0.149c-0.019-0.111-0.07-0.216-0.148-0.316c0.015-0.039,0.022-0.078,0.022-0.078
			c0.017-0.041,0.025-0.086,0.04-0.121l0.017-0.166c0.012-0.062,0.012-0.111,0.007-0.17c-0.007-0.071-0.024-0.137-0.047-0.193
			v-0.119c-0.005-0.084-0.031-0.153-0.06-0.227c0.005-0.029,0.018-0.074,0.021-0.104c0.008-0.051,0.008-0.095,0.008-0.145
			c-0.017-0.129-0.067-0.246-0.133-0.343c-0.012-0.103-0.045-0.198-0.098-0.278c0.07-0.101,0.116-0.223,0.128-0.355
			c0.007-0.045,0.007-0.099,0-0.135c-0.005-0.076-0.031-0.158-0.065-0.234c0.017-0.085,0.023-0.166,0.017-0.249v-0.05
			c-0.024-0.131-0.087-0.256-0.176-0.353c0.021-0.078,0.031-0.155,0.021-0.231c-0.021-0.205-0.13-0.398-0.309-0.526
			c0.026-0.075,0.038-0.162,0.026-0.258v-0.021l-0.026-0.176c-0.018-0.104-0.051-0.196-0.103-0.299
			c0.01-0.021,0.014-0.05,0.022-0.084l0.032-0.159c0.025-0.08,0.025-0.152,0.017-0.23c0-0.032-0.009-0.062-0.017-0.088l-0.037-0.168
			c-0.007-0.051-0.024-0.097-0.052-0.146c0.105-0.104,0.186-0.241,0.204-0.393c0.014-0.067,0.014-0.131,0.007-0.19
			c-0.011-0.158-0.073-0.289-0.166-0.406c0.004-0.058,0.004-0.116,0-0.162c0-0.041-0.01-0.073-0.017-0.104
			c0.035-0.112,0.059-0.229,0.046-0.342c-0.011-0.049-0.022-0.112-0.039-0.17c-0.007-0.043-0.028-0.078-0.059-0.129
			c0.007-0.041,0.007-0.089,0-0.128c-0.012-0.157-0.078-0.306-0.179-0.434c0.003-0.041,0.003-0.091,0.003-0.134
			c-0.018-0.149-0.078-0.291-0.169-0.409c0.174-0.144,0.267-0.377,0.258-0.615c-0.005,0-0.007-0.003-0.007-0.021
			c-0.021-0.197-0.112-0.37-0.262-0.499c0.1-0.127,0.158-0.296,0.154-0.462v-0.055c-0.027-0.231-0.161-0.441-0.358-0.553
			c0.079-0.147,0.125-0.299,0.107-0.459c0-0.023-0.007-0.049-0.007-0.075c0.114-0.146,0.178-0.339,0.16-0.535
			c0-0.009-0.008-0.009-0.008-0.021c-0.012-0.084-0.038-0.166-0.07-0.241c0.009-0.062,0.011-0.112,0.008-0.171
			c-0.008-0.08-0.036-0.164-0.069-0.248c0.004-0.003,0.061-0.137,0.061-0.137c0.05-0.115,0.064-0.241,0.053-0.363
			c-0.003-0.082-0.031-0.17-0.064-0.244c-0.031-0.062-0.07-0.126-0.12-0.178c0.07-0.105,0.113-0.229,0.12-0.371
			c0-0.023,0-0.061-0.007-0.084c-0.01-0.15-0.063-0.27-0.144-0.377c0.043-0.115,0.066-0.232,0.059-0.358
			c0-0.022-0.005-0.033-0.005-0.059c-0.039-0.202-0.159-0.396-0.331-0.492c0.004-0.052,0.004-0.112,0.004-0.163
			c-0.004-0.029-0.013-0.039-0.013-0.066c0.021-0.055,0.04-0.104,0.054-0.166c0.122-0.148,0.179-0.336,0.159-0.533V43.26
			c-0.021-0.107-0.054-0.203-0.109-0.285c0.027-0.098,0.037-0.186,0.027-0.271c-0.006-0.07-0.024-0.128-0.045-0.191
			c0,0-0.033-0.099-0.047-0.124v-0.023c0.008-0.043,0-0.068,0-0.09c-0.007-0.107-0.042-0.193-0.083-0.275
			c0-0.034,0.013-0.072,0.013-0.1c0-0.021-0.006-0.041-0.013-0.068c-0.007-0.078-0.033-0.162-0.061-0.241
			c0.006-0.067,0.019-0.126,0.006-0.198c-0.006-0.105-0.038-0.221-0.105-0.307c0-0.02,0-0.035-0.002-0.055
			c-0.005-0.025-0.012-0.064-0.022-0.085c0.017-0.065,0.024-0.133,0.036-0.196v-0.152c0-0.029,0-0.062-0.012-0.08
			c0-0.008-0.002-0.027-0.002-0.051c0.039-0.068,0.069-0.153,0.081-0.239l0.02-0.146c0.004-0.064,0.004-0.115,0-0.161
			c-0.018-0.112-0.057-0.226-0.113-0.326c0.012-0.055,0.014-0.11,0.026-0.166c0.048-0.128,0.069-0.253,0.058-0.38
			c-0.003-0.064-0.017-0.122-0.042-0.184c0.014-0.074,0.028-0.157,0.026-0.225V38.62c-0.017-0.146-0.073-0.274-0.155-0.38
			c0.015-0.066,0.015-0.129,0.008-0.192c0-0.003-0.003-0.009-0.003-0.009c0.018-0.063,0.032-0.113,0.032-0.172
			c0.007-0.042,0.007-0.065,0-0.103c0-0.052-0.014-0.085-0.021-0.118c0.007-0.062,0.007-0.121,0.007-0.181
			c-0.007-0.021-0.007-0.046-0.018-0.076c-0.023-0.122-0.078-0.226-0.151-0.316v-0.019c-0.01-0.052-0.012-0.105-0.028-0.146v-0.074
			c0.104-0.137,0.156-0.316,0.146-0.506v-0.01c-0.032-0.184-0.115-0.345-0.246-0.467c0.022-0.065,0.033-0.129,0.033-0.193
			c0-0.021-0.011-0.047-0.011-0.07c0-0.082-0.04-0.164-0.077-0.246c0.052-0.1,0.077-0.221,0.063-0.336v-0.014
			c0.042-0.107,0.063-0.198,0.048-0.322h-0.003c0-0.072-0.018-0.123-0.031-0.18c0.011-0.057,0.021-0.1,0.027-0.162
			c0.003-0.032,0.003-0.084,0-0.119c-0.014-0.125-0.053-0.227-0.119-0.338c0.06-0.107,0.091-0.244,0.091-0.369
			c0-0.018-0.01-0.029-0.01-0.043c-0.015-0.188-0.11-0.367-0.255-0.492c0-0.021,0.007-0.039,0-0.068v-0.026
			c0.135-0.151,0.211-0.356,0.188-0.572c0-0.018-0.005-0.046-0.005-0.072c-0.031-0.174-0.132-0.325-0.26-0.433
			c0.104-0.104,0.178-0.258,0.202-0.412l0.017-0.125c0.011-0.045,0.011-0.107,0.004-0.161c-0.01-0.081-0.033-0.152-0.061-0.228
			c0.07,0.023,0.142,0.049,0.215,0.049c0.061,0,0.12,0,0.179-0.012c0.091,0.027,0.197,0.038,0.293,0.027
			c0.083-0.016,0.155-0.041,0.227-0.074c0.09,0.01,0.19,0.022,0.287,0l0.157-0.033c0.015,0,0.042-0.016,0.056-0.021
			c0.111,0.044,0.225,0.063,0.35,0.044c0.264-0.023,0.485-0.196,0.59-0.436c0.025,0,0.056-0.015,0.082-0.015
			c0.013,0,0.03,0.015,0.044,0.026c0.141,0.205,0.391,0.34,0.661,0.33c0.13-0.014,0.253-0.045,0.357-0.113
			c0.12,0.005,0.239-0.018,0.353-0.064c0.057-0.029,0.113-0.054,0.166-0.101c0.018,0,0.023-0.007,0.044-0.007l0.157-0.045
			c0.101-0.026,0.192-0.077,0.27-0.138c0.066-0.019,0.13-0.04,0.198-0.07l0.01-0.01c0.042,0.015,0.091,0.019,0.091,0.019
			c0.024,0.01,0.043,0.01,0.071,0.01c0.168,0.234,0.446,0.368,0.73,0.312c0.062-0.008,0.113-0.024,0.163-0.044
			c0.073,0.02,0.148,0.024,0.224,0.02c0.148-0.019,0.278-0.061,0.388-0.147c0.104,0.002,0.204-0.01,0.301-0.049
			c0.158,0.086,0.353,0.125,0.545,0.071l0.157-0.028c0.141-0.034,0.263-0.109,0.361-0.207c0.083,0.025,0.171,0.054,0.271,0.044
			c0.083-0.003,0.164-0.022,0.234-0.055c0.063,0.008,0.127,0.008,0.193-0.006h0.001c0.17,0.079,0.366,0.089,0.547,0.038
			c0.093,0.037,0.199,0.051,0.297,0.051c0.111,0,0.216-0.031,0.305-0.083c0.017,0,0.027,0.008,0.045,0.011
			c0.243,0.037,0.487-0.055,0.648-0.231c0,0,0.056-0.062,0.097-0.099c0.112,0.043,0.236,0.067,0.367,0.058
			c0.055-0.009,0.099-0.021,0.146-0.038c0.053,0.018,0.1,0.029,0.151,0.038c0.198,0.13,0.455,0.165,0.683,0.08
			c0.066,0.011,0.14,0.021,0.204,0.021h0.157c0.166,0,0.313-0.049,0.434-0.139h0.009l0.162,0.01c0.114,0,0.229-0.027,0.334-0.07
			c0.095,0.043,0.205,0.078,0.324,0.084c0.125,0,0.256-0.033,0.358-0.084c0.105,0.041,0.223,0.07,0.337,0.066
			c0.16-0.006,0.308-0.066,0.439-0.169c0.021,0.017,0.044,0.025,0.075,0.025c0.189,0.034,0.378-0.015,0.532-0.125
			c0.072,0.028,0.153,0.028,0.23,0.028c0.061,0,0.131-0.014,0.192-0.037c0.047,0.023,0.094,0.064,0.15,0.076
			c0.231,0.073,0.484,0.031,0.674-0.108c0,0,0.015-0.018,0.021-0.018c0.056-0.013,0.116-0.019,0.166-0.032
			c0.29,0.119,0.623,0.05,0.836-0.186l0.141-0.166c0.028-0.025,0.051-0.059,0.07-0.091c0.144,0.219,0.391,0.356,0.665,0.345
			c0.024,0.012,0.047,0.024,0.074,0.037c0.225,0.061,0.469,0.03,0.658-0.109c0.098,0.018,0.189,0.018,0.293,0.009
			c0.108-0.009,0.204-0.052,0.287-0.103c0.049,0.022,0.109,0.037,0.154,0.04c0.199,0.022,0.403-0.034,0.561-0.153l0.149-0.125
			c0.007,0,0.007,0,0.019-0.012c0.074,0.012,0.158,0,0.238-0.037c0.021,0,0.036-0.014,0.064-0.016
			c0.052,0.007,0.111,0.016,0.173,0.016c0.078,0.037,0.162,0.064,0.248,0.072c0.211,0.152,0.464,0.193,0.7,0.102
			c0.023-0.013,0.053-0.023,0.078-0.033h0.041c0.086-0.021,0.166-0.041,0.242-0.076c0.037,0.008,0.084,0.014,0.084,0.014
			c0.213,0.062,0.438,0,0.6-0.122c0.111,0.044,0.229,0.072,0.347,0.053c0.126-0.009,0.244-0.042,0.349-0.101
			c0.119,0.059,0.256,0.092,0.39,0.083c0.131,0.046,0.271,0.073,0.412,0.037c0.114-0.028,0.228-0.072,0.313-0.146
			c0.031-0.01,0.055-0.01,0.09-0.01c0.041-0.012,0.088-0.027,0.127-0.033c0.053,0.006,0.1,0.006,0.136-0.006l0.157-0.014
			c0.002,0,0.012,0,0.017-0.01c0.147,0.051,0.304,0.051,0.448-0.004c0.01-0.008,0.011-0.014,0.021-0.014h0.05
			c0.09,0,0.18-0.02,0.264-0.046c0.068,0.04,0.134,0.06,0.214,0.073l0.155,0.025c0.205,0.037,0.418-0.012,0.58-0.139
			c0.049,0.021,0.104,0.047,0.172,0.057c0.242,0.047,0.508-0.036,0.684-0.221c0.038,0.014,0.077,0.023,0.118,0.023
			c0.04,0.015,0.082,0.015,0.126,0.015c0.145,0.056,0.307,0.076,0.466,0.032c0.095-0.019,0.19-0.07,0.269-0.127
			c0.062,0,0.125-0.008,0.178-0.02c0.16-0.038,0.307-0.131,0.41-0.254h0.047c0.059,0,0.117-0.014,0.175-0.02
			c0.026,0,0.047,0.001,0.081,0.006c0.145,0.162,0.355,0.244,0.581,0.229c0.153,0,0.294-0.063,0.407-0.153
			c0.154,0.042,0.326,0.031,0.48-0.035c0,0,0.059-0.027,0.105-0.046c0.019,0.005,0.043,0.019,0.043,0.019
			c0.215,0.069,0.451,0.037,0.632-0.068c0.112,0.025,0.235,0.025,0.353-0.008c0.014-0.008,0.024-0.013,0.045-0.013
			c0.131,0.105,0.314,0.158,0.491,0.151c0.155,0,0.3-0.062,0.408-0.151c0.089-0.024,0.172-0.063,0.25-0.108h0.001
			c0.145,0.045,0.301,0.063,0.446,0.021c0.147,0.075,0.305,0.107,0.471,0.087c0.095-0.024,0.179-0.045,0.263-0.099
			c0.012,0,0.024,0,0.033-0.01c0.021,0,0.034-0.004,0.049-0.012c0.111,0.075,0.241,0.108,0.383,0.096
			c0.203,0,0.391-0.088,0.518-0.231c0.091-0.021,0.182-0.061,0.26-0.105c0.188,0.035,0.391,0.005,0.549-0.091l0.131-0.08
			c0.045,0.041,0.095,0.059,0.142,0.086c0,0,0.032,0.015,0.058,0.021c0.012,0.049,0.024,0.099,0.024,0.099
			c0.024,0.095,0.075,0.179,0.134,0.253c-0.115,0.143-0.193,0.311-0.193,0.492v0.076c0.004,0.038,0.01,0.07,0.02,0.108
			c-0.016,0.065-0.016,0.134-0.01,0.205c0,0.017,0,0.034,0.004,0.052c0.031,0.156,0.109,0.303,0.219,0.414
			c-0.031,0.092-0.055,0.202-0.04,0.311c0.003,0.008,0.003,0.031,0.009,0.053c0.018,0.11,0.057,0.211,0.122,0.299
			c-0.069,0.129-0.104,0.278-0.089,0.432v0.022c0.004,0.014,0.009,0.021,0.009,0.035c-0.021,0.079-0.032,0.157-0.024,0.243v0.014
			c0.004,0.055,0.024,0.113,0.041,0.178c-0.002,0.03-0.002,0.063-0.002,0.102c0,0.012,0,0.012,0.002,0.021
			c0.014,0.105,0.043,0.189,0.092,0.283c-0.049,0.108-0.064,0.223-0.053,0.34c0.004,0.063,0.014,0.105,0.027,0.152
			c0.025,0.082,0.061,0.149,0.105,0.217c0.029,0.158,0.109,0.322,0.24,0.427c-0.037,0.091-0.045,0.193-0.037,0.287
			c0,0.017,0.01,0.04,0.015,0.063c-0.024,0.084-0.035,0.182-0.024,0.26c0.006,0.07,0.02,0.138,0.047,0.201
			C68.035,33.402,68,33.535,68,33.677c0,0.017,0,0.027,0.004,0.047c0.01,0.144,0.066,0.267,0.146,0.385
			c0.004,0.005,0.013,0.038,0.021,0.054c-0.016,0.062-0.021,0.134-0.016,0.188c0.007,0.058,0.017,0.122,0.037,0.181
			c-0.021,0.067-0.037,0.134-0.041,0.193c0,0.035,0,0.075,0.004,0.112c0.007,0.088,0.033,0.168,0.07,0.24
			c-0.055,0.127-0.084,0.26-0.07,0.389c0.016,0.129,0.058,0.272,0.148,0.369l0.104,0.16c0.021,0.024,0.038,0.033,0.058,0.06
			c-0.02,0.028-0.027,0.079-0.037,0.112c0,0-0.009,0.042-0.021,0.068c-0.021,0.038-0.041,0.07-0.041,0.07
			c-0.067,0.145-0.101,0.293-0.091,0.44c0.002,0.067,0.023,0.123,0.045,0.187c0.035,0.097,0.095,0.183,0.166,0.254
			c-0.084,0.129-0.123,0.28-0.12,0.445v0.037c0.014,0.144,0.071,0.258,0.147,0.371c-0.043,0.072-0.076,0.156-0.091,0.24
			c-0.008,0.064-0.017,0.125-0.004,0.188c0.019,0.172,0.086,0.33,0.212,0.46c0,0,0.092,0.091,0.128,0.122
			c-0.102,0.124-0.161,0.279-0.17,0.443c0,0.027,0,0.067,0.005,0.088c-0.039,0.1-0.056,0.207-0.046,0.312
			c0,0.017,0.007,0.028,0.007,0.041c0.043,0.275,0.229,0.506,0.488,0.598v0.004c0,0.033,0,0.062,0.012,0.098
			c0.008,0.072,0.025,0.14,0.049,0.213c-0.149,0.153-0.234,0.373-0.211,0.592c0,0.014,0.002,0.039,0.008,0.054
			c0.023,0.179,0.119,0.31,0.242,0.427c0.006,0.048,0.029,0.098,0.029,0.098c0.006,0.045,0.016,0.084,0.037,0.123
			c0,0.023-0.007,0.049,0,0.067c0.007,0.069,0.023,0.134,0.043,0.196v0.134l0.02,0.168c0,0.022,0.004,0.05,0.012,0.085
			c0,0,0.025,0.105,0.031,0.144c0.006,0.022,0.022,0.138,0.022,0.138c-0.022,0.07-0.03,0.141-0.03,0.204
			c-0.023,0.042-0.047,0.085-0.055,0.14L69.2,43.564c-0.003,0.015-0.011,0.031-0.011,0.045l-0.039,0.162
			c-0.014,0.067-0.018,0.156-0.006,0.22c0,0.04,0.002,0.063,0.006,0.104l0.033,0.148c0.034,0.132,0.094,0.258,0.196,0.348
			c-0.014,0.042-0.014,0.101-0.007,0.153c0.007,0.021,0.007,0.036,0.007,0.042c0.007,0.043,0.015,0.078,0.036,0.123
			c-0.094,0.136-0.139,0.3-0.117,0.461v0.014c0.004,0.051,0.012,0.084,0.023,0.135c-0.006,0.039-0.006,0.063-0.006,0.124
			c-0.008,0.021-0.073,0.144-0.073,0.144c-0.06,0.118-0.08,0.259-0.063,0.385c0.004,0.061,0.019,0.131,0.041,0.201
			c0.016,0.024,0.03,0.045,0.041,0.086c-0.007,0.043-0.007,0.092-0.007,0.137v0.053c0.019,0.224,0.136,0.404,0.31,0.54v0.005
			c0,0.014-0.006,0.021-0.006,0.021c-0.055,0.132-0.076,0.258-0.063,0.379c0.006,0.043,0.019,0.091,0.026,0.141
			c-0.008,0.062-0.008,0.12-0.002,0.181c0,0.01,0,0.029,0.002,0.031c0,0,0.012,0.066,0.021,0.125v0.11c0,0.022,0,0.048,0,0.06
			c0.014,0.128,0.055,0.239,0.127,0.352c-0.031,0.094-0.042,0.19-0.035,0.299c0,0.011,0,0.023,0.004,0.032
			c0.02,0.096,0.041,0.176,0.084,0.257c-0.138,0.152-0.209,0.354-0.19,0.562c0.003,0.003,0.003,0.016,0.011,0.03
			c0.021,0.247,0.189,0.452,0.396,0.563v0.104c-0.072,0.098-0.117,0.2-0.129,0.307c-0.021,0.075-0.023,0.141-0.021,0.206
			c0.012,0.073,0.027,0.14,0.054,0.202v0.014c-0.061,0.121-0.1,0.256-0.082,0.398v0.041c0.013,0.074,0.04,0.139,0.075,0.211
			c-0.049,0.113-0.075,0.244-0.062,0.367c0.009,0.031,0.013,0.086,0.024,0.131c0.032,0.129,0.104,0.242,0.201,0.339
			c-0.024,0.088-0.043,0.188-0.031,0.288c0,0.018,0.005,0.037,0.009,0.049c0,0,0.012,0.07,0.015,0.117
			c0.001,0.053,0.001,0.113,0.001,0.113c0,0.015,0.007,0.021,0.007,0.028c0.01,0.021,0.012,0.047,0.021,0.072l-0.041,0.151
			c-0.021,0.086-0.024,0.176-0.021,0.252c0.003,0.019,0.003,0.035,0.012,0.066l0.023,0.154c0.02,0.105,0.068,0.213,0.139,0.297
			c-0.027,0.081-0.037,0.182-0.027,0.264c0.004,0.082,0.027,0.156,0.058,0.234c0,0,0.008,0,0.008,0.008
			c-0.021,0.068-0.028,0.137-0.021,0.221v0.008c0.013,0.102,0.037,0.18,0.076,0.265c0,0.015-0.002,0.026-0.002,0.026
			c-0.004,0.049-0.004,0.101-0.004,0.14c-0.049,0.112-0.078,0.246-0.062,0.373c0,0.012,0,0.014,0.006,0.034
			c0.021,0.172,0.113,0.318,0.23,0.438c-0.076,0.119-0.121,0.243-0.133,0.377l-0.003,0.165v0.111
			c0.003,0.043,0.015,0.081,0.025,0.125c-0.015,0.062-0.015,0.136-0.011,0.199c0.004,0.021,0.004,0.021,0.004,0.031
			c0.021,0.158,0.096,0.31,0.195,0.411c0.008,0.028,0.021,0.06,0.032,0.079c-0.032,0.092-0.041,0.192-0.032,0.275
			c0,0.043,0.008,0.08,0.021,0.123c0,0,0.012,0.051,0.021,0.099c-0.078,0.134-0.123,0.291-0.104,0.456
			c0.014,0.152,0.077,0.303,0.175,0.416c0.02,0.077,0.039,0.139,0.077,0.209c-0.042,0.111-0.065,0.221-0.05,0.332
			c0.005,0.068,0.012,0.115,0.033,0.168c0.043,0.128,0.127,0.246,0.225,0.339c0,0.011-0.008,0.038,0,0.067v0.031
			c0,0.02-0.012,0.041-0.012,0.056l-0.028,0.151c-0.015,0.07-0.015,0.147-0.005,0.213c0.007,0.151,0.07,0.277,0.166,0.399
			c-0.008,0.009-0.018,0.017-0.018,0.017c-0.197,0.153-0.283,0.403-0.268,0.639c0.007,0.044,0.01,0.088,0.027,0.14
			c0.025,0.07,0.051,0.136,0.092,0.198c-0.018,0.071-0.041,0.16-0.03,0.244v0.013c0.021,0.198,0.114,0.372,0.271,0.495
			c0.035,0.09,0.098,0.18,0.168,0.262c-0.071,0.125-0.105,0.275-0.092,0.41c0,0.031,0.004,0.055,0.004,0.08
			c-0.135,0.154-0.207,0.354-0.187,0.559c0,0.006,0,0.025,0.011,0.035c0.02,0.178,0.102,0.329,0.232,0.441
			c-0.075,0.127-0.107,0.268-0.104,0.424v0.01c0,0.01,0.002,0.014,0.002,0.023c-0.023,0.075-0.037,0.164-0.035,0.252
			c0,0.014,0.004,0.037,0.004,0.043c0.014,0.146,0.076,0.282,0.162,0.4c0,0.011-0.004,0.035-0.004,0.035
			c-0.006,0.051-0.012,0.117-0.002,0.166c0.008,0.102,0.043,0.207,0.1,0.304c-0.014,0.021,0,0.062,0,0.094
			c-0.066,0.117-0.092,0.245-0.071,0.387c0,0.011,0.003,0.032,0.003,0.046c0.012,0.107,0.055,0.207,0.11,0.293
			c-0.068,0.117-0.108,0.248-0.108,0.387v0.061c0.018,0.174,0.098,0.354,0.237,0.467c0,0,0.007,0.008,0.011,0.008
			c-0.027,0.104-0.04,0.193-0.035,0.297v0.01c0.024,0.167,0.09,0.308,0.189,0.415c-0.049,0.118-0.07,0.233-0.059,0.36
			c0.004,0.021,0.01,0.057,0.018,0.094c0.023,0.105,0.07,0.205,0.14,0.299c-0.065,0.123-0.099,0.266-0.088,0.404
			c0.011,0.022,0.011,0.063,0.019,0.09c0.006,0.066,0.035,0.109,0.053,0.154c-0.004,0.043-0.012,0.082-0.014,0.125
			c0,0.029,0,0.067,0.002,0.112c0.008,0.043,0.012,0.097,0.033,0.148c-0.092,0.125-0.145,0.28-0.14,0.446v0.168
			c0.005,0.006,0.005,0.027,0.005,0.041c0.021,0.199,0.113,0.383,0.266,0.508v0.05c-0.07,0.123-0.1,0.264-0.078,0.403v0.021
			c0,0.017,0.007,0.041,0.008,0.072c-0.038,0.087-0.064,0.178-0.073,0.271c0,0.038,0,0.076,0.009,0.119
			c0.004,0.07,0.022,0.148,0.057,0.214c-0.015,0.042-0.021,0.091-0.021,0.136v0.205c0.021,0.19,0.105,0.354,0.247,0.479
			c-0.015,0.047-0.017,0.093-0.017,0.13v0.22c0.017,0.131,0.062,0.248,0.125,0.35c-0.004,0.01-0.004,0.037-0.004,0.037
			c-0.008,0.055-0.008,0.11-0.008,0.172c0.004,0.031,0.008,0.059,0.012,0.08c-0.008,0.063-0.012,0.133-0.008,0.207l0.018,0.139
			c0.004,0.061,0.011,0.111,0.029,0.162c-0.058,0.109-0.097,0.238-0.097,0.363c0,0.028,0,0.037,0.003,0.051
			c0,0.023,0.006,0.05,0.018,0.068c-0.021,0.067-0.027,0.149-0.021,0.223c0.003,0.097,0.039,0.188,0.077,0.277
			c0,0,0.046,0.082,0.059,0.105c-0.09,0.148-0.133,0.312-0.115,0.479c0.004,0.028,0.004,0.058,0.012,0.092
			c0.014,0.07,0.045,0.134,0.084,0.203c-0.029,0.096-0.04,0.185-0.035,0.289c0.021,0.147,0.08,0.287,0.169,0.395
			c-0.001,0.055-0.001,0.111,0,0.166c0,0.041,0.019,0.092,0.028,0.13c-0.078,0.14,0.224,0.399,0.236,0.562l1.816,0.287
			C74.413,78.797,74.404,78.754,74.391,78.719z M28.4,28.978c-0.01,0-0.01-0.02-0.017-0.02c0,0-0.054-0.009-0.094-0.022
			c-0.144-0.125-0.311-0.199-0.501-0.232c-0.098-0.047-0.195-0.07-0.293-0.086H27.49c-0.086-0.073-0.195-0.152-0.299-0.189
			c-0.142-0.113-0.306-0.184-0.478-0.203c-0.07-0.09-0.156-0.176-0.255-0.236c0,0-0.044-0.027-0.086-0.051
			c-0.035-0.027-0.079-0.062-0.079-0.062c-0.018-0.01-0.034-0.033-0.046-0.033c-0.068-0.107-0.149-0.213-0.25-0.285l-0.116-0.104
			c-0.03-0.022-0.065-0.035-0.105-0.06c-0.019-0.026-0.041-0.052-0.065-0.083c-0.047-0.196-0.151-0.377-0.302-0.524
			c-0.009-0.017-0.009-0.025-0.023-0.052c-0.007-0.035-0.023-0.092-0.023-0.092c-0.007-0.02-0.019-0.061-0.032-0.09v-0.031
			c-0.016-0.16-0.068-0.311-0.147-0.443l-0.009-0.003c0-0.009,0.009-0.021,0.009-0.021l0.023-0.154
			c0.019-0.1,0.019-0.186,0.014-0.28c0-0.02-0.005-0.038-0.007-0.058l-0.021-0.158c0,0,0-0.012-0.009-0.012
			c0.009-0.086,0.012-0.153,0.009-0.221v-0.017c0-0.017,0-0.022,0.003-0.038c0.074-0.131,0.113-0.278,0.12-0.429
			c0,0,0.005-0.048,0.005-0.107c0.023-0.046,0.051-0.094,0.072-0.153l0.053-0.131c0.046-0.115,0.07-0.238,0.07-0.361
			c0.032-0.07,0.06-0.137,0.081-0.208c0.135-0.163,0.22-0.372,0.239-0.577c0.119-0.134,0.206-0.314,0.235-0.488
			c0.032-0.038,0.07-0.083,0.07-0.083c0.112-0.126,0.187-0.298,0.225-0.456c0.076-0.09,0.125-0.188,0.167-0.295
			c0.033-0.045,0.065-0.092,0.098-0.146c0.137-0.127,0.237-0.285,0.283-0.479c0.024-0.016,0.039-0.045,0.039-0.045
			c0.058-0.04,0.102-0.096,0.151-0.148c0.081-0.066,0.16-0.139,0.22-0.229c0,0,0.058-0.092,0.076-0.115
			c0.024-0.037,0.064-0.078,0.072-0.104c0.013-0.004,0.086-0.102,0.086-0.102c0.044-0.059,0.081-0.109,0.116-0.166
			c0,0.02-0.005,0.047,0,0.069c0,0.03,0.009,0.07,0.016,0.112c-0.005,0.064-0.007,0.125,0,0.189
			c0.009,0.074,0.028,0.155,0.053,0.214c-0.01,0.048-0.01,0.108-0.01,0.108c0,0.044,0,0.084,0.01,0.124
			c0.004,0.059,0.017,0.118,0.028,0.173c-0.014,0.097-0.02,0.195-0.011,0.29c0,0.024,0.007,0.062,0.022,0.104
			c-0.015,0.068-0.015,0.141-0.011,0.199c0.011,0.032,0.011,0.056,0.011,0.077c0,0.084-0.011,0.151,0,0.231
			c0.005,0.094,0.041,0.199,0.078,0.289c-0.028,0.112-0.03,0.215-0.021,0.318c0.002,0.08,0.021,0.15,0.042,0.222
			c0,0.029,0,0.053,0.003,0.09c0,0.018,0.016,0.059,0.021,0.079l0.018,0.152c0,0.01,0.007,0.018,0.014,0.035
			c-0.007,0.06-0.007,0.121,0,0.173c0,0.044,0.005,0.068,0.012,0.088c0,0,0,0.026,0.005,0.042c0,0.014-0.005,0.052-0.005,0.052
			l-0.007,0.146c0,0.052,0,0.1,0.007,0.146c0.005,0.082,0.028,0.163,0.044,0.24c0,0,0.032,0.085,0.048,0.123
			c0.005,0.026,0.019,0.046,0.026,0.083c0,0.062-0.005,0.107,0,0.158c0,0.018,0.006,0.039,0.006,0.054
			c-0.013,0.08-0.021,0.176-0.013,0.261c0.002,0.02,0.007,0.041,0.007,0.049l0.018,0.152c0.005,0.061,0.028,0.107,0.044,0.15
			c0,0.041-0.006,0.076-0.006,0.115c0.006,0.025,0.006,0.053,0.02,0.078c-0.014,0.068-0.02,0.15-0.004,0.226
			c0,0,0.004,0.016,0.004,0.027c-0.004,0.017-0.014,0.024-0.014,0.024c-0.009,0.089-0.009,0.175-0.006,0.253
			c0.016,0.087,0.031,0.188,0.067,0.265l0.007,0.164c0,0.014,0,0.028,0.005,0.028c0.005,0.063,0.021,0.14,0.035,0.197
			c0,0.042-0.006,0.094-0.006,0.094c-0.001,0.065-0.001,0.112,0,0.173c0.008,0.096,0.032,0.181,0.068,0.266
			c-0.032,0.121-0.039,0.236-0.032,0.357c0.011,0.141,0.062,0.285,0.139,0.43c0,0.023-0.005,0.062-0.005,0.1l0.005,0.158v0.025
			c-0.023,0.123-0.038,0.236-0.023,0.361c0.007,0.072,0.019,0.148,0.045,0.227c0,0.018,0,0.048,0.004,0.076
			c0,0.007,0.007,0.024,0.009,0.044H28.4V28.978z"/>
	</g>
</g>
<path d="M68.523,54.047c-0.566-0.249-1.226,0.012-1.479,0.586c0,0-0.011,0.02-0.011,0.031c-0.003,0-0.003,0.001-0.003,0.011
	c-0.156,0.075-0.278,0.192-0.385,0.347c-0.047,0.03-0.104,0.084-0.142,0.137c-0.134,0.062-0.248,0.145-0.345,0.251
	c-0.016,0.012-0.041,0.021-0.041,0.021c-0.096,0.049-0.18,0.109-0.26,0.166v0.006l-0.008,0.006c-0.1,0.058-0.188,0.117-0.269,0.187
	c-0.135,0.032-0.271,0.08-0.394,0.164c-0.114,0.03-0.226,0.082-0.332,0.156c-0.125,0.026-0.25,0.075-0.359,0.155
	c-0.041,0.006-0.084,0.025-0.084,0.025c-0.126,0.02-0.255,0.086-0.363,0.152c-0.035,0-0.078,0.018-0.078,0.018
	c-0.056,0-0.1,0.004-0.154,0.016c-0.176-0.012-0.355,0.041-0.521,0.115c-0.187-0.025-0.368,0.008-0.539,0.076
	c-0.118-0.021-0.235-0.021-0.347-0.011c-0.085-0.011-0.163-0.011-0.24,0l-0.146,0.011c-0.099,0.01-0.189,0.027-0.278,0.055
	c-0.073,0.017-0.142,0.019-0.202,0.033c-0.04-0.006-0.082-0.014-0.118-0.014c-0.071-0.027-0.151-0.047-0.224-0.064h-0.038
	c-0.211-0.125-0.456-0.174-0.694-0.137c-0.011-0.01-0.035-0.023-0.035-0.023c-0.154-0.057-0.32-0.082-0.492-0.073h-0.006
	l-0.004-0.009h-0.047c0,0-0.037-0.004-0.068-0.017c-0.064-0.038-0.139-0.065-0.219-0.091c-0.135-0.078-0.281-0.129-0.437-0.15
	c-0.158-0.089-0.332-0.143-0.506-0.143c-0.151-0.117-0.325-0.205-0.513-0.236l-0.156-0.021c-0.098-0.021-0.199-0.021-0.295-0.015
	c-0.088-0.043-0.188-0.086-0.291-0.104c0,0-0.032,0-0.063-0.008c-0.034-0.01-0.069-0.03-0.069-0.03
	c-0.215-0.082-0.455-0.087-0.678-0.03c-0.207-0.057-0.43-0.074-0.637-0.022c-0.127-0.013-0.251-0.013-0.387,0.016
	c-0.172-0.016-0.361,0.009-0.531,0.083c-0.176,0.023-0.344,0.087-0.487,0.192H54.48l-0.16,0.038
	c-0.053,0.021-0.114,0.035-0.168,0.058l-0.141,0.069c-0.096,0.035-0.189,0.085-0.27,0.152c-0.126,0.037-0.248,0.088-0.358,0.16
	l-0.132,0.094c-0.195,0.127-0.333,0.324-0.41,0.539c-0.025,0.022-0.041,0.039-0.041,0.039c-0.06,0.07-0.113,0.154-0.162,0.223
	l-0.068,0.146c-0.008,0.016-0.014,0.029-0.021,0.044c-0.059,0.066-0.105,0.146-0.148,0.232c-0.114,0.112-0.2,0.248-0.256,0.414
	c0,0-0.026,0.104-0.039,0.135c-0.008,0.03-0.043,0.121-0.043,0.121c-0.047,0.126-0.069,0.267-0.069,0.392l0.008,0.163
	c0,0.015,0,0.025,0.006,0.041c-0.112,0.198-0.157,0.414-0.135,0.646c0.002,0.051,0.017,0.121,0.035,0.184
	c-0.041,0.128-0.056,0.264-0.044,0.407c0.011,0.11,0.037,0.214,0.082,0.317c0,0.035,0,0.06,0.006,0.092
	c0,0.057,0.01,0.102,0.02,0.143c-0.017,0.104-0.02,0.201-0.01,0.297c0.01,0.137,0.051,0.25,0.102,0.379
	c0.035,0.182,0.104,0.35,0.209,0.485c0.039,0.104,0.096,0.21,0.162,0.308l0.1,0.119c0,0,0,0.002,0.003,0.008
	c0.04,0.155,0.114,0.305,0.21,0.435l0.1,0.126c0.01,0.011,0.03,0.025,0.047,0.047c0.056,0.116,0.123,0.225,0.215,0.307l0.11,0.114
	c0.077,0.078,0.154,0.132,0.234,0.172c0.049,0.054,0.104,0.104,0.157,0.144c0.133,0.156,0.308,0.283,0.49,0.354
	c0.1,0.062,0.192,0.124,0.307,0.146c0.176,0.218,0.434,0.373,0.724,0.406c0.106,0.064,0.226,0.114,0.353,0.142
	c0,0,0.045,0.006,0.088,0.016c0.041,0.021,0.091,0.028,0.091,0.028c0.065,0.031,0.138,0.035,0.212,0.046c0,0,0.016,0,0.038,0.015
	c0.126,0.057,0.267,0.1,0.405,0.12c0.012,0.002,0.035,0.017,0.052,0.017l0.147,0.049c0.104,0.035,0.207,0.043,0.309,0.043
	c0.137,0.092,0.287,0.137,0.438,0.154c0.221,0.131,0.478,0.186,0.729,0.16c0.026,0,0.12,0.028,0.139,0.028
	c0.009,0.015,0.136,0.042,0.136,0.042c0.141,0.057,0.274,0.07,0.422,0.057l0.012,0.015c0.176,0.053,0.357,0.073,0.54,0.046
	c0.089,0.012,0.187,0.016,0.28,0.007c0.094,0.032,0.188,0.06,0.289,0.06c0,0,0.041,0,0.08,0.014c0.047,0,0.088,0.009,0.088,0.009
	c0.184,0.035,0.363,0.019,0.537-0.039c0.164,0.058,0.323,0.058,0.49,0.03c0.077,0.009,0.15,0.009,0.229,0
	c0.014,0,0.023,0.009,0.041,0.009l0.156,0.028c0.035,0,0.073,0.007,0.11,0.007h0.155c0.141,0,0.273-0.019,0.408-0.058
	c0.26,0.058,0.518,0.021,0.738-0.093c0.021,0.011,0.036,0.011,0.036,0.011c0.024,0.006,0.042,0.006,0.054,0.006h0.129
	c0.039,0.002,0.119,0.011,0.119,0.011c0.061,0.007,0.116,0.007,0.168,0.007l0.153-0.016c0.086-0.002,0.167-0.019,0.249-0.037
	c0.168,0,0.342-0.041,0.503-0.118c0.05-0.021,0.104-0.022,0.165-0.037c0.09,0,0.189,0,0.281-0.022
	c0.182,0.008,0.365-0.017,0.533-0.086c0.057-0.004,0.115-0.017,0.174-0.037l0.142-0.043c0.106-0.021,0.204-0.072,0.294-0.127
	c0.045-0.014,0.083-0.037,0.126-0.052c0.206,0.038,0.41,0,0.61-0.073c0.1-0.018,0.189-0.037,0.273-0.074h0.01h0.012
	c0.088-0.027,0.17-0.043,0.255-0.08c0,0,0.022-0.012,0.042-0.021c0.02,0,0.042-0.01,0.042-0.01c0.125-0.02,0.244-0.082,0.353-0.146
	c0.127-0.032,0.254-0.102,0.359-0.174c0.04-0.027,0.084-0.043,0.123-0.068c0,0,0.044-0.016,0.082-0.036
	c0.025-0.003,0.031-0.003,0.045-0.011c0.032,0,0.109-0.01,0.109-0.01c0.289-0.022,0.562-0.158,0.744-0.365
	c0.332-0.233,0.531-0.621,0.494-1.03v-0.027c-0.063-0.614-0.621-1.05-1.238-1l-0.135,0.019c-0.219,0.024-0.418,0.113-0.582,0.259
	h-0.049c-0.065,0.021-0.133,0.042-0.197,0.069l-0.141,0.056c-0.01,0.006-0.023,0.022-0.045,0.022
	c-0.082,0.021-0.152,0.043-0.216,0.08c-0.231,0.024-0.437,0.129-0.61,0.284c-0.05,0.004-0.096,0.022-0.138,0.04
	c-0.187-0.036-0.371-0.023-0.552,0.042c0,0-0.053,0.006-0.098,0.019c-0.049,0.018-0.107,0.026-0.107,0.026
	c-0.07,0.017-0.143,0.043-0.221,0.078c-0.141,0.019-0.278,0.078-0.41,0.154c-0.17-0.037-0.333-0.017-0.494,0.03
	c-0.133,0-0.253,0.021-0.375,0.082l-0.137,0.053c-0.004,0-0.014,0.009-0.014,0.009c-0.246-0.047-0.5,0-0.725,0.114h-0.01
	c-0.021,0-0.041,0-0.078-0.006c-0.039-0.01-0.102-0.022-0.102-0.022c-0.103-0.013-0.209-0.013-0.32,0l-0.145,0.015
	c-0.072,0.008-0.142,0.026-0.218,0.051c-0.171-0.017-0.338-0.004-0.5,0.049l-0.028,0.015c-0.134-0.053-0.275-0.067-0.41-0.063
	c-0.188-0.041-0.371-0.041-0.549,0.006c-0.014-0.006-0.146-0.021-0.146-0.021c-0.142-0.034-0.288-0.026-0.433,0.007
	c-0.162-0.056-0.328-0.078-0.502-0.067c-0.188-0.052-0.39-0.071-0.591-0.028c-0.112-0.021-0.225-0.023-0.344-0.021h-0.008
	c-0.056-0.031-0.121-0.062-0.185-0.076l-0.146-0.035c-0.022-0.016-0.054-0.016-0.078-0.016c-0.049-0.022-0.099-0.049-0.153-0.068
	l-0.143-0.038c-0.092-0.039-0.186-0.054-0.288-0.067c-0.133-0.076-0.283-0.128-0.438-0.128l-0.136-0.01h-0.017
	c-0.157-0.077-0.328-0.117-0.493-0.117c-0.049-0.013-0.081-0.013-0.125-0.022l-0.151-0.021h-0.033h-0.043
	c-0.065-0.059-0.131-0.094-0.213-0.134c-0.152-0.146-0.355-0.265-0.582-0.313c-0.093-0.082-0.19-0.152-0.309-0.203
	c-0.064-0.098-0.15-0.185-0.248-0.254c-0.064-0.117-0.152-0.227-0.253-0.312c-0.026-0.053-0.062-0.104-0.103-0.156l-0.086-0.127
	c-0.026-0.033-0.051-0.061-0.076-0.09l-0.004-0.021c-0.027-0.059-0.051-0.125-0.086-0.188v-0.003c0.018-0.1,0.018-0.196,0.013-0.297
	c-0.005-0.047-0.013-0.09-0.027-0.146c0-0.031,0-0.062-0.007-0.109c-0.007-0.09-0.021-0.18-0.053-0.262c0-0.039,0.008-0.08,0-0.113
	c0,0,0-0.077-0.006-0.114c0.022-0.068,0.045-0.121,0.052-0.179l0.038-0.15c0.004-0.027,0.009-0.064,0.009-0.091l0.021-0.148
	c0.006-0.065,0.006-0.127,0-0.186c0.061-0.082,0.116-0.183,0.148-0.284c0.066-0.102,0.115-0.206,0.15-0.318
	c0-0.007,0.024-0.024,0.024-0.024c0.011-0.017,0.022-0.038,0.045-0.05c0.04-0.021,0.077-0.035,0.119-0.063l0.13-0.081
	c0.035-0.02,0.068-0.061,0.104-0.084c0.072-0.008,0.133-0.018,0.203-0.043l0.152-0.041c0.107-0.023,0.217-0.084,0.309-0.156h0.008
	c0.007,0,0.014,0.01,0.023,0.012l0.157,0.027c0.11,0.027,0.235,0.027,0.347,0.016c0.097,0.021,0.205,0.037,0.304,0.037l0.159,0.016
	c0.056,0,0.121-0.016,0.18-0.032c0.088,0.04,0.182,0.063,0.271,0.082c0.131,0.065,0.278,0.099,0.426,0.106
	c0.111,0.068,0.233,0.121,0.365,0.143c0,0,0.035,0,0.068,0.014c0.046,0.016,0.083,0.028,0.083,0.028
	c0.05,0.021,0.112,0.021,0.172,0.033c0.151,0.104,0.321,0.149,0.511,0.17c0.073,0.021,0.152,0.047,0.234,0.06
	c0.062,0.03,0.124,0.041,0.193,0.053l0.135,0.029c0.009,0,0.035,0,0.052,0.006c0,0,0.097,0.016,0.121,0.021
	c0.038,0.009,0.136,0.028,0.136,0.028c0.038,0.012,0.077,0.012,0.117,0.017c0.047,0.024,0.105,0.046,0.16,0.069l0.145,0.055
	c0.183,0.064,0.379,0.078,0.57,0.047c0.014,0,0.032,0,0.049,0.018c0.17,0.086,0.369,0.119,0.562,0.111h0.031
	c0.002,0,0.021,0.008,0.021,0.008h0.03l0.156,0.019c0.155,0.026,0.324,0.019,0.479-0.021c0.033,0,0.07,0,0.104-0.006
	c0.125,0.043,0.254,0.065,0.385,0.053c0.156,0,0.309-0.037,0.443-0.101c0.147,0.022,0.293,0.013,0.445-0.022
	c0.178,0,0.361-0.041,0.523-0.127c0.193,0.011,0.389-0.031,0.556-0.103h0.144c0.246,0.005,0.471-0.077,0.666-0.212
	c0.196-0.041,0.383-0.146,0.535-0.279c0.023-0.018,0.049-0.027,0.076-0.039c0,0,0.032-0.027,0.061-0.039
	c0.084-0.016,0.166-0.039,0.244-0.078c0.205-0.031,0.395-0.107,0.555-0.235c0.19-0.077,0.365-0.216,0.481-0.386
	c0.147-0.041,0.294-0.098,0.411-0.192c0.223-0.082,0.426-0.244,0.564-0.451c0,0,0.025-0.055,0.049-0.082
	c0.044-0.038,0.084-0.079,0.121-0.114c0.166-0.104,0.306-0.228,0.4-0.402c0,0,0.047-0.083,0.067-0.118
	c0.017-0.024,0.042-0.048,0.053-0.076c0.024-0.035,0.076-0.101,0.076-0.101c0.052-0.068,0.08-0.137,0.12-0.217l0.062-0.149
	c0.08-0.177,0.105-0.363,0.084-0.544C69.157,54.59,68.911,54.223,68.523,54.047"/>
<path d="M35.426,54.812c0.551-0.281,1.226-0.058,1.512,0.5c0,0,0.01,0.02,0.012,0.032c0.004,0,0.004,0.003,0.004,0.013
	c0.161,0.063,0.288,0.176,0.4,0.319c0.05,0.031,0.111,0.082,0.151,0.132c0.137,0.051,0.257,0.129,0.358,0.228
	c0.018,0.013,0.042,0.021,0.042,0.021c0.098,0.043,0.186,0.101,0.267,0.152v0.003l0.009,0.007c0.104,0.053,0.195,0.108,0.279,0.172
	c0.136,0.025,0.274,0.064,0.403,0.142c0.115,0.024,0.23,0.067,0.339,0.138c0.126,0.021,0.254,0.062,0.369,0.137
	c0.04,0.004,0.084,0.02,0.084,0.02c0.127,0.014,0.26,0.072,0.369,0.133c0.039-0.002,0.081,0.012,0.081,0.012
	c0.053-0.004,0.1,0,0.152,0.01c0.176-0.022,0.359,0.021,0.527,0.084c0.186-0.034,0.369-0.015,0.544,0.045
	c0.116-0.026,0.232-0.032,0.344-0.029c0.084-0.016,0.162-0.02,0.241-0.016l0.148,0.004c0.097,0.005,0.188,0.018,0.277,0.039
	c0.075,0.013,0.145,0.011,0.207,0.021c0.039-0.006,0.079-0.017,0.117-0.021c0.069-0.03,0.148-0.055,0.218-0.074
	c0,0,0.031-0.003,0.041-0.003c0.202-0.138,0.444-0.2,0.683-0.177c0.011-0.012,0.034-0.024,0.034-0.024
	c0.153-0.065,0.316-0.101,0.486-0.103h0.007l0.004-0.009c0.017-0.002,0.042-0.002,0.047-0.005c0,0,0.037-0.007,0.067-0.018
	c0.063-0.041,0.134-0.074,0.212-0.104c0.131-0.086,0.273-0.146,0.429-0.177c0.154-0.097,0.323-0.16,0.499-0.17
	c0.144-0.126,0.31-0.222,0.496-0.265l0.156-0.032c0.097-0.025,0.197-0.031,0.293-0.027c0.084-0.048,0.185-0.096,0.286-0.123
	c0,0,0.031,0,0.062-0.012c0.034-0.009,0.067-0.031,0.067-0.031c0.211-0.093,0.45-0.112,0.675-0.069
	c0.204-0.066,0.426-0.099,0.637-0.059c0.126-0.021,0.25-0.025,0.386-0.007c0.172-0.025,0.362-0.013,0.535,0.052
	c0.175,0.014,0.349,0.067,0.497,0.166c0.023-0.002,0.045-0.005,0.07-0.005l0.157,0.028c0.059,0.017,0.12,0.031,0.173,0.05
	l0.146,0.062c0.096,0.029,0.193,0.074,0.279,0.135c0.129,0.033,0.252,0.078,0.366,0.142l0.141,0.085
	c0.199,0.118,0.35,0.307,0.437,0.518c0.024,0.021,0.042,0.037,0.042,0.037c0.066,0.068,0.124,0.146,0.175,0.215l0.078,0.138
	c0.013,0.015,0.015,0.03,0.024,0.045c0.062,0.063,0.113,0.139,0.158,0.223c0.123,0.105,0.215,0.236,0.281,0.4
	c0,0,0.032,0.102,0.046,0.131c0.011,0.03,0.052,0.12,0.052,0.12c0.053,0.122,0.082,0.261,0.09,0.387l0.002,0.163
	c0,0.017,0,0.024-0.004,0.041c0.123,0.19,0.181,0.406,0.173,0.635c0,0.054-0.013,0.125-0.024,0.187
	c0.047,0.127,0.068,0.262,0.067,0.404c-0.007,0.11-0.027,0.217-0.065,0.323c0.002,0.035,0.006,0.058,0,0.091
	c0.002,0.057-0.005,0.101-0.013,0.144c0.022,0.103,0.032,0.2,0.026,0.294c-0.002,0.139-0.037,0.256-0.078,0.385
	c-0.025,0.184-0.084,0.354-0.185,0.499c-0.032,0.106-0.081,0.214-0.143,0.315l-0.093,0.123c0,0,0,0.004-0.004,0.01
	c-0.03,0.156-0.098,0.309-0.185,0.443l-0.089,0.131c-0.012,0.013-0.032,0.026-0.047,0.051c-0.049,0.117-0.11,0.229-0.195,0.318
	l-0.105,0.119c-0.071,0.084-0.146,0.142-0.225,0.187c-0.044,0.056-0.1,0.108-0.146,0.151c-0.122,0.164-0.293,0.301-0.47,0.381
	c-0.096,0.065-0.186,0.133-0.298,0.166c-0.164,0.225-0.41,0.396-0.698,0.447c-0.104,0.067-0.218,0.125-0.343,0.157
	c0,0-0.046,0.006-0.086,0.022c-0.042,0.021-0.09,0.031-0.09,0.031c-0.065,0.033-0.138,0.041-0.211,0.055c0,0-0.016,0.003-0.035,0.02
	c-0.125,0.062-0.262,0.114-0.399,0.145c-0.01,0.002-0.034,0.018-0.051,0.02l-0.145,0.055c-0.105,0.043-0.204,0.058-0.305,0.062
	c-0.132,0.1-0.281,0.15-0.429,0.177c-0.213,0.146-0.466,0.214-0.719,0.202c-0.026,0.002-0.119,0.035-0.137,0.037
	c-0.009,0.016-0.134,0.051-0.134,0.051c-0.137,0.064-0.271,0.085-0.421,0.078l-0.008,0.016c-0.172,0.062-0.352,0.094-0.536,0.076
	c-0.089,0.016-0.185,0.027-0.28,0.023c-0.091,0.037-0.186,0.07-0.285,0.074c0,0-0.041,0.002-0.08,0.02
	c-0.046,0.002-0.087,0.012-0.087,0.012c-0.181,0.047-0.363,0.039-0.539-0.008c-0.162,0.064-0.321,0.074-0.488,0.059
	c-0.076,0.013-0.149,0.017-0.23,0.013c-0.013,0.002-0.02,0.01-0.039,0.012L43.165,66c-0.037,0.002-0.075,0.011-0.11,0.012
	l-0.156,0.01c-0.14,0.009-0.274-0.004-0.411-0.033c-0.256,0.07-0.516,0.05-0.742-0.053c-0.021,0.013-0.037,0.014-0.037,0.014
	c-0.023,0.006-0.041,0.007-0.054,0.007c0,0-0.085,0.007-0.127,0.007c-0.039,0.008-0.119,0.02-0.119,0.02
	c-0.059,0.013-0.115,0.017-0.169,0.017l-0.154-0.007c-0.082,0.003-0.165-0.008-0.249-0.022c-0.168,0.009-0.343-0.021-0.508-0.09
	c-0.052-0.017-0.108-0.019-0.167-0.026c-0.09,0.006-0.192,0.012-0.283-0.01c-0.179,0.021-0.366,0.006-0.538-0.053
	c-0.057-0.003-0.114-0.012-0.175-0.03l-0.145-0.032c-0.108-0.014-0.207-0.062-0.299-0.11c-0.044-0.009-0.084-0.032-0.13-0.04
	c-0.202,0.047-0.411,0.021-0.612-0.043c-0.101-0.014-0.192-0.027-0.279-0.059h-0.007l-0.014,0.002
	c-0.089-0.023-0.173-0.033-0.259-0.066c0,0-0.024-0.01-0.044-0.018c-0.019,0-0.042-0.011-0.042-0.011
	c-0.126-0.01-0.25-0.065-0.363-0.123c-0.129-0.026-0.256-0.088-0.367-0.155c-0.042-0.023-0.088-0.035-0.128-0.062
	c0,0-0.042-0.014-0.083-0.03c-0.024-0.004-0.03-0.002-0.044-0.008c-0.033,0-0.11-0.004-0.11-0.004
	c-0.291-0.008-0.569-0.127-0.767-0.322c-0.344-0.217-0.563-0.59-0.549-1.002c-0.001-0.016-0.001-0.022-0.001-0.027
	c0.028-0.616,0.562-1.084,1.183-1.069l0.13,0.013c0.222,0.012,0.425,0.09,0.6,0.225c0.017-0.002,0.044-0.002,0.044-0.002
	c0.07,0.018,0.138,0.035,0.202,0.057l0.146,0.049c0.011,0.006,0.026,0.021,0.047,0.021c0.08,0.018,0.155,0.035,0.221,0.066
	c0.232,0.012,0.443,0.104,0.625,0.249c0.049,0,0.096,0.019,0.141,0.031c0.18-0.046,0.368-0.045,0.552,0.012
	c0,0,0.054,0.003,0.099,0.015c0.048,0.014,0.11,0.02,0.11,0.02c0.07,0.014,0.143,0.037,0.221,0.064
	c0.143,0.01,0.286,0.062,0.422,0.131c0.166-0.047,0.33-0.033,0.495,0.006c0.131-0.01,0.255,0.006,0.377,0.059l0.14,0.045
	c0.005,0,0.014,0.006,0.014,0.006c0.243-0.057,0.5-0.026,0.732,0.076h0.006c0.022-0.003,0.041-0.006,0.081-0.013
	c0.039-0.011,0.1-0.028,0.1-0.028c0.1-0.016,0.207-0.022,0.318-0.016l0.144,0.002c0.074,0.006,0.144,0.021,0.222,0.042
	c0.168-0.026,0.337-0.024,0.5,0.019l0.028,0.015c0.131-0.062,0.273-0.084,0.408-0.086c0.185-0.056,0.365-0.064,0.547-0.025
	c0.012-0.006,0.144-0.03,0.144-0.03c0.141-0.045,0.286-0.041,0.433-0.02c0.158-0.062,0.324-0.096,0.496-0.093
	c0.185-0.065,0.384-0.097,0.588-0.062c0.113-0.028,0.224-0.038,0.345-0.043h0.007c0.054-0.034,0.119-0.067,0.18-0.088l0.144-0.043
	c0.023-0.017,0.053-0.019,0.076-0.021c0.047-0.024,0.097-0.055,0.148-0.075l0.141-0.05c0.091-0.043,0.183-0.062,0.284-0.082
	c0.128-0.084,0.276-0.145,0.431-0.151l0.135-0.019c0.005,0,0.005,0,0.015-0.002c0.154-0.086,0.322-0.135,0.485-0.143
	c0.048-0.016,0.082-0.018,0.124-0.031l0.153-0.031c0.007,0,0.021,0,0.032,0c0,0,0.02-0.002,0.042-0.002
	c0.062-0.062,0.125-0.104,0.205-0.146c0.143-0.153,0.34-0.285,0.562-0.345c0.089-0.092,0.183-0.163,0.298-0.223
	c0.058-0.101,0.141-0.191,0.232-0.27c0.058-0.119,0.138-0.232,0.236-0.323c0.022-0.052,0.056-0.106,0.091-0.161l0.078-0.133
	c0.025-0.037,0.049-0.064,0.073-0.094l0.004-0.023c0.024-0.061,0.043-0.127,0.075-0.193v-0.002c-0.022-0.098-0.028-0.195-0.03-0.297
	c0.002-0.045,0.009-0.088,0.019-0.145c-0.002-0.035-0.002-0.064-0.001-0.111c0.003-0.093,0.014-0.18,0.039-0.264
	c-0.003-0.04-0.01-0.082-0.007-0.113c0,0-0.003-0.078,0.002-0.115c-0.026-0.065-0.051-0.121-0.063-0.176l-0.044-0.147
	c-0.007-0.028-0.012-0.064-0.014-0.089l-0.028-0.147c-0.013-0.065-0.014-0.127-0.011-0.188c-0.067-0.075-0.128-0.174-0.165-0.272
	c-0.074-0.099-0.129-0.201-0.169-0.312c-0.002-0.004-0.024-0.021-0.024-0.021c-0.013-0.019-0.027-0.04-0.049-0.049
	c-0.042-0.021-0.081-0.029-0.122-0.056l-0.135-0.076c-0.038-0.02-0.073-0.057-0.109-0.077c-0.072-0.004-0.134-0.011-0.208-0.031
	l-0.15-0.032c-0.108-0.017-0.22-0.07-0.319-0.138h-0.005c-0.007,0.002-0.014,0.011-0.024,0.015l-0.155,0.037
	c-0.111,0.03-0.235,0.037-0.345,0.03c-0.097,0.026-0.204,0.05-0.302,0.056l-0.158,0.024c-0.055,0.003-0.121-0.008-0.182-0.021
	c-0.085,0.043-0.177,0.073-0.265,0.097c-0.13,0.073-0.272,0.114-0.42,0.13c-0.105,0.078-0.229,0.135-0.358,0.164
	c0,0-0.033,0.003-0.068,0.018c-0.043,0.018-0.08,0.032-0.08,0.032c-0.051,0.024-0.113,0.028-0.169,0.042
	c-0.146,0.111-0.314,0.169-0.501,0.199c-0.073,0.025-0.151,0.057-0.23,0.072c-0.063,0.035-0.124,0.047-0.191,0.062l-0.134,0.038
	c-0.009,0-0.033,0.002-0.052,0.007c0,0-0.092,0.021-0.117,0.028c-0.041,0.012-0.136,0.034-0.136,0.034
	c-0.036,0.015-0.078,0.019-0.115,0.024c-0.046,0.026-0.104,0.052-0.156,0.079L44.145,59.1c-0.181,0.072-0.378,0.101-0.569,0.077
	c-0.012,0.001-0.033,0.003-0.049,0.021c-0.164,0.098-0.358,0.141-0.553,0.143c0,0-0.022,0.001-0.029,0.001
	c-0.003,0-0.022,0.012-0.022,0.012c-0.016,0.002-0.023,0.002-0.03,0.004l-0.157,0.024c-0.152,0.033-0.319,0.035-0.478,0.005
	c-0.033,0.002-0.07,0.006-0.103,0c-0.123,0.053-0.251,0.082-0.383,0.075c-0.155,0.008-0.309-0.021-0.447-0.075
	c-0.146,0.032-0.292,0.03-0.446,0.002c-0.178,0.01-0.365-0.02-0.529-0.096c-0.194,0.021-0.388-0.01-0.561-0.07
	c-0.037,0.004-0.144,0.008-0.144,0.008c-0.245,0.019-0.475-0.049-0.675-0.174c-0.199-0.029-0.392-0.125-0.551-0.248
	c-0.024-0.017-0.05-0.024-0.079-0.035c0,0-0.031-0.028-0.063-0.035c-0.086-0.01-0.166-0.029-0.246-0.063
	c-0.204-0.021-0.4-0.087-0.566-0.204c-0.197-0.066-0.376-0.195-0.505-0.357c-0.149-0.035-0.299-0.081-0.42-0.17
	c-0.227-0.069-0.439-0.221-0.59-0.418c0,0-0.029-0.053-0.054-0.08c-0.045-0.035-0.088-0.073-0.126-0.106
	c-0.172-0.095-0.32-0.211-0.424-0.381c0,0-0.05-0.08-0.071-0.113c-0.018-0.024-0.046-0.046-0.056-0.073
	c-0.028-0.033-0.083-0.097-0.083-0.097c-0.056-0.065-0.089-0.131-0.131-0.209l-0.073-0.146c-0.089-0.17-0.124-0.355-0.115-0.535
	C34.824,55.391,35.049,55.011,35.426,54.812"/>
<path d="M35.771,88.479c0,0-0.002-0.096-0.004-0.141c0-0.012-0.004-0.012-0.008-0.027l-0.018-0.146c0-0.051-0.02-0.094-0.028-0.143
	c0.007-0.018,0.014-0.025,0.025-0.039l0.069-0.168c0.062-0.14,0.083-0.287,0.064-0.435c0-0.03-0.004-0.062-0.008-0.086l-0.042-0.16
	c-0.038-0.217-0.157-0.397-0.319-0.513c0.009-0.023,0.022-0.049,0.028-0.087l0.023-0.154c0.014-0.08,0.015-0.153,0.007-0.231
	c-0.013-0.139-0.063-0.281-0.146-0.396c0.094-0.137,0.143-0.306,0.133-0.479v-0.152c0-0.021-0.004-0.035-0.004-0.059
	c-0.002-0.023-0.012-0.062-0.019-0.096c0.01-0.02,0.021-0.042,0.028-0.062c0.03-0.104,0.034-0.205,0.026-0.308
	c-0.01-0.074-0.031-0.13-0.045-0.188c0.021-0.089,0.029-0.177,0.018-0.279c0,0,0-0.021-0.007-0.026
	c-0.017-0.179-0.088-0.322-0.193-0.448c0.062-0.128,0.092-0.273,0.07-0.438l-0.014-0.174c-0.013-0.104-0.049-0.213-0.086-0.297
	l0.002-0.019c-0.002-0.011-0.002-0.028-0.002-0.03c-0.012-0.089-0.044-0.188-0.077-0.269c0.062-0.135,0.087-0.295,0.073-0.451
	c-0.001-0.013-0.002-0.03-0.007-0.049c-0.021-0.14-0.075-0.266-0.148-0.356c-0.002-0.046-0.002-0.073-0.002-0.11
	c-0.012-0.124-0.058-0.24-0.125-0.357c0.028-0.07,0.036-0.142,0.048-0.23v-0.17c0.005-0.029,0.005-0.072,0-0.115
	c-0.016-0.113-0.041-0.219-0.101-0.324c0-0.012,0.011-0.029,0.011-0.049c0.083-0.154,0.126-0.33,0.104-0.502
	c0-0.033,0-0.047-0.009-0.08c-0.021-0.121-0.074-0.236-0.136-0.333c0.057-0.144,0.094-0.288,0.082-0.45
	c-0.005-0.041-0.012-0.074-0.012-0.095c-0.023-0.091-0.042-0.155-0.079-0.222v-0.027c-0.034-0.268-0.171-0.499-0.392-0.639
	c0.221-0.148,0.337-0.441,0.308-0.729v-0.029c-0.028-0.232-0.148-0.432-0.325-0.574c-0.012-0.033-0.035-0.061-0.055-0.104
	c-0.021-0.112-0.065-0.24-0.132-0.35c0.036-0.095,0.057-0.193,0.071-0.291c0.077-0.137,0.115-0.311,0.094-0.482
	c0.01-0.029,0.024-0.052,0.031-0.08c0.022-0.096,0.032-0.191,0.021-0.285c-0.009-0.033-0.016-0.074-0.023-0.111
	c0.041-0.096,0.063-0.201,0.062-0.296c0-0.038,0-0.067,0-0.095c-0.026-0.17-0.088-0.338-0.193-0.473
	c0.035-0.105,0.053-0.229,0.039-0.353c0-0.021,0-0.035,0-0.052c-0.021-0.117-0.07-0.243-0.132-0.344c0-0.031,0-0.051-0.011-0.096
	c0-0.018,0-0.025,0-0.042v-0.011c0.063-0.139,0.091-0.289,0.08-0.455c-0.005-0.029-0.005-0.051-0.009-0.072
	c-0.033-0.152-0.101-0.287-0.193-0.4c0.084-0.146,0.122-0.323,0.111-0.512c-0.007-0.037-0.01-0.097-0.028-0.141
	c-0.026-0.098-0.062-0.176-0.123-0.245c0.063-0.136,0.077-0.272,0.066-0.425c0-0.061-0.014-0.113-0.039-0.182l-0.045-0.148
	c-0.046-0.143-0.12-0.254-0.215-0.348c-0.001-0.029,0.001-0.062-0.003-0.105c0-0.006,0-0.021-0.005-0.051
	c0,0,0.005,0.001,0.005-0.01c0,0,0.009-0.047,0.016-0.097c0.019-0.055,0.04-0.112,0.04-0.112c0.051-0.117,0.063-0.252,0.053-0.375
	c-0.018-0.111-0.045-0.215-0.086-0.309c-0.02-0.035-0.035-0.061-0.061-0.083c0-0.006,0.01-0.022,0.01-0.03
	c0-0.018,0-0.045-0.01-0.074c-0.003-0.113-0.042-0.228-0.091-0.33c0.009-0.069,0.009-0.135,0-0.211c0-0.015-0.003-0.035-0.003-0.043
	c0-0.027-0.005-0.036-0.011-0.062c0.013-0.056,0.034-0.119,0.034-0.119c0.026-0.107,0.042-0.209,0.026-0.326
	c-0.009-0.098-0.033-0.187-0.068-0.261c0.019-0.093,0.024-0.192,0.015-0.274c-0.008-0.098-0.032-0.199-0.067-0.276l-0.081-0.181
	c-0.021-0.045-0.042-0.084-0.074-0.119V66.68c-0.017-0.094-0.052-0.178-0.099-0.263c0.065-0.094,0.114-0.206,0.135-0.319
	c0.01-0.08,0.014-0.162,0.003-0.246c-0.004-0.127-0.05-0.252-0.113-0.358c-0.021-0.136-0.063-0.259-0.138-0.371
	c0.138-0.147,0.229-0.347,0.232-0.577c0-0.029-0.002-0.07-0.002-0.1c-0.015-0.141-0.066-0.27-0.135-0.387
	c0.026-0.096,0.043-0.195,0.036-0.305c-0.008-0.041-0.019-0.097-0.035-0.146c-0.049-0.19-0.171-0.356-0.321-0.463v-0.049
	c-0.018-0.127-0.055-0.258-0.12-0.361c0.023-0.092,0.04-0.188,0.035-0.297v-0.021c-0.007-0.056-0.019-0.116-0.035-0.165
	c0.187-0.152,0.295-0.408,0.281-0.68c-0.002-0.014,0-0.024,0-0.035c-0.012-0.087-0.041-0.18-0.076-0.253
	c-0.001-0.03,0.005-0.054,0.003-0.075c-0.004-0.053-0.015-0.092-0.025-0.15c-0.055-0.215-0.195-0.385-0.372-0.5
	c-0.006-0.022-0.01-0.062-0.01-0.062c-0.018-0.074-0.04-0.145-0.07-0.196c0-0.021,0.004-0.048,0-0.056v-0.012
	c0.08-0.086,0.145-0.176,0.183-0.287l0.068-0.17c0.052-0.129,0.063-0.265,0.052-0.399c-0.007-0.087-0.024-0.165-0.059-0.254
	c-0.014-0.021-0.032-0.048-0.046-0.076c0.002-0.06,0.001-0.103,0.001-0.149c-0.022-0.168-0.079-0.332-0.191-0.455
	c-0.01-0.062-0.035-0.112-0.055-0.155c0.014-0.069,0.014-0.132,0.014-0.183c0.072-0.137,0.105-0.295,0.081-0.459
	c0-0.012-0.002-0.022-0.002-0.022c-0.009-0.108-0.042-0.207-0.091-0.292c0-0.01,0-0.03,0-0.04c-0.007-0.093-0.041-0.187-0.073-0.261
	c0-0.036,0-0.061,0-0.092c-0.012-0.061-0.014-0.114-0.028-0.168c-0.034-0.088-0.076-0.178-0.138-0.25
	c0.022-0.097,0.035-0.186,0.025-0.28c0.001-0.005-0.006-0.003-0.006-0.003c-0.003-0.094-0.036-0.192-0.074-0.272
	c0.112-0.147-0.25-0.635-0.396-0.62c0,0-0.157-0.24-0.71-0.068c0,0-0.682,0.08-0.481,0.543c0.059,0.141-0.073,0.279-0.059,0.414
	c0.007,0.045,0.018,0.099,0.028,0.15c-0.007,0.068-0.007,0.133,0,0.199c-0.002,0.01,0,0.029,0.003,0.032
	c0,0,0.011,0.071,0.021,0.138c0.002,0.044,0.003,0.121,0.003,0.121c0,0.021,0.003,0.052,0.003,0.064
	c0.017,0.14,0.056,0.264,0.131,0.383c-0.029,0.104-0.039,0.21-0.03,0.324c0,0.017,0,0.029,0.004,0.037
	c0.019,0.104,0.042,0.193,0.085,0.281c-0.134,0.166-0.204,0.387-0.181,0.614c0.001,0.003,0.001,0.017,0.009,0.032
	c0.028,0.271,0.197,0.494,0.406,0.617c0.002,0.037,0.002,0.078,0.002,0.112c-0.068,0.106-0.114,0.22-0.124,0.336
	c-0.019,0.082-0.021,0.152-0.017,0.224c0.011,0.082,0.031,0.151,0.055,0.221v0.017c-0.057,0.132-0.094,0.28-0.076,0.435
	c0,0.012,0,0.025,0,0.047c0.017,0.082,0.042,0.148,0.08,0.23c-0.048,0.122-0.073,0.264-0.057,0.401
	c0.008,0.032,0.014,0.091,0.024,0.142c0.035,0.141,0.111,0.265,0.209,0.369c-0.026,0.098-0.042,0.209-0.028,0.316
	c0.001,0.019,0.006,0.039,0.01,0.054c0,0,0.011,0.077,0.015,0.126c0.003,0.057,0.003,0.123,0.003,0.123
	c0,0.016,0.009,0.023,0.009,0.033c0.009,0.021,0.012,0.051,0.019,0.08l-0.038,0.165c-0.021,0.094-0.023,0.192-0.019,0.276
	c0.002,0.02,0.004,0.034,0.014,0.072l0.023,0.166c0.021,0.118,0.072,0.232,0.145,0.327c-0.028,0.088-0.034,0.194-0.023,0.287
	c0.005,0.089,0.028,0.171,0.059,0.257c0,0,0.01,0,0.01,0.008c-0.019,0.075-0.023,0.15-0.017,0.241V64.3
	c0.011,0.109,0.039,0.197,0.078,0.289c0.002,0.017-0.001,0.027-0.001,0.027c-0.003,0.057-0.002,0.108,0,0.151
	c-0.048,0.123-0.075,0.271-0.059,0.406c0,0.014,0,0.018,0.005,0.041c0.025,0.188,0.119,0.35,0.239,0.479
	c-0.073,0.129-0.121,0.265-0.129,0.412v0.18c0,0.037,0,0.082,0,0.12c0.004,0.048,0.016,0.089,0.027,0.138
	c-0.014,0.066-0.013,0.148-0.01,0.219c0.007,0.021,0.007,0.023,0.007,0.035c0.023,0.171,0.098,0.336,0.2,0.449
	c0.009,0.029,0.021,0.064,0.034,0.086c-0.031,0.1-0.038,0.21-0.028,0.301c0,0.045,0.01,0.086,0.022,0.135
	c0,0,0.014,0.057,0.024,0.107c-0.077,0.145-0.12,0.316-0.098,0.498c0.017,0.168,0.083,0.33,0.179,0.455
	c0.023,0.085,0.042,0.15,0.081,0.227c-0.04,0.123-0.061,0.243-0.045,0.363c0.006,0.074,0.014,0.128,0.037,0.186
	c0.044,0.14,0.131,0.269,0.229,0.371c0,0.012-0.006,0.039,0,0.072c0,0.008,0,0.021,0.003,0.035
	c-0.002,0.021-0.013,0.043-0.013,0.061l-0.028,0.166c-0.012,0.076-0.011,0.16-0.002,0.232c0.012,0.165,0.075,0.301,0.17,0.436
	c-0.007,0.01-0.015,0.021-0.015,0.021c-0.193,0.165-0.28,0.437-0.259,0.694c0.007,0.05,0.014,0.099,0.032,0.154
	c0.024,0.076,0.051,0.148,0.093,0.215c-0.016,0.08-0.038,0.174-0.026,0.267v0.014c0.024,0.218,0.12,0.408,0.277,0.543
	c0.038,0.101,0.101,0.197,0.173,0.285c-0.068,0.138-0.099,0.304-0.088,0.449c0.003,0.034,0.006,0.059,0.007,0.09
	c-0.132,0.166-0.202,0.383-0.176,0.606c0,0.009,0,0.028,0.011,0.037c0.02,0.195,0.105,0.361,0.237,0.484
	c-0.07,0.139-0.101,0.293-0.094,0.463c-0.002,0.006,0,0.008,0,0.012c0,0.012,0.001,0.015,0.001,0.024
	c-0.024,0.082-0.036,0.181-0.032,0.274c0,0.014,0.005,0.041,0.005,0.047c0.019,0.162,0.078,0.309,0.167,0.438
	c0,0.012-0.003,0.04-0.003,0.04c-0.007,0.052-0.011,0.126-0.002,0.179c0.012,0.111,0.047,0.228,0.105,0.332
	c-0.014,0.024,0.001,0.069,0.001,0.104c-0.066,0.127-0.088,0.27-0.067,0.425c0.001,0.009,0.004,0.035,0.004,0.048
	c0.013,0.117,0.057,0.229,0.116,0.32c-0.068,0.129-0.106,0.27-0.105,0.423c0,0.022,0,0.047,0.002,0.063
	c0.021,0.189,0.103,0.388,0.243,0.512c0,0,0.007,0.008,0.014,0.008c-0.028,0.111-0.038,0.211-0.033,0.324v0.012
	c0.026,0.18,0.096,0.334,0.194,0.453c-0.045,0.127-0.066,0.258-0.052,0.395c0.005,0.023,0.01,0.062,0.02,0.101
	c0.024,0.117,0.074,0.226,0.144,0.328c-0.063,0.133-0.095,0.287-0.083,0.442c0.01,0.024,0.01,0.068,0.02,0.097
	c0.007,0.071,0.036,0.12,0.055,0.172c-0.004,0.047-0.009,0.088-0.012,0.133c0,0.035,0,0.075,0.007,0.126
	c0.005,0.048,0.011,0.104,0.032,0.161c-0.09,0.135-0.139,0.31-0.132,0.487l0.001,0.185c0.004,0.005,0.005,0.03,0.005,0.046
	c0.024,0.217,0.118,0.417,0.276,0.553c-0.001,0.016,0,0.045-0.001,0.054c-0.07,0.138-0.097,0.291-0.072,0.442v0.021
	c0,0.02,0.007,0.045,0.007,0.081c-0.035,0.095-0.06,0.194-0.067,0.296c0,0.042,0,0.083,0.01,0.13
	c0.004,0.077,0.025,0.161,0.058,0.236c-0.012,0.044-0.019,0.097-0.019,0.146v0.154c0.003,0.022,0.004,0.05,0.003,0.065
	c0.024,0.211,0.112,0.388,0.255,0.525c-0.012,0.051-0.014,0.1-0.014,0.141l0.002,0.162c0,0.029,0,0.056,0,0.076
	c0.019,0.145,0.063,0.272,0.133,0.381c-0.006,0.015-0.006,0.041-0.006,0.041c-0.008,0.06-0.007,0.123-0.007,0.189
	c0.006,0.035,0.012,0.064,0.017,0.086c-0.009,0.07-0.012,0.146-0.007,0.229l0.019,0.152c0.006,0.062,0.013,0.12,0.032,0.176
	c-0.056,0.117-0.093,0.262-0.089,0.396c0,0.031,0,0.04,0.005,0.054c0,0.028,0.002,0.058,0.016,0.077
	c-0.02,0.074-0.024,0.164-0.02,0.242c0.009,0.105,0.042,0.205,0.084,0.303c0,0,0.047,0.088,0.059,0.116
	c-0.088,0.162-0.125,0.343-0.108,0.522c0.006,0.032,0.006,0.063,0.014,0.102c0.013,0.076,0.048,0.145,0.089,0.22
	c-0.028,0.104-0.037,0.202-0.032,0.317c0,0-0.096,0.426,1.026,0.289C34.873,88.986,35.965,89.072,35.771,88.479"/>
<path d="M72.466,25.497c-2.251,0.507-4.715,0.673-8.157,0.269l0.207-1.52c2.93,0.344,4.801,0.246,6.834-0.067
	c0.369-0.056,0.826-0.151,1.162-0.233c0.947-7.303-3.188-11.934-9.016-12.817c-5.829-0.882-11.169,2.313-12.426,9.571
	c0.295,0.176,0.705,0.403,1.039,0.566c1.851,0.9,3.604,1.566,6.505,2.104l-0.233,1.517c-3.406-0.635-5.708-1.541-7.709-2.689
	c-0.595,0.543-2.17,1.129-2.251,1.65c-0.393,2.594,5.239,4.271,12.338,5.347c7.097,1.075,12.976,1.138,13.368-1.452
	C74.206,27.218,72.875,26.193,72.466,25.497z M63.139,25.619l-1.035-0.157l-0.16,1.038l-1.52-0.221l0.157-1.039l-1.039-0.155
	l0.222-1.521l1.037,0.156l0.157-1.037l1.521,0.221l-0.158,1.039l1.037,0.157L63.139,25.619z"/>
<path d="M58.82,36.744c0.031-0.11,0.039-0.235,0.021-0.346c-0.004-0.043-0.015-0.097-0.015-0.142c0,0-0.026-0.092-0.032-0.123
	c-0.006-0.03-0.029-0.144-0.029-0.144c-0.012-0.077-0.03-0.143-0.059-0.206v-0.01c-0.003-0.029-0.01-0.066-0.013-0.098l-0.028-0.16
	c-0.039-0.209-0.146-0.396-0.279-0.536c-0.035-0.099-0.076-0.188-0.129-0.271l-0.088-0.127c-0.074-0.115-0.172-0.213-0.272-0.281
	c-0.104-0.124-0.228-0.24-0.375-0.303c-0.111-0.203-0.294-0.379-0.522-0.471H56.99c-0.165-0.189-0.403-0.311-0.67-0.343
	c-0.149-0.177-0.354-0.308-0.582-0.366c-0.155-0.088-0.332-0.129-0.521-0.129c-0.071-0.021-0.141-0.029-0.213-0.048
	c-0.219-0.181-0.514-0.278-0.81-0.24c-0.047-0.017-0.096-0.038-0.096-0.038c-0.091-0.038-0.171-0.059-0.261-0.072
	c0,0-0.033-0.003-0.062-0.01c-0.016-0.008-0.035-0.009-0.035-0.009c-0.178-0.103-0.387-0.13-0.586-0.122
	c-0.014,0-0.15-0.047-0.15-0.047c-0.156-0.059-0.317-0.064-0.479-0.059c-0.113-0.035-0.227-0.049-0.343-0.049h-0.011
	c-0.213-0.074-0.451-0.062-0.67,0.028c-0.043-0.015-0.082-0.015-0.127,0c-0.121-0.058-0.252-0.091-0.39-0.091h-0.14
	c-0.057,0-0.1,0.003-0.146,0.013l-0.153,0.021c-0.051,0.004-0.108,0.017-0.164,0.043c-0.152-0.026-0.306-0.014-0.441,0.035
	c-0.033-0.006-0.053-0.006-0.086-0.006l-0.139-0.015c-0.053,0-0.113,0-0.162,0.015l-0.137,0.006c-0.023,0-0.054,0.018-0.078,0.018
	h-0.068c-0.17-0.038-0.34-0.023-0.501,0.018c-0.179-0.004-0.341,0.031-0.505,0.107c-0.115,0-0.238,0.01-0.354,0.049
	c-0.277-0.049-0.554,0.025-0.782,0.174c-0.041,0.014-0.088,0.021-0.121,0.029c-0.155-0.008-0.303,0.01-0.443,0.068
	c0,0-0.043,0.008-0.082,0.021c-0.039,0.011-0.078,0.011-0.082,0.022c-0.002,0-0.161,0.029-0.161,0.029
	c-0.083,0.012-0.163,0.049-0.243,0.08c-0.156,0.021-0.321,0.072-0.462,0.174c0,0-0.025,0.025-0.053,0.037
	c-0.055,0.01-0.108,0.027-0.16,0.049c0,0-0.114,0.039-0.144,0.039c-0.021,0.01-0.139,0.049-0.139,0.049
	c-0.076,0.025-0.152,0.066-0.224,0.102l-0.138,0.092c-0.002,0.004-0.016,0.016-0.024,0.021c-0.075,0.015-0.144,0.043-0.214,0.078
	l-0.143,0.074c-0.023,0.021-0.057,0.041-0.088,0.056c-0.178,0.065-0.354,0.16-0.479,0.307c-0.035,0.019-0.066,0.026-0.092,0.058
	c-0.166,0.031-0.322,0.102-0.457,0.203c-0.123,0.047-0.24,0.108-0.335,0.217l-0.116,0.097c-0.007,0.007-0.012,0.011-0.023,0.024
	c0,0-0.027,0.033-0.055,0.053c-0.031,0.029-0.063,0.051-0.063,0.051c-0.056,0.045-0.105,0.091-0.146,0.143
	c-0.229,0.1-0.419,0.281-0.519,0.505c-0.031,0.029-0.053,0.062-0.069,0.099c-0.186,0.106-0.317,0.26-0.402,0.448
	c-0.044,0.035-0.096,0.084-0.125,0.123l-0.102,0.132c-0.097,0.108-0.165,0.256-0.203,0.409c-0.088,0.152-0.138,0.334-0.138,0.521
	c-0.013,0.039-0.017,0.077-0.024,0.117c-0.028,0.065-0.054,0.136-0.072,0.201c-0.079,0.149-0.118,0.319-0.112,0.491v0.134
	c0,0.021,0,0.049,0.01,0.083c0,0.003,0,0.019,0.001,0.025l0.009,0.129c0.004,0.019,0.007,0.039,0.013,0.06
	c-0.006,0.067-0.006,0.123,0,0.181c0.019,0.143,0.061,0.286,0.141,0.411c0,0.019-0.012,0.047,0,0.072
	c0.013,0.204,0.092,0.393,0.222,0.551c0.016,0.049,0.035,0.103,0.035,0.103c0.065,0.207,0.194,0.383,0.346,0.496
	c0.039,0.053,0.076,0.099,0.114,0.149c0,0,0.097,0.104,0.108,0.104c0.1,0.201,0.254,0.357,0.446,0.451
	c0.102,0.147,0.245,0.271,0.406,0.344c0.083,0.082,0.166,0.131,0.263,0.181c0.069,0.062,0.15,0.125,0.238,0.179l0.145,0.072
	c0.047,0.02,0.108,0.044,0.161,0.061c0.109,0.067,0.226,0.114,0.354,0.153l0.154,0.041h0.043c0.07,0.039,0.145,0.069,0.213,0.088
	c0.113,0.08,0.237,0.106,0.371,0.146c0.107,0.053,0.229,0.091,0.363,0.119c0,0,0.065,0,0.107,0.011l0.016,0.021
	c0.162,0.114,0.364,0.176,0.559,0.178h0.014c0.2,0.11,0.425,0.147,0.64,0.11c0.214,0.107,0.457,0.142,0.692,0.084
	c0,0,0.1-0.026,0.137-0.041c0.021,0.005,0.03,0.005,0.043,0.005c0.064,0.053,0.138,0.079,0.203,0.094l0.153,0.049
	c0.2,0.061,0.407,0.061,0.604,0.004c0.041,0,0.067,0,0.108-0.004c0.049,0.02,0.104,0.039,0.158,0.044l0.149,0.022
	c0.058,0.016,0.121,0.02,0.176,0.02h0.152c0.121,0,0.262-0.027,0.377-0.074c0.178,0.038,0.362,0.027,0.537-0.037
	c0.006,0.008,0.029,0.008,0.029,0.008c0.145,0.04,0.301,0.037,0.449,0c0.147,0,0.283-0.021,0.41-0.063
	c0.244,0.032,0.492-0.023,0.694-0.158c0.041,0,0.101-0.006,0.115-0.006h0.022c0.025,0.006,0.057,0.012,0.057,0.012
	c0.191,0.045,0.398,0.035,0.587-0.03c0,0,0.046-0.017,0.084-0.035c0.048-0.002,0.09-0.017,0.09-0.017c0.013,0,0.035,0,0.054-0.01
	h0.045c0.16,0,0.318-0.031,0.475-0.101l0.15-0.071c0.035-0.011,0.074-0.039,0.11-0.062c0.126,0.014,0.261,0.014,0.388-0.024
	c0.096-0.035,0.176-0.082,0.256-0.123c0.252-0.005,0.481-0.115,0.66-0.293c0.18-0.029,0.352-0.099,0.498-0.212
	c0.174-0.01,0.354-0.043,0.506-0.143l0.131-0.078c0.082-0.033,0.156-0.102,0.215-0.164l0.115-0.117h0.006
	c0.016-0.008,0.023-0.014,0.033-0.022l0.146-0.047c0.063-0.03,0.119-0.062,0.173-0.088l0.021-0.021
	c0.007-0.004,0.033-0.006,0.033-0.006c0.229-0.078,0.422-0.232,0.559-0.441c0,0,0.006-0.004,0.008-0.006l0.123-0.112
	c0.148-0.042,0.282-0.123,0.395-0.229c0.164-0.072,0.297-0.201,0.396-0.352c0.021-0.014,0.049-0.037,0.062-0.057
	c0.092-0.084,0.151-0.189,0.195-0.283c0.067-0.055,0.116-0.106,0.163-0.166L58.21,38.8c0.043-0.068,0.084-0.129,0.106-0.199
	c0.106-0.112,0.181-0.256,0.219-0.408c0.075-0.09,0.134-0.189,0.171-0.297c0.053-0.15,0.075-0.303,0.062-0.451
	c0-0.012-0.009-0.021-0.009-0.038l0.009-0.015l0.028-0.123c0.041-0.129,0.059-0.256,0.041-0.381
	c-0.004-0.027-0.004-0.053-0.016-0.074C58.827,36.812,58.827,36.775,58.82,36.744z M56.708,36.943
	c-0.029,0.06-0.048,0.121-0.068,0.195c-0.031,0.048-0.057,0.122-0.079,0.176l-0.04,0.146l-0.004,0.006
	c-0.121,0.098-0.23,0.203-0.309,0.338c-0.058,0.029-0.101,0.082-0.15,0.125c-0.066,0.074-0.115,0.152-0.154,0.244
	c-0.051,0.023-0.09,0.047-0.129,0.084l-0.111,0.092c-0.019,0.016-0.029,0.021-0.039,0.035c0,0-0.061,0.045-0.094,0.084
	c-0.163,0.07-0.303,0.18-0.408,0.326c-0.037,0.016-0.086,0.024-0.086,0.024c-0.037,0.005-0.074,0.024-0.115,0.041l-0.149,0.058
	c-0.117,0.051-0.222,0.123-0.315,0.205c-0.179,0.021-0.367,0.108-0.512,0.233c0,0-0.023,0.019-0.04,0.021h-0.012
	c-0.169,0.027-0.335,0.104-0.479,0.193c-0.066,0.029-0.121,0.049-0.174,0.084c-0.141,0-0.273,0.029-0.396,0.08
	c-0.135,0.011-0.26,0.051-0.383,0.116c-0.191,0.022-0.365,0.106-0.513,0.233c-0.011,0-0.019,0-0.03,0.004
	c0,0-0.097,0.022-0.134,0.039c-0.036,0.002-0.133,0.026-0.133,0.026h-0.024c-0.041-0.004-0.089-0.004-0.134-0.004h-0.174
	c-0.002,0-0.021,0.004-0.024,0.004h-0.242c0,0-0.092,0.013-0.133,0.022h-0.134c-0.112,0.016-0.209,0.035-0.312,0.072
	c-0.151-0.018-0.314-0.01-0.457,0.043c-0.07,0-0.145,0.006-0.211,0.025c-0.09-0.018-0.176-0.02-0.264-0.018l-0.152,0.018
	c-0.057,0.012-0.123,0.021-0.182,0.042h-0.201l-0.145,0.01c-0.08,0-0.154,0.011-0.227,0.023c-0.116-0.033-0.235-0.054-0.358-0.054
	h-0.146c-0.062,0-0.127,0.021-0.185,0.029h-0.155c-0.104-0.04-0.211-0.068-0.306-0.07h-0.047c-0.019-0.006-0.045-0.015-0.045-0.015
	c-0.013-0.006-0.039-0.008-0.055-0.013l-0.157-0.04c-0.104-0.025-0.212-0.025-0.317-0.021c-0.069-0.035-0.151-0.059-0.229-0.059
	c0,0-0.111-0.021-0.134-0.021c-0.024-0.004-0.134-0.021-0.134-0.021c-0.135-0.026-0.275-0.022-0.411,0.017
	c-0.179-0.156-0.399-0.236-0.633-0.254c-0.106-0.039-0.216-0.082-0.325-0.099c-0.079-0.041-0.16-0.062-0.242-0.077
	c-0.109-0.062-0.224-0.1-0.34-0.113c-0.092-0.062-0.191-0.117-0.285-0.146c-0.056-0.043-0.111-0.084-0.172-0.128
	c-0.105-0.124-0.233-0.217-0.383-0.287c-0.034-0.02-0.071-0.059-0.071-0.059c-0.045-0.049-0.103-0.092-0.164-0.131
	c-0.029-0.037-0.069-0.074-0.1-0.104c-0.045-0.109-0.098-0.193-0.175-0.277c-0.026-0.122-0.077-0.233-0.143-0.323
	c-0.021-0.105-0.045-0.191-0.08-0.279c-0.002-0.037-0.02-0.086-0.031-0.127c0.006-0.037,0.014-0.062,0.014-0.101
	c0.025-0.058,0.053-0.129,0.061-0.19c0.037-0.076,0.062-0.148,0.083-0.235c0.009-0.019,0.024-0.042,0.04-0.065
	c0.092-0.1,0.168-0.205,0.234-0.336c0,0,0.018-0.039,0.04-0.088c0.013-0.012,0.083-0.08,0.087-0.08
	c0.127-0.076,0.231-0.174,0.32-0.283c0.01-0.018,0.097-0.086,0.097-0.086c0.111-0.08,0.192-0.182,0.269-0.285
	c0.137-0.059,0.26-0.123,0.365-0.213c0.172-0.051,0.32-0.133,0.453-0.25c0.038-0.029,0.068-0.047,0.107-0.073
	c0.117-0.035,0.227-0.097,0.325-0.173c0.21-0.037,0.411-0.145,0.562-0.303c0.073,0,0.144-0.012,0.216-0.025
	c-0.053,0.179-0.084,0.359-0.068,0.545c0.121,1.229,1.809,2.086,3.792,1.9c1.97-0.185,3.479-1.328,3.36-2.562
	c-0.019-0.185-0.08-0.357-0.164-0.522c0.072,0.005,0.145,0.001,0.217-0.003c0.021,0,0.041,0.01,0.041,0.01
	c0.049,0.008,0.093,0.018,0.143,0.021h0.012c0.006,0.014,0.021,0.02,0.021,0.02c0.018,0.002,0.035,0.011,0.042,0.016l0.155,0.061
	c0.045,0.009,0.101,0.034,0.147,0.034l0.155,0.04h0.023c0.076,0.038,0.156,0.08,0.237,0.1h0.024c0.072,0.042,0.154,0.076,0.24,0.1
	c0.166,0.103,0.358,0.163,0.562,0.163c0.044,0.025,0.096,0.062,0.158,0.091c0,0,0.014,0.011,0.046,0.017
	c0.01,0.019,0.038,0.037,0.038,0.037c0.07,0.051,0.14,0.09,0.222,0.114c0.097,0.11,0.218,0.198,0.351,0.267
	c0.108,0.127,0.244,0.221,0.399,0.291c0.056,0.082,0.128,0.16,0.198,0.227c0.031,0.118,0.087,0.225,0.154,0.314
	c0.012,0.112,0.041,0.217,0.104,0.317c-0.003,0.056-0.003,0.117,0,0.177l0.011,0.127c0,0.024,0.006,0.041,0.008,0.062
	C56.714,36.919,56.708,36.943,56.708,36.943z"/>
</svg>
