<?xml version="1.0" encoding="utf-8"?>
<!-- Generator: Adobe Illustrator 16.0.0, SVG Export Plug-In . SVG Version: 6.00 Build 0)  -->
<!DOCTYPE svg PUBLIC "-//W3C//DTD SVG 1.1//EN" "http://www.w3.org/Graphics/SVG/1.1/DTD/svg11.dtd">
<svg version="1.1" id="レイヤー_1" xmlns="http://www.w3.org/2000/svg" xmlns:xlink="http://www.w3.org/1999/xlink" x="0px"
	 y="0px" width="100px" height="100px" viewBox="0 0 100 100" enable-background="new 0 0 100 100" xml:space="preserve">
<circle fill="#CCCCCC" cx="50" cy="50" r="50"/>
<path d="M53.818,50.854c-0.09,0.664-0.711,1.252-1.379,1.308l-2.43,0.2c-0.668,0.055-1.376-0.424-1.575-1.063l-1.496-4.825
	c-0.198-0.64,0.186-1.208,0.853-1.264l5.667-0.466c0.668-0.055,1.141,0.443,1.048,1.107L53.818,50.854z"/>
<path d="M50.077,53.17c-0.306,0.025-0.61-0.025-0.899-0.124l-0.67,17.847c-0.013,0.334,0.216,0.744,0.507,0.91l3.476,1.99
	c0.291,0.166,0.741,0.129,1.001-0.082l3.104-2.531c0.26-0.212,0.418-0.654,0.35-0.981l-3.573-17.496
	c-0.269,0.146-0.562,0.243-0.865,0.271L50.077,53.17z"/>
<path d="M37.713,33.734c0.114,1.229-0.784,2.33-2.016,2.437c-1.228,0.114-2.328-0.792-2.438-2.02
	c-0.111-1.237,0.786-2.327,2.019-2.44C36.509,31.6,37.602,32.501,37.713,33.734"/>
<path d="M61.213,31.547c0.118,1.234,1.208,2.137,2.443,2.026c1.227-0.117,2.129-1.204,2.017-2.445
	c-0.116-1.222-1.208-2.132-2.44-2.014C62.002,29.221,61.105,30.319,61.213,31.547"/>
<path d="M75.374,85.91c-0.134,0.047-0.249-0.1-0.372-0.1c-0.043,0.004-0.092,0.01-0.141,0.016c-0.062-0.016-0.12-0.021-0.182-0.02
	c-0.01-0.002-0.029-0.005-0.029,0c0,0-0.067,0.004-0.129,0.008c-0.039-0.004-0.109-0.01-0.109-0.01
	c-0.021-0.003-0.047-0.003-0.061-0.003c-0.127,0.003-0.244,0.029-0.359,0.095c-0.094-0.039-0.188-0.06-0.293-0.062
	c-0.016,0-0.027-0.001-0.035,0.002c-0.098,0.01-0.18,0.021-0.264,0.059c-0.139-0.15-0.332-0.24-0.543-0.24
	c-0.002,0.002-0.016,0.002-0.03,0.007c-0.251,0.002-0.47,0.147-0.599,0.345c-0.035-0.001-0.071-0.007-0.104-0.009
	c-0.091-0.079-0.188-0.136-0.295-0.157c-0.074-0.025-0.137-0.035-0.202-0.038c-0.075,0.005-0.142,0.017-0.206,0.033
	c-0.008,0-0.008,0-0.014,0c-0.115-0.069-0.246-0.123-0.391-0.118c-0.009-0.001-0.021-0.003-0.041-0.003
	c-0.076,0.007-0.142,0.027-0.22,0.056c-0.106-0.059-0.233-0.098-0.358-0.096c-0.031,0.008-0.086,0.006-0.131,0.012
	c-0.133,0.021-0.252,0.086-0.357,0.172c-0.084-0.034-0.184-0.062-0.284-0.059c-0.019,0-0.037,0.001-0.05,0.006
	c0,0-0.071,0.004-0.117,0.004c-0.051-0.004-0.111-0.01-0.111-0.01c-0.016-0.002-0.021,0.006-0.031,0.006
	c-0.02,0.006-0.045,0.006-0.073,0.01l-0.146-0.055c-0.086-0.029-0.176-0.042-0.25-0.046c-0.021,0.003-0.035,0.002-0.068,0.011
	l-0.155,0.006c-0.108,0.012-0.218,0.05-0.31,0.112c-0.078-0.036-0.176-0.054-0.26-0.053c-0.082-0.003-0.158,0.015-0.24,0.035
	c0,0,0,0.01-0.008,0.009c-0.064-0.027-0.133-0.039-0.219-0.04l-0.005-0.002c-0.104,0.003-0.185,0.021-0.272,0.054
	c-0.015-0.003-0.023-0.006-0.023-0.006c-0.053-0.008-0.102-0.013-0.139-0.017c-0.107-0.06-0.24-0.099-0.365-0.097
	c-0.014,0-0.016-0.002-0.036,0.002c-0.175,0.006-0.329,0.084-0.459,0.189c-0.11-0.084-0.229-0.145-0.364-0.167l-0.163-0.019
	c-0.032-0.004-0.073-0.008-0.11-0.01c-0.045,0-0.08,0.006-0.127,0.014c-0.06-0.021-0.133-0.026-0.198-0.03
	c-0.019,0.005-0.022,0.005-0.031,0.004c-0.16,0.007-0.313,0.065-0.429,0.156c-0.028,0.005-0.059,0.016-0.081,0.024
	c-0.089-0.039-0.188-0.058-0.271-0.058c-0.041-0.005-0.082,0-0.125,0.01c0,0-0.052,0.009-0.102,0.015
	c-0.126-0.09-0.277-0.147-0.444-0.146c-0.153,0-0.308,0.051-0.433,0.137c-0.077,0.014-0.139,0.025-0.213,0.058
	c-0.106-0.052-0.217-0.084-0.326-0.078c-0.068-0.004-0.118,0-0.172,0.019c-0.133,0.028-0.256,0.104-0.359,0.189
	c-0.009-0.001-0.035-0.008-0.064-0.008c-0.01,0-0.02,0-0.031,0c-0.02-0.004-0.04-0.018-0.055-0.018l-0.147-0.043
	c-0.069-0.02-0.147-0.027-0.215-0.025c-0.147-0.004-0.279,0.047-0.41,0.13c-0.008-0.009-0.017-0.019-0.017-0.019
	c-0.135-0.209-0.375-0.32-0.61-0.324c-0.045,0.002-0.091,0.002-0.144,0.016c-0.072,0.018-0.142,0.038-0.207,0.072
	c-0.067-0.022-0.151-0.056-0.237-0.053h-0.013c-0.201,0.002-0.383,0.08-0.521,0.223c-0.093,0.027-0.186,0.082-0.271,0.146
	c-0.119-0.083-0.268-0.128-0.402-0.132c-0.032,0-0.055,0-0.081-0.002c-0.142-0.146-0.332-0.237-0.539-0.233
	c-0.008,0-0.024-0.002-0.035,0.008c-0.178,0.002-0.338,0.069-0.463,0.19c-0.119-0.086-0.256-0.132-0.411-0.142
	c-0.005-0.001-0.007-0.001-0.011-0.001c-0.011-0.003-0.015,0.001-0.024,0c-0.07-0.031-0.16-0.056-0.248-0.058
	c-0.013-0.002-0.035,0-0.041,0c-0.147,0-0.287,0.047-0.414,0.123c-0.011,0-0.037-0.006-0.037-0.006
	c-0.047-0.013-0.113-0.025-0.162-0.02c-0.103,0-0.211,0.023-0.312,0.072c-0.021-0.018-0.062-0.007-0.095-0.011
	c-0.111-0.077-0.235-0.112-0.38-0.106c-0.008-0.002-0.031,0-0.045-0.002c-0.108,0.004-0.213,0.037-0.303,0.086
	c-0.109-0.079-0.235-0.131-0.375-0.146c-0.02-0.002-0.043-0.004-0.059-0.005c-0.176,0.003-0.361,0.064-0.486,0.193
	c0,0-0.01,0.008-0.01,0.013c-0.098-0.037-0.189-0.058-0.291-0.063h-0.013c-0.167,0.008-0.313,0.062-0.429,0.15
	c-0.113-0.061-0.229-0.092-0.355-0.092c-0.021,0.004-0.057,0.005-0.093,0.011c-0.109,0.015-0.212,0.05-0.312,0.111
	c-0.115-0.076-0.256-0.123-0.396-0.125c-0.022,0.007-0.063,0.003-0.09,0.01c-0.068,0.002-0.114,0.022-0.161,0.037
	c-0.044-0.009-0.081-0.017-0.121-0.024c-0.032-0.003-0.067-0.005-0.115-0.005c-0.041,0-0.094,0-0.149,0.017
	c-0.114-0.103-0.269-0.168-0.434-0.181l-0.167-0.016c-0.006,0.006-0.026,0.004-0.042,0.002c-0.199,0.004-0.391,0.077-0.527,0.22
	c-0.015-0.001-0.039-0.004-0.05-0.005c-0.118-0.083-0.254-0.123-0.395-0.116h-0.02c-0.018-0.002-0.045,0.002-0.076,0
	c-0.082-0.046-0.172-0.08-0.264-0.097c-0.037-0.004-0.075-0.008-0.119-0.003c-0.072-0.003-0.148,0.01-0.22,0.036
	c-0.039-0.019-0.085-0.028-0.132-0.031l-0.143-0.015c-0.021-0.002-0.046-0.004-0.062-0.006c-0.191,0.004-0.362,0.074-0.499,0.203
	c-0.044-0.02-0.09-0.024-0.127-0.026l-0.147-0.015c-0.026-0.004-0.053-0.006-0.07-0.008c-0.132,0.006-0.255,0.037-0.36,0.096
	c-0.009-0.006-0.035-0.01-0.035-0.01c-0.055-0.014-0.112-0.02-0.172-0.023c-0.033,0.002-0.061,0.003-0.081,0.007
	c-0.062-0.017-0.132-0.027-0.206-0.029l-0.141,0.005c-0.06-0.002-0.11,0.002-0.163,0.017c-0.103-0.069-0.23-0.119-0.354-0.13
	c-0.03-0.002-0.037-0.004-0.051,0c-0.022-0.002-0.05,0-0.069,0.009c-0.066-0.026-0.148-0.04-0.221-0.04
	c-0.097-0.004-0.189,0.021-0.281,0.053c0,0-0.086,0.037-0.114,0.047c-0.14-0.104-0.299-0.158-0.466-0.156
	c-0.03,0-0.057-0.002-0.092,0.002c-0.072,0.008-0.137,0.033-0.211,0.067c-0.092-0.04-0.18-0.058-0.285-0.062
	c-0.148,0.008-0.291,0.054-0.405,0.133c-0.055-0.01-0.112-0.014-0.167-0.014c-0.041-0.004-0.094,0.008-0.131,0.014
	c-0.133-0.092-0.282-0.146-0.445-0.15c-0.021,0.004-0.045,0.002-0.074,0.01c-0.18,0.013-0.357,0.104-0.479,0.235
	c-0.021,0.007-0.044,0.005-0.057,0.013c-0.078-0.053-0.172-0.098-0.26-0.117c-0.062-0.012-0.107-0.014-0.154-0.014
	c-0.148-0.003-0.279,0.039-0.408,0.12c-0.064,0.013-0.127,0.027-0.197,0.058c-0.018,0.011-0.038,0.019-0.056,0.027
	c-0.107-0.064-0.246-0.104-0.369-0.103c-0.011,0.002-0.038,0.003-0.055,0.003c-0.042,0-0.086,0.008-0.136,0.02
	c0,0-0.018-0.002-0.027-0.005c-0.136-0.146-0.325-0.224-0.529-0.224c-0.02-0.002-0.049,0.01-0.086,0.006l-0.145,0.023
	c-0.112,0.017-0.229,0.054-0.312,0.117c-0.014-0.002-0.026-0.007-0.049-0.013c-0.104-0.079-0.246-0.135-0.401-0.146l-0.138-0.006
	c-0.022-0.002-0.031-0.002-0.04,0c-0.132-0.002-0.264,0.037-0.37,0.098c-0.023-0.018-0.061-0.03-0.087-0.039
	c-0.053-0.006-0.101-0.01-0.149-0.014c-0.114,0.004-0.221,0.027-0.325,0.08c-0.091-0.035-0.177-0.058-0.257-0.062
	c-0.005,0-0.01,0-0.014,0c-0.13,0.002-0.266,0.036-0.38,0.107c-0.038-0.017-0.095-0.032-0.156-0.039
	c-0.018-0.002-0.046-0.004-0.068,0.006c-0.101-0.008-0.183,0.017-0.274,0.054c-0.046-0.026-0.105-0.053-0.164-0.062
	c-0.066-0.049-0.131-0.084-0.203-0.109c-0.074-0.025-0.162-0.036-0.225-0.04c-0.129-0.003-0.268,0.043-0.379,0.106
	c-0.058-0.024-0.107-0.039-0.163-0.045c-0.033-0.004-0.06-0.006-0.086-0.006c-0.123-0.062-0.243-0.109-0.374-0.102
	c-0.008-0.002-0.027-0.003-0.027-0.003c-0.168,0.007-0.328,0.073-0.453,0.183c-0.012-0.008-0.037-0.029-0.051-0.033
	c-0.081-0.02-0.158-0.035-0.242-0.035c-0.027,0.002-0.061,0.006-0.085,0.006c-0.099-0.039-0.2-0.062-0.297-0.062
	c-0.021-0.002-0.03,0.003-0.044,0c-0.096-0.046-0.209-0.069-0.318-0.077c-0.016-0.003-0.016-0.003-0.026,0.004
	c-0.187,0.01-0.366,0.082-0.503,0.215c-0.04,0.01-0.077,0.033-0.135,0.061l-0.107,0.076c-0.35,0.22-0.455,0.678-0.234,1.025
	c0.03,0.047,0.059,0.08,0.092,0.114c0.079,0.31,0.341,0.543,0.659,0.573c0.026,0.002,0.044-0.007,0.065-0.005
	c0.133,0.003,0.253-0.035,0.359-0.101c0.02,0.002,0.039,0.004,0.057,0.004c0.004,0,0.021,0.002,0.043-0.002
	c0.082-0.006,0.156-0.022,0.229-0.056c0.022,0.019,0.051,0.037,0.051,0.037c0.128,0.091,0.275,0.134,0.43,0.134
	c0.055,0.002,0.113-0.006,0.171-0.023c0.065,0.019,0.13,0.035,0.2,0.029c0.032,0.002,0.059,0,0.083-0.004
	c0.085-0.01,0.155-0.033,0.235-0.064c0.031,0.014,0.066,0.027,0.084,0.039c0.083,0.029,0.158,0.045,0.254,0.045
	c0.125-0.001,0.244-0.031,0.346-0.098c0.041,0.023,0.094,0.035,0.139,0.045c0.008,0.004,0.015,0.017,0.017,0.02
	c0.112,0.061,0.259,0.1,0.364,0.097c0.078,0.003,0.158-0.012,0.231-0.036l0.12-0.037c0.025-0.015,0.062-0.025,0.086-0.031
	c0.043,0.012,0.095,0.023,0.135,0.029c0.037,0.002,0.063,0.006,0.086-0.002c0.213,0.008,0.41-0.09,0.556-0.242
	c0.011,0.002,0.03,0.004,0.052,0c0.062,0.004,0.121-0.01,0.181-0.019c0.142,0.164,0.347,0.269,0.565,0.267h0.008
	c0.049,0,0.098-0.008,0.152-0.026c0.105,0.09,0.254,0.149,0.408,0.153c0.007,0,0.026,0.002,0.026,0.002
	c0.136-0.002,0.264-0.041,0.376-0.105c0.076,0.021,0.143,0.035,0.213,0.033c0.062,0.005,0.112-0.002,0.174-0.018
	c0.134-0.03,0.253-0.104,0.358-0.203c0.107,0.066,0.228,0.108,0.364,0.104c0.062,0.05,0.135,0.086,0.216,0.116l0.147,0.045
	c0.068,0.02,0.151,0.034,0.23,0.035l0.011-0.001l0.153-0.005c0.128-0.006,0.253-0.039,0.358-0.105
	c0.073,0.02,0.132,0.023,0.211,0.021c0.003,0,0.016,0.002,0.03,0.002c0.078,0.029,0.164,0.053,0.258,0.057
	c0.046-0.008,0.09-0.01,0.125-0.021c0.062-0.01,0.132-0.022,0.186-0.051c0.043,0.008,0.087,0.014,0.127,0.012
	c0.07-0.004,0.143-0.017,0.195-0.028c0.117,0.067,0.255,0.104,0.387,0.108c0.004,0,0.004,0,0.014,0
	c0.067-0.006,0.138-0.014,0.184-0.039c0.042,0.005,0.061,0.021,0.091,0.021c0.169-0.006,0.325-0.062,0.457-0.167
	c0.044,0.003,0.088,0.007,0.127,0.011c0.013,0.002,0.013-0.004,0.028-0.006l0.135-0.005c0.044,0.005,0.084-0.011,0.131-0.015
	c0.016,0.01,0.023,0.017,0.035,0.029l0.144,0.086c0.123,0.072,0.257,0.109,0.392,0.106c0.028,0.002,0.059,0,0.08-0.002l0.146-0.022
	c0.203-0.019,0.379-0.119,0.498-0.271c0.021,0.016,0.042,0.029,0.076,0.037l0.141,0.038c0.068,0.021,0.139,0.03,0.209,0.028
	c0.128,0.002,0.262-0.037,0.372-0.105c0.116,0.105,0.268,0.171,0.426,0.18l0.137,0.014c0.022,0,0.034-0.002,0.055,0
	c0.021,0,0.058-0.004,0.088-0.01c0.016,0.012,0.038,0.026,0.055,0.034c0.093,0.039,0.185,0.054,0.277,0.056
	c0.069-0.002,0.122-0.017,0.178-0.026c0.077,0.028,0.158,0.048,0.253,0.044c0,0,0.02,0.002,0.023-0.004
	c0.165,0,0.302-0.057,0.425-0.148c0.112,0.073,0.243,0.115,0.394,0.11l0.16,0.003c0.096,0,0.197-0.027,0.277-0.057l0.017,0.004
	c0.011,0,0.024,0.002,0.028,0.002c0.081-0.006,0.174-0.025,0.25-0.053c0.117,0.073,0.262,0.115,0.404,0.117
	c0.012,0,0.028,0,0.045-0.002c0.129-0.008,0.25-0.051,0.34-0.115c0.041,0.004,0.065,0.008,0.102,0.011
	c0.113,0,0.223-0.033,0.338-0.089c0.059,0.033,0.124,0.051,0.203,0.067l0.156,0.019c0.027,0.007,0.064,0.01,0.104,0.01
	c0.103-0.005,0.203-0.02,0.304-0.068c0.012,0,0.025,0.014,0.043,0.014c0.135,0.099,0.289,0.16,0.451,0.154
	c0.028,0.004,0.039,0.004,0.071-0.002c0.112-0.01,0.222-0.052,0.315-0.103c0.125,0.069,0.254,0.12,0.402,0.125
	c0.037-0.002,0.068-0.005,0.088-0.005c0.084-0.012,0.146-0.027,0.209-0.057c0.012,0.002,0.012,0.002,0.024,0.004
	c0.246-0.011,0.47-0.125,0.615-0.33c0.118,0.233,0.372,0.377,0.638,0.375c0.018,0.002,0.018,0.002,0.029,0.004
	c0.211-0.006,0.404-0.105,0.551-0.269c0.029-0.01,0.059-0.028,0.1-0.045c0.104-0.01,0.223-0.041,0.328-0.098
	c0.084,0.046,0.172,0.075,0.258,0.101c0.119,0.09,0.273,0.145,0.435,0.139c0.024,0.016,0.043,0.03,0.067,0.039
	c0.086,0.033,0.172,0.049,0.26,0.049c0.029-0.004,0.068-0.008,0.104-0.012c0.084,0.049,0.179,0.082,0.265,0.09
	c0.033,0.004,0.062,0.006,0.084,0.01c0.16-0.01,0.315-0.053,0.449-0.147c0.092,0.045,0.202,0.075,0.315,0.073
	c0.021,0.002,0.032,0.004,0.047,0.005c0.11-0.011,0.229-0.048,0.324-0.099c0.028,0.004,0.047,0.004,0.089-0.002
	c0.018,0.004,0.023,0.004,0.039,0.006h0.011c0.119,0.076,0.255,0.119,0.407,0.125c0.025-0.004,0.044-0.002,0.066-0.004
	c0.14-0.021,0.271-0.072,0.381-0.152c0.125,0.098,0.285,0.152,0.457,0.16c0.033-0.006,0.086-0.002,0.132-0.018
	c0.089-0.018,0.163-0.043,0.233-0.097c0.115,0.076,0.241,0.101,0.383,0.106c0.052,0.005,0.103-0.006,0.166-0.022l0.14-0.03
	c0.134-0.029,0.241-0.096,0.336-0.182c0.026,0.003,0.056,0.009,0.097,0.009c0.006,0.003,0.021,0.005,0.047,0c0,0,0,0.005,0.01,0.005
	c0,0,0.041,0.016,0.084,0.024c0.049,0.026,0.102,0.051,0.102,0.051c0.102,0.064,0.223,0.089,0.336,0.091
	c0.104-0.008,0.198-0.025,0.288-0.057c0.033-0.018,0.058-0.03,0.081-0.052c0.007,0,0.02,0.012,0.027,0.013
	c0.015,0.002,0.041,0.004,0.068-0.003c0.104,0.007,0.209-0.021,0.311-0.06c0.061,0.017,0.119,0.021,0.191,0.021
	c0.012,0,0.03-0.001,0.037,0c0.026,0.002,0.034-0.002,0.059-0.004c0.052,0.018,0.107,0.043,0.107,0.043
	c0.096,0.038,0.187,0.062,0.293,0.059c0.092,0,0.174-0.016,0.244-0.043c0.083,0.027,0.174,0.043,0.25,0.043
	c0.088,0,0.186-0.014,0.258-0.043l0.17-0.062c0.043-0.019,0.082-0.035,0.117-0.062l0.018,0.002c0.084-0.008,0.166-0.035,0.246-0.073
	c0.082,0.073,0.178,0.135,0.281,0.165c0.07,0.018,0.146,0.029,0.225,0.027c0.115,0.008,0.232-0.025,0.337-0.078
	c0.125-0.006,0.241-0.037,0.349-0.102c0.124,0.152,0.297,0.262,0.506,0.285c0.027,0.004,0.062,0.007,0.09,0.009
	c0.131-0.002,0.252-0.04,0.365-0.097c0.082,0.035,0.174,0.062,0.274,0.064c0.036-0.006,0.088-0.009,0.139-0.021
	c0.177-0.03,0.339-0.137,0.448-0.274c0.011,0,0.029,0.002,0.044,0.005c0.116-0.006,0.239-0.029,0.339-0.084
	c0.081,0.032,0.169,0.059,0.268,0.062c0.006,0.002,0.01,0.002,0.021,0.002c0.051,0,0.108-0.009,0.149-0.019
	c0.125,0.2,0.35,0.334,0.599,0.344c0.015,0.003,0.021,0.003,0.032,0.005c0.078-0.002,0.166-0.021,0.234-0.05
	c0.03,0.002,0.049,0.011,0.07,0.013c0.048-0.002,0.083-0.009,0.137-0.015c0.205-0.035,0.371-0.155,0.489-0.321
	c0.022-0.004,0.058-0.004,0.058-0.004c0.072-0.009,0.137-0.023,0.188-0.05c0.02,0,0.044,0.009,0.052,0.002l0.011,0.002
	c0.069,0.089,0.146,0.164,0.246,0.209l0.147,0.086c0.112,0.062,0.233,0.088,0.356,0.089c0.082,0.004,0.153-0.007,0.238-0.035
	c0.02-0.013,0.045-0.024,0.072-0.038c0.054,0.01,0.094,0.014,0.139,0.018c0.154-0.006,0.307-0.047,0.43-0.146
	c0.058-0.002,0.105-0.023,0.148-0.041c0.062,0.023,0.117,0.027,0.162,0.031c0.119,0.087,0.262,0.135,0.412,0.125
	c0.011,0.002,0.021,0.002,0.021,0.002c0.1,0,0.192-0.021,0.273-0.061c0.009,0,0.027,0,0.035,0c0.086,0.004,0.172-0.021,0.246-0.048
	c0.031,0.004,0.054,0.007,0.082,0.009c0.057-0.005,0.105-0.002,0.154-0.012c0.084-0.021,0.168-0.058,0.24-0.111
	c0.086,0.03,0.166,0.051,0.256,0.053c0.002,0.002,0.002-0.006,0.002-0.006c0.086,0.006,0.18-0.019,0.254-0.047
	c0.127,0.125,0.601-0.188,0.601-0.336c0,0,0.233-0.134,0.127-0.697C75.826,86.443,75.812,85.756,75.374,85.91"/>
<path d="M72.402,75.055l-0.037,0.122c-0.029,0.104-0.037,0.208-0.037,0.313c-0.03,0.078-0.046,0.162-0.051,0.244l-0.018,0.125
	c-0.005,0.045-0.003,0.096-0.005,0.144l0.011,0.128c0.008,0.021,0.012,0.037,0.017,0.055c-0.046,0.137-0.054,0.279-0.03,0.42
	c-0.014,0.148,0.014,0.299,0.066,0.427c0.013,0.11,0.043,0.206,0.082,0.301c0.012,0.17,0.08,0.338,0.176,0.481
	c0.008,0.185,0.072,0.365,0.186,0.512c0,0,0.025,0.021,0.039,0.046c0.014,0.021,0.022,0.044,0.022,0.044
	c0.04,0.075,0.099,0.143,0.151,0.198c0.016,0.077,0.041,0.153,0.08,0.224l0.055,0.116c0.07,0.135,0.178,0.246,0.307,0.332
	c0.042,0.133,0.125,0.253,0.23,0.354c0.055,0.114,0.129,0.213,0.223,0.297c0.037,0.055,0.078,0.104,0.123,0.145
	c0.016,0.021,0.027,0.049,0.027,0.049c0,0.004,0.008,0.021,0.012,0.035l0.009,0.002v0.005c0.035,0.132,0.095,0.253,0.177,0.358
	c0,0,0.016,0.014,0.025,0.021c0.029,0.19,0.127,0.366,0.273,0.496c0.002,0.009,0.012,0.031,0.012,0.031
	c0.029,0.049,0.062,0.104,0.102,0.151c0.01,0.03,0.026,0.062,0.039,0.09c0.003,0.05,0.02,0.104,0.023,0.162
	c0.002,0.074,0.01,0.148,0.024,0.226l0.029,0.116c0.01,0.062,0.028,0.121,0.06,0.183c0.018,0.091,0.045,0.179,0.09,0.265
	c-0.012,0.147,0.008,0.295,0.074,0.431c-0.018,0.146-0.015,0.296,0.038,0.427c0.005,0.045,0.013,0.08,0.023,0.121
	c0,0-0.003,0.034,0.007,0.064c-0.023,0.096-0.044,0.213-0.03,0.312c0,0-0.003,0.036,0.005,0.07
	c-0.035,0.104-0.043,0.212-0.033,0.312c-0.031,0.1-0.045,0.195-0.039,0.291c-0.033,0.114-0.037,0.229-0.029,0.342
	c-0.031,0.078-0.059,0.158-0.078,0.25L74.829,84.9h-0.002c-0.026,0.074-0.054,0.154-0.065,0.24c0,0,0,0.021-0.006,0.034
	c-0.059,0.101-0.094,0.207-0.107,0.326c-0.029,0.041-0.059,0.097-0.069,0.142c-0.093,0.117-0.151,0.238-0.173,0.377
	c-0.006,0.002-0.008,0.002-0.006,0.006c-0.01,0.004-0.022,0.015-0.022,0.015c-0.377,0.333-0.416,0.901-0.088,1.274
	c0.229,0.254,0.569,0.354,0.874,0.283c0.141-0.029,0.277-0.095,0.395-0.197l0.099-0.086c0.053-0.045,0.099-0.086,0.138-0.142
	c0,0,0.038-0.057,0.059-0.085c0.019-0.015,0.029-0.04,0.045-0.061c0.022-0.021,0.074-0.077,0.074-0.077
	c0.109-0.115,0.172-0.252,0.211-0.404c0.02-0.037,0.039-0.078,0.06-0.12c0.016-0.023,0.051-0.058,0.051-0.058
	c0.123-0.156,0.199-0.353,0.208-0.543c0.046-0.111,0.051-0.236,0.05-0.359c0.101-0.131,0.161-0.297,0.177-0.462
	c0.059-0.154,0.069-0.318,0.045-0.482c0.011-0.068,0.009-0.135,0.002-0.203c0-0.025,0.014-0.058,0.014-0.058
	c0.002-0.022,0.006-0.045,0.013-0.067c0.063-0.146,0.101-0.315,0.085-0.476c0.057-0.182,0.062-0.376,0-0.562
	c0,0-0.027-0.081-0.037-0.11c0.017-0.146,0-0.305-0.055-0.448c0.023-0.146,0.01-0.298-0.031-0.433
	c-0.012-0.125-0.039-0.239-0.092-0.347c0.016-0.119,0.008-0.242-0.031-0.362c-0.02-0.104-0.068-0.197-0.135-0.282
	c-0.003-0.025-0.012-0.055-0.02-0.08c-0.008-0.128-0.043-0.259-0.1-0.369l-0.054-0.117c-0.002-0.006-0.004-0.012-0.007-0.022
	c0,0-0.014-0.013-0.014-0.015c-0.002-0.006-0.006-0.023-0.006-0.023c-0.041-0.15-0.115-0.293-0.223-0.402
	c-0.018-0.009-0.021-0.022-0.025-0.033c-0.021-0.153-0.08-0.301-0.175-0.426l-0.073-0.098c-0.031-0.035-0.062-0.074-0.096-0.104
	c-0.012-0.03-0.021-0.061-0.042-0.086c0,0-0.036-0.07-0.054-0.098c-0.01-0.019-0.045-0.088-0.045-0.088
	c-0.008-0.012-0.012-0.029-0.016-0.039L75.5,79.078c-0.023-0.049-0.049-0.094-0.086-0.137c-0.029-0.058-0.068-0.111-0.104-0.162
	c-0.061-0.141-0.14-0.26-0.256-0.352c-0.021-0.042-0.035-0.089-0.064-0.123c0,0-0.02-0.024-0.041-0.058
	c-0.018-0.021-0.027-0.048-0.027-0.048c-0.049-0.096-0.117-0.18-0.197-0.245c-0.043-0.111-0.104-0.215-0.186-0.302
	c-0.037-0.063-0.077-0.129-0.129-0.188c-0.001-0.049-0.006-0.102-0.021-0.146l-0.05-0.117c-0.022-0.075-0.062-0.154-0.104-0.223
	c-0.018-0.088-0.047-0.185-0.092-0.263l-0.061-0.114c-0.006-0.004-0.014-0.009-0.016-0.017v-0.003
	c0.031-0.09,0.051-0.188,0.043-0.275l-0.006-0.123c0.002-0.062-0.006-0.11-0.018-0.166c0.01-0.035,0.032-0.069,0.04-0.102
	l0.032-0.12c0.009-0.037,0.011-0.069,0.018-0.104c0.002-0.021,0.018-0.035,0.026-0.047c0,0-0.211-0.242-0.207-0.244L72.402,75.055z"
	/>
<path d="M71.904,20.97c-0.004,0.048-0.008,0.108-0.008,0.169c-0.023,0.072-0.041,0.144-0.043,0.223
	c-0.002,0-0.002,0.012-0.011,0.012c-0.139,0.184-0.212,0.398-0.212,0.632c-0.005,0.011-0.009,0.017-0.013,0.02
	c-0.097,0.094-0.177,0.191-0.235,0.306c-0.141,0.104-0.257,0.239-0.331,0.398c0,0-0.022,0.047-0.034,0.082
	c-0.037,0.038-0.078,0.081-0.11,0.126c0,0-0.015,0.03-0.022,0.037c-0.092,0.062-0.174,0.118-0.24,0.196c0,0-0.096,0.107-0.1,0.107
	v0.014c-0.165,0.041-0.322,0.127-0.449,0.259c-0.173,0.048-0.322,0.147-0.437,0.282c-0.146,0.038-0.279,0.113-0.396,0.21h-0.008
	c0,0-0.005,0.005-0.013,0.005c-0.005-0.005-0.005-0.005-0.007-0.02c0.002-0.014,0.007-0.039,0.007-0.039
	c0.013-0.093,0.013-0.175,0.013-0.252c-0.018-0.139-0.061-0.268-0.117-0.383c-0.013-0.062-0.025-0.109-0.041-0.164
	c0-0.029,0.016-0.137,0.016-0.137c0.008-0.079,0.014-0.161,0.006-0.242c0-0.01,0-0.029-0.006-0.035c0,0-0.004-0.037-0.008-0.08
	v-0.091c0-0.026-0.008-0.065-0.008-0.088c-0.002-0.082-0.021-0.16-0.037-0.235v-0.023c0.026-0.127,0.037-0.242,0.026-0.365
	c-0.015-0.123-0.051-0.246-0.104-0.359c0-0.027-0.006-0.045-0.01-0.062c0-0.011,0.004-0.023,0.004-0.027l0.006-0.161
	c0.008-0.058,0.008-0.116,0-0.157c-0.006-0.047-0.01-0.092-0.027-0.145c0.009-0.05,0.009-0.099,0-0.16
	c-0.003-0.061-0.014-0.119-0.033-0.174c0-0.02,0.005-0.041,0.005-0.059l-0.005-0.152v-0.076c-0.011-0.068-0.021-0.141-0.044-0.193
	c0.021-0.098,0.021-0.185,0.021-0.269c-0.017-0.075-0.028-0.153-0.054-0.228v-0.08c-0.006-0.031-0.006-0.051-0.016-0.083
	l-0.024-0.159c-0.004-0.008-0.011-0.032-0.011-0.048l-0.033-0.152c-0.01-0.026-0.017-0.048-0.03-0.089V18.99
	c0.015-0.047,0.015-0.09,0.012-0.137c0,0-0.012-0.05-0.012-0.09v-0.088c0.015-0.061,0.015-0.113,0-0.166
	c-0.006-0.096-0.029-0.199-0.062-0.279c0.026-0.11,0.031-0.223,0.021-0.321c-0.01-0.14-0.056-0.278-0.121-0.394
	c0-0.014,0-0.026,0-0.038c0.012-0.046,0.014-0.085,0.022-0.128l0.013-0.151c0.016-0.07,0.016-0.133,0-0.21
	c-0.002-0.068-0.021-0.141-0.045-0.222c0.01-0.075,0.01-0.156,0.002-0.237v-0.024c0,0-0.01-0.085-0.013-0.109
	c0-0.04-0.01-0.146-0.01-0.146v-0.021c0-0.048-0.011-0.093-0.021-0.146l-0.041-0.15c-0.004-0.009-0.011-0.021-0.011-0.049
	c0.011-0.09,0.013-0.173,0.007-0.259c-0.007-0.083-0.022-0.145-0.043-0.218c0.021,0.01,0.036,0.027,0.047,0.027
	c0.033,0.035,0.07,0.065,0.113,0.107c0.01,0.016,0.014,0.025,0.027,0.039l0.093,0.13c0.056,0.072,0.114,0.136,0.187,0.188
	l0.112,0.107c0.021,0.012,0.05,0.033,0.073,0.043c0.076,0.108,0.173,0.188,0.283,0.262c0.078,0.103,0.178,0.203,0.291,0.283
	c0,0,0,0.006,0.005,0.006l0.099,0.128c0.053,0.057,0.104,0.104,0.161,0.157c0.088,0.111,0.187,0.222,0.304,0.304
	c0.07,0.159,0.188,0.312,0.332,0.435v0.006c0.062,0.188,0.16,0.336,0.299,0.469c0.071,0.172,0.188,0.328,0.345,0.449
	c0.02,0.043,0.051,0.09,0.073,0.129c0.011,0.037,0.027,0.078,0.035,0.113h0.014v0.013c0.019,0.167,0.085,0.317,0.179,0.446
	c0.035,0.105,0.075,0.201,0.147,0.289c0,0,0.035,0.051,0.069,0.088c0,0.043-0.015,0.088-0.007,0.125
	c0.007,0.018,0.007,0.035,0.01,0.057l0.016,0.14c0.002,0.042,0.013,0.079,0.023,0.12l0.039,0.139
	c0.014,0.06,0.031,0.104,0.053,0.152c0,0.053-0.002,0.096,0,0.143c0.004,0.045,0.021,0.09,0.035,0.145
	c-0.011,0.055-0.011,0.098-0.011,0.156C71.889,20.85,71.896,20.906,71.904,20.97 M33.283,61.15c0.027-0.061,0.035-0.15,0.029-0.221
	v-0.055c-0.015-0.135-0.062-0.262-0.141-0.367c0.016-0.068,0.021-0.135,0.021-0.213c0-0.014,0-0.023-0.005-0.033
	c-0.015-0.123-0.06-0.246-0.125-0.336c0.005-0.049,0.005-0.08,0-0.113c0-0.033-0.018-0.062-0.018-0.103
	c0-0.022,0.034-0.132,0.034-0.132c0.006-0.026,0.006-0.043,0.006-0.079c0.107-0.142,0.155-0.312,0.135-0.494
	c0-0.026-0.006-0.053-0.01-0.091l-0.037-0.15c-0.021-0.111-0.07-0.216-0.148-0.316c0.016-0.039,0.021-0.077,0.021-0.077
	c0.018-0.043,0.026-0.086,0.04-0.121l0.018-0.166c0.01-0.063,0.01-0.112,0.008-0.17c-0.008-0.072-0.025-0.138-0.048-0.193v-0.103
	V57.6c-0.005-0.084-0.03-0.154-0.062-0.227c0.008-0.031,0.02-0.074,0.023-0.104c0.008-0.051,0.008-0.094,0.008-0.145
	c-0.019-0.129-0.068-0.245-0.133-0.343c-0.013-0.103-0.046-0.198-0.099-0.278c0.07-0.102,0.116-0.222,0.128-0.357
	c0.008-0.043,0.008-0.096,0-0.133c-0.005-0.076-0.031-0.158-0.064-0.233c0.016-0.087,0.022-0.167,0.016-0.25v-0.052
	c-0.023-0.129-0.086-0.254-0.176-0.35c0.021-0.079,0.031-0.156,0.021-0.232c-0.021-0.207-0.131-0.398-0.308-0.526
	c0.024-0.075,0.036-0.162,0.024-0.259v-0.02l-0.024-0.178c-0.019-0.105-0.052-0.196-0.104-0.297
	c0.011-0.022,0.014-0.051,0.023-0.084l0.031-0.16c0.024-0.079,0.024-0.152,0.017-0.23c0-0.033-0.01-0.062-0.017-0.088l-0.037-0.168
	c-0.007-0.05-0.024-0.096-0.053-0.146c0.106-0.104,0.186-0.24,0.204-0.394c0.014-0.065,0.014-0.129,0.007-0.19
	c-0.011-0.156-0.071-0.288-0.165-0.404c0.003-0.06,0.003-0.117,0-0.163c0-0.04-0.011-0.072-0.018-0.105
	c0.035-0.111,0.06-0.229,0.046-0.34c-0.011-0.05-0.021-0.113-0.039-0.17c-0.007-0.045-0.028-0.08-0.057-0.13
	c0.006-0.043,0.006-0.088,0-0.129c-0.014-0.155-0.078-0.305-0.181-0.432c0.005-0.041,0.005-0.092,0.005-0.134
	c-0.02-0.15-0.078-0.292-0.17-0.409c0.174-0.143,0.268-0.377,0.258-0.615c-0.004,0-0.007-0.004-0.007-0.021
	c-0.021-0.197-0.111-0.371-0.262-0.5c0.101-0.126,0.158-0.295,0.153-0.462v-0.054c-0.027-0.232-0.16-0.441-0.357-0.555
	c0.079-0.146,0.125-0.297,0.107-0.459c0-0.022-0.007-0.049-0.007-0.073c0.114-0.147,0.177-0.339,0.159-0.536
	c0-0.008-0.008-0.008-0.008-0.023c-0.011-0.084-0.037-0.164-0.07-0.24c0.01-0.062,0.013-0.112,0.008-0.17
	c-0.008-0.08-0.036-0.166-0.068-0.248c0.004-0.004,0.061-0.138,0.061-0.138c0.051-0.114,0.064-0.241,0.053-0.362
	c-0.002-0.082-0.03-0.171-0.064-0.244c-0.031-0.062-0.069-0.127-0.119-0.18c0.07-0.105,0.111-0.229,0.119-0.37
	c0-0.022,0-0.06-0.008-0.085c-0.009-0.148-0.062-0.269-0.142-0.376c0.043-0.114,0.065-0.231,0.059-0.358
	c0-0.021-0.005-0.033-0.005-0.059c-0.039-0.201-0.159-0.395-0.332-0.492c0.005-0.053,0.005-0.111,0.005-0.163
	c-0.005-0.03-0.013-0.038-0.013-0.066c0.021-0.055,0.04-0.104,0.053-0.165c0.123-0.15,0.18-0.337,0.16-0.535v-0.021
	c-0.021-0.106-0.055-0.202-0.109-0.285c0.027-0.099,0.037-0.185,0.027-0.271c-0.006-0.07-0.023-0.127-0.045-0.191
	c0,0-0.033-0.099-0.046-0.123v-0.025c0.008-0.041,0-0.066,0-0.089c-0.008-0.107-0.043-0.193-0.083-0.276
	c0-0.033,0.012-0.072,0.012-0.098c0-0.021-0.006-0.043-0.012-0.069c-0.008-0.079-0.034-0.161-0.061-0.241
	c0.006-0.066,0.018-0.125,0.006-0.198c-0.006-0.105-0.039-0.222-0.105-0.308c0-0.018,0-0.035-0.002-0.053
	c-0.006-0.026-0.013-0.064-0.021-0.086c0.016-0.066,0.023-0.132,0.035-0.195v-0.152c0-0.029,0-0.062-0.012-0.081
	c0-0.007-0.002-0.026-0.002-0.05c0.039-0.07,0.068-0.154,0.08-0.24l0.021-0.146c0.004-0.062,0.004-0.113,0-0.16
	c-0.018-0.111-0.058-0.227-0.114-0.326c0.013-0.055,0.015-0.111,0.026-0.166c0.048-0.128,0.07-0.252,0.059-0.379
	c-0.004-0.065-0.018-0.123-0.043-0.185c0.015-0.074,0.028-0.157,0.025-0.224v-0.021c-0.016-0.146-0.072-0.273-0.155-0.379
	c0.017-0.066,0.017-0.131,0.009-0.193c0-0.003-0.002-0.009-0.002-0.009c0.016-0.063,0.03-0.112,0.03-0.173
	c0.007-0.04,0.007-0.064,0-0.102c0-0.051-0.015-0.084-0.021-0.117c0.006-0.064,0.006-0.122,0.006-0.182
	c-0.006-0.021-0.006-0.046-0.016-0.076c-0.025-0.121-0.078-0.225-0.152-0.316v-0.019c-0.011-0.052-0.013-0.105-0.028-0.146v-0.074
	c0.104-0.139,0.155-0.316,0.146-0.506v-0.012c-0.031-0.182-0.113-0.344-0.246-0.465c0.023-0.065,0.033-0.131,0.033-0.193
	c0-0.023-0.01-0.047-0.01-0.07c0-0.082-0.04-0.166-0.078-0.246c0.053-0.101,0.078-0.222,0.064-0.336v-0.014
	c0.04-0.107,0.062-0.199,0.047-0.323h-0.002c0-0.071-0.02-0.124-0.031-0.181c0.01-0.056,0.021-0.099,0.026-0.16
	c0.005-0.033,0.005-0.084,0-0.121c-0.015-0.124-0.052-0.227-0.118-0.337c0.061-0.107,0.092-0.244,0.092-0.368
	c0-0.019-0.011-0.029-0.011-0.043c-0.015-0.188-0.111-0.367-0.255-0.492c0-0.021,0.007-0.041,0-0.068v-0.027
	c0.135-0.15,0.211-0.356,0.188-0.572c0-0.018-0.006-0.046-0.006-0.072c-0.03-0.174-0.13-0.325-0.259-0.433
	c0.104-0.104,0.178-0.259,0.202-0.413l0.017-0.125c0.01-0.045,0.01-0.107,0.002-0.16c-0.009-0.081-0.031-0.152-0.061-0.229
	c0.071,0.024,0.143,0.05,0.216,0.05c0.062,0,0.119,0,0.18-0.011c0.091,0.026,0.196,0.037,0.293,0.026
	c0.083-0.016,0.154-0.041,0.227-0.073c0.09,0.008,0.19,0.021,0.287,0l0.157-0.033c0.015,0,0.041-0.017,0.056-0.021
	c0.11,0.044,0.225,0.062,0.35,0.044c0.264-0.022,0.485-0.196,0.589-0.437c0.026,0,0.058-0.014,0.083-0.014
	c0.012,0,0.029,0.014,0.044,0.027c0.141,0.205,0.39,0.34,0.659,0.33c0.132-0.015,0.253-0.045,0.358-0.115
	c0.12,0.006,0.239-0.018,0.352-0.062c0.06-0.029,0.114-0.055,0.167-0.101c0.016,0,0.023-0.008,0.042-0.008l0.16-0.044
	c0.101-0.027,0.191-0.078,0.269-0.139c0.067-0.019,0.131-0.04,0.199-0.07l0.01-0.01c0.043,0.014,0.09,0.02,0.09,0.02
	c0.025,0.008,0.045,0.008,0.072,0.008c0.167,0.235,0.445,0.369,0.729,0.314c0.062-0.009,0.115-0.025,0.164-0.045
	c0.072,0.02,0.148,0.024,0.224,0.02c0.146-0.018,0.278-0.061,0.389-0.148c0.103,0.002,0.204-0.008,0.301-0.048
	c0.158,0.085,0.352,0.125,0.545,0.071l0.156-0.028c0.141-0.033,0.264-0.108,0.362-0.207c0.082,0.026,0.17,0.054,0.271,0.044
	c0.083-0.003,0.163-0.023,0.233-0.055c0.063,0.009,0.127,0.009,0.193-0.006h0.002c0.171,0.08,0.365,0.088,0.547,0.037
	c0.094,0.037,0.199,0.051,0.297,0.051c0.111,0,0.217-0.03,0.305-0.082c0.018,0,0.027,0.009,0.043,0.011
	c0.246,0.036,0.489-0.054,0.65-0.231c0,0,0.057-0.062,0.096-0.1c0.114,0.045,0.238,0.068,0.369,0.059
	c0.055-0.009,0.098-0.021,0.146-0.038c0.053,0.017,0.101,0.029,0.151,0.038c0.197,0.131,0.455,0.166,0.684,0.08
	c0.065,0.012,0.137,0.02,0.204,0.02h0.156c0.165,0,0.312-0.047,0.433-0.138h0.011l0.161,0.01c0.115,0,0.23-0.028,0.332-0.07
	c0.098,0.042,0.208,0.077,0.328,0.085c0.124,0,0.254-0.034,0.356-0.085c0.106,0.04,0.222,0.07,0.337,0.067
	c0.16-0.007,0.307-0.067,0.439-0.17c0.021,0.017,0.045,0.025,0.076,0.025c0.186,0.034,0.378-0.014,0.531-0.125
	c0.071,0.028,0.152,0.028,0.229,0.028c0.062,0,0.132-0.015,0.192-0.036c0.047,0.021,0.094,0.064,0.15,0.074
	c0.229,0.074,0.483,0.032,0.672-0.107c0,0,0.018-0.018,0.022-0.018c0.057-0.014,0.116-0.019,0.165-0.031
	c0.291,0.118,0.625,0.049,0.837-0.186l0.141-0.168c0.028-0.024,0.052-0.058,0.07-0.09c0.143,0.219,0.392,0.355,0.665,0.346
	c0.024,0.01,0.045,0.023,0.072,0.036c0.227,0.062,0.471,0.03,0.658-0.108c0.098,0.018,0.19,0.018,0.294,0.008
	c0.108-0.008,0.204-0.053,0.286-0.104c0.05,0.023,0.109,0.037,0.155,0.041c0.198,0.022,0.401-0.033,0.562-0.153l0.148-0.124
	c0.006,0,0.006,0,0.018-0.013c0.074,0.013,0.158,0,0.24-0.037c0.018,0,0.035-0.015,0.064-0.016c0.049,0.007,0.109,0.016,0.172,0.016
	c0.075,0.037,0.162,0.065,0.248,0.072c0.211,0.153,0.464,0.193,0.699,0.102c0.023-0.013,0.053-0.022,0.078-0.033h0.041
	c0.086-0.021,0.166-0.04,0.24-0.075c0.037,0.007,0.084,0.012,0.084,0.012c0.215,0.063,0.438,0,0.603-0.121
	c0.11,0.044,0.229,0.072,0.347,0.053c0.126-0.009,0.244-0.042,0.35-0.1c0.119,0.058,0.256,0.091,0.39,0.082
	c0.131,0.046,0.271,0.074,0.412,0.037c0.114-0.028,0.228-0.072,0.312-0.145c0.032-0.01,0.056-0.01,0.091-0.01
	c0.041-0.013,0.088-0.027,0.127-0.034c0.051,0.007,0.1,0.007,0.137-0.005l0.156-0.014c0.002,0,0.013,0,0.018-0.012
	c0.146,0.052,0.304,0.052,0.447-0.002c0.01-0.008,0.013-0.014,0.021-0.014h0.049c0.092,0,0.18-0.021,0.264-0.047
	c0.068,0.04,0.136,0.061,0.216,0.074l0.153,0.025c0.205,0.037,0.416-0.012,0.58-0.139c0.051,0.02,0.104,0.046,0.172,0.056
	c0.244,0.046,0.509-0.036,0.685-0.22c0.039,0.014,0.078,0.023,0.117,0.023c0.04,0.014,0.084,0.014,0.128,0.014
	c0.143,0.057,0.309,0.076,0.466,0.033c0.093-0.019,0.188-0.07,0.269-0.127c0.061,0,0.123-0.01,0.179-0.02
	c0.159-0.039,0.306-0.131,0.407-0.256h0.05c0.058,0,0.116-0.014,0.173-0.019c0.027,0,0.049,0.001,0.08,0.005
	c0.148,0.164,0.357,0.246,0.584,0.23c0.152,0,0.293-0.063,0.408-0.152c0.152,0.041,0.324,0.031,0.479-0.035
	c0,0,0.059-0.029,0.105-0.047c0.019,0.004,0.043,0.018,0.043,0.018c0.216,0.07,0.449,0.037,0.632-0.066
	c0.11,0.025,0.233,0.025,0.353-0.009c0.012-0.009,0.025-0.013,0.045-0.013c0.133,0.105,0.314,0.158,0.492,0.152
	c0.153,0,0.299-0.064,0.407-0.152c0.088-0.023,0.173-0.063,0.248-0.108h0.004c0.146,0.045,0.302,0.063,0.446,0.021
	c0.144,0.076,0.304,0.109,0.472,0.088c0.093-0.023,0.177-0.045,0.263-0.098c0.01,0,0.023,0,0.032-0.011
	c0.021,0,0.033-0.003,0.048-0.011c0.112,0.074,0.242,0.107,0.383,0.096c0.205,0,0.393-0.088,0.52-0.232
	c0.092-0.021,0.182-0.061,0.26-0.105c0.188,0.035,0.389,0.005,0.547-0.092l0.131-0.079c0.045,0.042,0.097,0.058,0.143,0.087
	c0,0,0.033,0.014,0.059,0.021c0.012,0.05,0.024,0.099,0.024,0.099c0.024,0.096,0.075,0.18,0.133,0.253
	c-0.116,0.143-0.19,0.312-0.19,0.493v0.074c0.002,0.039,0.008,0.07,0.016,0.109c-0.014,0.066-0.014,0.134-0.008,0.205
	c0,0.017,0,0.034,0.005,0.052c0.03,0.156,0.108,0.302,0.22,0.415c-0.031,0.091-0.057,0.201-0.041,0.309
	c0.004,0.01,0.004,0.032,0.01,0.053c0.019,0.111,0.057,0.213,0.123,0.299c-0.072,0.131-0.104,0.279-0.09,0.433v0.022
	c0.005,0.015,0.008,0.021,0.008,0.035c-0.021,0.08-0.031,0.157-0.022,0.243v0.015c0.003,0.054,0.022,0.111,0.04,0.177
	c-0.002,0.03-0.002,0.063-0.002,0.104c0,0.01,0,0.01,0.002,0.021c0.014,0.105,0.041,0.19,0.093,0.284
	c-0.052,0.107-0.063,0.223-0.056,0.34c0.004,0.062,0.016,0.105,0.029,0.151c0.025,0.083,0.06,0.149,0.104,0.216
	c0.03,0.158,0.108,0.324,0.241,0.428c-0.039,0.092-0.047,0.193-0.039,0.288c0,0.016,0.011,0.038,0.014,0.063
	c-0.021,0.082-0.033,0.181-0.021,0.26c0.006,0.07,0.019,0.137,0.047,0.199C68.033,32.312,68,32.444,68,32.586
	c0,0.017,0,0.027,0.004,0.047c0.01,0.145,0.064,0.268,0.148,0.385c0.004,0.004,0.012,0.039,0.018,0.055
	c-0.014,0.062-0.018,0.133-0.014,0.186c0.008,0.059,0.018,0.123,0.039,0.182c-0.025,0.068-0.039,0.134-0.043,0.193
	c0,0.035,0,0.076,0.004,0.112c0.008,0.088,0.033,0.168,0.07,0.241c-0.058,0.127-0.082,0.26-0.07,0.389
	c0.014,0.128,0.059,0.271,0.148,0.369l0.104,0.158c0.021,0.025,0.038,0.035,0.058,0.061c-0.02,0.029-0.025,0.08-0.037,0.113
	c0,0-0.009,0.042-0.021,0.067c-0.021,0.038-0.041,0.07-0.041,0.07c-0.066,0.146-0.101,0.293-0.093,0.44
	c0.004,0.068,0.025,0.123,0.045,0.187c0.037,0.097,0.097,0.183,0.166,0.255c-0.084,0.128-0.123,0.279-0.118,0.444v0.037
	c0.014,0.144,0.071,0.259,0.149,0.371c-0.045,0.071-0.078,0.156-0.092,0.241c-0.01,0.062-0.018,0.124-0.006,0.187
	c0.02,0.171,0.086,0.331,0.213,0.46c0,0,0.092,0.092,0.127,0.123c-0.103,0.123-0.16,0.277-0.17,0.443c0,0.025,0,0.066,0.006,0.088
	c-0.039,0.099-0.057,0.207-0.046,0.312c0,0.016,0.007,0.027,0.007,0.04c0.043,0.276,0.229,0.507,0.489,0.598v0.004
	c0,0.034,0,0.063,0.013,0.099c0.006,0.072,0.023,0.139,0.049,0.213c-0.152,0.152-0.235,0.373-0.211,0.59
	c0,0.014,0.002,0.041,0.006,0.055c0.023,0.18,0.119,0.31,0.24,0.428c0.01,0.047,0.031,0.098,0.031,0.098
	c0.004,0.044,0.016,0.083,0.037,0.121c0,0.025-0.007,0.05,0,0.068c0.007,0.069,0.023,0.135,0.044,0.195v0.135l0.019,0.168
	c0,0.021,0.004,0.051,0.013,0.086c0,0,0.024,0.105,0.03,0.143c0.006,0.023,0.021,0.137,0.021,0.137
	c-0.021,0.07-0.029,0.141-0.029,0.206c-0.022,0.04-0.047,0.085-0.054,0.139L69.2,42.472c-0.005,0.016-0.011,0.032-0.011,0.046
	L69.15,42.68c-0.015,0.068-0.018,0.156-0.008,0.22c0,0.04,0.004,0.062,0.008,0.104l0.031,0.148c0.035,0.132,0.096,0.259,0.195,0.349
	c-0.014,0.041-0.014,0.1-0.005,0.152c0.005,0.021,0.005,0.037,0.005,0.042c0.009,0.042,0.016,0.077,0.038,0.123
	c-0.095,0.136-0.14,0.301-0.117,0.461v0.014c0.007,0.052,0.013,0.085,0.022,0.136c-0.006,0.039-0.006,0.062-0.006,0.123
	c-0.008,0.021-0.073,0.146-0.073,0.146c-0.058,0.117-0.078,0.258-0.064,0.385c0.005,0.06,0.019,0.13,0.042,0.2
	c0.016,0.024,0.03,0.046,0.042,0.086c-0.007,0.042-0.007,0.091-0.007,0.138v0.053c0.018,0.223,0.137,0.404,0.311,0.539V46.1
	c0,0.016-0.008,0.022-0.008,0.022c-0.055,0.13-0.076,0.257-0.064,0.378c0.007,0.043,0.02,0.092,0.027,0.141
	c-0.009,0.062-0.009,0.121-0.004,0.182c0,0.01,0,0.027,0.004,0.03c0,0,0.012,0.065,0.02,0.126v0.109
	c0,0.021,0.004,0.049,0.004,0.061c0.014,0.127,0.053,0.239,0.127,0.35c-0.031,0.096-0.043,0.191-0.035,0.299
	c0,0.013,0,0.025,0.004,0.033c0.02,0.096,0.04,0.176,0.08,0.258c-0.135,0.151-0.207,0.353-0.188,0.562
	c0.003,0.002,0.003,0.016,0.008,0.029c0.025,0.248,0.191,0.453,0.398,0.563v0.103c-0.07,0.099-0.117,0.201-0.129,0.308
	c-0.021,0.075-0.023,0.141-0.021,0.206c0.011,0.074,0.028,0.14,0.053,0.202v0.014c-0.06,0.122-0.1,0.256-0.082,0.398v0.043
	c0.013,0.072,0.04,0.137,0.075,0.211c-0.05,0.111-0.075,0.24-0.062,0.365c0.01,0.031,0.014,0.086,0.025,0.129
	c0.032,0.131,0.105,0.244,0.202,0.34c-0.026,0.088-0.045,0.189-0.031,0.289c0,0.018,0.005,0.037,0.009,0.049
	c0,0,0.012,0.07,0.015,0.115c0.002,0.053,0.002,0.115,0.002,0.115c0,0.014,0.007,0.021,0.007,0.027
	c0.009,0.021,0.011,0.048,0.02,0.074l-0.041,0.149c-0.022,0.087-0.024,0.177-0.022,0.253c0.005,0.02,0.005,0.034,0.014,0.067
	l0.022,0.153c0.02,0.105,0.068,0.213,0.14,0.297c-0.028,0.08-0.037,0.181-0.028,0.264c0.006,0.083,0.028,0.156,0.057,0.234
	c0,0,0.009,0,0.009,0.009c-0.019,0.067-0.026,0.136-0.019,0.221v0.006c0.01,0.103,0.035,0.181,0.074,0.267
	c0,0.014-0.004,0.024-0.004,0.024c-0.001,0.05-0.001,0.103-0.001,0.14c-0.052,0.113-0.077,0.248-0.063,0.373
	c0,0.013,0,0.014,0.004,0.035c0.023,0.172,0.115,0.319,0.232,0.438c-0.074,0.118-0.121,0.242-0.133,0.377l-0.005,0.164v0.11
	c0.005,0.043,0.017,0.082,0.022,0.125c-0.012,0.062-0.012,0.136-0.008,0.201c0.006,0.02,0.006,0.021,0.006,0.031
	c0.021,0.156,0.095,0.307,0.194,0.41c0.007,0.029,0.021,0.059,0.031,0.08c-0.031,0.091-0.04,0.191-0.031,0.275
	c0,0.043,0.007,0.078,0.021,0.123c0,0,0.013,0.051,0.022,0.098c-0.078,0.134-0.123,0.291-0.104,0.456
	c0.014,0.153,0.077,0.303,0.174,0.417c0.021,0.076,0.039,0.137,0.077,0.207c-0.042,0.113-0.065,0.223-0.049,0.332
	c0.002,0.068,0.011,0.115,0.031,0.169c0.043,0.128,0.127,0.245,0.224,0.339c0,0.012-0.007,0.037,0,0.066c0,0.01,0,0.021,0.002,0.032
	c-0.002,0.019-0.013,0.04-0.013,0.056l-0.03,0.151c-0.013,0.07-0.013,0.148-0.003,0.214c0.007,0.149,0.07,0.276,0.162,0.397
	c-0.004,0.009-0.014,0.019-0.014,0.019c-0.197,0.152-0.285,0.401-0.271,0.639c0.01,0.043,0.013,0.088,0.03,0.139
	c0.023,0.07,0.052,0.137,0.092,0.198c-0.018,0.071-0.04,0.159-0.03,0.245v0.012c0.021,0.199,0.114,0.373,0.271,0.496
	c0.037,0.09,0.098,0.179,0.17,0.26c-0.072,0.125-0.105,0.277-0.094,0.411c0.002,0.032,0.006,0.055,0.006,0.08
	c-0.136,0.153-0.207,0.353-0.187,0.56c0,0.006,0,0.025,0.01,0.033c0.019,0.178,0.103,0.331,0.232,0.443
	c-0.074,0.127-0.107,0.266-0.103,0.423v0.01c0,0.011,0.002,0.015,0.002,0.024c-0.024,0.074-0.039,0.164-0.035,0.252
	c0,0.012,0.004,0.037,0.004,0.042c0.014,0.146,0.074,0.282,0.162,0.399c0,0.012-0.004,0.036-0.004,0.036
	c-0.008,0.05-0.014,0.117-0.004,0.166c0.008,0.101,0.043,0.207,0.1,0.304c-0.014,0.021,0,0.062,0,0.095
	c-0.065,0.116-0.092,0.243-0.071,0.387c0,0.009,0.002,0.032,0.002,0.045c0.015,0.108,0.058,0.208,0.112,0.292
	c-0.068,0.118-0.108,0.248-0.108,0.389v0.06c0.019,0.174,0.097,0.354,0.234,0.466c0,0,0.01,0.009,0.015,0.009
	c-0.027,0.103-0.04,0.193-0.037,0.296v0.01c0.022,0.168,0.092,0.309,0.19,0.416c-0.05,0.117-0.07,0.234-0.062,0.36
	c0.006,0.021,0.012,0.056,0.021,0.093c0.022,0.106,0.067,0.207,0.139,0.299c-0.063,0.123-0.098,0.266-0.088,0.406
	c0.011,0.022,0.011,0.062,0.019,0.09c0.008,0.063,0.035,0.108,0.053,0.153c-0.004,0.043-0.01,0.082-0.014,0.123
	c0,0.031,0,0.068,0.004,0.114c0.006,0.044,0.01,0.095,0.03,0.148c-0.092,0.123-0.143,0.281-0.139,0.447v0.166
	c0.004,0.006,0.004,0.028,0.004,0.043c0.022,0.198,0.112,0.381,0.267,0.506v0.049c-0.072,0.125-0.101,0.267-0.078,0.404v0.021
	c0,0.018,0.006,0.043,0.006,0.073c-0.035,0.086-0.062,0.179-0.07,0.271c0,0.038,0,0.075,0.008,0.118
	c0.004,0.071,0.023,0.147,0.057,0.216c-0.014,0.04-0.021,0.09-0.021,0.136v0.144v0.061c0.021,0.191,0.106,0.354,0.248,0.479
	c-0.015,0.048-0.019,0.095-0.019,0.131v0.146v0.07c0.019,0.133,0.062,0.25,0.127,0.35c-0.006,0.012-0.006,0.037-0.006,0.037
	c-0.008,0.055-0.008,0.113-0.008,0.174c0.006,0.032,0.008,0.059,0.014,0.08c-0.008,0.062-0.014,0.133-0.008,0.207l0.016,0.139
	c0.005,0.062,0.013,0.111,0.031,0.162c-0.059,0.107-0.098,0.238-0.098,0.361c0,0.03,0,0.039,0.004,0.053
	c0,0.023,0.006,0.051,0.016,0.067c-0.02,0.068-0.026,0.151-0.02,0.224c0.004,0.097,0.039,0.188,0.078,0.275
	c0,0,0.045,0.083,0.059,0.107c-0.092,0.148-0.133,0.312-0.117,0.479c0.007,0.029,0.007,0.057,0.015,0.092
	c0.013,0.07,0.045,0.133,0.085,0.203c-0.029,0.096-0.04,0.184-0.035,0.29c0.021,0.147,0.079,0.284,0.169,0.392
	c-0.002,0.056-0.002,0.113,0,0.168c0,0.041,0.019,0.092,0.027,0.13c-0.078,0.14,0.224,0.399,0.235,0.562l1.815,0.286
	c-0.013-0.045-0.019-0.09-0.03-0.125c-0.016-0.06-0.037-0.128-0.07-0.179c0.007-0.045,0.007-0.088,0-0.127
	c-0.008-0.07-0.026-0.141-0.047-0.193c0.06-0.122,0.082-0.262,0.074-0.395v-0.014c-0.015-0.066-0.027-0.136-0.055-0.178
	c0-0.043,0.01-0.062,0.01-0.094c-0.019-0.168-0.089-0.318-0.207-0.441v-0.126c0-0.011-0.007-0.011-0.009-0.026l-0.017-0.133
	c0-0.047-0.02-0.084-0.025-0.132c0.008-0.015,0.012-0.022,0.025-0.036l0.072-0.152c0.062-0.127,0.086-0.266,0.07-0.396
	c0-0.029-0.005-0.058-0.009-0.079l-0.037-0.146c-0.037-0.198-0.151-0.363-0.313-0.467c0.012-0.023,0.023-0.049,0.028-0.082
	l0.025-0.143c0.016-0.07,0.018-0.141,0.012-0.21c-0.012-0.129-0.062-0.26-0.144-0.362c0.099-0.125,0.146-0.279,0.144-0.438v-0.14
	c0-0.022-0.007-0.035-0.007-0.055c0-0.021-0.01-0.059-0.016-0.086c0.011-0.018,0.021-0.041,0.027-0.059
	c0.031-0.096,0.035-0.188,0.031-0.281c-0.012-0.066-0.028-0.118-0.044-0.174c0.021-0.08,0.032-0.16,0.021-0.256
	c0,0,0-0.021-0.005-0.023c-0.016-0.164-0.083-0.293-0.188-0.41c0.063-0.117,0.096-0.251,0.075-0.4l-0.012-0.157
	c-0.01-0.097-0.047-0.193-0.08-0.272V70.75v-0.027c-0.012-0.08-0.043-0.173-0.074-0.246c0.062-0.123,0.091-0.27,0.08-0.414
	c-0.002-0.011-0.002-0.027-0.006-0.043c-0.021-0.127-0.072-0.242-0.146-0.326V69.59c-0.01-0.113-0.053-0.219-0.119-0.328
	c0.027-0.062,0.04-0.129,0.051-0.211l0.004-0.154c0.004-0.025,0.004-0.065,0-0.106c-0.015-0.103-0.037-0.199-0.095-0.295
	c0-0.011,0.01-0.027,0.01-0.045c0.085-0.142,0.134-0.302,0.111-0.46c0-0.032,0-0.042-0.011-0.073
	c-0.018-0.11-0.07-0.216-0.129-0.306c0.059-0.131,0.097-0.266,0.086-0.412c-0.004-0.036-0.01-0.067-0.01-0.086
	c-0.021-0.083-0.041-0.144-0.076-0.204v-0.023c-0.029-0.245-0.166-0.456-0.383-0.583c0.223-0.139,0.342-0.404,0.315-0.668v-0.027
	c-0.024-0.211-0.142-0.396-0.315-0.525c-0.014-0.027-0.033-0.055-0.054-0.096c-0.021-0.101-0.062-0.217-0.128-0.317
	c0.038-0.086,0.061-0.178,0.077-0.265c0.079-0.125,0.118-0.285,0.099-0.443c0.012-0.027,0.025-0.048,0.033-0.072
	c0.023-0.09,0.031-0.176,0.023-0.262c-0.008-0.029-0.015-0.068-0.021-0.104c0.04-0.088,0.063-0.185,0.063-0.271v-0.084
	c-0.022-0.158-0.08-0.311-0.185-0.436c0.035-0.097,0.056-0.209,0.044-0.32v-0.046c-0.021-0.108-0.07-0.226-0.129-0.313
	c0-0.029,0-0.047-0.008-0.09v-0.038v-0.011c0.066-0.126,0.096-0.264,0.086-0.416c-0.004-0.025-0.004-0.045-0.009-0.064
	c-0.032-0.14-0.097-0.265-0.188-0.367c0.086-0.135,0.127-0.297,0.119-0.469c-0.008-0.033-0.008-0.088-0.027-0.13
	c-0.025-0.086-0.061-0.157-0.117-0.222c0.064-0.125,0.078-0.253,0.07-0.393c0-0.053-0.014-0.103-0.035-0.164l-0.047-0.137
	c-0.041-0.128-0.113-0.23-0.209-0.316c0-0.025,0.004-0.055,0-0.096c0-0.008,0-0.021-0.004-0.048c0,0,0.004,0,0.004-0.012
	c0,0,0.012-0.041,0.017-0.086c0.021-0.052,0.045-0.104,0.045-0.104c0.049-0.106,0.063-0.229,0.056-0.343
	c-0.015-0.103-0.044-0.194-0.083-0.28c-0.018-0.033-0.032-0.057-0.058-0.076c0-0.006,0.009-0.021,0.009-0.027
	c0-0.016,0-0.042-0.009-0.068c-0.002-0.104-0.038-0.207-0.085-0.303c0.01-0.064,0.01-0.123,0.002-0.193
	c0-0.013-0.002-0.031-0.002-0.039c0-0.025-0.007-0.031-0.011-0.058c0.013-0.051,0.035-0.11,0.035-0.11
	c0.026-0.098,0.045-0.189,0.029-0.298c-0.008-0.089-0.029-0.17-0.064-0.237c0.021-0.084,0.027-0.176,0.021-0.252
	c-0.008-0.088-0.03-0.184-0.063-0.252l-0.08-0.164c-0.021-0.041-0.041-0.078-0.072-0.111v-0.018
	c-0.014-0.084-0.047-0.162-0.094-0.238c0.065-0.086,0.119-0.19,0.14-0.295c0.011-0.071,0.019-0.146,0.007-0.226
	c-0.002-0.116-0.047-0.229-0.109-0.327c-0.016-0.125-0.058-0.238-0.131-0.339c0.141-0.138,0.233-0.317,0.238-0.53v-0.09
	c-0.014-0.127-0.064-0.246-0.131-0.354c0.027-0.087,0.047-0.18,0.041-0.278c-0.008-0.036-0.018-0.088-0.033-0.138
	c-0.047-0.172-0.166-0.324-0.316-0.42v-0.043c-0.014-0.117-0.049-0.236-0.112-0.331c0.024-0.083,0.043-0.173,0.04-0.271V52.16
	c-0.008-0.051-0.018-0.107-0.032-0.149c0.187-0.141,0.299-0.374,0.289-0.624v-0.031c-0.011-0.08-0.037-0.166-0.069-0.231
	c0-0.026,0.004-0.049,0.004-0.067c-0.004-0.048-0.016-0.084-0.023-0.138c-0.055-0.199-0.189-0.354-0.367-0.457
	c-0.004-0.022-0.01-0.058-0.01-0.058c-0.014-0.07-0.035-0.131-0.066-0.181c0-0.019,0.006-0.043,0-0.051v-0.01
	c0.081-0.08,0.148-0.161,0.188-0.266l0.072-0.154c0.053-0.118,0.064-0.24,0.055-0.363c-0.002-0.08-0.021-0.154-0.055-0.233
	c-0.016-0.019-0.033-0.044-0.047-0.07c0.004-0.054,0.004-0.095,0.004-0.137c-0.02-0.155-0.076-0.303-0.186-0.415
	c-0.008-0.059-0.033-0.104-0.055-0.145c0.017-0.062,0.017-0.119,0.017-0.165c0.073-0.124,0.108-0.271,0.088-0.422V47.77
	c-0.009-0.101-0.04-0.191-0.088-0.268v-0.037c-0.005-0.084-0.035-0.168-0.069-0.237v-0.083c-0.008-0.057-0.012-0.105-0.024-0.153
	c-0.031-0.081-0.072-0.163-0.136-0.229c0.025-0.088,0.039-0.17,0.031-0.258c0-0.004-0.006-0.004-0.006-0.004
	c-0.004-0.084-0.035-0.175-0.07-0.248c0.113-0.137,0.188-0.301,0.193-0.473c0-0.029,0-0.066-0.007-0.095
	c0-0.055-0.007-0.101-0.026-0.153c0.033-0.094,0.049-0.186,0.049-0.293c-0.004-0.006-0.004-0.028-0.004-0.037
	c-0.012-0.121-0.045-0.225-0.098-0.312c0.023-0.099,0.046-0.207,0.033-0.302v-0.016c-0.002-0.082-0.018-0.135-0.033-0.195
	c0.002-0.033,0.002-0.08,0-0.123c-0.009-0.072-0.027-0.134-0.051-0.203c0-0.039,0.004-0.062,0-0.098
	c-0.018-0.134-0.061-0.239-0.131-0.342c-0.008-0.053-0.019-0.094-0.031-0.151c0.025-0.085,0.044-0.177,0.031-0.275
	c-0.019-0.199-0.117-0.37-0.277-0.503c0.062-0.125,0.096-0.262,0.079-0.398c-0.005-0.045-0.017-0.094-0.024-0.145
	c0.01-0.058,0.01-0.123,0.004-0.189c-0.004-0.018-0.006-0.055-0.015-0.088c0,0-0.022-0.099-0.03-0.137
	c-0.014-0.034-0.022-0.143-0.022-0.143l-0.009-0.006c0.082-0.137,0.119-0.285,0.109-0.444v-0.018
	c-0.023-0.146-0.078-0.286-0.174-0.387c-0.01-0.039-0.014-0.065-0.023-0.105c0.026-0.092,0.045-0.192,0.031-0.281
	c-0.005-0.06-0.018-0.087-0.021-0.145c0-0.011-0.01-0.011-0.01-0.026c0.004-0.005,0.014-0.024,0.014-0.024
	c0.085-0.147,0.121-0.304,0.107-0.464c-0.017-0.139-0.068-0.281-0.156-0.396c0.049-0.121,0.065-0.247,0.059-0.375
	c-0.01-0.047-0.014-0.092-0.023-0.141c-0.035-0.118-0.104-0.222-0.188-0.301c0.008-0.059,0.031-0.104,0.037-0.159
	c0-0.044,0.003-0.1,0-0.148c0-0.024-0.01-0.067-0.021-0.088c0.021-0.065,0.024-0.143,0.024-0.216c0,0-0.003-0.012-0.003-0.021
	c-0.006-0.079-0.029-0.143-0.059-0.219c0.008-0.04,0.008-0.07,0-0.11c-0.004-0.062-0.017-0.112-0.024-0.171
	c-0.039-0.098-0.103-0.186-0.165-0.27V37.05c0.037-0.118,0.051-0.231,0.043-0.339c0-0.025-0.014-0.059-0.02-0.088
	c0.02-0.03,0.035-0.055,0.047-0.092c0.026-0.097,0.041-0.202,0.033-0.308c-0.012-0.088-0.033-0.159-0.074-0.249
	c0.018-0.062,0.018-0.139,0.014-0.206c0-0.046-0.014-0.103-0.031-0.15c-0.04-0.136-0.125-0.259-0.236-0.351
	c0.027-0.092,0.039-0.18,0.031-0.275c-0.01-0.064-0.031-0.145-0.061-0.221c0-0.027,0.004-0.064,0-0.1
	c-0.004-0.083-0.024-0.159-0.061-0.227c0.129-0.143,0.209-0.345,0.2-0.543c0-0.008-0.007-0.027-0.007-0.032
	c-0.014-0.161-0.077-0.306-0.18-0.42c0-0.011,0.004-0.021,0-0.03c-0.01-0.147-0.071-0.275-0.164-0.398c0-0.023,0.007-0.046,0-0.072
	v-0.004c-0.004-0.084-0.025-0.165-0.063-0.234c0.029-0.074,0.058-0.135,0.063-0.21c0.115-0.146,0.17-0.325,0.154-0.517v-0.016
	c-0.022-0.206-0.137-0.391-0.309-0.522c0.021-0.053,0.037-0.1,0.037-0.1c0.031-0.087,0.04-0.181,0.035-0.267l-0.004-0.152V30.89
	c-0.006-0.049-0.024-0.1-0.031-0.141c0.007-0.064,0.007-0.121,0.007-0.182v-0.039c-0.021-0.166-0.101-0.307-0.222-0.424
	c0.007-0.048,0.011-0.1,0.007-0.15c0.04-0.102,0.046-0.206,0.044-0.314c0-0.012-0.004-0.012-0.004-0.012
	c-0.005-0.053-0.02-0.096-0.027-0.141c0.006-0.05,0.006-0.094,0.006-0.138c0-0.015-0.006-0.015-0.006-0.028
	c-0.009-0.102-0.043-0.208-0.096-0.303c0-0.014-0.006-0.023-0.006-0.039c0.08-0.139,0.121-0.293,0.102-0.444
	c0-0.036-0.009-0.052-0.013-0.087c-0.007-0.039-0.021-0.07-0.035-0.113c0.058-0.096,0.099-0.229,0.099-0.357v-0.07
	c-0.02-0.166-0.094-0.322-0.205-0.443c0.033-0.092,0.054-0.197,0.045-0.299l-0.008-0.151v-0.032
	c-0.004-0.073-0.029-0.128-0.052-0.189c0.022-0.095,0.038-0.186,0.03-0.272c-0.008-0.046-0.012-0.079-0.025-0.126l0.096-0.032
	c0.113-0.035,0.215-0.101,0.3-0.179c0.024-0.008,0.056-0.008,0.056-0.008c0.105-0.035,0.213-0.102,0.305-0.176
	c0.117-0.022,0.231-0.068,0.332-0.141c0.188-0.062,0.369-0.181,0.493-0.341c0.043-0.028,0.074-0.052,0.109-0.081
	c0,0,0.006-0.007,0.009-0.007l0.141-0.066c0.069-0.035,0.144-0.083,0.198-0.136c0.142-0.049,0.267-0.141,0.375-0.253
	c0.107-0.07,0.205-0.139,0.283-0.244c0,0,0.021-0.036,0.047-0.062c0.099-0.053,0.187-0.129,0.252-0.209l0.104-0.115
	c0.017-0.027,0.043-0.054,0.064-0.084c0.143-0.11,0.254-0.256,0.324-0.419c0-0.011,0.016-0.015,0.021-0.032l0.114-0.113
	c0.097-0.086,0.167-0.188,0.222-0.318c0.047-0.043,0.084-0.102,0.119-0.146c0,0,0.019-0.032,0.034-0.064
	c0.022-0.025,0.054-0.066,0.054-0.066c0.082-0.105,0.149-0.221,0.188-0.363l0.042-0.139c0.005-0.015,0.009-0.032,0.009-0.057
	l0.039-0.139c0-0.008,0-0.014,0.004-0.032c0.047-0.079,0.076-0.169,0.106-0.254c0,0,0-0.023,0.004-0.032
	c0.003-0.002,0.013-0.026,0.013-0.026c0.062-0.134,0.1-0.273,0.104-0.419c0.024-0.095,0.049-0.189,0.053-0.268
	c0.024-0.091,0.047-0.162,0.056-0.252l0.019-0.151c0.011-0.079,0.011-0.144,0-0.21c-0.011-0.096-0.035-0.193-0.073-0.295v-0.01
	c0-0.012-0.004-0.034-0.01-0.043c0.018-0.084,0.018-0.176,0.015-0.268c-0.005-0.049-0.009-0.086-0.021-0.135l-0.037-0.156
	c-0.016-0.074-0.051-0.151-0.076-0.222c0.008-0.08,0.016-0.163,0.008-0.245c-0.023-0.137-0.052-0.266-0.115-0.396
	c0,0-0.047-0.082-0.065-0.117c-0.015-0.031-0.054-0.117-0.054-0.117c-0.018-0.041-0.043-0.08-0.067-0.117
	c0,0-0.028-0.047-0.056-0.088c-0.03-0.156-0.094-0.306-0.198-0.431V18.1c-0.022-0.199-0.099-0.395-0.214-0.542
	c-0.059-0.146-0.139-0.271-0.248-0.367c0,0-0.049-0.057-0.077-0.087c-0.031-0.068-0.07-0.137-0.119-0.198l-0.094-0.119
	c-0.037-0.039-0.077-0.08-0.11-0.112c-0.052-0.145-0.13-0.278-0.242-0.389c0,0-0.078-0.081-0.097-0.094
	c-0.058-0.115-0.125-0.223-0.215-0.307c-0.056-0.101-0.132-0.195-0.218-0.263c-0.107-0.187-0.266-0.341-0.463-0.429
	c-0.041-0.057-0.08-0.104-0.127-0.148c-0.053-0.096-0.123-0.177-0.205-0.247l-0.117-0.11c-0.063-0.051-0.127-0.092-0.202-0.138
	c-0.065-0.058-0.122-0.104-0.192-0.147c0,0-0.025-0.018-0.035-0.021c-0.021-0.038-0.054-0.083-0.054-0.083
	c-0.048-0.082-0.104-0.148-0.17-0.216c-0.129-0.221-0.332-0.394-0.581-0.478c-0.044-0.055-0.093-0.097-0.152-0.134H69.35
	c-0.062-0.081-0.127-0.139-0.205-0.204c0,0-0.078-0.048-0.106-0.071c-0.026-0.027-0.108-0.085-0.108-0.085
	c-0.05-0.065-0.099-0.12-0.148-0.174l-0.12-0.11c-0.079-0.082-0.181-0.138-0.279-0.188c-0.015-0.012-0.028-0.021-0.039-0.036
	l-0.126-0.092c-0.059-0.052-0.113-0.084-0.188-0.124l-0.145-0.068c-0.018-0.014-0.039-0.015-0.054-0.023
	c-0.173-0.125-0.36-0.202-0.58-0.217c-0.396-0.018-0.772,0.187-0.962,0.537l-0.062,0.098c-0.065,0.127-0.11,0.268-0.127,0.406
	l-0.007,0.147c-0.009,0.065-0.009,0.123,0,0.192c0.003,0.066,0.022,0.111,0.033,0.176c0,0,0.011,0.062,0.022,0.098v0.008
	c0.01,0.029,0.01,0.064,0.01,0.064v0.068v0.013v0.003c-0.021,0.086-0.021,0.186-0.016,0.278c0.016,0.102,0.041,0.196,0.082,0.286
	c-0.021,0.107-0.029,0.205-0.021,0.312c0.002,0.007,0.002,0.021,0.002,0.048l0.021,0.15c0.014,0.082,0.032,0.169,0.069,0.252
	c0,0,0.007,0.027,0.024,0.066c0,0.02-0.006,0.062,0,0.092c0.003,0.035,0.011,0.077,0.018,0.11v0.018v0.02v0.121
	c-0.021,0.11-0.035,0.218-0.021,0.334c0.004,0.044,0.008,0.085,0.016,0.121l0.039,0.153c0.014,0.084,0.043,0.154,0.076,0.232
	c-0.045,0.128-0.062,0.265-0.045,0.41c0.012,0.105,0.039,0.216,0.082,0.318c-0.017,0.092-0.029,0.182-0.017,0.291
	c0.007,0.045,0.013,0.098,0.021,0.141l0.006,0.022v0.022c0,0.041,0.007,0.082,0.007,0.116c0,0.016,0,0.03,0.002,0.04l0.026,0.143
	c0,0.043,0.009,0.084,0.015,0.119c0,0.057,0,0.098,0.007,0.148c0,0.033,0.006,0.057,0.016,0.086c-0.01,0.074-0.016,0.146-0.01,0.223
	c0.012,0.133,0.051,0.258,0.104,0.371c0,0.037-0.006,0.068-0.006,0.068v0.057v0.154v0.107c0.017,0.107,0.035,0.195,0.068,0.297
	c0,0,0.012,0.021,0.026,0.043c-0.026,0.092-0.031,0.193-0.026,0.281c0.01,0.04,0.012,0.08,0.026,0.117
	c-0.011,0.055-0.017,0.121,0,0.187c0.008,0.104,0.021,0.198,0.062,0.296c0,0,0.006,0.025,0.021,0.045
	c-0.021,0.088-0.035,0.188-0.021,0.279c0,0.025,0.006,0.039,0.012,0.048c-0.012,0.095-0.016,0.169-0.012,0.253
	c0.012,0.113,0.035,0.207,0.078,0.305c-0.006,0.055-0.011,0.105,0,0.152c0,0.018,0.004,0.023,0.004,0.037
	c-0.015,0.094-0.023,0.193-0.015,0.279c0.011,0.104,0.038,0.198,0.073,0.299v0.005c0,0.015,0.011,0.038,0.011,0.05
	c-0.014,0.088-0.022,0.182-0.011,0.266c0.011,0.104,0.042,0.204,0.088,0.311v0.022v0.022v0.014l-0.021,0.151
	c-0.015,0.077-0.015,0.165-0.004,0.239l0.01,0.162c0.01,0.028,0.017,0.052,0.017,0.074c-0.003,0.082-0.007,0.154-0.003,0.229
	c0.01,0.113,0.045,0.242,0.095,0.339v0.118c0.003,0.038,0.019,0.086,0.022,0.116c-0.026,0.118-0.039,0.231-0.026,0.354
	c0.004,0.037,0.007,0.075,0.021,0.11c-0.025,0.017-0.053,0.023-0.066,0.023c-0.027,0.018-0.042,0.018-0.064,0.018l-0.147,0.023
	c-0.136,0.021-0.257,0.091-0.356,0.177c-0.139-0.123-0.312-0.187-0.508-0.187c-0.128,0-0.257,0.03-0.361,0.09
	c-0.142-0.06-0.283-0.08-0.435-0.06c-0.16,0.024-0.306,0.104-0.419,0.216c-0.025,0-0.059-0.004-0.089-0.004
	c-0.115-0.078-0.246-0.133-0.394-0.152c-0.252-0.02-0.498,0.084-0.651,0.285c-0.029,0.01-0.044,0.016-0.074,0.021
	c-0.049-0.021-0.101-0.043-0.159-0.043c-0.105-0.077-0.229-0.115-0.357-0.12c-0.166-0.013-0.322,0.03-0.461,0.12
	c-0.058-0.005-0.117-0.009-0.174-0.005c-0.119,0.005-0.226,0.042-0.318,0.088c-0.055-0.004-0.127-0.017-0.186-0.017
	c-0.082,0-0.15,0.013-0.224,0.034c-0.052-0.021-0.108-0.048-0.161-0.063c-0.21-0.063-0.436-0.022-0.617,0.099l-0.148,0.103
	c-0.008,0-0.021,0.014-0.021,0.014c-0.088,0-0.168,0.01-0.264,0.038c0,0-0.037,0.015-0.086,0.026
	c-0.142-0.026-0.287-0.026-0.425,0.031c0,0-0.018,0.01-0.025,0.014h-0.031c-0.053,0-0.109,0.006-0.164,0.023
	c0,0-0.035,0.005-0.074,0.018c-0.168-0.173-0.41-0.267-0.662-0.234c-0.104,0.023-0.211,0.066-0.303,0.122
	c-0.062-0.013-0.123-0.028-0.193-0.028c-0.033,0-0.066,0-0.098,0.016c-0.104-0.039-0.222-0.043-0.33-0.025
	c-0.115,0.01-0.211,0.053-0.308,0.11h-0.06c-0.123,0.005-0.239,0.04-0.342,0.105c-0.145,0.005-0.293,0.062-0.397,0.147
	c-0.13-0.047-0.285-0.072-0.437-0.047c-0.119-0.062-0.254-0.09-0.401-0.078c-0.13,0.016-0.25,0.063-0.354,0.141
	c-0.121-0.062-0.252-0.1-0.389-0.077c-0.178,0.015-0.328,0.087-0.45,0.195c-0.114,0.046-0.22,0.103-0.302,0.198
	c-0.1-0.068-0.209-0.096-0.326-0.102c-0.123-0.06-0.258-0.09-0.391-0.074c-0.168-0.064-0.357-0.064-0.531,0l-0.139,0.062
	c-0.016,0-0.016,0.004-0.021,0.004l-0.139,0.074h-0.02c-0.17-0.126-0.396-0.184-0.607-0.117c-0.115,0.015-0.225,0.075-0.307,0.152
	c-0.047,0.012-0.093,0.033-0.132,0.053c-0.094-0.038-0.192-0.07-0.293-0.07c-0.053,0-0.103,0.018-0.153,0.025
	c-0.164-0.101-0.357-0.121-0.543-0.076c-0.067,0.016-0.129,0.043-0.19,0.08c-0.104-0.012-0.224-0.012-0.325,0.021
	c-0.049,0.012-0.088,0.043-0.129,0.053c-0.082-0.033-0.182-0.062-0.273-0.071c-0.232-0.007-0.452,0.102-0.598,0.276h-0.061
	c-0.142-0.127-0.339-0.205-0.543-0.19c-0.146,0.016-0.275,0.063-0.389,0.151c-0.054-0.018-0.113-0.027-0.17-0.027H48.22
	c-0.018-0.006-0.033,0-0.055,0l-0.158,0.01c-0.098,0.004-0.198,0.031-0.291,0.082c-0.148,0.015-0.287,0.059-0.4,0.134
	c-0.148-0.119-0.352-0.198-0.56-0.185c-0.085,0.009-0.158,0.033-0.231,0.065c-0.018,0-0.045-0.015-0.057-0.015
	c-0.187-0.025-0.365,0.016-0.51,0.115c-0.065-0.015-0.134-0.027-0.201-0.027c-0.161,0-0.314,0.063-0.439,0.155
	c-0.148-0.079-0.321-0.109-0.493-0.07c-0.183,0.033-0.343,0.144-0.452,0.294c-0.139-0.14-0.32-0.241-0.521-0.241
	c-0.096,0-0.187,0.016-0.27,0.034c-0.072,0-0.145,0-0.203,0.021c-0.201,0.035-0.357,0.136-0.474,0.283
	c-0.026,0.014-0.044,0.014-0.068,0.014c-0.13-0.088-0.296-0.133-0.473-0.128c-0.158,0-0.301,0.067-0.419,0.165
	c-0.163-0.137-0.379-0.198-0.59-0.165c-0.037,0.017-0.072,0.028-0.098,0.028c-0.188-0.012-0.377,0.033-0.53,0.149
	c0,0-0.095,0.072-0.125,0.101c-0.036,0-0.079,0.003-0.119,0.016c-0.112-0.044-0.243-0.061-0.368-0.044c0,0-0.033,0.003-0.058,0.013
	c-0.116-0.064-0.244-0.098-0.383-0.085c-0.116,0-0.23,0.04-0.325,0.101c-0.105-0.041-0.222-0.055-0.34-0.045
	c-0.158,0.017-0.304,0.087-0.411,0.188c-0.042-0.013-0.071-0.019-0.105-0.019c-0.163-0.01-0.314,0.041-0.44,0.137
	c-0.043,0.005-0.087,0.02-0.129,0.042c-0.17-0.198-0.424-0.301-0.675-0.262c-0.138,0.024-0.253,0.073-0.349,0.153
	c-0.082-0.029-0.17-0.029-0.251-0.014c-0.195-0.076-0.422-0.056-0.604,0.052c-0.099-0.038-0.215-0.067-0.327-0.052
	c-0.143,0.014-0.278,0.062-0.382,0.145c-0.105-0.005-0.2,0.02-0.301,0.059c-0.106-0.039-0.231-0.039-0.344-0.02
	c-0.016,0-0.037,0.02-0.055,0.02c-0.114-0.059-0.246-0.063-0.371-0.059c-0.135,0.032-0.256,0.08-0.355,0.173
	c-0.094-0.052-0.184-0.074-0.281-0.088c-0.115-0.005-0.223,0.018-0.319,0.062c-0.073,0-0.143,0-0.22,0.012
	c-0.193-0.093-0.415-0.093-0.615,0.015c0,0-0.021,0-0.033,0.013h-0.013c-0.138,0.01-0.268,0.053-0.376,0.135
	c-0.111,0.02-0.213,0.057-0.307,0.121c-0.002-0.01-0.01-0.01-0.016-0.01c-0.197-0.048-0.398-0.008-0.562,0.092
	c-0.021-0.014-0.044-0.038-0.044-0.038c-0.137-0.137-0.32-0.207-0.51-0.207v-0.04c-0.007-0.053-0.022-0.119-0.042-0.18
	c0.031-0.065,0.042-0.148,0.042-0.232l0.007-0.152c0-0.028,0-0.061-0.007-0.086c-0.007-0.105-0.047-0.216-0.09-0.299v-0.118
	c-0.012-0.052-0.021-0.097-0.029-0.145c0.012-0.066,0.018-0.146,0.012-0.216L30.5,26.184c0,0,0-0.008-0.005-0.008
	c0.042-0.109,0.06-0.219,0.051-0.332c0-0.014,0-0.021-0.004-0.035c-0.009-0.051-0.018-0.094-0.038-0.139c0-0.039,0.003-0.08,0-0.121
	c-0.004-0.03-0.013-0.082-0.018-0.111c0,0-0.015-0.047-0.022-0.086c0.008-0.044,0.02-0.102,0.02-0.15
	c0.047-0.088,0.062-0.192,0.069-0.299c0.002-0.027,0-0.059-0.007-0.082v-0.01c0.007-0.031,0.009-0.059,0.009-0.079
	c0.012-0.05,0.012-0.083,0-0.13c-0.018-0.211-0.132-0.41-0.31-0.537c0-0.037,0-0.07-0.007-0.108
	c-0.006-0.09-0.026-0.188-0.062-0.274c0.005-0.064,0.009-0.127,0.005-0.191c0-0.021-0.009-0.046-0.012-0.072
	c0.012-0.082,0.012-0.15,0.003-0.232c-0.009-0.124-0.038-0.233-0.086-0.34c0,0-0.021-0.045-0.04-0.083
	c-0.014-0.034-0.018-0.065-0.018-0.065c-0.005-0.002-0.009-0.009-0.009-0.009c0.004-0.051,0.009-0.11,0.009-0.11v-0.062
	c0.039-0.145,0.058-0.273,0.039-0.415c-0.01-0.123-0.052-0.264-0.123-0.378V21.68c0.031-0.107,0.038-0.218,0.029-0.316
	c-0.007-0.018-0.007-0.023-0.007-0.04v-0.021V21.27c0.016-0.078,0.016-0.148,0.009-0.227c-0.018-0.118-0.053-0.235-0.104-0.342
	c0.015-0.088,0.021-0.178,0.015-0.258c0-0.045-0.015-0.084-0.024-0.115c0.005-0.021,0.005-0.041,0.005-0.041
	c0.026-0.107,0.031-0.207,0.023-0.306c-0.015-0.103-0.039-0.191-0.072-0.279c0.002-0.003,0.002-0.024,0.002-0.024
	c0-0.051,0-0.102-0.002-0.146c0-0.024-0.008-0.041-0.011-0.061c0.013-0.084,0.013-0.166,0.011-0.246
	c-0.008-0.064-0.023-0.125-0.043-0.186c0-0.038,0.005-0.084,0-0.121c-0.007-0.09-0.027-0.189-0.068-0.279
	c0.006-0.062,0.01-0.117,0.006-0.174c0-0.011,0-0.028-0.006-0.037l-0.015-0.156c-0.015-0.035-0.02-0.07-0.023-0.109
	c0.023-0.103,0.026-0.202,0.01-0.303c-0.001-0.065-0.01-0.111-0.019-0.179l-0.044-0.14c-0.008-0.025-0.008-0.039-0.018-0.052
	c0-0.021,0-0.048-0.002-0.064c-0.007-0.075-0.018-0.138-0.037-0.198c0.018-0.076,0.018-0.161,0.008-0.238v-0.013
	c0.012-0.083,0.022-0.173,0.012-0.27c-0.002-0.099-0.033-0.201-0.07-0.302l-0.055-0.119c-0.154-0.373-0.512-0.628-0.923-0.639
	c-0.301-0.005-0.589,0.115-0.789,0.329c-0.135,0.075-0.248,0.161-0.34,0.294c0,0-0.018,0.016-0.04,0.043
	c-0.033,0.021-0.068,0.043-0.068,0.043c-0.079,0.049-0.154,0.127-0.213,0.198l-0.11,0.127c0,0-0.007,0.011-0.018,0.025l-0.085,0.12
	c-0.07,0.084-0.119,0.172-0.154,0.282c-0.002,0.005-0.006,0.019-0.021,0.02l-0.004,0.006c-0.129,0.064-0.239,0.16-0.325,0.274
	l-0.097,0.123c-0.065,0.076-0.114,0.156-0.148,0.25h-0.005c-0.127,0.123-0.225,0.266-0.278,0.43c0,0.01-0.084,0.113-0.095,0.129
	c-0.132,0.088-0.24,0.194-0.317,0.336l-0.115,0.105c-0.08,0.08-0.146,0.162-0.194,0.264l-0.077,0.145
	c-0.026,0.035-0.035,0.071-0.057,0.11c-0.048,0.07-0.097,0.136-0.13,0.216l-0.004,0.02l-0.011,0.004
	c-0.054,0.06-0.105,0.139-0.139,0.213c-0.108,0.108-0.191,0.238-0.24,0.385l-0.055,0.15c-0.015,0.02-0.018,0.057-0.022,0.072
	c-0.015,0.014-0.022,0.039-0.022,0.039c-0.05,0.053-0.091,0.104-0.124,0.175l-0.084,0.14v0.016
	c-0.148,0.153-0.255,0.336-0.296,0.554c-0.058,0.104-0.104,0.243-0.117,0.364c-0.009,0.031-0.025,0.053-0.03,0.079
	c0,0-0.013,0.044-0.031,0.079c-0.177,0.2-0.27,0.461-0.255,0.732c-0.067,0.109-0.118,0.213-0.149,0.345l-0.026,0.147
	c-0.018,0.062-0.02,0.131-0.02,0.203c-0.079,0.146-0.113,0.322-0.113,0.504c-0.034,0.116-0.043,0.246-0.034,0.369
	c0,0.026,0.012,0.051,0.02,0.086c-0.008,0.07-0.02,0.148-0.008,0.215c0.008,0.072,0.022,0.149,0.039,0.218
	c0,0.003-0.011,0.024-0.011,0.024c-0.028,0.109-0.044,0.227-0.04,0.34l0.012,0.163c0,0.009,0.006,0.028,0.006,0.035
	c0.002,0.058,0.01,0.121,0.026,0.165l0.04,0.154c0.004,0.039,0.02,0.07,0.031,0.107c0,0,0.032,0.083,0.043,0.121v0.048
	c0.021,0.167,0.074,0.316,0.161,0.474c0.015,0.006,0.023,0.036,0.03,0.058l0.007,0.026c0,0.01,0.001,0.027,0.001,0.027
	c0.026,0.226,0.117,0.426,0.271,0.592l0.105,0.111h0.004c0.012,0.029,0.024,0.05,0.033,0.07c0,0,0.005,0.013,0.012,0.025
	c0.008,0.01,0.008,0.026,0.008,0.026c0.067,0.224,0.215,0.413,0.398,0.54c0.083,0.111,0.19,0.198,0.306,0.267
	c0.017,0.033,0.084,0.123,0.084,0.123c0.115,0.168,0.273,0.297,0.458,0.37l0.015,0.01c0.002,0,0.005,0.014,0.005,0.014
	c0.017,0,0.034,0.015,0.048,0.022l0.097,0.128c0.099,0.123,0.212,0.229,0.352,0.293l0.143,0.074
	c0.044,0.025,0.099,0.031,0.151,0.055c0.14,0.124,0.308,0.212,0.495,0.25c0.053,0.026,0.103,0.052,0.165,0.072
	c0.074,0.051,0.164,0.105,0.259,0.133c0.107,0.08,0.229,0.135,0.355,0.172c0.133,0.064,0.286,0.114,0.44,0.13
	c0.063,0.037,0.116,0.063,0.185,0.082l0.131,0.041c0.091,0.04,0.195,0.052,0.293,0.052c0.141,0.104,0.321,0.166,0.507,0.174h0.062
	c-0.097,0.146-0.144,0.32-0.123,0.494v0.029l0.017,0.137c0,0.039,0.01,0.063,0.022,0.105c-0.035,0.09-0.053,0.197-0.035,0.303
	c0.005,0.092,0.035,0.188,0.09,0.279c-0.033,0.092-0.051,0.184-0.044,0.279c0.006,0.018,0.011,0.046,0.011,0.066
	c0.036,0.172,0.117,0.318,0.244,0.428c0.013,0.013,0.013,0.02,0.02,0.035c-0.109,0.139-0.155,0.325-0.146,0.501
	c0.008,0.087,0.037,0.173,0.078,0.261c-0.098,0.143-0.145,0.311-0.125,0.49c0,0.016,0.004,0.033,0.004,0.064
	c0.019,0.081,0.047,0.169,0.096,0.249c0.009,0.034,0.018,0.089,0.025,0.12c-0.002,0.058-0.002,0.105,0,0.164
	c0.01,0.114,0.049,0.23,0.119,0.341c-0.02,0.07-0.027,0.153-0.027,0.233c0,0,0.008,0.076,0.008,0.12
	c0,0.046-0.008,0.123-0.008,0.123v0.104c0.023,0.12,0.064,0.257,0.133,0.358c0,0,0.011,0.013,0.016,0.013
	c-0.016,0.07-0.018,0.134-0.016,0.207c0,0.026,0.011,0.034,0.016,0.063c-0.11,0.139-0.167,0.305-0.156,0.496v0.024
	c0.021,0.177,0.107,0.353,0.237,0.476c-0.074,0.08-0.12,0.184-0.149,0.303c-0.011,0.068-0.016,0.151-0.011,0.22
	c0.011,0.13,0.051,0.251,0.127,0.354c-0.053,0.112-0.079,0.241-0.065,0.376c0.002,0,0.002,0.018,0.002,0.021
	c0.021,0.162,0.095,0.309,0.198,0.406c-0.029,0.1-0.037,0.195-0.029,0.291c0.007,0.096,0.044,0.201,0.098,0.307
	c-0.014,0.025-0.045,0.112-0.045,0.112c-0.023,0.101-0.041,0.204-0.023,0.299c0,0.034,0.009,0.066,0.015,0.099
	c-0.044,0.105-0.068,0.223-0.054,0.35c0.002,0.042,0.01,0.06,0.01,0.084l0.033,0.145c0.034,0.15,0.104,0.279,0.213,0.379
	c0.009,0.039,0.026,0.08,0.045,0.101c-0.058,0.103-0.1,0.21-0.114,0.329c-0.003,0.044-0.003,0.086,0,0.127
	c0.009,0.04,0.018,0.075,0.025,0.116c-0.037,0.101-0.055,0.212-0.048,0.324c0.011,0.138,0.062,0.275,0.14,0.37
	c-0.048,0.123-0.061,0.236-0.059,0.371c0.007,0.031,0.011,0.071,0.018,0.1c0.012,0.04,0.022,0.08,0.041,0.11
	c-0.052,0.123-0.078,0.251-0.061,0.387c0,0.013,0,0.04,0.002,0.055l0.02,0.142c0.026,0.143,0.094,0.26,0.177,0.366
	c-0.027,0.099-0.042,0.202-0.033,0.316c0.006,0.058,0.016,0.13,0.042,0.187c0.044,0.109,0.106,0.192,0.184,0.268
	c0.009,0.059,0.026,0.129,0.053,0.191c-0.022,0.037-0.037,0.068-0.037,0.068c-0.085,0.128-0.121,0.295-0.107,0.444
	c0.018,0.155,0.065,0.28,0.157,0.408c0,0,0.022,0.007,0.025,0.024c0.007,0.077,0.028,0.133,0.044,0.187
	c-0.135,0.154-0.204,0.367-0.187,0.569c0,0.028,0.008,0.055,0.016,0.078c0.01,0.076,0.036,0.139,0.066,0.207
	c-0.004,0.051-0.009,0.096-0.004,0.154c0,0.004,0,0.02,0.004,0.021c0.019,0.119,0.061,0.225,0.117,0.328v0.004
	c-0.016,0.084-0.016,0.16-0.007,0.234c0,0.039,0.007,0.084,0.026,0.124c-0.004,0.042-0.022,0.081-0.022,0.081
	c-0.018,0.074-0.023,0.146-0.013,0.24c0,0.045,0.013,0.09,0.031,0.133c-0.016,0.051-0.016,0.104,0,0.156
	c0.005,0.119,0.051,0.235,0.114,0.342c-0.007,0.018-0.017,0.048-0.017,0.085c0,0-0.001,0.018-0.001,0.037
	c-0.016,0.019-0.026,0.051-0.026,0.051c-0.055,0.114-0.07,0.243-0.065,0.366c0,0.018,0.008,0.029,0.008,0.038l0.021,0.151
	c0.009,0.074,0.037,0.127,0.064,0.197c-0.039,0.084-0.056,0.168-0.059,0.256c0,0.033,0,0.065,0.003,0.092
	c0.013,0.185,0.105,0.356,0.233,0.477c0.006,0.027,0.011,0.066,0.011,0.066v0.026c0,0.013,0,0.038,0.006,0.055l0.029,0.147
	c0.02,0.088,0.048,0.182,0.094,0.265v0.011c0,0,0.007,0.032,0.009,0.055c-0.06,0.105-0.101,0.217-0.12,0.332
	c-0.003,0.058-0.003,0.104,0,0.158c0.018,0.158,0.078,0.301,0.187,0.428c-0.075,0.115-0.114,0.266-0.104,0.418
	c0,0.014,0,0.014,0.007,0.025c0,0.055,0.013,0.107,0.021,0.149c-0.051,0.107-0.092,0.228-0.094,0.343v0.116
	c0.012,0.116,0.052,0.229,0.115,0.327v0.025c0.021,0.142,0.087,0.279,0.184,0.382c-0.106,0.133-0.174,0.289-0.184,0.467v0.085
	c0.016,0.155,0.066,0.286,0.165,0.393c-0.023,0.047-0.027,0.08-0.027,0.08c-0.042,0.092-0.008,0.198-0.054,0.284
	c-0.209,0.39,0.299,0.558,0.299,0.558c-0.25,0.25,0,0.767,0,0.767c-0.155,0.549,0.153,0.856,0.153,0.856
	c-0.309,0.682,0.165,0.957,0.165,0.957c0.011,0.018,0.014,0.028,0.014,0.037c-0.003,0.064-0.014,0.129-0.003,0.197v0.005
	c0.014,0.119,0.051,0.218,0.1,0.312c-0.086,0.141-0.133,0.31-0.115,0.479v0.037c0.029,0.187,0.123,0.353,0.264,0.462
	c0,0.042-0.002,0.063-0.002,0.102c0.008,0.051,0.021,0.113,0.045,0.166c-0.01,0.013-0.016,0.033-0.016,0.033
	c-0.018,0.059-0.027,0.108-0.027,0.168c-0.018,0.037-0.034,0.075-0.045,0.104l-0.061,0.168c-0.035,0.092-0.045,0.185-0.043,0.271
	c-0.026,0.039-0.047,0.094-0.047,0.094c-0.078,0.136-0.113,0.287-0.094,0.432c0.008,0.096,0.03,0.18,0.07,0.264
	c-0.004,0.037-0.012,0.069-0.012,0.106c-0.002,0.024,0,0.062,0,0.09c0.023,0.209,0.125,0.392,0.279,0.513
	c-0.002,0.024-0.006,0.047-0.006,0.047c-0.01,0.078-0.01,0.127-0.01,0.199c0.01,0.07,0.027,0.137,0.051,0.203
	c0,0-0.329,0.499-0.079,0.748c0,0-0.16,0.54,0.2,0.54L33.283,61.15z M28.441,27.887h-0.042c-0.011,0-0.011-0.02-0.018-0.02
	c0,0-0.053-0.009-0.093-0.023c-0.145-0.124-0.312-0.198-0.501-0.231c-0.099-0.046-0.195-0.07-0.294-0.086h-0.005
	c-0.087-0.072-0.195-0.153-0.299-0.19c-0.143-0.112-0.307-0.183-0.479-0.201c-0.07-0.09-0.156-0.176-0.254-0.236
	c0,0-0.045-0.027-0.087-0.053c-0.035-0.026-0.079-0.062-0.079-0.062c-0.018-0.011-0.033-0.032-0.046-0.032
	c-0.068-0.108-0.149-0.214-0.25-0.285l-0.115-0.104c-0.03-0.022-0.065-0.035-0.105-0.06c-0.019-0.026-0.041-0.051-0.065-0.082
	c-0.048-0.197-0.151-0.377-0.303-0.524c-0.009-0.018-0.009-0.026-0.022-0.052c-0.007-0.036-0.022-0.094-0.022-0.094
	c-0.008-0.018-0.02-0.061-0.032-0.088v-0.032c-0.016-0.159-0.068-0.31-0.147-0.442l-0.008-0.004c0-0.009,0.008-0.02,0.008-0.02
	l0.023-0.154c0.019-0.101,0.019-0.187,0.014-0.281c0-0.021-0.006-0.039-0.007-0.059l-0.021-0.158c0,0,0-0.01-0.01-0.01
	c0.01-0.088,0.013-0.153,0.01-0.222v-0.017c0-0.018,0-0.022,0.003-0.037c0.073-0.132,0.113-0.279,0.119-0.43
	c0,0,0.005-0.048,0.005-0.107c0.023-0.046,0.052-0.094,0.072-0.152l0.053-0.133c0.047-0.113,0.07-0.238,0.07-0.359
	c0.032-0.07,0.06-0.137,0.082-0.208c0.135-0.163,0.219-0.372,0.239-0.578c0.118-0.134,0.205-0.313,0.234-0.489
	c0.031-0.037,0.07-0.082,0.07-0.082c0.112-0.127,0.187-0.297,0.226-0.455c0.075-0.09,0.124-0.188,0.166-0.296
	c0.034-0.046,0.065-0.091,0.1-0.146c0.137-0.127,0.236-0.287,0.282-0.479c0.024-0.018,0.039-0.045,0.039-0.045
	c0.058-0.041,0.102-0.098,0.15-0.15c0.082-0.064,0.16-0.139,0.221-0.227c0,0,0.058-0.093,0.075-0.115
	c0.024-0.037,0.063-0.08,0.072-0.104c0.014-0.003,0.086-0.102,0.086-0.102c0.044-0.058,0.081-0.109,0.116-0.165
	c0,0.02-0.006,0.045,0,0.068c0,0.031,0.009,0.07,0.016,0.113c-0.006,0.064-0.007,0.124,0,0.189c0.01,0.074,0.028,0.154,0.053,0.214
	c-0.01,0.048-0.01,0.107-0.01,0.107c0,0.044,0,0.084,0.01,0.124c0.005,0.059,0.018,0.118,0.028,0.173
	c-0.015,0.097-0.02,0.195-0.011,0.29c0,0.024,0.007,0.062,0.021,0.104c-0.015,0.068-0.015,0.141-0.011,0.201
	c0.011,0.031,0.011,0.056,0.012,0.076c-0.001,0.085-0.012,0.152,0,0.229c0.006,0.096,0.041,0.201,0.077,0.291
	c-0.027,0.111-0.029,0.214-0.021,0.317c0.002,0.079,0.021,0.149,0.042,0.222c0,0.029,0,0.053,0.004,0.09
	c0,0.018,0.015,0.06,0.019,0.079l0.02,0.153c0,0.01,0.007,0.018,0.015,0.033c-0.008,0.061-0.008,0.123,0,0.174
	c0,0.044,0.005,0.068,0.012,0.088c0,0,0,0.026,0.006,0.042c0,0.015-0.006,0.053-0.006,0.053l-0.007,0.144
	c0,0.053,0,0.101,0.007,0.146c0.006,0.082,0.027,0.164,0.044,0.24c0,0,0.032,0.086,0.048,0.123c0.005,0.027,0.02,0.047,0.026,0.083
	c0,0.062-0.006,0.108,0,0.158c0,0.018,0.005,0.039,0.005,0.055c-0.012,0.079-0.021,0.175-0.012,0.259
	c0.001,0.021,0.007,0.042,0.007,0.05l0.018,0.151c0.005,0.062,0.028,0.109,0.044,0.152c0,0.04-0.006,0.075-0.006,0.113
	c0.006,0.027,0.006,0.053,0.02,0.078c-0.014,0.07-0.02,0.15-0.004,0.227c0,0,0.004,0.016,0.004,0.027
	c-0.004,0.017-0.014,0.025-0.014,0.025c-0.008,0.088-0.008,0.174-0.006,0.252c0.016,0.087,0.031,0.187,0.067,0.265l0.008,0.165
	c0,0.013,0,0.028,0.004,0.028c0.006,0.063,0.021,0.139,0.034,0.196c0,0.042-0.005,0.094-0.005,0.094
	c-0.001,0.064-0.001,0.112,0,0.174c0.008,0.096,0.031,0.18,0.067,0.264c-0.031,0.121-0.038,0.237-0.031,0.359
	c0.011,0.141,0.062,0.285,0.139,0.428c0,0.024-0.005,0.064-0.005,0.101l0.005,0.158v0.026c-0.024,0.123-0.038,0.236-0.024,0.36
	c0.007,0.072,0.02,0.147,0.046,0.228c0,0.018,0,0.047,0.003,0.075C28.431,27.85,28.438,27.867,28.441,27.887"/>
<path d="M35.769,87.387c0,0,0-0.095-0.001-0.139c0-0.014-0.006-0.014-0.01-0.028l-0.018-0.146c0-0.051-0.021-0.094-0.027-0.143
	c0.007-0.019,0.012-0.026,0.025-0.041l0.069-0.166c0.06-0.141,0.083-0.289,0.065-0.436c0-0.032-0.008-0.062-0.012-0.087
	l-0.038-0.159c-0.04-0.218-0.158-0.396-0.321-0.512c0.012-0.024,0.024-0.051,0.027-0.088l0.025-0.155
	c0.014-0.078,0.016-0.154,0.007-0.229c-0.013-0.14-0.065-0.283-0.146-0.396c0.093-0.137,0.141-0.307,0.133-0.479v-0.152
	c-0.002-0.023-0.007-0.035-0.007-0.059c0-0.022-0.011-0.062-0.018-0.096c0.011-0.02,0.021-0.042,0.028-0.062
	c0.027-0.104,0.033-0.205,0.026-0.308c-0.011-0.073-0.03-0.13-0.046-0.188c0.021-0.088,0.029-0.176,0.018-0.28
	c0,0,0-0.021-0.007-0.024c-0.017-0.18-0.088-0.322-0.193-0.449c0.062-0.129,0.089-0.273,0.068-0.438l-0.015-0.173
	c-0.01-0.104-0.047-0.212-0.084-0.296l0.002-0.019c-0.002-0.012-0.002-0.029-0.002-0.031c-0.012-0.088-0.044-0.188-0.077-0.27
	c0.06-0.134,0.086-0.293,0.073-0.449c-0.001-0.014-0.003-0.031-0.006-0.05c-0.021-0.14-0.076-0.265-0.15-0.356
	c-0.002-0.047-0.002-0.073-0.002-0.11c-0.012-0.125-0.058-0.24-0.124-0.358c0.028-0.07,0.036-0.141,0.046-0.229l0.002-0.169
	c0.003-0.029,0.003-0.072,0-0.117c-0.017-0.111-0.041-0.217-0.101-0.322c0-0.012,0.009-0.029,0.009-0.049
	c0.084-0.154,0.128-0.33,0.105-0.503c0-0.033-0.002-0.046-0.009-0.08c-0.021-0.121-0.074-0.235-0.136-0.333
	c0.057-0.145,0.094-0.288,0.081-0.45c-0.005-0.04-0.013-0.075-0.013-0.095c-0.022-0.092-0.042-0.154-0.078-0.223v-0.025
	c-0.034-0.27-0.173-0.5-0.395-0.639c0.224-0.15,0.338-0.442,0.308-0.729v-0.03c-0.026-0.23-0.147-0.433-0.325-0.574
	c-0.012-0.031-0.033-0.059-0.053-0.104c-0.021-0.11-0.064-0.237-0.133-0.348c0.036-0.095,0.059-0.194,0.073-0.29
	c0.077-0.139,0.114-0.312,0.091-0.482c0.013-0.031,0.027-0.053,0.034-0.082c0.022-0.095,0.031-0.189,0.021-0.283
	c-0.008-0.033-0.016-0.076-0.022-0.113c0.038-0.096,0.062-0.2,0.062-0.295c0-0.037-0.002-0.068-0.002-0.094
	c-0.024-0.172-0.086-0.34-0.193-0.476c0.037-0.104,0.055-0.229,0.041-0.353c0-0.02,0-0.034,0-0.049
	c-0.023-0.119-0.072-0.246-0.133-0.344c0-0.031,0-0.052-0.01-0.098c0-0.018,0-0.023,0-0.04v-0.013
	c0.062-0.14,0.092-0.289,0.079-0.455c-0.005-0.027-0.005-0.049-0.011-0.072c-0.031-0.15-0.1-0.286-0.191-0.4
	c0.084-0.146,0.121-0.322,0.11-0.512c-0.007-0.035-0.009-0.095-0.03-0.141c-0.023-0.096-0.061-0.174-0.119-0.244
	c0.062-0.135,0.076-0.272,0.065-0.426c0-0.059-0.015-0.112-0.039-0.182l-0.048-0.148c-0.043-0.142-0.119-0.254-0.214-0.346
	c0-0.031,0.003-0.062-0.002-0.105c0-0.008,0-0.023-0.005-0.053c0,0,0.004,0.002,0.004-0.01c0,0,0.01-0.046,0.018-0.096
	c0.019-0.054,0.04-0.111,0.04-0.111c0.049-0.119,0.062-0.254,0.053-0.375c-0.018-0.111-0.046-0.215-0.088-0.31
	c-0.018-0.035-0.034-0.062-0.058-0.083c0-0.005,0.008-0.021,0.008-0.03c0-0.018,0-0.045-0.01-0.075
	c-0.004-0.113-0.041-0.227-0.092-0.33c0.011-0.068,0.011-0.133,0.002-0.211c0-0.013-0.004-0.035-0.004-0.041
	c0-0.028-0.005-0.037-0.01-0.063c0.012-0.056,0.033-0.12,0.033-0.12c0.025-0.107,0.042-0.208,0.025-0.324
	c-0.008-0.1-0.035-0.188-0.068-0.262c0.02-0.092,0.025-0.191,0.016-0.275c-0.008-0.096-0.033-0.199-0.068-0.274l-0.08-0.183
	c-0.021-0.043-0.043-0.084-0.074-0.119v-0.02c-0.016-0.093-0.051-0.178-0.099-0.262c0.065-0.094,0.112-0.205,0.136-0.32
	c0.01-0.078,0.014-0.161,0.004-0.246c-0.006-0.126-0.052-0.251-0.115-0.357c-0.02-0.137-0.061-0.26-0.137-0.37
	c0.139-0.15,0.229-0.347,0.23-0.578c0-0.031,0-0.069,0-0.099c-0.016-0.141-0.066-0.27-0.136-0.389
	c0.026-0.095,0.042-0.195,0.037-0.304c-0.009-0.04-0.02-0.097-0.035-0.147c-0.05-0.188-0.173-0.356-0.321-0.463v-0.047
	c-0.018-0.127-0.055-0.259-0.12-0.363c0.022-0.09,0.039-0.188,0.035-0.296v-0.021c-0.007-0.055-0.021-0.117-0.035-0.164
	c0.187-0.153,0.296-0.41,0.281-0.682c-0.001-0.014,0-0.023,0-0.035c-0.013-0.086-0.04-0.178-0.075-0.252
	c-0.002-0.029,0.005-0.053,0.004-0.076c-0.006-0.051-0.017-0.092-0.029-0.148c-0.053-0.217-0.193-0.385-0.37-0.502
	c-0.005-0.021-0.009-0.061-0.009-0.061c-0.018-0.076-0.04-0.146-0.07-0.197c0-0.021,0.004-0.047-0.002-0.057v-0.01
	c0.081-0.086,0.146-0.177,0.183-0.289l0.069-0.168c0.051-0.132,0.062-0.265,0.051-0.399c-0.006-0.089-0.023-0.166-0.059-0.255
	c-0.014-0.021-0.031-0.049-0.047-0.076c0.002-0.059,0.002-0.104,0.002-0.15c-0.023-0.167-0.08-0.33-0.192-0.453
	c-0.009-0.062-0.034-0.113-0.055-0.156c0.015-0.069,0.015-0.131,0.015-0.182c0.072-0.137,0.104-0.295,0.08-0.46
	c0-0.011-0.001-0.022-0.001-0.022c-0.011-0.109-0.043-0.209-0.092-0.293c0-0.008,0-0.028,0-0.038
	c-0.007-0.093-0.04-0.187-0.074-0.261c0-0.037,0-0.062,0-0.092c-0.011-0.061-0.014-0.115-0.028-0.168
	c-0.033-0.09-0.075-0.178-0.138-0.252c0.024-0.095,0.035-0.185,0.026-0.281c0.001-0.004-0.006-0.002-0.006-0.002
	c-0.004-0.094-0.037-0.192-0.074-0.271c0.111-0.149-0.25-0.636-0.396-0.621c0,0-0.157-0.24-0.709-0.067c0,0-0.683,0.078-0.481,0.541
	c0.06,0.141-0.072,0.278-0.059,0.414c0.007,0.047,0.018,0.1,0.029,0.151c-0.008,0.067-0.008,0.132-0.001,0.199
	c-0.002,0.01,0,0.03,0.004,0.032c0,0,0.01,0.071,0.021,0.138c0.002,0.044,0.003,0.121,0.003,0.121c0,0.022,0.003,0.052,0.003,0.063
	c0.017,0.141,0.056,0.264,0.132,0.383c-0.029,0.104-0.039,0.211-0.031,0.325c0,0.015,0,0.029,0.005,0.038
	c0.021,0.104,0.042,0.192,0.086,0.28c-0.134,0.166-0.204,0.386-0.182,0.614c0.002,0.004,0.002,0.017,0.009,0.033
	c0.029,0.271,0.197,0.493,0.406,0.616c0.002,0.037,0.002,0.077,0.003,0.112c-0.069,0.105-0.115,0.218-0.126,0.336
	c-0.018,0.083-0.02,0.152-0.016,0.225c0.011,0.079,0.031,0.151,0.055,0.219v0.018c-0.057,0.131-0.095,0.28-0.076,0.436
	c0,0.011,0,0.023,0,0.045c0.017,0.082,0.043,0.15,0.08,0.232c-0.048,0.121-0.072,0.264-0.057,0.4
	c0.009,0.033,0.014,0.092,0.024,0.141c0.035,0.141,0.11,0.266,0.21,0.37c-0.027,0.099-0.043,0.208-0.029,0.317
	c0.002,0.018,0.006,0.039,0.01,0.053c0,0,0.012,0.077,0.016,0.127c0.002,0.057,0.004,0.123,0.004,0.123
	c0,0.016,0.008,0.023,0.008,0.033c0.01,0.021,0.011,0.05,0.018,0.08l-0.037,0.164c-0.021,0.095-0.022,0.192-0.019,0.274
	c0.003,0.021,0.005,0.037,0.014,0.074l0.024,0.167c0.021,0.118,0.072,0.23,0.145,0.326c-0.028,0.089-0.033,0.195-0.023,0.287
	c0.006,0.09,0.029,0.171,0.06,0.257c0,0,0.01,0,0.01,0.009c-0.02,0.073-0.024,0.148-0.018,0.241v0.007
	c0.013,0.109,0.04,0.195,0.079,0.289c0.002,0.015-0.002,0.027-0.002,0.027c-0.002,0.056-0.002,0.109,0,0.152
	c-0.047,0.123-0.074,0.271-0.059,0.405c0,0.015,0,0.019,0.006,0.04c0.024,0.188,0.119,0.352,0.238,0.48
	c-0.073,0.129-0.121,0.264-0.129,0.41v0.18c0,0.039,0.002,0.084,0.002,0.121c0.003,0.049,0.014,0.088,0.025,0.137
	c-0.014,0.068-0.012,0.148-0.008,0.221c0.006,0.02,0.006,0.023,0.006,0.033c0.024,0.173,0.1,0.336,0.201,0.451
	c0.009,0.029,0.021,0.062,0.033,0.086c-0.029,0.098-0.037,0.209-0.028,0.301c0,0.045,0.011,0.086,0.022,0.133
	c0,0,0.015,0.057,0.025,0.109c-0.078,0.145-0.119,0.316-0.099,0.497c0.016,0.167,0.081,0.331,0.179,0.456
	c0.023,0.084,0.043,0.147,0.082,0.227c-0.041,0.123-0.062,0.242-0.047,0.363c0.006,0.074,0.015,0.127,0.037,0.186
	c0.045,0.139,0.131,0.268,0.229,0.37c0,0.013-0.005,0.038,0,0.072c0,0.009,0,0.021,0.004,0.035c-0.002,0.021-0.012,0.044-0.012,0.06
	l-0.029,0.166c-0.012,0.076-0.01,0.161-0.001,0.234c0.011,0.164,0.075,0.301,0.171,0.435c-0.008,0.011-0.016,0.021-0.016,0.021
	c-0.194,0.164-0.279,0.438-0.26,0.695c0.008,0.049,0.015,0.097,0.032,0.152c0.024,0.078,0.051,0.148,0.093,0.217
	c-0.016,0.078-0.038,0.174-0.025,0.266v0.015c0.023,0.218,0.119,0.408,0.275,0.542c0.039,0.1,0.102,0.198,0.174,0.286
	c-0.067,0.136-0.1,0.302-0.088,0.446c0.004,0.035,0.006,0.062,0.008,0.091c-0.133,0.168-0.203,0.384-0.178,0.608
	c0.002,0.006,0,0.027,0.012,0.037c0.02,0.194,0.105,0.36,0.237,0.484c-0.07,0.138-0.102,0.291-0.095,0.462
	c-0.002,0.005,0,0.007,0,0.011c0,0.012,0.002,0.016,0.002,0.026c-0.023,0.081-0.037,0.179-0.031,0.274
	c0,0.014,0.005,0.039,0.005,0.045c0.018,0.162,0.077,0.311,0.167,0.438c0,0.013-0.004,0.039-0.004,0.039
	c-0.006,0.053-0.012,0.127-0.002,0.181c0.011,0.111,0.047,0.227,0.106,0.331c-0.015,0.024,0,0.069,0,0.104
	c-0.065,0.127-0.089,0.268-0.067,0.424c0.002,0.009,0.006,0.035,0.006,0.047c0.012,0.118,0.057,0.229,0.115,0.32
	c-0.068,0.131-0.106,0.271-0.105,0.424c0,0.023,0,0.047,0.002,0.062c0.02,0.191,0.103,0.389,0.243,0.512c0,0,0.009,0.01,0.016,0.01
	c-0.028,0.109-0.038,0.211-0.033,0.322v0.014c0.026,0.18,0.095,0.334,0.194,0.453c-0.045,0.127-0.066,0.256-0.053,0.393
	c0.006,0.023,0.012,0.062,0.018,0.103c0.027,0.116,0.074,0.225,0.146,0.325c-0.063,0.135-0.095,0.289-0.082,0.443
	c0.008,0.025,0.008,0.068,0.019,0.098c0.007,0.071,0.035,0.121,0.053,0.172c-0.003,0.046-0.007,0.089-0.011,0.134
	c0,0.035,0.002,0.073,0.008,0.125c0.003,0.047,0.008,0.104,0.031,0.162c-0.09,0.135-0.139,0.307-0.132,0.487l0.002,0.184
	c0.003,0.005,0.005,0.029,0.005,0.046c0.025,0.217,0.118,0.418,0.274,0.553c0,0.015,0,0.046,0,0.054
	c-0.07,0.139-0.097,0.291-0.073,0.442l0.001,0.021c0,0.02,0.007,0.046,0.007,0.082c-0.035,0.094-0.06,0.195-0.066,0.297
	c0,0.041,0,0.082,0.009,0.129c0.005,0.078,0.024,0.162,0.06,0.236c-0.012,0.043-0.02,0.097-0.018,0.146v0.155
	c0.002,0.021,0.002,0.049,0.002,0.065c0.024,0.209,0.111,0.387,0.255,0.523c-0.015,0.051-0.016,0.102-0.016,0.141l0.003,0.162
	c0,0.029,0,0.057,0.002,0.077c0.018,0.144,0.062,0.272,0.132,0.382c-0.007,0.012-0.007,0.04-0.007,0.04
	c-0.007,0.06-0.006,0.124-0.006,0.188c0.006,0.037,0.012,0.063,0.017,0.088c-0.009,0.07-0.013,0.146-0.007,0.229l0.02,0.15
	c0.005,0.064,0.012,0.121,0.031,0.178c-0.057,0.116-0.094,0.26-0.092,0.396c0,0.031,0,0.039,0.006,0.055
	c0.002,0.027,0.005,0.057,0.018,0.075c-0.02,0.075-0.027,0.166-0.02,0.243c0.007,0.104,0.042,0.203,0.084,0.302
	c0,0,0.046,0.09,0.059,0.118c-0.088,0.16-0.127,0.341-0.107,0.521c0.005,0.033,0.005,0.062,0.012,0.1
	c0.015,0.078,0.048,0.146,0.09,0.223c-0.029,0.105-0.039,0.2-0.031,0.316c0,0-0.097,0.425,1.026,0.289
	C34.874,87.896,35.964,87.98,35.769,87.387"/>
<path d="M58.818,35.654c0.031-0.11,0.039-0.235,0.02-0.346c-0.004-0.043-0.014-0.097-0.014-0.142c0,0-0.027-0.092-0.033-0.123
	c-0.006-0.03-0.029-0.144-0.029-0.144c-0.012-0.077-0.029-0.143-0.059-0.206v-0.01c-0.002-0.029-0.01-0.066-0.012-0.098l-0.029-0.16
	c-0.039-0.209-0.146-0.396-0.279-0.536c-0.035-0.099-0.076-0.188-0.129-0.271l-0.088-0.127c-0.074-0.115-0.172-0.213-0.271-0.281
	c-0.105-0.124-0.229-0.24-0.375-0.303c-0.111-0.203-0.295-0.379-0.523-0.471h-0.008c-0.166-0.189-0.404-0.311-0.67-0.343
	c-0.15-0.177-0.355-0.308-0.582-0.366c-0.156-0.088-0.332-0.129-0.521-0.129c-0.07-0.021-0.141-0.029-0.213-0.048
	c-0.219-0.181-0.514-0.278-0.809-0.24c-0.047-0.017-0.096-0.038-0.096-0.038c-0.092-0.038-0.172-0.059-0.262-0.072
	c0,0-0.033-0.003-0.062-0.01c-0.016-0.008-0.035-0.009-0.035-0.009c-0.178-0.103-0.387-0.13-0.586-0.122
	c-0.014,0-0.15-0.047-0.15-0.047c-0.156-0.059-0.316-0.064-0.479-0.059c-0.113-0.035-0.227-0.049-0.342-0.049H52.17
	c-0.213-0.074-0.451-0.062-0.67,0.028c-0.043-0.015-0.082-0.015-0.127,0c-0.121-0.058-0.252-0.091-0.389-0.091h-0.141
	c-0.057,0-0.1,0.003-0.145,0.013l-0.154,0.021c-0.05,0.004-0.108,0.017-0.164,0.043c-0.152-0.026-0.306-0.014-0.441,0.035
	c-0.033-0.006-0.053-0.006-0.086-0.006l-0.139-0.015c-0.053,0-0.113,0-0.162,0.015l-0.137,0.006c-0.023,0-0.054,0.018-0.078,0.018
	H49.27c-0.17-0.038-0.34-0.023-0.501,0.018c-0.179-0.004-0.341,0.031-0.505,0.107c-0.115,0-0.238,0.01-0.354,0.049
	c-0.277-0.049-0.554,0.025-0.782,0.174c-0.041,0.014-0.088,0.021-0.121,0.029c-0.155-0.008-0.303,0.01-0.443,0.068
	c0,0-0.043,0.008-0.082,0.021c-0.039,0.011-0.078,0.011-0.082,0.022c-0.002,0-0.161,0.029-0.161,0.029
	c-0.083,0.012-0.163,0.049-0.243,0.08c-0.156,0.021-0.321,0.072-0.462,0.174c0,0-0.025,0.025-0.053,0.037
	c-0.055,0.01-0.108,0.027-0.16,0.049c0,0-0.114,0.039-0.144,0.039c-0.021,0.01-0.139,0.049-0.139,0.049
	c-0.076,0.025-0.152,0.066-0.224,0.102l-0.138,0.092c-0.002,0.004-0.016,0.016-0.024,0.021c-0.075,0.015-0.144,0.043-0.214,0.078
	l-0.143,0.074c-0.023,0.021-0.057,0.041-0.088,0.056c-0.178,0.065-0.354,0.16-0.479,0.307c-0.035,0.019-0.066,0.026-0.092,0.058
	c-0.166,0.031-0.322,0.102-0.457,0.203c-0.123,0.047-0.24,0.108-0.335,0.217l-0.116,0.097c-0.007,0.007-0.012,0.011-0.023,0.024
	c0,0-0.027,0.033-0.055,0.053c-0.031,0.029-0.063,0.051-0.063,0.051c-0.056,0.045-0.105,0.091-0.146,0.143
	c-0.229,0.1-0.419,0.281-0.519,0.505c-0.031,0.029-0.053,0.062-0.069,0.099c-0.186,0.106-0.317,0.26-0.402,0.448
	c-0.044,0.035-0.096,0.084-0.125,0.123l-0.102,0.132c-0.097,0.108-0.165,0.256-0.203,0.409c-0.088,0.152-0.138,0.334-0.138,0.521
	c-0.013,0.039-0.017,0.077-0.024,0.117c-0.028,0.065-0.054,0.136-0.072,0.201c-0.079,0.149-0.118,0.319-0.112,0.491v0.134
	c0,0.021,0,0.049,0.01,0.083c0,0.003,0,0.019,0.001,0.025l0.009,0.129c0.004,0.019,0.007,0.039,0.013,0.06
	c-0.006,0.067-0.006,0.123,0,0.181c0.019,0.143,0.061,0.286,0.141,0.411c0,0.019-0.012,0.047,0,0.072
	c0.013,0.204,0.092,0.393,0.222,0.551c0.016,0.049,0.035,0.103,0.035,0.103c0.065,0.207,0.194,0.383,0.346,0.496
	c0.039,0.053,0.076,0.099,0.114,0.149c0,0,0.097,0.104,0.108,0.104c0.1,0.201,0.254,0.357,0.446,0.451
	c0.102,0.147,0.245,0.271,0.406,0.344c0.083,0.082,0.166,0.131,0.263,0.181c0.069,0.062,0.15,0.125,0.238,0.179l0.145,0.072
	c0.047,0.02,0.108,0.044,0.161,0.061c0.109,0.067,0.226,0.114,0.354,0.153l0.154,0.041h0.043c0.07,0.039,0.145,0.069,0.213,0.088
	c0.113,0.08,0.237,0.106,0.371,0.146c0.107,0.053,0.229,0.091,0.363,0.119c0,0,0.065,0,0.107,0.011l0.016,0.021
	c0.162,0.114,0.364,0.176,0.559,0.178h0.014c0.2,0.11,0.425,0.147,0.64,0.11c0.214,0.107,0.457,0.142,0.692,0.084
	c0,0,0.1-0.026,0.137-0.041c0.021,0.005,0.03,0.005,0.043,0.005c0.064,0.053,0.138,0.079,0.203,0.094l0.153,0.049
	c0.2,0.061,0.407,0.061,0.604,0.004c0.041,0,0.067,0,0.108-0.004c0.049,0.02,0.104,0.039,0.158,0.044l0.149,0.022
	c0.058,0.016,0.121,0.02,0.176,0.02h0.152c0.121,0,0.262-0.027,0.377-0.074c0.178,0.038,0.362,0.027,0.537-0.037
	c0.006,0.008,0.029,0.008,0.029,0.008c0.145,0.04,0.301,0.037,0.449,0c0.147,0,0.283-0.021,0.41-0.063
	c0.244,0.032,0.492-0.023,0.695-0.158c0.041,0,0.1-0.006,0.115-0.006h0.021c0.025,0.006,0.057,0.012,0.057,0.012
	c0.191,0.045,0.398,0.035,0.588-0.03c0,0,0.045-0.017,0.084-0.035c0.047-0.002,0.09-0.017,0.09-0.017c0.012,0,0.035,0,0.053-0.01
	h0.045c0.16,0,0.318-0.031,0.475-0.101l0.15-0.071c0.035-0.011,0.074-0.039,0.111-0.062c0.125,0.014,0.26,0.014,0.387-0.024
	c0.096-0.035,0.176-0.082,0.256-0.123c0.252-0.005,0.482-0.115,0.66-0.293c0.18-0.029,0.352-0.099,0.498-0.212
	c0.174-0.01,0.354-0.043,0.506-0.143l0.131-0.078c0.082-0.033,0.156-0.102,0.215-0.164l0.115-0.117h0.006
	c0.016-0.008,0.023-0.014,0.033-0.022l0.146-0.047c0.062-0.03,0.119-0.062,0.172-0.088l0.021-0.021
	c0.008-0.004,0.033-0.006,0.033-0.006c0.23-0.078,0.422-0.232,0.559-0.441c0,0,0.006-0.004,0.008-0.006l0.123-0.112
	c0.148-0.042,0.283-0.123,0.395-0.229c0.164-0.072,0.297-0.201,0.396-0.352c0.021-0.014,0.049-0.037,0.062-0.057
	c0.092-0.084,0.152-0.189,0.195-0.283c0.068-0.055,0.117-0.106,0.164-0.166l0.094-0.129c0.043-0.068,0.084-0.129,0.107-0.199
	c0.105-0.112,0.18-0.256,0.219-0.408c0.074-0.09,0.133-0.189,0.17-0.297c0.053-0.15,0.076-0.303,0.062-0.451
	c0-0.012-0.01-0.021-0.01-0.038l0.01-0.015l0.027-0.123c0.041-0.129,0.059-0.256,0.041-0.381c-0.004-0.027-0.004-0.053-0.016-0.074
	C58.824,35.723,58.824,35.686,58.818,35.654z M56.705,35.854c-0.029,0.06-0.047,0.121-0.068,0.195
	c-0.031,0.048-0.057,0.122-0.078,0.176l-0.041,0.146l-0.004,0.006c-0.121,0.098-0.23,0.203-0.309,0.338
	c-0.057,0.029-0.1,0.082-0.15,0.125c-0.066,0.074-0.115,0.152-0.154,0.244c-0.051,0.023-0.09,0.047-0.129,0.084l-0.111,0.092
	c-0.018,0.016-0.029,0.021-0.039,0.035c0,0-0.061,0.045-0.094,0.084c-0.162,0.07-0.303,0.18-0.408,0.326
	c-0.037,0.016-0.086,0.024-0.086,0.024c-0.037,0.005-0.074,0.024-0.115,0.041l-0.148,0.058c-0.117,0.051-0.223,0.123-0.316,0.205
	c-0.178,0.021-0.367,0.108-0.512,0.233c0,0-0.023,0.019-0.039,0.021h-0.012c-0.17,0.027-0.336,0.104-0.48,0.193
	c-0.066,0.029-0.121,0.049-0.174,0.084c-0.141,0-0.273,0.029-0.396,0.08c-0.135,0.011-0.26,0.051-0.383,0.116
	c-0.191,0.022-0.365,0.106-0.512,0.233c-0.012,0-0.02,0-0.031,0.004c0,0-0.096,0.022-0.133,0.039
	c-0.037,0.002-0.133,0.026-0.133,0.026h-0.025c-0.041-0.004-0.088-0.004-0.133-0.004h-0.174c-0.002,0-0.021,0.004-0.025,0.004
	h-0.242c0,0-0.092,0.013-0.133,0.022h-0.133c-0.113,0.016-0.209,0.035-0.312,0.072c-0.151-0.018-0.314-0.01-0.457,0.043
	c-0.07,0-0.145,0.006-0.211,0.025c-0.09-0.018-0.176-0.02-0.264-0.018l-0.152,0.018c-0.057,0.012-0.123,0.021-0.182,0.042h-0.201
	l-0.145,0.01c-0.08,0-0.154,0.011-0.227,0.023c-0.116-0.033-0.235-0.054-0.358-0.054h-0.146c-0.062,0-0.127,0.021-0.185,0.029H47.79
	c-0.104-0.04-0.211-0.068-0.306-0.07h-0.047c-0.019-0.006-0.045-0.015-0.045-0.015c-0.013-0.006-0.039-0.008-0.055-0.013
	l-0.157-0.04c-0.104-0.025-0.212-0.025-0.317-0.021c-0.069-0.035-0.151-0.059-0.229-0.059c0,0-0.111-0.021-0.134-0.021
	c-0.024-0.004-0.134-0.021-0.134-0.021c-0.135-0.026-0.275-0.022-0.411,0.017c-0.179-0.156-0.399-0.236-0.633-0.254
	c-0.106-0.039-0.216-0.082-0.325-0.099c-0.079-0.041-0.16-0.062-0.242-0.077c-0.109-0.062-0.224-0.1-0.34-0.113
	c-0.092-0.062-0.191-0.117-0.285-0.146c-0.056-0.043-0.111-0.084-0.172-0.128c-0.105-0.124-0.233-0.217-0.383-0.287
	c-0.034-0.02-0.071-0.059-0.071-0.059c-0.045-0.049-0.103-0.092-0.164-0.131c-0.029-0.037-0.069-0.074-0.1-0.104
	c-0.045-0.109-0.098-0.193-0.175-0.277c-0.026-0.122-0.077-0.233-0.143-0.323c-0.021-0.105-0.045-0.191-0.08-0.279
	c-0.002-0.037-0.02-0.086-0.031-0.127c0.006-0.037,0.014-0.062,0.014-0.101c0.025-0.058,0.053-0.129,0.061-0.19
	c0.037-0.076,0.062-0.148,0.083-0.235c0.009-0.019,0.024-0.042,0.04-0.065c0.092-0.1,0.168-0.205,0.234-0.336
	c0,0,0.018-0.039,0.04-0.088c0.013-0.012,0.083-0.08,0.087-0.08c0.127-0.076,0.231-0.174,0.32-0.283
	c0.01-0.018,0.097-0.086,0.097-0.086c0.111-0.08,0.192-0.182,0.269-0.285c0.137-0.059,0.26-0.123,0.365-0.213
	c0.172-0.051,0.32-0.133,0.453-0.25c0.038-0.029,0.068-0.047,0.107-0.073c0.117-0.035,0.227-0.097,0.325-0.173
	c0.21-0.037,0.411-0.145,0.562-0.303c0.073,0,0.144-0.012,0.216-0.025c-0.053,0.179-0.084,0.359-0.068,0.545
	c0.121,1.229,1.809,2.086,3.792,1.9c1.969-0.185,3.479-1.328,3.36-2.562c-0.018-0.185-0.08-0.357-0.164-0.522
	c0.072,0.005,0.145,0.001,0.217-0.003c0.021,0,0.041,0.01,0.041,0.01c0.049,0.008,0.094,0.018,0.143,0.021h0.012
	c0.006,0.014,0.021,0.02,0.021,0.02c0.018,0.002,0.035,0.011,0.043,0.016l0.154,0.061c0.045,0.009,0.102,0.034,0.148,0.034
	l0.154,0.04h0.023c0.076,0.038,0.156,0.08,0.238,0.1h0.023c0.072,0.042,0.154,0.076,0.24,0.1c0.166,0.103,0.359,0.163,0.562,0.163
	c0.045,0.025,0.096,0.062,0.158,0.091c0,0,0.014,0.011,0.047,0.017c0.01,0.019,0.037,0.037,0.037,0.037
	c0.07,0.051,0.141,0.09,0.223,0.114c0.096,0.11,0.217,0.198,0.35,0.267c0.109,0.127,0.244,0.221,0.4,0.291
	c0.055,0.082,0.127,0.16,0.197,0.227c0.031,0.118,0.088,0.225,0.154,0.314c0.012,0.112,0.041,0.217,0.105,0.317
	c-0.004,0.056-0.004,0.117,0,0.177l0.01,0.127c0,0.024,0.006,0.041,0.008,0.062C56.711,35.829,56.705,35.854,56.705,35.854z"/>
</svg>
