<?xml version="1.0" encoding="utf-8"?>
<!-- Generator: Adobe Illustrator 13.0.0, SVG Export Plug-In  -->
<!DOCTYPE svg PUBLIC "-//W3C//DTD SVG 1.1//EN" "http://www.w3.org/Graphics/SVG/1.1/DTD/svg11.dtd" [
	<!ENTITY ns_flows "http://ns.adobe.com/Flows/1.0/">
	<!ENTITY st0 "fill:#CCCCCC;">
]>
<svg version="1.1"
	 xmlns="http://www.w3.org/2000/svg" xmlns:xlink="http://www.w3.org/1999/xlink" xmlns:a="http://ns.adobe.com/AdobeSVGViewerExtensions/3.0/"
	 x="0px" y="0px" width="100px" height="100px" viewBox="0 0 100 100" style="enable-background:new 0 0 100 100;"
	 xml:space="preserve">
<defs>
</defs>
<circle style="&st0;" cx="50" cy="50" r="50"/>
<path d="M58.297,33.466l0.033-0.195l-0.006-0.193l0.018-0.078c0.008-0.111,0-0.227-0.031-0.332c0-0.163-0.031-0.321-0.102-0.455
	l-0.018-0.181l-0.024-0.133c-0.027-0.118-0.073-0.213-0.133-0.312c0.011-0.244-0.071-0.479-0.231-0.66l-0.028-0.068l-0.026-0.074
	c-0.013-0.108-0.053-0.232-0.106-0.326c-0.036-0.197-0.133-0.359-0.265-0.498v-0.016l-0.076-0.125l-0.111-0.156l-0.021-0.037
	l-0.02-0.062L57.1,29.427c-0.045-0.133-0.119-0.248-0.216-0.348l-0.126-0.191l-0.01-0.002l-0.002-0.019l-0.118-0.193l-0.051-0.101
	l-0.07-0.129c-0.044-0.092-0.103-0.164-0.174-0.236l-0.104-0.096c-0.068-0.127-0.168-0.224-0.287-0.303l-0.083-0.115
	c-0.048-0.148-0.138-0.275-0.251-0.389h-0.004l-0.134-0.223l-0.086-0.111c-0.077-0.104-0.179-0.189-0.294-0.248l-0.004-0.004
	l-0.019-0.018c-0.032-0.1-0.075-0.178-0.14-0.254l-0.075-0.109l-0.016-0.021l-0.101-0.114l-0.191-0.179l-0.062-0.039l-0.036-0.039
	c-0.082-0.119-0.184-0.197-0.305-0.264c-0.182-0.192-0.438-0.301-0.71-0.296c-0.369,0.009-0.692,0.237-0.831,0.575l-0.048,0.107
	l-0.065,0.27l0.012,0.243v0.011l0.006,0.215l-0.031,0.179l-0.003,0.058l-0.016,0.047l-0.04,0.125l-0.018,0.162
	c-0.014,0.091-0.01,0.18,0.01,0.273l-0.02,0.096l-0.016,0.142l-0.002,0.034l0.002,0.154l-0.061,0.254v0.109l-0.037,0.164
	l0.008,0.223l-0.008,0.055l-0.003,0.133l0.003,0.021c-0.031,0.078-0.053,0.158-0.066,0.251c-0.007,0.088-0.004,0.179,0.021,0.276
	l0.004,0.035l-0.021,0.104l0.013,0.233c-0.046,0.094-0.078,0.199-0.095,0.307l0.01,0.203v0.048l-0.006,0.034
	c-0.01,0.09-0.004,0.188,0.025,0.285v0.043c-0.065,0.102-0.104,0.229-0.111,0.34c-0.016,0.127,0,0.243,0.035,0.373v0.055l0.009,0.1
	l-0.009,0.007l-0.016,0.06l-0.035,0.074c-0.044,0.098-0.071,0.195-0.079,0.308l0.005,0.209l-0.013,0.065l0.005,0.17l-0.055,0.248
	l-0.008,0.099c-0.16,0.114-0.262,0.294-0.277,0.483v0.117l0.009,0.068v0.01l-0.007,0.074c0.007,0.097,0.021,0.189,0.062,0.27
	l0.019,0.136l-0.021,0.075l-0.017,0.103v0.108l-0.034,0.125l-0.002,0.03c-0.009,0.103,0.007,0.2,0.045,0.299L51.66,34.87
	l-0.007,0.156l0.012,0.194l-0.027,0.13v0.106c-0.038,0.073-0.073,0.173-0.081,0.269l-0.006,0.076l0.008,0.139l0.037,0.209
	l-0.037,0.16v0.037c-0.172,0-0.336,0.062-0.459,0.186l-0.039,0.035c-0.148-0.089-0.33-0.125-0.508-0.084l-0.015,0.011
	c-0.083-0.058-0.175-0.091-0.274-0.11c-0.1-0.074-0.216-0.111-0.339-0.119h-0.013l-0.029-0.014
	c-0.179-0.096-0.377-0.096-0.553-0.014l-0.196-0.01c-0.088-0.038-0.186-0.061-0.289-0.055l-0.253,0.078
	c-0.09-0.084-0.199-0.125-0.32-0.154c-0.113-0.005-0.23,0-0.334,0.053l-0.049-0.018c-0.102-0.018-0.214-0.018-0.31,0.018
	c-0.091-0.035-0.176-0.058-0.271-0.053c-0.094-0.074-0.216-0.119-0.344-0.131c-0.102-0.014-0.206,0.012-0.295,0.048
	c-0.164-0.098-0.368-0.115-0.544-0.048L45.9,35.978c-0.086-0.072-0.189-0.115-0.314-0.137c-0.226-0.035-0.454,0.058-0.605,0.234
	l-0.117-0.036c-0.113-0.087-0.252-0.134-0.396-0.125l-0.096,0.018c-0.096-0.091-0.229-0.155-0.369-0.169
	c-0.105-0.01-0.211,0.004-0.305,0.039c-0.086-0.055-0.189-0.09-0.294-0.09c-0.125-0.01-0.24,0.019-0.345,0.078l-0.052-0.014
	c-0.112-0.014-0.23,0-0.331,0.041l-0.106-0.016l-0.114-0.09c-0.137-0.105-0.308-0.146-0.477-0.135l-0.088-0.024
	c-0.189-0.031-0.383,0.024-0.531,0.149c-0.105-0.088-0.235-0.149-0.377-0.149c-0.158-0.005-0.309,0.036-0.426,0.115l-0.061-0.015
	c-0.105-0.132-0.246-0.221-0.425-0.252l-0.183-0.02l-0.244-0.031c-0.182,0-0.344,0.091-0.471,0.215
	c-0.096-0.133-0.24-0.232-0.406-0.264c-0.154-0.035-0.309-0.008-0.443,0.064c-0.113-0.082-0.25-0.139-0.396-0.139l-0.181,0.021
	c-0.129-0.088-0.289-0.126-0.459-0.104l-0.05,0.014l-0.21-0.059c-0.188-0.012-0.371,0.059-0.504,0.166
	c-0.102-0.068-0.227-0.107-0.359-0.121l-0.263-0.072l-0.142-0.009h-0.195l-0.153,0.024c-0.103-0.079-0.219-0.122-0.35-0.137
	c-0.183-0.012-0.361,0.058-0.489,0.171H34.52c-0.131-0.156-0.326-0.253-0.537-0.247l-0.246,0.064l-0.116-0.047
	c-0.093-0.032-0.198-0.032-0.292-0.02l-0.173-0.072c-0.166-0.041-0.341-0.023-0.487,0.068l-0.14-0.023l-0.263,0.064l-0.119-0.05
	c-0.073-0.067-0.172-0.123-0.276-0.136c-0.19-0.061-0.394-0.008-0.546,0.105h-0.018l-0.123-0.068l-0.021-0.002l-0.124-0.058
	c-0.157-0.056-0.327-0.056-0.479,0c-0.119-0.015-0.241,0.015-0.352,0.067c-0.105,0.006-0.204,0.031-0.294,0.091
	c-0.073-0.085-0.168-0.136-0.271-0.178c-0.107-0.099-0.244-0.161-0.404-0.176c-0.123-0.019-0.241,0.015-0.35,0.07
	c-0.092-0.07-0.203-0.112-0.318-0.126c-0.134-0.013-0.256,0.014-0.362,0.07c-0.136-0.025-0.275,0-0.392,0.04
	c-0.096-0.077-0.228-0.126-0.356-0.131c-0.093-0.06-0.198-0.093-0.311-0.097h-0.053c-0.086-0.053-0.172-0.091-0.277-0.1
	c-0.097-0.016-0.202-0.012-0.296,0.023l-0.088-0.015l-0.174,0.027c-0.084-0.052-0.178-0.091-0.272-0.112
	c-0.227-0.027-0.445,0.057-0.596,0.213l-0.065-0.016l-0.15-0.021H25.15l-0.023-0.012c-0.123-0.052-0.256-0.052-0.382-0.027
	l-0.077-0.024l-0.238-0.036l-0.018-0.012l-0.133-0.092c-0.166-0.109-0.367-0.146-0.557-0.088l-0.145,0.057l-0.201-0.031
	l-0.166,0.016c-0.085-0.041-0.181-0.076-0.287-0.08l-0.157,0.004c-0.124-0.079-0.265-0.119-0.414-0.107
	c-0.116,0.004-0.228,0.039-0.323,0.107l-0.143,0.041l-0.066-0.02c-0.139-0.182-0.359-0.276-0.588-0.259
	c-0.13,0.018-0.248,0.068-0.354,0.138l-0.078,0.003c-0.104-0.1-0.234-0.173-0.379-0.193c-0.135-0.02-0.264,0-0.39,0.053
	c-0.093-0.053-0.211-0.079-0.326-0.079c-0.174,0-0.332,0.057-0.457,0.168c-0.093-0.078-0.199-0.142-0.321-0.161l-0.133-0.021
	l-0.059-0.015l-0.061-0.022l0.021-0.099c0.011-0.11,0-0.212-0.024-0.319l0.02-0.105v-0.104c0.045-0.088,0.077-0.204,0.086-0.305
	l-0.002-0.205l0.014-0.067l0.01-0.146l-0.004-0.214l-0.02-0.138v-0.053c0.041-0.096,0.068-0.188,0.078-0.279l-0.01-0.238l0.01-0.045
	v-0.004c0.031-0.092,0.057-0.176,0.066-0.27l-0.012-0.251l0.002-0.033v-0.138c0.039-0.088,0.061-0.172,0.07-0.275l-0.01-0.227
	l0.01-0.043l-0.021-0.252l0.021-0.041c0.035-0.087,0.048-0.172,0.055-0.266v-0.168l0.023-0.104l-0.023-0.253l0.023-0.039
	c0.031-0.093,0.049-0.17,0.062-0.268v-0.285l-0.005-0.064c0.048-0.1,0.081-0.213,0.093-0.332l-0.01-0.201l0.015-0.076l0.007-0.135
	l0.013-0.105l0.023-0.131l0.002-0.034l0.007-0.104v-0.021l0.004-0.021l0.018-0.126c0.014-0.1,0-0.179-0.014-0.263
	c0.039-0.092,0.064-0.191,0.075-0.287c0.016-0.13,0-0.254-0.04-0.369l0.068-0.208l0.035-0.138l0.014-0.109
	c0.012-0.105,0-0.201-0.02-0.301v-0.143l0.014-0.099v-0.085l0.024-0.058l0.063-0.227l0.017-0.138l0.001-0.041
	c0.008-0.097,0-0.184-0.016-0.28l0.072-0.257l-0.012-0.251v-0.077l0.005-0.057v-0.007l0.022-0.09l0.029-0.158v-0.173l-0.006-0.132
	c-0.016-0.124-0.055-0.253-0.113-0.366l-0.057-0.086c-0.17-0.316-0.509-0.502-0.863-0.484c-0.199,0.012-0.368,0.083-0.524,0.195
	l-0.048,0.02l-0.131,0.062l-0.166,0.112l-0.115,0.082l-0.035,0.034l-0.251,0.169l-0.108,0.098l-0.133,0.158l-0.1,0.076l-0.096,0.062
	l-0.186,0.184h-0.001l-0.138,0.122c-0.223,0.075-0.408,0.231-0.523,0.43l-0.152,0.193l-0.049,0.075l-0.033,0.02l-0.172,0.133
	l-0.181,0.124l-0.106,0.1l-0.186,0.222l-0.114,0.135c-0.178,0.076-0.319,0.215-0.417,0.385l-0.193,0.234
	c-0.082,0.077-0.144,0.173-0.195,0.277l-0.086,0.086c-0.102,0.098-0.172,0.219-0.219,0.348l-0.1,0.103l-0.084,0.106l-0.105,0.18
	l-0.07,0.078c-0.1,0.085-0.172,0.199-0.225,0.33c-0.102,0.133-0.172,0.307-0.191,0.488v0.018c-0.094,0.112-0.151,0.248-0.18,0.387
	l-0.049,0.078l-0.062,0.107l-0.047,0.105l-0.06,0.105c-0.057,0.117-0.083,0.234-0.103,0.356l0.006,0.222l-0.068,0.197l-0.035,0.143
	l-0.018,0.121l0.014,0.239l-0.009,0.038v0.01c-0.034,0.093-0.058,0.18-0.065,0.266v0.189l0.018,0.135l0.048,0.229l0.048,0.24
	c0.003,0.131,0.037,0.256,0.093,0.378l0.011,0.024L12.7,31.21l0.095,0.229l0.004,0.027l0.037,0.126l0.006,0.052l0.038,0.123
	c0.031,0.128,0.095,0.233,0.169,0.329l0.047,0.059l0.031,0.057l0.107,0.134c0.05,0.116,0.111,0.21,0.201,0.284l0.1,0.104
	l0.021,0.028c0.062,0.146,0.163,0.277,0.291,0.377l0.059,0.075l0.095,0.103l0.228,0.19l0.041,0.056
	c0.07,0.094,0.16,0.155,0.256,0.219c0.098,0.102,0.211,0.183,0.337,0.227l0.178,0.123l0.128,0.06l0.008,0.005l0.098,0.075
	c0.111,0.144,0.276,0.251,0.444,0.307c0.091,0.065,0.193,0.105,0.3,0.125c0.084,0.067,0.178,0.128,0.273,0.158l0.05,0.009
	c0.077,0.07,0.167,0.129,0.269,0.16l0.086,0.027l-0.022,0.115l0.029,0.246l-0.048,0.17v0.028l-0.008,0.136
	c-0.007,0.093,0.011,0.188,0.043,0.27c-0.103,0.109-0.17,0.25-0.186,0.4v0.061c0,0.115,0.037,0.238,0.088,0.322l-0.032,0.102
	l-0.011,0.079c-0.018,0.138,0.019,0.275,0.091,0.399l-0.005,0.035c-0.048,0.086-0.078,0.183-0.086,0.273l-0.005,0.025l0.005,0.125
	l-0.025,0.125l-0.004,0.01c-0.001,0.099,0.004,0.193,0.04,0.285l0.007,0.133c-0.109,0.107-0.181,0.232-0.2,0.383v0.035l0.007,0.164
	l-0.029,0.125v0.034l-0.003,0.138l0.032,0.24l0.033,0.09c-0.155,0.117-0.258,0.283-0.277,0.469v0.016
	c-0.012,0.172,0.036,0.332,0.139,0.465l0.058,0.188l-0.058,0.213v0.068c-0.083,0.109-0.139,0.225-0.148,0.358v0.026
	c-0.092,0.102-0.149,0.232-0.16,0.377l-0.005,0.031c-0.009,0.176,0.063,0.359,0.179,0.486l-0.054,0.205v0.088l-0.055,0.199
	l0.028,0.248c-0.099,0.082-0.176,0.195-0.213,0.316l-0.027,0.135l0.012,0.186l-0.066,0.225c-0.008,0.096,0.005,0.189,0.029,0.275
	l0.041,0.085l-0.016,0.079c-0.01,0.097,0.004,0.197,0.039,0.305v0.016l-0.15,0.242L15.68,45.06v0.1l-0.053,0.197v0.018l0.02,0.195
	l-0.02,0.08v0.133l0.033,0.144c-0.074,0.072-0.139,0.165-0.166,0.271l-0.021,0.125c-0.008,0.115,0.007,0.229,0.049,0.339
	c-0.075,0.104-0.125,0.23-0.139,0.357c-0.014,0.143,0.02,0.283,0.095,0.416l0.017,0.023l-0.01,0.023l-0.02,0.129l0.029,0.254
	l-0.021,0.096c-0.088,0.09-0.139,0.217-0.158,0.346v0.018c-0.008,0.144,0.025,0.277,0.098,0.4l-0.006,0.005l-0.021,0.128
	l-0.027,0.123l-0.014,0.08l0.004,0.17l-0.023,0.129c-0.014,0.125,0.016,0.248,0.072,0.359c-0.144,0.118-0.233,0.273-0.249,0.453
	l0.028,0.247l-0.028,0.138c-0.063,0.091-0.103,0.187-0.118,0.307v0.088l-0.045,0.184v0.108l-0.03,0.176v0.015l0.03,0.271
	c-0.048,0.078-0.078,0.171-0.088,0.281l-0.004,0.033c0,0.096,0.014,0.18,0.044,0.263l-0.024,0.139l-0.006,0.085
	c0.006,0.154,0.072,0.303,0.176,0.427l-0.062,0.224l-0.008,0.002l0.028,0.231l-0.121,0.208l-0.022,0.139v0.073l-0.062,0.214v0.033
	c-0.043,0.069-0.072,0.15-0.08,0.242v0.018c-0.018,0.135,0.014,0.267,0.08,0.379l0.014,0.148l-0.047,0.131
	c-0.1,0.101-0.15,0.234-0.168,0.372l0.003,0.124l-0.04,0.063l-0.051,0.21c-0.01,0.111,0.004,0.221,0.051,0.328l0.064,0.139
	c0.033,0.094,0.094,0.167,0.167,0.237v0.056l-0.06,0.162l-0.009,0.051c-0.16,0.096-0.281,0.232-0.329,0.414l-0.023,0.121
	l0.004,0.062l-0.062,0.207v0.029c-0.011,0.225,0.092,0.437,0.26,0.562l-0.029,0.135v0.018l0.037,0.244
	c-0.06,0.084-0.09,0.193-0.104,0.297v0.041c-0.134,0.084-0.241,0.221-0.282,0.378l-0.03,0.122l0.036,0.252
	c-0.059,0.098-0.105,0.204-0.115,0.319v0.08c0.002,0.191,0.086,0.353,0.213,0.476c-0.065,0.093-0.104,0.193-0.118,0.306
	c-0.056,0.089-0.095,0.19-0.099,0.296l0.006,0.201c0.02,0.094,0.066,0.188,0.126,0.267l-0.086,0.214v0.017l-0.063,0.099l-0.07,0.148
	l-0.06,0.226l0.018,0.229l-0.058,0.214c-0.014,0.098,0.002,0.18,0.027,0.269l0.03,0.1l-0.009,0.05l-0.002,0.036l0.002,0.175
	c-0.042,0.086-0.074,0.176-0.076,0.271l-0.008,0.062l0.008,0.023l-0.053,0.068c-0.035,0.078-0.061,0.163-0.075,0.254
	c-0.007,0.1,0.005,0.213,0.053,0.309l0.039,0.094l0.014,0.078l0.005,0.01l-0.005,0.041v0.086c-0.084,0.078-0.149,0.17-0.188,0.286
	l-0.04,0.122l-0.032,0.148c-0.008,0.126,0.006,0.239,0.062,0.354l-0.105,0.199l-0.025,0.117c-0.006,0.154,0.029,0.301,0.105,0.42
	c-0.08,0.094-0.139,0.206-0.168,0.33l-0.008,0.06c-0.008,0.136,0.02,0.261,0.078,0.376v0.043l-0.008,0.08
	c-0.053,0.08-0.096,0.186-0.113,0.283v0.041c-0.012,0.102,0.006,0.203,0.038,0.289c-0.094,0.111-0.146,0.249-0.167,0.392v0.075
	l0.059,0.242l-0.02,0.094l0.022,0.236l0.03,0.066c-0.019,0.143,0.018,0.285,0.088,0.398l0.07,0.238
	c-0.061,0.089-0.098,0.194-0.115,0.287l-0.047,0.085c-0.157,0.116-0.264,0.281-0.285,0.473v0.024
	c-0.023,0.236,0.085,0.477,0.285,0.601c-0.197,0.114-0.316,0.306-0.346,0.526v0.021l-0.068,0.184l-0.01,0.078
	c-0.008,0.133,0.025,0.253,0.078,0.371c-0.053,0.081-0.101,0.173-0.116,0.274l-0.009,0.064c-0.02,0.144,0.024,0.289,0.102,0.415
	l0.009,0.042l-0.086,0.264v0.096l0.003,0.141l0.045,0.189c-0.059,0.098-0.099,0.192-0.107,0.295v0.091
	c-0.066,0.076-0.113,0.181-0.132,0.296l-0.005,0.038c-0.01,0.13,0.016,0.262,0.072,0.372l-0.067,0.221v0.041l-0.072,0.243
	l-0.011,0.143c-0.017,0.136,0.011,0.255,0.068,0.362c-0.094,0.104-0.156,0.221-0.168,0.369l-0.008,0.021l0.02,0.229l-0.039,0.157
	l0.029,0.252l0.027,0.051l-0.018,0.08l-0.005,0.047v0.125c-0.004,0.143,0.04,0.283,0.128,0.396
	c-0.072,0.093-0.117,0.211-0.128,0.325l0.011,0.191l0.022,0.128l0.026,0.071c-0.145,0.094-0.25,0.241-0.283,0.422l-0.033,0.131
	l-0.006,0.072c-0.016,0.118,0.006,0.242,0.061,0.355l0.048,0.101l-0.101,0.12l0.023,0.043l0.018,0.094l0.028,0.108l0.027,0.07v0.011
	c-0.104,0.109-0.17,0.246-0.188,0.396l0.013,0.084l-0.052,0.159v0.015c-0.007,0.104,0.02,0.212,0.06,0.312l-0.05,0.109l-0.045,0.105
	l-0.018,0.131l-0.117,0.17c-0.074,0.076-0.129,0.169-0.166,0.27l-0.179,0.221l-0.024,0.043l-0.037,0.053l-0.059,0.109
	c-0.104,0.082-0.176,0.189-0.229,0.314l-0.093,0.148l-0.078,0.123l-0.051,0.084l-0.014,0.037l-0.041,0.078l-0.048,0.087
	l-0.038,0.077l-0.084,0.094l-0.068,0.088c-0.085,0.111-0.138,0.246-0.156,0.384l-0.023,0.03c-0.097,0.098-0.164,0.225-0.199,0.361
	l-0.006,0.021l-0.012,0.014l-0.008,0.021l-0.046,0.104c-0.052,0.103-0.082,0.218-0.091,0.334l-0.017,0.073
	c-0.058,0.076-0.104,0.16-0.121,0.253c-0.034,0.107-0.042,0.22-0.028,0.326c-0.047,0.097-0.072,0.2-0.081,0.313
	C9.99,85.376,9.977,85.513,10,85.642c-0.051,0.131-0.062,0.273-0.051,0.405l-0.031,0.1c-0.057,0.167-0.051,0.341,0,0.503
	c-0.016,0.145,0.018,0.297,0.076,0.43l0.01,0.061l0.012,0.051l0.002,0.185c-0.022,0.147-0.012,0.294,0.041,0.433
	c0.012,0.15,0.069,0.298,0.16,0.418c-0.003,0.109,0.003,0.223,0.043,0.322c0.008,0.173,0.076,0.349,0.188,0.487l0.045,0.053
	l0.054,0.107c0.034,0.138,0.091,0.262,0.19,0.366l0.065,0.07l0.04,0.053l0.053,0.074l0.125,0.129l0.088,0.078
	c0.104,0.092,0.229,0.15,0.354,0.177c0.183,0.041,0.37-0.009,0.543-0.099l0.19,0.09l0.139,0.01l0.077-0.006l0.22,0.043l0.031-0.003
	l0.247,0.056l0.02-0.001c0.138,0.007,0.264-0.036,0.37-0.113l0.146-0.027l0.134,0.036c0.11,0.09,0.248,0.127,0.387,0.133
	l0.125-0.016l0.065,0.035l0.215,0.031c0.111-0.001,0.219-0.023,0.32-0.08l0.134-0.076l0.222-0.188l0.009-0.001l0.046-0.004
	l0.168,0.045l0.051,0.003c0.109,0.15,0.258,0.259,0.441,0.29l0.123,0.014l0.062-0.013l0.213,0.046l0.029-0.004
	c0.225-0.01,0.426-0.13,0.536-0.309l0.138,0.016l0.018-0.002l0.24-0.057c0.09,0.049,0.2,0.07,0.307,0.074l0.038-0.003
	c0.099,0.124,0.244,0.22,0.405,0.248l0.123,0.019l0.246-0.059c0.104,0.05,0.213,0.085,0.329,0.086l0.081-0.006
	c0.189-0.023,0.344-0.121,0.455-0.259c0.097,0.058,0.201,0.086,0.316,0.091c0.091,0.047,0.197,0.078,0.303,0.07l0.199-0.023
	c0.092-0.029,0.18-0.084,0.254-0.148l0.221,0.064l0.017-0.001l0.104,0.056l0.154,0.057l0.232,0.038l0.224-0.038l0.221,0.038
	c0.096,0.005,0.177-0.02,0.264-0.052l0.097-0.039l0.052,0.003l0.034-0.001l0.172-0.02c0.091,0.037,0.186,0.061,0.281,0.053
	l0.062,0.004l0.022-0.011l0.073,0.045c0.08,0.028,0.166,0.046,0.259,0.052c0.103-0.002,0.211-0.025,0.302-0.081l0.092-0.048
	l0.074-0.02l0.01-0.006l0.043,0.002l0.086-0.009c0.084,0.077,0.182,0.135,0.303,0.161l0.125,0.029l0.15,0.02
	c0.126-0.004,0.239-0.027,0.346-0.095l0.208,0.087l0.12,0.016c0.154-0.01,0.297-0.059,0.409-0.146
	c0.101,0.074,0.218,0.121,0.343,0.137l0.061,0.004c0.139-0.004,0.26-0.042,0.367-0.112h0.01l0.035-0.003l0.079,0.001
	c0.085,0.045,0.193,0.077,0.292,0.088l0.041-0.005c0.104,0.004,0.201-0.023,0.286-0.064c0.119,0.084,0.26,0.124,0.405,0.131
	l0.074-0.007l0.237-0.081l0.095,0.011l0.232-0.043l0.062-0.036c0.144,0.006,0.284-0.043,0.392-0.125l0.23-0.092
	c0.096,0.053,0.204,0.08,0.295,0.09l0.092,0.039c0.129,0.146,0.303,0.237,0.496,0.242l0.025-0.004
	c0.237,0.004,0.467-0.126,0.572-0.338c0.132,0.186,0.333,0.289,0.555,0.297l0.021-0.002l0.188,0.051l0.079,0.002
	c0.133-0.002,0.25-0.048,0.361-0.11c0.087,0.045,0.184,0.083,0.285,0.091l0.065,0.002c0.146,0.007,0.284-0.049,0.405-0.137
	l0.039-0.015c0.09,0.046,0.18,0.059,0.272,0.063l0.095-0.011l0.141-0.017l0.184-0.061c0.104,0.05,0.201,0.08,0.304,0.08l0.091-0.008
	c0.082,0.059,0.19,0.096,0.305,0.104l0.041,0.002c0.129-0.002,0.258-0.04,0.364-0.107l0.226,0.047h0.025l0.016-0.002l0.249,0.05
	l0.145-0.003c0.136,0.004,0.253-0.034,0.354-0.102c0.111,0.084,0.233,0.137,0.382,0.137l0.021,0.003l0.229-0.04l0.16,0.023
	l0.249-0.049l0.048-0.031l0.08,0.009h0.048l0.126-0.013c0.143-0.008,0.277-0.065,0.383-0.162c0.099,0.062,0.221,0.098,0.334,0.098
	l0.189-0.027l0.125-0.033l0.07-0.035c0.107,0.136,0.264,0.229,0.445,0.244l0.133,0.02l0.074,0.002
	c0.119,0.004,0.24-0.029,0.35-0.095l0.131-0.076l0.03-0.027l0.12,0.013l0.12,0.003l0.025,0.007l0.114-0.012
	c0.119,0.096,0.26,0.147,0.411,0.152l0.082-0.02l0.165,0.035l0.012-0.002c0.119-0.001,0.243-0.035,0.349-0.096l0.176,0.025
	l0.114-0.012l0.167,0.047l0.112,0.02l0.234-0.051l0.025-0.002l0.189-0.021c0.096,0.06,0.207,0.091,0.324,0.097l0.137,0.004
	l0.01,0.002l0.207-0.032l0.133-0.042l0.194-0.104c0.123,0.005,0.231-0.033,0.327-0.095c0.096,0.089,0.205,0.155,0.323,0.183
	l0.156,0.016l0.191-0.03c0.101,0.058,0.216,0.095,0.339,0.097l0.023-0.002c0.139-0.004,0.272-0.057,0.367-0.139l0.137,0.025h0.008
	c0.197,0,0.381-0.094,0.509-0.24l0.164,0.016h0.045c0.131,0.138,0.309,0.225,0.5,0.219l0.077,0.001l0.121-0.027l0.078,0.028
	l0.107,0.035l0.209,0.031c0.095,0.004,0.227-0.033,0.328-0.087l0.015-0.017l0.124-0.039c0.092,0.059,0.201,0.084,0.312,0.086
	l0.229-0.038l0.075-0.038l0.213,0.061l0.074,0.002l0.182-0.026l0.152,0.022c0.041-0.001,0.08-0.011,0.119-0.019
	c0.221,0.177,0.723,0.14,0.723,0.14c1.01,0.123,0.923-0.258,0.923-0.258c0.007-0.104-0.001-0.192-0.028-0.285l0.08-0.201l0.012-0.09
	c0.001-0.008-0.002-0.017-0.001-0.024c0.079-0.194,0.066-0.404-0.035-0.58c0.032-0.078,0.062-0.157,0.067-0.242l-0.018-0.219
	l0.016-0.069l0.006-0.049c0.002-0.121-0.029-0.25-0.082-0.356l0.027-0.158l0.018-0.138l-0.005-0.203l0.014-0.08l-0.007-0.169
	l-0.004-0.038c0.061-0.096,0.103-0.213,0.118-0.342l0.002-0.069l0.003-0.146l-0.015-0.127c0.13-0.123,0.208-0.285,0.229-0.471
	l0.002-0.062v-0.137l-0.016-0.135l0.053-0.212l0.01-0.117c-0.008-0.091-0.029-0.181-0.061-0.267l0.006-0.072v-0.019
	c0.021-0.138-0.002-0.275-0.065-0.397v-0.049c0.141-0.123,0.226-0.302,0.247-0.497l0.006-0.042l0.002-0.166
	c0.004-0.161-0.039-0.316-0.12-0.439l0.03-0.144l0.005-0.112l-0.01-0.121l0.048-0.154l0.018-0.088
	c0.012-0.138-0.018-0.277-0.073-0.398c0.063-0.091,0.105-0.188,0.128-0.293l0.018-0.092c0.013-0.123-0.005-0.238-0.047-0.354
	c0.09-0.107,0.15-0.246,0.174-0.407v-0.012c0.005-0.103-0.004-0.191-0.027-0.292l0.012-0.008c0.127-0.111,0.201-0.289,0.219-0.459
	l0.002-0.059c0.002-0.137-0.033-0.264-0.095-0.381c0.052-0.082,0.092-0.182,0.104-0.287l0.005-0.044
	c0.019-0.14-0.002-0.267-0.062-0.38v-0.095c0.055-0.093,0.086-0.196,0.096-0.298l-0.001-0.162l-0.003-0.035
	c0.08-0.117,0.135-0.251,0.15-0.395l0.004-0.042l-0.028-0.247l0.002-0.023v-0.01c0.007-0.154-0.021-0.291-0.087-0.416
	c0.12-0.11,0.195-0.262,0.215-0.436l0.01-0.033c0.023-0.202-0.041-0.396-0.159-0.549l0.007-0.08c0.011-0.131-0.018-0.28-0.078-0.404
	l0.156-0.256c0.141-0.121,0.227-0.293,0.248-0.487v-0.013l-0.024-0.238l0.085-0.195l0.027-0.139
	c0.019-0.231-0.059-0.478-0.232-0.627l-0.014-0.018c0.086-0.121,0.144-0.242,0.153-0.391l-0.002-0.21l-0.024-0.149l-0.012-0.054
	l0.003-0.031l0.001-0.065c0.088-0.094,0.165-0.208,0.207-0.334l0.031-0.168c0.014-0.107-0.005-0.216-0.041-0.324l0.072-0.207
	c0.089-0.111,0.146-0.26,0.161-0.408c0.019-0.163-0.019-0.316-0.088-0.448l0.022-0.097l0.02-0.122l-0.024-0.271l0.03-0.078
	c0.091-0.102,0.158-0.25,0.18-0.404l0.006-0.031l-0.008-0.197l0.025-0.123v-0.27c-0.008-0.133-0.049-0.254-0.115-0.371
	c0.107-0.117,0.191-0.262,0.216-0.432l0.003-0.036c0.016-0.122-0.008-0.255-0.051-0.366l-0.002-0.136l-0.002-0.024
	c0.037-0.086,0.061-0.161,0.072-0.262v-0.006l-0.016-0.216l0.009-0.009l0.044-0.19c0.004-0.026,0.008-0.05,0.007-0.078l-0.019-0.222
	c0.064-0.084,0.11-0.188,0.129-0.294l0.021-0.149l0.014-0.066l-0.016-0.248l-0.036-0.148l0.017-0.072l0.008-0.028v-0.012
	c0.004-0.02,0.016-0.035,0.018-0.056v-0.078l-0.005-0.042l0.005-0.038l0.008-0.049c0.001-0.01-0.003-0.019-0.002-0.027l0.048-0.178
	c0.008-0.062,0.003-0.126-0.01-0.189c0.049-0.07,0.104-0.138,0.126-0.223l0.023-0.127c0.014-0.124-0.009-0.25-0.051-0.361
	l0.07-0.208v-0.042c0.018-0.139-0.018-0.271-0.066-0.391v-0.016l0.049-0.197l-0.016-0.201c-0.008-0.105-0.05-0.207-0.111-0.303
	l0.001-0.101c0.188-0.11,0.341-0.31,0.366-0.555l0.008-0.03c0.021-0.206-0.041-0.402-0.162-0.553
	c0.041-0.078,0.059-0.158,0.076-0.253l0.005-0.033c0.006-0.084-0.007-0.162-0.023-0.239c0.004-0.027,0.004-0.054,0.005-0.083
	c0.058-0.1,0.095-0.201,0.109-0.315l0.002-0.059l0.002-0.109l0.02-0.123l0.004-0.029v-0.178l0.025-0.138
	c0.004-0.041-0.008-0.082-0.021-0.123c0.105-0.079,0.201-0.211,0.096-0.406l-0.047-0.255l-0.025-0.072
	c0.088-0.096,0.135-0.215,0.148-0.354v-0.076c-0.008-0.158-0.067-0.301-0.166-0.419c0.088-0.093,0.148-0.218,0.166-0.343v-0.025
	c0.057-0.086,0.094-0.189,0.104-0.293v-0.107c-0.002-0.102-0.038-0.209-0.083-0.306l0.018-0.138l0.007-0.021
	c0.009-0.138-0.024-0.273-0.094-0.376c0.098-0.114,0.152-0.242,0.17-0.385v-0.143c-0.02-0.105-0.056-0.204-0.109-0.301l0.009-0.047
	v-0.012l0.083-0.237l0.025-0.133l0.006-0.048v-0.025l0.01-0.059c0.115-0.109,0.199-0.264,0.21-0.43l0.005-0.082l-0.055-0.232
	l0.058-0.176l0.02-0.136l0.007-0.036c0.004-0.109-0.01-0.227-0.059-0.328l-0.023-0.047l-0.002-0.031l-0.016-0.078
	c0.058-0.096,0.1-0.201,0.104-0.307v-0.143l0.029-0.117l-0.012-0.217l-0.021-0.074l0.024-0.111l-0.007-0.209V53.47
	c0.05-0.094,0.088-0.189,0.105-0.295l0.002-0.02l-0.002-0.139l0.06-0.188l0.014-0.07c0.017-0.182-0.045-0.374-0.168-0.513
	l0.039-0.168l0.023-0.022c0.083-0.113,0.125-0.229,0.143-0.366c0.012-0.136-0.021-0.284-0.098-0.4l-0.032-0.062l0.048-0.172
	c0.068-0.068,0.123-0.145,0.163-0.241l0.038-0.168c0.008-0.103-0.004-0.196-0.029-0.284c0.076-0.097,0.136-0.201,0.159-0.33
	l0.017-0.127l0.004-0.051c0.014-0.121-0.009-0.237-0.056-0.348l0.038-0.1l0.014-0.09c0.004-0.119-0.009-0.223-0.052-0.333
	c0.069-0.085,0.117-0.208,0.126-0.333c0.007-0.102-0.009-0.201-0.043-0.292l0.021-0.104V48.14c-0.012-0.105-0.049-0.203-0.103-0.295
	l0.041-0.091c0.097-0.09,0.162-0.204,0.192-0.342l0.029-0.13l0.009-0.074c0.013-0.115-0.007-0.221-0.048-0.316l0.012-0.088
	c0.016-0.086,0-0.178-0.02-0.27l-0.04-0.102c0.048-0.093,0.08-0.188,0.087-0.275c0.006-0.086,0-0.171-0.027-0.262
	c0.094-0.086,0.16-0.219,0.179-0.365l0.001-0.02c0.013-0.122-0.01-0.236-0.056-0.338c0.065-0.093,0.104-0.203,0.113-0.317
	l-0.01-0.198c-0.028-0.107-0.069-0.201-0.136-0.273c0.117-0.11,0.195-0.269,0.215-0.429v-0.021c0.009-0.174-0.043-0.322-0.143-0.445
	l0.015-0.059l-0.015-0.188l0.015-0.01c0.061-0.092,0.099-0.216,0.121-0.323v-0.093l-0.009-0.111l0.009-0.109l-0.026-0.207
	c0.063-0.1,0.099-0.205,0.107-0.309v-0.146l0.022-0.109l0.087-0.225l0.004-0.057c0.019-0.161-0.025-0.314-0.113-0.442l0.072-0.233
	c0.006-0.158-0.035-0.326-0.133-0.452l0.017-0.03c0.116-0.098,0.188-0.232,0.22-0.386l0.01-0.059l-0.038-0.253l0.079-0.251
	c0.018-0.095,0-0.192-0.029-0.271l0.019-0.095l0.015-0.123V38.92c0.021-0.155-0.023-0.313-0.111-0.444h0.057
	c0.167-0.006,0.33-0.062,0.457-0.154l0.264-0.047l0.117-0.039l0.166-0.072c0.139-0.014,0.276-0.06,0.396-0.117
	c0.115-0.033,0.224-0.082,0.32-0.156l0.234-0.117l0.146-0.065c0.171-0.035,0.32-0.113,0.446-0.226l0.136-0.051l0.127-0.064
	c0.127-0.061,0.229-0.154,0.318-0.266l0.086-0.114l0.043-0.019l0.006-0.014l0.013-0.006c0.167-0.067,0.312-0.184,0.413-0.336
	l0.076-0.108c0.104-0.062,0.199-0.14,0.273-0.239c0.166-0.115,0.299-0.287,0.36-0.488l0.005-0.023l0.012-0.022l0.03-0.062h0.003
	l0.095-0.103c0.14-0.146,0.222-0.328,0.246-0.53V35.01l0.005-0.024l0.027-0.053c0.079-0.139,0.126-0.275,0.146-0.425v-0.042
	l0.037-0.109l0.028-0.098l0.037-0.138l0.024-0.148l0.004-0.032l0.012-0.148c0.004-0.1-0.012-0.207-0.037-0.304L58.297,33.466z
	 M16.418,32.753c-0.104-0.123-0.238-0.212-0.394-0.254c-0.113-0.118-0.256-0.196-0.404-0.232v-0.012l-0.089-0.098l-0.217-0.178
	l-0.021-0.033l-0.099-0.111l-0.032-0.074c-0.067-0.146-0.171-0.266-0.296-0.359c-0.056-0.104-0.127-0.191-0.214-0.275l-0.011-0.019
	c0-0.21-0.064-0.402-0.191-0.567l-0.009-0.012l-0.038-0.199l-0.008-0.152l0.023-0.149l-0.01-0.141l0.032-0.131v-0.13l0.048-0.137
	l0.035-0.123l0.023-0.109l0.012-0.125l0.01-0.053l-0.008-0.111l0.064-0.08c0.064-0.078,0.102-0.163,0.132-0.258
	c0.085-0.117,0.146-0.252,0.16-0.402v-0.011h0.013l0.031-0.104l0.066-0.115c0.141-0.108,0.246-0.25,0.311-0.402
	c0.125-0.119,0.213-0.254,0.27-0.422v-0.006c0.129-0.11,0.234-0.248,0.299-0.391c0.105-0.074,0.193-0.174,0.271-0.273l0.146-0.143
	l0.089-0.114l0.004-0.005c0.102-0.074,0.191-0.164,0.262-0.256c0.1-0.066,0.187-0.139,0.256-0.236l0.066-0.037l0.102-0.099
	l0.166-0.169l0.084-0.117l0.024-0.033l0.103-0.1l0.043-0.023l-0.04,0.196l0.008,0.231l-0.011,0.045l-0.037,0.137l-0.018,0.131v0.019
	l-0.01,0.13l-0.01,0.098v0.023l0.002,0.214l-0.041,0.198v0.189l0.011,0.137l0.021,0.115v0.033c-0.059,0.105-0.1,0.229-0.108,0.355
	c-0.011,0.088-0.007,0.189,0.018,0.289l-0.054,0.252v0.229l-0.01,0.08l0.01,0.123v0.062l-0.029,0.078l-0.029,0.138l-0.009,0.042
	l-0.022,0.145l-0.015,0.075v0.071l-0.046,0.205l0.016,0.242l-0.039,0.172v0.068l-0.004,0.138l0.004,0.055l-0.029,0.155v0.144
	l-0.026,0.132v0.141l0.007,0.145l0.003,0.025l-0.01,0.057c-0.048,0.1-0.081,0.213-0.093,0.322c-0.01,0.111,0,0.215,0.026,0.328
	v0.023l-0.036,0.211l-0.006,0.08v0.08l-0.008,0.071l-0.004,0.034l0.004,0.217l0.014,0.123l-0.036,0.148
	c-0.053,0.104-0.091,0.218-0.106,0.344l0.012,0.227l0.006,0.035l-0.006,0.018l-0.012-0.004h-0.006
	C16.668,32.854,16.549,32.786,16.418,32.753z M51.4,39.326l-0.006,0.067c-0.021,0.193,0.048,0.377,0.17,0.513v0.086
	c-0.131,0.112-0.217,0.275-0.23,0.444l-0.008,0.038c0,0.11,0.027,0.235,0.081,0.333c-0.06,0.099-0.094,0.189-0.106,0.303v0.107
	l0.025,0.146l-0.029,0.161h-0.002c-0.014,0.112,0.006,0.193,0.042,0.293v0.011c-0.011,0.104,0.011,0.212,0.058,0.304l-0.068,0.221
	l-0.01,0.064l0.029,0.172c-0.119,0.11-0.193,0.256-0.221,0.42v0.009c-0.01,0.171,0.036,0.332,0.129,0.457v0.065l-0.025,0.131v0.018
	c-0.065,0.082-0.113,0.174-0.135,0.284l-0.014,0.069l0.004,0.164l-0.02,0.104v0.094l0.029,0.154l-0.003,0.008l0.007,0.173
	c-0.073,0.095-0.125,0.211-0.137,0.342v0.021l0.021,0.201l-0.039,0.165c-0.011,0.115,0.01,0.226,0.054,0.343l0.023,0.148
	c-0.053,0.09-0.088,0.191-0.104,0.294v0.142l0.019,0.135l0.072,0.216l-0.001,0.043l-0.01,0.075v0.137l0.032,0.175l-0.021,0.078
	L51.007,47.3c-0.058,0.077-0.09,0.182-0.095,0.275l0.005,0.179l-0.055,0.218l-0.011,0.062l0.011,0.088
	c-0.036,0.074-0.066,0.152-0.075,0.247v0.104l-0.041,0.112l-0.04,0.171L50.73,49c-0.05,0.075-0.08,0.16-0.098,0.256v0.02
	c-0.017,0.179,0.033,0.345,0.143,0.481l0.047,0.148l-0.011,0.059l0.005,0.148c-0.154,0.088-0.264,0.26-0.299,0.443l-0.005,0.051
	c-0.007,0.115,0.016,0.219,0.055,0.322c-0.072,0.098-0.12,0.207-0.128,0.338l-0.008,0.078c0.008,0.127,0.045,0.238,0.106,0.332
	l-0.106,0.163l-0.058,0.22c-0.011,0.108,0.003,0.222,0.048,0.325l0.055,0.123l-0.062,0.224l0.008,0.154l-0.064,0.215l-0.008,0.021
	c-0.016,0.177,0.042,0.352,0.146,0.482l-0.007,0.066c-0.016,0.145,0.024,0.283,0.097,0.414c-0.178,0.102-0.298,0.289-0.321,0.497
	v0.05c-0.006,0.15,0.047,0.303,0.137,0.415c-0.134,0.117-0.217,0.273-0.236,0.449l-0.004,0.02c-0.01,0.216,0.074,0.425,0.231,0.556
	c-0.083,0.104-0.136,0.232-0.152,0.367l0.005,0.121c-0.094,0.113-0.151,0.246-0.163,0.389v0.115l-0.052,0.117l-0.035,0.152
	c-0.011,0.1,0.01,0.205,0.041,0.307l-0.015,0.096v0.145c-0.085,0.106-0.141,0.225-0.149,0.365l0.006,0.172
	c0.018,0.137,0.089,0.26,0.184,0.354l-0.047,0.131l-0.033,0.152l-0.015,0.078l0.015,0.207l0.027,0.146l0.021,0.074
	c-0.046,0.09-0.077,0.173-0.094,0.268l-0.023,0.158v0.019l0.023,0.233c-0.159,0.113-0.26,0.288-0.277,0.475l0.018,0.209
	c-0.079,0.086-0.135,0.197-0.156,0.314v0.046l0.016,0.224l-0.06,0.211v0.121c0.011,0.121,0.052,0.23,0.115,0.321
	c-0.048,0.072-0.077,0.158-0.089,0.249c-0.059,0.088-0.104,0.193-0.119,0.309l0.007,0.13l0.021,0.094l-0.055,0.203v0.107
	l-0.043,0.176l0.007,0.153l0.016,0.148l0.036,0.107l0.019,0.071c-0.07,0.091-0.115,0.185-0.134,0.285l-0.031,0.134l-0.011,0.083
	c-0.019,0.165,0.024,0.319,0.119,0.444l0.007,0.072l0.029,0.113c-0.05,0.07-0.092,0.147-0.115,0.236l-0.025,0.136l0.004,0.067
	l-0.066,0.229v0.031c-0.004,0.063,0.02,0.121,0.03,0.182c-0.022,0.058-0.059,0.108-0.065,0.172v0.051l0.026,0.197l0.253,0.38
	c0.005,0.021,0.003,0.045,0.008,0.064c-0.059,0.093-0.092,0.212-0.105,0.327v0.042c-0.136,0.095-0.246,0.244-0.291,0.415
	l-0.03,0.133c-0.006,0.098,0.01,0.189,0.032,0.275c-0.061,0.105-0.108,0.223-0.123,0.35l-0.002,0.086
	c0.004,0.209,0.085,0.387,0.21,0.521c-0.069,0.101-0.105,0.211-0.123,0.332c-0.058,0.098-0.099,0.209-0.104,0.324l0.004,0.221
	c0.021,0.103,0.063,0.203,0.123,0.289l-0.09,0.235v0.018l-0.066,0.106l-0.072,0.164l-0.062,0.248l0.015,0.247l-0.062,0.236
	c-0.014,0.104,0,0.194,0.025,0.29l0.027,0.109l-0.008,0.056l-0.004,0.04l0.002,0.188c-0.046,0.095-0.079,0.195-0.083,0.298
	l-0.009,0.068l0.008,0.025l-0.053,0.076c-0.035,0.084-0.062,0.178-0.078,0.277c-0.009,0.11,0.002,0.23,0.047,0.337l0.037,0.101
	l0.014,0.085l0.004,0.011l-0.004,0.047l-0.002,0.094c-0.087,0.085-0.153,0.186-0.192,0.312l-0.043,0.133l-0.035,0.162
	c-0.008,0.139,0.003,0.264,0.06,0.385l-0.109,0.221l-0.025,0.127c-0.01,0.169,0.023,0.328,0.1,0.458
	c-0.083,0.103-0.145,0.228-0.173,0.362l-0.01,0.064c-0.011,0.15,0.015,0.285,0.071,0.41v0.045l-0.009,0.09
	c-0.055,0.086-0.099,0.203-0.12,0.309v0.045c-0.011,0.111,0.006,0.222,0.037,0.316c-0.096,0.121-0.152,0.273-0.174,0.428
	l-0.002,0.083l0.056,0.265l-0.021,0.102l0.02,0.258l0.03,0.071c-0.021,0.157,0.013,0.313,0.083,0.437l0.064,0.262
	c-0.062,0.096-0.1,0.211-0.119,0.312l-0.048,0.094c-0.16,0.126-0.269,0.309-0.294,0.516v0.027c-0.025,0.259,0.076,0.521,0.278,0.656
	c-0.2,0.125-0.323,0.333-0.355,0.576v0.022l-0.07,0.199l-0.011,0.085c-0.01,0.146,0.021,0.276,0.072,0.406
	c-0.055,0.088-0.103,0.189-0.122,0.299l-0.008,0.071c-0.021,0.157,0.021,0.315,0.095,0.454l0.01,0.045
	c-0.055,0.094-0.077,0.189-0.092,0.289v0.104l0.002,0.154l0.041,0.207c-0.061,0.107-0.101,0.211-0.111,0.323v0.101
	c-0.067,0.081-0.118,0.195-0.138,0.319l-0.005,0.044c-0.012,0.141,0.012,0.285,0.067,0.406l-0.071,0.242L47.32,84.78l0.002,0.016
	c-0.033,0.076-0.066,0.174-0.076,0.268l-0.014,0.156c-0.02,0.146,0.008,0.277,0.064,0.393c-0.096,0.115-0.16,0.243-0.176,0.404
	l-0.006,0.022c-0.011,0.095-0.004,0.173,0.016,0.251l-0.041,0.172c-0.005,0.092-0.002,0.183,0.023,0.275l0.027,0.057l-0.018,0.086
	l-0.006,0.053v0.137c-0.008,0.156,0.035,0.309,0.119,0.432c-0.072,0.102-0.119,0.23-0.131,0.355l0.006,0.209l0.021,0.139
	l0.025,0.078c-0.095,0.068-0.163,0.166-0.217,0.275l-0.065,0.01l-0.046,0.028c-0.112-0.097-0.255-0.156-0.408-0.163l-0.024,0.002
	c-0.116-0.006-0.226,0.037-0.337,0.091l-0.076,0.005l-0.147,0.043c-0.101-0.059-0.226-0.1-0.339-0.098l-0.204,0.035l-0.183,0.1
	l-0.148,0.056l-0.246-0.05l-0.062-0.003l-0.141,0.034c-0.103-0.064-0.226-0.097-0.342-0.098l-0.012,0.001l-0.23,0.056
	c-0.095-0.047-0.191-0.069-0.293-0.072l-0.135,0.012l-0.078,0.034c-0.098-0.055-0.213-0.088-0.332-0.087h-0.037l-0.123,0.004
	c-0.139,0.011-0.268,0.062-0.362,0.133l-0.042,0.011c-0.078-0.058-0.182-0.091-0.283-0.104l-0.131-0.021l-0.078-0.007
	c-0.182,0.002-0.354,0.072-0.475,0.201l-0.025,0.007l-0.121-0.02l-0.05-0.002c-0.11-0.002-0.235,0.034-0.333,0.094l-0.049-0.027
	l-0.176-0.051c-0.117-0.074-0.236-0.109-0.369-0.109l-0.14,0.014l-0.233,0.105l-0.051-0.011c-0.109-0.118-0.268-0.202-0.432-0.214
	l-0.066-0.008c-0.146,0.004-0.281,0.055-0.4,0.136l-0.118-0.013l-0.149,0.014c-0.104-0.073-0.232-0.113-0.365-0.121
	c-0.096,0.005-0.174,0.021-0.258,0.057l-0.189-0.061l-0.082-0.004c-0.15,0-0.293,0.05-0.42,0.143l-0.102-0.042l-0.254-0.048
	l-0.197,0.035l-0.063-0.006l-0.046-0.002c-0.111,0.01-0.226,0.055-0.318,0.117l-0.146-0.015l-0.127-0.003L36.094,88.7l-0.072-0.006
	l-0.153,0.021l-0.033,0.008c-0.095-0.051-0.206-0.08-0.324-0.084l-0.062,0.006l-0.134,0.012L35.2,88.683
	c-0.123-0.117-0.276-0.18-0.448-0.184l-0.057,0.006l-0.128,0.012l-0.118,0.029l-0.198-0.031h-0.108l-0.236,0.088h-0.084
	c-0.129-0.007-0.252,0.03-0.355,0.104l-0.045,0.005c-0.125-0.128-0.296-0.194-0.477-0.196l-0.037-0.002l-0.15,0.015
	c-0.148,0.011-0.287,0.068-0.389,0.161l-0.136-0.016l-0.104,0.006l-0.108,0.022l-0.144-0.033l-0.082-0.011
	c-0.127,0.002-0.252,0.045-0.356,0.113c-0.089-0.055-0.182-0.088-0.278-0.102l-0.086-0.008c-0.113,0-0.217,0.029-0.317,0.082
	c-0.105-0.078-0.237-0.127-0.388-0.136l-0.01,0.001c-0.094,0.006-0.174,0.023-0.264,0.058l-0.009-0.013
	c-0.112-0.115-0.279-0.172-0.438-0.174l-0.053,0.006c-0.125,0.012-0.238,0.058-0.338,0.129c-0.081-0.043-0.174-0.072-0.272-0.076
	l-0.039,0.002c-0.129-0.006-0.244,0.027-0.342,0.096l-0.085,0.01c-0.091-0.045-0.188-0.067-0.281-0.067l-0.146,0.018l-0.034,0.007
	c-0.111-0.068-0.238-0.11-0.371-0.111L27.65,88.49l-0.225,0.053h-0.029c-0.142,0.008-0.265,0.052-0.371,0.126
	c-0.113-0.107-0.258-0.168-0.417-0.172l-0.032-0.005c-0.186-0.003-0.358,0.078-0.484,0.21l-0.073,0.002
	c-0.122,0.002-0.255,0.045-0.361,0.119L25.41,88.69c-0.124-0.128-0.287-0.197-0.467-0.199l-0.012,0.001l-0.215,0.046l-0.186-0.065
	l-0.129-0.015c-0.213,0.006-0.43,0.105-0.549,0.295l-0.016,0.016c-0.117-0.076-0.235-0.121-0.369-0.117l-0.191,0.021l-0.136,0.041
	l-0.048,0.016h-0.029l-0.059,0.006c-0.093-0.079-0.203-0.145-0.322-0.173l-0.154-0.017c-0.1-0.003-0.197,0.025-0.295,0.072
	l-0.191-0.051c-0.112-0.078-0.251-0.123-0.389-0.123c-0.15,0-0.287,0.051-0.4,0.133l-0.09-0.014l-0.113-0.009l-0.243,0.052
	l-0.073-0.023c-0.102-0.08-0.242-0.134-0.386-0.139L20.32,88.44l-0.18,0.026l-0.113-0.013l-0.1,0.01l-0.146,0.016
	c-0.121,0.021-0.229,0.075-0.328,0.15c-0.115-0.096-0.256-0.165-0.412-0.172h-0.033c-0.113-0.003-0.232,0.033-0.33,0.087
	l-0.124,0.015l-0.021,0.003c-0.081-0.028-0.153-0.044-0.244-0.046h-0.007l-0.196,0.037l-0.008-0.008l-0.215-0.031l-0.234,0.047
	c-0.082-0.057-0.181-0.092-0.278-0.102l-0.14-0.006l-0.062-0.008l-0.226,0.041l-0.131,0.049l-0.067-0.011l-0.026-0.005l-0.102,0.01
	l-0.105-0.005l-0.045-0.003c-0.091-0.003-0.18,0.021-0.256,0.053c-0.095-0.078-0.203-0.136-0.322-0.155l-0.117-0.01
	c-0.113-0.003-0.227,0.032-0.323,0.085l-0.197-0.051l-0.036,0.004c-0.131-0.004-0.248,0.044-0.352,0.106l-0.013,0.001l-0.186-0.03
	l-0.183,0.034c-0.094,0.019-0.184,0.07-0.265,0.142l-0.093,0.008c-0.117-0.177-0.313-0.308-0.537-0.31l-0.029-0.007
	c-0.188-0.001-0.364,0.081-0.488,0.216l-0.238-0.051l-0.029-0.002c-0.097,0.002-0.182,0.02-0.266,0.055
	c-0.104-0.058-0.209-0.082-0.323-0.085l-0.055,0.003l-0.079,0.008c-0.024-0.05-0.032-0.104-0.07-0.152l-0.063-0.129
	c-0.013-0.105-0.044-0.204-0.097-0.292l-0.004-0.032l-0.059-0.215l-0.004-0.002l-0.002-0.006l-0.07-0.227
	c0.007-0.1,0.006-0.204-0.026-0.307c0.005-0.086-0.007-0.172-0.035-0.264c0.01-0.09,0.002-0.188-0.028-0.281l0.002-0.062
	c0.012-0.093-0.006-0.196-0.027-0.284l0.006-0.057l0.021-0.109c0.047-0.119,0.051-0.254,0.036-0.385
	c0.058-0.121,0.075-0.254,0.065-0.388l0.081-0.235l0.055-0.166l0.024-0.104l0.023-0.201l0.021-0.146l0.035-0.079l0.092-0.141
	l0.011-0.026c0.131-0.117,0.219-0.275,0.246-0.448l0.022-0.018c0.073-0.095,0.128-0.203,0.159-0.323v-0.004l0.008-0.002l0.012-0.033
	l0.025-0.042l0.109-0.13c0.083-0.076,0.15-0.166,0.199-0.27c0.096-0.09,0.171-0.197,0.209-0.318
	c0.115-0.076,0.212-0.178,0.275-0.299l0.05-0.104l0.073-0.2l0.135-0.177l0.02-0.042l0.035-0.042c0.104-0.129,0.16-0.295,0.169-0.459
	c0.086-0.131,0.147-0.28,0.155-0.436c0.036-0.083,0.064-0.17,0.074-0.27c0.048-0.114,0.072-0.25,0.061-0.383
	c0.009-0.055-0.01-0.108-0.012-0.163c0.028-0.062,0.071-0.116,0.081-0.188c0.005-0.096-0.005-0.176-0.032-0.262l0.077-0.182
	l0.011-0.082c0.015-0.148-0.021-0.297-0.102-0.43l0.051-0.1l0.07-0.247l-0.02-0.2l0.015-0.061l0.005-0.047
	c0-0.111-0.035-0.229-0.088-0.327l0.028-0.144l0.015-0.126l-0.008-0.188l0.012-0.071l-0.009-0.155l-0.003-0.034
	c0.059-0.089,0.098-0.196,0.111-0.314v-0.196l-0.014-0.116c0.129-0.112,0.204-0.26,0.224-0.431v-0.185l-0.02-0.12l0.051-0.194
	l0.007-0.107l-0.064-0.244l0.007-0.064v-0.02c0.02-0.125-0.007-0.25-0.071-0.363v-0.044c0.139-0.112,0.221-0.276,0.24-0.456
	l0.004-0.037v-0.151c0.003-0.149-0.043-0.292-0.125-0.402l0.027-0.133l0.003-0.103l-0.011-0.111l0.047-0.141l0.016-0.08
	c0.011-0.125-0.021-0.254-0.079-0.364c0.063-0.083,0.104-0.173,0.125-0.269l0.016-0.083c0.011-0.114-0.008-0.22-0.051-0.325
	c0.087-0.098,0.149-0.225,0.169-0.373v-0.01c0.004-0.093-0.008-0.176-0.033-0.267l0.014-0.009c0.125-0.102,0.195-0.264,0.211-0.418
	v-0.055c0-0.126-0.036-0.241-0.098-0.349c0.051-0.076,0.089-0.166,0.102-0.263l0.002-0.041c0.018-0.127-0.006-0.242-0.065-0.348
	v-0.086c0.051-0.085,0.083-0.18,0.091-0.272l-0.004-0.148l-0.004-0.032c0.08-0.106,0.133-0.229,0.146-0.361l0.005-0.038
	l-0.032-0.226l0.001-0.021v-0.01c0.005-0.141-0.025-0.266-0.092-0.381c0.118-0.102,0.193-0.238,0.209-0.398l0.01-0.031
	c0.019-0.184-0.047-0.363-0.166-0.502l0.003-0.072c0.011-0.121-0.019-0.257-0.083-0.371l0.152-0.234
	c0.14-0.109,0.223-0.267,0.242-0.445v-0.012l-0.027-0.219l0.083-0.178l0.025-0.127c0.017-0.211-0.065-0.437-0.241-0.574
	l-0.014-0.014c0.084-0.111,0.141-0.225,0.146-0.359l-0.002-0.191l-0.027-0.139l-0.014-0.049l0.004-0.027v-0.061
	c0.086-0.085,0.164-0.19,0.201-0.306l0.029-0.151c0.014-0.1-0.008-0.199-0.045-0.299l0.07-0.188
	c0.088-0.103,0.143-0.238,0.156-0.375c0.016-0.15-0.024-0.291-0.096-0.411l0.021-0.089l0.018-0.111l-0.027-0.247l0.027-0.07
	c0.093-0.093,0.158-0.229,0.176-0.369l0.005-0.029l-0.007-0.181l0.021-0.113v-0.099l-0.004-0.147
	c-0.011-0.123-0.053-0.233-0.119-0.342c0.104-0.105,0.188-0.238,0.209-0.393l0.003-0.032c0.013-0.112-0.011-0.235-0.056-0.336
	l-0.003-0.126l-0.003-0.023l0.068-0.237v-0.007l-0.018-0.197l0.008-0.007l0.051-0.212l-0.026-0.237
	c0.063-0.076,0.11-0.171,0.126-0.269l0.02-0.139l0.012-0.059l-0.02-0.228l-0.036-0.136l0.017-0.066l0.008-0.026v-0.103l0.012-0.105
	l0.008-0.043l-0.027-0.26c0.086-0.087,0.152-0.189,0.182-0.305l0.023-0.116c0.011-0.112-0.012-0.229-0.057-0.331l0.067-0.189v-0.039
	c0.016-0.127-0.021-0.249-0.074-0.357v-0.013l0.048-0.183l-0.018-0.186c-0.01-0.094-0.053-0.187-0.116-0.275v-0.094
	c0.186-0.1,0.336-0.282,0.358-0.506l0.008-0.027c0.018-0.188-0.048-0.369-0.17-0.507l0.072-0.229l0.004-0.032
	c0.007-0.095-0.004-0.183-0.031-0.267c0.068-0.1,0.102-0.201,0.113-0.315l0.004-0.056v-0.1l0.018-0.111l0.003-0.029l-0.003-0.162
	l0.025-0.125c0.01-0.111-0.01-0.224-0.059-0.341l-0.007-0.021v-0.003c0.156-0.122,0.263-0.286,0.278-0.487v-0.047l-0.006-0.124
	l0.037-0.077l0.038-0.181c0.015-0.113-0.006-0.239-0.058-0.347L16.725,51.4l-0.006-0.111l0.021-0.122v-0.012
	c0.02-0.145-0.021-0.293-0.105-0.416l0.033-0.11l0.005-0.038l-0.005-0.138c0.092-0.081,0.145-0.194,0.176-0.313l0.031-0.134
	l0.006-0.093l-0.006-0.198l-0.037-0.146l-0.01-0.041l-0.049-0.133l-0.047-0.125l-0.029-0.186l0.021-0.123l0.027-0.128l0.012-0.078
	l0.016-0.151v-0.122l0.039-0.175v-0.061l0.034-0.111l0.028-0.086c0.108-0.107,0.195-0.223,0.217-0.386l0.006-0.05
	c0.021-0.194-0.053-0.393-0.191-0.531l0.046-0.191l0.009-0.088v-0.002c0.235-0.084,0.404-0.291,0.441-0.539l0.006-0.035
	c0.01-0.096-0.006-0.193-0.041-0.283l0.005-0.078c-0.007-0.148-0.061-0.289-0.153-0.399l0.115-0.11
	c0.113-0.117,0.176-0.26,0.191-0.414l-0.006-0.167l-0.082-0.218c0.072-0.102,0.123-0.204,0.135-0.334V44.19
	c0.004-0.148-0.031-0.285-0.107-0.399l0.15-0.23l0.04-0.168c0.007-0.134-0.022-0.267-0.083-0.396l-0.037-0.064l-0.018-0.059
	l-0.032-0.103l0.05-0.056l0.096-0.143c0.082-0.088,0.121-0.218,0.135-0.332c0.009-0.115-0.014-0.236-0.064-0.351l0.064-0.216
	l0.002-0.102l-0.039-0.174l0.037-0.162l-0.014-0.17l0.016-0.047c0.074-0.107,0.125-0.218,0.134-0.348l0.003-0.041
	c0-0.128-0.029-0.246-0.096-0.352l0.041-0.181l-0.019-0.231l0.011-0.058l-0.033-0.259c0.118-0.094,0.189-0.243,0.217-0.386
	l0.095-0.194l0.025-0.137c0.009-0.105-0.003-0.209-0.048-0.307c0.045-0.084,0.07-0.159,0.082-0.254l0.002-0.021l-0.002-0.091
	l0.036-0.16v-0.014l-0.021-0.217l0.006-0.031V37.72c0.015-0.137-0.016-0.273-0.08-0.389c0.061-0.078,0.095-0.17,0.11-0.27
	l0.009-0.047c0.013-0.098-0.009-0.197-0.037-0.277c0.101-0.103,0.171-0.233,0.198-0.375l0.003-0.045l-0.006-0.186l0.014-0.1v-0.066
	c0-0.164-0.066-0.316-0.172-0.444l0.119-0.228l0.023-0.088l0.052-0.02l0.128-0.076l0.119,0.07c0.143,0.086,0.322,0.113,0.49,0.083
	l0.234,0.095c0.113,0.131,0.284,0.207,0.467,0.207c0.126,0.012,0.244-0.018,0.347-0.084l0.042,0.01l0.028,0.01l0.235,0.088
	c0.151,0.018,0.294-0.012,0.425-0.08c0.131,0.039,0.271,0.021,0.401-0.018h0.004l0.223,0.098c0.098,0.079,0.229,0.137,0.367,0.137
	c0.16,0.005,0.324-0.041,0.443-0.137l0.041,0.011c0.105,0.03,0.216,0.03,0.316,0.007c0.164,0.096,0.374,0.124,0.567,0.062
	l0.04-0.016l0.096,0.04c0.139,0.061,0.293,0.07,0.432,0.033c0.103,0.08,0.229,0.137,0.366,0.137
	c0.206,0.014,0.394-0.061,0.525-0.209l0.072-0.004l0.155,0.019h0.045c0.092,0.11,0.223,0.194,0.367,0.23l0.16,0.016l0.24,0.114
	c0.145,0.041,0.293,0.023,0.42-0.027l0.115-0.014l0.105-0.021c0.158,0.166,0.396,0.24,0.615,0.199l0.156-0.051
	c0.145,0.113,0.336,0.158,0.521,0.123l0.139-0.021l0.193-0.066l0.237,0.041h0.046l0.018,0.013c0.13,0.048,0.271,0.048,0.403,0.003
	l0.016,0.01l0.141,0.012l0.124,0.005l0.113,0.032l0.081,0.008c0.077,0.063,0.178,0.104,0.282,0.131
	c0.128,0.033,0.253,0.006,0.37-0.033c0.121,0.006,0.243-0.023,0.352-0.074c0.094,0.051,0.201,0.08,0.313,0.088
	c0.108,0.02,0.213-0.008,0.312-0.048c0.147,0.11,0.349,0.168,0.543,0.11l0.074-0.01l0.217,0.067h0.039l0.068,0.028
	c0.213,0.084,0.441,0.049,0.63-0.09l0.224-0.066l0.154-0.014l0.06,0.014l0.216,0.033l0.015,0.014l0.134,0.109
	c0.143,0.107,0.326,0.158,0.507,0.14l0.138-0.037c0.074,0.046,0.161,0.087,0.258,0.093c0.094,0.01,0.177,0.01,0.265-0.006
	c0.169,0.124,0.39,0.152,0.593,0.096l0.064-0.033c0.246,0.009,0.471-0.112,0.6-0.311l0.062,0.082l0.127,0.149
	c0.189,0.212,0.492,0.273,0.752,0.169l0.15,0.027l0.02,0.016c0.169,0.127,0.398,0.164,0.604,0.098l0.136-0.066l0.175,0.03
	l0.205-0.024c0.139,0.102,0.311,0.143,0.48,0.112l0.066-0.022c0.119,0.093,0.251,0.146,0.396,0.152
	c0.104,0.004,0.207-0.025,0.302-0.06c0.096,0.045,0.211,0.075,0.322,0.075c0.107-0.006,0.209-0.039,0.295-0.075
	c0.092,0.036,0.195,0.063,0.299,0.063l0.146-0.01h0.007c0.11,0.08,0.242,0.125,0.392,0.125h0.139l0.186-0.019
	c0.205,0.077,0.438,0.046,0.615-0.071l0.136-0.035l0.131,0.035c0.118,0.009,0.23-0.014,0.332-0.055l0.087,0.091
	c0.146,0.159,0.364,0.241,0.585,0.209l0.038-0.011c0.081,0.047,0.173,0.074,0.274,0.074l0.268-0.045
	c0.163,0.045,0.339,0.039,0.492-0.033l0.176,0.004l0.21,0.051l0.243-0.04c0.089,0.089,0.2,0.155,0.326,0.186l0.142,0.026
	c0.174,0.047,0.348,0.012,0.49-0.064c0.088,0.035,0.178,0.045,0.27,0.043c0.1,0.08,0.218,0.117,0.35,0.134l0.203-0.019l0.146,0.041
	c0.255,0.049,0.506-0.072,0.656-0.283l0.064-0.006l0.082-0.018l0.008,0.008l0.18,0.064c0.068,0.054,0.15,0.1,0.241,0.124
	l0.144,0.038l0.037,0.008l0.151,0.092c0.101,0.04,0.208,0.061,0.318,0.055c0.093,0.064,0.202,0.09,0.321,0.104
	c0.242,0.01,0.467-0.113,0.593-0.296l0.04-0.024l0.074,0.012c0.095,0.217,0.293,0.371,0.529,0.393c0.113,0.017,0.215,0,0.315-0.041
	l0.051,0.02l0.141,0.031h0.259l0.203,0.066l0.264-0.023l0.162,0.01l0.192-0.046l-0.054,0.206l0.004,0.145l0.014,0.113
	c0.021,0.139,0.088,0.276,0.184,0.371C51.518,39.034,51.428,39.171,51.4,39.326z M56.445,33.792c-0.07,0.12-0.117,0.258-0.131,0.399
	v0.028l-0.029,0.08l-0.021,0.084l-0.021,0.048c-0.136,0.131-0.229,0.294-0.271,0.472l-0.061,0.074l-0.094,0.053l-0.104,0.093
	c-0.091,0.065-0.161,0.161-0.225,0.259l-0.042,0.029l-0.07,0.053l-0.078,0.048l-0.23,0.214c-0.154,0.018-0.3,0.08-0.43,0.18
	c-0.094,0.035-0.191,0.108-0.269,0.172h-0.005l-0.264,0.078c-0.17,0.029-0.321,0.096-0.452,0.209l-0.083,0.02l-0.016,0.02h-0.039
	l0.01-0.041l0.004-0.066l0.041-0.206c0.013-0.112,0-0.214-0.022-0.323v-0.023l0.005-0.144l-0.005-0.091
	c0.069-0.127,0.115-0.26,0.126-0.386c0.005-0.108,0-0.212-0.027-0.321l0.059-0.239v-0.155l-0.004-0.084l0.03-0.178l0.005-0.024
	l0.008-0.148l0.059-0.238l-0.004-0.227l-0.014-0.024l0.004-0.023l-0.004-0.203l0.018-0.07l-0.004-0.104l0.04-0.137l0.015-0.137
	l0.008-0.043l-0.012-0.235l0.004-0.048v-0.143l0.023-0.074l0.043-0.111l0.039-0.217l0.006-0.131l-0.006-0.131l-0.004-0.047
	l0.004-0.037l0.012-0.078v-0.156l0.014-0.03l0.018-0.138l0.016-0.072l0.004-0.082l0.039-0.199c0.007-0.092,0.005-0.185-0.021-0.285
	l0.069-0.263v-0.206l0.012-0.068l-0.01-0.183l0.02-0.093l-0.01-0.26l0.025-0.156l0.009-0.111l-0.009-0.098l0.047-0.191v-0.171
	l0.015-0.103v-0.062l0.104,0.15l0.077,0.092l0.065,0.094l0.068,0.104l0.198,0.205l0.136,0.135l0.035,0.041
	c0.04,0.17,0.132,0.314,0.255,0.43l0.09,0.131c0.036,0.098,0.081,0.186,0.148,0.266c0.034,0.143,0.104,0.295,0.203,0.409
	l0.063,0.073c0.026,0.158,0.104,0.32,0.211,0.442c0.018,0.185,0.094,0.372,0.216,0.519l0.074,0.188c0,0.111,0.02,0.221,0.062,0.325
	l0.047,0.12l0.066,0.137l0.004,0.095c0.005,0.138,0.041,0.269,0.106,0.388l0.004,0.034v0.015l0.007,0.199l-0.007,0.01l-0.02,0.143
	l-0.005,0.053l0.012,0.25l0.02,0.14l0.009,0.018L56.445,33.792z"/>
<path d="M60.057,44.155c0.029,0.005,0.057,0.013,0.084,0.013c0.141-0.001,0.273-0.04,0.389-0.12c0,0,0.025-0.02,0.045-0.035
	c0.065,0.029,0.132,0.045,0.206,0.049c0.021,0.006,0.034,0.004,0.038,0.004c0.016,0,0.033-0.002,0.053-0.004
	c0.094,0.059,0.203,0.092,0.322,0.091c0.02-0.001,0.035,0.005,0.059,0.003c0.285-0.027,0.521-0.238,0.592-0.516
	c0.031-0.029,0.057-0.06,0.084-0.103c0.199-0.313,0.104-0.726-0.211-0.924l-0.097-0.067c-0.052-0.025-0.084-0.045-0.123-0.056
	c-0.12-0.118-0.281-0.185-0.45-0.193c-0.01-0.003-0.01-0.003-0.024-0.002c-0.099,0.005-0.201,0.028-0.286,0.069
	c-0.013,0.002-0.021-0.002-0.039,0c-0.088,0-0.18,0.021-0.268,0.056c-0.022,0-0.053-0.005-0.076-0.005
	c-0.076-0.002-0.146,0.013-0.219,0.031c-0.01,0.006-0.035,0.024-0.045,0.029c-0.01-0.01-0.023-0.014-0.033-0.021l-0.365,0.046
	c-0.029-0.006-0.053-0.016-0.084-0.02c-0.009-0.004-0.02-0.002-0.029-0.002c-0.098,0.004-0.184,0.021-0.267,0.057
	c-0.104-0.059-0.208-0.081-0.323-0.084c-0.012,0-0.035,0-0.055,0.003c0,0-0.063,0.005-0.1,0.009
	c-0.055-0.004-0.113-0.008-0.113-0.008c-0.002-0.003-0.02-0.001-0.027-0.001c-0.057,0-0.107,0.005-0.163,0.019
	c-0.044-0.004-0.089-0.012-0.127-0.014c-0.11,0-0.216,0.131-0.335,0.088c-0.396-0.137-0.406,0.48-0.406,0.48
	c-0.098,0.509,0.113,0.629,0.113,0.629c0,0.133,0.426,0.413,0.539,0.301c0.068,0.026,0.152,0.049,0.229,0.042
	c0,0,0,0.007,0.002,0.007c0.081-0.002,0.153-0.02,0.229-0.049c0.064,0.051,0.141,0.08,0.217,0.102
	c0.044,0.01,0.088,0.006,0.139,0.01c0.027-0.002,0.048-0.004,0.076-0.008c0.064,0.026,0.143,0.046,0.22,0.045
	c0.009-0.002,0.024-0.002,0.031-0.002c0.069,0.033,0.149,0.049,0.233,0.051H60.057z"/>
<path d="M58.5,47.653c0.02,0.02,0.038,0.045,0.061,0.059c0.113,0.082,0.244,0.129,0.383,0.133c0,0,0.031,0,0.058-0.002
	c0.035,0.062,0.08,0.113,0.138,0.162c0.014,0.014,0.025,0.022,0.027,0.023c0.015,0.01,0.029,0.018,0.046,0.029
	c0.042,0.102,0.108,0.193,0.208,0.262c0.016,0.01,0.024,0.025,0.045,0.039c0.246,0.146,0.561,0.115,0.783-0.069
	c0.041-0.006,0.078-0.015,0.126-0.033c0.347-0.136,0.513-0.524,0.374-0.87l-0.037-0.111c-0.027-0.051-0.041-0.088-0.066-0.117
	c-0.027-0.167-0.119-0.315-0.25-0.424c-0.006-0.007-0.006-0.007-0.019-0.016c-0.083-0.053-0.18-0.096-0.272-0.111
	c-0.011-0.006-0.016-0.016-0.031-0.023c-0.07-0.051-0.157-0.09-0.248-0.113c-0.02-0.012-0.041-0.033-0.059-0.049
	c-0.062-0.046-0.127-0.074-0.197-0.102c-0.011-0.004-0.041-0.002-0.053-0.005c-0.003-0.012-0.01-0.024-0.014-0.035L59.18,46.1
	c-0.021-0.021-0.034-0.043-0.057-0.063c-0.006-0.008-0.015-0.013-0.024-0.018c-0.079-0.057-0.159-0.092-0.247-0.113
	c-0.051-0.109-0.121-0.189-0.211-0.259c-0.01-0.007-0.027-0.021-0.047-0.03c0,0-0.053-0.032-0.085-0.05
	c-0.041-0.036-0.088-0.073-0.088-0.073c0-0.005-0.014-0.014-0.021-0.018c-0.045-0.034-0.09-0.061-0.143-0.082
	c-0.033-0.029-0.065-0.061-0.096-0.085c-0.088-0.065-0.25-0.022-0.322-0.126c-0.238-0.346-0.61,0.147-0.61,0.147
	c-0.379,0.354-0.28,0.575-0.28,0.575c-0.076,0.106,0.101,0.584,0.259,0.561c0.04,0.062,0.095,0.129,0.16,0.17
	c0,0-0.003,0.004-0.002,0.006c0.065,0.047,0.136,0.075,0.214,0.096c0.023,0.078,0.066,0.148,0.115,0.211
	c0.031,0.033,0.068,0.057,0.107,0.09c0.022,0.012,0.04,0.023,0.064,0.038c0.038,0.058,0.088,0.12,0.153,0.165
	c0.005,0.004,0.021,0.013,0.026,0.016c0.035,0.068,0.09,0.129,0.156,0.181L58.5,47.653z"/>
<path d="M58.656,39.216c-0.025,0.011-0.056,0.02-0.078,0.033c-0.118,0.074-0.213,0.176-0.269,0.304c0,0-0.012,0.03-0.022,0.055
	c-0.068,0.009-0.135,0.03-0.2,0.065c-0.019,0.006-0.03,0.014-0.034,0.018c-0.014,0.006-0.027,0.018-0.043,0.029
	c-0.111,0-0.22,0.026-0.322,0.092c-0.016,0.01-0.033,0.012-0.051,0.025c-0.23,0.173-0.323,0.475-0.238,0.75
	c-0.01,0.041-0.016,0.08-0.018,0.131c-0.006,0.371,0.289,0.674,0.66,0.68l0.118,0.006c0.058-0.004,0.097-0.004,0.134-0.016
	c0.165,0.038,0.338,0.011,0.486-0.07c0.01-0.002,0.01-0.002,0.021-0.01c0.081-0.056,0.157-0.13,0.207-0.209
	c0.011-0.009,0.021-0.01,0.035-0.02c0.074-0.047,0.143-0.111,0.199-0.188c0.02-0.013,0.047-0.023,0.068-0.035
	c0.064-0.039,0.117-0.088,0.17-0.142c0.006-0.01,0.017-0.038,0.023-0.048c0.012,0.002,0.024,0,0.037,0l0.29-0.229
	c0.026-0.012,0.053-0.016,0.081-0.029c0.008,0,0.018-0.008,0.025-0.014c0.082-0.052,0.145-0.112,0.198-0.186
	c0.12-0.005,0.221-0.039,0.319-0.096c0.01-0.008,0.029-0.018,0.045-0.031c0,0,0.053-0.038,0.082-0.061
	c0.049-0.023,0.101-0.051,0.101-0.051c0.003,0.002,0.017-0.01,0.023-0.015c0.048-0.028,0.09-0.06,0.13-0.101
	c0.041-0.02,0.081-0.037,0.115-0.055c0.094-0.057,0.115-0.225,0.24-0.25c0.41-0.088,0.097-0.62,0.097-0.62
	c-0.183-0.486-0.425-0.478-0.425-0.478c-0.069-0.114-0.579-0.133-0.617,0.023c-0.072,0.013-0.155,0.037-0.219,0.082
	c0,0-0.002-0.006-0.004-0.004c-0.068,0.043-0.121,0.098-0.17,0.16c-0.082-0.008-0.162,0.006-0.238,0.027
	c-0.042,0.016-0.08,0.041-0.123,0.064c-0.021,0.016-0.039,0.027-0.062,0.045c-0.068,0.014-0.144,0.035-0.211,0.078
	c-0.005,0.004-0.02,0.014-0.024,0.019c-0.077,0.006-0.153,0.034-0.227,0.076L58.656,39.216z"/>
<path d="M52.572,18.681c0.038-0.017,0.075-0.03,0.111-0.057c0.014-0.013,0.031-0.015,0.049-0.029
	c0.221-0.186,0.296-0.492,0.196-0.761c0.009-0.042,0.012-0.081,0.011-0.131c-0.015-0.372-0.326-0.658-0.698-0.643h-0.117
	c-0.057,0.006-0.096,0.009-0.134,0.021c-0.157-0.025-0.318,0.01-0.458,0.089l-0.153,0.166c-0.022,0.012-0.047,0.021-0.07,0.036
	c-0.01,0.007-0.03,0.021-0.044,0.034c0,0-0.049,0.041-0.075,0.064c-0.048,0.026-0.099,0.057-0.099,0.057
	c-0.005,0-0.017,0.011-0.022,0.015c-0.046,0.031-0.087,0.065-0.124,0.109c-0.039,0.021-0.08,0.039-0.113,0.061
	c-0.09,0.062-0.096,0.24-0.22,0.27c-0.412,0.098-0.037,0.664-0.037,0.664c0.238,0.517,0.487,0.506,0.487,0.506
	c0.083,0.12,0.607,0.135,0.631-0.032c0.073-0.015,0.155-0.042,0.216-0.092c0,0,0.003,0.007,0.006,0.006
	c0.066-0.049,0.114-0.104,0.16-0.175c0.083,0.007,0.165-0.006,0.239-0.032c0.023-0.008,0.044-0.022,0.066-0.037L52.572,18.681z"/>
<path d="M56.562,17.452l0.107,0.039l0.052,0.015c0.257,0.026,0.506-0.136,0.625-0.397l0.097-0.084
	c0.246-0.27,0.248-0.688-0.022-0.947l-0.082-0.086l-0.109-0.081c-0.092-0.133-0.233-0.225-0.389-0.271l-0.225,0.005l-0.076-0.027
	l-0.057-0.007l-0.097-0.01c-0.053-0.019-0.112-0.02-0.112-0.021l-0.027-0.002l-0.164,0.011l-0.124-0.021
	c-0.11-0.006-0.227,0.133-0.341,0.079c-0.376-0.173-0.443,0.503-0.443,0.503c-0.14,0.554,0.048,0.695,0.048,0.695
	c-0.012,0.146,0.354,0.474,0.472,0.355l0.207,0.058l0.001,0.006l0.218-0.041l0.181,0.149l0.066,0.021L56.562,17.452z"/>
<path d="M61.018,18.826l0.092,0.056l0.04,0.028c0.204,0.128,0.48,0.073,0.688-0.118l0.118-0.038c0.325-0.147,0.502-0.528,0.35-0.893
	l-0.043-0.114l-0.072-0.126c-0.041-0.159-0.13-0.334-0.28-0.398l-0.233-0.046l-0.068-0.04l-0.055-0.021c0,0-0.063-0.02-0.098-0.03
	c-0.05-0.025-0.104-0.055-0.105-0.053l-0.025-0.013l-0.162-0.049l-0.115-0.064c-0.105-0.046-0.261,0.045-0.355-0.045
	c-0.318-0.302-0.576,0.327-0.575,0.326c-0.288,0.486-0.155,0.686-0.156,0.685c-0.052,0.14,0.178,0.572,0.32,0.498l0.169,0.122
	l-0.002,0.005l0.213,0.032l0.128,0.173l0.057,0.031L61.018,18.826z"/>
<path d="M63.969,21.991l0.018,0.105L64,22.145c0.102,0.213,0.367,0.33,0.654,0.307l0.123,0.041c0.361,0.08,0.73-0.107,0.809-0.482
	l0.031-0.117l0.008-0.141c0.064-0.152,0.066-0.332,0.021-0.501l-0.129-0.2l-0.02-0.085l-0.021-0.053l-0.047-0.095
	c-0.014-0.057-0.035-0.117-0.041-0.114l-0.018-0.025l-0.119-0.133l-0.064-0.118c-0.07-0.099-0.26-0.111-0.295-0.239
	c-0.125-0.432-0.682-0.039-0.68-0.038c-0.506,0.259-0.496,0.492-0.498,0.491c-0.115,0.09-0.156,0.551,0.006,0.56l0.078,0.181
	l-0.006,0.004l0.156,0.134l-0.037,0.225l0.014,0.064L63.969,21.991z"/>
<path d="M64.428,26.406l-0.029,0.105l-0.012,0.052c-0.006,0.253,0.172,0.5,0.438,0.618l0.09,0.097
	c0.283,0.247,0.697,0.249,0.936-0.029l0.08-0.085l0.072-0.112c0.125-0.099,0.209-0.245,0.244-0.405l-0.02-0.23l0.021-0.078
	l0.004-0.058l0.004-0.101c0.012-0.056,0.021-0.116,0.021-0.116l0.006-0.027l0.002-0.168l0.031-0.126
	c0.016-0.113-0.115-0.225-0.051-0.346c0.152-0.406-0.551-0.419-0.543-0.417c-0.568-0.091-0.684,0.104-0.684,0.103
	c-0.127,0.002-0.443,0.367-0.355,0.476l-0.074,0.199l-0.006,0.002l0.021,0.208l-0.135,0.182l-0.018,0.066L64.428,26.406z"/>
<path d="M64.09,31.67l-0.004,0.136l0.004,0.063c0.129,0.31,0.439,0.497,0.725,0.466l0.127,0.045
	c0.369,0.073,0.703-0.198,0.795-0.494l0.033-0.092l0.018-0.107c0.066-0.11,0.08-0.23,0.102-0.373l-0.061-0.174l0.006-0.067
	l-0.008-0.046l-0.016-0.079l0.002-0.097l-0.002-0.022l-0.031-0.133l0.008-0.108c-0.01-0.09-0.16-0.171-0.123-0.275
	c0.123-0.327-0.559-0.359-0.559-0.36c-0.562-0.117-0.686,0.086-0.682,0.089c-0.148-0.01-0.422,0.447-0.289,0.567l-0.025,0.248
	l-0.008,0.003l0.072,0.24l-0.088,0.248v0.082L64.09,31.67z"/>
<path d="M68.076,35.682l0.125,0.048l0.061,0.018c0.312,0.045,0.594-0.086,0.697-0.371l0.098-0.096
	c0.236-0.303,0.178-0.704-0.066-0.936l-0.07-0.088l-0.09-0.083c-0.076-0.134-0.184-0.226-0.307-0.271l-0.191,0.006l-0.061-0.024
	l-0.045-0.009l-0.082-0.008c-0.045-0.016-0.09-0.031-0.09-0.031l-0.023-0.005l-0.139-0.013l-0.082-0.062
	c-0.072-0.042-0.203,0.049-0.268-0.04c-0.191-0.28-0.551,0.3-0.553,0.299c-0.375,0.432-0.256,0.648-0.254,0.649
	c-0.08,0.123,0.203,0.627,0.371,0.575c0.059,0.058,0.131,0.136,0.213,0.156v0.005l0.256,0.013l0.193,0.163l0.076,0.026
	L68.076,35.682z"/>
<path d="M73.412,35.682l0.123-0.002l0.059-0.005c0.281-0.066,0.469-0.32,0.48-0.613l0.059-0.116c0.125-0.35-0.051-0.731-0.377-0.861
	l-0.102-0.047l-0.123-0.039c-0.125-0.094-0.273-0.133-0.422-0.125l-0.189,0.081l-0.074-0.001l-0.051,0.011l-0.086,0.024
	l-0.105,0.009L72.578,34l-0.146,0.041l-0.117,0.003c-0.1,0.017-0.178,0.175-0.293,0.146c-0.371-0.132-0.324,0.547-0.324,0.547
	c-0.045,0.562,0.17,0.68,0.172,0.681c0.01,0.151,0.471,0.425,0.566,0.275l0.23,0.012l0.004,0.006l0.217-0.086l0.23,0.077
	l0.076-0.006L73.412,35.682z"/>
<path d="M78.395,34.405l0.121-0.021l0.055-0.014c0.258-0.115,0.404-0.394,0.375-0.679l0.041-0.123
	c0.076-0.36-0.15-0.717-0.496-0.805l-0.107-0.033l-0.129-0.013c-0.137-0.067-0.293-0.083-0.439-0.051l-0.182,0.111l-0.074,0.012
	l-0.047,0.019l-0.086,0.038l-0.104,0.025l-0.025,0.006l-0.141,0.066l-0.115,0.022c-0.1,0.031-0.15,0.201-0.273,0.189
	c-0.398-0.044-0.219,0.608-0.219,0.61c0.066,0.562,0.301,0.635,0.301,0.635c0.039,0.143,0.529,0.321,0.598,0.166l0.227-0.023
	l0.004,0.004l0.197-0.117l0.236,0.04l0.072-0.017L78.395,34.405z"/>
<path d="M83.557,25.844v-0.019l-0.01-0.076l0.008-0.068l0.002-0.036l-0.076-0.216l0.039-0.179l-0.002-0.021l-0.045-0.155
	c0.111-0.094,0.148-0.219,0.131-0.349l-0.01-0.019c-0.023-0.155-0.15-0.271-0.301-0.319l-0.004-0.063l0.08-0.2l-0.004-0.127
	l-0.061-0.115l-0.002-0.008c0.029-0.082,0.039-0.173,0.01-0.258l-0.004-0.025l-0.08-0.118l-0.004-0.238l-0.043-0.072
	c-0.051-0.072-0.127-0.125-0.211-0.156l-0.041-0.183l-0.018-0.028l-0.035-0.066l-0.025-0.065l-0.012-0.017l-0.029-0.038
	l-0.008-0.103l-0.07-0.153l-0.029-0.035l-0.064-0.08l-0.186-0.12l-0.07-0.16l-0.127-0.105h-0.008l-0.092-0.123l-0.002-0.003
	l-0.164-0.1l-0.012-0.016l-0.064-0.072c-0.031-0.08-0.074-0.172-0.156-0.217l-0.023-0.014c-0.117-0.062-0.25-0.07-0.365-0.043
	c-0.045-0.092-0.104-0.172-0.189-0.231l-0.109-0.059l-0.082-0.026l-0.1-0.011l-0.148-0.053l-0.025-0.002
	c-0.123-0.021-0.25,0.003-0.338,0.056l-0.057,0.016l-0.195-0.001l-0.09,0.028l-0.072,0.025c-0.1-0.043-0.225-0.056-0.348-0.021
	c-0.115,0.03-0.225,0.1-0.287,0.185l-0.135,0.085l-0.252,0.025c-0.053,0.01-0.068,0.043-0.092,0.074
	c-0.053,0.081-0.084,0.179-0.096,0.275l-0.033,0.023l-0.016,0.014l-0.033,0.016l-0.09,0.043l-0.113,0.084
	c-0.072,0.066-0.109,0.155-0.127,0.253h-0.016c-0.17-0.045-0.348,0.023-0.465,0.137l-0.061,0.079l-0.033,0.136l-0.1,0.117
	l-0.002,0.005c-0.055,0.115-0.057,0.246-0.004,0.372l0.021,0.2c-0.084,0.038-0.154,0.106-0.191,0.179l-0.021,0.044
	c-0.135,0.035-0.246,0.122-0.299,0.241l-0.004,0.021c-0.045,0.104-0.043,0.211,0.012,0.308c-0.072,0.052-0.121,0.124-0.143,0.216
	v0.006l-0.004,0.016l-0.068,0.137l-0.002,0.028c-0.016,0.088,0.002,0.181,0.045,0.266L77,24.59l-0.031,0.095l0.021,0.194
	l-0.016,0.055c-0.066,0.057-0.105,0.13-0.113,0.218l-0.006,0.026l0.029,0.188c-0.066,0.061-0.113,0.135-0.139,0.217l-0.006,0.035
	c-0.018,0.107,0.045,0.223,0.135,0.298l0.01,0.007l-0.039,0.174l-0.004,0.006c0.012,0.102,0.051,0.189,0.117,0.254L76.9,26.57
	l0.012,0.056l0.105,0.174c-0.041,0.075-0.064,0.162-0.051,0.248l0.016,0.052l0.043,0.091l-0.004,0.074l0.004,0.069l0.027,0.085
	c-0.066,0.086-0.074,0.188-0.055,0.288l0.02,0.104l0.008,0.024c0.037,0.117,0.125,0.217,0.244,0.261l0.008,0.03
	c-0.033,0.088-0.043,0.182,0.006,0.259l0.004,0.011l0.02,0.042l0.008,0.179l0.031,0.07l0.086,0.114l0.016,0.086l0.033,0.086
	l0.012,0.037c0.053,0.11,0.178,0.173,0.303,0.193l0.027,0.077l0.051,0.085l0.021,0.039l0.189,0.141l0.008,0.024l0.064,0.095
	l0.041,0.034l0.088,0.106l0.07,0.062l0.088,0.063l0.123,0.232l0.027,0.022l0.047,0.021l0.125,0.101l0.199,0.064
	c0,0,0.066,0.006,0.086,0.008c0.061,0.107,0.141,0.218,0.275,0.235l0.07,0.015l0.17-0.016l0.207,0.084
	c0.113,0.014,0.225,0.011,0.303-0.079l0.119-0.015l0.094-0.029c0.102,0.043,0.219,0.057,0.342,0.026l0.055-0.021
	c0.129-0.045,0.238-0.146,0.287-0.26l0.033-0.019l0.215,0.021l0.109-0.029c0.115-0.019,0.137-0.135,0.172-0.232l0.07-0.118
	l0.014-0.041c0.08-0.01,0.162-0.049,0.221-0.107l0.023-0.025l0.055-0.073l0.016-0.008c0.133,0.014,0.268-0.04,0.365-0.138
	l0.039-0.047l0.055-0.081l0.08-0.199l0.025-0.019c0.082-0.023,0.15-0.082,0.203-0.165l0.041-0.074l0.012-0.025l0.041-0.242
	l0.049-0.036l0.049-0.08l0.035-0.209l0.109-0.126l0.006-0.009l0.025-0.242l0.066-0.078l0.016-0.042l0.031-0.164l0.062-0.086
	l0.096-0.099l0.053-0.128c0.018-0.077-0.002-0.17-0.033-0.245l0.047-0.091l0.014-0.051c0.057-0.064,0.1-0.136,0.109-0.213
	l0.004-0.017c0.014-0.104-0.02-0.209-0.084-0.292l0.027-0.027l0.049-0.144l0.006-0.05l0.07-0.177l0.006-0.026l0.062-0.142
	l-1.426-0.05l0.02,0.04l-0.008,0.028l-0.004,0.021l0.021,0.116l-0.031,0.021c-0.076,0.057-0.117,0.125-0.133,0.199l0.004,0.084
	l-0.037,0.094l-0.004,0.039l0.027,0.123l-0.035,0.035l-0.053,0.115l0.043,0.18l-0.041,0.062l-0.018,0.003l-0.09,0.157l0.006,0.117
	l0.002,0.058l0.004,0.044l-0.049,0.051l-0.018,0.035c-0.047,0.088-0.023,0.195,0.045,0.304l-0.008,0.022l-0.027,0.084
	c-0.137,0.014-0.244,0.063-0.287,0.157v0.004l-0.014,0.074c-0.078,0.014-0.141,0.052-0.172,0.114l-0.004,0.011l-0.021,0.189
	L81.246,28.5l-0.045,0.057c-0.023,0.051-0.02,0.122-0.002,0.202c-0.068,0-0.125,0.013-0.164,0.055l-0.117,0.004l-0.064,0.015
	l-0.078,0.05l-0.002,0.004l-0.039,0.049l-0.062,0.16l-0.08-0.004l-0.01,0.001l-0.102-0.025l-0.035,0.024l-0.047,0.048l-0.041,0.003
	l-0.057,0.04l-0.131-0.034l-0.004,0.001l-0.053,0.053l-0.027-0.003c-0.053,0.048-0.1,0.042-0.154,0.115l-0.039-0.017l-0.01,0.002
	l-0.047-0.006l-0.047,0.002l-0.006-0.022l-0.029-0.063c-0.025-0.043-0.049-0.112-0.09-0.126l-0.023-0.015l-0.049-0.007
	c-0.066-0.02-0.156,0.019-0.262,0.086l-0.01-0.042l-0.025-0.062l-0.047-0.076c-0.037-0.036-0.098-0.052-0.166-0.048
	c0.02-0.091-0.002-0.146-0.029-0.216l-0.027-0.054l-0.014-0.019l-0.027-0.026l0.008-0.034l-0.037-0.12l-0.061-0.048l-0.037-0.103
	l-0.01-0.007c-0.029-0.066-0.092-0.103-0.176-0.124l-0.004-0.195l-0.029-0.065l-0.092-0.097l-0.002-0.009l-0.004-0.012l-0.07-0.102
	l0.027-0.207l-0.008-0.021l-0.127-0.128l-0.008-0.047l-0.102-0.142l0.031-0.109v-0.077v-0.053l-0.07-0.136l0.006-0.023
	c0.059-0.073,0.092-0.151,0.074-0.226l-0.006-0.034l-0.078-0.146c0.049-0.065,0.082-0.129,0.082-0.199l-0.002-0.044l-0.045-0.1
	l0.002-0.012c-0.006-0.117-0.105-0.227-0.238-0.308c0.18-0.05,0.303-0.164,0.324-0.288l0.004-0.012
	c0.014-0.101-0.041-0.201-0.145-0.289l-0.025-0.053l-0.041-0.176l0.092-0.111c0.072-0.045,0.123-0.109,0.131-0.19l0.031-0.024
	l0.053-0.117v-0.049l0.094-0.103l0.023-0.031c0.027-0.068,0.031-0.143-0.006-0.224l0.111-0.112l0.014-0.018l0.002-0.164l0.016-0.04
	l0.01-0.015l0.004-0.004c0.074-0.026,0.125-0.067,0.158-0.13l0.012-0.028l-0.021-0.22c0.092-0.008,0.131-0.078,0.195-0.111
	l0.031-0.045l0.018-0.106c0.078,0.001,0.129-0.021,0.172-0.059l0.037-0.058l0.025-0.058l0.016-0.198l0.031-0.024l0.014-0.014h0.006
	l0.037-0.014l0.051-0.001l0.131-0.053l0.076-0.074l0.014-0.035l0.012,0.004l0.023-0.006l0.092-0.061l0.072-0.002l0.016-0.005
	l0.018-0.008l0.045,0.02l0.104,0.011l0.076-0.062l0.084-0.005l0.086-0.04l0.062-0.03l0.049-0.034l0.004,0.003l0.102-0.035
	l0.068,0.13l0.066,0.052c0.033,0.029,0.08,0.027,0.133,0.013l0.158-0.001c-0.012,0.106-0.012,0.218,0.035,0.289l0.023,0.027
	l0.154,0.048l0.051,0.104l0.047,0.036c0.059,0.05,0.16,0.062,0.27,0.043l0.01,0.018l0.143,0.097l0.035,0.126l0.002,0.008
	l0.045,0.062c-0.102,0.125-0.145,0.261-0.102,0.365l0.004,0.016l0.08,0.083l0.006,0.031l0.037,0.052
	c0.055,0.081,0.156,0.129,0.289,0.146l0.01,0.027l0.062,0.078l0.004,0.026v0.006l-0.105,0.156l-0.039,0.084l-0.021,0.182
	l0.041,0.108l0.033,0.03l-0.002,0.067c0.018,0.072,0.059,0.141,0.137,0.192l0.043,0.067l-0.008,0.083
	c-0.049,0.065-0.084,0.137-0.078,0.213v0.009l0.049,0.134l-0.002,0.017l0.039,0.121l-0.004,0.042l0.01,0.076l0.084,0.122
	l-0.029,0.113l1.225,0.043L83.557,25.844z"/>
<path d="M84.615,27.358l0.012-0.009l0.055-0.031l0.053-0.013l0.029-0.011l0.129-0.135l0.152-0.018l0.014-0.01l0.104-0.091
	c0.1,0.066,0.213,0.109,0.307,0.078l0.012-0.009c0.115-0.034,0.182-0.165,0.205-0.32l0.053-0.009l0.164,0.068l0.102,0.009
	l0.092-0.039l0.006,0.001c0.064,0.042,0.133,0.069,0.197,0.055l0.02,0.001l0.096-0.058l0.172,0.043l0.059-0.008l0.158-0.122
	l0.133,0.042l0.021-0.003l0.055-0.004l0.051,0.007l0.014-0.006l0.035-0.007l0.062,0.04l0.104,0.053h0.027l0.068,0.006l0.145-0.057
	l0.104,0.057l0.104,0.001l0.006-0.004l0.068,0.061l0.002,0.001l0.117,0.006l0.008,0.008l0.047,0.029l0.1,0.117l0.01,0.008
	c0.049,0.035,0.121,0.021,0.207-0.015c-0.002,0.074,0.004,0.131,0.033,0.168l0.031,0.045l0.014,0.034l0.029,0.028l0.02,0.062
	l0.008,0.006c0.031,0.037,0.1,0.048,0.184,0.048l0.027,0.014l-0.033,0.12l0.01,0.04l0.014,0.031
	c-0.057,0.068-0.094,0.126-0.082,0.177c0.008,0.049,0.053,0.089,0.127,0.127l0.057,0.072l-0.021,0.112l0.002,0.067l0.08,0.167
	l-0.016,0.027l-0.004,0.013l-0.023,0.021l-0.051,0.055l-0.049,0.082c-0.025,0.062-0.008,0.126,0.029,0.201l-0.014,0.003
	c-0.16,0.006-0.264,0.066-0.291,0.156l-0.008,0.062l0.006,0.104l-0.104,0.067l-0.004,0.003c-0.061,0.072-0.066,0.169-0.025,0.277
	l0.002,0.166c-0.084,0.011-0.156,0.046-0.197,0.095l-0.027,0.029c-0.123-0.016-0.227,0.01-0.281,0.087l-0.008,0.018
	c-0.049,0.066-0.059,0.16-0.039,0.271l-0.232,0.037l-0.006,0.003l-0.01,0.008l-0.127,0.035l-0.016,0.014
	c-0.059,0.039-0.094,0.104-0.111,0.187l-0.016,0.003l-0.074,0.036l-0.096,0.131l-0.039,0.021c-0.076-0.015-0.141-0.002-0.195,0.042
	l-0.018,0.014l-0.09,0.138l-0.197,0.02l-0.025,0.012c-0.066,0.053-0.137,0.117-0.15,0.229l-0.002,0.01l-0.15,0.019l-0.006,0.001
	c-0.072,0.038-0.121,0.104-0.152,0.188l-0.184,0.013l-0.041,0.023l-0.121,0.119l-0.217-0.028l-0.039,0.02l-0.07,0.049h-0.061
	l-0.057,0.012l-0.068,0.033c-0.07-0.05-0.152-0.094-0.23-0.089h-0.082l-0.021,0.006c-0.092,0.017-0.172,0.082-0.227,0.195
	l-0.025,0.001c-0.062-0.051-0.129-0.065-0.193-0.064l-0.01-0.001h-0.035l-0.125-0.07l-0.055-0.002l-0.1,0.027l-0.061-0.024
	l-0.064-0.006l-0.027-0.006c-0.09,0.008-0.16,0.029-0.238,0.116l-0.053-0.03l-0.064-0.021l-0.031-0.009l-0.174,0.037l-0.016-0.007
	l-0.066-0.039l-0.033-0.01l-0.076-0.055l-0.057-0.019l-0.068-0.015l-0.1-0.137l-0.016-0.007l-0.023-0.011l-0.049-0.075l-0.105-0.03
	l-0.057,0.001c0.01-0.092-0.029-0.137-0.049-0.188l-0.018-0.025l-0.074-0.025l-0.023-0.1l-0.146-0.072l0.006-0.067l-0.014-0.043
	c0.059-0.073,0.09-0.134,0.086-0.186l-0.01-0.022c-0.018-0.056-0.098-0.104-0.201-0.144l-0.016-0.02l0.059-0.098l-0.006-0.054
	c-0.033-0.05,0-0.113-0.051-0.175l-0.01-0.088l-0.012-0.029c0.064-0.036,0.113-0.086,0.131-0.137l0.004-0.023l0.006-0.061
	l0.008-0.012c0.117-0.026,0.195-0.077,0.221-0.158l0.008-0.038l0.002-0.064l-0.039-0.166l0.014-0.019
	c0.08-0.011,0.16-0.04,0.211-0.089l0.043-0.049l0.014-0.014c0.039-0.047,0.057-0.108,0.053-0.173l0.049-0.015l0.051-0.05
	l0.051-0.155l0.109-0.064l0.006-0.005c0.037-0.047,0.057-0.115,0.051-0.194l0.066-0.038l0.018-0.03l0.053-0.131l0.098-0.015
	l0.135,0.003l0.107-0.04c0.053-0.033,0.086-0.098,0.104-0.164l0.084-0.02l0.037-0.02c0.074,0.001,0.143-0.007,0.189-0.046
	l0.012-0.005c0.066-0.052,0.1-0.136,0.105-0.236l0.033,0.005l0.111-0.048l0.029-0.027l0.141-0.047l0.016-0.012l0.109-0.031
	l-0.666-1.258l-0.027,0.048l-0.031,0.021l-0.02,0.015l-0.092,0.114l-0.039-0.008c-0.096-0.013-0.188,0.014-0.266,0.066l-0.074,0.075
	l-0.111,0.053l-0.039,0.031l-0.092,0.121l-0.059,0.007L82.932,26.8c-0.064,0.044-0.111,0.104-0.129,0.177L82.715,27l-0.018-0.004
	c-0.084,0.006-0.174,0.037-0.227,0.077l-0.098,0.104l-0.029,0.077l-0.018,0.058l-0.068,0.051l-0.035,0.04
	c-0.088,0.104-0.115,0.246-0.088,0.386l-0.018,0.022l-0.061,0.095c-0.145-0.007-0.285,0.049-0.371,0.159l-0.004,0.002l-0.043,0.086
	c-0.096,0.017-0.189,0.068-0.252,0.145l-0.012,0.013c-0.045,0.075-0.088,0.138-0.064,0.239l-0.072,0.125l-0.029,0.117
	c-0.012,0.094,0.01,0.191,0.055,0.283c-0.066,0.049-0.121,0.115-0.148,0.205l-0.125,0.116l-0.064,0.092l-0.07,0.146l-0.002,0.007
	l-0.027,0.103c-0.014,0.086-0.033,0.167,0.021,0.247l0.002,0.156l0.002,0.022l-0.016,0.197l0.029,0.096l0.061,0.137l0.012,0.098
	l0.049,0.141c-0.031,0.103-0.033,0.217-0.012,0.316l0.004,0.013l0.059,0.124l0.004,0.075c0.02,0.13,0.156,0.201,0.268,0.242
	l0.051,0.081l0.016,0.016l0.064,0.079l0.068,0.072l-0.002,0.033l0.025,0.129c0.014,0.118,0.094,0.185,0.172,0.251l0.049,0.036
	l0.102,0.055c0.133,0.08,0.281,0.093,0.4,0.044l0.037,0.046l0.074,0.06l0.125,0.076c0.082,0.034,0.178,0.041,0.264,0.022
	c0.047,0.094,0.135,0.192,0.234,0.212l0.09,0.025l0.035,0.007l0.061,0.003l0.029,0.03l0.178,0.072l0.121-0.001l0.164,0.06
	l0.016-0.001c0.107,0.004,0.199-0.037,0.279-0.104c0.07,0.053,0.152,0.084,0.252,0.079l0.102,0.003l0.178-0.042l0.008,0.001
	l0.02-0.001l0.15-0.062c0.078,0.043,0.172,0.061,0.264,0.049l0.027-0.007c0.078-0.018,0.148-0.06,0.193-0.114l0.064-0.003
	l0.188-0.106l0.133,0.015l0.096-0.017l0.062-0.011l0.166-0.1l0.029,0.003c0.096,0.043,0.203,0.057,0.297,0.024l0.045-0.016
	l0.148-0.146l0.26-0.019l0.047-0.024l0.102-0.089l0.014-0.005c0.133-0.069,0.225-0.191,0.227-0.373
	c0.137,0.109,0.318,0.11,0.451,0.014l0.016-0.006c0.105-0.08,0.164-0.209,0.172-0.355l0.027-0.061l0.121-0.17l0.168-0.032
	c0.098,0.011,0.199-0.014,0.273-0.073l0.053-0.004l0.152-0.066l0.045-0.043c0.068-0.004,0.131-0.018,0.166-0.061l0.039-0.036
	c0.061-0.085,0.104-0.184,0.107-0.296l0.164-0.119l0.02-0.02l0.074-0.203l0.035-0.045l0.018-0.018l0.004-0.004
	c0.092-0.025,0.17-0.074,0.232-0.149l0.025-0.034c0.045-0.078,0.061-0.165,0.055-0.251c0.102-0.029,0.219-0.069,0.26-0.182
	l0.021-0.091l-0.008-0.18c0.074-0.051,0.123-0.127,0.158-0.219l0.021-0.113l0.006-0.098l-0.053-0.249l0.023-0.059l0.01-0.029
	l0.008-0.007l0.033-0.05c0.027-0.028,0.055-0.056,0.055-0.056l0.127-0.208c0.029-0.064-0.01-0.141-0.035-0.207l-0.045-0.062
	l0.006-0.02l-0.01-0.049l-0.076-0.222l-0.006-0.143l-0.006-0.028l-0.012-0.04c0.006-0.04,0.016-0.085,0.016-0.085l-0.004-0.226
	l-0.068-0.17l-0.016-0.189c-0.012-0.068-0.047-0.129-0.104-0.16l-0.111-0.081l-0.09-0.046l-0.006-0.009l-0.148-0.111l-0.039-0.239
	l-0.109-0.123c-0.062-0.057-0.148-0.087-0.229-0.103l-0.24-0.083c-0.012-0.151-0.086-0.268-0.215-0.339l-0.057-0.03l-0.262-0.028
	l-0.166-0.113l-0.094-0.006c-0.121-0.001-0.244,0.056-0.328,0.142l-0.025-0.008l-0.221,0.024l-0.16-0.07l-0.01-0.001l-0.096,0.012
	c-0.066-0.145-0.207-0.24-0.367-0.249l-0.021-0.001l-0.15,0.037l-0.045-0.01l-0.086,0.012c-0.123,0.039-0.217,0.143-0.271,0.273
	l-0.033,0.007l-0.104,0.053l-0.031,0.002l-0.006-0.001l-0.174-0.125l-0.1-0.046l-0.229-0.017l-0.133,0.065l-0.037,0.038
	l-0.082,0.013c-0.09,0.031-0.17,0.088-0.221,0.176l-0.074,0.055l-0.102,0.008c-0.09-0.043-0.18-0.038-0.262,0.005l-0.012,0.005
	l-0.133,0.108l-0.021,0.007l-0.119,0.093l-0.047,0.016l-0.078,0.044l-0.098,0.132l-0.133,0.024l0.57,1.083L84.615,27.358z"/>
</svg>
