<?xml version="1.0" encoding="utf-8"?>
<!-- Generator: Adobe Illustrator 13.0.0, SVG Export Plug-In  -->
<!DOCTYPE svg PUBLIC "-//W3C//DTD SVG 1.1//EN" "http://www.w3.org/Graphics/SVG/1.1/DTD/svg11.dtd" [
	<!ENTITY ns_flows "http://ns.adobe.com/Flows/1.0/">
]>
<svg version="1.1"
	 xmlns="http://www.w3.org/2000/svg" xmlns:xlink="http://www.w3.org/1999/xlink" xmlns:a="http://ns.adobe.com/AdobeSVGViewerExtensions/3.0/"
	 x="0px" y="0px" width="100px" height="100px" viewBox="0 0 100 100" enable-background="new 0 0 100 100" xml:space="preserve">
<defs>
</defs>
<circle fill="#CCCCCC" cx="50" cy="50" r="50"/>
<path d="M72.924,35.605l-0.101-0.045l-0.121-0.035c-0.126-0.091-0.273-0.129-0.418-0.119l-0.189,0.081l-0.071,0.002L71.973,35.5
	l-0.086,0.024l-0.103,0.01l-0.025,0.003l-0.144,0.044l-0.114,0.004c-0.1,0.016-0.176,0.173-0.289,0.146
	c-0.368-0.125-0.313,0.544-0.313,0.544c-0.04,0.558,0.174,0.671,0.176,0.672c0.013,0.148,0.47,0.414,0.563,0.265l0.228,0.01
	l0.003,0.005l0.215-0.087l0.227,0.073l0.074-0.007l0.219-0.016l0.121-0.004l0.059-0.007c0.275-0.067,0.458-0.32,0.466-0.608
	l0.056-0.117C73.425,36.106,73.246,35.73,72.924,35.605z M65.426,27.112c0.146-0.403-0.547-0.408-0.54-0.406
	c-0.561-0.083-0.673,0.111-0.673,0.109c-0.125,0.003-0.434,0.367-0.345,0.473l-0.073,0.199H63.79l0.025,0.206l-0.134,0.181
	l-0.015,0.064l-0.042,0.191l-0.029,0.105l-0.01,0.05c-0.004,0.251,0.176,0.493,0.439,0.606l0.089,0.094
	c0.284,0.241,0.691,0.24,0.925-0.04l0.076-0.084l0.07-0.113c0.124-0.096,0.203-0.242,0.238-0.401L65.4,28.118l0.021-0.077
	l0.003-0.057l0.002-0.1c0.012-0.055,0.022-0.114,0.022-0.114l0.005-0.027l-0.001-0.165l0.03-0.127
	C65.496,27.341,65.365,27.23,65.426,27.112z M65.065,32.723l-0.007-0.046l-0.018-0.079l-0.001-0.094l-0.001-0.023l-0.031-0.132
	l0.006-0.104c-0.009-0.09-0.159-0.169-0.124-0.272c0.117-0.323-0.556-0.349-0.555-0.351c-0.557-0.109-0.677,0.094-0.673,0.097
	c-0.146-0.009-0.413,0.446-0.279,0.563l-0.024,0.246l-0.005,0.002l0.073,0.236l-0.084,0.246l0.002,0.08l0.006,0.239l-0.002,0.134
	l0.004,0.063c0.13,0.305,0.44,0.487,0.72,0.451l0.128,0.043c0.364,0.068,0.692-0.203,0.78-0.496l0.031-0.093l0.014-0.105
	c0.063-0.109,0.078-0.229,0.098-0.37l-0.063-0.171L65.065,32.723z M54.607,37.107c0.162-0.113,0.295-0.281,0.356-0.48
	c0,0,0-0.015,0.005-0.023c0.006-0.01,0.011-0.022,0.011-0.022c0.008-0.018,0.021-0.037,0.03-0.062h0.002l0.094-0.1
	c0.139-0.146,0.219-0.325,0.242-0.524c0,0,0.002-0.018,0.002-0.026l0.005-0.023c0.008-0.019,0.015-0.045,0.026-0.051
	c0.078-0.139,0.123-0.273,0.145-0.422v-0.04c0.009-0.034,0.037-0.108,0.037-0.108c0.011-0.033,0.025-0.062,0.027-0.097l0.037-0.136
	c0.014-0.039,0.021-0.096,0.024-0.146c0-0.008,0.003-0.024,0.003-0.032l0.012-0.146c0.004-0.1-0.012-0.205-0.037-0.301
	c0,0-0.008-0.02-0.008-0.022c0.015-0.061,0.027-0.129,0.033-0.193c0.012-0.06,0-0.129-0.006-0.19
	c0.006-0.033,0.018-0.053,0.018-0.076c0.008-0.111,0-0.226-0.03-0.329c0-0.16-0.031-0.317-0.102-0.448
	c0-0.064-0.001-0.126-0.017-0.18l-0.023-0.131c-0.027-0.118-0.072-0.21-0.132-0.308c0.011-0.241-0.07-0.474-0.229-0.651
	c-0.016-0.03-0.027-0.069-0.027-0.069c-0.004-0.024-0.018-0.044-0.025-0.071c-0.014-0.107-0.053-0.231-0.105-0.324
	c-0.035-0.193-0.131-0.354-0.261-0.49v-0.016l-0.075-0.123c-0.031-0.063-0.065-0.108-0.111-0.155c0,0-0.008-0.021-0.02-0.036
	c-0.005-0.013-0.008-0.047-0.021-0.062l-0.048-0.136c-0.045-0.13-0.117-0.243-0.213-0.342c-0.031-0.064-0.075-0.136-0.125-0.189
	l-0.01-0.002l-0.002-0.019c-0.031-0.07-0.074-0.128-0.117-0.191c-0.018-0.035-0.025-0.066-0.049-0.099l-0.069-0.128
	c-0.044-0.091-0.102-0.161-0.172-0.233l-0.103-0.094c-0.068-0.126-0.166-0.221-0.284-0.3c-0.009-0.013-0.082-0.104-0.082-0.113
	c-0.048-0.146-0.136-0.272-0.249-0.383h-0.002c-0.033-0.082-0.076-0.155-0.133-0.221l-0.085-0.11
	c-0.077-0.103-0.177-0.187-0.29-0.244l-0.004-0.005c-0.014-0.002-0.018-0.014-0.019-0.018c-0.031-0.099-0.075-0.176-0.138-0.25
	l-0.074-0.107c-0.01-0.013-0.016-0.022-0.016-0.022l-0.1-0.112c-0.052-0.064-0.118-0.133-0.188-0.178c0,0-0.03-0.019-0.062-0.037
	c-0.018-0.024-0.035-0.039-0.035-0.039c-0.082-0.117-0.182-0.194-0.301-0.26c-0.18-0.191-0.434-0.297-0.703-0.293
	c-0.363,0.009-0.682,0.234-0.82,0.567l-0.047,0.106c-0.033,0.088-0.061,0.18-0.063,0.268c-0.009,0.086,0,0.165,0.011,0.239v0.011
	c-0.01,0.07-0.008,0.145,0.006,0.212c-0.017,0.054-0.026,0.11-0.031,0.177c-0.003,0.014-0.003,0.039-0.003,0.057
	c-0.009,0.012-0.009,0.023-0.016,0.047l-0.039,0.123c-0.008,0.061-0.015,0.102-0.017,0.159c-0.014,0.091-0.011,0.179,0.009,0.27
	c-0.003,0.034-0.007,0.066-0.021,0.097l-0.014,0.14c-0.003,0.009-0.003,0.024-0.003,0.033c-0.005,0.05,0,0.1,0.003,0.153
	c-0.036,0.08-0.055,0.169-0.061,0.249c-0.003,0.032,0,0.073,0,0.108c-0.018,0.055-0.031,0.107-0.036,0.164
	c-0.003,0.07-0.003,0.145,0.007,0.219c-0.002,0.018-0.007,0.033-0.007,0.054c-0.003,0.04-0.003,0.084-0.003,0.131
	c0,0,0,0.019,0.003,0.022c-0.031,0.076-0.052,0.156-0.065,0.247c-0.007,0.087-0.003,0.177,0.02,0.272c0,0,0,0.016,0.005,0.035
	c-0.009,0.027-0.022,0.063-0.022,0.103c-0.006,0.072,0,0.151,0.013,0.229c-0.046,0.094-0.077,0.198-0.094,0.305
	c-0.005,0.068-0.005,0.131,0.009,0.2v0.047c0,0.015,0,0.019-0.005,0.034c-0.009,0.09-0.004,0.187,0.025,0.281v0.043
	c-0.064,0.101-0.102,0.227-0.109,0.336c-0.016,0.125,0,0.24,0.035,0.367v0.055c0,0,0.004,0.053,0.008,0.099
	c0,0-0.004,0.005-0.008,0.007c0,0-0.003,0.03-0.016,0.059c-0.017,0.035-0.035,0.074-0.035,0.074
	c-0.043,0.096-0.07,0.192-0.078,0.303c-0.008,0.072-0.008,0.133,0.005,0.206c-0.005,0.024-0.013,0.046-0.013,0.065
	c-0.003,0.058,0,0.112,0.005,0.168c-0.031,0.078-0.05,0.164-0.055,0.245c-0.007,0.034-0.007,0.063-0.007,0.098
	c-0.157,0.112-0.259,0.289-0.274,0.477c-0.011,0.042-0.011,0.071,0,0.115c0,0.019,0.001,0.041,0.009,0.069v0.009
	c-0.008,0.022-0.009,0.05-0.008,0.073c0.008,0.096,0.022,0.188,0.062,0.267c0,0.043,0.012,0.095,0.018,0.134
	c-0.006,0.033-0.02,0.075-0.02,0.075c-0.005,0.026-0.012,0.073-0.017,0.1c-0.002,0.036,0,0.073,0,0.107
	c-0.018,0.04-0.026,0.078-0.034,0.124c-0.001,0.011-0.001,0.019-0.001,0.029c-0.009,0.102,0.006,0.198,0.044,0.296
	c-0.004,0-0.004,0.008-0.004,0.008l-0.007,0.154c-0.004,0.062,0,0.132,0.011,0.192c-0.009,0.042-0.016,0.082-0.027,0.127v0.106
	c-0.038,0.073-0.073,0.171-0.08,0.265c-0.006,0.022-0.006,0.051-0.006,0.075l0.008,0.138c0,0.073,0.008,0.146,0.036,0.205
	c-0.017,0.055-0.031,0.113-0.036,0.16v0.035c-0.17,0-0.331,0.062-0.453,0.185c0,0-0.02,0.022-0.039,0.034
	c-0.146-0.088-0.326-0.124-0.501-0.082c-0.004,0-0.012,0-0.014,0.009c-0.082-0.057-0.173-0.09-0.271-0.108
	c-0.097-0.072-0.213-0.109-0.334-0.119H47.34c-0.009-0.012-0.028-0.012-0.028-0.012c-0.177-0.095-0.374-0.095-0.547-0.013
	c-0.069-0.011-0.128-0.011-0.194-0.011c-0.087-0.038-0.183-0.059-0.286-0.055c-0.086,0.012-0.166,0.033-0.25,0.078
	c-0.087-0.082-0.195-0.124-0.315-0.152c-0.112-0.005-0.229,0-0.33,0.051c-0.014,0-0.035-0.017-0.049-0.017
	c-0.1-0.017-0.211-0.017-0.305,0.017c-0.09-0.033-0.174-0.056-0.268-0.051c-0.092-0.074-0.212-0.117-0.339-0.129
	c-0.101-0.015-0.203,0.012-0.291,0.047c-0.162-0.098-0.364-0.114-0.537-0.047c-0.074-0.015-0.149-0.015-0.224,0.012
	c-0.084-0.071-0.188-0.114-0.31-0.137c-0.223-0.035-0.448,0.058-0.598,0.233c-0.04-0.02-0.078-0.032-0.116-0.037
	c-0.112-0.086-0.249-0.131-0.392-0.122c-0.03,0-0.056,0.006-0.094,0.017c-0.095-0.091-0.226-0.153-0.366-0.168
	c-0.104-0.009-0.207,0.004-0.301,0.039c-0.085-0.053-0.187-0.088-0.29-0.088c-0.123-0.011-0.237,0.018-0.34,0.075
	c-0.022-0.009-0.052-0.012-0.052-0.012c-0.111-0.015-0.227,0-0.327,0.04c-0.036-0.013-0.072-0.016-0.104-0.016
	c-0.028-0.024-0.112-0.088-0.112-0.088c-0.136-0.104-0.305-0.144-0.472-0.134c-0.022,0-0.053-0.01-0.086-0.023
	c-0.188-0.031-0.378,0.023-0.525,0.146c-0.104-0.087-0.232-0.146-0.372-0.146c-0.158-0.005-0.305,0.035-0.42,0.113
	c-0.022,0-0.038,0-0.061-0.014c-0.103-0.131-0.242-0.219-0.419-0.25c-0.054-0.02-0.118-0.02-0.181-0.02
	c-0.075-0.017-0.156-0.031-0.241-0.031c-0.18,0-0.339,0.09-0.465,0.215c-0.094-0.133-0.237-0.23-0.401-0.262
	c-0.153-0.034-0.305-0.008-0.439,0.062c-0.111-0.08-0.247-0.137-0.391-0.137c-0.059,0-0.12,0.011-0.178,0.023
	c-0.126-0.089-0.286-0.126-0.453-0.103c-0.011,0-0.034,0.013-0.048,0.013c-0.067-0.027-0.131-0.049-0.208-0.059
	c-0.185-0.012-0.367,0.059-0.497,0.165c-0.102-0.067-0.225-0.106-0.357-0.119c-0.082-0.046-0.171-0.069-0.259-0.072l-0.141-0.009
	c-0.018,0-0.033-0.006-0.048,0h-0.144c-0.049,0-0.105,0.009-0.152,0.023c-0.1-0.078-0.215-0.12-0.345-0.135
	c-0.18-0.012-0.356,0.057-0.482,0.169h-0.054c-0.129-0.154-0.323-0.25-0.531-0.244c-0.081,0.007-0.169,0.033-0.244,0.063
	c-0.036-0.009-0.07-0.037-0.114-0.047c-0.092-0.03-0.195-0.03-0.289-0.019c-0.055-0.034-0.109-0.059-0.17-0.071
	c-0.164-0.041-0.337-0.022-0.482,0.067c-0.046-0.008-0.09-0.022-0.137-0.022c-0.089,0-0.177,0.028-0.26,0.062
	c-0.034-0.018-0.075-0.036-0.117-0.048c-0.073-0.067-0.17-0.123-0.273-0.136c-0.188-0.059-0.389-0.007-0.54,0.105h-0.017
	l-0.122-0.067c-0.007,0-0.007-0.003-0.021-0.003l-0.123-0.056c-0.155-0.057-0.323-0.057-0.473,0
	c-0.118-0.015-0.238,0.014-0.348,0.066c-0.103,0.005-0.202,0.03-0.289,0.09c-0.073-0.085-0.167-0.136-0.269-0.176
	c-0.107-0.097-0.242-0.16-0.4-0.175c-0.122-0.019-0.238,0.015-0.345,0.07c-0.091-0.07-0.201-0.11-0.315-0.125
	c-0.133-0.012-0.252,0.015-0.358,0.069c-0.133-0.023-0.271,0-0.387,0.04c-0.094-0.075-0.224-0.125-0.352-0.129
	c-0.091-0.059-0.195-0.091-0.306-0.095h-0.052c-0.086-0.053-0.17-0.09-0.274-0.1c-0.096-0.015-0.201-0.011-0.293,0.023
	c-0.026-0.014-0.056-0.014-0.086-0.014c-0.062,0-0.117,0.014-0.171,0.026c-0.083-0.051-0.176-0.089-0.269-0.11
	c-0.225-0.028-0.44,0.056-0.589,0.21c-0.035-0.012-0.064-0.016-0.064-0.016c-0.051-0.017-0.102-0.021-0.148-0.021h-0.028
	c-0.008-0.005-0.023-0.012-0.023-0.012c-0.122-0.051-0.251-0.051-0.376-0.028c-0.044-0.012-0.077-0.022-0.077-0.022
	c-0.084-0.026-0.156-0.036-0.234-0.036c0,0-0.011-0.011-0.017-0.011l-0.131-0.092c-0.164-0.108-0.364-0.144-0.55-0.086
	c-0.047,0.014-0.098,0.037-0.144,0.055c-0.064-0.018-0.125-0.03-0.198-0.03c-0.052,0-0.115,0.013-0.164,0.015
	c-0.083-0.039-0.178-0.074-0.283-0.078c-0.048-0.003-0.104,0-0.155,0.004c-0.123-0.078-0.262-0.118-0.409-0.105
	c-0.116,0.004-0.225,0.038-0.319,0.105c-0.053,0.002-0.1,0.021-0.142,0.039c-0.026-0.004-0.04-0.009-0.065-0.019
	c-0.138-0.179-0.355-0.271-0.58-0.255c-0.128,0.018-0.246,0.067-0.349,0.137c-0.026,0-0.056,0.003-0.078,0.003
	c-0.103-0.099-0.231-0.171-0.374-0.191c-0.134-0.02-0.261,0-0.386,0.052c-0.092-0.052-0.208-0.078-0.322-0.078
	c-0.172,0-0.328,0.057-0.452,0.166c-0.091-0.076-0.197-0.14-0.317-0.159l-0.131-0.021c-0.02,0-0.033,0-0.058-0.014
	c-0.011,0-0.036-0.008-0.06-0.022c0.013-0.029,0.016-0.064,0.021-0.099c0.009-0.107,0-0.208-0.025-0.315
	c0.004-0.026,0.017-0.067,0.02-0.103v-0.104c0.044-0.087,0.075-0.201,0.084-0.302c0.005-0.065,0-0.13-0.002-0.201
	c0-0.021,0.007-0.042,0.014-0.067l0.009-0.146c0.009-0.065,0.009-0.142-0.003-0.211l-0.02-0.135v-0.053
	c0.04-0.095,0.068-0.185,0.078-0.276c0.011-0.074,0.003-0.156-0.009-0.234c0-0.011,0.009-0.033,0.009-0.045v-0.004
	c0.031-0.09,0.056-0.173,0.065-0.266c0.008-0.076,0-0.165-0.012-0.249c0-0.013,0.002-0.018,0.002-0.032
	c0.009-0.042,0.005-0.088,0-0.137c0.039-0.086,0.06-0.169,0.069-0.271c0.004-0.073,0.001-0.141-0.009-0.226
	c0.006-0.006,0.009-0.02,0.011-0.041c0.009-0.082-0.001-0.17-0.021-0.249c0.016-0.017,0.021-0.041,0.021-0.041
	c0.034-0.086,0.047-0.17,0.054-0.262c0.014-0.058,0.009-0.117,0-0.166c0.014-0.033,0.017-0.068,0.023-0.104
	c0.004-0.079,0-0.17-0.023-0.25c0.014-0.02,0.023-0.038,0.023-0.038c0.03-0.092,0.047-0.169,0.061-0.264v-0.282
	c0,0-0.005-0.028-0.005-0.062c0.047-0.101,0.081-0.211,0.092-0.328c0.004-0.069,0-0.133-0.009-0.2
	c0.009-0.025,0.014-0.045,0.014-0.075c0.006-0.045,0.006-0.082,0.006-0.133c0.003-0.03,0.013-0.068,0.013-0.105l0.023-0.127
	c0.001-0.007,0.001-0.021,0.001-0.034c0-0.031,0.006-0.068,0.006-0.104v-0.021l0.004-0.021c0.008-0.039,0.016-0.086,0.018-0.125
	c0.013-0.098,0-0.176-0.014-0.258c0.039-0.092,0.063-0.19,0.074-0.284c0.016-0.128,0-0.251-0.041-0.364
	c0.03-0.068,0.056-0.132,0.069-0.206l0.034-0.136c0.006-0.033,0.009-0.069,0.014-0.107c0.012-0.105,0-0.199-0.02-0.297V26.22
	c0.006-0.03,0.012-0.067,0.015-0.098c0.005-0.027,0-0.064,0-0.083c0.017-0.033,0.023-0.058,0.023-0.058
	c0.03-0.074,0.049-0.151,0.063-0.224l0.016-0.136c0-0.022,0-0.035,0.001-0.042c0.008-0.094,0-0.18-0.016-0.276
	c0.036-0.079,0.059-0.165,0.07-0.254c0.006-0.083,0.006-0.17-0.011-0.247v-0.076c0,0,0-0.03,0.005-0.057v-0.007
	c0.013-0.031,0.023-0.087,0.023-0.087c0.008-0.056,0.025-0.098,0.028-0.157c0.009-0.06,0.009-0.111,0-0.171l-0.006-0.13
	c-0.015-0.123-0.053-0.249-0.111-0.362l-0.057-0.086c-0.167-0.312-0.503-0.494-0.853-0.477c-0.197,0.012-0.363,0.082-0.517,0.192
	c-0.013,0.007-0.033,0.01-0.048,0.02l-0.128,0.061c-0.065,0.036-0.112,0.065-0.164,0.111l-0.114,0.081
	c-0.009,0.015-0.022,0.022-0.035,0.034c-0.088,0.044-0.178,0.094-0.248,0.165l-0.106,0.098c-0.045,0.048-0.089,0.097-0.132,0.156
	c0,0-0.073,0.051-0.098,0.074c-0.027,0.022-0.096,0.062-0.096,0.062c-0.068,0.06-0.126,0.111-0.183,0.182h-0.001
	c-0.053,0.033-0.097,0.07-0.136,0.12c-0.22,0.074-0.403,0.229-0.517,0.425c-0.055,0.06-0.108,0.117-0.151,0.191
	c0,0-0.027,0.039-0.047,0.074c-0.008,0.004-0.032,0.02-0.032,0.02c-0.061,0.038-0.112,0.079-0.169,0.131
	c-0.065,0.039-0.124,0.076-0.18,0.122l-0.104,0.099c-0.074,0.062-0.137,0.133-0.183,0.219c-0.043,0.039-0.076,0.081-0.113,0.133
	c-0.176,0.076-0.315,0.214-0.412,0.38c-0.073,0.06-0.144,0.144-0.19,0.233c-0.082,0.074-0.143,0.17-0.194,0.272
	c-0.014,0.012-0.084,0.084-0.084,0.084c-0.1,0.098-0.169,0.218-0.216,0.345c-0.029,0.029-0.065,0.065-0.098,0.101l-0.083,0.105
	c-0.043,0.055-0.078,0.116-0.105,0.177c-0.027,0.026-0.069,0.077-0.069,0.077c-0.097,0.085-0.169,0.197-0.22,0.326
	c-0.102,0.131-0.17,0.304-0.191,0.481v0.02c-0.092,0.109-0.148,0.243-0.176,0.382c-0.023,0.036-0.049,0.077-0.049,0.077
	c-0.021,0.034-0.045,0.068-0.061,0.104c0,0-0.035,0.077-0.047,0.105c-0.018,0.03-0.059,0.104-0.059,0.104
	c-0.057,0.115-0.082,0.23-0.101,0.352c-0.009,0.072,0,0.146,0.005,0.219c-0.023,0.062-0.055,0.129-0.067,0.195l-0.034,0.141
	c-0.009,0.042-0.013,0.074-0.018,0.119c-0.002,0.081-0.002,0.162,0.013,0.236c-0.004,0.01-0.008,0.028-0.008,0.039v0.008
	c-0.034,0.092-0.057,0.178-0.065,0.263c-0.009,0.06-0.009,0.116,0,0.187l0.018,0.135c0.007,0.08,0.024,0.143,0.047,0.225
	c0.004,0.068,0.022,0.153,0.047,0.237c0.003,0.13,0.036,0.253,0.092,0.373c0,0,0.008,0.022,0.011,0.023
	c0.004,0.008,0.004,0.028,0.004,0.028c0.026,0.075,0.054,0.156,0.093,0.227c0.004,0.017,0.004,0.021,0.004,0.027l0.036,0.123
	c0,0.022,0.002,0.037,0.006,0.051l0.038,0.122c0.031,0.128,0.094,0.231,0.167,0.325c0,0,0.028,0.035,0.047,0.058
	c0.014,0.029,0.031,0.058,0.031,0.058c0.031,0.04,0.065,0.092,0.104,0.131c0.049,0.115,0.111,0.206,0.199,0.282l0.099,0.102
	c0.007,0.015,0.021,0.019,0.021,0.028c0.062,0.145,0.162,0.273,0.288,0.372c0.021,0.027,0.044,0.051,0.058,0.074l0.093,0.103
	c0.06,0.071,0.138,0.14,0.225,0.187c0.022,0.022,0.041,0.055,0.041,0.055c0.069,0.093,0.158,0.154,0.252,0.218
	c0.097,0.099,0.208,0.18,0.333,0.223c0.05,0.049,0.116,0.09,0.176,0.121l0.126,0.06c0.003,0,0.008,0.006,0.008,0.006
	c0.031,0.026,0.061,0.047,0.097,0.073c0.111,0.142,0.273,0.247,0.439,0.303c0.089,0.064,0.191,0.104,0.295,0.124
	c0.083,0.066,0.177,0.126,0.272,0.156c0,0,0.025,0,0.048,0.008c0.075,0.069,0.164,0.128,0.266,0.158l0.084,0.028
	c-0.013,0.041-0.016,0.072-0.022,0.112c-0.008,0.077,0.006,0.159,0.028,0.243c-0.022,0.054-0.044,0.102-0.047,0.168v0.028
	l-0.008,0.134c-0.006,0.091,0.011,0.186,0.042,0.266c-0.101,0.108-0.167,0.248-0.183,0.395v0.062c0,0.113,0.036,0.233,0.086,0.317
	c-0.013,0.039-0.025,0.067-0.031,0.101c-0.003,0.031-0.01,0.047-0.01,0.078c-0.018,0.136,0.018,0.271,0.09,0.395
	c0,0.015-0.006,0.023-0.006,0.035c-0.046,0.084-0.077,0.18-0.083,0.27c0,0.012-0.005,0.012-0.005,0.023c0,0.04,0,0.079,0.005,0.124
	c-0.009,0.04-0.021,0.077-0.026,0.123c0,0-0.002,0-0.002,0.011c-0.002,0.098,0.002,0.191,0.039,0.281
	c-0.003,0.045,0,0.09,0.006,0.132c-0.108,0.105-0.178,0.229-0.197,0.378v0.034c0,0.055,0,0.104,0.006,0.163
	c-0.006,0.035-0.023,0.079-0.028,0.123v0.033l-0.003,0.137c-0.004,0.077,0.003,0.159,0.031,0.236c0,0,0.013,0.041,0.034,0.089
	c-0.154,0.116-0.255,0.28-0.274,0.464v0.015c-0.012,0.17,0.035,0.329,0.136,0.459c0.006,0.066,0.031,0.12,0.058,0.187
	c-0.033,0.062-0.053,0.133-0.058,0.208v0.004c-0.005,0.023,0,0.044,0,0.065c-0.082,0.106-0.136,0.222-0.146,0.354
	c-0.003,0.007,0,0.017,0,0.025c-0.09,0.102-0.148,0.23-0.159,0.373c0,0.006-0.005,0.022-0.005,0.029
	c-0.008,0.176,0.062,0.356,0.178,0.482c-0.033,0.061-0.052,0.128-0.055,0.201c-0.003,0.032,0,0.064,0,0.089
	c-0.025,0.068-0.045,0.139-0.053,0.196c-0.008,0.086,0.003,0.164,0.028,0.244c-0.099,0.081-0.173,0.192-0.211,0.312
	c-0.016,0.044-0.027,0.092-0.027,0.134c-0.004,0.06-0.004,0.129,0.011,0.183c-0.036,0.079-0.056,0.143-0.066,0.222
	c-0.008,0.095,0.005,0.187,0.03,0.272c0.009,0.035,0.025,0.057,0.041,0.083c-0.004,0.026-0.016,0.055-0.016,0.078
	c-0.009,0.097,0.005,0.195,0.039,0.3v0.016c-0.059,0.074-0.113,0.153-0.148,0.24c-0.008,0.052-0.019,0.098-0.021,0.151
	c-0.006,0.037-0.006,0.062,0,0.098c-0.027,0.068-0.046,0.125-0.052,0.194c0,0.009-0.001,0.019-0.001,0.019
	c0,0.065,0.001,0.134,0.02,0.192c-0.011,0.02-0.019,0.056-0.019,0.078c-0.001,0.043,0,0.094,0,0.133
	c0.005,0.047,0.025,0.09,0.033,0.141c-0.074,0.071-0.137,0.163-0.166,0.269c-0.009,0.043-0.016,0.082-0.021,0.124
	c-0.007,0.113,0.007,0.228,0.049,0.334c-0.075,0.102-0.124,0.228-0.138,0.353c-0.013,0.141,0.021,0.28,0.094,0.412
	c0,0,0.011,0.017,0.016,0.022c0,0.014-0.009,0.014-0.009,0.023c-0.006,0.05-0.017,0.075-0.019,0.127
	c-0.012,0.079,0.002,0.17,0.028,0.251c-0.009,0.035-0.016,0.06-0.021,0.094c-0.085,0.089-0.136,0.214-0.156,0.343v0.017
	c-0.008,0.142,0.025,0.273,0.097,0.395l-0.006,0.006c0,0-0.009,0.097-0.021,0.126c-0.008,0.033-0.028,0.122-0.028,0.122
	c-0.008,0.029-0.009,0.062-0.013,0.078c-0.004,0.059-0.004,0.117,0.004,0.168c-0.008,0.046-0.018,0.088-0.023,0.128
	c-0.013,0.123,0.015,0.245,0.071,0.355c-0.142,0.116-0.231,0.27-0.247,0.447c-0.012,0.087,0.005,0.169,0.028,0.244
	c-0.013,0.051-0.021,0.088-0.028,0.135c-0.062,0.091-0.1,0.186-0.116,0.304c-0.001,0.031,0,0.052,0,0.086
	c-0.02,0.062-0.037,0.117-0.045,0.182c-0.002,0.037-0.002,0.078,0,0.108c-0.014,0.054-0.028,0.101-0.03,0.174v0.013
	c-0.011,0.086,0.009,0.183,0.03,0.27c-0.047,0.077-0.077,0.169-0.086,0.277c0,0.008,0,0.027-0.005,0.033
	c0,0.095,0.014,0.177,0.044,0.26c-0.018,0.047-0.023,0.089-0.023,0.137c-0.006,0.024-0.006,0.058-0.006,0.083
	c0.006,0.153,0.072,0.3,0.173,0.422c-0.033,0.064-0.061,0.146-0.062,0.221c0,0-0.006,0-0.006,0.001
	c-0.006,0.079,0.006,0.152,0.027,0.23c-0.055,0.059-0.091,0.131-0.12,0.204c-0.012,0.043-0.014,0.086-0.021,0.137v0.073
	c-0.03,0.062-0.058,0.137-0.062,0.212v0.032c-0.042,0.068-0.07,0.148-0.078,0.238v0.019c-0.019,0.133,0.012,0.263,0.078,0.374
	c0,0.041,0,0.09,0.014,0.146c-0.019,0.036-0.041,0.077-0.047,0.129c-0.098,0.1-0.147,0.231-0.166,0.368c0,0.038,0,0.074,0.003,0.122
	c-0.013,0.023-0.027,0.046-0.039,0.062c-0.033,0.071-0.047,0.137-0.052,0.207c-0.008,0.11,0.005,0.219,0.052,0.324l0.062,0.137
	c0.033,0.093,0.094,0.166,0.166,0.235v0.009c-0.005,0.008,0,0.029,0,0.045c-0.027,0.044-0.047,0.099-0.06,0.161
	c0,0-0.004,0.031-0.008,0.051c-0.158,0.093-0.278,0.229-0.325,0.407c-0.01,0.047-0.019,0.079-0.023,0.12
	c0,0.019,0.004,0.038,0.004,0.062c-0.03,0.061-0.054,0.136-0.062,0.206v0.028c-0.011,0.222,0.091,0.431,0.257,0.555
	c-0.012,0.038-0.023,0.089-0.029,0.133v0.019c-0.001,0.088,0.013,0.167,0.036,0.24c-0.059,0.085-0.089,0.191-0.103,0.295v0.039
	c-0.131,0.084-0.238,0.22-0.279,0.374c-0.015,0.043-0.023,0.088-0.031,0.12c-0.004,0.089,0.012,0.172,0.036,0.249
	c-0.058,0.096-0.103,0.201-0.114,0.315v0.079c0.003,0.188,0.086,0.349,0.211,0.471c-0.065,0.091-0.102,0.19-0.117,0.301
	c-0.055,0.088-0.094,0.188-0.097,0.292c-0.008,0.069-0.005,0.136,0.006,0.199c0.019,0.093,0.065,0.185,0.124,0.263
	c-0.042,0.068-0.071,0.138-0.085,0.213v0.015c-0.027,0.028-0.045,0.062-0.062,0.098l-0.07,0.146
	c-0.031,0.062-0.052,0.146-0.058,0.224c-0.008,0.068,0,0.15,0.017,0.225c-0.029,0.061-0.051,0.132-0.058,0.213
	c-0.013,0.095,0.003,0.177,0.028,0.264c0,0,0.019,0.052,0.029,0.099c-0.004,0.021-0.008,0.027-0.008,0.05
	c0,0.008-0.002,0.025-0.002,0.035c-0.006,0.062-0.006,0.115,0.002,0.172c-0.042,0.085-0.074,0.175-0.076,0.27
	c-0.008,0.023-0.008,0.047-0.008,0.061c0,0.006,0.008,0.02,0.008,0.024c-0.022,0.018-0.036,0.038-0.052,0.067
	c-0.034,0.077-0.06,0.16-0.074,0.25c-0.007,0.1,0.005,0.21,0.052,0.305c0,0,0.019,0.047,0.038,0.093
	c0.005,0.04,0.014,0.077,0.014,0.077c0,0.01,0.004,0.01,0.004,0.01c-0.004,0.022-0.004,0.035-0.004,0.041
	c-0.003,0.036,0,0.062,0,0.085c-0.083,0.077-0.148,0.167-0.186,0.282l-0.04,0.12c-0.021,0.058-0.032,0.101-0.032,0.147
	c-0.008,0.124,0.006,0.236,0.062,0.349c-0.052,0.056-0.082,0.119-0.105,0.197c-0.017,0.037-0.017,0.084-0.025,0.114
	c-0.006,0.152,0.029,0.298,0.105,0.416c-0.08,0.093-0.138,0.203-0.166,0.326c-0.004,0.019-0.004,0.035-0.008,0.059
	c-0.008,0.135,0.018,0.258,0.077,0.37v0.043c-0.008,0.037-0.008,0.053-0.008,0.079c-0.051,0.08-0.095,0.184-0.112,0.28v0.04
	c-0.011,0.101,0.006,0.2,0.038,0.286c-0.093,0.109-0.145,0.245-0.165,0.386v0.075c0,0.078,0.021,0.163,0.058,0.239
	c-0.006,0.032-0.011,0.065-0.019,0.092c-0.008,0.078,0,0.155,0.021,0.233c0.006,0.022,0.019,0.04,0.03,0.065
	c-0.019,0.141,0.018,0.281,0.087,0.394c0.016,0.077,0.035,0.159,0.069,0.236c-0.059,0.088-0.097,0.192-0.114,0.282
	c-0.018,0.036-0.035,0.059-0.047,0.085c-0.155,0.114-0.26,0.278-0.281,0.466v0.025c-0.023,0.232,0.083,0.471,0.281,0.593
	c-0.194,0.112-0.312,0.301-0.341,0.52v0.021c-0.031,0.056-0.049,0.107-0.067,0.182c0,0.016-0.006,0.044-0.01,0.077
	c-0.009,0.13,0.025,0.25,0.077,0.366c-0.052,0.08-0.1,0.171-0.116,0.271c-0.008,0.026-0.008,0.037-0.008,0.063
	c-0.019,0.142,0.024,0.284,0.101,0.409c0,0.017,0.009,0.031,0.009,0.041c-0.053,0.084-0.073,0.172-0.086,0.262
	c-0.003,0.037-0.003,0.071,0,0.095l0.004,0.139c0.009,0.072,0.019,0.131,0.044,0.187c-0.059,0.097-0.098,0.19-0.106,0.292v0.09
	c-0.066,0.075-0.113,0.178-0.13,0.29c-0.002,0.016-0.002,0.03-0.006,0.039c-0.009,0.129,0.016,0.258,0.072,0.367
	c-0.03,0.066-0.057,0.147-0.066,0.219v0.04c-0.031,0.069-0.063,0.156-0.071,0.241l-0.011,0.141
	c-0.017,0.134,0.011,0.251,0.067,0.356c-0.092,0.103-0.154,0.22-0.166,0.365c-0.008,0.003-0.008,0.021-0.008,0.021
	c-0.009,0.085,0,0.156,0.02,0.227c-0.012,0.05-0.029,0.094-0.038,0.156c-0.004,0.082,0,0.164,0.028,0.249
	c0.005,0.016,0.016,0.035,0.027,0.051c-0.008,0.026-0.017,0.058-0.017,0.078c0,0.018-0.005,0.027-0.005,0.047v0.123
	c-0.004,0.141,0.04,0.28,0.126,0.39c-0.072,0.093-0.116,0.209-0.126,0.322c-0.005,0.062-0.004,0.124,0.01,0.188l0.022,0.126
	c0.005,0.03,0.016,0.051,0.026,0.071c-0.143,0.093-0.247,0.238-0.279,0.416l-0.033,0.13c-0.003,0.02-0.006,0.043-0.006,0.07
	c-0.016,0.117,0.006,0.24,0.061,0.353l0.048,0.101c-0.049,0.058-0.101,0.117-0.101,0.117c0.008,0.011,0.021,0.023,0.023,0.042
	c0.006,0.03,0.008,0.061,0.017,0.093l0.028,0.107c0.006,0.021,0.018,0.046,0.027,0.069v0.01c-0.059,0.062-0.101,0.134-0.133,0.211
	c0.449,0.59,0.907,1.171,1.381,1.74c0.059-0.107,0.1-0.224,0.107-0.346c0.084-0.13,0.146-0.277,0.153-0.43
	c0.036-0.083,0.064-0.168,0.073-0.267c0.048-0.113,0.072-0.247,0.06-0.379c0.009-0.053-0.01-0.106-0.012-0.16
	c0.028-0.062,0.07-0.116,0.081-0.187c0.004-0.094-0.005-0.173-0.031-0.258c0.036-0.061,0.065-0.117,0.075-0.18
	c0.008-0.031,0.008-0.055,0.012-0.081c0.014-0.147-0.021-0.293-0.101-0.425c0.011-0.022,0.05-0.097,0.05-0.097
	c0.035-0.078,0.065-0.16,0.07-0.245c0.005-0.064,0-0.137-0.019-0.197c0.01-0.018,0.014-0.04,0.014-0.062
	c0.005-0.012,0.005-0.019,0.005-0.045c0-0.11-0.035-0.227-0.087-0.323c0.017-0.045,0.023-0.09,0.028-0.144l0.014-0.123
	c0.005-0.066,0-0.128-0.008-0.185c0.003-0.02,0.008-0.042,0.013-0.071c0-0.053,0-0.105-0.009-0.152c0,0,0-0.024-0.003-0.034
	c0.058-0.088,0.097-0.194,0.111-0.311v-0.194c0-0.033-0.002-0.073-0.014-0.114c0.126-0.111,0.202-0.257,0.22-0.425v-0.183
	c0-0.04-0.006-0.083-0.019-0.119c0.03-0.061,0.047-0.128,0.05-0.192c0.008-0.037,0.008-0.071,0.008-0.105
	c-0.008-0.082-0.03-0.164-0.064-0.241c0.001-0.028,0.006-0.05,0.006-0.065v-0.018c0.019-0.123-0.006-0.248-0.07-0.358v-0.044
	c0.136-0.111,0.218-0.272,0.236-0.45c0-0.013,0-0.032,0.005-0.037v-0.149c0.002-0.146-0.042-0.287-0.124-0.396
	c0.019-0.047,0.023-0.094,0.028-0.132c0.002-0.041,0.002-0.073,0.002-0.102c-0.002-0.037-0.007-0.071-0.012-0.109
	c0.017-0.04,0.041-0.08,0.047-0.139c0.008-0.023,0.008-0.058,0.017-0.08c0.009-0.123-0.021-0.25-0.079-0.359
	c0.062-0.083,0.103-0.171,0.124-0.266c0.008-0.032,0.012-0.063,0.016-0.082c0.01-0.112-0.008-0.216-0.051-0.321
	c0.086-0.096,0.147-0.222,0.168-0.368v-0.01c0.003-0.091-0.008-0.173-0.033-0.263c0.004,0,0.012-0.008,0.012-0.008
	c0.124-0.101,0.194-0.261,0.209-0.414v-0.053c0-0.125-0.036-0.239-0.097-0.346c0.05-0.074,0.087-0.164,0.1-0.259
	c0-0.011,0.002-0.031,0.002-0.04c0.018-0.127-0.005-0.24-0.064-0.344c0-0.028,0.013-0.064,0-0.085
	c0.05-0.085,0.082-0.179,0.089-0.269c0.009-0.044,0.003-0.104-0.003-0.147c0,0-0.004-0.023-0.004-0.032
	c0.079-0.105,0.131-0.226,0.143-0.356c0-0.005,0.005-0.025,0.005-0.037c0.003-0.077-0.009-0.157-0.031-0.224
	c0-0.009,0.001-0.012,0.001-0.021v-0.01c0.005-0.139-0.025-0.263-0.091-0.376c0.116-0.101,0.191-0.235,0.207-0.395
	c0.009-0.007,0.009-0.023,0.009-0.029c0.019-0.183-0.046-0.359-0.164-0.496c0-0.022,0.001-0.044,0.003-0.072
	c0.011-0.119-0.019-0.254-0.082-0.366c0.063-0.071,0.118-0.149,0.151-0.231c0.138-0.109,0.22-0.263,0.239-0.44v-0.01
	c0.009-0.076-0.011-0.153-0.027-0.218c0.036-0.054,0.061-0.113,0.082-0.176c0.015-0.045,0.02-0.085,0.025-0.125
	c0.016-0.208-0.064-0.431-0.237-0.566c0,0-0.01-0.008-0.014-0.015c0.083-0.109,0.139-0.22,0.145-0.354
	c0.008-0.058,0.008-0.127-0.003-0.189l-0.026-0.136c0-0.014-0.01-0.032-0.013-0.049c0.003-0.012,0.003-0.021,0.003-0.027
	c0.004-0.027,0-0.05,0-0.06c0.084-0.084,0.161-0.188,0.199-0.302c0.019-0.047,0.026-0.091,0.03-0.149
	c0.012-0.099-0.008-0.196-0.045-0.296c0.034-0.063,0.051-0.117,0.069-0.185c0.087-0.102,0.142-0.234,0.155-0.371
	c0.015-0.147-0.024-0.286-0.095-0.405c0.01-0.042,0.021-0.088,0.021-0.088c0.013-0.037,0.019-0.07,0.019-0.108
	c0.008-0.074,0-0.164-0.028-0.246c0.009-0.019,0.022-0.044,0.028-0.068c0.091-0.092,0.155-0.227,0.174-0.365
	c0-0.01,0-0.012,0.004-0.028c0.004-0.059,0.004-0.124-0.008-0.179c0.008-0.039,0.019-0.073,0.021-0.112v-0.097l-0.002-0.146
	c-0.011-0.121-0.053-0.23-0.119-0.336c0.104-0.105,0.186-0.237,0.207-0.39c0.003-0.019,0.003-0.021,0.003-0.032
	c0.013-0.11-0.011-0.23-0.055-0.331c0-0.033,0-0.079-0.002-0.124c0,0-0.003-0.01-0.003-0.022c0.035-0.076,0.058-0.146,0.069-0.235
	v-0.006c0.005-0.075,0-0.136-0.019-0.195c0-0.008,0.008-0.008,0.008-0.008c0.025-0.069,0.046-0.136,0.05-0.208
	c0.008-0.074,0-0.163-0.025-0.234c0.062-0.075,0.108-0.169,0.124-0.265l0.02-0.137c0.01-0.03,0.01-0.043,0.011-0.06
	c0.003-0.068,0-0.147-0.019-0.225l-0.036-0.134c0.008-0.023,0.008-0.048,0.016-0.066c0-0.007,0.008-0.012,0.008-0.024
	c0,0,0-0.056,0-0.101c0.003-0.041,0.012-0.104,0.012-0.104c0.005-0.01,0.008-0.027,0.008-0.043c0.011-0.089-0.003-0.178-0.028-0.258
	c0.086-0.085,0.151-0.186,0.181-0.301c0.009-0.039,0.013-0.087,0.022-0.114c0.011-0.111-0.013-0.227-0.056-0.326
	c0.031-0.065,0.056-0.123,0.067-0.188v-0.037c0.016-0.127-0.02-0.247-0.073-0.354v-0.012c0.022-0.056,0.038-0.114,0.047-0.181
	c0.003-0.058,0-0.114-0.017-0.183c-0.01-0.094-0.052-0.185-0.115-0.272v-0.092c0.184-0.099,0.332-0.28,0.354-0.5
	c0.005-0.015,0.005-0.025,0.008-0.027c0.018-0.187-0.047-0.365-0.167-0.501c0.038-0.071,0.055-0.143,0.072-0.227
	c0.003-0.008,0.003-0.02,0.003-0.031c0.006-0.094-0.003-0.181-0.03-0.265c0.066-0.098,0.099-0.198,0.112-0.312
	c0-0.012,0.002-0.033,0.002-0.054v-0.099c0.008-0.052,0.017-0.11,0.017-0.11c0.003-0.002,0.003-0.019,0.003-0.027
	c0.005-0.054,0.005-0.106-0.003-0.161c0.009-0.044,0.019-0.087,0.025-0.124c0.009-0.109-0.01-0.221-0.058-0.336
	c0,0-0.006-0.007-0.006-0.02v-0.004c0.155-0.12,0.26-0.283,0.275-0.48v-0.047c0-0.042,0-0.085-0.006-0.123
	c0.011-0.036,0.023-0.054,0.038-0.076c0.021-0.062,0.033-0.125,0.037-0.178c0.014-0.112-0.006-0.237-0.058-0.342
	c0,0-0.058-0.109-0.065-0.128c0-0.055,0-0.074-0.005-0.109c0.01-0.046,0.016-0.076,0.021-0.121v-0.012
	c0.019-0.143-0.021-0.289-0.105-0.41c0.021-0.039,0.027-0.07,0.034-0.109c0-0.005,0-0.019,0.005-0.037
	c0.006-0.047,0.006-0.099-0.005-0.136c0.09-0.08,0.143-0.192,0.174-0.311l0.03-0.132c0.003-0.035,0.006-0.056,0.006-0.092
	c0.008-0.058,0.006-0.136-0.006-0.195l-0.036-0.144c0-0.013-0.005-0.026-0.009-0.041l-0.048-0.133
	c-0.006-0.047-0.027-0.086-0.047-0.122c0-0.058-0.008-0.12-0.028-0.183c0,0,0.016-0.102,0.021-0.122
	c0.005-0.033,0.028-0.126,0.028-0.126c0.006-0.031,0.011-0.058,0.011-0.077l0.016-0.149v-0.12c0.017-0.054,0.033-0.112,0.039-0.174
	c0.008-0.016,0-0.039,0-0.06c0.019-0.034,0.029-0.07,0.033-0.109c0,0,0.022-0.044,0.028-0.086c0.108-0.105,0.193-0.22,0.214-0.38
	c0.002-0.014,0.006-0.035,0.006-0.05c0.02-0.191-0.053-0.388-0.189-0.523c0.022-0.065,0.038-0.125,0.045-0.19
	c0.01-0.029,0.01-0.056,0.01-0.087v-0.002c0.231-0.082,0.398-0.287,0.436-0.531c0-0.011,0.005-0.022,0.005-0.036
	c0.009-0.095-0.005-0.19-0.041-0.278c0.004-0.02,0.004-0.055,0.004-0.078c-0.007-0.146-0.059-0.285-0.15-0.395
	c0.031-0.027,0.112-0.109,0.112-0.109c0.113-0.114,0.174-0.255,0.189-0.408c0.011-0.055,0.003-0.111-0.006-0.166
	c-0.009-0.074-0.041-0.149-0.08-0.215c0.07-0.1,0.12-0.2,0.133-0.328v-0.035c0.003-0.146-0.031-0.28-0.106-0.394
	c0.062-0.064,0.116-0.142,0.148-0.228c0.017-0.056,0.036-0.105,0.039-0.165c0.008-0.132-0.022-0.264-0.081-0.392
	c0,0-0.018-0.028-0.036-0.062c-0.011-0.022-0.019-0.06-0.019-0.06c-0.008-0.03-0.015-0.075-0.031-0.1
	c0.016-0.024,0.031-0.033,0.05-0.056l0.093-0.141c0.082-0.087,0.12-0.215,0.134-0.328c0.009-0.113-0.014-0.233-0.064-0.346
	c0.033-0.064,0.057-0.137,0.064-0.213c0.001-0.033,0.001-0.068,0.001-0.102c-0.001-0.053-0.016-0.111-0.038-0.171
	c0.019-0.051,0.029-0.11,0.036-0.161c0.001-0.047,0-0.11-0.014-0.166c0.007-0.014,0.014-0.043,0.016-0.047
	c0.074-0.106,0.124-0.215,0.132-0.344c0.004-0.017,0.004-0.025,0.004-0.041c0-0.126-0.03-0.243-0.096-0.347
	c0.026-0.057,0.036-0.114,0.041-0.179c0.011-0.069,0-0.156-0.019-0.229c0.004-0.022,0.011-0.044,0.011-0.056
	c0.008-0.086,0-0.176-0.033-0.257c0.117-0.092,0.188-0.239,0.214-0.38c0.039-0.061,0.072-0.119,0.094-0.191
	c0.013-0.043,0.022-0.081,0.025-0.136c0.009-0.104-0.003-0.207-0.047-0.302c0.044-0.084,0.07-0.158,0.081-0.252
	c0.002-0.01,0.002-0.01,0.002-0.02c0-0.033,0-0.063-0.002-0.09c0.014-0.06,0.034-0.109,0.036-0.158v-0.014
	c0.006-0.075-0.002-0.144-0.022-0.215c0-0.013,0.003-0.019,0.008-0.031v-0.021c0.014-0.134-0.016-0.269-0.08-0.383
	c0.06-0.076,0.094-0.168,0.109-0.266c0.005-0.019,0.005-0.04,0.008-0.047c0.013-0.097-0.008-0.195-0.036-0.274
	c0.099-0.101,0.169-0.229,0.195-0.37c0.003-0.016,0.003-0.031,0.003-0.044c0.006-0.065,0.006-0.125-0.006-0.184
	c0.006-0.034,0.013-0.062,0.015-0.098v-0.065c0-0.163-0.066-0.312-0.171-0.439c0.052-0.063,0.099-0.139,0.119-0.225
	c0,0,0.011-0.043,0.022-0.087c0.022-0.007,0.052-0.02,0.052-0.02c0.041-0.025,0.086-0.039,0.126-0.075l0.117,0.07
	c0.141,0.085,0.319,0.111,0.485,0.081c0.07,0.04,0.15,0.075,0.23,0.093c0.113,0.129,0.281,0.207,0.461,0.207
	c0.125,0.01,0.242-0.019,0.342-0.084c0.011,0.006,0.022,0.01,0.042,0.01c0.007,0.009,0.019,0.009,0.028,0.009
	c0.075,0.047,0.15,0.065,0.233,0.087c0.148,0.018,0.29-0.012,0.419-0.079c0.129,0.039,0.269,0.022,0.396-0.017h0.003
	c0.069,0.039,0.141,0.074,0.221,0.096c0.096,0.078,0.226,0.135,0.361,0.135c0.158,0.005,0.32-0.041,0.438-0.135
	c0.018,0,0.03,0.004,0.041,0.011c0.104,0.03,0.214,0.03,0.312,0.007c0.162,0.094,0.37,0.122,0.561,0.061
	c0,0,0.022-0.014,0.039-0.015c0.042,0.015,0.095,0.039,0.095,0.039c0.137,0.06,0.29,0.068,0.427,0.032
	c0.101,0.078,0.226,0.136,0.361,0.136c0.203,0.013,0.389-0.061,0.519-0.206c0.028-0.001,0.047-0.004,0.071-0.004
	c0.052,0.004,0.104,0.018,0.154,0.018h0.043c0.091,0.11,0.22,0.192,0.363,0.228c0.048,0.008,0.104,0.017,0.159,0.017
	c0.07,0.051,0.155,0.098,0.237,0.112c0.143,0.04,0.288,0.021,0.414-0.028c0.039,0,0.078,0,0.114-0.012
	c0.034,0,0.069-0.01,0.104-0.021c0.155,0.163,0.391,0.236,0.607,0.195c0.061-0.009,0.108-0.032,0.155-0.049
	c0.142,0.111,0.331,0.156,0.514,0.122l0.137-0.022c0.072-0.012,0.13-0.031,0.191-0.066c0.073,0.023,0.151,0.042,0.234,0.042h0.045
	c0.006,0,0.008,0.005,0.018,0.013c0.128,0.047,0.267,0.047,0.398,0.002c0.004,0.01,0.012,0.01,0.016,0.01l0.139,0.012
	c0.035,0.011,0.074,0.011,0.122,0.005c0.034,0.006,0.075,0.019,0.112,0.03c0.031,0,0.052,0,0.08,0.01
	c0.076,0.062,0.176,0.102,0.278,0.128c0.126,0.033,0.25,0.007,0.367-0.032c0.119,0.006,0.239-0.023,0.346-0.074
	c0.093,0.051,0.199,0.08,0.31,0.088c0.106,0.019,0.209-0.008,0.308-0.047c0.145,0.108,0.344,0.166,0.536,0.108
	c0,0,0.041-0.004,0.074-0.01c0.066,0.03,0.137,0.048,0.214,0.067h0.038c0.022,0.008,0.047,0.017,0.069,0.028
	c0.21,0.081,0.435,0.046,0.622-0.09c0.077-0.006,0.152-0.032,0.22-0.065c0.055,0,0.109-0.006,0.153-0.014
	c0.025,0.003,0.041,0.014,0.059,0.014c0.071,0.033,0.146,0.045,0.213,0.033c0.009,0.012,0.009,0.012,0.014,0.012l0.133,0.11
	c0.141,0.105,0.322,0.156,0.5,0.137c0.04-0.005,0.092-0.016,0.136-0.036c0.073,0.045,0.159,0.085,0.255,0.092
	c0.092,0.009,0.175,0.009,0.261-0.007c0.167,0.123,0.386,0.151,0.586,0.095c0.023-0.011,0.042-0.023,0.064-0.031
	c0.242,0.008,0.464-0.112,0.592-0.308c0.016,0.03,0.036,0.059,0.061,0.081l0.125,0.148c0.189,0.208,0.487,0.27,0.744,0.166
	c0.044,0.01,0.097,0.014,0.148,0.026c0.003,0,0.019,0.016,0.019,0.016c0.167,0.125,0.394,0.163,0.597,0.097
	c0.051-0.009,0.092-0.047,0.134-0.066c0.053,0.02,0.117,0.031,0.171,0.031c0.068,0,0.14,0,0.204-0.023
	c0.136,0.098,0.306,0.141,0.474,0.109c0.026,0,0.047-0.007,0.065-0.021c0.119,0.092,0.249,0.145,0.391,0.149
	c0.103,0.005,0.205-0.023,0.298-0.058c0.094,0.044,0.208,0.073,0.319,0.073c0.106-0.005,0.206-0.038,0.291-0.073
	c0.091,0.035,0.194,0.062,0.295,0.062l0.146-0.01h0.006c0.109,0.08,0.239,0.123,0.388,0.123h0.136c0.061,0,0.125-0.008,0.183-0.019
	c0.204,0.077,0.433,0.046,0.608-0.07c0.046-0.008,0.087-0.019,0.134-0.034c0.043,0.016,0.081,0.026,0.129,0.034
	c0.116,0.009,0.228-0.014,0.328-0.053c0.035,0.034,0.084,0.089,0.084,0.089c0.146,0.158,0.361,0.239,0.578,0.206
	c0.015-0.003,0.023-0.01,0.039-0.01c0.079,0.046,0.17,0.073,0.271,0.073c0.087,0,0.181-0.012,0.264-0.045
	c0.161,0.045,0.334,0.038,0.486-0.033h0c0.061,0.012,0.117,0.012,0.173,0.005c0.062,0.028,0.134,0.046,0.208,0.049
	c0.089,0.009,0.166-0.016,0.24-0.039c0.088,0.088,0.197,0.154,0.322,0.184l0.14,0.026c0.171,0.047,0.343,0.012,0.483-0.064
	c0.088,0.035,0.177,0.045,0.268,0.042c0.098,0.079,0.214,0.116,0.345,0.133c0.067,0.004,0.134,0,0.2-0.019
	c0.042,0.019,0.089,0.033,0.146,0.041c0.251,0.048,0.499-0.07,0.647-0.279c0.023,0,0.042,0,0.064-0.007c0,0,0.044-0.005,0.081-0.018
	l0.008,0.009c0.061,0.026,0.119,0.045,0.177,0.063c0.069,0.053,0.15,0.099,0.239,0.122l0.142,0.039c0.017,0,0.023,0.007,0.037,0.007
	c0.049,0.041,0.096,0.063,0.149,0.09c0.1,0.04,0.206,0.061,0.314,0.055c0.092,0.063,0.2,0.089,0.317,0.103
	c0.239,0.009,0.462-0.111,0.586-0.293c0.013-0.012,0.028-0.023,0.039-0.023c0.022,0,0.05,0.012,0.074,0.012
	c0.094,0.214,0.289,0.366,0.523,0.387c0.111,0.017,0.212,0,0.311-0.039c0.012,0.006,0.036,0.019,0.05,0.019l0.139,0.031
	c0.087,0.019,0.175,0.006,0.256,0c0.062,0.028,0.128,0.052,0.2,0.065c0.086,0.01,0.18,0,0.261-0.024
	c0.055,0.011,0.104,0.011,0.159,0.011c0.065,0,0.127-0.023,0.19-0.046c-0.025,0.069-0.044,0.131-0.053,0.204
	c-0.006,0.047-0.006,0.103,0.003,0.143l0.015,0.111c0.021,0.137,0.087,0.273,0.181,0.367c-0.116,0.095-0.205,0.229-0.231,0.383
	c0,0.024-0.006,0.049-0.006,0.065c-0.021,0.192,0.047,0.374,0.167,0.507v0.024c-0.005,0.026,0,0.042,0,0.062
	c-0.128,0.111-0.213,0.271-0.227,0.438c0,0.011-0.008,0.021-0.008,0.038c0,0.109,0.026,0.231,0.08,0.328
	c-0.059,0.098-0.092,0.188-0.104,0.299c-0.003,0.032-0.003,0.078,0,0.106c0.004,0.056,0.016,0.093,0.025,0.144
	c-0.013,0.051-0.028,0.096-0.028,0.16h-0.003c-0.013,0.11,0.006,0.191,0.042,0.287v0.012c-0.011,0.103,0.01,0.21,0.057,0.3
	c-0.033,0.07-0.067,0.146-0.067,0.219c-0.001,0.021-0.009,0.04-0.009,0.062c0,0.056,0.009,0.114,0.028,0.17
	c-0.117,0.109-0.189,0.253-0.218,0.415v0.01c-0.009,0.168,0.037,0.327,0.129,0.45v0.065c-0.014,0.035-0.017,0.085-0.026,0.129v0.017
	c-0.065,0.081-0.112,0.174-0.133,0.281c-0.01,0.028-0.01,0.049-0.014,0.068c0,0.052,0,0.105,0.004,0.161
	c-0.004,0.028-0.019,0.06-0.019,0.104c-0.005,0.034-0.005,0.057,0,0.092c0,0.053,0.014,0.097,0.028,0.152
	c0,0-0.003,0.006-0.003,0.009c-0.006,0.057-0.006,0.112,0.008,0.171c-0.073,0.094-0.124,0.208-0.136,0.337v0.02
	c-0.005,0.059,0.007,0.133,0.021,0.199c-0.021,0.054-0.034,0.106-0.038,0.163c-0.011,0.113,0.009,0.223,0.053,0.339
	c0.01,0.048,0.011,0.099,0.023,0.146c-0.052,0.089-0.087,0.19-0.103,0.291c-0.003,0.04-0.003,0.086,0,0.141l0.019,0.131
	c0.012,0.075,0.037,0.15,0.072,0.214c0,0.02-0.001,0.038-0.001,0.043c-0.01,0.016-0.01,0.047-0.01,0.073v0.136
	c0.01,0.056,0.016,0.114,0.031,0.173c-0.008,0.019-0.016,0.053-0.02,0.077c-0.001,0.015-0.001,0.029-0.001,0.047
	c-0.058,0.076-0.089,0.18-0.094,0.272c-0.011,0.065,0,0.116,0.004,0.176c-0.022,0.072-0.047,0.145-0.053,0.214
	c-0.004,0.023-0.011,0.044-0.011,0.062c0,0.022,0.011,0.058,0.011,0.087c-0.036,0.073-0.065,0.151-0.074,0.245
	c0,0.021-0.007,0.043,0,0.079v0.022c-0.012,0.023-0.041,0.11-0.041,0.11c-0.019,0.058-0.034,0.107-0.039,0.17
	c-0.01,0.077,0,0.153,0.023,0.241c-0.049,0.073-0.078,0.158-0.097,0.252v0.02c-0.016,0.177,0.035,0.341,0.142,0.476
	c0.012,0.055,0.028,0.097,0.047,0.146c0,0.024-0.007,0.032-0.011,0.059c0,0.046,0,0.098,0.004,0.146
	c-0.152,0.087-0.26,0.258-0.294,0.438c0,0.021-0.005,0.032-0.005,0.052c-0.006,0.113,0.016,0.217,0.053,0.318
	c-0.07,0.096-0.117,0.203-0.126,0.334c-0.007,0.023-0.007,0.057-0.007,0.076c0.007,0.125,0.045,0.235,0.105,0.328
	c-0.042,0.048-0.078,0.104-0.105,0.161c-0.03,0.063-0.054,0.144-0.057,0.217c-0.011,0.106,0.003,0.22,0.047,0.321
	c0,0,0.05,0.118,0.055,0.122c-0.028,0.073-0.055,0.149-0.062,0.22c-0.003,0.052,0,0.097,0.008,0.153
	c-0.03,0.066-0.053,0.138-0.062,0.212c0,0.015-0.008,0.015-0.008,0.021c-0.016,0.175,0.041,0.346,0.144,0.476
	c0,0.023-0.008,0.046-0.008,0.066c-0.016,0.144,0.025,0.279,0.095,0.409c-0.175,0.1-0.293,0.285-0.317,0.49v0.049
	c-0.005,0.148,0.047,0.3,0.136,0.41c-0.133,0.116-0.214,0.27-0.233,0.444c0,0.016-0.001,0.02-0.004,0.02
	c-0.01,0.213,0.073,0.42,0.228,0.548c-0.082,0.104-0.134,0.229-0.15,0.363c0,0.037,0,0.082,0.004,0.119
	c-0.092,0.112-0.15,0.244-0.161,0.384c-0.006,0.035-0.006,0.076,0,0.114c-0.027,0.043-0.045,0.075-0.052,0.115
	c-0.016,0.051-0.025,0.107-0.034,0.15c-0.011,0.1,0.009,0.203,0.041,0.303c-0.006,0.029-0.014,0.059-0.014,0.095
	c-0.005,0.04-0.005,0.092,0,0.144c-0.084,0.104-0.139,0.221-0.147,0.36c-0.007,0.056-0.007,0.111,0.005,0.17
	c0.017,0.135,0.087,0.256,0.182,0.349c-0.026,0.044-0.04,0.086-0.048,0.129l-0.033,0.15c-0.006,0.023-0.014,0.05-0.014,0.078
	c-0.008,0.069-0.008,0.135,0.014,0.204l0.028,0.144c0.008,0.028,0.013,0.055,0.021,0.075c-0.045,0.088-0.077,0.17-0.092,0.264
	l-0.023,0.157v0.018c-0.009,0.085,0,0.162,0.023,0.229c-0.158,0.113-0.256,0.284-0.273,0.469c-0.009,0.067,0,0.137,0.017,0.206
	c-0.079,0.086-0.134,0.195-0.154,0.312v0.045c-0.006,0.072,0,0.145,0.015,0.221c-0.029,0.066-0.054,0.141-0.059,0.208
	c-0.006,0.033-0.006,0.081,0,0.119c0.011,0.12,0.052,0.228,0.114,0.318c-0.047,0.071-0.077,0.155-0.088,0.246
	c-0.058,0.087-0.102,0.19-0.118,0.305c0,0.046,0,0.083,0.007,0.128c0.003,0.026,0.014,0.064,0.021,0.093
	c-0.027,0.063-0.048,0.125-0.055,0.2v0.105c-0.021,0.051-0.036,0.109-0.042,0.174c-0.001,0.052-0.001,0.094,0.006,0.15l0.016,0.148
	c0.013,0.031,0.021,0.068,0.036,0.106c0,0,0.004,0.035,0.019,0.069c-0.07,0.09-0.114,0.183-0.133,0.281l-0.031,0.134
	c-0.004,0.035-0.009,0.059-0.009,0.081c-0.019,0.163,0.023,0.315,0.117,0.438c0,0.033,0.001,0.048,0.007,0.072
	c0,0,0.027,0.085,0.029,0.111c-0.049,0.07-0.091,0.146-0.113,0.234c-0.01,0.052-0.02,0.087-0.026,0.133
	c0,0.021,0.004,0.041,0.004,0.067c-0.031,0.066-0.056,0.148-0.065,0.225v0.031c-0.004,0.063,0.019,0.119,0.03,0.179
	c-0.022,0.058-0.059,0.108-0.065,0.171v0.05c-0.007,0.062,0.002,0.141,0.026,0.195l0.25,0.375c0.004,0.021,0.002,0.044,0.007,0.063
	c-0.058,0.092-0.091,0.21-0.105,0.322v0.043c-0.134,0.093-0.242,0.24-0.286,0.409c-0.016,0.047-0.023,0.096-0.03,0.132
	c-0.006,0.096,0.009,0.187,0.031,0.271c-0.06,0.104-0.106,0.219-0.121,0.345c0,0.025,0,0.058-0.001,0.086
	c0.003,0.206,0.083,0.381,0.207,0.515c-0.067,0.099-0.105,0.207-0.122,0.328c-0.056,0.096-0.097,0.207-0.102,0.319
	c-0.009,0.074-0.006,0.148,0.003,0.219c0.021,0.101,0.062,0.2,0.121,0.285c-0.042,0.074-0.074,0.15-0.087,0.232v0.018
	c-0.027,0.03-0.045,0.067-0.066,0.106l-0.072,0.16c-0.031,0.067-0.053,0.159-0.061,0.245c-0.008,0.074-0.001,0.163,0.014,0.244
	c-0.03,0.066-0.053,0.145-0.06,0.233c-0.014,0.103,0,0.192,0.023,0.287c0,0,0.018,0.058,0.028,0.107
	c-0.004,0.023-0.007,0.031-0.008,0.055c0,0.008-0.003,0.027-0.003,0.039c-0.007,0.068-0.008,0.126,0.002,0.188
	c-0.045,0.093-0.078,0.191-0.082,0.294c-0.009,0.026-0.009,0.052-0.009,0.066c0,0.007,0.008,0.022,0.008,0.026
	c-0.021,0.021-0.036,0.043-0.052,0.074c-0.035,0.084-0.062,0.176-0.078,0.273c-0.008,0.109,0.002,0.229,0.047,0.334
	c0,0,0.019,0.051,0.038,0.1c0.005,0.044,0.013,0.084,0.013,0.084c0,0.011,0.004,0.011,0.004,0.011
	c-0.004,0.025-0.004,0.039-0.004,0.046c-0.005,0.038-0.001,0.066-0.001,0.092c-0.086,0.084-0.152,0.185-0.191,0.31l-0.042,0.131
	c-0.022,0.062-0.034,0.109-0.035,0.161c-0.008,0.136,0.003,0.26,0.058,0.38c-0.052,0.062-0.084,0.132-0.108,0.216
	c-0.017,0.041-0.017,0.094-0.025,0.126c-0.009,0.167,0.023,0.324,0.098,0.453c-0.081,0.102-0.142,0.224-0.17,0.358
	c-0.005,0.02-0.005,0.038-0.01,0.062c-0.011,0.148,0.014,0.282,0.07,0.405v0.046c-0.008,0.042-0.008,0.059-0.009,0.088
	c-0.053,0.086-0.097,0.199-0.117,0.305v0.045c-0.012,0.108,0.005,0.218,0.035,0.312c-0.094,0.119-0.149,0.268-0.171,0.422
	c0,0.021-0.001,0.049-0.001,0.082c-0.001,0.084,0.02,0.178,0.055,0.262c-0.006,0.034-0.013,0.071-0.021,0.101
	c-0.008,0.084-0.001,0.17,0.019,0.254c0.006,0.025,0.019,0.044,0.03,0.07c-0.02,0.155,0.013,0.309,0.083,0.432
	c0.012,0.084,0.03,0.173,0.064,0.258c-0.061,0.096-0.099,0.209-0.118,0.31c-0.018,0.038-0.037,0.062-0.047,0.091
	c-0.158,0.126-0.266,0.306-0.29,0.511v0.027c-0.026,0.255,0.076,0.514,0.274,0.647c-0.197,0.123-0.319,0.329-0.35,0.567v0.023
	c-0.033,0.06-0.05,0.117-0.069,0.197c-0.001,0.018-0.007,0.049-0.012,0.084c-0.01,0.145,0.021,0.273,0.072,0.401
	c-0.053,0.086-0.102,0.188-0.121,0.295c-0.006,0.03-0.008,0.042-0.008,0.07c-0.021,0.155,0.021,0.312,0.094,0.448
	c0,0.018,0.01,0.033,0.01,0.043c-0.054,0.094-0.077,0.188-0.091,0.287c-0.003,0.039-0.003,0.078,0,0.104l0.001,0.151
	c0.007,0.079,0.017,0.142,0.041,0.204c-0.059,0.105-0.099,0.207-0.111,0.319v0.099c-0.065,0.081-0.116,0.192-0.134,0.316
	c-0.003,0.016-0.004,0.033-0.006,0.043c-0.011,0.14,0.013,0.281,0.067,0.401c-0.032,0.071-0.06,0.159-0.07,0.239
	c0,0.001,0,0.017-0.001,0.026l0.001,0.016c-0.033,0.076-0.066,0.172-0.075,0.265l-0.013,0.153c-0.019,0.146,0.007,0.274,0.063,0.39
	c-0.094,0.111-0.158,0.239-0.174,0.398c-0.006,0.004-0.006,0.021-0.006,0.021c-0.011,0.094-0.003,0.172,0.016,0.249
	c-0.014,0.054-0.031,0.103-0.04,0.169c-0.005,0.091-0.002,0.181,0.023,0.273c0.005,0.017,0.015,0.039,0.026,0.055
	c-0.008,0.03-0.017,0.065-0.017,0.086c0,0.02-0.004,0.03-0.006,0.051v0.136c-0.006,0.153,0.036,0.304,0.119,0.426
	c-0.072,0.101-0.119,0.228-0.13,0.352c-0.006,0.067-0.005,0.136,0.006,0.206l0.021,0.138c0.004,0.032,0.015,0.055,0.026,0.077
	c-0.094,0.066-0.162,0.163-0.214,0.271c-0.021,0.005-0.044,0.004-0.066,0.01c-0.011,0.005-0.034,0.023-0.045,0.028
	c-0.111-0.096-0.252-0.154-0.403-0.161c0,0-0.017,0.002-0.023,0.003c-0.116-0.007-0.224,0.035-0.333,0.09
	c-0.024,0-0.047,0.002-0.076,0.004c-0.051,0.006-0.093,0.019-0.146,0.042c-0.099-0.058-0.222-0.098-0.334-0.095
	c-0.056,0.002-0.136,0.013-0.202,0.034c-0.064,0.022-0.122,0.055-0.18,0.098c-0.052,0.008-0.104,0.03-0.146,0.056
	c-0.082-0.034-0.155-0.055-0.243-0.049c-0.021-0.008-0.044-0.006-0.062-0.004c-0.055,0.005-0.105,0.019-0.139,0.033
	c-0.102-0.063-0.224-0.095-0.337-0.096c-0.002,0-0.008,0-0.013,0.001c-0.07,0.003-0.147,0.022-0.228,0.054
	c-0.094-0.046-0.188-0.067-0.29-0.07c-0.044,0.004-0.086,0.007-0.132,0.012c-0.024,0.008-0.059,0.021-0.077,0.034
	c-0.096-0.054-0.211-0.087-0.328-0.086c-0.008-0.003-0.017-0.002-0.038,0l-0.12,0.004c-0.138,0.011-0.264,0.061-0.358,0.131
	c-0.021,0.004-0.031,0.01-0.042,0.011c-0.077-0.057-0.18-0.09-0.28-0.104l-0.128-0.021c-0.033,0.004-0.059-0.008-0.077-0.006
	c-0.181,0.002-0.349,0.07-0.47,0.198c-0.009,0.005-0.025,0.007-0.025,0.007c-0.043-0.012-0.083-0.018-0.12-0.02
	c-0.014,0.001-0.039,0-0.048-0.002c-0.109-0.002-0.233,0.033-0.328,0.092c-0.014-0.009-0.035-0.016-0.049-0.025
	c-0.063-0.026-0.12-0.041-0.174-0.051c-0.114-0.072-0.233-0.108-0.364-0.107c-0.042,0-0.081,0.003-0.137,0.013
	c-0.08,0.018-0.162,0.058-0.232,0.104c-0.011-0.007-0.031-0.005-0.05-0.011c-0.108-0.117-0.264-0.2-0.425-0.211
	c-0.026-0.006-0.047-0.005-0.065-0.008c-0.146,0.003-0.278,0.054-0.397,0.134c-0.033-0.005-0.08-0.017-0.116-0.014
	c-0.048,0.001-0.1,0.007-0.148,0.015c-0.102-0.072-0.228-0.112-0.361-0.119c-0.094,0.004-0.172,0.021-0.254,0.055
	c-0.065-0.029-0.123-0.055-0.187-0.06c-0.031-0.004-0.055-0.001-0.082-0.003c-0.148,0-0.291,0.049-0.414,0.14
	c-0.025-0.008-0.102-0.041-0.102-0.041c-0.081-0.028-0.166-0.05-0.25-0.047c-0.064,0-0.136,0.013-0.195,0.035
	c-0.018-0.008-0.041-0.01-0.062-0.007c-0.012-0.004-0.019-0.003-0.045-0.001c-0.109,0.01-0.224,0.054-0.314,0.115
	c-0.047-0.013-0.092-0.016-0.145-0.015l-0.125-0.003c-0.066,0.002-0.127,0.011-0.183,0.025c-0.019-0.003-0.042-0.005-0.072-0.006
	c-0.053,0.005-0.104,0.01-0.151,0.021c0,0-0.023,0.003-0.033,0.008c-0.094-0.051-0.203-0.079-0.32-0.083
	c-0.018,0.001-0.039,0.003-0.062,0.005l-0.132,0.012c-0.033,0.004-0.072,0.01-0.113,0.025c-0.122-0.115-0.273-0.178-0.443-0.181
	c-0.014,0.002-0.036,0.003-0.055,0.005l-0.127,0.012c-0.041,0.004-0.083,0.014-0.117,0.029c-0.063-0.024-0.131-0.034-0.195-0.031
	c-0.039-0.006-0.073-0.002-0.107,0.001c-0.081,0.015-0.16,0.046-0.234,0.085c-0.028,0.003-0.051,0-0.066,0l-0.016,0.002
	c-0.126-0.007-0.249,0.029-0.352,0.103c-0.009,0.002-0.033,0.004-0.044,0.004c-0.123-0.126-0.292-0.192-0.47-0.194
	c-0.013,0-0.033,0.002-0.037-0.001l-0.148,0.013c-0.147,0.012-0.283,0.069-0.385,0.16c-0.049-0.016-0.096-0.016-0.134-0.016
	c-0.041,0-0.073,0.004-0.102,0.007c-0.037,0.006-0.07,0.014-0.108,0.021c-0.042-0.012-0.083-0.031-0.142-0.032
	c-0.025-0.007-0.059-0.003-0.081-0.011c-0.125,0.002-0.249,0.045-0.352,0.112c-0.087-0.054-0.18-0.088-0.275-0.1
	c-0.035-0.004-0.066-0.005-0.084-0.009c-0.113,0-0.216,0.029-0.314,0.081c-0.105-0.077-0.234-0.125-0.383-0.134l-0.01,0.001
	c-0.093,0.006-0.172,0.023-0.261,0.057c0-0.005-0.008-0.012-0.008-0.012c-0.111-0.114-0.276-0.17-0.433-0.173
	c-0.014,0.003-0.033,0.004-0.052,0.006c-0.124,0.012-0.236,0.058-0.334,0.128c-0.08-0.042-0.172-0.072-0.269-0.075
	c-0.011,0.001-0.031,0-0.039,0.001c-0.127-0.005-0.24,0.027-0.337,0.097c-0.028,0.002-0.066-0.008-0.083,0.008
	c-0.091-0.043-0.186-0.066-0.278-0.065c-0.043-0.005-0.103,0.007-0.145,0.017c0,0-0.022,0.006-0.033,0.007
	c-0.111-0.067-0.236-0.109-0.367-0.11c-0.005,0.001-0.027-0.001-0.038,0c-0.078,0.004-0.156,0.023-0.22,0.052
	c-0.01,0-0.011-0.001-0.022-0.001c-0.003,0.001-0.005,0.001-0.008,0.001c-0.139,0.008-0.261,0.05-0.367,0.125
	c-0.111-0.106-0.253-0.167-0.411-0.17c-0.008-0.008-0.025-0.006-0.031-0.006c-0.184-0.003-0.354,0.077-0.479,0.208
	c-0.023,0.002-0.044,0.002-0.072,0.002c-0.121,0.002-0.252,0.044-0.357,0.117c-0.077-0.056-0.16-0.105-0.244-0.13
	c-0.122-0.127-0.284-0.195-0.461-0.198l-0.011,0.001c-0.076-0.002-0.151,0.026-0.212,0.046c-0.058-0.031-0.119-0.05-0.183-0.064
	c-0.047-0.01-0.088-0.011-0.128-0.014c-0.209,0.005-0.423,0.104-0.542,0.289c0,0-0.008,0.008-0.014,0.016
	c-0.116-0.074-0.233-0.118-0.366-0.113c-0.059-0.004-0.128,0.004-0.189,0.02l-0.133,0.04c-0.013,0.001-0.031,0.012-0.048,0.016
	c-0.011-0.001-0.021-0.001-0.028,0c-0.026-0.001-0.048,0.005-0.058,0.006c-0.092-0.077-0.202-0.143-0.319-0.171
	c-0.048-0.014-0.092-0.017-0.152-0.015c-0.099-0.005-0.194,0.024-0.291,0.07c-0.066-0.027-0.121-0.04-0.19-0.051
	c-0.11-0.076-0.249-0.12-0.384-0.12c-0.148-0.002-0.283,0.049-0.396,0.13c-0.043-0.005-0.089-0.013-0.089-0.013
	c-0.039-0.009-0.074-0.013-0.111-0.01c-0.074,0-0.163,0.016-0.241,0.051c-0.02-0.008-0.047-0.016-0.072-0.021
	c-0.057-0.046-0.128-0.079-0.205-0.104c0.75,0.616,1.524,1.203,2.311,1.775c0.034-0.012,0.072-0.009,0.103-0.027
	c0,0,0.046-0.023,0.089-0.047c0.039-0.009,0.075-0.021,0.075-0.021c0.011-0.001,0.01-0.005,0.01-0.005c0.022,0.002,0.036,0,0.042,0
	c0.036,0,0.061-0.006,0.084-0.008c0.083,0.077,0.18,0.134,0.298,0.16l0.124,0.029c0.058,0.016,0.102,0.023,0.149,0.019
	c0.125-0.005,0.237-0.028,0.342-0.094c0.061,0.046,0.127,0.069,0.206,0.085c0.039,0.015,0.086,0.011,0.117,0.016
	c0.153-0.008,0.294-0.057,0.405-0.144c0.1,0.072,0.215,0.12,0.339,0.136c0.021,0.003,0.038,0.001,0.06,0.003
	c0.136-0.004,0.256-0.042,0.362-0.111h0.009c0.014-0.001,0.019-0.001,0.035-0.003c0.038,0.005,0.052,0.003,0.08,0.001
	c0.083,0.044,0.19,0.077,0.288,0.087c0.012-0.001,0.025-0.002,0.041-0.004c0.102,0.002,0.198-0.024,0.283-0.064
	c0.117,0.082,0.256,0.122,0.4,0.129c0.018-0.002,0.044-0.004,0.074-0.007c0.078-0.007,0.161-0.036,0.234-0.079
	c0.031,0.003,0.065,0.006,0.094,0.01c0.077,0.001,0.153-0.014,0.229-0.043c0.022-0.008,0.038-0.022,0.061-0.035
	c0.142,0.005,0.28-0.043,0.386-0.123c0.075-0.021,0.155-0.048,0.229-0.09c0.094,0.052,0.201,0.078,0.292,0.088
	c0.038,0.014,0.062,0.03,0.089,0.039c0.128,0.145,0.3,0.233,0.491,0.238c0.009,0,0.009,0,0.025-0.003
	c0.234,0.003,0.461-0.126,0.565-0.334c0.13,0.183,0.329,0.285,0.548,0.292c0.012-0.001,0.012-0.001,0.021-0.002
	c0.056,0.027,0.111,0.039,0.186,0.051c0.018-0.002,0.045,0.002,0.078,0.003c0.131-0.003,0.247-0.048,0.358-0.109
	c0.084,0.044,0.181,0.083,0.281,0.09c0.027,0.005,0.038,0.004,0.064,0.001c0.144,0.007,0.281-0.049,0.4-0.136
	c0.016-0.001,0.029-0.012,0.039-0.013c0.089,0.044,0.176,0.058,0.269,0.062c0.036,0,0.072-0.003,0.094-0.01l0.139-0.017
	c0.07-0.015,0.128-0.03,0.181-0.061c0.102,0.05,0.198,0.08,0.3,0.08c0.031-0.003,0.053-0.005,0.091-0.008
	c0.08,0.058,0.188,0.095,0.3,0.102c0.016,0.002,0.031,0.001,0.041,0.002c0.128-0.002,0.254-0.039,0.359-0.105
	c0.068,0.024,0.151,0.044,0.223,0.047c0.002,0,0.017-0.001,0.025-0.002l0.015-0.001c0.073,0.024,0.162,0.048,0.246,0.049
	l0.142-0.002c0.134,0.005,0.25-0.034,0.35-0.101c0.11,0.083,0.231,0.135,0.378,0.134c0.004,0.006,0.021,0.004,0.021,0.004
	c0.086,0.003,0.156-0.013,0.225-0.039c0.05,0.008,0.097,0.021,0.158,0.023c0.083-0.004,0.166-0.015,0.247-0.049
	c0.015-0.009,0.035-0.02,0.048-0.031c0.027,0.005,0.06,0.01,0.079,0.009c0.019-0.002,0.028,0.001,0.047,0l0.125-0.012
	c0.141-0.008,0.273-0.065,0.376-0.16c0.098,0.062,0.219,0.097,0.331,0.096c0.062,0.001,0.125-0.008,0.188-0.026l0.124-0.034
	c0.03-0.008,0.05-0.021,0.069-0.033c0.105,0.134,0.261,0.225,0.439,0.241l0.133,0.02c0.019,0.002,0.044,0.004,0.072,0.002
	c0.118,0.003,0.238-0.03,0.345-0.095l0.13-0.075c0.011-0.013,0.017-0.019,0.03-0.026c0.042,0.002,0.078,0.016,0.119,0.013
	l0.119,0.003c0.014,0.002,0.016,0.007,0.025,0.006c0.035-0.003,0.074-0.007,0.113-0.011c0.117,0.094,0.256,0.145,0.406,0.15
	c0.026-0.003,0.043-0.016,0.081-0.02c0.042,0.022,0.103,0.027,0.163,0.034c0.009-0.001,0.009-0.001,0.013-0.001
	c0.117-0.002,0.239-0.036,0.344-0.096c0.048,0.01,0.111,0.023,0.173,0.025c0.036,0.001,0.074-0.002,0.112-0.011
	c0.048,0.023,0.111,0.037,0.166,0.046c0.031,0.011,0.07,0.012,0.111,0.02c0.083-0.003,0.159-0.026,0.231-0.05
	c0.011-0.002,0.022-0.002,0.026-0.002c0.069,0.002,0.121-0.004,0.187-0.021c0.095,0.059,0.205,0.089,0.32,0.095l0.136,0.004
	l0.009,0.001c0.071-0.001,0.144-0.013,0.205-0.03l0.131-0.042c0.072-0.025,0.136-0.058,0.192-0.103
	c0.122,0.005,0.229-0.033,0.324-0.093c0.094,0.088,0.202,0.153,0.319,0.181c0.056,0.014,0.1,0.02,0.154,0.016
	c0.062,0.002,0.122-0.012,0.189-0.03c0.099,0.058,0.214,0.093,0.334,0.095c0,0,0.018-0.002,0.023-0.002
	c0.138-0.003,0.269-0.056,0.363-0.137c0.048,0.018,0.092,0.023,0.136,0.024h0.007c0.194,0.001,0.375-0.092,0.502-0.235
	c0.053,0.006,0.105,0.017,0.163,0.015c0.017,0.002,0.035,0.001,0.044,0c0.129,0.136,0.305,0.222,0.494,0.216
	c0.021,0.006,0.044,0.004,0.077,0c0.036-0.003,0.081-0.016,0.12-0.026c0.021,0.006,0.053,0.018,0.077,0.028l0.106,0.034
	c0.067,0.021,0.136,0.034,0.206,0.031c0.094,0.003,0.224-0.032,0.323-0.086c0.002-0.002,0.008-0.012,0.014-0.017
	c0.042-0.007,0.087-0.018,0.125-0.039c0.09,0.059,0.197,0.085,0.307,0.086c0.084,0,0.152-0.013,0.225-0.039
	c0.017-0.011,0.047-0.023,0.075-0.036c0.072,0.03,0.134,0.051,0.209,0.06c0.021,0.001,0.045,0.005,0.073,0.002
	c0.064,0.006,0.12-0.009,0.179-0.025c0.051,0.017,0.104,0.023,0.151,0.021c0.041-0.001,0.079-0.011,0.118-0.018
	c0.217,0.174,0.713,0.138,0.713,0.138c0.998,0.12,0.912-0.255,0.912-0.255c0.006-0.104-0.001-0.19-0.028-0.282
	c0.037-0.068,0.067-0.13,0.079-0.198c0.007-0.033,0.007-0.059,0.012-0.089c0.001-0.009-0.002-0.017-0.001-0.025
	c0.079-0.191,0.066-0.398-0.034-0.572c0.032-0.077,0.062-0.155,0.066-0.239c0.007-0.07,0-0.148-0.017-0.215
	c0.011-0.02,0.014-0.044,0.016-0.068c0.005-0.012,0.005-0.02,0.005-0.049c0.001-0.12-0.03-0.247-0.082-0.352
	c0.018-0.051,0.023-0.099,0.028-0.157l0.017-0.135c0.005-0.072,0.001-0.14-0.005-0.201c0.004-0.021,0.009-0.046,0.013-0.079
	c0.001-0.058,0.001-0.115-0.006-0.167c0,0,0-0.026-0.003-0.037c0.06-0.096,0.1-0.212,0.116-0.338
	c0.001-0.02,0.001-0.044,0.001-0.069l0.003-0.144c0-0.036-0.002-0.079-0.014-0.126c0.128-0.121,0.206-0.28,0.227-0.465
	c0-0.015,0-0.039,0.001-0.06v-0.137c0.001-0.046-0.005-0.093-0.016-0.132c0.031-0.066,0.048-0.141,0.053-0.211
	c0.008-0.041,0.008-0.078,0.008-0.115c-0.007-0.089-0.028-0.179-0.06-0.263c0-0.03,0.006-0.056,0.006-0.071l0.001-0.02
	c0.021-0.136-0.003-0.271-0.065-0.392v-0.048c0.139-0.121,0.223-0.299,0.244-0.491c0-0.016,0.001-0.036,0.005-0.042l0.002-0.163
	c0.004-0.159-0.039-0.313-0.119-0.434c0.02-0.052,0.025-0.103,0.029-0.143c0.003-0.046,0.005-0.081,0.005-0.111
	c-0.003-0.041-0.006-0.079-0.009-0.12c0.016-0.045,0.04-0.088,0.047-0.151c0.009-0.026,0.009-0.064,0.019-0.088
	c0.011-0.136-0.019-0.273-0.073-0.392c0.062-0.091,0.104-0.187,0.126-0.29c0.008-0.038,0.013-0.07,0.017-0.092
	c0.013-0.122-0.004-0.235-0.047-0.349c0.089-0.105,0.15-0.243,0.173-0.402v-0.012c0.005-0.101-0.004-0.188-0.028-0.288
	c0.004,0,0.012-0.009,0.012-0.009c0.125-0.109,0.199-0.284,0.216-0.452c0.001-0.017,0.001-0.037,0.001-0.058
	c0.001-0.135-0.033-0.261-0.094-0.376c0.052-0.082,0.091-0.18,0.103-0.284c0-0.013,0.005-0.035,0.005-0.043
	c0.019-0.139-0.001-0.264-0.06-0.377c0-0.03,0.013-0.069,0-0.092c0.053-0.092,0.084-0.194,0.094-0.295
	c0.01-0.047,0.005-0.112-0.001-0.16c0,0-0.003-0.024-0.003-0.035c0.08-0.115,0.134-0.246,0.148-0.389
	c0-0.006,0.004-0.029,0.004-0.041c0.005-0.085-0.006-0.172-0.028-0.244c0-0.01,0.002-0.013,0.002-0.023c0-0.004,0-0.005,0-0.01
	c0.007-0.152-0.021-0.288-0.085-0.41c0.118-0.109,0.193-0.259,0.212-0.431c0.009-0.009,0.008-0.026,0.009-0.033
	c0.022-0.2-0.04-0.392-0.157-0.542c0.002-0.025,0.003-0.047,0.006-0.078c0.011-0.131-0.017-0.277-0.078-0.399
	c0.064-0.079,0.121-0.165,0.155-0.253c0.139-0.12,0.224-0.289,0.245-0.482V75.78c0.011-0.082-0.009-0.168-0.023-0.236
	c0.038-0.061,0.062-0.124,0.084-0.192c0.014-0.05,0.021-0.094,0.027-0.138c0.018-0.228-0.058-0.471-0.23-0.618
	c0,0-0.007-0.008-0.014-0.018c0.086-0.118,0.143-0.239,0.152-0.386c0.008-0.064,0.009-0.139-0.001-0.207l-0.024-0.147
	c0-0.015-0.009-0.035-0.012-0.054c0.003-0.013,0.003-0.023,0.003-0.031c0.005-0.029,0.002-0.054,0.002-0.064
	c0.086-0.092,0.162-0.205,0.203-0.329c0.019-0.052,0.026-0.1,0.031-0.165c0.014-0.106-0.005-0.215-0.041-0.322
	c0.035-0.07,0.053-0.127,0.072-0.202c0.087-0.112,0.145-0.257,0.159-0.405c0.018-0.16-0.019-0.312-0.087-0.441
	c0.009-0.047,0.022-0.097,0.022-0.097c0.011-0.042,0.02-0.079,0.02-0.12c0.009-0.08,0.002-0.178-0.025-0.268
	c0.011-0.02,0.022-0.048,0.03-0.075c0.09-0.102,0.157-0.248,0.178-0.399c0-0.01,0-0.014,0.006-0.031
	c0.005-0.063,0.005-0.135-0.008-0.195c0.011-0.043,0.021-0.078,0.025-0.121v-0.268c-0.008-0.131-0.049-0.25-0.115-0.365
	c0.107-0.116,0.19-0.26,0.213-0.427c0.003-0.021,0.003-0.022,0.003-0.036c0.016-0.121-0.008-0.251-0.05-0.36
	c0-0.037,0.001-0.085-0.001-0.136c0,0-0.003-0.011-0.001-0.023c0.036-0.084,0.059-0.16,0.071-0.259v-0.006
	c0.007-0.082,0.002-0.148-0.016-0.213c0-0.009,0.009-0.009,0.009-0.009c0.021-0.062,0.035-0.123,0.043-0.187
	c0.004-0.029,0.008-0.056,0.006-0.085c0.003-0.07,0.002-0.147-0.018-0.212c0.064-0.083,0.109-0.186,0.128-0.291l0.021-0.147
	c0.009-0.033,0.01-0.048,0.013-0.064c0.004-0.075,0.001-0.163-0.016-0.246l-0.035-0.146c0.007-0.026,0.008-0.053,0.016-0.072
	c0-0.008,0.008-0.014,0.008-0.027c0,0,0-0.008,0-0.01c0.003-0.02,0.015-0.035,0.017-0.056c0-0.023,0.001-0.059,0-0.079
	c0-0.016-0.003-0.029-0.005-0.044c0.003-0.018,0.005-0.034,0.005-0.034c0.003-0.012,0.008-0.031,0.008-0.048
	c0.001-0.01-0.003-0.02-0.002-0.029c0.021-0.056,0.042-0.11,0.047-0.174c0.007-0.061,0.003-0.123-0.01-0.186
	c0.049-0.07,0.104-0.137,0.125-0.222c0.01-0.044,0.014-0.096,0.022-0.125c0.014-0.123-0.008-0.247-0.05-0.356
	c0.033-0.071,0.057-0.134,0.07-0.206v-0.041c0.017-0.138-0.018-0.27-0.067-0.387v-0.014c0.022-0.061,0.039-0.123,0.049-0.196
	c0.004-0.063,0-0.125-0.015-0.198c-0.008-0.104-0.05-0.204-0.111-0.299c0-0.03,0-0.067,0.001-0.1
	c0.186-0.108,0.336-0.307,0.361-0.549c0.006-0.015,0.006-0.027,0.008-0.028c0.02-0.204-0.041-0.398-0.16-0.547
	c0.04-0.077,0.059-0.156,0.076-0.249c0.003-0.008,0.003-0.021,0.004-0.033c0.005-0.083-0.006-0.159-0.022-0.234
	c0.003-0.027,0.004-0.055,0.005-0.085c0.056-0.098,0.093-0.197,0.107-0.31c0-0.013,0.003-0.037,0.003-0.06
	c0,0,0.001-0.067,0.001-0.107c0.01-0.058,0.019-0.121,0.019-0.121c0.003-0.002,0.004-0.021,0.003-0.029
	c0.008-0.06,0.008-0.117,0-0.177c0.009-0.047,0.02-0.094,0.027-0.135c0.003-0.04-0.008-0.08-0.022-0.121
	c0.104-0.079,0.199-0.209,0.095-0.401c-0.041-0.076-0.011-0.171-0.047-0.253c0,0-0.005-0.028-0.024-0.07
	c0.087-0.095,0.132-0.211,0.146-0.349v-0.076c-0.007-0.157-0.066-0.297-0.163-0.413c0.086-0.092,0.146-0.215,0.163-0.339v-0.024
	c0.056-0.086,0.093-0.188,0.103-0.29v-0.105c-0.002-0.102-0.038-0.208-0.082-0.303c0.006-0.038,0.017-0.085,0.017-0.135
	c0.006-0.01,0.006-0.01,0.006-0.021c0.009-0.136-0.023-0.27-0.092-0.371c0.097-0.112,0.15-0.239,0.167-0.38
	c0.001-0.051,0.001-0.091,0-0.142c-0.019-0.104-0.055-0.201-0.108-0.296c0.001-0.021,0.009-0.048,0.009-0.048v-0.01
	c0.04-0.073,0.066-0.157,0.082-0.235l0.026-0.131c0.005-0.014,0.005-0.037,0.005-0.048v-0.025c0,0,0.004-0.033,0.009-0.058
	c0.115-0.107,0.197-0.26,0.208-0.424c0.005-0.024,0.005-0.051,0.005-0.081c-0.005-0.079-0.019-0.154-0.053-0.229
	c0.023-0.062,0.048-0.108,0.056-0.174l0.019-0.134c0-0.008,0.007-0.02,0.007-0.035c0.004-0.108-0.01-0.225-0.059-0.325
	c0,0-0.009-0.028-0.022-0.045c0-0.018-0.001-0.032-0.001-0.032c0-0.034-0.009-0.061-0.016-0.077
	c0.057-0.094,0.098-0.198,0.102-0.303c0.015-0.047,0.015-0.095,0-0.14c0.017-0.038,0.028-0.077,0.028-0.116
	c0.009-0.086,0.004-0.148-0.011-0.215c0,0-0.017-0.034-0.02-0.072c0.018-0.035,0.023-0.076,0.023-0.11
	c0.008-0.066,0.008-0.134-0.005-0.208v-0.003c0.049-0.092,0.086-0.187,0.103-0.291c0.002-0.003,0.002-0.019,0.002-0.02
	c0.006-0.054,0-0.093-0.002-0.138c0.028-0.062,0.051-0.117,0.06-0.185c0.006-0.021,0.013-0.045,0.013-0.069
	c0.016-0.179-0.045-0.369-0.166-0.506c0.016-0.048,0.033-0.097,0.039-0.166c0.003-0.016,0.023-0.022,0.023-0.022
	c0.082-0.112,0.124-0.226,0.141-0.361c0.011-0.134-0.021-0.281-0.097-0.396c0,0-0.013-0.028-0.032-0.061
	c0.021-0.057,0.038-0.117,0.047-0.17c0.068-0.067,0.123-0.142,0.162-0.238c0.023-0.051,0.033-0.113,0.037-0.166
	c0.007-0.102-0.004-0.193-0.029-0.281c0.075-0.095,0.134-0.198,0.158-0.324l0.017-0.127c0.003-0.013,0.003-0.037,0.003-0.05
	c0.014-0.118-0.01-0.234-0.055-0.343c0.016-0.027,0.025-0.062,0.038-0.099c0.005-0.024,0.007-0.061,0.014-0.089
	c0.003-0.118-0.009-0.22-0.052-0.329c0.068-0.084,0.115-0.206,0.123-0.329c0.008-0.1-0.008-0.199-0.041-0.288
	c0.006-0.036,0.014-0.067,0.021-0.104c0.003-0.035,0.003-0.074,0-0.113c-0.013-0.105-0.049-0.201-0.102-0.292
	c0.017-0.018,0.033-0.056,0.041-0.09c0.096-0.088,0.159-0.202,0.189-0.337l0.03-0.129c0.001-0.02,0.006-0.037,0.008-0.073
	c0.014-0.114-0.007-0.218-0.047-0.312c0.004-0.028,0.012-0.056,0.012-0.087c0.016-0.084,0-0.176-0.02-0.266
	c0,0-0.029-0.077-0.039-0.101c0.047-0.092,0.079-0.186,0.086-0.271c0.006-0.085,0-0.169-0.027-0.26
	c0.092-0.084,0.158-0.216,0.177-0.36c0-0.004,0-0.02,0.001-0.02c0.012-0.119-0.01-0.233-0.056-0.332
	c0.065-0.093,0.103-0.2,0.112-0.314c0.002-0.061,0-0.135-0.01-0.196c-0.027-0.105-0.068-0.198-0.134-0.27
	c0.116-0.109,0.192-0.266,0.212-0.423v-0.021c0.008-0.172-0.043-0.319-0.141-0.44c0.006-0.027,0.015-0.035,0.015-0.058
	c0.001-0.064,0-0.122-0.015-0.185c0.006,0,0.015-0.01,0.015-0.01c0.06-0.091,0.098-0.213,0.118-0.319V43.58
	c0,0-0.008-0.068-0.008-0.109c0-0.038,0.008-0.106,0.008-0.106c0-0.071-0.008-0.145-0.024-0.206
	c0.062-0.099,0.097-0.203,0.106-0.305c0.003-0.052,0.003-0.094,0-0.145c0.008-0.029,0.014-0.076,0.021-0.107
	c0.044-0.072,0.07-0.148,0.086-0.222c0-0.028,0.004-0.043,0.004-0.057c0.018-0.159-0.025-0.31-0.111-0.437
	c0.035-0.076,0.062-0.154,0.07-0.232c0.006-0.155-0.035-0.32-0.131-0.445c0.006-0.013,0.006-0.019,0.017-0.03
	c0.114-0.096,0.185-0.228,0.218-0.38c0-0.019,0.004-0.043,0.009-0.059c0.007-0.086-0.009-0.168-0.038-0.25
	c0.049-0.081,0.076-0.166,0.078-0.247c0.018-0.094,0-0.19-0.029-0.269c0.01-0.038,0.02-0.061,0.02-0.094l0.014-0.121v-0.028
	c0.02-0.153-0.023-0.31-0.109-0.438h0.057c0.164-0.006,0.324-0.062,0.45-0.154c0.087,0,0.181-0.01,0.261-0.045l0.115-0.038
	c0.061-0.015,0.107-0.039,0.164-0.071c0.137-0.014,0.273-0.06,0.393-0.116c0.111-0.033,0.22-0.081,0.314-0.153
	c0.085-0.024,0.164-0.072,0.232-0.117c0.055-0.019,0.098-0.041,0.145-0.064c0.169-0.035,0.317-0.111,0.441-0.223
	c0.048-0.021,0.095-0.025,0.134-0.049l0.126-0.064c0.124-0.059,0.226-0.153,0.312-0.262l0.086-0.113
	c0.014-0.008,0.029-0.02,0.043-0.02c0,0,0.003-0.012,0.006-0.012l0.013-0.008c0.164-0.065,0.306-0.18,0.407-0.33
	c0,0,0.061-0.079,0.074-0.107C54.439,37.284,54.534,37.208,54.607,37.107z M15.32,26.576c0,0.023-0.008,0.035-0.012,0.043
	l-0.035,0.136c-0.008,0.046-0.019,0.085-0.019,0.128v0.019c0,0-0.008,0.093-0.008,0.129c-0.003,0.022-0.011,0.097-0.011,0.097v0.023
	c-0.008,0.07-0.006,0.144,0.002,0.211c-0.021,0.071-0.038,0.135-0.042,0.195c-0.013,0.07-0.013,0.125,0,0.188l0.011,0.135
	c0.009,0.037,0.011,0.072,0.022,0.113c-0.001,0.01-0.001,0.021-0.001,0.033c-0.058,0.104-0.099,0.227-0.106,0.351
	c-0.011,0.087-0.008,0.188,0.017,0.286c-0.028,0.07-0.048,0.163-0.053,0.248c-0.014,0.048-0.014,0.094,0,0.147v0.078
	c0,0.035-0.01,0.08-0.01,0.08c-0.004,0.04-0.004,0.078,0.01,0.122v0.06c-0.014,0.038-0.021,0.056-0.028,0.078l-0.03,0.136
	c0,0.014-0.005,0.036-0.009,0.042l-0.022,0.144c-0.009,0.026-0.009,0.045-0.014,0.073v0.07c-0.021,0.065-0.033,0.135-0.045,0.203
	c-0.004,0.074,0,0.151,0.016,0.239c-0.02,0.046-0.03,0.11-0.039,0.17v0.068l-0.004,0.135c0,0.018,0.004,0.035,0.004,0.054
	c-0.018,0.048-0.027,0.1-0.03,0.153c-0.008,0.056-0.008,0.099,0,0.142c-0.016,0.047-0.019,0.089-0.025,0.131
	c-0.006,0.035-0.006,0.087,0,0.138l0.006,0.145c0,0.004,0.003,0.016,0.003,0.023c-0.003,0.016-0.009,0.031-0.009,0.057
	c-0.047,0.1-0.081,0.21-0.092,0.318c-0.009,0.11,0,0.212,0.026,0.324v0.022c-0.017,0.065-0.032,0.136-0.035,0.208
	c0,0.02-0.006,0.055-0.006,0.079v0.079c-0.003,0.038-0.008,0.071-0.008,0.071c-0.003,0.008-0.003,0.024-0.003,0.032
	c-0.008,0.072-0.003,0.145,0.003,0.215c0,0,0.014,0.096,0.014,0.123c-0.014,0.047-0.025,0.09-0.035,0.146
	c-0.053,0.103-0.09,0.216-0.105,0.34c0,0.069,0,0.142,0.011,0.224c0,0,0.005,0.023,0.006,0.035
	c-0.001,0.012-0.001,0.012-0.006,0.019c-0.006,0-0.011-0.007-0.011-0.007H14.61c-0.104-0.086-0.221-0.152-0.352-0.186
	c-0.102-0.12-0.234-0.209-0.388-0.251c-0.112-0.117-0.253-0.193-0.4-0.229v-0.013c-0.003,0-0.087-0.095-0.087-0.095
	c-0.059-0.071-0.133-0.12-0.214-0.176c-0.008-0.005-0.02-0.032-0.02-0.032c-0.028-0.04-0.066-0.077-0.099-0.112
	c-0.011-0.032-0.031-0.071-0.031-0.071c-0.065-0.144-0.168-0.263-0.292-0.355c-0.055-0.102-0.125-0.188-0.211-0.272
	c-0.002-0.002-0.007-0.007-0.011-0.018c0-0.207-0.064-0.397-0.189-0.561c-0.006,0-0.006-0.012-0.008-0.012
	c-0.002-0.07-0.017-0.133-0.039-0.196c0-0.054-0.001-0.108-0.006-0.151c0.006-0.055,0.014-0.105,0.023-0.147
	c0-0.052,0-0.091-0.009-0.139c0.014-0.049,0.028-0.089,0.031-0.129c0.002-0.042,0-0.081,0-0.128
	c0.019-0.043,0.035-0.082,0.047-0.135l0.035-0.123c0.011-0.035,0.019-0.07,0.023-0.107l0.012-0.123
	c0.002-0.02,0.002-0.036,0.009-0.052c0.007-0.033-0.007-0.072-0.007-0.111c0.033-0.031,0.063-0.078,0.063-0.078
	c0.063-0.077,0.101-0.161,0.13-0.255c0.083-0.115,0.144-0.248,0.158-0.397v-0.01h0.013c0.006-0.033,0.022-0.069,0.031-0.103
	c0.021-0.035,0.048-0.076,0.065-0.115c0.139-0.106,0.242-0.246,0.307-0.398c0.123-0.117,0.211-0.249,0.266-0.416v-0.006
	c0.127-0.109,0.231-0.244,0.295-0.386c0.104-0.073,0.191-0.172,0.269-0.271c0.053-0.048,0.097-0.089,0.144-0.141l0.087-0.112
	c0.003,0,0.003-0.005,0.003-0.005c0.102-0.072,0.19-0.161,0.259-0.252c0.099-0.066,0.185-0.137,0.251-0.233
	c0.023-0.009,0.048-0.027,0.067-0.038l0.1-0.096c0.062-0.046,0.115-0.104,0.164-0.167l0.083-0.116
	c0.013-0.012,0.017-0.02,0.023-0.033c0.039-0.037,0.072-0.064,0.101-0.097c0.012,0,0.023-0.016,0.043-0.024
	c-0.02,0.064-0.031,0.121-0.039,0.193C15.307,26.423,15.308,26.497,15.32,26.576z M53.792,34.668
	c-0.07,0.118-0.117,0.252-0.129,0.394v0.028c-0.012,0.024-0.023,0.062-0.029,0.079c0,0-0.015,0.051-0.021,0.083
	c-0.012,0.022-0.012,0.03-0.02,0.047c-0.134,0.129-0.227,0.289-0.268,0.465c-0.023,0.028-0.042,0.049-0.059,0.074
	c-0.037,0.021-0.068,0.031-0.094,0.052l-0.104,0.092c-0.09,0.065-0.16,0.159-0.223,0.255c-0.012,0-0.024,0.02-0.04,0.029
	c0,0-0.039,0.029-0.069,0.053c-0.037,0.023-0.078,0.047-0.078,0.047c-0.086,0.055-0.164,0.131-0.227,0.211
	c-0.152,0.018-0.297,0.078-0.424,0.179c-0.093,0.034-0.189,0.106-0.266,0.169h-0.006c-0.087,0.015-0.172,0.037-0.26,0.077
	c-0.168,0.028-0.318,0.095-0.447,0.207c-0.035,0.011-0.082,0.019-0.082,0.019c-0.006,0-0.006,0.019-0.016,0.019h-0.037
	c0.004-0.019,0.01-0.032,0.01-0.04c0.003-0.025,0.003-0.051,0.003-0.066c0.023-0.07,0.034-0.138,0.04-0.203
	c0.014-0.109,0-0.211-0.021-0.319v-0.022l0.005-0.142c0-0.032-0.005-0.067-0.005-0.09c0.068-0.126,0.113-0.255,0.123-0.381
	c0.007-0.106,0-0.21-0.025-0.317c0.029-0.076,0.051-0.15,0.059-0.236c0.002-0.055,0.002-0.095,0-0.153c0,0-0.006-0.046-0.006-0.083
	c0.012-0.051,0.026-0.118,0.031-0.176c0.004,0,0.004-0.014,0.004-0.023l0.008-0.146c0.031-0.07,0.046-0.158,0.059-0.235
	c0.002-0.069,0.002-0.147-0.005-0.225c0,0-0.008-0.009-0.013-0.023c0-0.01,0.005-0.023,0.005-0.023
	c0.013-0.068,0.008-0.14-0.005-0.201c0.013-0.022,0.013-0.046,0.018-0.069c0-0.035-0.005-0.066-0.005-0.102
	c0.016-0.039,0.034-0.08,0.04-0.134l0.015-0.136c0-0.008,0.005-0.027,0.008-0.044c0.008-0.076,0-0.161-0.011-0.231
	c0-0.014,0.003-0.032,0.003-0.047c0.005-0.045,0-0.086,0-0.141c0.008-0.033,0.021-0.052,0.023-0.074
	c0.015-0.033,0.042-0.11,0.042-0.11c0.016-0.068,0.035-0.14,0.039-0.213c0.006-0.04,0.006-0.082,0.006-0.129l-0.006-0.13
	c0,0-0.004-0.033-0.004-0.047c0.004-0.014,0.004-0.037,0.004-0.037c0.006-0.017,0.012-0.039,0.012-0.077
	c0.008-0.046,0.008-0.1,0-0.154c0.008-0.015,0.014-0.022,0.014-0.03l0.018-0.136c0.002-0.018,0.016-0.055,0.016-0.07
	c0.002-0.032,0.002-0.053,0.002-0.081c0.02-0.062,0.035-0.126,0.039-0.196c0.007-0.091,0.006-0.184-0.02-0.283
	c0.033-0.078,0.064-0.173,0.068-0.258c0.012-0.069,0.002-0.13,0-0.204c0.002-0.018,0.002-0.041,0.012-0.068
	c0.002-0.053,0.002-0.117-0.01-0.18c0.012-0.035,0.019-0.068,0.019-0.091c0.009-0.085,0.003-0.172-0.009-0.257
	c0.009-0.049,0.02-0.104,0.025-0.155c0.008-0.035,0.008-0.07,0.008-0.109c0,0,0-0.053-0.008-0.097
	c0.021-0.052,0.037-0.123,0.047-0.189c0.006-0.058,0.004-0.111,0-0.168c0.006-0.039,0.014-0.074,0.014-0.102
	c0.004-0.02,0-0.043,0-0.061c0.032,0.049,0.063,0.096,0.103,0.147c0,0,0.063,0.087,0.075,0.091c0.008,0.021,0.043,0.058,0.065,0.092
	c0.017,0.02,0.067,0.103,0.067,0.103c0.053,0.077,0.123,0.144,0.195,0.202c0.043,0.047,0.082,0.098,0.135,0.133
	c0,0,0.012,0.023,0.033,0.04c0.041,0.17,0.131,0.312,0.252,0.426c0.029,0.049,0.059,0.088,0.09,0.129
	c0.035,0.097,0.079,0.183,0.146,0.262c0.034,0.142,0.102,0.292,0.199,0.405c0,0,0.035,0.041,0.062,0.073
	c0.027,0.156,0.104,0.315,0.21,0.436c0.017,0.183,0.093,0.368,0.212,0.513c0.02,0.064,0.046,0.122,0.074,0.186
	c0,0.108,0.019,0.218,0.062,0.32l0.045,0.117c0.02,0.052,0.045,0.096,0.066,0.137c0,0.052,0.002,0.094,0.002,0.094
	c0.007,0.136,0.042,0.266,0.107,0.383c0.002,0.012,0.002,0.019,0.002,0.034v0.013c-0.002,0.062,0,0.119,0.008,0.198
	c-0.008,0-0.008,0.009-0.008,0.009l-0.018,0.141c-0.002,0.017-0.006,0.033-0.006,0.052c-0.006,0.084-0.006,0.159,0.012,0.249
	l0.02,0.137c0,0,0.008,0.012,0.008,0.018L53.792,34.668z M77.584,34.25l-0.107-0.03l-0.126-0.014
	c-0.136-0.064-0.29-0.078-0.436-0.044l-0.178,0.11l-0.072,0.013l-0.048,0.021l-0.082,0.038l-0.104,0.026l-0.025,0.007l-0.137,0.066
	l-0.115,0.023c-0.098,0.032-0.146,0.199-0.266,0.19c-0.395-0.04-0.21,0.603-0.21,0.604c0.071,0.555,0.303,0.623,0.303,0.623
	c0.041,0.142,0.526,0.312,0.593,0.157l0.224-0.025l0.003,0.005l0.193-0.12l0.234,0.038l0.071-0.018l0.208-0.05l0.118-0.022
	l0.055-0.015c0.254-0.115,0.396-0.394,0.363-0.674l0.039-0.123C78.153,34.682,77.926,34.333,77.584,34.25z M68.149,35.832
	l-0.091-0.081c-0.075-0.131-0.183-0.22-0.306-0.263l-0.188,0.007l-0.061-0.025l-0.045-0.007l-0.081-0.007
	c-0.043-0.016-0.09-0.029-0.09-0.029l-0.022-0.007l-0.137-0.01l-0.081-0.059c-0.073-0.041-0.201,0.05-0.266-0.037
	c-0.192-0.274-0.542,0.303-0.543,0.301c-0.365,0.432-0.245,0.643-0.241,0.645c-0.081,0.123,0.205,0.617,0.372,0.564
	c0.057,0.057,0.131,0.133,0.212,0.151l-0.001,0.004l0.254,0.012l0.191,0.158l0.077,0.025l0.227,0.073l0.124,0.046l0.062,0.019
	c0.309,0.039,0.585-0.094,0.686-0.375l0.094-0.097c0.231-0.301,0.168-0.697-0.076-0.924L68.149,35.832z M50.34,21.116
	c0.083,0.117,0.603,0.125,0.624-0.04c0.073-0.016,0.153-0.043,0.213-0.092c0,0,0.003,0.005,0.005,0.004
	c0.064-0.047,0.111-0.104,0.154-0.174c0.083,0.007,0.164-0.009,0.238-0.034c0.022-0.009,0.043-0.024,0.064-0.037l0.19-0.109
	c0.036-0.016,0.072-0.032,0.108-0.058c0.015-0.012,0.03-0.015,0.049-0.03c0.216-0.185,0.287-0.488,0.185-0.754
	c0.009-0.041,0.012-0.08,0.009-0.129c-0.018-0.367-0.328-0.646-0.695-0.627l-0.116,0.001c-0.058,0.009-0.095,0.012-0.132,0.023
	c-0.156-0.024-0.314,0.014-0.452,0.093l-0.148,0.166c-0.023,0.013-0.047,0.021-0.07,0.036c-0.009,0.007-0.028,0.021-0.042,0.033
	c0,0-0.047,0.041-0.074,0.064c-0.047,0.027-0.096,0.059-0.096,0.059c-0.004-0.002-0.017,0.01-0.022,0.015
	c-0.046,0.031-0.085,0.065-0.121,0.109c-0.038,0.021-0.078,0.04-0.11,0.06c-0.089,0.063-0.092,0.239-0.216,0.271
	c-0.405,0.102-0.028,0.655-0.028,0.655C50.095,21.128,50.34,21.116,50.34,21.116z M59,43.379l-0.096-0.066
	c-0.051-0.025-0.084-0.045-0.121-0.056c-0.119-0.116-0.279-0.182-0.445-0.19c-0.01-0.004-0.01-0.004-0.023-0.002
	c-0.098,0.006-0.199,0.028-0.283,0.069c-0.013,0.002-0.021-0.003-0.039-0.001c-0.086,0.001-0.177,0.021-0.264,0.055
	c-0.022,0.001-0.053-0.004-0.076-0.004c-0.074-0.002-0.145,0.013-0.215,0.031c-0.012,0.004-0.035,0.023-0.045,0.027
	c-0.01-0.008-0.022-0.012-0.033-0.02l-0.36,0.045c-0.028-0.004-0.052-0.015-0.083-0.018c-0.008-0.004-0.019-0.003-0.029-0.002
	c-0.096,0.002-0.18,0.021-0.263,0.055c-0.103-0.057-0.206-0.08-0.319-0.084c-0.012,0.001-0.033,0.001-0.055,0.004
	c0,0-0.062,0.005-0.098,0.009c-0.053-0.005-0.111-0.008-0.111-0.008c-0.003-0.003-0.02-0.001-0.027-0.001
	c-0.055,0-0.107,0.004-0.162,0.019c-0.043-0.005-0.087-0.011-0.125-0.014c-0.109-0.001-0.212,0.13-0.33,0.088
	c-0.391-0.137-0.401,0.474-0.401,0.474c-0.097,0.502,0.112,0.621,0.112,0.621c0,0.131,0.42,0.408,0.532,0.297
	c0.067,0.026,0.149,0.048,0.227,0.043c0,0,0,0.005,0.001,0.005c0.08-0.001,0.152-0.019,0.227-0.048
	c0.064,0.05,0.14,0.08,0.215,0.101c0.043,0.009,0.088,0.006,0.137,0.009c0.026-0.002,0.047-0.004,0.076-0.006
	c0.063,0.024,0.141,0.045,0.217,0.043c0.008-0.001,0.023-0.002,0.031-0.003c0.068,0.034,0.146,0.05,0.229,0.052h0.36
	c0.029,0.004,0.058,0.013,0.084,0.012c0.138-0.001,0.271-0.039,0.383-0.118c0,0,0.025-0.019,0.045-0.034
	c0.064,0.028,0.131,0.044,0.203,0.049c0.02,0.004,0.034,0.003,0.038,0.003c0.016,0,0.032-0.001,0.052-0.004
	c0.094,0.058,0.199,0.092,0.318,0.089c0.02-0.001,0.035,0.006,0.059,0.004c0.282-0.027,0.516-0.234,0.584-0.51
	c0.031-0.029,0.057-0.059,0.082-0.101C59.404,43.981,59.31,43.575,59,43.379z M92.506,31.47l0.011-0.02v-0.059l-0.036-0.28
	l0.022-0.166l-0.001-0.037v-0.049c0.014-0.045,0.036-0.096,0.036-0.096l0.047-0.266l-0.04-0.214l0.023-0.228
	c0.005-0.08-0.023-0.158-0.082-0.209l-0.112-0.121l-0.095-0.073l-0.003-0.015l-0.15-0.162l0.013-0.29l-0.101-0.168
	c-0.061-0.08-0.153-0.139-0.244-0.173l-0.263-0.153c0.021-0.181-0.04-0.335-0.174-0.447l-0.06-0.048l-0.3-0.096l-0.168-0.168
	l-0.107-0.03c-0.141-0.028-0.298,0.007-0.417,0.09l-0.029-0.014l-0.262-0.024l-0.173-0.119l-0.011-0.005l-0.114-0.005
	c-0.044-0.184-0.187-0.33-0.373-0.377l-0.024-0.007l-0.185,0.008l-0.049-0.021l-0.105-0.007c-0.152,0.02-0.284,0.117-0.38,0.256
	l-0.04,0.002l-0.135,0.038l-0.037-0.006l-0.008-0.002l-0.172-0.186l-0.108-0.079l-0.262-0.07l-0.173,0.045l-0.052,0.037
	l-0.098-0.003c-0.114,0.014-0.221,0.062-0.298,0.153l-0.102,0.046l-0.119-0.015c-0.097-0.069-0.201-0.084-0.309-0.052l-0.015,0.002
	l-0.181,0.097l-0.026,0.001l-0.159,0.081l-0.061,0.007l-0.104,0.033l-0.144,0.133l-0.161-0.003l0.419,1.4l0.081-0.003l0.017-0.006
	l0.067-0.023l0.066-0.005l0.036-0.005l0.185-0.129l0.18,0.015l0.021-0.006l0.141-0.083c0.1,0.1,0.223,0.177,0.342,0.162l0.016-0.008
	c0.142-0.013,0.25-0.15,0.314-0.328l0.063,0.004l0.177,0.115l0.115,0.036l0.118-0.023l0.007,0.001
	c0.063,0.063,0.136,0.112,0.218,0.11l0.023,0.004l0.125-0.044l0.192,0.091l0.069,0.004l0.213-0.107l0.145,0.079l0.026,0.002
	l0.065,0.01l0.059,0.018h0.018l0.041-0.002l0.064,0.062l0.107,0.085l0.034,0.007l0.076,0.021l0.185-0.032l0.109,0.087l0.119,0.027
	L90.1,29.47l0.069,0.089l0.001,0.003l0.134,0.032l0.011,0.011l0.047,0.048l0.09,0.157l0.008,0.011
	c0.05,0.052,0.139,0.052,0.247,0.032c-0.021,0.087-0.025,0.154-0.001,0.204l0.026,0.062l0.007,0.042l0.03,0.038l0.008,0.079
	l0.007,0.01c0.03,0.048,0.106,0.079,0.206,0.097l0.028,0.025l-0.066,0.13l0.002,0.052l0.008,0.039
	c-0.083,0.065-0.136,0.125-0.139,0.187c0.002,0.06,0.043,0.118,0.119,0.177l0.053,0.099l-0.053,0.127l-0.013,0.078l0.055,0.215
	l-0.024,0.028l-0.008,0.015l-0.03,0.019l-0.073,0.052l-0.076,0.085c-0.045,0.065-0.039,0.145-0.013,0.241l-0.018,0.002
	c-0.188-0.031-0.321,0.015-0.376,0.114l-0.022,0.074l-0.019,0.12l-0.138,0.056l-0.006,0.004c-0.085,0.069-0.115,0.179-0.093,0.317
	l-0.035,0.195c-0.103-0.008-0.193,0.016-0.253,0.063l-0.037,0.028c-0.142-0.046-0.269-0.038-0.354,0.038l-0.01,0.018
	c-0.074,0.065-0.107,0.175-0.108,0.309l-0.282-0.009h-0.007l-0.013,0.007l-0.157,0.014l-0.021,0.012
	c-0.076,0.033-0.133,0.103-0.172,0.19l-0.021,0.004l-0.096,0.022l-0.142,0.132l-0.053,0.016c-0.085-0.034-0.161-0.033-0.236,0.006
	l-0.024,0.01l-0.136,0.142l-0.237-0.026l-0.031,0.01c-0.091,0.047-0.188,0.106-0.229,0.235l-0.004,0.01l-0.18-0.014l-0.009,0.002
	c-0.094,0.029-0.17,0.094-0.223,0.182l-0.218-0.027l-0.055,0.02l-0.169,0.11l-0.248-0.083l-0.05,0.015l-0.091,0.039l-0.072-0.013
	l-0.068,0.001l-0.088,0.023c-0.071-0.074-0.156-0.147-0.251-0.157l-0.096-0.019l-0.022,0.001c-0.114-0.003-0.223,0.057-0.313,0.176
	l-0.027-0.004c-0.063-0.075-0.14-0.106-0.216-0.121l-0.01-0.002l-0.039-0.007l-0.132-0.113l-0.062-0.014l-0.124,0.009l-0.067-0.044
	L84.529,34l-0.032-0.012c-0.106-0.01-0.193-0.003-0.306,0.08l-0.053-0.046l-0.073-0.04l-0.031-0.018l-0.216,0.005l-0.014-0.015
	l-0.071-0.061l-0.036-0.019l-0.076-0.079l-0.06-0.036l-0.077-0.033l-0.085-0.183l-0.02-0.013l-0.025-0.02l-0.039-0.098l-0.115-0.06
	l-0.066-0.012c0.033-0.104-0.002-0.167-0.014-0.233l-0.016-0.031l-0.081-0.047l-0.005-0.121l-0.154-0.119l0.023-0.078l-0.007-0.055
	c0.085-0.071,0.137-0.134,0.145-0.198l-0.007-0.028c-0.01-0.068-0.091-0.142-0.203-0.212l-0.012-0.027l0.091-0.099l0.004-0.067
	c-0.027-0.063,0.025-0.131-0.02-0.215l0.012-0.106l-0.007-0.034c0.083-0.03,0.151-0.076,0.182-0.133l0.012-0.026l0.021-0.069
	l0.013-0.011c0.142-0.003,0.246-0.046,0.294-0.135l0.018-0.04l0.015-0.077l-0.002-0.192c0.047-0.01,0.093-0.027,0.136-0.056
	c0.053-0.008,0.109-0.005,0.15-0.032l0.062-0.044l0.02-0.016c0.056-0.043,0.089-0.111,0.102-0.188l0.06-0.007l0.07-0.044l0.096-0.17
	l0.143-0.052l0.005-0.006c0.056-0.046,0.097-0.121,0.108-0.214l0.087-0.03l0.027-0.029l0.09-0.143l0.118,0.006l0.158,0.034
	L85,29.976c0.069-0.026,0.125-0.093,0.158-0.168l0.104-0.002l0.049-0.017c0.087,0.019,0.167,0.025,0.23-0.009l0.017-0.005
	c0.088-0.043,0.146-0.136,0.18-0.252l0.038,0.016l0.14-0.032l0.042-0.024l0.172-0.021l0.023-0.011l0.135-0.012l-0.489-1.627
	l-0.044,0.054l-0.039,0.014l-0.028,0.012l-0.132,0.113l-0.045-0.017c-0.111-0.038-0.225-0.027-0.326,0.017l-0.005,0.003l0.085-0.146
	l0.017-0.058l0.127-0.189l0.011-0.03l0.104-0.148l-0.479-0.113l0.377,0.089l0.027-0.091l0.005-0.021l0.008-0.092l0.024-0.077
	l0.01-0.042l-0.038-0.271l0.087-0.201l0.002-0.025l-0.018-0.192c0.153-0.082,0.227-0.221,0.233-0.377l-0.006-0.024
	c0.009-0.188-0.114-0.353-0.279-0.443l0.013-0.075l0.14-0.215l0.022-0.151l-0.043-0.148v-0.01c0.051-0.089,0.085-0.19,0.071-0.298
	v-0.032l-0.066-0.154l0.052-0.281L85.63,24.09c-0.043-0.095-0.117-0.175-0.21-0.231l-0.008-0.222L85.399,23.6l-0.025-0.083
	l-0.014-0.085l-0.012-0.021l-0.022-0.052l0.014-0.123l-0.047-0.194l-0.026-0.049l-0.06-0.109L85.019,22.7l-0.045-0.204l-0.125-0.151
	l-0.009-0.002l-0.076-0.166l-0.004-0.004l-0.168-0.156l-0.01-0.019l-0.059-0.101c-0.019-0.102-0.048-0.219-0.135-0.291l-0.025-0.021
	c-0.12-0.098-0.274-0.14-0.416-0.136c-0.028-0.115-0.082-0.223-0.165-0.312l-0.117-0.095l-0.089-0.048l-0.114-0.037l-0.161-0.097
	l-0.029-0.008c-0.141-0.054-0.294-0.056-0.408-0.014l-0.07,0.006l-0.229-0.047l-0.112,0.011l-0.091,0.014
	c-0.105-0.072-0.249-0.116-0.401-0.104c-0.144,0.01-0.285,0.066-0.38,0.149l-0.176,0.07l-0.303-0.028
	c-0.065,0-0.091,0.031-0.123,0.065c-0.081,0.08-0.141,0.189-0.176,0.299l-0.045,0.021l-0.022,0.013l-0.041,0.01l-0.114,0.027
	l-0.151,0.071c-0.104,0.062-0.165,0.157-0.209,0.27l-0.019-0.005c-0.189-0.091-0.414-0.054-0.575,0.053l-0.09,0.078l-0.07,0.152
	l-0.141,0.113l-0.007,0.006c-0.09,0.121-0.125,0.274-0.091,0.435l-0.021,0.239c-0.106,0.023-0.204,0.088-0.265,0.167l-0.037,0.045
	c-0.163,0.011-0.317,0.085-0.405,0.214l-0.009,0.022c-0.077,0.111-0.099,0.238-0.059,0.363c-0.094,0.044-0.168,0.118-0.213,0.22
	l-0.004,0.007l-0.007,0.018l-0.111,0.146l-0.011,0.028c-0.038,0.102-0.037,0.215-0.008,0.323l-0.014,0.022l-0.06,0.104l-0.021,0.232
	l-0.03,0.062c-0.09,0.052-0.151,0.128-0.181,0.228l-0.014,0.03l-0.008,0.227c-0.092,0.055-0.167,0.132-0.212,0.223l-0.021,0.039
	c-0.042,0.121,0.004,0.272,0.093,0.381l0.009,0.008l-0.087,0.195l-0.004,0.01c-0.012,0.119,0.015,0.23,0.076,0.32l-0.118,0.238
	l0.001,0.068l0.085,0.23c-0.066,0.078-0.111,0.175-0.116,0.277l0.007,0.063l0.028,0.116l-0.022,0.087l-0.009,0.083l0.01,0.105
	c-0.096,0.084-0.13,0.201-0.133,0.322l0.002,0.126l0.002,0.03c0.019,0.148,0.097,0.281,0.228,0.363v0.035
	c-0.059,0.096-0.092,0.203-0.052,0.305l0.003,0.013l0.013,0.053l-0.032,0.215l0.022,0.089l0.073,0.152l-0.004,0.104l0.021,0.108
	l0.005,0.047c0.036,0.14,0.167,0.241,0.308,0.296l0.018,0.097l0.036,0.109l0.02,0.051l0.187,0.211l0.005,0.027l0.054,0.127
	l0.042,0.049l0.074,0.146l0.069,0.089l0.09,0.097l0.089,0.3l0.026,0.031l0.053,0.033l0.121,0.15l0.219,0.12
	c0,0,0.075,0.022,0.099,0.028c0.047,0.139,0.117,0.29,0.267,0.341l0.079,0.03l0.202,0.024l0.224,0.146
	c0.13,0.042,0.262,0.064,0.375-0.023l0.142,0.012l0.116-0.014c0.107,0.073,0.241,0.114,0.392,0.11l0.069-0.013
	c0.088-0.012,0.17-0.046,0.242-0.092l0.039,0.171l-0.013,0.117l0.024,0.177c-0.06,0.111-0.088,0.245-0.085,0.366v0.015l0.04,0.161
	L81.227,33.2c-0.006,0.158,0.136,0.272,0.261,0.348l0.036,0.107l0.019,0.021l0.056,0.105l0.062,0.104l-0.008,0.038v0.155
	c-0.011,0.144,0.064,0.238,0.143,0.334l0.05,0.054l0.104,0.086c0.139,0.127,0.307,0.176,0.458,0.146l0.03,0.061l0.075,0.09
	l0.13,0.115c0.087,0.058,0.197,0.091,0.304,0.089c0.033,0.121,0.111,0.258,0.226,0.302l0.098,0.051l0.04,0.016l0.069,0.019
	l0.029,0.042l0.19,0.124l0.141,0.03l0.18,0.105l0.018,0.003c0.125,0.028,0.244,0,0.354-0.06c0.069,0.08,0.158,0.135,0.274,0.153
	l0.119,0.024l0.217-0.008l0.012,0.003l0.021,0.005l0.192-0.036c0.08,0.066,0.186,0.108,0.295,0.116h0.033
	c0.096-0.004,0.188-0.037,0.254-0.09l0.076,0.011l0.244-0.079l0.152,0.045l0.114,0.005l0.078,0.002l0.214-0.08l0.034,0.009
	c0.104,0.073,0.228,0.116,0.343,0.099l0.055-0.007l0.209-0.136l0.308,0.037l0.062-0.017l0.14-0.082l0.017-0.001
	c0.173-0.054,0.308-0.173,0.353-0.385c0.133,0.159,0.345,0.201,0.525,0.121l0.017-0.006c0.144-0.067,0.242-0.206,0.283-0.375
	l0.048-0.063l0.18-0.173l0.202,0.003c0.113,0.035,0.24,0.029,0.34-0.024l0.065,0.009l0.192-0.044l0.063-0.039
	c0.077,0.011,0.154,0.01,0.205-0.033l0.056-0.034c0.09-0.082,0.162-0.189,0.192-0.317l0.221-0.103l0.028-0.02l0.135-0.22
	l0.051-0.045l0.022-0.017l0.007-0.005c0.113-0.008,0.215-0.048,0.307-0.12l0.038-0.036c0.068-0.081,0.108-0.176,0.124-0.278
	c0.123-0.013,0.271-0.031,0.343-0.154l0.045-0.103l0.033-0.21c0.101-0.043,0.175-0.121,0.233-0.218l0.055-0.13l0.031-0.111
	l-0.006-0.306l0.043-0.062l0.017-0.033l0.009-0.006l0.054-0.048c0.035-0.027,0.076-0.056,0.076-0.056l0.197-0.214
	c0.049-0.068,0.018-0.167,0.005-0.25L92.506,31.47z M82.577,29.456l-0.004,0.001l-0.03,0.085c-0.093-0.003-0.177,0.029-0.228,0.094
	l-0.011,0.012l-0.037,0.127c-0.022,0.027-0.037,0.062-0.05,0.096l-0.089,0.024l-0.063,0.057c-0.039,0.054-0.052,0.136-0.049,0.235
	c-0.081-0.017-0.151-0.015-0.208,0.027l-0.137-0.023l-0.077,0.004l-0.102,0.038l-0.006,0.005l-0.057,0.048l-0.108,0.174
	l-0.095-0.024l-0.011-0.002l-0.114-0.051L81.059,30.4l-0.066,0.047l-0.051-0.007l-0.074,0.033l-0.145-0.069h-0.006l-0.074,0.049
	l-0.033-0.011c-0.072,0.044-0.124,0.028-0.205,0.102l-0.043-0.03l-0.016,0.001l-0.051-0.018l-0.053-0.008l-0.002-0.026l-0.022-0.083
	c-0.02-0.059-0.03-0.144-0.072-0.169l-0.024-0.02l-0.059-0.022c-0.071-0.037-0.187-0.016-0.326,0.041l-0.002-0.052l-0.012-0.078
	l-0.041-0.102c-0.034-0.05-0.099-0.082-0.182-0.093c0.044-0.103,0.03-0.17,0.014-0.258l-0.02-0.069l-0.01-0.025l-0.025-0.041
	l0.015-0.035l-0.015-0.149L79.4,29.236l-0.021-0.127l-0.007-0.012c-0.021-0.084-0.086-0.14-0.179-0.185l0.04-0.229l-0.02-0.083
	l-0.087-0.136l-0.001-0.008V28.44l-0.058-0.135l0.079-0.238l-0.004-0.026l-0.12-0.178l0.003-0.058l-0.088-0.19l0.063-0.118
	l0.02-0.091l0.011-0.062l-0.053-0.177l0.014-0.023c0.085-0.073,0.143-0.158,0.139-0.249l0.001-0.041l-0.058-0.19
	c0.071-0.064,0.125-0.132,0.143-0.212l0.006-0.051l-0.025-0.129l0.004-0.013c0.019-0.141-0.072-0.292-0.208-0.415
	c0.221-0.017,0.393-0.122,0.446-0.263l0.008-0.013c0.039-0.115-0.002-0.245-0.106-0.374l-0.015-0.066l-0.008-0.215l0.133-0.109
	c0.097-0.036,0.17-0.102,0.195-0.191l0.044-0.024l0.091-0.123l0.011-0.06l0.133-0.095l0.036-0.032
	c0.045-0.074,0.066-0.16,0.042-0.263l0.158-0.105l0.018-0.019l0.04-0.193l0.031-0.04l0.015-0.016l0.003-0.005
	c0.094-0.014,0.162-0.049,0.216-0.115l0.019-0.03l0.027-0.263c0.108,0.012,0.174-0.059,0.255-0.085l0.047-0.045l0.046-0.121
	c0.093,0.019,0.155,0.005,0.215-0.028l0.057-0.058l0.043-0.062l0.062-0.229l0.045-0.02l0.019-0.015l0.006-0.001l0.045-0.005
	l0.062,0.011l0.167-0.03l0.102-0.07l0.027-0.038l0.013,0.008l0.028-0.001l0.122-0.051l0.086,0.016l0.018-0.003l0.025-0.005
	l0.046,0.033l0.119,0.034l0.104-0.052l0.1,0.013l0.109-0.025l0.081-0.021l0.062-0.03l0.006,0.006l0.128-0.019l0.048,0.168
	l0.064,0.077c0.036,0.04,0.092,0.049,0.155,0.044l0.186,0.036c-0.038,0.121-0.063,0.252-0.025,0.347l0.02,0.039l0.17,0.09
	l0.034,0.133l0.048,0.054c0.059,0.071,0.174,0.108,0.308,0.113l0.006,0.021l0.145,0.146l0.012,0.156v0.011l0.038,0.08
	c-0.146,0.121-0.228,0.272-0.204,0.404l0.004,0.018l0.075,0.117l-0.003,0.036l0.033,0.071c0.044,0.107,0.152,0.187,0.304,0.239
	l0.005,0.034l0.057,0.106l-0.003,0.029l-0.002,0.007l-0.159,0.16l-0.066,0.088l-0.067,0.207l0.023,0.138l0.033,0.041l-0.018,0.079
	c0.001,0.091,0.035,0.18,0.115,0.258l0.034,0.089l-0.029,0.096c-0.072,0.064-0.13,0.141-0.138,0.23l-0.003,0.012l0.024,0.168
	l-0.005,0.02l0.017,0.151l-0.015,0.047l-0.006,0.092l0.071,0.162l-0.062,0.123l-0.13-0.03l0.012,0.054l-0.016,0.03l-0.008,0.025
	l-0.001,0.137l-0.043,0.021c-0.103,0.048-0.167,0.119-0.2,0.202l-0.017,0.1l-0.065,0.101l-0.013,0.045l0.004,0.15l-0.051,0.033
	l-0.086,0.122l0.008,0.222l-0.063,0.061l-0.02,0.002l-0.145,0.162l-0.017,0.14l-0.015,0.068L83.13,28.77l-0.069,0.047l-0.027,0.038
	c-0.078,0.092-0.075,0.223-0.019,0.365l-0.017,0.022l-0.049,0.095C82.786,29.321,82.649,29.355,82.577,29.456z M54.896,19.137
	l0.206,0.054l0.001,0.005l0.215-0.042l0.179,0.146l0.065,0.019l0.193,0.058l0.105,0.038l0.052,0.013
	c0.255,0.024,0.498-0.14,0.613-0.397l0.094-0.085c0.24-0.269,0.237-0.684-0.033-0.936l-0.081-0.083l-0.11-0.08
	c-0.092-0.13-0.233-0.219-0.387-0.263l-0.223,0.008l-0.075-0.025l-0.053-0.008l-0.098-0.008c-0.053-0.018-0.111-0.02-0.111-0.021
	l-0.027-0.002l-0.162,0.013l-0.122-0.02c-0.108-0.005-0.223,0.134-0.336,0.082c-0.375-0.167-0.432,0.503-0.432,0.503
	c-0.132,0.547,0.056,0.685,0.056,0.685C54.416,18.934,54.78,19.253,54.896,19.137z M56.533,39.741
	c-0.006,0.005-0.02,0.015-0.025,0.019c-0.075,0.007-0.15,0.034-0.223,0.075l-0.309,0.188c-0.025,0.011-0.055,0.019-0.078,0.033
	c-0.115,0.073-0.209,0.174-0.264,0.301c0,0-0.012,0.028-0.021,0.053c-0.068,0.009-0.134,0.029-0.199,0.064
	c-0.018,0.007-0.029,0.015-0.033,0.017c-0.014,0.008-0.027,0.019-0.042,0.03c-0.109,0-0.218,0.025-0.319,0.09
	c-0.014,0.011-0.031,0.014-0.051,0.027c-0.227,0.17-0.318,0.468-0.234,0.739c-0.01,0.042-0.016,0.079-0.017,0.129
	c-0.007,0.367,0.285,0.665,0.652,0.671l0.116,0.007c0.057-0.005,0.095-0.005,0.133-0.015c0.162,0.036,0.332,0.01,0.48-0.07
	c0.008-0.001,0.008-0.001,0.021-0.011c0.079-0.055,0.155-0.127,0.204-0.206c0.011-0.008,0.021-0.009,0.035-0.02
	c0.072-0.046,0.14-0.109,0.197-0.185c0.018-0.012,0.045-0.023,0.066-0.035c0.064-0.038,0.115-0.087,0.168-0.139
	c0.006-0.01,0.016-0.038,0.023-0.048c0.012,0.002,0.024-0.001,0.037,0l0.285-0.226c0.026-0.011,0.053-0.015,0.08-0.028
	c0.008-0.001,0.018-0.008,0.025-0.014c0.081-0.052,0.144-0.111,0.195-0.184c0.119-0.005,0.219-0.039,0.316-0.095
	c0.01-0.007,0.029-0.019,0.045-0.031c0,0,0.051-0.037,0.079-0.059c0.048-0.024,0.101-0.052,0.101-0.052
	c0.002,0.001,0.017-0.01,0.023-0.014c0.047-0.028,0.088-0.059,0.127-0.1c0.041-0.019,0.081-0.036,0.113-0.054
	c0.094-0.056,0.115-0.222,0.238-0.247c0.404-0.087,0.096-0.613,0.096-0.613c-0.18-0.479-0.42-0.472-0.42-0.472
	c-0.067-0.112-0.571-0.13-0.609,0.023c-0.07,0.013-0.152,0.037-0.215,0.082c0,0-0.004-0.005-0.005-0.004
	c-0.067,0.042-0.12,0.095-0.168,0.159c-0.081-0.01-0.16,0.004-0.235,0.025c-0.041,0.016-0.078,0.04-0.121,0.063
	c-0.021,0.016-0.039,0.028-0.062,0.045C56.673,39.678,56.597,39.7,56.533,39.741z M63.924,24.26
	c0.359,0.075,0.723-0.113,0.795-0.485l0.028-0.115l0.008-0.14c0.061-0.152,0.061-0.328,0.013-0.494l-0.128-0.197l-0.02-0.083
	l-0.023-0.053L64.549,22.6c-0.014-0.056-0.036-0.115-0.04-0.113l-0.017-0.024l-0.119-0.13l-0.066-0.116
	c-0.071-0.095-0.258-0.106-0.295-0.232c-0.128-0.425-0.672-0.03-0.671-0.03c-0.496,0.262-0.484,0.492-0.485,0.49
	c-0.115,0.091-0.15,0.547,0.01,0.554l0.079,0.177l-0.004,0.004l0.155,0.131l-0.036,0.223l0.016,0.062l0.044,0.181l0.02,0.103
	l0.013,0.047c0.104,0.21,0.367,0.324,0.651,0.298L63.924,24.26z M61.386,19.601l-0.072-0.122c-0.041-0.157-0.131-0.329-0.281-0.39
	l-0.231-0.043l-0.067-0.041l-0.054-0.019c0,0-0.062-0.019-0.097-0.028c-0.049-0.026-0.103-0.053-0.103-0.053l-0.026-0.012
	l-0.162-0.046l-0.113-0.062c-0.105-0.044-0.258,0.048-0.352-0.042c-0.317-0.293-0.565,0.331-0.564,0.331
	c-0.279,0.483-0.146,0.679-0.147,0.678c-0.049,0.138,0.183,0.562,0.322,0.488l0.168,0.118l-0.001,0.005l0.21,0.029l0.129,0.17
	L60,20.593l0.17,0.088l0.093,0.055l0.04,0.028c0.203,0.122,0.473,0.067,0.677-0.124l0.116-0.039
	c0.319-0.148,0.491-0.529,0.335-0.886L61.386,19.601z M58.005,47.982c-0.026-0.051-0.041-0.086-0.064-0.116
	c-0.028-0.164-0.118-0.311-0.248-0.417c-0.006-0.008-0.006-0.008-0.018-0.016c-0.082-0.053-0.178-0.094-0.27-0.11
	c-0.012-0.006-0.016-0.015-0.031-0.023c-0.07-0.05-0.154-0.088-0.246-0.111c-0.018-0.013-0.039-0.034-0.057-0.048
	c-0.061-0.046-0.125-0.074-0.193-0.103c-0.012-0.002-0.041-0.001-0.053-0.004c-0.003-0.012-0.011-0.022-0.015-0.034l-0.317-0.177
	c-0.021-0.021-0.034-0.043-0.057-0.063c-0.005-0.008-0.014-0.013-0.023-0.019c-0.078-0.055-0.157-0.09-0.244-0.11
	c-0.05-0.107-0.119-0.188-0.209-0.256c-0.009-0.006-0.027-0.02-0.045-0.029c0,0-0.054-0.033-0.085-0.051
	c-0.04-0.035-0.086-0.072-0.086-0.072c0-0.004-0.015-0.013-0.022-0.017c-0.043-0.033-0.088-0.06-0.141-0.081
	c-0.031-0.029-0.063-0.061-0.092-0.084c-0.088-0.065-0.248-0.021-0.319-0.125c-0.235-0.34-0.603,0.146-0.603,0.146
	c-0.375,0.35-0.276,0.567-0.276,0.567c-0.077,0.106,0.099,0.578,0.255,0.555c0.039,0.061,0.093,0.127,0.158,0.168
	c0,0-0.004,0.004-0.002,0.005c0.064,0.047,0.133,0.074,0.211,0.096c0.022,0.077,0.065,0.146,0.113,0.207
	c0.031,0.032,0.068,0.057,0.105,0.088c0.023,0.014,0.041,0.024,0.064,0.039c0.037,0.058,0.088,0.119,0.15,0.163
	c0.007,0.004,0.021,0.013,0.027,0.016c0.035,0.067,0.089,0.127,0.154,0.178l0.293,0.213c0.02,0.02,0.037,0.044,0.06,0.059
	c0.112,0.08,0.241,0.128,0.379,0.13c0,0,0.031,0,0.058,0c0.033,0.06,0.078,0.111,0.135,0.158c0.014,0.016,0.025,0.022,0.027,0.025
	c0.014,0.009,0.029,0.018,0.045,0.027c0.043,0.101,0.107,0.191,0.205,0.26c0.016,0.01,0.023,0.024,0.045,0.036
	c0.244,0.146,0.555,0.115,0.773-0.066c0.041-0.006,0.078-0.015,0.125-0.033c0.342-0.134,0.506-0.518,0.369-0.859L58.005,47.982z"/>
</svg>
