<?xml version="1.0" encoding="utf-8"?>
<!-- Generator: Adobe Illustrator 13.0.0, SVG Export Plug-In  -->
<!DOCTYPE svg PUBLIC "-//W3C//DTD SVG 1.1//EN" "http://www.w3.org/Graphics/SVG/1.1/DTD/svg11.dtd" [
	<!ENTITY ns_flows "http://ns.adobe.com/Flows/1.0/">
]>
<svg version="1.1"
	 xmlns="http://www.w3.org/2000/svg" xmlns:xlink="http://www.w3.org/1999/xlink" xmlns:a="http://ns.adobe.com/AdobeSVGViewerExtensions/3.0/"
	 x="0px" y="0px" width="100px" height="100px" viewBox="0 0 100 100" enable-background="new 0 0 100 100" xml:space="preserve">
<defs>
</defs>
<circle fill="#CCCCCC" cx="50" cy="50" r="50"/>
<path d="M64.187,55.213c-0.127,0.021-0.257,0.087-0.363,0.153c-0.037,0-0.08,0.016-0.08,0.016c-0.053,0-0.098,0.005-0.152,0.02
	c-0.176-0.015-0.357,0.038-0.521,0.111c-0.186-0.023-0.369,0.008-0.541,0.078c-0.117-0.021-0.234-0.021-0.347-0.011
	c-0.083-0.011-0.163-0.011-0.241,0l-0.147,0.011c-0.096,0.01-0.187,0.027-0.276,0.055c-0.072,0.016-0.143,0.018-0.203,0.032
	c-0.039-0.005-0.08-0.013-0.119-0.013c-0.07-0.027-0.15-0.047-0.223-0.064h-0.04c-0.21-0.127-0.455-0.176-0.695-0.139
	c-0.011-0.01-0.033-0.022-0.033-0.022c-0.156-0.058-0.321-0.083-0.494-0.073h-0.005l-0.006-0.01h-0.047c0,0-0.037-0.004-0.068-0.016
	c-0.063-0.037-0.139-0.066-0.217-0.09c-0.135-0.078-0.281-0.131-0.439-0.152c-0.158-0.087-0.332-0.143-0.507-0.143
	c-0.15-0.117-0.324-0.203-0.511-0.235l-0.158-0.022c-0.099-0.021-0.199-0.021-0.295-0.013c-0.086-0.042-0.189-0.085-0.294-0.104
	c0,0-0.03,0-0.062-0.008c-0.034-0.01-0.067-0.031-0.067-0.031c-0.108-0.039-0.224-0.061-0.338-0.066
	c-0.115-0.004-0.23,0.01-0.341,0.037c-0.104-0.027-0.213-0.047-0.321-0.053c-0.107-0.005-0.216,0.004-0.319,0.03
	c-0.126-0.013-0.253-0.013-0.387,0.015c-0.173-0.015-0.363,0.008-0.532,0.082c-0.174,0.025-0.344,0.087-0.488,0.193h-0.069
	l-0.157,0.039c-0.036,0.012-0.074,0.025-0.111,0.039c-0.032,2.392-0.585,4.653-1.539,6.691c0.022,0.041,0.043,0.08,0.07,0.117
	l0.1,0.126c0.009,0.011,0.031,0.026,0.049,0.048c0.055,0.115,0.123,0.225,0.213,0.307l0.111,0.114
	c0.077,0.079,0.156,0.132,0.235,0.173c0.048,0.054,0.106,0.104,0.158,0.144c0.13,0.157,0.308,0.282,0.489,0.353
	c0.101,0.062,0.194,0.123,0.309,0.15c0.176,0.215,0.433,0.373,0.723,0.408c0.109,0.062,0.227,0.109,0.352,0.139
	c0,0,0.047,0.003,0.089,0.018c0.041,0.018,0.091,0.027,0.091,0.027c0.066,0.029,0.139,0.033,0.214,0.043c0,0,0.017,0,0.037,0.016
	c0.128,0.058,0.269,0.098,0.407,0.121c0.012,0.002,0.034,0.017,0.052,0.017l0.146,0.046c0.107,0.037,0.206,0.045,0.309,0.045
	c0.138,0.092,0.29,0.137,0.441,0.152c0.218,0.134,0.476,0.188,0.728,0.162c0.026,0,0.122,0.027,0.139,0.027
	c0.011,0.018,0.139,0.045,0.139,0.045c0.139,0.057,0.274,0.07,0.424,0.057l0.009,0.014c0.088,0.025,0.177,0.045,0.268,0.053
	c0.089,0.008,0.182,0.007,0.272-0.008c0.09,0.012,0.188,0.016,0.283,0.008c0.091,0.031,0.188,0.06,0.288,0.06
	c0,0,0.04,0,0.079,0.013c0.047,0,0.088,0.008,0.088,0.008c0.185,0.035,0.365,0.018,0.539-0.038c0.166,0.056,0.324,0.056,0.49,0.03
	c0.076,0.008,0.152,0.008,0.23,0c0.014,0,0.023,0.008,0.04,0.008l0.155,0.03c0.039,0,0.074,0.005,0.111,0.005h0.156
	c0.139,0,0.273-0.018,0.409-0.056c0.259,0.056,0.517,0.021,0.739-0.093c0.021,0.01,0.038,0.01,0.038,0.01
	c0.021,0.004,0.038,0.004,0.052,0.004h0.129c0.039,0.004,0.118,0.012,0.118,0.012c0.061,0.008,0.118,0.008,0.169,0.008l0.154-0.016
	c0.084-0.004,0.168-0.018,0.25-0.037c0.168,0,0.342-0.041,0.502-0.119c0.051-0.02,0.105-0.023,0.168-0.037
	c0.089,0,0.189,0,0.279-0.025c0.181,0.011,0.367-0.014,0.535-0.082c0.058-0.006,0.115-0.018,0.172-0.041l0.145-0.042
	c0.107-0.019,0.203-0.071,0.295-0.126c0.043-0.012,0.08-0.037,0.126-0.05c0.103,0.019,0.206,0.019,0.308,0.005
	c0.102-0.015,0.202-0.043,0.303-0.08c0.099-0.018,0.188-0.037,0.274-0.074h0.021c0.088-0.029,0.17-0.043,0.255-0.082
	c0,0,0.025-0.012,0.044-0.018c0.02,0,0.042-0.015,0.042-0.015c0.126-0.016,0.244-0.079,0.354-0.142
	c0.128-0.035,0.253-0.103,0.36-0.178c0.039-0.025,0.084-0.039,0.123-0.068c0,0,0.043-0.017,0.08-0.035
	c0.027-0.004,0.032-0.004,0.047-0.012c0.033,0,0.106-0.008,0.106-0.008c0.293-0.025,0.562-0.161,0.749-0.367
	c0.25-0.176,0.423-0.438,0.479-0.73c0.018-0.098,0.023-0.199,0.015-0.303v-0.026c-0.063-0.614-0.623-1.052-1.242-1.003l-0.132,0.02
	c-0.221,0.024-0.42,0.113-0.585,0.258h-0.048c-0.066,0.021-0.135,0.043-0.195,0.07l-0.144,0.055
	c-0.009,0.008-0.024,0.023-0.046,0.023c-0.079,0.022-0.152,0.045-0.217,0.08c-0.23,0.025-0.436,0.131-0.61,0.287
	c-0.05,0.002-0.095,0.021-0.14,0.039c-0.092-0.02-0.184-0.025-0.275-0.018c-0.092,0.006-0.184,0.025-0.275,0.059
	c0,0-0.053,0.006-0.099,0.02c-0.047,0.016-0.108,0.025-0.108,0.025c-0.07,0.016-0.141,0.045-0.22,0.078
	c-0.14,0.018-0.279,0.078-0.411,0.154c-0.17-0.037-0.333-0.016-0.494,0.033c-0.133,0-0.254,0.021-0.376,0.079l-0.134,0.054
	c-0.006,0-0.016,0.009-0.016,0.009c-0.246-0.046-0.502,0-0.727,0.113H62.8c-0.021,0-0.041,0-0.08-0.005
	c-0.04-0.009-0.104-0.021-0.104-0.021c-0.102-0.014-0.207-0.014-0.318,0l-0.144,0.013c-0.073,0.009-0.143,0.026-0.218,0.052
	c-0.172-0.016-0.34-0.006-0.501,0.047L61.408,62.3c-0.134-0.055-0.276-0.07-0.413-0.064c-0.188-0.043-0.369-0.043-0.549,0.006
	c-0.014-0.006-0.146-0.021-0.146-0.021c-0.142-0.036-0.288-0.027-0.433,0.004c-0.162-0.053-0.33-0.076-0.502-0.066
	c-0.189-0.053-0.391-0.071-0.592-0.027c-0.113-0.023-0.225-0.025-0.345-0.023h-0.01c-0.056-0.031-0.12-0.061-0.184-0.076
	l-0.146-0.035c-0.024-0.016-0.053-0.016-0.076-0.016c-0.051-0.023-0.102-0.049-0.154-0.068l-0.145-0.039
	c-0.09-0.039-0.186-0.053-0.287-0.068c-0.134-0.076-0.284-0.127-0.439-0.127l-0.135-0.01h-0.017
	c-0.159-0.076-0.328-0.115-0.494-0.115c-0.048-0.014-0.081-0.014-0.124-0.025l-0.156-0.021h-0.074
	c-0.064-0.058-0.13-0.095-0.213-0.136c-0.15-0.146-0.354-0.264-0.582-0.312c-0.092-0.084-0.191-0.152-0.309-0.204
	c-0.064-0.097-0.151-0.184-0.248-0.255c-0.064-0.115-0.152-0.227-0.253-0.311c-0.024-0.051-0.062-0.104-0.101-0.156l-0.088-0.129
	c-0.025-0.033-0.051-0.062-0.075-0.089l-0.007-0.022c-0.027-0.059-0.051-0.126-0.086-0.189v-0.004
	c0.018-0.098,0.018-0.197,0.014-0.297c-0.004-0.045-0.014-0.088-0.026-0.145c0-0.035,0-0.063-0.005-0.109
	c-0.01-0.092-0.027-0.182-0.055-0.264c0-0.039,0.006-0.082,0-0.113c0,0-0.001-0.079-0.008-0.115c0.023-0.069,0.045-0.122,0.053-0.18
	l0.037-0.15c0.004-0.029,0.008-0.064,0.008-0.088l0.021-0.15c0.007-0.066,0.007-0.129,0-0.188c0.062-0.08,0.118-0.18,0.147-0.283
	c0.07-0.103,0.117-0.208,0.153-0.32c0-0.006,0.022-0.023,0.022-0.023c0.013-0.018,0.025-0.04,0.047-0.051
	c0.039-0.021,0.078-0.035,0.119-0.061l0.13-0.084c0.035-0.021,0.069-0.061,0.105-0.086c0.07-0.008,0.132-0.016,0.204-0.041
	l0.15-0.041c0.105-0.023,0.216-0.084,0.31-0.156h0.005c0.008,0,0.017,0.008,0.025,0.012l0.158,0.028
	c0.11,0.025,0.235,0.025,0.346,0.013c0.098,0.021,0.206,0.039,0.307,0.039l0.158,0.014c0.056,0,0.121-0.014,0.181-0.031
	c0.088,0.039,0.181,0.062,0.271,0.082c0.133,0.066,0.279,0.098,0.428,0.107c0.109,0.068,0.235,0.12,0.367,0.145
	c0,0,0.033,0,0.067,0.011c0.046,0.015,0.083,0.028,0.083,0.028c0.052,0.021,0.113,0.021,0.171,0.032
	c0.151,0.104,0.321,0.153,0.512,0.171c0.075,0.022,0.155,0.047,0.235,0.06c0.063,0.03,0.125,0.04,0.193,0.051l0.136,0.032
	c0.011,0,0.034,0,0.053,0.004c0,0,0.095,0.017,0.119,0.021c0.04,0.008,0.138,0.027,0.138,0.027c0.037,0.013,0.077,0.013,0.117,0.018
	c0.048,0.025,0.105,0.047,0.16,0.072l0.145,0.053c0.184,0.062,0.381,0.078,0.572,0.046c0.013,0,0.031,0,0.05,0.017
	c0.169,0.088,0.366,0.121,0.562,0.111h0.031c0.001,0,0.022,0.01,0.022,0.01h0.03l0.156,0.018c0.155,0.025,0.323,0.016,0.479-0.021
	c0.033,0,0.071,0,0.104-0.006c0.126,0.043,0.256,0.067,0.387,0.053c0.154,0,0.307-0.037,0.442-0.1
	c0.147,0.023,0.294,0.014,0.446-0.023c0.178,0,0.362-0.041,0.525-0.125c0.191,0.01,0.387-0.031,0.557-0.104h0.144
	c0.245,0.004,0.471-0.077,0.665-0.213c0.197-0.04,0.385-0.146,0.536-0.279c0.024-0.018,0.05-0.029,0.077-0.039
	c0,0,0.031-0.029,0.061-0.039c0.085-0.016,0.164-0.039,0.243-0.078c0.204-0.032,0.395-0.109,0.554-0.236
	c0.193-0.079,0.365-0.217,0.483-0.386c0.148-0.043,0.295-0.098,0.411-0.192c0.225-0.084,0.428-0.246,0.566-0.453
	c0,0,0.025-0.055,0.048-0.082c0.044-0.038,0.085-0.078,0.12-0.115c0.168-0.102,0.309-0.229,0.402-0.404c0,0,0.047-0.082,0.066-0.117
	c0.017-0.025,0.043-0.049,0.051-0.076c0.027-0.035,0.08-0.102,0.08-0.102c0.049-0.067,0.081-0.136,0.118-0.217l0.065-0.149
	c0.078-0.177,0.102-0.364,0.084-0.544c-0.033-0.388-0.277-0.755-0.666-0.931c-0.57-0.249-1.23,0.011-1.484,0.585
	c0,0-0.008,0.02-0.008,0.031c-0.006,0-0.006,0.004-0.006,0.012c-0.156,0.076-0.277,0.193-0.381,0.346
	c-0.05,0.031-0.107,0.086-0.145,0.137c-0.135,0.062-0.249,0.145-0.346,0.25c-0.015,0.014-0.039,0.021-0.039,0.021
	c-0.098,0.051-0.182,0.11-0.261,0.168v0.005l-0.008,0.007c-0.101,0.057-0.188,0.119-0.269,0.186
	c-0.137,0.033-0.271,0.081-0.396,0.164c-0.113,0.031-0.224,0.082-0.33,0.158c-0.125,0.025-0.25,0.074-0.361,0.156
	C64.229,55.193,64.187,55.213,64.187,55.213z"/>
<path d="M66.775,33.552c1.228-0.117,2.132-1.205,2.021-2.449c-0.118-1.223-1.21-2.134-2.443-2.016
	c-1.232,0.107-2.132,1.205-2.025,2.436C64.446,32.759,65.537,33.663,66.775,33.552z"/>
<path d="M61.919,35.636c0.031-0.11,0.039-0.236,0.021-0.346c-0.004-0.043-0.015-0.096-0.015-0.141c0,0-0.027-0.093-0.032-0.124
	c-0.006-0.03-0.03-0.143-0.03-0.143c-0.011-0.077-0.03-0.143-0.059-0.206v-0.01c-0.002-0.029-0.009-0.066-0.012-0.098l-0.028-0.16
	c-0.04-0.209-0.147-0.396-0.279-0.536c-0.036-0.099-0.077-0.188-0.129-0.271l-0.088-0.127c-0.074-0.115-0.172-0.213-0.273-0.281
	c-0.104-0.124-0.227-0.24-0.375-0.303c-0.111-0.203-0.294-0.379-0.522-0.471h-0.009c-0.165-0.189-0.404-0.311-0.67-0.343
	c-0.149-0.177-0.354-0.308-0.582-0.366c-0.155-0.088-0.332-0.129-0.52-0.129c-0.072-0.021-0.141-0.029-0.213-0.048
	c-0.219-0.181-0.514-0.278-0.81-0.24c-0.047-0.017-0.096-0.038-0.096-0.038c-0.09-0.038-0.17-0.059-0.261-0.072
	c0,0-0.033-0.003-0.062-0.01c-0.015-0.008-0.035-0.009-0.035-0.009c-0.178-0.103-0.387-0.13-0.586-0.122
	c-0.014,0-0.15-0.047-0.15-0.047c-0.157-0.059-0.318-0.064-0.479-0.059c-0.113-0.035-0.227-0.049-0.343-0.049h-0.011
	c-0.213-0.074-0.451-0.062-0.67,0.028c-0.042-0.015-0.082-0.015-0.127,0c-0.121-0.058-0.252-0.091-0.389-0.091h-0.139
	c-0.057,0-0.101,0.003-0.146,0.013l-0.153,0.021c-0.052,0.004-0.109,0.017-0.165,0.043c-0.152-0.026-0.305-0.014-0.441,0.035
	c-0.033-0.006-0.053-0.006-0.086-0.006l-0.139-0.015c-0.053,0-0.113,0-0.162,0.015l-0.136,0.006c-0.024,0-0.054,0.018-0.078,0.018
	h-0.069c-0.17-0.038-0.34-0.023-0.501,0.018c-0.178-0.004-0.341,0.031-0.505,0.107c-0.115,0-0.238,0.01-0.354,0.049
	c-0.276-0.049-0.553,0.025-0.781,0.174c-0.041,0.014-0.088,0.021-0.121,0.029c-0.155-0.008-0.303,0.01-0.443,0.068
	c0,0-0.043,0.008-0.082,0.021c-0.039,0.011-0.078,0.011-0.082,0.022c-0.002,0-0.161,0.029-0.161,0.029
	c-0.083,0.012-0.163,0.049-0.243,0.08c-0.156,0.021-0.321,0.072-0.462,0.174c0,0-0.025,0.025-0.053,0.037
	c-0.055,0.01-0.108,0.027-0.16,0.049c0,0-0.114,0.039-0.144,0.039c-0.021,0.01-0.139,0.049-0.139,0.049
	c-0.076,0.025-0.152,0.066-0.224,0.102l-0.138,0.092c-0.002,0.004-0.016,0.016-0.024,0.021c-0.075,0.015-0.144,0.043-0.214,0.078
	l-0.143,0.074c-0.023,0.021-0.057,0.041-0.088,0.056c-0.178,0.065-0.354,0.16-0.479,0.307c-0.035,0.019-0.066,0.026-0.092,0.058
	c-0.166,0.031-0.322,0.102-0.457,0.203c-0.123,0.047-0.24,0.108-0.335,0.217l-0.116,0.097c-0.007,0.007-0.012,0.011-0.023,0.024
	c0,0-0.027,0.033-0.055,0.053c-0.031,0.029-0.063,0.051-0.063,0.051c-0.056,0.045-0.105,0.091-0.146,0.143
	c-0.229,0.1-0.419,0.281-0.519,0.506c-0.031,0.029-0.053,0.061-0.069,0.098c-0.186,0.107-0.317,0.26-0.402,0.449
	c-0.044,0.035-0.096,0.083-0.125,0.123l-0.102,0.131c-0.097,0.108-0.165,0.256-0.203,0.41c-0.088,0.152-0.138,0.333-0.138,0.52
	c-0.013,0.039-0.017,0.077-0.024,0.117c-0.028,0.065-0.054,0.136-0.072,0.201c-0.079,0.15-0.118,0.32-0.112,0.492v0.133
	c0,0.021,0,0.049,0.01,0.083c0,0.003,0,0.019,0.001,0.026l0.009,0.129c0.004,0.018,0.007,0.038,0.013,0.059
	c-0.006,0.068-0.006,0.123,0,0.181c0.019,0.143,0.061,0.286,0.141,0.411c0,0.018-0.012,0.047,0,0.072
	c0.013,0.204,0.092,0.393,0.222,0.551c0.016,0.049,0.035,0.102,0.035,0.102c0.065,0.207,0.194,0.383,0.346,0.497
	c0.039,0.052,0.076,0.098,0.114,0.149c0,0,0.097,0.104,0.108,0.105c0.1,0.201,0.254,0.357,0.446,0.451
	c0.102,0.147,0.245,0.271,0.406,0.344c0.083,0.082,0.166,0.131,0.263,0.18c0.069,0.062,0.15,0.125,0.238,0.179l0.145,0.072
	c0.047,0.019,0.108,0.044,0.161,0.06c0.109,0.068,0.226,0.115,0.354,0.154l0.154,0.041h0.043c0.07,0.039,0.145,0.07,0.213,0.088
	c0.113,0.08,0.237,0.107,0.371,0.146c0.107,0.052,0.229,0.09,0.363,0.119c0,0,0.065,0,0.107,0.01l0.016,0.021
	c0.162,0.114,0.364,0.175,0.559,0.178h0.014c0.2,0.11,0.425,0.147,0.64,0.11c0.214,0.107,0.457,0.141,0.692,0.084
	c0,0,0.1-0.026,0.137-0.041c0.021,0.005,0.03,0.005,0.043,0.005c0.064,0.053,0.138,0.079,0.203,0.093l0.153,0.049
	c0.2,0.061,0.407,0.061,0.605,0.004c0.04,0,0.067,0,0.108-0.004c0.049,0.02,0.105,0.039,0.158,0.044l0.149,0.022
	c0.058,0.016,0.122,0.02,0.176,0.02h0.153c0.121,0,0.262-0.027,0.377-0.074c0.178,0.038,0.362,0.027,0.537-0.037
	c0.006,0.008,0.029,0.008,0.029,0.008c0.145,0.04,0.301,0.037,0.449,0c0.148,0,0.283-0.021,0.41-0.064
	c0.244,0.033,0.492-0.023,0.695-0.158c0.041,0,0.1-0.006,0.115-0.006h0.023c0.025,0.006,0.056,0.012,0.056,0.012
	c0.191,0.045,0.399,0.035,0.587-0.031c0,0,0.046-0.016,0.084-0.034c0.048-0.003,0.09-0.017,0.09-0.017c0.013,0,0.035,0,0.053-0.01
	h0.046c0.159,0,0.318-0.031,0.474-0.1l0.15-0.072c0.035-0.01,0.074-0.039,0.111-0.061c0.126,0.013,0.26,0.013,0.387-0.025
	c0.096-0.035,0.176-0.082,0.256-0.123c0.252-0.004,0.482-0.115,0.66-0.293c0.18-0.029,0.352-0.098,0.498-0.211
	c0.175-0.01,0.354-0.043,0.506-0.143l0.131-0.078c0.083-0.033,0.156-0.102,0.215-0.164l0.115-0.118h0.006
	c0.016-0.007,0.024-0.013,0.033-0.022l0.146-0.047c0.064-0.03,0.119-0.061,0.173-0.088l0.021-0.02
	c0.007-0.004,0.033-0.006,0.033-0.006c0.23-0.078,0.422-0.233,0.559-0.441c0,0,0.006-0.004,0.008-0.006l0.123-0.113
	c0.148-0.042,0.282-0.123,0.395-0.229c0.163-0.072,0.297-0.201,0.396-0.352c0.021-0.013,0.049-0.037,0.063-0.057
	c0.091-0.084,0.151-0.189,0.195-0.282c0.067-0.056,0.116-0.107,0.163-0.166l0.094-0.13c0.043-0.068,0.085-0.129,0.107-0.199
	c0.107-0.112,0.18-0.256,0.219-0.408c0.075-0.09,0.133-0.189,0.171-0.297c0.053-0.15,0.075-0.302,0.061-0.451
	c0-0.012-0.008-0.021-0.008-0.038l0.008-0.015l0.028-0.123c0.041-0.129,0.059-0.256,0.041-0.38
	c-0.004-0.028-0.004-0.054-0.015-0.075C61.926,35.704,61.926,35.667,61.919,35.636z M59.807,35.835
	c-0.03,0.06-0.048,0.121-0.069,0.195c-0.031,0.048-0.057,0.123-0.079,0.176l-0.04,0.145l-0.004,0.007
	c-0.121,0.097-0.23,0.203-0.309,0.337c-0.057,0.029-0.1,0.082-0.15,0.125c-0.066,0.074-0.115,0.152-0.154,0.244
	c-0.051,0.024-0.09,0.047-0.129,0.084l-0.112,0.092c-0.018,0.016-0.028,0.021-0.038,0.036c0,0-0.061,0.044-0.094,0.084
	c-0.163,0.069-0.303,0.179-0.408,0.325c-0.038,0.016-0.086,0.025-0.086,0.025c-0.038,0.005-0.075,0.025-0.115,0.041l-0.15,0.058
	c-0.117,0.05-0.221,0.122-0.316,0.205c-0.178,0.021-0.367,0.108-0.511,0.233c0,0-0.024,0.018-0.04,0.021h-0.012
	c-0.169,0.027-0.335,0.103-0.479,0.193c-0.066,0.029-0.121,0.049-0.174,0.084c-0.141,0-0.274,0.029-0.397,0.08
	c-0.135,0.011-0.26,0.051-0.383,0.116c-0.191,0.023-0.364,0.106-0.512,0.233c-0.011,0-0.019,0-0.031,0.005
	c0,0-0.096,0.022-0.133,0.038c-0.036,0.002-0.133,0.027-0.133,0.027h-0.025c-0.041-0.004-0.088-0.004-0.133-0.004h-0.174
	c-0.002,0-0.02,0.004-0.025,0.004h-0.242c0,0-0.092,0.013-0.132,0.023h-0.134c-0.113,0.015-0.209,0.035-0.312,0.072
	c-0.151-0.018-0.314-0.01-0.457,0.043c-0.07,0-0.144,0.006-0.211,0.025c-0.09-0.018-0.176-0.02-0.264-0.018l-0.152,0.018
	c-0.057,0.012-0.123,0.022-0.182,0.042h-0.201l-0.144,0.01c-0.08,0-0.155,0.011-0.227,0.023c-0.116-0.033-0.235-0.053-0.358-0.053
	h-0.145c-0.062,0-0.127,0.02-0.185,0.029H50.89c-0.104-0.04-0.211-0.069-0.305-0.071h-0.047c-0.018-0.006-0.045-0.014-0.045-0.014
	c-0.013-0.006-0.039-0.008-0.055-0.013l-0.157-0.04c-0.104-0.025-0.212-0.025-0.317-0.02c-0.069-0.035-0.151-0.059-0.229-0.059
	c0,0-0.111-0.021-0.134-0.021c-0.024-0.004-0.134-0.021-0.134-0.021c-0.135-0.027-0.275-0.022-0.411,0.016
	c-0.179-0.155-0.399-0.236-0.633-0.253c-0.106-0.04-0.216-0.083-0.325-0.099c-0.079-0.041-0.16-0.062-0.242-0.077
	c-0.109-0.062-0.224-0.099-0.34-0.114c-0.092-0.062-0.191-0.117-0.285-0.145c-0.056-0.043-0.111-0.084-0.172-0.128
	c-0.105-0.124-0.233-0.217-0.383-0.287c-0.034-0.02-0.071-0.058-0.071-0.058c-0.045-0.05-0.103-0.092-0.164-0.131
	c-0.029-0.037-0.069-0.075-0.1-0.105c-0.045-0.109-0.098-0.193-0.175-0.277c-0.026-0.122-0.077-0.234-0.143-0.324
	c-0.021-0.105-0.045-0.191-0.08-0.279c-0.002-0.037-0.02-0.086-0.031-0.126c0.006-0.038,0.014-0.063,0.014-0.101
	c0.025-0.058,0.053-0.129,0.061-0.191c0.037-0.076,0.062-0.148,0.083-0.235c0.009-0.018,0.024-0.042,0.04-0.065
	c0.092-0.1,0.168-0.205,0.234-0.336c0,0,0.018-0.04,0.04-0.088c0.013-0.012,0.083-0.081,0.087-0.081
	c0.127-0.075,0.231-0.173,0.32-0.282c0.01-0.018,0.097-0.086,0.097-0.086c0.111-0.08,0.192-0.182,0.269-0.285
	c0.137-0.059,0.26-0.124,0.365-0.213c0.172-0.051,0.32-0.133,0.453-0.251c0.038-0.029,0.068-0.046,0.107-0.073
	c0.117-0.035,0.227-0.096,0.325-0.172c0.21-0.038,0.411-0.145,0.562-0.303c0.073,0,0.144-0.012,0.216-0.026
	c-0.053,0.179-0.084,0.36-0.068,0.545c0.121,1.228,1.809,2.086,3.792,1.901c1.97-0.185,3.479-1.328,3.36-2.562
	c-0.018-0.184-0.08-0.357-0.164-0.522c0.073,0.005,0.145,0.001,0.217-0.003c0.021,0,0.041,0.01,0.041,0.01
	c0.049,0.008,0.093,0.018,0.143,0.021h0.012c0.006,0.014,0.021,0.02,0.021,0.02c0.018,0.002,0.035,0.011,0.042,0.016l0.156,0.061
	c0.044,0.009,0.1,0.034,0.147,0.034l0.155,0.04h0.024c0.076,0.038,0.156,0.08,0.237,0.1h0.024c0.073,0.043,0.154,0.076,0.241,0.1
	c0.165,0.102,0.358,0.163,0.562,0.163c0.044,0.026,0.095,0.063,0.158,0.091c0,0,0.014,0.01,0.046,0.016
	c0.01,0.019,0.038,0.037,0.038,0.037c0.071,0.052,0.14,0.09,0.222,0.115c0.097,0.11,0.217,0.198,0.35,0.266
	c0.109,0.128,0.244,0.221,0.4,0.291c0.055,0.082,0.128,0.16,0.198,0.227c0.032,0.118,0.087,0.225,0.155,0.314
	c0.011,0.113,0.041,0.217,0.104,0.318c-0.003,0.055-0.003,0.117,0,0.176l0.01,0.127c0,0.025,0.007,0.041,0.008,0.063
	C59.812,35.81,59.807,35.835,59.807,35.835z"/>
<path d="M38.777,36.153c1.233-0.107,2.132-1.209,2.019-2.439c-0.111-1.236-1.205-2.139-2.438-2.025
	c-1.233,0.111-2.133,1.203-2.021,2.441C36.447,35.36,37.548,36.267,38.777,36.153z"/>
<path d="M80.235,83.723c0,0-0.026-0.075-0.037-0.103c0.014-0.137-0.004-0.285-0.059-0.42c0.023-0.135,0.008-0.277-0.036-0.404
	c-0.011-0.115-0.04-0.223-0.095-0.322c0.015-0.112,0.005-0.228-0.033-0.34c-0.021-0.096-0.072-0.184-0.138-0.262
	c-0.003-0.025-0.013-0.053-0.021-0.076c-0.01-0.119-0.047-0.24-0.104-0.346l-0.052-0.107c-0.002-0.008-0.004-0.012-0.008-0.021
	c0,0-0.012-0.012-0.014-0.014c-0.002-0.006-0.008-0.021-0.008-0.021c-0.04-0.143-0.115-0.275-0.225-0.375
	c-0.017-0.008-0.021-0.021-0.024-0.031c-0.024-0.144-0.085-0.281-0.18-0.396l-0.076-0.092c-0.032-0.032-0.063-0.068-0.093-0.097
	c-0.015-0.027-0.024-0.056-0.045-0.081c0,0-0.038-0.062-0.055-0.09c-0.009-0.018-0.046-0.08-0.046-0.08
	c-0.007-0.013-0.015-0.029-0.017-0.036l-0.057-0.089c-0.025-0.047-0.05-0.089-0.088-0.127c-0.029-0.055-0.069-0.105-0.104-0.153
	c-0.062-0.13-0.143-0.24-0.26-0.325c-0.022-0.039-0.038-0.082-0.066-0.113c0,0-0.02-0.023-0.042-0.054
	c-0.019-0.021-0.027-0.045-0.027-0.045c-0.05-0.089-0.12-0.165-0.201-0.229c-0.044-0.104-0.104-0.2-0.188-0.28
	c-0.037-0.059-0.078-0.119-0.131-0.174c-0.002-0.045-0.007-0.096-0.021-0.135l-0.049-0.109c-0.025-0.072-0.066-0.146-0.107-0.209
	c-0.013-0.064-0.043-0.129-0.073-0.189l0.101,0.016c-0.012-0.045-0.018-0.09-0.032-0.124c-0.016-0.061-0.038-0.13-0.068-0.181
	c0.005-0.043,0.005-0.086,0-0.126c-0.01-0.07-0.03-0.141-0.047-0.193c0.058-0.123,0.082-0.264,0.072-0.394v-0.016
	c-0.002-0.008-0.005-0.015-0.007-0.022c0.004-0.007,0.008-0.015,0.012-0.02c0,0,0.01-0.021,0.013-0.022l-0.04-0.011
	c-0.01-0.036-0.016-0.078-0.033-0.103c0-0.043,0.014-0.063,0.014-0.094c-0.021-0.168-0.092-0.318-0.209-0.441V75.92
	c0-0.011-0.006-0.011-0.008-0.026l-0.018-0.134c0-0.046-0.018-0.085-0.025-0.132c0.008-0.014,0.014-0.023,0.025-0.036l0.072-0.151
	c0.062-0.129,0.086-0.266,0.07-0.399c0-0.03-0.004-0.058-0.009-0.079l-0.036-0.146c-0.037-0.199-0.153-0.363-0.315-0.468
	c0.013-0.022,0.024-0.047,0.03-0.081l0.025-0.142c0.014-0.071,0.017-0.142,0.01-0.212c-0.01-0.127-0.062-0.26-0.141-0.363
	c0.097-0.125,0.146-0.279,0.141-0.439v-0.139c0-0.021-0.004-0.032-0.004-0.055c0-0.02-0.01-0.056-0.018-0.086
	c0.012-0.018,0.021-0.04,0.028-0.058c0.032-0.095,0.036-0.188,0.032-0.281c-0.01-0.069-0.029-0.118-0.043-0.175
	c0.01-0.039,0.006-0.086,0.01-0.127c0.004-0.043,0.017-0.08,0.012-0.129c0,0,0-0.019-0.008-0.023
	c-0.014-0.163-0.084-0.295-0.188-0.409c0.063-0.12,0.094-0.252,0.076-0.402l-0.013-0.159c-0.01-0.096-0.045-0.193-0.08-0.271V70.75
	c-0.012-0.08-0.042-0.171-0.075-0.245c0.063-0.123,0.092-0.27,0.081-0.414c-0.003-0.01-0.003-0.027-0.006-0.044
	c-0.021-0.128-0.073-0.243-0.147-0.327v-0.101c-0.01-0.115-0.053-0.221-0.118-0.329c0.028-0.064,0.04-0.129,0.048-0.21l0.005-0.157
	c0.005-0.025,0.005-0.066,0-0.105c0-0.002-0.001-0.004-0.003-0.008c-0.012-0.1-0.035-0.195-0.093-0.289
	c0-0.01,0.011-0.025,0.011-0.044c0.085-0.141,0.135-0.303,0.112-0.461c0-0.03,0-0.043-0.009-0.073
	c-0.019-0.111-0.071-0.216-0.131-0.305c0.06-0.133,0.098-0.266,0.088-0.414c-0.006-0.037-0.012-0.067-0.012-0.086
	c-0.021-0.084-0.041-0.143-0.076-0.203v-0.025c-0.031-0.244-0.164-0.457-0.385-0.584c0.113-0.07,0.199-0.171,0.253-0.287
	c0.056-0.117,0.079-0.25,0.065-0.381V65.63c-0.024-0.213-0.143-0.397-0.318-0.527c-0.013-0.028-0.031-0.055-0.053-0.094
	c-0.019-0.104-0.061-0.219-0.127-0.318c0.039-0.088,0.061-0.179,0.078-0.266c0.078-0.127,0.118-0.285,0.098-0.445
	c0.012-0.027,0.025-0.047,0.033-0.072c0.023-0.088,0.033-0.176,0.023-0.262c-0.006-0.03-0.014-0.068-0.02-0.105
	c0.041-0.086,0.064-0.182,0.064-0.268v-0.086c-0.022-0.159-0.081-0.312-0.186-0.435c0.035-0.099,0.057-0.21,0.043-0.323v-0.046
	c-0.02-0.106-0.068-0.226-0.127-0.313c0-0.031,0-0.048-0.008-0.09v-0.049c0.066-0.127,0.096-0.264,0.086-0.418
	c-0.005-0.024-0.005-0.044-0.008-0.064c-0.032-0.139-0.098-0.264-0.188-0.367c0.086-0.135,0.125-0.298,0.117-0.471
	c-0.008-0.033-0.008-0.086-0.027-0.127c-0.025-0.088-0.061-0.16-0.117-0.225c0.064-0.124,0.078-0.25,0.07-0.391
	c0-0.053-0.014-0.103-0.036-0.166l-0.046-0.135c-0.043-0.131-0.115-0.232-0.209-0.318c0-0.027,0.004-0.057,0-0.096
	c0-0.006,0-0.021-0.006-0.047c0,0,0.006,0,0.006-0.011c0,0,0.01-0.042,0.016-0.087c0.021-0.051,0.042-0.104,0.042-0.104
	c0.053-0.108,0.067-0.231,0.06-0.344c-0.016-0.102-0.045-0.195-0.084-0.282c-0.018-0.032-0.033-0.056-0.059-0.077
	c0-0.004,0.01-0.021,0.01-0.026c0-0.015,0-0.042-0.01-0.067c-0.002-0.107-0.036-0.209-0.086-0.305
	c0.012-0.062,0.012-0.123,0.005-0.192c0-0.013-0.005-0.032-0.005-0.04c0-0.025-0.005-0.032-0.008-0.058
	c0.013-0.051,0.033-0.11,0.033-0.11c0.029-0.098,0.045-0.189,0.031-0.297c-0.007-0.09-0.031-0.171-0.064-0.24
	c0.02-0.084,0.027-0.176,0.02-0.25c-0.007-0.09-0.031-0.184-0.064-0.254l-0.08-0.165c-0.021-0.04-0.041-0.079-0.07-0.11v-0.018
	c-0.016-0.085-0.05-0.162-0.096-0.24c0.066-0.086,0.116-0.189,0.139-0.294c0.012-0.073,0.018-0.148,0.007-0.226
	c-0.002-0.116-0.047-0.229-0.108-0.328c-0.018-0.125-0.059-0.238-0.133-0.338c0.142-0.139,0.234-0.32,0.239-0.532v-0.089
	c-0.013-0.129-0.063-0.248-0.13-0.355c0.027-0.088,0.045-0.18,0.039-0.279c-0.007-0.037-0.016-0.088-0.033-0.136
	c-0.047-0.175-0.165-0.326-0.314-0.423v-0.042c-0.016-0.116-0.049-0.237-0.114-0.333c0.025-0.082,0.043-0.172,0.038-0.271v-0.019
	c-0.006-0.052-0.018-0.108-0.031-0.151c0.188-0.14,0.302-0.375,0.289-0.625v-0.031c-0.008-0.08-0.037-0.164-0.07-0.232
	c0-0.026,0.006-0.047,0.006-0.069c-0.006-0.046-0.016-0.083-0.027-0.136c-0.053-0.2-0.188-0.354-0.365-0.459
	c-0.005-0.021-0.008-0.057-0.008-0.057c-0.017-0.07-0.037-0.131-0.067-0.182c0-0.019,0.005-0.043,0-0.051v-0.01
	c0.04-0.039,0.062-0.088,0.093-0.133c0.033-0.043,0.075-0.08,0.094-0.131l0.07-0.154c0.053-0.12,0.066-0.243,0.057-0.366
	c-0.004-0.08-0.021-0.153-0.057-0.233c-0.014-0.018-0.031-0.045-0.043-0.068c0.002-0.057,0.002-0.097,0.002-0.14
	c-0.02-0.155-0.076-0.302-0.186-0.415c-0.008-0.058-0.033-0.104-0.053-0.145c0.015-0.062,0.015-0.118,0.015-0.166
	c0.075-0.124,0.108-0.27,0.088-0.422v-0.021c-0.01-0.099-0.04-0.19-0.088-0.267v-0.037c-0.005-0.085-0.035-0.169-0.07-0.238v-0.084
	c-0.009-0.057-0.011-0.105-0.024-0.152c-0.031-0.083-0.073-0.164-0.135-0.231c0.024-0.087,0.037-0.17,0.031-0.259
	c0-0.002-0.007-0.002-0.007-0.002c-0.003-0.084-0.034-0.176-0.07-0.248c0.113-0.139,0.187-0.303,0.194-0.475
	c0-0.029,0-0.066-0.008-0.096c0-0.053-0.006-0.099-0.025-0.153c0.033-0.093,0.049-0.186,0.049-0.292
	c-0.005-0.007-0.005-0.029-0.005-0.039c-0.011-0.121-0.044-0.225-0.098-0.311c0.022-0.098,0.046-0.208,0.035-0.303v-0.016
	c-0.003-0.08-0.02-0.133-0.035-0.195c0.003-0.033,0.003-0.08,0-0.123c-0.008-0.072-0.028-0.133-0.05-0.203
	c0-0.038,0.002-0.063,0-0.098c-0.02-0.134-0.061-0.24-0.131-0.342c-0.008-0.053-0.018-0.096-0.031-0.153
	c0.025-0.083,0.045-0.176,0.031-0.274c-0.018-0.199-0.117-0.371-0.278-0.502c0.063-0.126,0.096-0.264,0.08-0.401
	c-0.005-0.046-0.017-0.093-0.024-0.144c0.008-0.059,0.008-0.123,0.004-0.189c-0.004-0.02-0.007-0.055-0.015-0.09
	c0,0-0.024-0.1-0.032-0.137c-0.013-0.033-0.023-0.142-0.023-0.142l-0.007-0.007c0.081-0.136,0.118-0.285,0.11-0.443v-0.02
	c-0.022-0.145-0.08-0.286-0.176-0.386c-0.008-0.038-0.013-0.065-0.023-0.106c0.028-0.092,0.046-0.193,0.031-0.281
	c-0.003-0.06-0.016-0.088-0.021-0.145c0-0.011-0.011-0.011-0.011-0.025c0.004-0.008,0.016-0.025,0.016-0.025
	c0.085-0.148,0.121-0.305,0.107-0.465c-0.017-0.139-0.07-0.281-0.156-0.396c0.047-0.121,0.064-0.248,0.057-0.377
	c-0.008-0.047-0.013-0.092-0.023-0.141c-0.033-0.118-0.104-0.221-0.188-0.301c0.01-0.057,0.031-0.105,0.037-0.158
	c0-0.045,0.003-0.101,0-0.15c0-0.023-0.01-0.066-0.02-0.088c0.02-0.065,0.022-0.142,0.022-0.215c0,0-0.003-0.012-0.003-0.022
	c-0.006-0.079-0.027-0.143-0.057-0.22c0.007-0.039,0.007-0.068,0-0.109c-0.004-0.062-0.018-0.112-0.025-0.172
	c-0.041-0.097-0.102-0.187-0.166-0.27v-0.016c0.037-0.119,0.053-0.232,0.043-0.34c0-0.026-0.014-0.059-0.018-0.088
	c0.018-0.029,0.034-0.055,0.045-0.092c0.029-0.098,0.042-0.201,0.033-0.309c-0.01-0.088-0.033-0.16-0.074-0.25
	c0.019-0.062,0.019-0.139,0.014-0.205c0-0.047-0.014-0.103-0.03-0.152c-0.042-0.135-0.126-0.26-0.238-0.352
	c0.028-0.09,0.042-0.178,0.032-0.275c-0.008-0.063-0.032-0.145-0.061-0.22c0-0.028,0.004-0.064,0-0.101
	c-0.004-0.082-0.024-0.158-0.061-0.227c0.131-0.143,0.209-0.346,0.201-0.543c0-0.009-0.005-0.028-0.005-0.033
	c-0.015-0.162-0.079-0.307-0.183-0.42c0-0.012,0.004-0.021,0-0.03c-0.009-0.147-0.07-0.278-0.162-0.398c0-0.023,0.004-0.046,0-0.071
	v-0.006c-0.005-0.084-0.029-0.164-0.064-0.234c0.029-0.074,0.058-0.136,0.064-0.211c0.113-0.146,0.167-0.324,0.153-0.518v-0.016
	c-0.022-0.206-0.138-0.391-0.31-0.522c0.024-0.053,0.037-0.1,0.037-0.1c0.033-0.087,0.041-0.179,0.037-0.267l-0.004-0.152v-0.039
	c-0.007-0.049-0.023-0.1-0.033-0.14c0.01-0.065,0.01-0.121,0.009-0.183v-0.038c-0.021-0.167-0.101-0.308-0.222-0.427
	c0.006-0.047,0.01-0.098,0.006-0.148c0.041-0.102,0.046-0.207,0.045-0.316c0-0.011-0.004-0.011-0.004-0.011
	c-0.006-0.053-0.02-0.095-0.029-0.14c0.007-0.051,0.007-0.094,0.007-0.139c0-0.016-0.007-0.016-0.007-0.027
	c-0.008-0.102-0.042-0.209-0.094-0.305c0-0.013-0.006-0.022-0.006-0.04c0.08-0.138,0.119-0.29,0.1-0.442
	c0-0.037-0.008-0.053-0.012-0.088c-0.006-0.039-0.021-0.07-0.034-0.114c0.056-0.096,0.098-0.229,0.098-0.358v-0.069
	c-0.019-0.165-0.094-0.323-0.206-0.444c0.035-0.09,0.055-0.196,0.047-0.299l-0.009-0.15v-0.033c-0.003-0.074-0.03-0.128-0.053-0.188
	c0.022-0.097,0.04-0.188,0.03-0.273c-0.008-0.048-0.011-0.081-0.023-0.128l0.094-0.032c0.115-0.033,0.215-0.099,0.301-0.179
	c0.025-0.008,0.053-0.008,0.053-0.008c0.107-0.035,0.214-0.102,0.309-0.176c0.117-0.022,0.231-0.068,0.332-0.14
	c0.188-0.063,0.369-0.182,0.494-0.342c0.041-0.028,0.074-0.053,0.109-0.083c0,0,0.004-0.005,0.009-0.005l0.142-0.067
	c0.067-0.035,0.141-0.082,0.199-0.137c0.056-0.02,0.107-0.05,0.158-0.082c0.078-0.047,0.15-0.102,0.215-0.169
	c0.105-0.072,0.207-0.141,0.283-0.245c0,0,0.021-0.036,0.047-0.062c0.097-0.053,0.187-0.13,0.254-0.21l0.105-0.115
	c0.016-0.027,0.041-0.053,0.064-0.084c0.143-0.11,0.253-0.258,0.324-0.42c0-0.01,0.016-0.016,0.023-0.031l0.111-0.113
	c0.098-0.086,0.168-0.189,0.225-0.319c0.044-0.044,0.082-0.103,0.117-0.147c0,0,0.02-0.031,0.036-0.064
	c0.021-0.025,0.052-0.066,0.052-0.066c0.082-0.104,0.152-0.221,0.188-0.365l0.043-0.137c0.005-0.016,0.008-0.033,0.008-0.058
	l0.04-0.139c0-0.008,0-0.013,0.005-0.032c0.045-0.078,0.077-0.169,0.105-0.256c0,0,0-0.021,0.004-0.03
	c0.003-0.003,0.013-0.026,0.013-0.026c0.063-0.135,0.101-0.273,0.104-0.421c0.026-0.093,0.049-0.19,0.053-0.267
	c0.025-0.092,0.045-0.162,0.054-0.252l0.019-0.152c0.012-0.08,0.012-0.143,0-0.209c-0.008-0.098-0.035-0.193-0.072-0.296v-0.011
	c0-0.012-0.004-0.033-0.009-0.043c0.017-0.086,0.017-0.176,0.015-0.268c-0.006-0.05-0.01-0.086-0.02-0.135l-0.039-0.158
	c-0.016-0.073-0.052-0.15-0.078-0.221c0.007-0.079,0.018-0.164,0.007-0.245c-0.022-0.136-0.05-0.265-0.113-0.396
	c0,0-0.047-0.083-0.067-0.118c-0.014-0.031-0.053-0.117-0.053-0.117c-0.018-0.041-0.043-0.08-0.067-0.117
	c0,0-0.03-0.049-0.056-0.088c-0.03-0.156-0.094-0.307-0.197-0.432v-0.021c-0.023-0.198-0.102-0.395-0.217-0.543
	c-0.057-0.145-0.137-0.271-0.247-0.366c0,0-0.047-0.058-0.077-0.087c-0.033-0.068-0.07-0.139-0.121-0.199l-0.092-0.118
	c-0.037-0.04-0.078-0.081-0.109-0.113c-0.055-0.144-0.132-0.278-0.245-0.39c0,0-0.078-0.08-0.095-0.094
	c-0.059-0.116-0.127-0.223-0.219-0.308c-0.053-0.101-0.131-0.195-0.214-0.263c-0.044-0.074-0.101-0.139-0.159-0.201
	c-0.087-0.094-0.186-0.176-0.305-0.227c-0.041-0.059-0.08-0.105-0.127-0.15c-0.053-0.096-0.125-0.176-0.207-0.246l-0.117-0.11
	c-0.062-0.052-0.128-0.093-0.203-0.139c-0.064-0.058-0.122-0.104-0.19-0.147c0,0-0.028-0.018-0.036-0.021
	c-0.021-0.039-0.054-0.084-0.054-0.084c-0.049-0.082-0.108-0.148-0.169-0.215c-0.131-0.221-0.336-0.394-0.584-0.479
	c-0.043-0.056-0.092-0.098-0.152-0.135h-0.002c-0.064-0.081-0.129-0.139-0.206-0.204c0,0-0.078-0.046-0.108-0.071
	c-0.026-0.027-0.109-0.085-0.109-0.085c-0.049-0.065-0.098-0.122-0.148-0.175l-0.118-0.109c-0.081-0.082-0.183-0.138-0.281-0.188
	c-0.015-0.012-0.028-0.021-0.038-0.037L71.34,12.46c-0.06-0.053-0.113-0.085-0.188-0.125l-0.144-0.068
	c-0.018-0.014-0.041-0.015-0.056-0.021c-0.173-0.125-0.359-0.205-0.581-0.219c-0.395-0.018-0.772,0.188-0.961,0.539l-0.062,0.096
	c-0.066,0.128-0.108,0.27-0.126,0.408l-0.009,0.147c-0.009,0.065-0.009,0.123,0,0.192c0.005,0.066,0.024,0.113,0.033,0.177
	c0,0,0.012,0.062,0.025,0.098v0.008c0.008,0.028,0.008,0.063,0.008,0.063v0.086c-0.02,0.086-0.02,0.185-0.015,0.277
	c0.015,0.103,0.04,0.197,0.08,0.287c-0.02,0.107-0.026,0.205-0.02,0.311c0.003,0.008,0.003,0.022,0.003,0.048l0.02,0.152
	c0.014,0.081,0.035,0.167,0.07,0.252c0,0,0.008,0.028,0.025,0.065c0,0.021-0.005,0.062,0,0.094c0.003,0.034,0.01,0.076,0.016,0.109
	v0.158c-0.021,0.111-0.033,0.219-0.021,0.334c0.007,0.045,0.009,0.086,0.015,0.121l0.039,0.155c0.014,0.083,0.044,0.155,0.076,0.23
	c-0.045,0.13-0.062,0.269-0.045,0.412c0.013,0.104,0.041,0.216,0.084,0.319c-0.016,0.092-0.029,0.181-0.016,0.291
	c0.002,0.045,0.012,0.098,0.021,0.141l0.004,0.023v0.023c0,0.039,0.006,0.08,0.006,0.115c0,0.016,0,0.031,0.003,0.039l0.026,0.143
	c0,0.043,0.01,0.086,0.014,0.12c0,0.058,0,0.097,0.008,0.148c0,0.033,0.004,0.058,0.016,0.086c-0.012,0.075-0.016,0.146-0.012,0.226
	c0.014,0.131,0.054,0.256,0.105,0.369c0,0.038-0.004,0.07-0.004,0.07v0.318c0.014,0.106,0.033,0.194,0.066,0.297
	c0,0,0.012,0.021,0.026,0.041c-0.026,0.092-0.03,0.193-0.026,0.283c0.009,0.041,0.012,0.08,0.026,0.117
	c-0.01,0.055-0.015,0.123,0,0.188c0.008,0.102,0.022,0.197,0.06,0.295c0,0,0.007,0.027,0.024,0.045
	c-0.022,0.089-0.034,0.189-0.024,0.281c0.002,0.023,0.007,0.039,0.014,0.047c-0.008,0.047-0.005,0.086-0.007,0.127
	c-0.001,0.041-0.008,0.085-0.005,0.126c0.005,0.056,0.026,0.104,0.039,0.153s0.016,0.104,0.038,0.152
	c-0.005,0.055-0.01,0.105,0,0.152c0,0.017,0.005,0.023,0.005,0.037c-0.015,0.094-0.023,0.193-0.015,0.28
	c0.01,0.104,0.038,0.198,0.073,0.299v0.005c0,0.014,0.01,0.038,0.01,0.051c-0.014,0.088-0.021,0.18-0.01,0.264
	c0.01,0.104,0.044,0.205,0.088,0.312v0.059l-0.021,0.151c-0.014,0.077-0.014,0.165-0.005,0.239l0.013,0.162
	c0.006,0.029,0.014,0.055,0.014,0.076c-0.003,0.08-0.008,0.154-0.003,0.228c0.012,0.112,0.047,0.241,0.095,0.339v0.117
	c0.004,0.039,0.018,0.087,0.023,0.115c-0.027,0.12-0.038,0.234-0.027,0.357c0.004,0.037,0.008,0.074,0.021,0.109
	c-0.024,0.017-0.053,0.023-0.065,0.023c-0.029,0.018-0.044,0.018-0.065,0.018l-0.148,0.023c-0.135,0.021-0.256,0.093-0.357,0.178
	c-0.139-0.123-0.314-0.186-0.51-0.186c-0.127,0-0.257,0.028-0.362,0.088c-0.07-0.029-0.141-0.049-0.213-0.06
	c-0.071-0.011-0.146-0.011-0.222,0c-0.16,0.024-0.305,0.105-0.419,0.216c-0.026,0-0.059-0.003-0.089-0.003
	c-0.115-0.078-0.248-0.134-0.394-0.153c-0.253-0.02-0.499,0.086-0.652,0.287c-0.028,0.01-0.044,0.016-0.073,0.02
	c-0.049-0.02-0.102-0.041-0.162-0.043c-0.104-0.075-0.228-0.115-0.357-0.119c-0.166-0.014-0.322,0.029-0.46,0.119
	c-0.058-0.004-0.12-0.008-0.176-0.004c-0.118,0.004-0.226,0.043-0.319,0.088c-0.055-0.003-0.125-0.018-0.184-0.018
	c-0.082,0-0.152,0.015-0.223,0.035c-0.053-0.021-0.111-0.047-0.162-0.062c-0.211-0.064-0.438-0.025-0.619,0.098l-0.148,0.103
	c-0.01,0-0.02,0.013-0.02,0.013c-0.09,0-0.171,0.012-0.264,0.04c0,0-0.038,0.013-0.088,0.024c-0.141-0.024-0.287-0.024-0.424,0.033
	c0,0-0.018,0.01-0.027,0.013h-0.031c-0.053,0-0.108,0.007-0.166,0.025c0,0-0.035,0.004-0.072,0.017
	c-0.169-0.174-0.412-0.268-0.663-0.235h-0.001c-0.104,0.022-0.21,0.065-0.303,0.123c-0.061-0.015-0.123-0.028-0.193-0.028
	c-0.033,0-0.067,0-0.098,0.014c-0.104-0.038-0.223-0.043-0.33-0.025l0,0c-0.115,0.012-0.213,0.053-0.309,0.112h-0.059
	c-0.123,0.005-0.242,0.04-0.345,0.106c-0.144,0.004-0.29,0.061-0.396,0.145c-0.131-0.045-0.286-0.07-0.437-0.045
	c-0.12-0.061-0.254-0.09-0.403-0.078c-0.129,0.018-0.252,0.062-0.354,0.142c-0.12-0.063-0.252-0.101-0.388-0.079
	c-0.18,0.016-0.33,0.088-0.451,0.196c-0.115,0.046-0.221,0.104-0.304,0.198c-0.098-0.066-0.208-0.095-0.325-0.102
	c-0.122-0.059-0.258-0.09-0.393-0.074c-0.168-0.064-0.357-0.064-0.531,0l-0.138,0.062c-0.017,0-0.017,0.004-0.024,0.004
	l-0.139,0.074H56.2c-0.084-0.062-0.184-0.109-0.289-0.131c-0.103-0.021-0.213-0.02-0.318,0.014
	c-0.116,0.015-0.226,0.077-0.309,0.152c-0.047,0.013-0.093,0.033-0.131,0.055c-0.094-0.039-0.191-0.071-0.292-0.071
	c-0.055,0-0.103,0.017-0.155,0.024c-0.082-0.05-0.172-0.08-0.264-0.092s-0.188-0.006-0.279,0.018
	c-0.069,0.014-0.13,0.041-0.191,0.079c-0.105-0.013-0.222-0.013-0.327,0.021c-0.048,0.012-0.086,0.043-0.126,0.055
	c-0.085-0.035-0.186-0.064-0.275-0.072c-0.234-0.008-0.453,0.103-0.601,0.275h-0.06c-0.142-0.127-0.341-0.203-0.541-0.19
	c-0.146,0.018-0.278,0.063-0.391,0.153c-0.054-0.018-0.115-0.029-0.17-0.029h-0.162c-0.001,0-0.001,0-0.001,0
	c-0.018-0.004-0.034,0-0.056,0l-0.157,0.012c-0.099,0.003-0.198,0.029-0.292,0.08c-0.147,0.014-0.287,0.059-0.401,0.136
	c-0.146-0.122-0.352-0.198-0.56-0.187c-0.086,0.011-0.158,0.033-0.233,0.064c-0.018,0-0.044-0.014-0.054-0.014
	c-0.002,0-0.002,0-0.002,0c-0.187-0.025-0.367,0.018-0.51,0.115c-0.066-0.014-0.134-0.025-0.201-0.025
	c-0.161,0-0.316,0.063-0.439,0.154c-0.15-0.08-0.322-0.108-0.495-0.07c-0.183,0.033-0.345,0.145-0.452,0.294
	c-0.141-0.139-0.32-0.241-0.523-0.241c-0.096,0-0.187,0.015-0.271,0.033c-0.068,0-0.142,0-0.203,0.022
	c-0.199,0.036-0.357,0.136-0.473,0.284c-0.025,0.014-0.043,0.014-0.068,0.014c-0.13-0.088-0.296-0.133-0.474-0.128
	c-0.157,0-0.301,0.067-0.419,0.165c-0.164-0.138-0.378-0.199-0.592-0.165c-0.035,0.016-0.07,0.027-0.095,0.027
	c-0.114-0.007-0.225,0.015-0.331,0.052c-0.071,0.024-0.141,0.052-0.202,0.098c0,0-0.094,0.072-0.126,0.102
	c-0.037,0-0.078,0.003-0.118,0.016c-0.112-0.045-0.243-0.061-0.368-0.045c0,0-0.034,0.004-0.058,0.013
	c-0.116-0.063-0.244-0.097-0.384-0.085c-0.116,0-0.23,0.041-0.327,0.102c-0.105-0.041-0.221-0.055-0.339-0.045
	c-0.156,0.016-0.304,0.086-0.412,0.188c-0.041-0.011-0.071-0.02-0.105-0.02c-0.163-0.009-0.315,0.042-0.44,0.14
	c-0.044,0.003-0.087,0.018-0.13,0.041c-0.17-0.198-0.423-0.302-0.676-0.264c-0.136,0.025-0.252,0.074-0.349,0.155
	c-0.083-0.03-0.169-0.03-0.251-0.015c-0.195-0.075-0.422-0.056-0.605,0.053c-0.099-0.038-0.213-0.068-0.327-0.053
	c-0.141,0.015-0.278,0.062-0.381,0.146c-0.106-0.006-0.202,0.019-0.303,0.057c-0.053-0.02-0.112-0.029-0.17-0.03
	c-0.059-0.003-0.118,0.001-0.174,0.011c-0.017,0-0.039,0.02-0.054,0.02c-0.115-0.057-0.247-0.062-0.373-0.057
	c-0.134,0.031-0.257,0.078-0.355,0.172c-0.094-0.051-0.185-0.074-0.283-0.088c-0.114-0.006-0.223,0.018-0.32,0.061
	c-0.072,0-0.141,0-0.218,0.012c-0.099-0.045-0.203-0.068-0.307-0.066c-0.105,0.002-0.211,0.027-0.31,0.082c0,0-0.021,0-0.032,0.013
	h-0.014c-0.137,0.011-0.267,0.053-0.376,0.134c-0.112,0.021-0.213,0.058-0.307,0.123c-0.001-0.012-0.009-0.012-0.016-0.012
	c-0.099-0.023-0.198-0.025-0.294-0.008c-0.095,0.016-0.188,0.051-0.269,0.102c-0.021-0.013-0.045-0.039-0.045-0.039
	c-0.137-0.137-0.321-0.207-0.511-0.207v-0.04c-0.006-0.053-0.021-0.118-0.041-0.181c0.031-0.065,0.041-0.148,0.041-0.23l0.008-0.154
	c0-0.029,0-0.061-0.007-0.086c-0.007-0.106-0.046-0.215-0.09-0.299v-0.119c-0.013-0.051-0.02-0.098-0.029-0.144
	c0.012-0.069,0.016-0.146,0.012-0.218l-0.008-0.174c0,0,0-0.008-0.003-0.008c0.042-0.109,0.06-0.219,0.05-0.334
	c0-0.012,0-0.02-0.003-0.033c-0.008-0.051-0.018-0.095-0.038-0.139c0-0.039,0.003-0.081,0-0.121
	c-0.005-0.03-0.014-0.083-0.017-0.113c0,0-0.017-0.045-0.024-0.084c0.008-0.044,0.021-0.102,0.021-0.15
	c0.046-0.09,0.062-0.192,0.07-0.301c0.002-0.025,0-0.059-0.008-0.082v-0.01c0.008-0.031,0.01-0.057,0.01-0.078
	c0.01-0.049,0.01-0.083,0-0.131c-0.019-0.211-0.133-0.41-0.31-0.537c0-0.038,0-0.07-0.008-0.108
	c-0.004-0.091-0.026-0.188-0.061-0.276c0.003-0.062,0.008-0.125,0.003-0.19c0-0.022-0.008-0.044-0.013-0.073
	c0.013-0.082,0.013-0.15,0.005-0.231c-0.01-0.124-0.04-0.233-0.088-0.342c0,0-0.02-0.042-0.039-0.083
	c-0.014-0.032-0.019-0.066-0.019-0.066c-0.004-0.001-0.009-0.006-0.009-0.006c0.004-0.053,0.009-0.111,0.009-0.111v-0.062
	c0.04-0.145,0.057-0.273,0.04-0.414c-0.009-0.125-0.052-0.266-0.124-0.379V21.64c0.033-0.107,0.04-0.219,0.03-0.317
	c-0.008-0.018-0.008-0.022-0.008-0.038v-0.053c0.018-0.079,0.018-0.148,0.011-0.227c-0.019-0.119-0.054-0.237-0.104-0.343
	c0.014-0.089,0.022-0.178,0.014-0.259c0-0.045-0.014-0.084-0.024-0.117c0.005-0.019,0.005-0.039,0.005-0.039
	c0.027-0.105,0.03-0.208,0.023-0.305c-0.015-0.104-0.04-0.193-0.074-0.281c0.003-0.004,0.003-0.023,0.003-0.023
	c0-0.053,0-0.103-0.003-0.148c0-0.022-0.006-0.04-0.009-0.061c0.012-0.083,0.012-0.166,0.009-0.246
	c-0.006-0.062-0.021-0.125-0.042-0.186c0-0.037,0.004-0.084,0-0.12c-0.007-0.091-0.029-0.19-0.067-0.28
	c0.003-0.061,0.008-0.119,0.003-0.174c0-0.011,0-0.028-0.003-0.038l-0.017-0.156c-0.016-0.034-0.02-0.07-0.024-0.108
	c0.024-0.104,0.026-0.203,0.01-0.304c-0.002-0.065-0.01-0.112-0.019-0.181l-0.044-0.139c-0.006-0.025-0.007-0.039-0.018-0.052
	c0-0.021,0-0.048-0.002-0.063c-0.006-0.075-0.017-0.14-0.037-0.199c0.016-0.076,0.017-0.162,0.008-0.24v-0.012
	c0.011-0.083,0.022-0.173,0.011-0.27c-0.003-0.1-0.034-0.201-0.071-0.301l-0.054-0.121c-0.155-0.373-0.514-0.629-0.923-0.639
	c-0.302-0.006-0.59,0.115-0.792,0.328c-0.135,0.076-0.246,0.162-0.339,0.294c0,0-0.017,0.017-0.039,0.045
	c-0.035,0.021-0.069,0.042-0.069,0.042c-0.08,0.051-0.154,0.126-0.214,0.199l-0.11,0.127c0,0-0.007,0.011-0.017,0.025l-0.085,0.121
	c-0.07,0.084-0.119,0.17-0.154,0.281c-0.001,0.005-0.006,0.02-0.021,0.021l-0.004,0.005c-0.128,0.064-0.241,0.16-0.327,0.275
	l-0.097,0.124c-0.064,0.075-0.112,0.157-0.148,0.249h-0.004c-0.126,0.123-0.225,0.266-0.28,0.432c0,0.01-0.083,0.113-0.092,0.128
	c-0.132,0.088-0.242,0.194-0.319,0.337l-0.116,0.105c-0.08,0.082-0.146,0.16-0.194,0.264l-0.078,0.143
	c-0.025,0.037-0.034,0.073-0.056,0.113c-0.048,0.07-0.097,0.135-0.132,0.216l-0.002,0.02l-0.01,0.003
	c-0.056,0.061-0.106,0.141-0.141,0.213c-0.108,0.11-0.189,0.239-0.24,0.385l-0.054,0.152c-0.014,0.021-0.019,0.057-0.022,0.072
	c-0.017,0.016-0.024,0.039-0.024,0.039c-0.05,0.053-0.09,0.104-0.125,0.176l-0.084,0.139v0.018
	c-0.146,0.152-0.255,0.334-0.294,0.553c-0.061,0.104-0.105,0.244-0.118,0.365c-0.009,0.031-0.024,0.053-0.029,0.08
	c0,0-0.015,0.043-0.032,0.078c-0.178,0.199-0.27,0.461-0.257,0.733c-0.066,0.11-0.116,0.214-0.148,0.347l-0.027,0.146
	c-0.016,0.062-0.019,0.131-0.019,0.203c-0.079,0.147-0.114,0.324-0.114,0.505c-0.034,0.117-0.042,0.246-0.034,0.37
	c0,0.025,0.013,0.049,0.021,0.086c-0.008,0.07-0.021,0.148-0.008,0.215c0.008,0.072,0.021,0.149,0.039,0.218
	c0,0.003-0.01,0.025-0.01,0.025c-0.028,0.108-0.045,0.228-0.041,0.339l0.013,0.165c0,0.008,0.004,0.027,0.004,0.035
	c0.004,0.058,0.012,0.121,0.027,0.165l0.041,0.152c0.003,0.039,0.019,0.072,0.031,0.11c0,0,0.032,0.083,0.043,0.122v0.045
	c0.023,0.168,0.074,0.319,0.162,0.475c0.014,0.008,0.021,0.038,0.029,0.059l0.008,0.025c0,0.01,0.001,0.029,0.001,0.029
	c0.025,0.225,0.117,0.427,0.273,0.591l0.104,0.112h0.004c0.011,0.028,0.026,0.049,0.034,0.07c0,0,0.006,0.013,0.013,0.025
	c0.004,0.01,0.004,0.025,0.004,0.025c0.069,0.226,0.217,0.414,0.401,0.542c0.083,0.112,0.19,0.198,0.305,0.267
	c0.017,0.033,0.084,0.123,0.084,0.123c0.114,0.168,0.272,0.297,0.459,0.371l0.015,0.008c0.002,0,0.005,0.014,0.005,0.014
	c0.017,0,0.034,0.014,0.048,0.023l0.097,0.126c0.098,0.123,0.211,0.229,0.353,0.296l0.141,0.073c0.046,0.025,0.099,0.03,0.151,0.054
	c0.139,0.125,0.308,0.213,0.497,0.25c0.053,0.027,0.103,0.053,0.165,0.074c0.075,0.049,0.165,0.104,0.259,0.132
	c0.107,0.081,0.229,0.136,0.356,0.173c0.135,0.064,0.287,0.114,0.442,0.131c0.063,0.035,0.117,0.062,0.185,0.081l0.13,0.042
	c0.091,0.039,0.196,0.049,0.293,0.049c0.141,0.105,0.321,0.168,0.507,0.175h0.064c-0.097,0.146-0.146,0.321-0.125,0.495v0.03
	l0.017,0.138c0,0.037,0.01,0.062,0.021,0.105c-0.033,0.088-0.05,0.193-0.034,0.297c0,0.002-0.001,0.004,0,0.006
	c0.005,0.09,0.035,0.187,0.088,0.279c-0.032,0.092-0.049,0.184-0.043,0.281c0.007,0.018,0.011,0.045,0.011,0.066
	c0.037,0.17,0.117,0.318,0.245,0.427c0.014,0.013,0.014,0.021,0.02,0.035c-0.11,0.14-0.155,0.325-0.147,0.501
	c0.008,0.087,0.037,0.175,0.079,0.262c-0.098,0.143-0.146,0.312-0.125,0.492c0,0.014,0.004,0.031,0.004,0.063
	c0.018,0.083,0.047,0.169,0.095,0.249c0.01,0.035,0.017,0.09,0.025,0.121c-0.002,0.057-0.002,0.104,0,0.164
	c0.01,0.115,0.05,0.232,0.12,0.342c-0.02,0.07-0.028,0.152-0.028,0.233c0,0,0.008,0.075,0.008,0.12s-0.008,0.123-0.008,0.123v0.104
	c0.023,0.119,0.066,0.258,0.133,0.359c0,0,0.011,0.012,0.016,0.012c-0.016,0.07-0.018,0.135-0.016,0.209
	c0,0.025,0.011,0.033,0.016,0.062c-0.109,0.139-0.167,0.305-0.157,0.497v0.023c0.022,0.178,0.109,0.354,0.24,0.477
	c-0.076,0.081-0.121,0.186-0.153,0.304c-0.009,0.07-0.013,0.151-0.009,0.221c0.009,0.129,0.052,0.25,0.126,0.354
	c-0.052,0.111-0.077,0.242-0.064,0.376c0.002,0,0.002,0.017,0.002,0.021c0.02,0.163,0.095,0.312,0.2,0.407
	c-0.03,0.101-0.038,0.195-0.03,0.291c0.008,0.098,0.045,0.203,0.098,0.307c-0.011,0.021-0.028,0.066-0.038,0.091
	c0.604-0.199,1.218-0.376,1.85-0.507c-0.015-0.036-0.019-0.078-0.039-0.111c0.013-0.057,0.015-0.113,0.025-0.166
	c0.049-0.13,0.071-0.254,0.061-0.382c-0.006-0.064-0.021-0.123-0.044-0.185c0.016-0.074,0.028-0.158,0.024-0.223v-0.023
	c-0.014-0.145-0.071-0.273-0.154-0.38c0.015-0.065,0.015-0.13,0.01-0.192c0-0.004-0.004-0.009-0.004-0.009
	c0.017-0.063,0.031-0.112,0.031-0.173c0.007-0.04,0.007-0.064,0-0.104c0-0.049-0.015-0.083-0.022-0.115
	c0.007-0.064,0.007-0.123,0.007-0.183c-0.007-0.022-0.007-0.044-0.017-0.076c-0.023-0.122-0.078-0.226-0.151-0.316v-0.02
	c-0.011-0.051-0.015-0.105-0.028-0.146v-0.074c0.104-0.139,0.156-0.316,0.144-0.508v-0.01c-0.031-0.183-0.113-0.344-0.245-0.467
	c0.021-0.064,0.032-0.13,0.032-0.192c0-0.024-0.009-0.048-0.011-0.071c0-0.082-0.039-0.165-0.076-0.246
	c0.052-0.102,0.076-0.221,0.064-0.338v-0.012c0.04-0.107,0.062-0.201,0.048-0.324h-0.004c0-0.072-0.017-0.123-0.032-0.18
	c0.011-0.058,0.023-0.102,0.028-0.162c0.004-0.031,0.004-0.084,0-0.121c-0.013-0.123-0.051-0.227-0.118-0.336
	c0.061-0.109,0.09-0.246,0.09-0.369c0-0.02-0.009-0.03-0.009-0.043c-0.014-0.188-0.11-0.369-0.255-0.494
	c0-0.021,0.006-0.039,0-0.068v-0.027c0.135-0.15,0.211-0.355,0.189-0.572c0-0.019-0.006-0.047-0.006-0.073
	c-0.031-0.173-0.13-0.325-0.26-0.433c0.104-0.105,0.18-0.258,0.202-0.412l0.018-0.125c0.009-0.047,0.009-0.108,0.003-0.162
	c-0.01-0.081-0.031-0.152-0.061-0.229c0.072,0.024,0.141,0.05,0.216,0.05c0.061,0,0.118,0,0.178-0.011
	c0.093,0.027,0.198,0.037,0.295,0.027c0.082-0.017,0.155-0.042,0.225-0.075c0.091,0.009,0.191,0.021,0.29,0c0,0,0,0,0.001,0
	l0.155-0.034c0.016,0,0.043-0.014,0.056-0.021c0.111,0.044,0.227,0.063,0.351,0.044c0.264-0.023,0.485-0.195,0.591-0.436
	c0.027,0,0.056-0.013,0.081-0.014c0.012,0,0.031,0.014,0.044,0.025c0.141,0.206,0.391,0.342,0.662,0.33
	c0.131-0.014,0.253-0.043,0.356-0.114c0.121,0.007,0.24-0.017,0.354-0.062c0.059-0.031,0.113-0.056,0.167-0.102
	c0.016,0,0.024-0.008,0.042-0.008l0.161-0.045c0.101-0.025,0.191-0.076,0.27-0.137c0.065-0.021,0.129-0.041,0.197-0.07l0.011-0.011
	c0.042,0.015,0.09,0.021,0.09,0.021c0.025,0.008,0.046,0.008,0.073,0.008c0.167,0.234,0.445,0.368,0.729,0.312
	c0.064-0.007,0.116-0.024,0.165-0.043c0.072,0.019,0.148,0.023,0.224,0.019c0.147-0.018,0.278-0.06,0.389-0.148
	c0.103,0.003,0.203-0.008,0.301-0.048c0.079,0.043,0.167,0.074,0.259,0.088c0.093,0.014,0.189,0.011,0.286-0.016l0.157-0.029
	c0.14-0.033,0.264-0.108,0.362-0.207c0.083,0.026,0.171,0.055,0.272,0.044c0.082-0.003,0.164-0.023,0.233-0.056
	c0.062,0.008,0.127,0.008,0.193-0.005h0.003c0.085,0.04,0.177,0.062,0.269,0.067c0.093,0.006,0.186-0.005,0.277-0.03
	c0.092,0.038,0.199,0.052,0.299,0.052c0.111,0,0.215-0.031,0.304-0.084c0.017,0,0.027,0.008,0.044,0.012c0,0,0,0,0,0
	c0.245,0.038,0.488-0.055,0.65-0.232c0,0,0.057-0.061,0.096-0.1c0.113,0.044,0.24,0.069,0.369,0.059
	c0.054-0.008,0.097-0.02,0.146-0.037c0.053,0.018,0.101,0.029,0.15,0.037c0.099,0.066,0.213,0.107,0.331,0.121
	c0.118,0.016,0.239,0.002,0.354-0.041c0.065,0.012,0.138,0.021,0.205,0.021h0.156c0.166,0,0.312-0.049,0.434-0.139h0.009
	l0.163,0.008c0.115,0,0.23-0.027,0.334-0.068c0.096,0.041,0.206,0.078,0.326,0.083c0.126,0,0.256-0.034,0.358-0.083
	c0.106,0.039,0.222,0.068,0.337,0.065c0.16-0.005,0.307-0.065,0.439-0.169c0.021,0.017,0.045,0.025,0.076,0.025
	c0.188,0.035,0.379-0.014,0.532-0.125c0.073,0.027,0.153,0.027,0.229,0.027c0.062,0,0.133-0.014,0.193-0.035
	c0.048,0.021,0.095,0.063,0.151,0.074c0.114,0.037,0.236,0.045,0.352,0.026c0.116-0.019,0.228-0.063,0.322-0.134
	c0,0,0.006-0.006,0.01-0.01c0.006-0.004,0.009-0.009,0.012-0.009c0.059-0.014,0.117-0.019,0.166-0.03
	c0.289,0.117,0.624,0.049,0.838-0.187l0.141-0.166c0.029-0.026,0.052-0.06,0.069-0.093c0.144,0.221,0.394,0.357,0.667,0.348
	c0.023,0.01,0.045,0.022,0.072,0.035c0.226,0.062,0.471,0.031,0.658-0.108c0.098,0.018,0.191,0.018,0.295,0.009
	c0.107-0.009,0.205-0.053,0.287-0.104c0.05,0.023,0.108,0.037,0.154,0.041c0.2,0.021,0.404-0.034,0.562-0.154l0.149-0.124
	c0.005,0,0.005,0,0.016-0.013c0.077,0.013,0.16,0,0.241-0.037c0.02,0,0.037-0.014,0.064-0.016c0.051,0.008,0.111,0.016,0.173,0.016
	c0.077,0.037,0.163,0.065,0.249,0.072c0.105,0.076,0.221,0.125,0.34,0.143c0.121,0.018,0.243,0.006,0.361-0.041
	c0.023-0.014,0.052-0.021,0.077-0.033h0.041c0.087-0.021,0.167-0.04,0.241-0.075c0.039,0.007,0.084,0.013,0.084,0.013
	c0.217,0.062,0.439,0,0.604-0.123c0.11,0.045,0.229,0.074,0.347,0.053c0.126-0.008,0.245-0.041,0.349-0.099
	c0.121,0.058,0.256,0.091,0.39,0.083c0.067,0.022,0.135,0.041,0.203,0.049s0.141,0.006,0.212-0.012
	c0.113-0.029,0.228-0.074,0.312-0.145c0.031-0.011,0.055-0.011,0.091-0.011c0.042-0.013,0.088-0.028,0.126-0.034
	c0.055,0.006,0.1,0.006,0.138-0.006l0.156-0.013c0.004,0,0.013,0,0.017-0.011c0.059,0.02,0.121,0.025,0.182,0.029
	c0.015,0.002,0.03,0.009,0.045,0.009c0.076-0.001,0.15-0.015,0.224-0.04c0.01-0.008,0.012-0.016,0.021-0.016h0.049
	c0.094,0,0.184-0.02,0.265-0.047c0.069,0.041,0.135,0.062,0.214,0.075l0.156,0.024c0.205,0.039,0.418-0.012,0.578-0.138
	c0.053,0.019,0.106,0.046,0.174,0.056c0.244,0.047,0.51-0.037,0.686-0.221c0.039,0.015,0.076,0.025,0.117,0.025
	c0.041,0.012,0.082,0.012,0.127,0.012c0.143,0.057,0.307,0.078,0.467,0.033c0.095-0.018,0.189-0.07,0.269-0.128
	c0.062,0,0.125-0.009,0.178-0.018c0.161-0.04,0.308-0.132,0.41-0.257h0.048c0.059,0,0.117-0.014,0.175-0.02
	c0.026,0,0.048,0.002,0.079,0.006c0.147,0.164,0.356,0.246,0.584,0.23c0.154,0,0.295-0.063,0.408-0.152
	c0.154,0.041,0.326,0.031,0.48-0.036c0,0,0.059-0.028,0.106-0.046c0.021,0.004,0.045,0.018,0.045,0.018
	c0.107,0.035,0.219,0.045,0.327,0.031c0.109-0.013,0.213-0.047,0.304-0.1c0.112,0.026,0.235,0.026,0.353-0.007
	c0.012-0.009,0.026-0.013,0.045-0.013c0.134,0.105,0.315,0.158,0.493,0.152c0.001,0,0.001,0,0.001,0
	c0.154,0,0.298-0.064,0.406-0.152c0.09-0.024,0.174-0.062,0.25-0.109h0.002c0.072,0.023,0.148,0.039,0.225,0.044
	c0.075,0.005,0.15-0.001,0.225-0.022c0.145,0.075,0.304,0.107,0.471,0.088c0.094-0.024,0.179-0.045,0.262-0.098
	c0.011,0,0.025,0,0.033-0.012c0.022,0,0.035-0.003,0.047-0.01c0.113,0.074,0.246,0.106,0.385,0.095l0,0
	c0.205,0,0.392-0.088,0.52-0.231c0.091-0.021,0.182-0.061,0.26-0.107c0.188,0.035,0.389,0.007,0.547-0.09l0.133-0.079
	c0.043,0.04,0.096,0.058,0.143,0.085c0,0,0.031,0.014,0.058,0.021c0.013,0.05,0.026,0.099,0.026,0.099
	c0.021,0.096,0.074,0.182,0.132,0.254c-0.118,0.143-0.192,0.312-0.192,0.494v0.074c0.004,0.041,0.008,0.072,0.018,0.109
	c-0.014,0.066-0.014,0.135-0.01,0.207c0,0.016,0,0.033,0.005,0.051c0.03,0.156,0.109,0.303,0.22,0.415
	c-0.031,0.091-0.055,0.202-0.04,0.31c0.003,0.009,0.003,0.032,0.009,0.054c0.018,0.11,0.057,0.212,0.122,0.299
	c-0.071,0.129-0.104,0.28-0.089,0.433v0.023c0.006,0.014,0.008,0.021,0.008,0.035c-0.02,0.08-0.031,0.157-0.023,0.242v0.014
	c0.002,0.057,0.024,0.113,0.04,0.18c-0.001,0.03-0.001,0.062-0.001,0.102c0,0.01,0,0.01,0.001,0.021
	c0.015,0.105,0.044,0.188,0.093,0.283c-0.051,0.109-0.064,0.225-0.054,0.342c0.005,0.061,0.013,0.104,0.028,0.15
	c0.025,0.082,0.061,0.148,0.105,0.217c0.029,0.158,0.107,0.324,0.241,0.428c-0.038,0.092-0.046,0.193-0.038,0.288
	c0,0.015,0.01,0.04,0.014,0.063c-0.021,0.084-0.035,0.182-0.021,0.26c0.006,0.071,0.018,0.139,0.046,0.201
	c-0.073,0.116-0.106,0.248-0.106,0.391c0,0.018,0,0.027,0.004,0.045c0.01,0.145,0.064,0.269,0.148,0.387
	c0.002,0.005,0.01,0.039,0.018,0.053c-0.016,0.064-0.018,0.137-0.016,0.189c0.008,0.057,0.018,0.123,0.04,0.18
	c-0.024,0.068-0.04,0.135-0.042,0.193c0,0.035,0,0.076,0.002,0.115c0.008,0.086,0.035,0.166,0.072,0.238
	c-0.057,0.128-0.083,0.262-0.072,0.391c0.016,0.127,0.059,0.271,0.148,0.369l0.105,0.159c0.012,0.013,0.02,0.022,0.029,0.03
	c0.01,0.01,0.018,0.018,0.028,0.031c-0.019,0.027-0.026,0.078-0.036,0.112c0,0-0.008,0.042-0.021,0.067
	c-0.021,0.039-0.039,0.07-0.039,0.07c-0.067,0.145-0.102,0.293-0.093,0.441c0.005,0.068,0.025,0.121,0.046,0.187
	c0.037,0.097,0.095,0.183,0.166,0.256c-0.084,0.128-0.123,0.279-0.119,0.444v0.038c0.014,0.144,0.07,0.259,0.148,0.371
	c-0.043,0.071-0.078,0.156-0.09,0.241c-0.011,0.062-0.018,0.126-0.006,0.187c0.018,0.173,0.086,0.331,0.213,0.461
	c0,0,0.034,0.034,0.071,0.069c0.021,0.02,0.043,0.042,0.056,0.054c-0.101,0.123-0.161,0.279-0.169,0.444
	c0,0.025,0,0.066,0.005,0.088c-0.039,0.1-0.057,0.207-0.045,0.312c0,0.016,0.005,0.029,0.005,0.042
	c0.043,0.274,0.229,0.507,0.49,0.598v0.003c0,0.035,0,0.064,0.011,0.1c0.009,0.071,0.026,0.139,0.051,0.213
	c-0.151,0.154-0.235,0.373-0.212,0.59c0,0.015,0.003,0.041,0.007,0.055c0.023,0.181,0.119,0.309,0.241,0.429
	c0.006,0.048,0.032,0.099,0.032,0.099c0.004,0.043,0.014,0.084,0.035,0.121c0,0.023-0.008,0.049,0,0.068
	c0.008,0.068,0.023,0.134,0.045,0.195v0.135l0.018,0.168c0,0.022,0.006,0.051,0.012,0.088c0,0,0.026,0.104,0.031,0.143
	c0.006,0.021,0.023,0.137,0.023,0.137c-0.023,0.07-0.03,0.141-0.03,0.205c-0.024,0.041-0.046,0.086-0.054,0.139l-0.055,0.148
	c-0.005,0.018-0.012,0.031-0.012,0.047l-0.04,0.161c-0.013,0.067-0.015,0.156-0.006,0.221c0,0.04,0.003,0.063,0.006,0.104
	l0.034,0.149c0.035,0.132,0.096,0.258,0.196,0.348c-0.015,0.043-0.015,0.101-0.007,0.153c0.007,0.022,0.007,0.037,0.007,0.043
	c0.008,0.044,0.016,0.079,0.038,0.123c-0.096,0.136-0.139,0.301-0.118,0.462v0.013c0.007,0.052,0.012,0.085,0.022,0.136
	c-0.006,0.039-0.006,0.064-0.006,0.123c-0.007,0.021-0.072,0.145-0.072,0.145c-0.059,0.119-0.082,0.259-0.064,0.385
	c0.004,0.061,0.017,0.131,0.041,0.201c0.008,0.012,0.014,0.029,0.021,0.043c0.007,0.014,0.014,0.023,0.02,0.044
	c-0.006,0.042-0.006,0.091-0.006,0.138v0.053c0.018,0.223,0.137,0.405,0.31,0.539v0.006c0,0.014-0.008,0.021-0.008,0.021
	c-0.054,0.131-0.075,0.256-0.063,0.379c0.006,0.043,0.018,0.091,0.027,0.139c-0.01,0.062-0.01,0.122-0.003,0.184
	c0,0.009,0,0.027,0.003,0.029c0,0,0.01,0.066,0.02,0.126v0.11c0,0.022,0.004,0.049,0.004,0.061c0.013,0.129,0.051,0.24,0.125,0.351
	c-0.029,0.096-0.041,0.193-0.034,0.299c0,0.013,0,0.026,0.003,0.034c0.02,0.096,0.04,0.176,0.082,0.257
	c-0.135,0.153-0.209,0.354-0.189,0.563c0.004,0.002,0.004,0.016,0.01,0.03c0.024,0.249,0.19,0.452,0.398,0.563v0.104
	c-0.07,0.099-0.118,0.201-0.13,0.309c-0.019,0.076-0.022,0.141-0.019,0.205c0.011,0.074,0.028,0.14,0.051,0.202v0.015
	c-0.058,0.121-0.098,0.256-0.082,0.398v0.042c0.015,0.075,0.042,0.14,0.077,0.213c-0.05,0.112-0.077,0.241-0.062,0.367
	c0.01,0.03,0.013,0.085,0.022,0.128c0.033,0.131,0.107,0.244,0.205,0.34c-0.027,0.09-0.045,0.19-0.032,0.29
	c0,0.018,0.005,0.036,0.009,0.05c0,0,0.01,0.07,0.014,0.115c0.001,0.052,0.001,0.113,0.001,0.113c0,0.016,0.009,0.021,0.009,0.03
	c0.004,0.009,0.008,0.023,0.009,0.036c0.002,0.013,0.005,0.023,0.009,0.037l-0.041,0.15c-0.021,0.086-0.025,0.177-0.021,0.254
	c0.004,0.018,0.004,0.033,0.013,0.066l0.022,0.152c0.019,0.109,0.07,0.215,0.141,0.301c-0.029,0.08-0.037,0.18-0.029,0.264
	c0.005,0.081,0.029,0.154,0.058,0.234c0,0,0.009,0,0.009,0.008c-0.021,0.067-0.027,0.137-0.021,0.221v0.006
	c0.013,0.102,0.038,0.18,0.076,0.266c0,0.015-0.002,0.025-0.002,0.025c-0.002,0.051-0.002,0.102-0.002,0.139
	c-0.051,0.114-0.078,0.25-0.064,0.375c0,0.012,0,0.014,0.005,0.035c0.022,0.172,0.115,0.321,0.231,0.439
	c-0.074,0.119-0.123,0.242-0.133,0.377l-0.003,0.166v0.11c0.003,0.044,0.015,0.081,0.024,0.125
	c-0.015,0.062-0.015,0.136-0.012,0.202c0.004,0.009,0.004,0.01,0.004,0.016c0,0.004,0.003,0.011,0.003,0.016
	c0.009,0.062,0.03,0.121,0.054,0.18c0.036,0.088,0.08,0.168,0.143,0.23c0.008,0.029,0.02,0.058,0.03,0.078
	c-0.03,0.092-0.04,0.193-0.03,0.277c0,0.041,0.008,0.08,0.02,0.123c0,0,0.006,0.021,0.013,0.051
	c0.003,0.015,0.007,0.031,0.011,0.048c-0.078,0.134-0.123,0.291-0.105,0.456c0.014,0.152,0.077,0.303,0.173,0.418
	c0.022,0.076,0.042,0.136,0.078,0.208c-0.042,0.112-0.065,0.224-0.049,0.332c0.003,0.069,0.013,0.117,0.033,0.171
	c0.042,0.127,0.126,0.244,0.224,0.339c0,0.011-0.005,0.036,0,0.065c0,0.01,0,0.02,0.002,0.031c-0.002,0.021-0.014,0.041-0.014,0.057
	l-0.029,0.152c-0.014,0.07-0.014,0.148-0.004,0.213c0.007,0.151,0.07,0.277,0.164,0.398c-0.007,0.01-0.016,0.018-0.016,0.018
	c-0.196,0.154-0.285,0.403-0.27,0.64c0.008,0.045,0.013,0.089,0.029,0.141c0.023,0.07,0.051,0.136,0.092,0.198
	c-0.018,0.072-0.041,0.16-0.03,0.244v0.012c0.021,0.199,0.115,0.373,0.271,0.497c0.036,0.091,0.098,0.181,0.169,0.26
	c-0.071,0.126-0.104,0.278-0.094,0.413c0.003,0.031,0.006,0.054,0.006,0.08c-0.136,0.154-0.208,0.354-0.186,0.559
	c0,0.008,0,0.027,0.01,0.035c0.019,0.178,0.103,0.33,0.231,0.443c-0.071,0.127-0.106,0.268-0.101,0.424v0.01
	c0,0.012,0.002,0.014,0.002,0.023c-0.024,0.074-0.038,0.166-0.036,0.252c0,0.014,0.006,0.037,0.006,0.041
	c0.014,0.148,0.073,0.283,0.161,0.403c0,0.011-0.005,0.036-0.005,0.036c-0.006,0.049-0.013,0.117-0.004,0.164
	c0.009,0.104,0.044,0.209,0.102,0.305c-0.016,0.022,0,0.062,0,0.094c-0.067,0.117-0.093,0.246-0.073,0.389
	c0,0.01,0.003,0.032,0.003,0.045c0.013,0.108,0.055,0.209,0.112,0.293c-0.069,0.117-0.109,0.248-0.109,0.389v0.059
	c0.017,0.174,0.097,0.354,0.237,0.467c0,0,0.008,0.008,0.013,0.008c-0.029,0.102-0.04,0.193-0.037,0.297v0.01
	c0.024,0.168,0.091,0.309,0.19,0.417c-0.05,0.116-0.07,0.235-0.059,0.36c0.004,0.021,0.009,0.055,0.018,0.094
	c0.023,0.106,0.069,0.206,0.139,0.299c-0.039,0.074-0.062,0.154-0.075,0.238c-0.01,0.055-0.017,0.111-0.013,0.167
	c0.009,0.022,0.009,0.063,0.019,0.089c0.007,0.066,0.034,0.111,0.052,0.157c-0.004,0.042-0.009,0.081-0.012,0.123
	c0,0.032,0,0.067,0.002,0.114c0.006,0.043,0.01,0.096,0.031,0.148c-0.092,0.124-0.143,0.282-0.139,0.447v0.168
	c0.004,0.006,0.004,0.027,0.004,0.043c0.021,0.199,0.113,0.381,0.268,0.506v0.05c-0.072,0.124-0.101,0.264-0.08,0.404v0.019
	c0,0.018,0.007,0.043,0.008,0.074c-0.038,0.088-0.064,0.179-0.072,0.271c0,0.039,0,0.077,0.008,0.119
	c0.004,0.072,0.023,0.148,0.057,0.217c-0.014,0.04-0.021,0.088-0.021,0.135v0.204c0.021,0.19,0.106,0.354,0.248,0.479
	c-0.015,0.046-0.017,0.092-0.017,0.129v0.219c0.017,0.131,0.061,0.25,0.125,0.35c-0.003,0.011-0.003,0.037-0.003,0.037
	c-0.009,0.055-0.009,0.113-0.009,0.173c0.004,0.034,0.009,0.06,0.012,0.081c-0.008,0.062-0.012,0.133-0.008,0.207l0.016,0.141
	c0.006,0.059,0.012,0.109,0.03,0.16c-0.058,0.109-0.097,0.24-0.097,0.363c0,0.031,0,0.039,0.006,0.052
	c0,0.024,0.005,0.05,0.016,0.068c-0.021,0.069-0.027,0.151-0.021,0.224c0.006,0.095,0.039,0.188,0.078,0.275
	c0,0,0.045,0.083,0.059,0.108c-0.09,0.148-0.131,0.313-0.115,0.479c0.005,0.029,0.005,0.056,0.012,0.091
	c0.014,0.07,0.045,0.134,0.086,0.203c-0.031,0.096-0.041,0.186-0.035,0.291c0.021,0.147,0.08,0.284,0.17,0.392
	c-0.004,0.055-0.004,0.113,0,0.168c0,0.041,0.018,0.091,0.025,0.129c-0.029,0.053,0.002,0.125,0.043,0.199l0.006,0.047
	c0.006,0.018,0.01,0.033,0.017,0.05c-0.045,0.128-0.05,0.264-0.025,0.393c-0.013,0.14,0.016,0.28,0.071,0.398
	c0.012,0.103,0.044,0.193,0.084,0.279c0.012,0.161,0.082,0.315,0.179,0.451c0.011,0.172,0.075,0.342,0.19,0.476
	c0,0,0.025,0.021,0.041,0.043c0.014,0.02,0.021,0.043,0.021,0.043c0.041,0.069,0.099,0.132,0.152,0.185
	c0.018,0.07,0.043,0.141,0.084,0.208l0.059,0.106c0.068,0.125,0.178,0.229,0.306,0.309c0.044,0.125,0.129,0.235,0.235,0.327
	c0.057,0.109,0.133,0.199,0.227,0.278c0.036,0.05,0.078,0.097,0.123,0.134c0.016,0.02,0.028,0.044,0.028,0.044
	c0.003,0.005,0.008,0.022,0.013,0.034l0.007,0.002l0.001,0.004c0.037,0.125,0.098,0.236,0.181,0.334c0,0,0.015,0.014,0.026,0.02
	c0.031,0.18,0.129,0.343,0.279,0.463c0.002,0.006,0.01,0.027,0.01,0.027c0.031,0.048,0.064,0.101,0.104,0.145
	c0.01,0.027,0.025,0.055,0.04,0.082c0.003,0.047,0.019,0.096,0.025,0.152c0.002,0.07,0.013,0.139,0.027,0.211l0.03,0.106
	c0.01,0.058,0.029,0.114,0.059,0.173c0.02,0.082,0.049,0.164,0.095,0.244c-0.011,0.138,0.011,0.275,0.077,0.402
	c-0.015,0.135-0.01,0.275,0.043,0.398c0.005,0.042,0.013,0.076,0.025,0.113c0,0-0.003,0.033,0.006,0.061
	c-0.021,0.09-0.041,0.198-0.025,0.295c0,0-0.003,0.033,0.002,0.064c-0.033,0.098-0.039,0.199-0.027,0.293
	c-0.031,0.094-0.043,0.184-0.038,0.273c-0.034,0.107-0.034,0.215-0.027,0.319c-0.03,0.073-0.056,0.15-0.073,0.235l-0.004,0.008
	l-0.003,0.002c-0.023,0.068-0.05,0.142-0.063,0.223c0,0,0,0.02-0.006,0.033c-0.044,0.074-0.064,0.156-0.082,0.24
	c-0.078,0.015-0.153,0.037-0.23,0.078c-0.094-0.039-0.191-0.059-0.299-0.062c-0.013-0.002-0.025-0.002-0.035,0.001
	c-0.098,0.01-0.182,0.021-0.267,0.058c-0.144-0.149-0.339-0.241-0.554-0.239c-0.003,0.002-0.016,0-0.031,0.006
	c-0.254,0-0.477,0.148-0.609,0.346c-0.033-0.002-0.072-0.007-0.105-0.01c-0.092-0.078-0.189-0.137-0.299-0.156
	c-0.074-0.027-0.141-0.037-0.207-0.039c-0.076,0.004-0.145,0.016-0.209,0.034c-0.008-0.002-0.008-0.002-0.014-0.002
	c-0.119-0.069-0.252-0.121-0.397-0.118c-0.011,0-0.022-0.002-0.043-0.003c-0.075,0.006-0.143,0.028-0.221,0.056
	c-0.11-0.059-0.239-0.098-0.368-0.096c-0.031,0.006-0.086,0.006-0.132,0.012c-0.134,0.021-0.257,0.086-0.363,0.172
	c-0.087-0.033-0.188-0.061-0.29-0.058c-0.019-0.001-0.037,0.002-0.052,0.005c0,0-0.072,0.003-0.118,0.003
	c-0.051-0.005-0.113-0.009-0.113-0.009c-0.017-0.002-0.023,0.006-0.032,0.004c-0.021,0.008-0.048,0.007-0.075,0.014l-0.15-0.057
	c-0.086-0.028-0.176-0.041-0.254-0.043c-0.02,0-0.033,0-0.068,0.006l-0.158,0.009c-0.111,0.009-0.223,0.05-0.315,0.111
	c-0.079-0.036-0.179-0.054-0.265-0.052c-0.084-0.004-0.162,0.014-0.243,0.035c0,0-0.001,0.009-0.01,0.009
	c-0.065-0.028-0.136-0.04-0.222-0.042h-0.005c-0.104,0.002-0.188,0.021-0.276,0.053c-0.016-0.002-0.025-0.006-0.025-0.006
	c-0.052-0.006-0.103-0.012-0.141-0.016c-0.11-0.06-0.245-0.1-0.373-0.096c-0.014-0.002-0.016-0.002-0.037,0
	c-0.177,0.008-0.335,0.086-0.466,0.191c-0.113-0.085-0.233-0.145-0.37-0.168l-0.168-0.018c-0.033-0.003-0.076-0.006-0.111-0.01
	c-0.045,0-0.084,0.007-0.129,0.013c-0.061-0.021-0.138-0.026-0.203-0.028c-0.02,0.004-0.022,0.003-0.033,0.002
	c-0.162,0.008-0.32,0.066-0.435,0.158c-0.029,0.004-0.06,0.014-0.082,0.023c-0.091-0.04-0.192-0.058-0.276-0.057
	c-0.043-0.004-0.084,0.001-0.128,0.01c0,0-0.053,0.009-0.103,0.014c-0.127-0.09-0.283-0.148-0.452-0.146
	c-0.156,0-0.314,0.05-0.439,0.134c-0.079,0.014-0.142,0.027-0.218,0.059c-0.109-0.051-0.22-0.084-0.332-0.079
	c-0.07-0.003-0.119,0.001-0.176,0.018c-0.133,0.03-0.259,0.104-0.364,0.191c-0.011-0.001-0.036-0.008-0.066-0.006
	c-0.009-0.001-0.02-0.002-0.032,0c-0.02-0.005-0.039-0.018-0.055-0.019l-0.152-0.044c-0.069-0.02-0.148-0.025-0.217-0.024
	c-0.152-0.006-0.286,0.047-0.418,0.129c-0.009-0.008-0.016-0.018-0.016-0.018c-0.137-0.209-0.383-0.32-0.623-0.325
	c-0.046,0.002-0.092,0.003-0.146,0.015c-0.072,0.018-0.143,0.038-0.208,0.073c-0.071-0.022-0.158-0.054-0.244-0.052l-0.013-0.001
	c-0.203,0.003-0.389,0.081-0.529,0.224c-0.094,0.027-0.191,0.082-0.279,0.146c-0.12-0.083-0.271-0.128-0.407-0.131
	c-0.032-0.001-0.057-0.001-0.083-0.003c-0.145-0.146-0.339-0.238-0.55-0.234c-0.007-0.001-0.026-0.002-0.034,0.007
	c-0.182,0.003-0.346,0.071-0.473,0.19c-0.121-0.084-0.26-0.131-0.418-0.141c-0.006,0-0.007,0-0.012,0c-0.012-0.002-0.013,0-0.024,0
	c-0.073-0.032-0.163-0.055-0.252-0.059c-0.012,0-0.037,0.001-0.042,0.001c-0.151,0.001-0.294,0.048-0.422,0.125
	c-0.011-0.002-0.037-0.009-0.037-0.009c-0.049-0.012-0.117-0.023-0.167-0.019c-0.104-0.001-0.215,0.025-0.316,0.073
	c-0.022-0.016-0.064-0.006-0.097-0.01c-0.111-0.076-0.239-0.113-0.387-0.107c-0.008-0.001-0.033,0.001-0.044-0.001
	c-0.11,0.003-0.216,0.037-0.308,0.087c-0.114-0.082-0.242-0.135-0.383-0.146c-0.021-0.002-0.043-0.004-0.061-0.006
	c-0.178,0.002-0.367,0.065-0.496,0.195c0,0-0.008,0.008-0.008,0.012c-0.101-0.037-0.191-0.057-0.297-0.063l-0.012-0.001
	c-0.17,0.01-0.319,0.062-0.439,0.15c-0.113-0.059-0.231-0.09-0.359-0.09c-0.021,0.003-0.057,0.003-0.096,0.008
	c-0.11,0.015-0.216,0.051-0.316,0.113c-0.118-0.076-0.26-0.123-0.402-0.126c-0.024,0.008-0.064,0.005-0.092,0.011
	c-0.068,0-0.115,0.024-0.164,0.037c-0.043-0.008-0.08-0.016-0.123-0.023c-0.032-0.004-0.068-0.007-0.117-0.007
	c-0.043,0-0.096,0-0.152,0.017c-0.117-0.103-0.272-0.168-0.439-0.18l-0.172-0.016c-0.006,0.004-0.027,0.003-0.043,0.002
	c-0.203,0.002-0.396,0.078-0.537,0.22c-0.014-0.001-0.041-0.003-0.051-0.005c-0.119-0.083-0.258-0.124-0.403-0.115l-0.019-0.002
	c-0.018-0.001-0.043,0.002-0.076,0c-0.084-0.045-0.175-0.079-0.268-0.096c-0.039-0.004-0.077-0.008-0.121-0.004
	c-0.074-0.002-0.152,0.01-0.225,0.037c-0.039-0.018-0.088-0.029-0.136-0.033l-0.144-0.012c-0.021-0.004-0.047-0.005-0.062-0.007
	c-0.195,0.005-0.369,0.073-0.51,0.203C52.11,86.01,52.064,86.003,52.027,86l-0.151-0.015c-0.025-0.002-0.051-0.004-0.07-0.006
	c-0.135,0.005-0.26,0.037-0.367,0.094c-0.01-0.006-0.035-0.008-0.035-0.008c-0.055-0.014-0.115-0.02-0.176-0.025
	c-0.034,0.002-0.061,0.005-0.082,0.008c-0.064-0.016-0.134-0.027-0.209-0.029l-0.145,0.004c-0.061,0-0.113,0.002-0.166,0.016
	c-0.104-0.068-0.234-0.118-0.357-0.129c-0.031-0.004-0.039-0.004-0.053,0c-0.025-0.002-0.052,0-0.072,0.01
	c-0.067-0.027-0.15-0.041-0.224-0.041c-0.098-0.004-0.193,0.021-0.288,0.053c0,0-0.086,0.037-0.113,0.045
	c-0.143-0.102-0.307-0.156-0.476-0.156c-0.03,0.002-0.058,0-0.093,0.004c-0.074,0.006-0.141,0.033-0.215,0.066
	c-0.094-0.038-0.184-0.056-0.291-0.061c-0.152,0.008-0.297,0.055-0.413,0.133c-0.056-0.008-0.113-0.014-0.17-0.015
	c-0.04-0.005-0.094,0.009-0.134,0.015c-0.135-0.092-0.286-0.147-0.453-0.15c-0.02,0.003-0.044,0.002-0.076,0.008
	c-0.182,0.014-0.361,0.105-0.485,0.238c-0.021,0.006-0.046,0.005-0.058,0.012c-0.08-0.053-0.174-0.098-0.266-0.117
	c-0.063-0.012-0.108-0.015-0.156-0.015c-0.148-0.001-0.285,0.038-0.416,0.122c-0.064,0.012-0.129,0.025-0.2,0.057
	c-0.017,0.01-0.04,0.018-0.058,0.027c-0.109-0.065-0.25-0.104-0.375-0.104c-0.011,0.002-0.039,0.005-0.055,0.003
	c-0.043,0.003-0.087,0.009-0.137,0.021c0,0-0.018-0.001-0.029-0.006c-0.138-0.145-0.33-0.223-0.538-0.224
	c-0.021-0.002-0.05,0.01-0.088,0.007l-0.146,0.025c-0.117,0.014-0.232,0.053-0.321,0.115c-0.012-0.002-0.024-0.007-0.049-0.012
	c-0.107-0.078-0.251-0.136-0.409-0.147l-0.139-0.005c-0.022-0.002-0.033-0.003-0.043,0c-0.133-0.001-0.265,0.035-0.375,0.097
	c-0.022-0.015-0.062-0.029-0.091-0.039c-0.051-0.005-0.1-0.009-0.15-0.013c-0.116,0.004-0.225,0.027-0.332,0.08
	c-0.092-0.035-0.179-0.057-0.26-0.061c-0.005,0-0.013-0.002-0.016-0.002c-0.13,0.002-0.27,0.037-0.385,0.107
	c-0.041-0.016-0.097-0.031-0.16-0.037c-0.019-0.001-0.047-0.004-0.071,0.005c-0.102-0.006-0.186,0.017-0.277,0.056
	c-0.049-0.029-0.108-0.055-0.169-0.062c-0.067-0.051-0.133-0.086-0.206-0.111c-0.076-0.023-0.165-0.037-0.23-0.038
	c-0.13-0.003-0.27,0.042-0.383,0.106c-0.061-0.025-0.109-0.039-0.167-0.045c-0.035-0.004-0.059-0.006-0.088-0.008
	c-0.125-0.061-0.248-0.107-0.38-0.101c-0.009-0.001-0.027-0.003-0.027-0.003c-0.173,0.007-0.336,0.074-0.462,0.182
	c-0.013-0.006-0.038-0.026-0.051-0.031c-0.054-0.014-0.109-0.018-0.163-0.023c-0.005-0.152-0.016-0.271-0.016-0.271
	c0.171-0.271-0.048-0.603-0.048-0.603c0.053-0.107,0.074-0.232,0.066-0.359c-0.005-0.039-0.013-0.078-0.018-0.11
	c-0.025-0.09-0.071-0.185-0.126-0.255c0.013-0.043,0.025-0.079,0.025-0.127l0.012-0.17v-0.129c-0.004-0.074-0.016-0.128-0.043-0.2
	c0-0.021,0.006-0.065,0-0.104v-0.025c-0.011-0.11-0.049-0.601-0.106-0.692c0.003-0.055,0.003-0.088,0.003-0.143
	c-0.015-0.094-0.04-0.193-0.101-0.299l-0.082-0.149c-0.005-0.012-0.014-0.022-0.026-0.027c0.07-0.112,0.108-0.237,0.108-0.371
	c0.073-0.124,0.109-0.269,0.086-0.415V81.42c-0.002-0.104-0.036-0.193-0.086-0.282c0.008-0.055,0.02-0.112,0.008-0.176
	c0-0.021-0.008-0.045-0.008-0.057c-0.012-0.098-0.051-0.188-0.098-0.268c-0.01-0.059-0.025-0.111-0.039-0.168
	c0.029-0.088,0.045-0.195,0.029-0.301c0-0.043-0.008-0.083-0.017-0.123c-0.044-0.155-0.131-0.281-0.248-0.375
	c0.166-0.154,0.248-0.383,0.226-0.604c-0.005-0.035-0.005-0.062-0.009-0.084c-0.004-0.016-0.013-0.023-0.013-0.037
	c0.009-0.043,0.013-0.088,0.013-0.141c-0.004-0.01-0.004-0.038-0.004-0.053c-0.009-0.086-0.03-0.166-0.06-0.236
	c-0.011-0.02,0-0.02,0-0.027l-0.011-0.153v-0.058c-0.007-0.107-0.042-0.198-0.093-0.296c0.003,0,0.003-0.023,0.003-0.023
	c0.004-0.048,0.004-0.105,0-0.153c-0.006-0.104-0.039-0.197-0.088-0.277v-0.049c-0.008-0.085-0.043-0.188-0.081-0.27v-0.127
	c0-0.027,0-0.049-0.007-0.073c-0.002-0.058-0.021-0.113-0.038-0.171c0.083-0.146,0.125-0.309,0.107-0.475
	c-0.001-0.04-0.008-0.078-0.02-0.128c-0.039-0.138-0.125-0.264-0.224-0.354c0.018-0.071,0.028-0.123,0.028-0.193
	c0-0.021-0.007-0.05-0.007-0.075c-0.003-0.083-0.027-0.156-0.068-0.238c0.065-0.127,0.086-0.255,0.075-0.393
	c0-0.021-0.007-0.05-0.007-0.074c-0.006-0.029-0.021-0.063-0.033-0.094c0.029-0.104,0.04-0.199,0.033-0.302
	c-0.003-0.052-0.006-0.09-0.023-0.147c-0.014-0.041-0.038-0.078-0.059-0.123c0.014-0.061,0.021-0.135,0.014-0.209
	c-0.002-0.016-0.002-0.037-0.009-0.062c-0.025-0.128-0.083-0.254-0.17-0.35c0.058-0.12,0.088-0.264,0.073-0.392
	c-0.008-0.021-0.01-0.046-0.016-0.075c0-0.016-0.009-0.033-0.012-0.045c0.012-0.059,0.012-0.135,0.008-0.205h-0.004
	c-0.021-0.192-0.098-0.346-0.217-0.461c0.014-0.057,0.014-0.119,0.009-0.17c-0.009-0.084-0.036-0.168-0.066-0.236
	c0.016-0.078,0.026-0.163,0.016-0.239c0-0.007-0.004-0.015-0.004-0.044c0.026-0.045,0.044-0.102,0.06-0.156
	c0.023-0.084,0.039-0.17,0.035-0.258c-0.009,0-0.009-0.004-0.009-0.011c-0.01-0.104-0.04-0.218-0.099-0.308
	c-0.002-0.017-0.011-0.031-0.014-0.047c-0.616-0.013-1.221-0.062-1.818-0.141l0.009,0.086c0.009,0.109,0.051,0.199,0.104,0.286
	c-0.004,0.058-0.016,0.095-0.004,0.144l-0.012,0.005c-0.088,0.149-0.125,0.306-0.108,0.469c0.004,0.071,0.02,0.134,0.046,0.198
	c0.027,0.07,0.073,0.151,0.127,0.215c-0.033,0.076-0.059,0.15-0.071,0.24c0,0.055,0,0.082,0.005,0.125
	c0.016,0.145,0.066,0.265,0.142,0.373c0.006,0.042,0.019,0.095,0.041,0.135c-0.009,0.05-0.009,0.09,0,0.133
	c0.003,0.073,0.018,0.135,0.038,0.195c-0.032,0.105-0.038,0.196-0.032,0.292c0,0.034,0.007,0.061,0.016,0.09
	c0.02,0.118,0.076,0.228,0.143,0.314c-0.058,0.124-0.09,0.255-0.078,0.399c0,0.032,0.011,0.068,0.013,0.093
	c0.023,0.108,0.072,0.204,0.131,0.282v0.084c0.004,0.04,0.01,0.084,0.023,0.118c0.026,0.099,0.07,0.187,0.126,0.265
	c0.006,0.014,0.006,0.027,0.006,0.039c-0.006,0.064-0.012,0.116-0.006,0.177c-0.031,0.098-0.057,0.198-0.054,0.291v0.026
	c-0.044,0.105-0.055,0.22-0.046,0.345c0,0.023,0.002,0.048,0.009,0.083l0.035,0.15c0.025,0.116,0.079,0.213,0.143,0.303v0.055
	c0,0.01,0.009,0.039,0.009,0.052c0,0,0.004,0.026,0.01,0.056c-0.137,0.146-0.214,0.361-0.197,0.562c0,0.014,0.004,0.014,0.004,0.023
	c0.007,0.092,0.039,0.181,0.082,0.254c0,0.014-0.011,0.027,0,0.041v0.021c0.012,0.118,0.056,0.229,0.124,0.334
	c-0.007,0.032-0.007,0.086,0,0.129v0.02c0.011,0.096,0.039,0.181,0.091,0.263c-0.11,0.135-0.162,0.324-0.149,0.512
	c0.006,0.114,0.051,0.215,0.108,0.306c0,0.021-0.013,0.036-0.013,0.048l-0.003,0.166v0.041l0.003,0.149v0.052
	c0.013,0.073,0.026,0.133,0.053,0.196l0.063,0.168c0.037,0.089,0.093,0.166,0.154,0.237h0.01c-0.007,0.027-0.01,0.053-0.01,0.066
	c-0.079,0.131-0.117,0.292-0.101,0.447v0.038c0.019,0.12,0.071,0.241,0.146,0.353v0.078c0,0.033,0.02,0.089,0.029,0.123
	c-0.009,0.052-0.009,0.098-0.009,0.154v0.021c0.002,0.069,0.018,0.117,0.033,0.175c-0.031,0.092-0.053,0.201-0.033,0.3
	c0.002,0.108,0.042,0.226,0.097,0.321c0,0,0.103,0.158,0.106,0.166c0,0,0.013,0.031,0.036,0.057
	c-0.023,0.08-0.029,0.161-0.025,0.236c0.018,0.086,0.035,0.574,0.079,0.661c0,0,0.039,0.072,0.06,0.125c0,0.017-0.005,0.045,0,0.067
	v0.023c0.007,0.032,0.016,0.085,0.029,0.127c-0.219,0.139-0.348,0.398-0.324,0.68c0,0.01,0.004,0.037,0.009,0.062
	c0,0,0.227,0.342,0.351,0.217c0.035-0.037,0.015,0.104,0.03,0.15l0.036,0.145c-0.3,0-0.136,0.373-0.136,0.373
	c-0.126,0.315-0.033,0.57-0.009,0.627c-0.188,0.241-0.219,0.574-0.043,0.846c0.03,0.049,0.059,0.08,0.093,0.115
	c0.079,0.31,0.346,0.543,0.671,0.573c0.027,0.002,0.045-0.005,0.066-0.003c0.136,0.002,0.257-0.037,0.365-0.101
	c0.021,0.001,0.041,0.003,0.059,0.003c0.004,0,0.021,0.002,0.043-0.003c0.083-0.005,0.161-0.022,0.233-0.055
	c0.023,0.019,0.052,0.038,0.052,0.038c0.13,0.09,0.282,0.133,0.439,0.133c0.054,0.002,0.114-0.005,0.172-0.023
	c0.067,0.02,0.132,0.035,0.205,0.028c0.032,0.003,0.06,0,0.085-0.003c0.085-0.008,0.155-0.032,0.24-0.065
	c0.031,0.015,0.066,0.03,0.085,0.04c0.084,0.029,0.16,0.045,0.258,0.045c0.125-0.002,0.247-0.032,0.351-0.097
	c0.042,0.022,0.094,0.035,0.141,0.044c0.007,0.004,0.016,0.016,0.017,0.019c0.114,0.06,0.263,0.099,0.371,0.097
	c0.08,0.003,0.16-0.012,0.237-0.036l0.121-0.038c0.027-0.012,0.064-0.025,0.087-0.032c0.045,0.013,0.097,0.027,0.138,0.03
	c0.038,0.004,0.065,0.006,0.088-0.001c0.217,0.008,0.417-0.09,0.565-0.243c0.013,0.002,0.031,0.003,0.052,0
	c0.066,0.004,0.124-0.01,0.185-0.016c0.145,0.162,0.352,0.266,0.575,0.265l0.008,0.001c0.051-0.002,0.1-0.008,0.157-0.027
	c0.106,0.09,0.257,0.149,0.415,0.153c0.005,0.001,0.025,0.001,0.025,0.001c0.138,0,0.27-0.041,0.382-0.105
	c0.079,0.021,0.146,0.035,0.218,0.034c0.062,0.006,0.114-0.003,0.178-0.018c0.135-0.03,0.257-0.104,0.363-0.204
	c0.111,0.068,0.232,0.111,0.372,0.104c0.065,0.05,0.137,0.088,0.221,0.116l0.15,0.047c0.069,0.02,0.152,0.033,0.234,0.035
	l0.009-0.002l0.155-0.004c0.133-0.007,0.259-0.041,0.367-0.105c0.075,0.018,0.133,0.021,0.213,0.021
	c0.005,0,0.019,0.001,0.031,0.003c0.082,0.027,0.168,0.053,0.264,0.056c0.045-0.008,0.092-0.009,0.128-0.021
	c0.063-0.01,0.134-0.025,0.188-0.053c0.044,0.01,0.087,0.013,0.129,0.012c0.071-0.002,0.145-0.017,0.199-0.029
	c0.12,0.068,0.259,0.107,0.395,0.109c0.003,0,0.003,0,0.014,0.001c0.068-0.008,0.137-0.013,0.186-0.038
	c0.043,0.003,0.062,0.018,0.094,0.021c0.172-0.007,0.33-0.062,0.465-0.168c0.043,0.003,0.089,0.008,0.129,0.012
	c0.012,0.001,0.012-0.005,0.027-0.007l0.137-0.003c0.047,0.003,0.088-0.012,0.135-0.015c0.016,0.008,0.023,0.015,0.035,0.029
	l0.148,0.086c0.123,0.072,0.261,0.108,0.396,0.105c0.03,0.003,0.06,0,0.082-0.002l0.151-0.022c0.205-0.019,0.382-0.12,0.503-0.271
	c0.023,0.015,0.045,0.03,0.08,0.037l0.141,0.038c0.07,0.021,0.143,0.03,0.213,0.03c0.131,0.001,0.269-0.038,0.381-0.106
	c0.118,0.105,0.271,0.17,0.432,0.18l0.144,0.012c0.021,0.003,0.032,0,0.054,0c0.021,0.002,0.059-0.003,0.09-0.01
	c0.015,0.015,0.037,0.027,0.055,0.035c0.094,0.039,0.188,0.053,0.283,0.057c0.069-0.004,0.123-0.018,0.18-0.027
	c0.08,0.029,0.16,0.049,0.258,0.045c0,0,0.02,0.002,0.025-0.004c0.166,0,0.305-0.058,0.432-0.15c0.114,0.074,0.246,0.117,0.4,0.111
	l0.162,0.004c0.099-0.002,0.199-0.027,0.283-0.056l0.017,0.001c0.01,0,0.025,0.002,0.029,0.002c0.081-0.004,0.177-0.025,0.255-0.053
	c0.119,0.075,0.264,0.117,0.412,0.12c0.012-0.002,0.029,0,0.045-0.003c0.131-0.008,0.253-0.051,0.344-0.115
	c0.045,0.003,0.07,0.006,0.104,0.01c0.116,0,0.229-0.034,0.343-0.09c0.062,0.033,0.128,0.051,0.209,0.068l0.158,0.018
	c0.026,0.007,0.066,0.01,0.107,0.01c0.105-0.004,0.205-0.02,0.309-0.068c0.012,0.001,0.027,0.013,0.045,0.014
	c0.135,0.1,0.295,0.162,0.457,0.154c0.031,0.003,0.043,0.004,0.073,0c0.116-0.01,0.226-0.053,0.323-0.104
	c0.127,0.071,0.258,0.122,0.409,0.125c0.038-0.002,0.069-0.005,0.089-0.003c0.086-0.014,0.148-0.027,0.213-0.057
	c0.012,0,0.012,0,0.025,0.002c0.251-0.01,0.479-0.123,0.628-0.331c0.12,0.235,0.379,0.38,0.647,0.378
	c0.018,0.002,0.018,0.002,0.027,0.003c0.219-0.005,0.416-0.106,0.562-0.269c0.031-0.01,0.059-0.027,0.102-0.043
	c0.105-0.012,0.228-0.042,0.335-0.1c0.084,0.047,0.175,0.076,0.262,0.101c0.121,0.09,0.278,0.144,0.441,0.14
	c0.026,0.014,0.044,0.031,0.07,0.039c0.088,0.033,0.174,0.049,0.264,0.049c0.03-0.006,0.07-0.008,0.106-0.012
	c0.085,0.049,0.18,0.082,0.268,0.09c0.033,0.003,0.064,0.006,0.086,0.008c0.164-0.008,0.322-0.053,0.457-0.146
	c0.096,0.045,0.208,0.076,0.324,0.074c0.02,0.002,0.031,0.002,0.047,0.004c0.109-0.012,0.232-0.049,0.329-0.1
	c0.03,0.004,0.048,0.005,0.091,0c0.018,0.002,0.023,0.002,0.039,0.004h0.011c0.121,0.078,0.259,0.121,0.415,0.125
	c0.025-0.003,0.045-0.001,0.067-0.004c0.142-0.018,0.274-0.072,0.39-0.152c0.127,0.098,0.288,0.152,0.464,0.16
	c0.034-0.005,0.089,0,0.134-0.016c0.09-0.017,0.166-0.045,0.235-0.097c0.12,0.075,0.249,0.103,0.39,0.105
	c0.055,0.005,0.105-0.003,0.174-0.021l0.141-0.033c0.135-0.029,0.245-0.093,0.342-0.18c0.025,0.002,0.057,0.009,0.096,0.009
	c0.008,0.001,0.021,0.001,0.049-0.001c0,0,0,0.006,0.01,0.006c0,0,0.041,0.014,0.086,0.023c0.05,0.027,0.103,0.053,0.103,0.053
	c0.104,0.062,0.227,0.086,0.342,0.088c0.104-0.005,0.202-0.025,0.294-0.056c0.033-0.015,0.059-0.029,0.082-0.05
	c0.006,0,0.021,0.01,0.027,0.012c0.016,0.001,0.041,0.003,0.07-0.004c0.106,0.007,0.213-0.018,0.314-0.059
	c0.064,0.016,0.124,0.022,0.196,0.021c0.013,0.001,0.032,0,0.04,0c0.025,0.002,0.033-0.002,0.059-0.004
	c0.052,0.018,0.109,0.043,0.109,0.043c0.096,0.038,0.188,0.062,0.297,0.059c0.094,0,0.178-0.016,0.25-0.041
	c0.084,0.025,0.176,0.041,0.253,0.041c0.091,0,0.188-0.014,0.263-0.041l0.176-0.064c0.041-0.018,0.082-0.035,0.116-0.061
	l0.019,0.002c0.086-0.008,0.169-0.035,0.252-0.074c0.081,0.074,0.181,0.133,0.285,0.165c0.071,0.02,0.148,0.03,0.228,0.028
	c0.118,0.008,0.236-0.026,0.342-0.078c0.128-0.006,0.247-0.038,0.356-0.102c0.127,0.153,0.301,0.262,0.516,0.287
	c0.029,0.002,0.064,0.005,0.09,0.007c0.133-0.002,0.258-0.04,0.373-0.097c0.086,0.035,0.179,0.062,0.279,0.064
	c0.037-0.004,0.09-0.008,0.141-0.02c0.182-0.031,0.346-0.137,0.457-0.275c0.011,0.001,0.03,0.003,0.043,0.004
	c0.119-0.005,0.246-0.028,0.348-0.084c0.082,0.033,0.17,0.057,0.271,0.063c0.007,0,0.009,0,0.021,0.002
	c0.052-0.002,0.111-0.009,0.155-0.019c0.125,0.2,0.354,0.334,0.606,0.344c0.014,0.002,0.021,0.004,0.033,0.004
	c0.08-0.002,0.169-0.021,0.24-0.049c0.028,0.002,0.049,0.01,0.07,0.012c0.047-0.002,0.086-0.008,0.141-0.013
	c0.207-0.036,0.375-0.156,0.498-0.323c0.022-0.003,0.059-0.003,0.059-0.003c0.072-0.01,0.137-0.025,0.189-0.051
	c0.019,0.001,0.043,0.01,0.051,0.003l0.011,0.002c0.071,0.088,0.149,0.163,0.251,0.211l0.15,0.084
	c0.115,0.062,0.238,0.088,0.364,0.09c0.083,0.002,0.157-0.008,0.241-0.035c0.021-0.013,0.049-0.027,0.075-0.038
	c0.056,0.008,0.096,0.013,0.14,0.016c0.159-0.006,0.314-0.048,0.439-0.146c0.057-0.003,0.107-0.024,0.15-0.04
	c0.062,0.021,0.117,0.025,0.166,0.03c0.121,0.086,0.264,0.133,0.42,0.126c0.01,0,0.021,0.002,0.021,0.002
	c0.103-0.002,0.196-0.022,0.278-0.064c0.01,0.002,0.028,0.004,0.037,0.004c0.02,0.001,0.037-0.01,0.057-0.012
	c0.228,0.196,0.536,0.273,0.815,0.211c0.142-0.029,0.278-0.09,0.394-0.188l0.098-0.081c0.037-0.032,0.066-0.063,0.097-0.097
	c0.184-0.062,0.409-0.232,0.409-0.334c0,0,0.16-0.115,0.143-0.496c0.107-0.141,0.176-0.307,0.182-0.475
	c0.045-0.104,0.05-0.221,0.047-0.337c0.098-0.123,0.16-0.28,0.172-0.435c0.057-0.143,0.067-0.298,0.042-0.451
	c0.01-0.064,0.008-0.126-0.002-0.189c0.001-0.024,0.015-0.053,0.015-0.053c0.002-0.023,0.003-0.043,0.012-0.064
	c0.062-0.141,0.097-0.299,0.078-0.447C80.294,84.077,80.3,83.897,80.235,83.723z M31.47,27.858c-0.011,0-0.011-0.021-0.019-0.021
	c0,0-0.051-0.008-0.091-0.021c-0.145-0.125-0.314-0.199-0.501-0.232c-0.102-0.046-0.196-0.07-0.295-0.086h-0.006
	c-0.087-0.072-0.195-0.152-0.299-0.191c-0.144-0.112-0.306-0.183-0.479-0.201c-0.07-0.09-0.158-0.177-0.254-0.236
	c0,0-0.047-0.028-0.089-0.053c-0.034-0.026-0.077-0.062-0.077-0.062c-0.018-0.011-0.033-0.033-0.047-0.033
	c-0.069-0.106-0.148-0.212-0.25-0.285l-0.116-0.104c-0.03-0.022-0.065-0.033-0.105-0.058c-0.019-0.028-0.041-0.053-0.066-0.084
	c-0.048-0.197-0.151-0.379-0.303-0.523c-0.008-0.019-0.008-0.027-0.022-0.054c-0.007-0.035-0.022-0.093-0.022-0.093
	c-0.007-0.02-0.019-0.061-0.033-0.09v-0.03c-0.014-0.161-0.067-0.312-0.146-0.444L28.24,24.95c0-0.007,0.009-0.02,0.009-0.02
	l0.023-0.154c0.02-0.1,0.02-0.187,0.012-0.279c0-0.022-0.004-0.041-0.005-0.061l-0.021-0.158c0,0,0-0.01-0.009-0.01
	c0.009-0.088,0.012-0.154,0.009-0.223V24.03c0-0.018,0-0.023,0.003-0.038c0.073-0.132,0.112-0.278,0.12-0.431
	c0,0,0.003-0.047,0.003-0.106c0.025-0.044,0.052-0.095,0.074-0.151l0.05-0.135c0.048-0.114,0.071-0.238,0.071-0.36
	c0.032-0.071,0.061-0.136,0.083-0.208c0.136-0.164,0.22-0.373,0.238-0.578c0.121-0.135,0.208-0.314,0.237-0.49
	c0.03-0.037,0.07-0.084,0.07-0.084c0.111-0.126,0.187-0.296,0.226-0.455c0.074-0.088,0.125-0.188,0.166-0.295
	c0.035-0.047,0.066-0.091,0.101-0.146c0.137-0.126,0.235-0.287,0.282-0.479c0.023-0.019,0.039-0.046,0.039-0.046
	c0.059-0.04,0.102-0.096,0.151-0.149c0.081-0.066,0.159-0.14,0.22-0.228c0,0,0.058-0.093,0.076-0.115
	c0.025-0.038,0.064-0.079,0.073-0.104c0.014-0.004,0.087-0.102,0.087-0.102c0.043-0.059,0.079-0.11,0.115-0.166
	c0,0.02-0.004,0.047,0,0.068c0,0.031,0.008,0.07,0.014,0.114c-0.004,0.063-0.006,0.126,0,0.189c0.011,0.074,0.03,0.153,0.053,0.214
	c-0.009,0.049-0.009,0.107-0.009,0.107c0,0.045,0,0.086,0.009,0.125c0.006,0.058,0.019,0.119,0.03,0.174
	c-0.014,0.096-0.022,0.193-0.011,0.289c0,0.025,0.008,0.064,0.021,0.104c-0.013,0.069-0.013,0.143-0.01,0.201
	c0.01,0.031,0.01,0.057,0.013,0.078c-0.003,0.083-0.013,0.15,0,0.229c0.005,0.096,0.04,0.202,0.076,0.29
	c-0.014,0.057-0.008,0.107-0.011,0.16c-0.002,0.053-0.015,0.107-0.011,0.16c0.004,0.078,0.022,0.148,0.044,0.221
	c0,0.03,0,0.053,0.002,0.092c0,0.017,0.016,0.059,0.02,0.078l0.02,0.152c0,0.01,0.007,0.018,0.014,0.034
	c-0.007,0.062-0.007,0.123,0,0.175c0,0.043,0.006,0.066,0.014,0.087c0,0,0,0.026,0.004,0.042c0,0.016-0.004,0.053-0.004,0.053
	l-0.007,0.146c0,0.053,0,0.101,0.007,0.146c0.004,0.082,0.025,0.163,0.043,0.24c0,0,0.032,0.086,0.047,0.124
	c0.005,0.026,0.019,0.048,0.026,0.083c0,0.061-0.005,0.107,0,0.16c0,0.016,0.004,0.036,0.004,0.053
	c-0.012,0.078-0.021,0.176-0.012,0.26c0.002,0.02,0.007,0.04,0.007,0.049l0.017,0.152c0.008,0.062,0.029,0.107,0.044,0.152
	c0,0.039-0.004,0.075-0.004,0.113c0.004,0.027,0.004,0.053,0.02,0.078c-0.015,0.07-0.02,0.15-0.005,0.228
	c0,0,0.005,0.015,0.005,0.026c-0.005,0.017-0.015,0.026-0.015,0.026c-0.007,0.087-0.007,0.173-0.004,0.252
	c0.015,0.088,0.031,0.187,0.066,0.266l0.009,0.165c0,0.012,0,0.026,0.005,0.026c0.005,0.065,0.021,0.141,0.034,0.198
	c0,0.042-0.004,0.094-0.004,0.094c-0.002,0.066-0.002,0.111,0,0.172c0.009,0.098,0.032,0.182,0.066,0.268
	c-0.03,0.121-0.038,0.237-0.03,0.357c0.011,0.141,0.062,0.285,0.139,0.43c0,0.025-0.004,0.063-0.004,0.101l0.004,0.158v0.026
	c-0.026,0.123-0.038,0.237-0.026,0.36c0.008,0.073,0.022,0.149,0.047,0.229c0,0.018,0,0.046,0.002,0.075
	c0,0.008,0.009,0.023,0.011,0.045H31.47z M72.39,24.007h-0.006c0,0-0.006,0.006-0.012,0.006c-0.007-0.006-0.007-0.006-0.01-0.021
	c0.003-0.013,0.01-0.038,0.01-0.038c0.012-0.094,0.012-0.174,0.012-0.253c-0.019-0.14-0.06-0.269-0.119-0.383
	c-0.012-0.062-0.023-0.11-0.039-0.165c0-0.029,0.016-0.137,0.016-0.137c0.008-0.08,0.012-0.162,0.004-0.242
	c0-0.008,0-0.028-0.004-0.037c0,0-0.006-0.037-0.01-0.079v-0.09c0-0.026-0.006-0.067-0.006-0.089
	c-0.004-0.082-0.021-0.16-0.041-0.235V22.22c0.031-0.127,0.041-0.24,0.031-0.367c-0.015-0.121-0.053-0.244-0.105-0.357
	c0-0.027-0.006-0.047-0.01-0.062c0-0.012,0.004-0.023,0.004-0.027l0.006-0.162c0.008-0.057,0.008-0.116,0-0.156
	c-0.006-0.047-0.01-0.094-0.026-0.146c0.007-0.049,0.007-0.098,0-0.16c-0.005-0.059-0.016-0.118-0.035-0.173
	c0-0.021,0.005-0.04,0.005-0.06l-0.005-0.152v-0.076c-0.011-0.068-0.022-0.141-0.044-0.192c0.019-0.1,0.021-0.185,0.019-0.271
	c-0.015-0.076-0.028-0.154-0.053-0.227v-0.082c-0.005-0.031-0.005-0.051-0.015-0.081l-0.025-0.161
	c-0.005-0.007-0.01-0.032-0.01-0.047l-0.033-0.153c-0.01-0.024-0.016-0.048-0.031-0.089v-0.067c0.016-0.05,0.016-0.091,0.012-0.138
	c0,0-0.012-0.049-0.012-0.09v-0.088c0.016-0.061,0.016-0.111,0-0.166c-0.006-0.096-0.029-0.199-0.061-0.279
	c0.027-0.111,0.031-0.224,0.02-0.322c-0.008-0.141-0.054-0.278-0.119-0.395c0-0.014,0-0.026-0.004-0.037
	c0.014-0.047,0.016-0.087,0.026-0.128l0.013-0.153c0.013-0.069,0.013-0.133,0-0.211c-0.005-0.067-0.023-0.14-0.047-0.221
	c0.008-0.075,0.012-0.156,0.002-0.236V16.46c0,0-0.008-0.084-0.012-0.109c0-0.041-0.01-0.146-0.01-0.146v-0.021
	c0-0.05-0.012-0.094-0.021-0.145l-0.039-0.152c-0.004-0.01-0.012-0.021-0.012-0.05c0.012-0.088,0.012-0.171,0.008-0.259
	c-0.009-0.082-0.021-0.145-0.045-0.218c0.023,0.01,0.036,0.027,0.049,0.027c0.034,0.036,0.07,0.065,0.114,0.108
	c0.008,0.016,0.013,0.024,0.025,0.037l0.094,0.133c0.056,0.07,0.114,0.135,0.186,0.187l0.113,0.107
	c0.021,0.013,0.048,0.033,0.074,0.044c0.076,0.109,0.173,0.188,0.282,0.263c0.078,0.103,0.18,0.203,0.293,0.284
	c0,0,0,0.005,0.005,0.005l0.097,0.128c0.055,0.058,0.104,0.104,0.163,0.156c0.088,0.111,0.186,0.223,0.302,0.306
	c0.072,0.16,0.189,0.312,0.335,0.435v0.007c0.06,0.188,0.159,0.337,0.298,0.468c0.042,0.104,0.106,0.197,0.182,0.285
	c0.049,0.059,0.101,0.116,0.162,0.166c0.021,0.041,0.052,0.09,0.074,0.129c0.013,0.037,0.028,0.078,0.035,0.113h0.016v0.014
	c0.016,0.167,0.085,0.318,0.178,0.447c0.035,0.105,0.076,0.199,0.146,0.287c0,0,0.035,0.051,0.07,0.088
	c0,0.045-0.013,0.088-0.008,0.125c0.008,0.018,0.008,0.036,0.012,0.058l0.014,0.139c0.004,0.043,0.014,0.081,0.025,0.121l0.039,0.14
	c0.014,0.059,0.033,0.102,0.054,0.152c0,0.053-0.003,0.096,0,0.143c0.004,0.047,0.018,0.09,0.034,0.146
	c-0.01,0.055-0.01,0.098-0.01,0.157c0.01,0.047,0.018,0.104,0.025,0.166c-0.004,0.047-0.008,0.109-0.008,0.169
	c-0.024,0.073-0.038,0.144-0.042,0.223c-0.003,0-0.003,0.013-0.009,0.013c-0.14,0.184-0.213,0.398-0.213,0.631
	c-0.006,0.014-0.01,0.018-0.014,0.021c-0.097,0.092-0.175,0.191-0.236,0.305c-0.14,0.105-0.255,0.24-0.33,0.401
	c0,0-0.023,0.044-0.035,0.081c-0.038,0.039-0.08,0.08-0.11,0.127c0,0-0.015,0.029-0.022,0.035c-0.093,0.062-0.176,0.118-0.241,0.197
	c0,0-0.097,0.107-0.101,0.107v0.015c-0.165,0.04-0.322,0.126-0.449,0.259c-0.173,0.047-0.321,0.148-0.438,0.283
	C72.64,23.834,72.508,23.909,72.39,24.007z"/>
<path d="M25.272,65.341c-0.126,0.003-0.253,0.018-0.373,0.061c-0.017-0.016-0.043-0.027-0.075-0.027l-0.137-0.037
	c-0.031-0.008-0.048-0.023-0.073-0.023h-0.037c-0.008-0.01-0.03-0.02-0.03-0.02c-0.123-0.049-0.248-0.084-0.379-0.084
	c-0.144-0.068-0.296-0.107-0.447-0.113c-0.049-0.013-0.092-0.025-0.138-0.042c-0.051-0.036-0.101-0.062-0.16-0.083
	c-0.042-0.04-0.078-0.066-0.122-0.104c0,0-0.052-0.024-0.094-0.051c-0.062-0.076-0.121-0.146-0.2-0.197c0,0-0.006-0.018-0.021-0.018
	c0-0.008-0.014-0.022-0.014-0.022c-0.102-0.13-0.232-0.233-0.381-0.282c-0.005-0.02-0.009-0.02-0.013-0.023
	c-0.045-0.127-0.104-0.252-0.182-0.342c-0.042-0.104-0.088-0.188-0.149-0.27c-0.023-0.098-0.047-0.193-0.091-0.281
	c0.013-0.07,0.013-0.139,0-0.209c-0.004-0.072-0.019-0.146-0.04-0.218c0-0.024,0-0.046-0.004-0.075c0-0.02-0.005-0.033-0.005-0.045
	c0.009-0.083,0.009-0.166,0.005-0.251c0-0.028-0.011-0.042-0.011-0.069c0.006-0.08,0.011-0.15,0.006-0.232
	c-0.006-0.016-0.012-0.037-0.012-0.059c0.012-0.053,0.021-0.117,0.034-0.178v-0.008c0.022-0.043,0.043-0.082,0.062-0.129
	l0.055-0.143c0.009-0.039,0.018-0.074,0.029-0.115c0.009,0,0.016-0.014,0.016-0.02c0.012-0.02,0.025-0.031,0.038-0.037l0.096-0.121
	c0.049-0.047,0.083-0.104,0.12-0.166c0.041-0.023,0.071-0.055,0.108-0.082c-0.31-0.703-0.565-1.432-0.775-2.181
	c-0.084,0.028-0.172,0.056-0.247,0.108l-0.133,0.08c-0.041,0.043-0.081,0.064-0.113,0.098c-0.089,0.043-0.175,0.091-0.25,0.154
	l-0.123,0.09c-0.101,0.08-0.187,0.18-0.251,0.293c0,0-0.032,0.063-0.058,0.102c-0.209,0.123-0.368,0.318-0.456,0.547
	c-0.132,0.193-0.21,0.404-0.22,0.631c-0.066,0.131-0.114,0.279-0.116,0.426c0,0-0.005,0.027-0.005,0.039
	c-0.001,0-0.001,0.02-0.001,0.02c-0.147,0.209-0.208,0.467-0.185,0.713c0.011,0.09,0.038,0.197,0.075,0.295
	c0.004,0.029,0.008,0.045,0.008,0.072c-0.004,0.082-0.008,0.156,0,0.243c0.005,0.072,0.021,0.146,0.038,0.208v0.08
	c-0.014,0.098-0.017,0.211-0.008,0.309c0.008,0.127,0.046,0.254,0.092,0.363c0,0,0.007,0.018,0.017,0.029v0.016
	c0.011,0.07,0.045,0.146,0.066,0.219c0.02,0.082,0.039,0.168,0.072,0.25l0.058,0.139c0.023,0.057,0.053,0.104,0.088,0.164
	c0.036,0.213,0.136,0.412,0.285,0.572c0.07,0.135,0.155,0.246,0.265,0.336c0,0,0.026,0.023,0.047,0.053
	c0.019,0.01,0.043,0.037,0.043,0.037c0.02,0.038,0.047,0.059,0.08,0.086l0.002,0.013c0.007,0,0.01,0.018,0.01,0.018
	c0.113,0.185,0.273,0.329,0.469,0.417c0.126,0.23,0.333,0.402,0.572,0.496c0.099,0.086,0.214,0.164,0.333,0.223
	c0.05,0.027,0.102,0.072,0.16,0.102l0.133,0.08c0.187,0.111,0.392,0.156,0.602,0.152c0.038,0.004,0.069,0.012,0.105,0.019
	c0.042,0.021,0.09,0.044,0.09,0.044c0.191,0.102,0.415,0.145,0.623,0.113c0.004,0,0.018,0.01,0.037,0.014
	c0.062,0.039,0.129,0.066,0.197,0.092c0.101,0.039,0.206,0.069,0.32,0.082h0.148c0.101,0.012,0.195,0,0.292-0.018
	c0.101,0.015,0.205,0,0.301-0.006c0.201,0.071,0.418,0.086,0.617,0.041c0.083,0.01,0.162,0.023,0.25,0.01
	c0.224,0.055,0.461,0.035,0.68-0.066c0.099,0.021,0.203,0.021,0.302,0.016c0.052,0.006,0.106,0.023,0.164,0.023h0.15
	c0.088,0.008,0.171-0.002,0.253-0.018C26.852,66.974,26.018,66.199,25.272,65.341z"/>
<path d="M37.622,38.742c-8.776,0-15.891,7.114-15.891,15.891c0,8.774,7.115,15.889,15.891,15.889
	c8.776,0,15.889-7.114,15.889-15.889C53.511,45.856,46.397,38.742,37.622,38.742z M32.28,63.588l-1.193-14.519l-0.046,0.004
	l-2.721,1.805l-0.74-1.859l3.647-2.355l2.199-0.182l1.389,16.898L32.28,63.588z M42.307,63.013
	c-3.522,0.289-5.693-3.035-6.119-8.219c-0.455-5.52,1.367-8.923,4.868-9.211c3.567-0.293,5.647,3.016,6.067,8.133
	C47.595,59.437,45.786,62.726,42.307,63.013z M41.136,47.655c-1.705,0.141-2.677,2.615-2.33,6.834
	c0.344,4.196,1.58,6.58,3.376,6.432c2.198-0.181,2.612-3.4,2.324-6.9C44.175,50.003,43.111,47.493,41.136,47.655z"/>
</svg>
